<svg xmlns="http://www.w3.org/2000/svg" width="212.369" height="192.061" viewBox="0 0 212.369 192.061"><path d="M369.611,96.942h4.14v5.718a8.658,8.658,0,0,0-4.14-1.577Zm6.111,4.335q5.129,1.781,5.129,4.342h1.772q2.768,4.137,10.251,5.714v1.577q0,1.384-3.942,3.35-5.913-3.145-16.564-12.222Q372.369,101.281,375.722,101.277Zm151.619-152.4q28.577,0,36.277,20.9-4.147,20.695-9.074,20.7,0,4.142-13.995,15.38L536.8,10.192a111.418,111.418,0,0,1,18.337,7.493q4.534,0,11.63,9.855,4.33,0,10.056,12.818,2.559,0,3.155,22.279,0,3.943-7.887,19.319,0,6.91-32.14,33.125-38.641,22.872-72.157,22.871a5.672,5.672,0,0,0-2.96.985,10.923,10.923,0,0,0-4.729-1.577c-.923.265-1.379.79-1.379,1.577l-4.537-.985-4.339.787a12.152,12.152,0,0,0-4.14-1.379,5.987,5.987,0,0,0-1.971.592q-20.308-3.353-20.3-5.321a6.6,6.6,0,0,0-.2,2.361q-5.124-4.335-15.377-7.884,0-3.745-10.648-5.324-4.926-3.15-4.927-4.534V115.08q0-1.572,2.953-3.155,2.178,0,3.552,3.548a5.419,5.419,0,0,1,1.776.787l3.35-.787q5.129,1.577,6.31,3.548,15.184,1.186,15.179,4.931c-.522,0,.132-.265,1.974-.79q9.063,1.582,11.042,3.552h2.166l2.169-1.379h1.776V127.3c-.4.923-.592,1.25-.592.985h-.394q.59,0,.589-2.953h11.24c1.971,2.361,3.416,3.548,4.335,3.548v-.2l-1.379-2.368,11.435-1.574a25.541,25.541,0,0,0,4.732.592q0-.6,19.322-4.934,20.5-5.322,41.4-18.922l9.464-5.523q0-4.335,10.642-10.648,0-1.572,7.1-11.042,0-1.771,5.721-14.785a37.6,37.6,0,0,0,.589-6.111q-1.374-10.451-6.111-15.774Q548.437,23.211,536.8,23.2v1.382q-3.547-2.173-4.534-2.173-21.1,0-37.854,10.056Q477.062,38,471.738,37.99q-7.887-3.145-7.887-8.674,0-9.464,38.446-18.73,15.382,0,20.9-7.884,4.926,0,22.48-20.109,3.939-5.129,3.939-14.395a44.529,44.529,0,0,0-22.275-5.913H525.76q-38.051,0-75.116,26.022-3.948,2.371-8.28,9.858a8.341,8.341,0,0,1-3.743.985q-3.358,0-5.129-9.855,8.676-11.434,9.266-11.435a67.08,67.08,0,0,0,13.013-8.876q11.632-5.124,11.634-6.7h4.335q0-3.155,20.5-8.482A138.551,138.551,0,0,1,527.341-51.125ZM419.1,124.148c0,.394.132.6.394.6h.393v-.6a.394.394,0,0,0-.787,0Z" transform="translate(-368.611 52.125)" fill="#9261ef" stroke="#9261ef" stroke-linecap="round" stroke-linejoin="round" stroke-width="2"/></svg>