<svg xmlns="http://www.w3.org/2000/svg" width="180" height="55" viewBox="0 0 203.698 62.24"><g transform="translate(-937.425 979.428)"><path d="M972.955-915.416c.1-.181-.164-.323-.008-.5.257-.3.181-.5.076-.376s-.332.2-.46.418.083.147.128.256-.232.267-.187.432S972.857-915.235,972.955-915.416Z" transform="translate(-10.331 -18.585)" fill="#7c7c7c"/><path d="M937.884-892.583c-.121-.035-.07-.213-.223-.228a.212.212,0,0,0-.2.145.358.358,0,0,0-.03.167c.009.091.062.151.045.246s.028.185.142.182a.45.45,0,0,0,.269-.134c.173-.037.349-.132.258-.293C938.085-892.6,937.973-892.558,937.884-892.583Z" transform="translate(0 -25.514)" fill="#7c7c7c"/><path d="M955.647-896.092c-.15.279-.3.615-.111.891a.094.094,0,0,0,.038.094c.181.133.506.112.491-.178-.007-.135-.07-.238-.034-.384a2.912,2.912,0,0,1,.125-.31c.047-.123.117-.318.03-.443C955.98-896.719,955.724-896.233,955.647-896.092Z" transform="translate(-5.309 -24.423)" fill="#7c7c7c"/><path d="M979.058-904.267h0a.09.09,0,0,0-.132.058.775.775,0,0,1-.231.451,1.706,1.706,0,0,0-.33.241c-.106.132-.145.378.046.459a.775.775,0,0,0,.681-.232c.233-.26-.012-.57.138-.861C979.291-904.267,979.12-904.386,979.058-904.267Z" transform="translate(-12.033 -22.125)" fill="#7c7c7c"/><path d="M939.346-895.064c.269-.167-.029-.542.271-.82.171-.159.358-1.077.186-.993s-.38.356-.6.456-.26.265-.38.708.189.563-.048.971-.237.332-.3.453.3,0,.382-.131A1.7,1.7,0,0,1,939.346-895.064Z" transform="translate(-0.309 -24.315)" fill="#7c7c7c"/><path d="M1040.938-979.375l-39.012,20.436a.833.833,0,0,0-.371.263,2.341,2.341,0,0,0-.246.264c-.2.332-.738.359-.749.851,0,.025-.037.028-.069.034-.293.06-.537.571-.643.852a5.081,5.081,0,0,1-.358.819c-.238.4-.568.742-.813,1.144-.133.218-.279.432-.412.648-.111.181-.211.376-.317.565-.131.234-.382.316-.512.519-.227.356-.421.731-.645,1.088a7.433,7.433,0,0,0-.6.892c-.162.369-.4.689-.581,1.043-.262.508-.691.91-.956,1.431a8.522,8.522,0,0,1-.861,1.293,5,5,0,0,0-.612.873.448.448,0,0,1-.367.279c-.1.011-.221.068-.177.193.055.16.15-.076.243,0l-1.339,1.89-.08-.042a5.086,5.086,0,0,0,.362-1.254.386.386,0,0,1,.193-.261.427.427,0,0,0,.214-.427.5.5,0,0,1,.15-.472.547.547,0,0,0,.207-.562,1.213,1.213,0,0,1,.1-.556,1.663,1.663,0,0,0,.029-1.539.622.622,0,0,1-.075-.229,1.544,1.544,0,0,0-.26-.7c-.123-.171-.285-.457-.241-.582.082-.226.011-.25-.147-.308a.159.159,0,0,1-.085-.115.71.71,0,0,0-.288-.534,4.915,4.915,0,0,1-.574-.631,1.211,1.211,0,0,0-1.445-.444,2,2,0,0,0-1.109.885c-.023.051-.1.13-.118.121-.312-.125-.259.14-.3.286a.621.621,0,0,1-.178.309c-.231.195-.315.547-.666.619-.04.009-.073.092-.1.146a3.7,3.7,0,0,1-.72,1.129,4.247,4.247,0,0,0-.538.723c-.38.628-.91,1.141-1.273,1.788a7.523,7.523,0,0,1-.656,1.028,1.99,1.99,0,0,0-.369.614c-.414-.013-.336.369-.47.582-.111.175-.2.4-.473.345s-.289.046-.236.274.109.463-.221.555c-.083.023-.191.128-.158.234.077.244-.054.372-.215.512a.927.927,0,0,0-.257.368,3.36,3.36,0,0,1-.529.9,3.121,3.121,0,0,0-.651.892.318.318,0,0,1-.226.188.4.4,0,0,0-.284.356c-.074.42-.522.632-.587,1.057,0,.021-.044.04-.07.054a.524.524,0,0,0-.237.338c-.072.25-.107.52-.451.552-.046,0-.044.176-.163.073a.206.206,0,0,1-.086-.24,13.208,13.208,0,0,0,.724-1.957,1.3,1.3,0,0,0-.131-.933.712.712,0,0,1-.09-.681c.035-.1.074-.192-.009-.279a2.8,2.8,0,0,1-.363-.689c-.085-.161-.25-.341-.119-.58.052-.1-.023-.189-.162-.233-.28-.089-.583-.163-.686-.508-.035-.117-.163-.141-.264-.185a1.35,1.35,0,0,1-.541-.32.181.181,0,0,0-.156-.076c-.373.032-.754-.143-1.125.066a.687.687,0,0,1-.387.011.834.834,0,0,0-.542.133.847.847,0,0,1-.787.115c-.168-.073-.231.027-.277.174-.075.243-.154.46-.491.478a.3.3,0,0,0-.246.428.355.355,0,0,1-.151.474c-.339.152-.43.461-.576.743-.1.191-.2.358-.466.36a.213.213,0,0,0-.206.334.321.321,0,0,1-.1.382c-.438.486-1.392,1.809-1.765,2.338-.725,1.031-1.694,1.555-2.412,2.59-.488.7-.889,1.438-1.414,2.114-.132.17-.278.339-.43.507a.393.393,0,0,1-.048.013.287.287,0,0,1-.125-.007c-.12-.1-.123-.207-.212-.317a.387.387,0,0,0-.408-.117.489.489,0,0,0-.2.123.988.988,0,0,0-.064.078c-.083.1-.1.1-.231.114-.341.032-.066.335.143.377a.352.352,0,0,0,.2-.009c.035-.014.073-.059.107-.07.2-.067.2,0,.291.081a.663.663,0,0,1,.02.3,11.562,11.562,0,0,0-1.33,1.546,3.027,3.027,0,0,1-.841.9,1.865,1.865,0,0,0-.553.662c-.24.412-.617.735-.826,1.176-.016.032-.061.051-.1.071a1.356,1.356,0,0,0-.377.386c-.3.4-1.6,2.365-1.536,1.952.087-.537-.154-.421-.162-1.259s.648-.709,1.194-1.22a5.824,5.824,0,0,0,1.088-2.915c-.095-.4.69-1.507.777-2.044s.151-.816.214-1.094-.315-.243-.434-.283.157-.148.754-.634-1.969-.652-2.2-.935a2.033,2.033,0,0,0-1.738-.028.846.846,0,0,0-.239.48,1.016,1.016,0,0,1-.392-.008.54.54,0,0,0-.425.05.654.654,0,0,1-.572.038c-.162-.073-.213-.041-.278.1-.076.169-.158.322-.407.3a.226.226,0,0,0-.231.3.275.275,0,0,1-.154.35c-.272.085-.37.312-.508.513-.093.135-.178.26-.386.236-.128-.016-.253.059-.193.233.049.14-.034.225-.121.3a11.811,11.811,0,0,0-1.045,1.05c-.646.722-1.387,1.347-2.027,2.073-.436.493-.919.944-1.381,1.412-.587.6-1.193,1.175-1.735,1.812a2.426,2.426,0,0,1-.756.638,1.352,1.352,0,0,0-.462.442c-.218.3-.542.5-.736.824-.01.017-.038.026-.059.035a1.151,1.151,0,0,0-.375.3,4.788,4.788,0,0,1-.755.817c-.485.316-.881.732-1.328,1.088-.183.147-.313.365-.587.4a1.406,1.406,0,0,0-.412.207.175.175,0,0,0-.109.164c0,.337-.024.363-.352.471-.2.068-.409.173-.451.4a1.079,1.079,0,0,1-.375.649,6.273,6.273,0,0,0-.749.644c-.156.166-.387.282-.5.495a2.453,2.453,0,0,1-.681.891.192.192,0,0,0-.059.1.576.576,0,0,1-.353.374c-.12.049-.214.14-.165.291a.247.247,0,0,0,.291.173,3.518,3.518,0,0,0,1.494-.287,5.18,5.18,0,0,1,1.291-.494,3.871,3.871,0,0,0,1.547-.942,9.8,9.8,0,0,1,1.2-.909c.592-.365,1.139-.79,1.7-1.2.427-.317.807-.7,1.242-1.005.518-.365,1-.769,1.5-1.165.17-.137.292-.349.522-.4a.934.934,0,0,0,.329-.165,4.219,4.219,0,0,0,.5-.514A13.064,13.064,0,0,1,952.487-926l1.29-.822a2.8,2.8,0,0,1-.321,1.688c-.522.58-.092,2.531-.434,2.635s-.588.366-.742.926.063.82-.192.9c-.234.072-.713.492-.483.754a2.646,2.646,0,0,0,.149.933,1.829,1.829,0,0,0,.629,1.019,4.142,4.142,0,0,0,1.395.574,4.216,4.216,0,0,0,1.081.206c.65-.133,1.589-.026,2.169-.442a6.386,6.386,0,0,1,1.591-.72,5.06,5.06,0,0,0,1.855-1.455,12.494,12.494,0,0,1,1.416-1.358c.71-.564,1.352-1.2,2.006-1.816.5-.476.935-1.029,1.451-1.489.615-.551,1.056-1.392,1.634-1.978.2-.2.32-.5.614-.6a1.123,1.123,0,0,0,.377-.244c.139-.121.643-.155.568.039-.153.4-.232.993-.4,1.372-.307.685-.832,1.057-.984,1.567a7.009,7.009,0,0,1-.222,1.192c-.252.819-.676,1.731-.686,1.82a5.15,5.15,0,0,1-.131.986,1.584,1.584,0,0,0,.374,1.569,4.2,4.2,0,0,0,2.918,1.541,3.613,3.613,0,0,0,2.706-.707,4.513,4.513,0,0,0,.946-1.207,11.2,11.2,0,0,1,.859-1.534c.236-.345.662-.715.95-1.132.445-.646.676-1.445,1.184-2.181.663-.958.758-.618,1.386-1.524.365-.528.715-1.377,1.122-1.968.472-.684.949-1.305,1.335-1.791.466-.585.618-.429.485-.14-1.092,2.372-1.862,5.066-2.951,7.44a1.2,1.2,0,0,0-.16.638c.169,1.5.4,2.585,1.773,3.334a2.67,2.67,0,0,0,1.3.325,5.735,5.735,0,0,1,.8.067,1.526,1.526,0,0,0,1.44-.808c.246-.428.478-.866.741-1.284a5.723,5.723,0,0,1,1.173-1.7.145.145,0,0,0,.052-.164c-.1-.294.073-.48.262-.648a.444.444,0,0,0,.188-.326.705.705,0,0,1,.122-.338,16.313,16.313,0,0,0,1.049-1.922,5.183,5.183,0,0,1,.622-.994,1.981,1.981,0,0,0,.444-.693,4.378,4.378,0,0,1,.461-.837,1.735,1.735,0,0,0,.229-.408,3.263,3.263,0,0,1,.205-.5c.031-.067.061-.173.165-.137.082.028.052.117.049.187-.021.5-.247.973-.24,1.482a.39.39,0,0,1-.133.265c-.056.057-.13.127-.048.205.116.112.046.222.02.336-.147.66-.273,1.439-.417,2.1-.074.341-.251.531-.327.857-.032.141.088.538.058.677a8.153,8.153,0,0,0-.442,1.915,8.8,8.8,0,0,0,.164,1.675c.46,1.043,2.76,1.442,3.556.867a15.883,15.883,0,0,0,2.112-2.124c.089-.1.067-.456.159-.565.072-.085.454-.427.528-.516.352-.422.282-.555.651-1.019.105-.132.315-.14.454-.258s.209-.348.314-.483c.152-.2.4-.253.545-.45.094-.124.094-.388.186-.511a34.658,34.658,0,0,0,2.135-3.141,6.953,6.953,0,0,1,1.127-1.629c.053.075,0,.124-.023.176-1.088,2.656-2.308,5.256-3.352,7.931-.15.385-.4,1.313-.552,1.7-.306.776.236,1.077,1.061,1.08,2.1.006,40.722,0,45.3,0a.444.444,0,0,0,.441-.459v-60.925A.458.458,0,0,0,1040.938-979.375Z" transform="translate(-0.498 0)" fill="#7c7c7c"/><path d="M1110.316-963.22a6.366,6.366,0,0,1-2.925-.613l-.8-.412-1,2.3.713.356a9.278,9.278,0,0,0,4.191.937,6.078,6.078,0,0,0,4.173-1.545,5.1,5.1,0,0,0,1.776-3.959,4.158,4.158,0,0,0-1.219-3.071,5.8,5.8,0,0,0-1.308-.971,6.893,6.893,0,0,0,.777-.823,4.2,4.2,0,0,0,.962-2.687,3.26,3.26,0,0,0-1.381-2.657c-1.634-1.242-4.289-1.269-7.205-.169l-.733.276.7,2.342.832-.29c2-.7,3.922-.709,4.665-.167a.877.877,0,0,1,.414.766,2.281,2.281,0,0,1-.958,1.635,3.638,3.638,0,0,1-2.224.957l-.795.044v2.323h.962a5.547,5.547,0,0,1,1.752.3,3.737,3.737,0,0,1,1.488.927,1.693,1.693,0,0,1,.541,1.263,2.7,2.7,0,0,1-.879,2.1A3.546,3.546,0,0,1,1110.316-963.22Z" transform="translate(-49.537 -0.619)" fill="#7c7c7c"/><path d="M1109.181-935.848h5.711l2.079,5.006h2.309l-6.568-15.657H1111.4l-6.546,15.657h2.247Zm.808-1.95,1.9-4.586c.046-.106.093-.219.14-.339.049.109.1.226.16.351l1.9,4.573Z" transform="translate(-49.319 -9.7)" fill="#7c7c7c"/><path d="M1141.539-930.729h1.262v-15.677h-2.091v11.018q0,.272,0,.533-.2-.244-.432-.516l-9.676-11.155h-1.261v15.677h2.091v-10.991l-.013-.542.26.3Z" transform="translate(-56.533 -9.692)" fill="#7c7c7c"/><path d="M1162.552-930.659a9.9,9.9,0,0,0,5.211-1.175l.265-.164v-7.253h-2.091v6.109a10.3,10.3,0,0,1-3.335.473,5.666,5.666,0,0,1-4.224-1.752,5.8,5.8,0,0,1-1.736-4.279,6.179,6.179,0,0,1,1.536-4.281,4.92,4.92,0,0,1,3.9-1.709,15.678,15.678,0,0,1,4.482.7l.524.157.607-1.862-.535-.174a16.455,16.455,0,0,0-5.079-.834,7.146,7.146,0,0,0-5.481,2.331,8.1,8.1,0,0,0-2.125,5.669,7.779,7.779,0,0,0,2.346,5.708A7.853,7.853,0,0,0,1162.552-930.659Z" transform="translate(-63.935 -9.641)" fill="#7c7c7c"/><path d="M1189.088-932.81h-6.642v-13.546h-2.091V-930.8h8.733Z" transform="translate(-71.559 -9.742)" fill="#7c7c7c"/><path d="M1205.308-932.77h-5.955v-5.479h5.188v-1.95h-5.188v-4.188h5.733v-1.969h-7.823V-930.8h8.046Z" transform="translate(-76.54 -9.742)" fill="#7c7c7c"/><path d="M1221.375-937.281a7.348,7.348,0,0,0-1.749-1.727q-.955-.669-1.907-1.307a6.85,6.85,0,0,1-1.493-1.343,2.179,2.179,0,0,1-.54-1.412c0-.754.271-1.62,2.386-1.62a6.946,6.946,0,0,1,2.708.581l.511.217.784-1.8-.5-.231a8.44,8.44,0,0,0-3.6-.779,5.056,5.056,0,0,0-3.213.958,3.286,3.286,0,0,0-1.274,2.711,4.05,4.05,0,0,0,.768,2.362,7.52,7.52,0,0,0,1.746,1.767q.953.69,1.907,1.35a7.232,7.232,0,0,1,1.5,1.365,2.138,2.138,0,0,1,.54,1.373,1.813,1.813,0,0,1-.7,1.56,3.873,3.873,0,0,1-2.329.585,5.123,5.123,0,0,1-2.883-.857l-.465-.3-1.091,1.637.437.317a6.712,6.712,0,0,0,4.032,1.218,6.055,6.055,0,0,0,3.742-1.054,3.818,3.818,0,0,0,1.453-3.221A3.968,3.968,0,0,0,1221.375-937.281Z" transform="translate(-81.023 -9.641)" fill="#7c7c7c"/><path d="M1118.838-902.933a10.312,10.312,0,0,1-3.334.472,5.67,5.67,0,0,1-4.225-1.751,5.8,5.8,0,0,1-1.736-4.279,6.187,6.187,0,0,1,1.536-4.282,4.924,4.924,0,0,1,3.9-1.708,15.7,15.7,0,0,1,4.482.7l.525.157.607-1.862-.535-.173a16.467,16.467,0,0,0-5.078-.834,7.145,7.145,0,0,0-5.48,2.331,8.1,8.1,0,0,0-2.126,5.669,7.778,7.778,0,0,0,2.346,5.707,7.85,7.85,0,0,0,5.734,2.333,9.91,9.91,0,0,0,5.212-1.174l.265-.164v-7.253h-2.091Z" transform="translate(-50.061 -18.539)" fill="#7c7c7c"/><path d="M1142.958-903.538c-.145-.162-.505-.6-1.4-1.758q-.869-1.124-1.515-2a7.892,7.892,0,0,0,1.405-1.591,4.841,4.841,0,0,0,.864-2.758,4.156,4.156,0,0,0-1.545-3.436,5.843,5.843,0,0,0-3.74-1.183c-.868,0-1.931.047-3.251.143l-.52.038v15.456h2.091v-5.9c.847.049,1.768.078,2.747.082,1.775,2.432,2.869,3.856,3.342,4.349a5.417,5.417,0,0,0,1.634,1.2,5.564,5.564,0,0,0,2.224.425l.552.009.053-1.712-.511-.06A3.894,3.894,0,0,1,1142.958-903.538Zm-7.611-10.687c.578-.032,1.1-.048,1.558-.048a3.893,3.893,0,0,1,2.414.681,2.224,2.224,0,0,1,.821,1.9,3.454,3.454,0,0,1-.873,2.349,2.283,2.283,0,0,1-1.473.976c-.767,0-1.589-.023-2.446-.069Z" transform="translate(-57.685 -18.606)" fill="#7c7c7c"/><path d="M1159.665-916.492a7.214,7.214,0,0,0-5.488,2.328,8.046,8.046,0,0,0-2.16,5.682,8.08,8.08,0,0,0,2.159,5.691,7.2,7.2,0,0,0,5.488,2.339,7.238,7.238,0,0,0,5.5-2.338,8.064,8.064,0,0,0,2.17-5.692,8.025,8.025,0,0,0-2.172-5.683A7.247,7.247,0,0,0,1159.665-916.492Zm.01,14.03a4.983,4.983,0,0,1-3.942-1.709,6.2,6.2,0,0,1-1.544-4.312,6.188,6.188,0,0,1,1.535-4.3,4.98,4.98,0,0,1,3.942-1.7,5.008,5.008,0,0,1,3.952,1.7,6.167,6.167,0,0,1,1.543,4.3,6.2,6.2,0,0,1-1.544,4.312A4.98,4.98,0,0,1,1159.675-902.462Z" transform="translate(-63.212 -18.539)" fill="#7c7c7c"/><path d="M1189.87-907.088c0,3.254-1.306,4.769-4.113,4.769s-4.113-1.515-4.113-4.769v-9.06h-2.09v9.06a7.333,7.333,0,0,0,1.537,4.885,5.81,5.81,0,0,0,4.676,1.853,5.8,5.8,0,0,0,4.667-1.843,7.363,7.363,0,0,0,1.526-4.894v-9.06h-2.091Z" transform="translate(-71.323 -18.64)" fill="#7c7c7c"/><path d="M1211.751-915.157a5.985,5.985,0,0,0-3.744-1.107c-1.056,0-2.168.056-3.3.165l-.507.049v15.424h2.091v-6h.488a7.429,7.429,0,0,0,4.5-1.391,4.451,4.451,0,0,0,1.976-3.723A4.073,4.073,0,0,0,1211.751-915.157Zm-5.464.932c1.873-.1,3.149-.022,3.992.6a2.29,2.29,0,0,1,.8,1.991,2.666,2.666,0,0,1-1.237,2.279,5.309,5.309,0,0,1-3.148.945h-.407Z" transform="translate(-78.582 -18.606)" fill="#7c7c7c"/></g></svg>