<svg xmlns="http://www.w3.org/2000/svg" width="68.306" height="69.5" viewBox="0 0 68.306 69.5"><g transform="translate(-0.012)"><g transform="translate(0.012 28.92)"><path d="M23.72,48.511A13.133,13.133,0,0,0,13.838,43.9a13.133,13.133,0,0,0-9.882,4.611,17.023,17.023,0,0,0,.066,21.871L13.9,81.516l9.882-11.133a17.022,17.022,0,0,0-.066-21.871ZM22.007,68.8l-8.1,9.223L5.8,68.8a14.469,14.469,0,0,1,0-18.775,10.887,10.887,0,0,1,8.1-3.821,10.887,10.887,0,0,1,8.1,3.821,14.469,14.469,0,0,1,0,18.775Zm0,0" transform="translate(-0.012 -43.9)" fill="#e3f5b6"/></g><path d="M79.283,28.327l7.444-8.432a12.756,12.756,0,0,0,0-16.469,9.741,9.741,0,0,0-14.888.066,12.756,12.756,0,0,0,0,16.469ZM73.552,5.007a7.653,7.653,0,0,1,5.731-2.7,7.433,7.433,0,0,1,5.731,2.7,10.284,10.284,0,0,1,0,13.373l-5.731,6.456L73.552,18.38a10.284,10.284,0,0,1,0-13.373Zm0,0" transform="translate(-23.481)" fill="#e3f5b6"/><path d="M90.242,95.687a1.188,1.188,0,0,0-1.383.856,3.591,3.591,0,0,1-.791,1.581,1.159,1.159,0,0,0,.2,1.647,1.381,1.381,0,0,0,.725.264,1.15,1.15,0,0,0,.922-.461,6.26,6.26,0,0,0,1.186-2.5,1.225,1.225,0,0,0-.856-1.383Zm0,0" transform="translate(-29.961 -32.643)" fill="#e3f5b6"/><path d="M53.731,54.23a3.545,3.545,0,0,1-1.449-.264,1.168,1.168,0,0,0-.856,2.174,6.692,6.692,0,0,0,2.24.4h.4a1.169,1.169,0,0,0,1.186-1.12A1.181,1.181,0,0,0,54.06,54.23Zm0,0" transform="translate(-17.297 -18.393)" fill="#e3f5b6"/><path d="M50.5,41.693a1.063,1.063,0,0,0,.593-.2,3.829,3.829,0,0,1,1.647-.593,1.157,1.157,0,1,0-.2-2.306,6.315,6.315,0,0,0-2.635.922,1.178,1.178,0,0,0,.593,2.174Zm0,0" transform="translate(-16.837 -13.168)" fill="#e3f5b6"/><path d="M28.991,101.9H26.686a1.186,1.186,0,0,0,0,2.372h2.306a1.127,1.127,0,0,0,1.12-1.186,1.058,1.058,0,0,0-1.12-1.186Zm0,0" transform="translate(-8.697 -34.772)" fill="#e3f5b6"/><path d="M61.549,70.266H61.22a1.167,1.167,0,0,0-1.12,1.186,1.154,1.154,0,0,0,1.12,1.12h2.306a1.186,1.186,0,0,0,0-2.372H61.549Zm0,0" transform="translate(-20.504 -23.955)" fill="#e3f5b6"/><path d="M60.82,40.906h2.372a1.181,1.181,0,0,0,1.186-1.186,1.127,1.127,0,0,0-1.186-1.12H60.886A1.169,1.169,0,0,0,59.7,39.72a1.127,1.127,0,0,0,1.12,1.186Zm0,0" transform="translate(-20.367 -13.172)" fill="#e3f5b6"/><path d="M82.386,70.3a1.186,1.186,0,0,0,0,2.372h2.306a1.186,1.186,0,0,0,0-2.372Zm0,0" transform="translate(-27.704 -23.989)" fill="#e3f5b6"/><path d="M86.911,55.586A1.181,1.181,0,0,0,85.726,54.4H83.42a1.127,1.127,0,0,0-1.12,1.186,1.11,1.11,0,0,0,1.12,1.12h2.306a1.089,1.089,0,0,0,1.186-1.12Zm0,0" transform="translate(-28.079 -18.563)" fill="#e3f5b6"/><path d="M71.917,72.572h2.306a1.186,1.186,0,1,0,0-2.372H71.917a1.127,1.127,0,0,0-1.12,1.186,1.089,1.089,0,0,0,1.12,1.186Zm0,0" transform="translate(-24.152 -23.955)" fill="#e3f5b6"/><path d="M73.691,40.906a1.127,1.127,0,0,0,1.12-1.186,1.11,1.11,0,0,0-1.12-1.12H71.386A1.169,1.169,0,0,0,70.2,39.72a1.181,1.181,0,0,0,1.186,1.186Zm0,0" transform="translate(-23.95 -13.172)" fill="#e3f5b6"/><path d="M62.386,54.4A1.181,1.181,0,0,0,61.2,55.586a1.127,1.127,0,0,0,1.186,1.12h2.306a1.169,1.169,0,0,0,1.186-1.12A1.181,1.181,0,0,0,64.691,54.4Zm0,0" transform="translate(-20.879 -18.563)" fill="#e3f5b6"/><path d="M76.377,55.586A1.181,1.181,0,0,0,75.191,54.4H72.886A1.181,1.181,0,0,0,71.7,55.586a1.127,1.127,0,0,0,1.186,1.12h2.306a1.089,1.089,0,0,0,1.186-1.12Zm0,0" transform="translate(-24.462 -18.563)" fill="#e3f5b6"/><path d="M102.245,62.109a1.115,1.115,0,0,0-1.318-.922,1.177,1.177,0,0,0-.988,1.318,2.031,2.031,0,0,1,.066.659,5.8,5.8,0,0,1-.132,1.12,1.194,1.194,0,0,0,.791,1.449c.132,0,.2.066.329.066a1.129,1.129,0,0,0,1.12-.856,5.548,5.548,0,0,0,.264-1.779c-.066-.4-.066-.725-.132-1.054Zm0,0" transform="translate(-34.058 -20.87)" fill="#e3f5b6"/><path d="M71.191,101.9H68.886a1.186,1.186,0,0,0,0,2.372h2.306a1.186,1.186,0,1,0,0-2.372Zm0,0" transform="translate(-23.097 -34.772)" fill="#e3f5b6"/><path d="M60.626,101.9H58.32a1.127,1.127,0,0,0-1.12,1.186,1.169,1.169,0,0,0,1.12,1.186h2.306a1.181,1.181,0,0,0,1.186-1.186,1.141,1.141,0,0,0-1.186-1.186Zm0,0" transform="translate(-19.514 -34.772)" fill="#e3f5b6"/><path d="M79.377,87.186A1.181,1.181,0,0,0,78.191,86H75.886a1.186,1.186,0,0,0,0,2.372h2.306a1.181,1.181,0,0,0,1.186-1.186Zm0,0" transform="translate(-25.486 -29.346)" fill="#e3f5b6"/><path d="M68.811,87.186A1.181,1.181,0,0,0,67.626,86h-2.24a1.186,1.186,0,0,0,0,2.372h2.306a1.169,1.169,0,0,0,1.12-1.186Zm0,0" transform="translate(-21.903 -29.346)" fill="#e3f5b6"/><path d="M81.626,101.9h-2.24a1.186,1.186,0,0,0,0,2.372h2.306v0a1.127,1.127,0,0,0,1.12-1.186,1.141,1.141,0,0,0-1.186-1.186Zm0,0" transform="translate(-26.68 -34.772)" fill="#e3f5b6"/><path d="M88.073,90.63a.991.991,0,0,0,.725-.264,1.159,1.159,0,0,0,.2-1.647,6.314,6.314,0,0,0-2.174-1.779,1.2,1.2,0,0,0-1.581.527,1.107,1.107,0,0,0,.527,1.515,4.509,4.509,0,0,1,1.383,1.12,1.063,1.063,0,0,0,.922.527Zm0,0" transform="translate(-29.044 -29.628)" fill="#e3f5b6"/><path d="M94.73,69.748a4.528,4.528,0,0,1-1.581.329h-.264a1.186,1.186,0,0,0,0,2.372h.264a6.235,6.235,0,0,0,2.437-.527,1.134,1.134,0,0,0,.593-1.515,1.03,1.03,0,0,0-1.449-.659Zm0,0" transform="translate(-31.287 -23.766)" fill="#e3f5b6"/><path d="M47.345,50.042a1.156,1.156,0,0,0,.725-1.449,4.137,4.137,0,0,1-.2-1.252v-.527a1.165,1.165,0,0,0-2.306-.329,3.208,3.208,0,0,0-.066.791,6.54,6.54,0,0,0,.329,1.976,1.148,1.148,0,0,0,1.12.791q.3.1.4,0Zm0,0" transform="translate(-15.522 -15.523)" fill="#e3f5b6"/><path d="M39.591,101.9H37.286a1.186,1.186,0,0,0,0,2.372h2.306a1.181,1.181,0,0,0,1.186-1.186,1.222,1.222,0,0,0-1.186-1.186Zm0,0" transform="translate(-12.314 -34.772)" fill="#e3f5b6"/><path d="M57.432,87.025a1.174,1.174,0,0,0,1.054-.659,1.134,1.134,0,0,0-.593-1.515A4.555,4.555,0,0,1,56.444,83.8a1.168,1.168,0,1,0-1.779,1.515,6.363,6.363,0,0,0,2.24,1.713,1.406,1.406,0,0,1,.527,0Zm0,0" transform="translate(-18.561 -28.461)" fill="#e3f5b6"/><path d="M96.749,55.253a6.5,6.5,0,0,0-2.7-.856,1.157,1.157,0,1,0-.2,2.306,4,4,0,0,1,1.713.527.979.979,0,0,0,.593.132,1.087,1.087,0,0,0,.988-.593,1.109,1.109,0,0,0-.4-1.515Zm0,0" transform="translate(-31.659 -18.56)" fill="#e3f5b6"/><path d="M50.091,101.9H47.786a1.186,1.186,0,0,0,0,2.372h2.306a1.181,1.181,0,0,0,1.186-1.186,1.141,1.141,0,0,0-1.186-1.186Zm0,0" transform="translate(-15.897 -34.772)" fill="#e3f5b6"/><path d="M55.093,76.875a4.08,4.08,0,0,1,.725-1.647,1.179,1.179,0,1,0-1.91-1.383,6.387,6.387,0,0,0-1.12,2.569,1.148,1.148,0,0,0,.922,1.383h.2a1.087,1.087,0,0,0,1.186-.922Zm0,0" transform="translate(-18 -25.03)" fill="#e3f5b6"/><path d="M81.831,19.463A5.731,5.731,0,1,0,76.1,13.731a5.735,5.735,0,0,0,5.731,5.731Zm0-9.354a3.623,3.623,0,1,1-3.623,3.623,3.572,3.572,0,0,1,3.623-3.623Zm0,0" transform="translate(-25.964 -2.73)" fill="#e3f5b6"/><path d="M17.517,54.4a6.917,6.917,0,1,0,6.917,6.917A6.916,6.916,0,0,0,17.517,54.4Zm0,11.594a4.611,4.611,0,1,1,4.611-4.611,4.625,4.625,0,0,1-4.611,4.611Zm0,0" transform="translate(-3.613 -18.563)" fill="#e3f5b6"/></g></svg>