<svg xmlns="http://www.w3.org/2000/svg" width="71.051" height="85.768" viewBox="0 0 71.051 85.768"><g transform="translate(-10.305 -18.414) rotate(26)"><g transform="translate(42.005 0)"><path d="M181.911,55.341a1.119,1.119,0,0,1-1.085,1.085c-3.766,0-7.6-.383-8.426-.447-.766.128-1.6.319-2.362.447l.511,4.4a1.1,1.1,0,0,1-.957,1.149,106.831,106.831,0,0,1-11.936.638,106.019,106.019,0,0,1-11.936-.638,1.1,1.1,0,0,1-.957-1.149l.511-4.4c-.766-.128-1.6-.255-2.362-.447-.83.064-4.66.447-8.426.447a1.119,1.119,0,0,1-1.085-1.085c0-4.021,1.532-8.681,4.532-13.851a59.678,59.678,0,0,1,4.277-6.319,69.705,69.705,0,0,1,1.66-7.723,82.312,82.312,0,0,1,12.958-27A1.117,1.117,0,0,1,157.719,0a1.341,1.341,0,0,1,.894.447,84.6,84.6,0,0,1,12.83,27c.7,2.553,1.213,5.17,1.66,7.723a59.677,59.677,0,0,1,4.277,6.319C180.379,46.6,181.911,51.255,181.911,55.341Zm-2.234-1.085c-.383-5.426-3.7-11.17-6-14.681a66.885,66.885,0,0,1-.128,14.3C174.89,54,177.251,54.192,179.677,54.255Zm-8.3-.319a67.8,67.8,0,0,0-2.043-25.915A76.362,76.362,0,0,0,165,15.894a17.347,17.347,0,0,1-14.809,0,76.358,76.358,0,0,0-4.34,12.128A69.191,69.191,0,0,0,143.8,53.936,74.179,74.179,0,0,0,171.379,53.936Zm-3.128,5.936-.383-3.191a79.424,79.424,0,0,1-10.277.7,80.405,80.405,0,0,1-10.34-.7l-.383,3.255A113.939,113.939,0,0,0,168.251,59.872ZM164.1,13.915a84.761,84.761,0,0,0-6.511-11.043,80.733,80.733,0,0,0-6.511,11.043,15.181,15.181,0,0,0,6.511,1.468A14.972,14.972,0,0,0,164.1,13.915ZM141.7,53.872a71.316,71.316,0,0,1-.128-14.3c-2.362,3.511-5.617,9.255-6,14.681C138,54.192,140.357,54,141.7,53.872Z" transform="translate(-133.4 0)" fill="#e3f5b6"/><path d="M165.74,38.2A10.34,10.34,0,1,1,155.4,48.54,10.338,10.338,0,0,1,165.74,38.2Zm8.17,10.34a8.234,8.234,0,1,0-8.234,8.234A8.254,8.254,0,0,0,173.91,48.54Z" transform="translate(-141.357 -13.817)" fill="#e3f5b6"/><path d="M167.983,44.4a6.383,6.383,0,1,1-6.383,6.383A6.4,6.4,0,0,1,167.983,44.4Zm4.915,6.383a4.915,4.915,0,1,0-4.915,4.915A4.917,4.917,0,0,0,172.9,50.783Z" transform="translate(-143.6 -16.059)" fill="#e3f5b6"/><path d="M179.379,115.113h-1.6a.412.412,0,0,1-.383-.383V102.283a.412.412,0,0,1,.383-.383h1.6a.412.412,0,0,1,.383.383V114.73A.339.339,0,0,1,179.379,115.113Z" transform="translate(-149.315 -36.857)" fill="#e3f5b6"/><path d="M172.479,119.581h-1.6a.412.412,0,0,1-.383-.383V102.283a.412.412,0,0,1,.383-.383h1.6a.412.412,0,0,1,.383.383V119.2A.368.368,0,0,1,172.479,119.581Z" transform="translate(-146.819 -36.857)" fill="#e3f5b6"/><path d="M165.479,115.113h-1.6a.412.412,0,0,1-.383-.383V102.283a.412.412,0,0,1,.383-.383h1.6a.412.412,0,0,1,.383.383V114.73A.368.368,0,0,1,165.479,115.113Z" transform="translate(-144.287 -36.857)" fill="#e3f5b6"/></g></g></svg>