<svg xmlns="http://www.w3.org/2000/svg" width="58.298" height="54.048" viewBox="0 0 58.298 54.048"><path d="M58.3,40.9V70.772a1.007,1.007,0,0,1-.976.976H.976A1.007,1.007,0,0,1,0,70.772V40.9a.917.917,0,0,1,.459-.8l7.467-4.94V18.676A1.007,1.007,0,0,1,8.9,17.7H49.511a1.007,1.007,0,0,1,.976.976V35.161l7.467,4.94A1.29,1.29,0,0,1,58.3,40.9ZM56.346,69.049V42.513L34.175,54.287ZM50.43,39.986h3.733l-3.733-2.47ZM4.193,69.853h49.97L29.121,53.311ZM50.43,43.489l3.044-1.608H50.43Zm-1.953,1.034V19.653H9.822v24.87l16.14,8.558L28.6,51.3a.95.95,0,0,1,1.091,0l2.642,1.781ZM1.953,69.049,24.123,54.287,1.953,42.513ZM7.869,43.489V41.881H4.825Zm0-3.5v-2.47l-3.676,2.47Z" transform="translate(0 -17.7)" fill="#e3f5b6"/><path d="M52.946,39.973v.689a3.381,3.381,0,0,1-6.261,1.781,4.3,4.3,0,0,1-2.757,1.034,4.193,4.193,0,1,1,4.193-4.193v1.378a1.436,1.436,0,1,0,2.872,0v-.689a6.72,6.72,0,1,0-13.44,0v.287a6.729,6.729,0,0,0,6.72,6.72h7.7a.976.976,0,0,1,0,1.953h-7.7A8.7,8.7,0,0,1,35.6,40.26v-.287a8.673,8.673,0,1,1,17.346,0Zm-6.778-.632a2.24,2.24,0,1,0-4.48,0,2.24,2.24,0,1,0,4.48,0Z" transform="translate(-15.152 -23.489)" fill="#e3f5b6"/></svg>