<svg xmlns="http://www.w3.org/2000/svg" width="35" height="38" viewBox="0 0 38.223 41.198"><path d="M78.956,7.436,67.5.892a8.505,8.505,0,0,0-7.585,0L48.467,7.436A8.481,8.481,0,0,0,44.6,13.98V27.217a8.481,8.481,0,0,0,3.867,6.544l11.452,6.544a8.505,8.505,0,0,0,7.585,0l11.452-6.544a8.481,8.481,0,0,0,3.867-6.544V14.129A9.2,9.2,0,0,0,78.956,7.436ZM69.289,20.673H65.719V33.613H60.365V20.673H57.837V16.063h2.528V13.088c0-2.082,1.041-5.354,5.354-5.354h4.016V12.2H66.909a1.161,1.161,0,0,0-1.19,1.19v2.677h4.164Z" transform="translate(-44.6)" fill="#fff"/></svg>