<svg xmlns="http://www.w3.org/2000/svg" width="285" height="186.101" viewBox="0 0 285 186.101"><g transform="translate(-1196.915 -2130.958)"><path d="M18.606,0V17.253h-4.79V7.192L11.224,17.253H7.344L4.79,7.192V17.253H0V0H6.977L9.3,9.265,11.717,0Zm5.738,9H19.882a4.521,4.521,0,0,1,1.277-3.185q1.5-1.378,4.8-1.378,4.121,0,5.511,1.757a4.937,4.937,0,0,1,.822,3.122V14.7a4.6,4.6,0,0,0,.316,1.871,2.133,2.133,0,0,0,.581.683H28.111a4.11,4.11,0,0,1-.265-.746,3.8,3.8,0,0,1-.126-.67A4.515,4.515,0,0,1,26.505,17a5.307,5.307,0,0,1-2.743.645,4.746,4.746,0,0,1-3.337-1.125,3.206,3.206,0,0,1-1.049-2.477,3.369,3.369,0,0,1,1.795-3.109,11.877,11.877,0,0,1,3.463-1A11.1,11.1,0,0,0,27.15,9.3a.921.921,0,0,0,.518-.822.822.822,0,0,0-.177-.518,1.675,1.675,0,0,0-1.365-.48,2.1,2.1,0,0,0-1.479.468,1.013,1.013,0,0,0-.316.784Q24.331,8.848,24.344,9Zm3.375,2.414a3.748,3.748,0,0,1-1.011.607,11.251,11.251,0,0,1-1.5.455,2.472,2.472,0,0,0-1.125.493.949.949,0,0,0-.291.7.934.934,0,0,0,.291.683,1.606,1.606,0,0,0,1.138.367,2.335,2.335,0,0,0,2.022-.923,2.926,2.926,0,0,0,.48-1.744ZM38.1,4.828V6.573A4.331,4.331,0,0,1,41.774,4.55a5.571,5.571,0,0,1,1.327.19V8.658a5.413,5.413,0,0,0-1.226-.164,3.12,3.12,0,0,0-2.831,1.3,4.183,4.183,0,0,0-.518,2.263v5.195h-4.7V4.828Zm10.428,9.1v3.324h-4.7V0h4.7V8.507l3.034-3.678h5.6L52.531,9.682l5.081,7.571H51.987l-2.553-4.31Zm23.282-1.694H62.642a2.647,2.647,0,0,0,.48,1.2,2.371,2.371,0,0,0,2,.923,2.023,2.023,0,0,0,1.82-.91h4.588a5.185,5.185,0,0,1-1.706,2.616A6.872,6.872,0,0,1,67.5,17.253a8.91,8.91,0,0,1-2.629.392,7.54,7.54,0,0,1-3.716-.91A5.911,5.911,0,0,1,58.5,13.626a7.184,7.184,0,0,1-.518-2.68,6.176,6.176,0,0,1,2.3-4.993,6.731,6.731,0,0,1,4.437-1.517A6.852,6.852,0,0,1,69.24,5.979,7.682,7.682,0,0,1,71.806,12.235ZM67,9.644a2.466,2.466,0,0,0-.392-1.2,1.955,1.955,0,0,0-1.694-.809A2.159,2.159,0,0,0,63.2,8.38a2.478,2.478,0,0,0-.493,1.264ZM78.644.822V4.828h2.25V7.609h-2.25v4.626a1.523,1.523,0,0,0,.4,1.213,1.308,1.308,0,0,0,.822.253,6.627,6.627,0,0,0,1.024-.114v3.577a19.412,19.412,0,0,1-3.2.291,3.511,3.511,0,0,1-3.375-1.618,3.759,3.759,0,0,1-.367-1.618q-.013-.3-.013-1.631V7.609H72.211V4.828h1.732V.822Zm7.672,4.007V17.253h-4.7V4.828Zm0-4.828V3.35h-4.7V0Zm5.6,4.828V6.623a5.638,5.638,0,0,1,1.34-1.441,4.839,4.839,0,0,1,2.755-.746,4.046,4.046,0,0,1,3.944,2.212,5.417,5.417,0,0,1,.531,2.515v8.089h-4.7V10.137q0-1.782-1.567-1.782a1.976,1.976,0,0,0-1.264.442,2.541,2.541,0,0,0-.746,2.111v6.345H87.517V4.828Zm22.764,0v9.063a22.511,22.511,0,0,1-.114,2.4,5.288,5.288,0,0,1-2.01,4.07,7.634,7.634,0,0,1-4.4,1.036q-3.274,0-4.753-1.517a4.74,4.74,0,0,1-1.188-2.389h4.424a1.643,1.643,0,0,0,1.618.847,1.67,1.67,0,0,0,1.593-.733,4.357,4.357,0,0,0,.278-1.871v-.392a5.494,5.494,0,0,1-3.413,1.2,5.03,5.03,0,0,1-4.007-1.706,6.062,6.062,0,0,1-1.378-4.133,6.524,6.524,0,0,1,1.934-5.031,4.662,4.662,0,0,1,3.286-1.239,4.115,4.115,0,0,1,3.855,2.086V4.828Zm-6.623,3.147a2.178,2.178,0,0,0-1.618.67,2.579,2.579,0,0,0-.7,1.909,2.763,2.763,0,0,0,.72,1.984,2.194,2.194,0,0,0,3.324-.139,2.908,2.908,0,0,0,.531-1.833,2.871,2.871,0,0,0-.493-1.782A2.075,2.075,0,0,0,108.057,7.976ZM0,25.886H7.9a8.58,8.58,0,0,1,5.46,1.631q2.882,2.275,2.882,6.99a9.8,9.8,0,0,1-1.378,5.41,6.664,6.664,0,0,1-4.715,3.071,12.869,12.869,0,0,1-2.136.152H0Zm5.119,4.487v8.279H7a4.244,4.244,0,0,0,2.414-.594,3.905,3.905,0,0,0,1.567-3.489,3.979,3.979,0,0,0-1.605-3.64,4.253,4.253,0,0,0-2.313-.556Zm16.722.341V43.139h-4.7V30.714Zm0-4.828v3.35h-4.7v-3.35ZM36.1,30.714v9.063a22.513,22.513,0,0,1-.114,2.4,5.288,5.288,0,0,1-2.01,4.07,7.634,7.634,0,0,1-4.4,1.036q-3.274,0-4.753-1.517a4.74,4.74,0,0,1-1.188-2.389H28.06a1.643,1.643,0,0,0,1.618.847,1.67,1.67,0,0,0,1.593-.733,4.357,4.357,0,0,0,.278-1.871v-.392a5.494,5.494,0,0,1-3.413,1.2,5.03,5.03,0,0,1-4.007-1.706,6.062,6.062,0,0,1-1.378-4.133,6.524,6.524,0,0,1,1.934-5.031,4.662,4.662,0,0,1,3.286-1.239,4.115,4.115,0,0,1,3.855,2.086V30.714Zm-6.623,3.147a2.178,2.178,0,0,0-1.618.67,2.579,2.579,0,0,0-.7,1.909,2.763,2.763,0,0,0,.72,1.984,2.194,2.194,0,0,0,3.324-.139,2.908,2.908,0,0,0,.531-1.833,2.871,2.871,0,0,0-.493-1.782A2.075,2.075,0,0,0,29.476,33.862Zm12.513-3.147V43.139h-4.7V30.714Zm0-4.828v3.35h-4.7v-3.35Zm7.154.822v4.007h2.25V33.5h-2.25v4.626a1.523,1.523,0,0,0,.4,1.213,1.308,1.308,0,0,0,.822.253,6.627,6.627,0,0,0,1.024-.114v3.577a19.412,19.412,0,0,1-3.2.291,3.511,3.511,0,0,1-3.375-1.618,3.759,3.759,0,0,1-.367-1.618q-.013-.3-.013-1.631V33.5H42.71V30.714h1.732V26.708Zm7.521,8.178H52.2A4.521,4.521,0,0,1,53.479,31.7q1.5-1.378,4.8-1.378,4.121,0,5.511,1.757a4.937,4.937,0,0,1,.822,3.122v5.385a4.6,4.6,0,0,0,.316,1.871,2.133,2.133,0,0,0,.581.683H60.43a4.109,4.109,0,0,1-.265-.746,3.8,3.8,0,0,1-.126-.67,4.515,4.515,0,0,1-1.213,1.163,5.307,5.307,0,0,1-2.743.645,4.746,4.746,0,0,1-3.337-1.125A3.206,3.206,0,0,1,51.7,39.929a3.369,3.369,0,0,1,1.795-3.109,11.877,11.877,0,0,1,3.463-1,11.1,11.1,0,0,0,2.515-.632.921.921,0,0,0,.518-.822.821.821,0,0,0-.177-.518,1.675,1.675,0,0,0-1.365-.48,2.1,2.1,0,0,0-1.479.468,1.013,1.013,0,0,0-.316.784Q56.651,34.734,56.664,34.886ZM60.039,37.3a3.749,3.749,0,0,1-1.011.607,11.252,11.252,0,0,1-1.5.455,2.472,2.472,0,0,0-1.125.493.949.949,0,0,0-.291.7.934.934,0,0,0,.291.683,1.606,1.606,0,0,0,1.138.367,2.335,2.335,0,0,0,2.022-.923,2.926,2.926,0,0,0,.48-1.744ZM70.846,25.886V43.139h-4.7V25.886Z" transform="translate(1367.071 2192.119) rotate(-0.199)" fill="#fff"/><path d="M1389.8,382.365c-30.329.419-54.7-23.407-56.792-51.9-1.258-17.1,4.072-32.007,16.038-44.277a54.669,54.669,0,0,1,37.577-16.854c32.87-1.633,58.23,24.359,59.381,54.095C1447.291,356.621,1420.482,382.567,1389.8,382.365ZM1370.194,279.89a49.752,49.752,0,0,0-19.615,14.8,17.186,17.186,0,0,1,1.728,1.36c.931.952,1.785,1.98,2.69,2.96,1.912,2.07,2.125,4.391,1.755,7.158a7.271,7.271,0,0,0,3.65,7.58,6.824,6.824,0,0,1,1.752,1.954c1.456,2.022,2.862,4.083,4.286,6.129l.223-.153c-.963-1.755-2.739-3.075-2.859-5.365a3.424,3.424,0,0,1,1.659.878c1.507,1.961,2.912,4,4.366,6a6.62,6.62,0,0,0,1.461,1.84,53.978,53.978,0,0,0,5,2.688,2.16,2.16,0,0,0,1.3-.016,2.525,2.525,0,0,1,2.63.764,2.619,2.619,0,0,0,1.532.957c1.736,0,2.623,1.067,3.594,2.258a3.807,3.807,0,0,0,3.762,1.665,1.559,1.559,0,0,1,2.038,1.7,5.161,5.161,0,0,1-.963,2.528,4.8,4.8,0,0,0-1.146,3.332,2,2,0,0,1-.166,1.211c-.5.7-.18,1.241.172,1.779,1.76,2.675,3.265,5.555,6.206,7.248a2.8,2.8,0,0,1,1.4,2.821c-.133,1.407-.231,2.818-.392,4.222-.348,3.044-.43,6.122-1.64,9.038-.333.8.057,1.888,0,2.837a16.09,16.09,0,0,1-.406,2.993,5.229,5.229,0,0,1-.925,1.406c.447.324.871.892,1.269.874,1.431-.066,2.856-.329,3.95-.473a15.859,15.859,0,0,1,.436-1.777,18.579,18.579,0,0,1,1.042-2.337,8.46,8.46,0,0,1,1.089-1.415c.15-.174.536-.232.575-.4.22-.909.9-.855,1.6-.9a2.571,2.571,0,0,0,2.385-3.5c2.293.724,3.162-.941,4.2-2.359.346-.471.833-.844,1.15-1.331.517-.8.89-1.689,1.428-2.468a4.639,4.639,0,0,1,1.608-1.746,9.671,9.671,0,0,0,3.436-2.1,3.567,3.567,0,0,0,1.306-2.951,5.2,5.2,0,0,1,1.909-4.578,6.8,6.8,0,0,0,1.412-2.228,1.508,1.508,0,0,0-.834-2.076,13.376,13.376,0,0,0-2.307-.9c-1.52-.436-3.107-.677-4.579-1.23-.947-.356-1.667-.743-2.2.753l-1.154-1.325-1.3.21c.286-.577.428-.915.612-1.229.729-1.235.647-1.869-.5-2.726a4.135,4.135,0,0,0-1.714-.9,11.951,11.951,0,0,1-4.552-2.109,14.372,14.372,0,0,0-3.145-1.15,18.89,18.89,0,0,1-2.038-.538,1.846,1.846,0,0,0-1.853-.043c-.332.185-.873.373-1.143.229-1.2-.636-1.934,0-2.742.734a2.346,2.346,0,0,1-1.321.62c-.988.049-1.984-.106-2.979-.123a1.667,1.667,0,0,1-1.818-1.222,6.5,6.5,0,0,1-.063-2.109c.095-.984-.373-1.523-1.343-1.425a4.176,4.176,0,0,1-1.124,0c-1.223-.218-1.471-.724-.911-1.806.237-.46.552-.884.757-1.357.114-.258.2-.727.073-.844a1.034,1.034,0,0,0-.922-.213,4.27,4.27,0,0,0-1.414,1.137c-1.3,1.795-4.271,1.374-5.357-.527a4.831,4.831,0,0,1,3.325-6.869c1.354-.275,2.715-.511,4.078-.731a3.115,3.115,0,0,1,3.607,1.769c.336.572.746,1.1,1.121,1.651l.327-.093a4.869,4.869,0,0,0,.1-1.142,11.587,11.587,0,0,0-.478-2.223,1.26,1.26,0,0,1,.514-1.605,27.139,27.139,0,0,0,2.357-1.852,1.738,1.738,0,0,0,.522-1.274c-.1-.765-.06-1.252.788-1.515.288-.09.478-.536.688-.836a6.177,6.177,0,0,1,.665-1.025c.862-.819,1.749-1.618,2.675-2.364a16.391,16.391,0,0,1,2.38-1.645,5.136,5.136,0,0,1,1.569-.3l.125.365-1.548,1.116a3.63,3.63,0,0,0,3.577-1.567c-1.9-.014-1.886-.016-2.2-2.06a.778.778,0,0,0-.634-.425,5.14,5.14,0,0,0-1.341.5c-.656.323-1.289.691-2.019,1.088.065-1.466.667-2.277,1.815-2.478a8.446,8.446,0,0,1,1.948-.089,8.63,8.63,0,0,0,5.009-.942c1.371-.788,1.5-1.151.269-2.125-1.73-1.369-3.319-2.8-4.042-4.994-.126-.383-.68-.908-.985-.876-.392.041-.827.517-1.079.912-.482.757-1.08.961-1.787.411a3.338,3.338,0,0,1-.934-.961c-.979-1.847-2.841-2.063-4.559-2.468-1.252-.294-1.82.4-1.489,1.667.224.868.536,1.712.813,2.566.448,1.369.334,1.92-.944,2.543-1.042.508-.935,1.034-.49,1.866.156.294.058,1.067-.085,1.113a2.835,2.835,0,0,1-1.662.1,1.364,1.364,0,0,1-.675-1.105,1.505,1.505,0,0,0-1.249-1.738c-.628-.187-1.26-.373-1.867-.615a52.039,52.039,0,0,1-5.139-2.155,2.093,2.093,0,0,1-.464-3.629,28.3,28.3,0,0,1,3.085-2.231c.494-.356,1.278-.677,1.381-1.137.318-1.423,1.2-1.548,2.383-1.494,1.3.059,1.815-.413,2.07-1.671.062-.3.067-.62.136-.922.267-1.175.8-1.6,1.994-1.4a6.448,6.448,0,0,1,2,.759,22.822,22.822,0,0,1,2.041,1.418c.8.568.9,1.186.212,1.9-.593.617-1.254,1.167-1.637,1.52a18.909,18.909,0,0,1,3,1.208c1.793,1.072,2.353,1.376,3.342,1.23-.393-.376-1.345-.359-.882-1.395a7.783,7.783,0,0,0,1.224.473,3.011,3.011,0,0,0,.92-.1,2.965,2.965,0,0,0-.49-.993c-.349-.308-.966-.365-1.222-.713-.221-.3-.1-.857-.131-1.3.369.123.886.131,1.083.386.906,1.169,1.439,1.145,2.366-.272-.849-.383-1.714-.721-2.527-1.153-.8-.422-1.64-.873-1.452-2.179.414.228.713.375.995.552,1.757,1.1,3.5,2.231,5.267,3.314.558.342.949.663.421,1.342a8.5,8.5,0,0,1,2.305.152,1.059,1.059,0,0,1,.566,1.79c1.088.885.988,1.565-.3,2.086-.428.172-.843.381-1.047.474.139.5.224.8.305,1.1a5.073,5.073,0,0,0,.378,1.346,32.916,32.916,0,0,0,1.957,2.8,7.248,7.248,0,0,0,1.377,1.4,2.139,2.139,0,0,0,3.524-.8c.424-.791.767-1.624,1.177-2.422a3.187,3.187,0,0,1,3.006-1.989,3.949,3.949,0,0,0,2.141-.829,6.576,6.576,0,0,1,3.354-1.5c.569-.054,1.139-.119,1.71-.177l.375-.451a7.8,7.8,0,0,1-1.393-.859,49.687,49.687,0,0,0-23.952-12.726c-1.341-.3-2.323.408-3.5,1.093l1.016.34c-.263,1.935-3.317,1.586-6.379.783,1.477-1.032,3.572-.976,4.612-2.794a5.085,5.085,0,0,0-.859-.264,48.858,48.858,0,0,0-15.156.753c-.719.158-1.317,1-1.887,1.608a.932.932,0,0,0,.1.908,1.136,1.136,0,0,0,.933.136,3.108,3.108,0,0,0,.86-.558c2.2-1.523,4.783-1.467,7.31-1.736a1.855,1.855,0,0,1-.96.661,18.04,18.04,0,0,1-2.258.3c-1.743.134-2.052.384-2.506,2.143l.93.471-.065.278a3.7,3.7,0,0,0-1.121-.1,4.007,4.007,0,0,0-1.021.553c-1.442-1.377-1.869-1.382-2.451-.368.425.582.836,1.058,1.151,1.589a1.318,1.318,0,0,1-.408,1.757c-.239.206-.669.19-1.013.274-.025-.5-.051-1-.079-1.5a2.137,2.137,0,0,0-.08-.267l-1.547-.539c.106.356.411.482.464.678a1.341,1.341,0,0,1-1.409,1.491,16.689,16.689,0,0,0-2.539-.451c-1.168.04-2.525-.764-3.5.594-.082.114-.492.109-.672.014-.555-.3-1.074-.661-1.652-1.026a2.885,2.885,0,0,1,2.65-1.034c.721.051,1.431.262,2.152.305.9.052,1.792-.009,2.274-1C1370.951,281.235,1370.951,281.235,1370.194,279.89Zm67.469,58.514a47.473,47.473,0,0,0,.912-19.879,16.329,16.329,0,0,0-1.608,2.2c-.3.459-.477,1.089-.893,1.357a5.519,5.519,0,0,0-2.816,3.509.782.782,0,0,1-.324.394,2.084,2.084,0,0,0-.713,2.035,34.726,34.726,0,0,1,.028,3.605,3.69,3.69,0,0,0,1,3.038c.9.9,1.784,1.82,2.729,2.672A12.764,12.764,0,0,0,1437.662,338.4Zm-1.134-29.137a4.038,4.038,0,0,0-1.676,4.921,2.775,2.775,0,0,0,3.441,1.613Q1437.423,312.577,1436.529,309.267Zm-28.093-6.054c-.419-.632-.816-1.3-1.281-1.921-.791-1.056-1.286-.993-1.913.212-.392.753-.77,1.515-1.056,2.083Z" transform="translate(-99.474 1898.196)" fill="#fff"/><g transform="translate(1196.915 2130.958)"><path d="M1402.833,432.276a93.05,93.05,0,1,1,82.65-135.832l-1.251.648a91.637,91.637,0,1,0,1.609,81.005l1.28.6A93.476,93.476,0,0,1,1402.833,432.276Z" transform="translate(-1309.783 -246.176)" fill="#fff"/></g></g></svg>