<svg xmlns="http://www.w3.org/2000/svg" width="87.182" height="76.901" viewBox="0 0 87.182 76.901"><g transform="translate(-1116.346 -411.154)"><path d="M1198.418,430.918h-10.475l-3.7-18.094a2.089,2.089,0,0,0-2.046-1.67h-29.614a2.09,2.09,0,0,0-2.047,1.67l-3.7,18.094h-4.461v-7.793a2.089,2.089,0,0,0-2.089-2.089h-14.278a2.089,2.089,0,0,0-2.089,2.089v7.793h-2.463a5.116,5.116,0,0,0-5.11,5.11V476.55a5.118,5.118,0,0,0,5.11,5.111h26.84a31.7,31.7,0,0,0,38.182,0h11.94a5.117,5.117,0,0,0,5.11-5.111V436.028A5.115,5.115,0,0,0,1198.418,430.918Zm-44.132-15.585h26.2l2.751,13.436a31.718,31.718,0,0,0-31.7,0Zm-26.19,9.881h10.1v5.7H1128.1Zm-6.64,52.27a.932.932,0,0,1-.932-.932h0V436.028a.934.934,0,0,1,.932-.932h22.271a31.51,31.51,0,0,0-7.847,17.132v.046c-.029.231-.055.462-.08.7l-.014.139c-.02.2-.038.4-.055.61,0,.068-.011.134-.015.2-.014.188-.026.376-.035.565,0,.077-.011.154-.014.231-.009.189-.015.379-.022.567,0,.076-.006.149-.008.223-.006.26-.011.522-.011.786s0,.524.011.786a2.045,2.045,0,0,0,.008.222c.006.189.012.379.022.567,0,.077.009.154.014.231.009.189.022.377.035.565,0,.068.011.134.015.2.017.2.035.408.055.61l.014.139c.025.233.051.465.08.7v.045a31.492,31.492,0,0,0,7.847,17.132Zm18.669-16.955-.011-.068c-.028-.186-.054-.373-.079-.559-.009-.068-.017-.134-.026-.2-.018-.159-.037-.319-.054-.479-.011-.1-.02-.2-.029-.293-.014-.138-.026-.277-.037-.416-.011-.123-.018-.248-.026-.371s-.017-.237-.023-.357c-.008-.154-.014-.31-.02-.464,0-.092-.008-.185-.011-.277-.006-.251-.009-.5-.009-.752s0-.5.009-.753c0-.092.008-.183.011-.276.006-.156.012-.311.02-.465.006-.119.015-.237.023-.356s.015-.25.026-.373c.011-.139.023-.277.037-.414.009-.1.018-.2.029-.294.017-.16.035-.319.054-.478.009-.068.017-.136.026-.2.025-.186.051-.373.079-.558l.011-.071a27.59,27.59,0,0,1,54.524,0l.011.071c.029.185.054.371.079.558.009.068.017.136.026.2.02.159.037.317.054.478.011.1.02.2.029.294.014.137.026.276.037.414.011.123.019.248.026.373s.017.237.023.356c.008.154.014.31.02.465,0,.092.008.183.011.276.006.251.011.5.011.753s0,.5-.011.752c0,.092-.008.185-.011.277-.006.154-.012.31-.02.464-.006.12-.014.239-.023.357s-.015.248-.026.371c-.01.139-.023.278-.037.416-.009.1-.018.2-.029.293-.017.16-.034.32-.054.479-.009.068-.017.134-.026.2-.025.186-.049.373-.079.559l-.011.068a27.59,27.59,0,0,1-54.524,0Zm59.225,16.023a.932.932,0,0,1-.932.932h-7.375a31.486,31.486,0,0,0,7.847-17.132l.006-.045c.028-.231.056-.464.079-.7l.015-.139c.02-.2.037-.407.054-.61,0-.066.011-.132.015-.2.014-.188.026-.376.037-.565,0-.077.009-.154.012-.231.009-.188.015-.377.022-.567,0-.074.006-.148.008-.222.006-.262.011-.524.011-.786s0-.525-.011-.786a2.1,2.1,0,0,0-.008-.223c-.006-.188-.012-.377-.022-.567,0-.077-.009-.154-.012-.231-.011-.19-.023-.377-.037-.565,0-.066-.011-.132-.015-.2-.017-.2-.034-.407-.054-.61l-.015-.139c-.023-.233-.051-.464-.079-.7l-.006-.046a31.5,31.5,0,0,0-7.847-17.132h7.371a.933.933,0,0,1,.932.932Z" fill="#fff"/><path d="M1167.387,435.165a21.125,21.125,0,1,0,21.125,21.125h0A21.147,21.147,0,0,0,1167.387,435.165Zm0,38.07a16.946,16.946,0,1,1,16.947-16.945h0A16.965,16.965,0,0,1,1167.387,473.235Z" fill="#fff"/><path d="M1180.464,449.853a14.555,14.555,0,0,0-7.73-7.126,1.441,1.441,0,0,0-1.131,2.651l.074.029a11.691,11.691,0,0,1,6.2,5.717,1.441,1.441,0,0,0,2.585-1.274Z" fill="#fff"/><path d="M1167.387,441.717a14.592,14.592,0,0,0-14.573,14.573,1.441,1.441,0,0,0,2.882,0,11.7,11.7,0,0,1,11.691-11.691,1.441,1.441,0,1,0,0-2.882Z" fill="#fff"/><path d="M1161.494,422.02h11.785c2.648,0,2.653-4.116,0-4.116h-11.785C1158.846,417.9,1158.842,422.02,1161.494,422.02Z" fill="#fff"/></g></svg>