<svg xmlns="http://www.w3.org/2000/svg" width="56.539" height="84.476" viewBox="0 0 56.539 84.476"><g transform="translate(-1422.375 -406.58)"><path d="M1469.384,472.655a7.283,7.283,0,0,0,7.275-7.275V413.855a7.283,7.283,0,0,0-7.275-7.275H1431.7a7.284,7.284,0,0,0-7.275,7.275v51.53a7.283,7.283,0,0,0,7.275,7.275h3.169l-1.834,15.31h-9.08a1.543,1.543,0,1,0-.079,3.085c.027,0,.053,0,.079,0h53.453a1.543,1.543,0,0,0,0-3.085h-9.361l-1.834-15.31Zm4.189-58.806v45.8h-46.059V413.855Zm-8.632,74.12h-28.8l1.834-15.31H1463.1Z" fill="#fff"/><path d="M1466.209,457.163h3.6a1.543,1.543,0,0,0,1.543-1.543h0V433.733a1.543,1.543,0,0,0-3.085-.077v20.422h-2.055a1.543,1.543,0,0,0,0,3.085Z" fill="#fff"/><path d="M1469.806,429.908a1.543,1.543,0,0,0,1.543-1.543h0v-3.429a1.543,1.543,0,0,0-3.085-.078v3.507a1.542,1.542,0,0,0,1.541,1.543Z" fill="#fff"/></g></svg>