<svg xmlns="http://www.w3.org/2000/svg" width="350" height="218.69" viewBox="0 0 350 218.69"><g transform="translate(-298.554 -1778.392)"><path d="M.643,3.657h8.3A9.014,9.014,0,0,1,14.679,5.37q3.028,2.39,3.028,7.343A10.3,10.3,0,0,1,16.259,18.4a7,7,0,0,1-4.953,3.227,13.52,13.52,0,0,1-2.244.159H.643ZM6.021,8.371v8.7H8a4.459,4.459,0,0,0,2.536-.624,4.1,4.1,0,0,0,1.647-3.665q0-2.749-1.686-3.824a4.468,4.468,0,0,0-2.43-.584Zm17.567.359V21.782h-4.94V8.73Zm0-5.072V7.176h-4.94V3.657Zm.7,13.876h4.74a1.833,1.833,0,0,0,2.111,1.819,1.654,1.654,0,0,0,1.169-.372,1.039,1.039,0,0,0,.345-.8.917.917,0,0,0-.7-.9q-.359-.12-3.466-.73a5.371,5.371,0,0,1-2.961-1.408,3.49,3.49,0,0,1-.969-2.47,3.569,3.569,0,0,1,1.607-3.081A8.19,8.19,0,0,1,31,8.318a9.344,9.344,0,0,1,3.771.664,3.722,3.722,0,0,1,2.111,2.045,6.694,6.694,0,0,1,.319,1.527H32.578a1.747,1.747,0,0,0-.332-.85,1.72,1.72,0,0,0-1.368-.478,2.152,2.152,0,0,0-1.129.266.769.769,0,0,0-.4.677q0,.531.651.783a5.72,5.72,0,0,0,1.368.292q2.045.292,2.842.491a4.5,4.5,0,0,1,2.7,1.726,3.9,3.9,0,0,1,.7,2.284,3.609,3.609,0,0,1-1.62,3.134A8.491,8.491,0,0,1,31,22.194a9.072,9.072,0,0,1-4.355-.929,4.058,4.058,0,0,1-2.191-2.549A7.819,7.819,0,0,1,24.292,17.533Zm28.3-1.022H42.962a2.78,2.78,0,0,0,.5,1.261,2.49,2.49,0,0,0,2.1.969,2.125,2.125,0,0,0,1.912-.956H52.3A5.447,5.447,0,0,1,50.5,20.534a7.219,7.219,0,0,1-2.443,1.248,9.36,9.36,0,0,1-2.762.412,7.921,7.921,0,0,1-3.9-.956,6.209,6.209,0,0,1-2.788-3.267,7.547,7.547,0,0,1-.544-2.815,6.488,6.488,0,0,1,2.417-5.245,7.072,7.072,0,0,1,4.661-1.593,7.2,7.2,0,0,1,4.754,1.62Q52.575,12.155,52.589,16.511Zm-5.046-2.722a2.591,2.591,0,0,0-.412-1.261,2.054,2.054,0,0,0-1.779-.85,2.268,2.268,0,0,0-1.806.783,2.6,2.6,0,0,0-.518,1.328Zm10.6-5.059v1.886A5.922,5.922,0,0,1,59.547,9.1a5.084,5.084,0,0,1,2.895-.783,4.25,4.25,0,0,1,4.143,2.324,5.691,5.691,0,0,1,.558,2.642v8.5H62.2V14.306q0-1.872-1.647-1.872a2.076,2.076,0,0,0-1.328.465,2.669,2.669,0,0,0-.783,2.218v6.666H53.518V8.73Zm6.918-5.112A5.829,5.829,0,0,1,64.792,5.5a2.65,2.65,0,0,1-1.036,1.354,2.814,2.814,0,0,1-1.62.478,3.508,3.508,0,0,1-1.421-.279l-1.474-.611a.854.854,0,0,0-.385-.08q-.717,0-.783,1.009h-2.5A4.544,4.544,0,0,1,56.041,5.2,2.569,2.569,0,0,1,58.4,3.6a3.152,3.152,0,0,1,1.328.292l1.248.571a1.608,1.608,0,0,0,.677.159q.717,0,.837-1.009Zm10.317,4.7a7.812,7.812,0,0,1,3.731.943,6.288,6.288,0,0,1,2.749,2.868,7.073,7.073,0,0,1,.69,3.134,6.57,6.57,0,0,1-1.992,4.94,6.945,6.945,0,0,1-2.536,1.527,8.146,8.146,0,0,1-2.735.465,7.945,7.945,0,0,1-3.824-.943,6.292,6.292,0,0,1-2.749-2.868,7.013,7.013,0,0,1-.69-3.107A6.5,6.5,0,0,1,70.01,10.31,7.535,7.535,0,0,1,75.375,8.318Zm-.119,3.439q-2.244,0-2.244,3.466,0,3.532,2.271,3.532t2.284-3.479Q77.566,11.757,75.255,11.757ZM101.892,8.73,97.869,20.654a9.528,9.528,0,0,1-2.629,4.462,4.3,4.3,0,0,1-2.669.823q-.319.013-1.222.013H88.72V22.128q1.168.027,1.275.027,1.554,0,1.554-.983a3.992,3.992,0,0,0-.319-1.315L87.007,8.73h5.179l2.271,8.06,2.271-8.06ZM14.771,30.852V48.977H10.111v-1.5a5.086,5.086,0,0,1-1.288,1.248,5.119,5.119,0,0,1-2.709.664,5.057,5.057,0,0,1-4.262-1.912A7.931,7.931,0,0,1,.324,42.484a7.772,7.772,0,0,1,1.54-4.966,5.023,5.023,0,0,1,4.143-2.005,4.8,4.8,0,0,1,3.824,1.739v-6.4ZM7.535,39.217a1.869,1.869,0,0,0-1.726.983,4.7,4.7,0,0,0,.106,4.435,1.778,1.778,0,0,0,1.58.823A2.072,2.072,0,0,0,9.367,44.4a4.059,4.059,0,0,0,.5-2.125A3.858,3.858,0,0,0,9.394,40.2,2.021,2.021,0,0,0,7.535,39.217Zm22.706,4.488H20.614a2.78,2.78,0,0,0,.5,1.261,2.49,2.49,0,0,0,2.1.969,2.125,2.125,0,0,0,1.912-.956h4.82a5.447,5.447,0,0,1-1.793,2.749,7.219,7.219,0,0,1-2.443,1.248,9.36,9.36,0,0,1-2.762.412,7.921,7.921,0,0,1-3.9-.956,6.209,6.209,0,0,1-2.788-3.267,7.547,7.547,0,0,1-.544-2.815,6.488,6.488,0,0,1,2.417-5.245,7.072,7.072,0,0,1,4.661-1.593,7.2,7.2,0,0,1,4.754,1.62Q30.228,39.35,30.241,43.705ZM25.2,40.983a2.591,2.591,0,0,0-.412-1.261A2.054,2.054,0,0,0,23,38.872a2.268,2.268,0,0,0-1.806.783,2.6,2.6,0,0,0-.518,1.328Zm5.418,3.745h4.74a1.833,1.833,0,0,0,2.111,1.819,1.654,1.654,0,0,0,1.169-.372,1.039,1.039,0,0,0,.345-.8.917.917,0,0,0-.7-.9q-.359-.12-3.466-.73a5.371,5.371,0,0,1-2.961-1.408,3.49,3.49,0,0,1-.969-2.47,3.569,3.569,0,0,1,1.607-3.081,8.19,8.19,0,0,1,4.833-1.275,9.344,9.344,0,0,1,3.771.664A3.722,3.722,0,0,1,43.2,38.221a6.694,6.694,0,0,1,.319,1.527H38.9a1.747,1.747,0,0,0-.332-.85A1.72,1.72,0,0,0,37.2,38.42a2.152,2.152,0,0,0-1.129.266.769.769,0,0,0-.4.677q0,.531.651.783a5.72,5.72,0,0,0,1.368.292q2.045.292,2.842.491a4.5,4.5,0,0,1,2.7,1.726,3.9,3.9,0,0,1,.7,2.284,3.609,3.609,0,0,1-1.62,3.134,8.491,8.491,0,0,1-4.993,1.315,9.072,9.072,0,0,1-4.355-.929,4.058,4.058,0,0,1-2.191-2.549A7.82,7.82,0,0,1,30.613,44.728Zm18.856-4.422H44.781a4.75,4.75,0,0,1,1.341-3.346q1.58-1.447,5.046-1.447,4.329,0,5.789,1.846a5.186,5.186,0,0,1,.863,3.28v5.657a4.827,4.827,0,0,0,.332,1.965,2.241,2.241,0,0,0,.611.717H53.425a4.317,4.317,0,0,1-.279-.783,3.993,3.993,0,0,1-.133-.7,4.743,4.743,0,0,1-1.275,1.222,5.576,5.576,0,0,1-2.881.677,4.986,4.986,0,0,1-3.506-1.182,3.368,3.368,0,0,1-1.1-2.6,3.539,3.539,0,0,1,1.886-3.267,12.477,12.477,0,0,1,3.638-1.049,11.661,11.661,0,0,0,2.642-.664.967.967,0,0,0,.544-.863.863.863,0,0,0-.186-.544,1.76,1.76,0,0,0-1.434-.5,2.211,2.211,0,0,0-1.554.491,1.064,1.064,0,0,0-.332.823Q49.455,40.147,49.468,40.306Zm3.545,2.536a3.938,3.938,0,0,1-1.062.637,11.821,11.821,0,0,1-1.58.478,2.6,2.6,0,0,0-1.182.518,1,1,0,0,0-.305.73.982.982,0,0,0,.305.717,1.687,1.687,0,0,0,1.2.385,2.453,2.453,0,0,0,2.125-.969,3.074,3.074,0,0,0,.5-1.832Zm10.9-6.918v1.832a4.55,4.55,0,0,1,3.864-2.125,5.852,5.852,0,0,1,1.394.2v4.116a5.686,5.686,0,0,0-1.288-.173,3.278,3.278,0,0,0-2.974,1.368,4.394,4.394,0,0,0-.544,2.377v5.457h-4.94V35.924Zm10.5,0v1.832a4.55,4.55,0,0,1,3.864-2.125,5.852,5.852,0,0,1,1.394.2v4.116a5.686,5.686,0,0,0-1.288-.173,3.278,3.278,0,0,0-2.974,1.368,4.394,4.394,0,0,0-.544,2.377v5.457h-4.94V35.924Zm13.053-.412a7.812,7.812,0,0,1,3.731.943,6.288,6.288,0,0,1,2.749,2.868,7.073,7.073,0,0,1,.69,3.134A6.57,6.57,0,0,1,92.65,47.4a6.945,6.945,0,0,1-2.536,1.527,8.146,8.146,0,0,1-2.735.465,7.945,7.945,0,0,1-3.824-.943,6.292,6.292,0,0,1-2.749-2.868,7.013,7.013,0,0,1-.69-3.107A6.5,6.5,0,0,1,82.107,37.5,7.535,7.535,0,0,1,87.471,35.512Zm-.12,3.439q-2.244,0-2.244,3.466,0,3.532,2.271,3.532t2.284-3.479Q89.662,38.951,87.352,38.951Zm13.159-8.1V48.977h-4.94V30.852Zm6.2,0V48.977h-4.94V30.852Zm8.3,4.661a7.812,7.812,0,0,1,3.731.943,6.288,6.288,0,0,1,2.749,2.868,7.073,7.073,0,0,1,.69,3.134,6.57,6.57,0,0,1-1.992,4.94,6.945,6.945,0,0,1-2.536,1.527,8.146,8.146,0,0,1-2.735.465,7.945,7.945,0,0,1-3.824-.943,6.292,6.292,0,0,1-2.749-2.868,7.013,7.013,0,0,1-.69-3.107,6.5,6.5,0,0,1,1.992-4.966A7.535,7.535,0,0,1,115.011,35.512Zm-.12,3.439q-2.244,0-2.244,3.466,0,3.532,2.271,3.532T117.2,42.47Q117.2,38.951,114.892,38.951Zm26.438-8.1V48.977h-4.661v-1.5a5.413,5.413,0,0,1-8.259,0,7.931,7.931,0,0,1-1.527-4.993,7.772,7.772,0,0,1,1.54-4.966,5.023,5.023,0,0,1,4.143-2.005,4.8,4.8,0,0,1,3.824,1.739v-6.4Zm-7.237,8.365a1.869,1.869,0,0,0-1.726.983,4.7,4.7,0,0,0,.106,4.435,1.778,1.778,0,0,0,1.58.823,2.072,2.072,0,0,0,1.872-1.062,4.059,4.059,0,0,0,.5-2.125,3.858,3.858,0,0,0-.478-2.071A2.021,2.021,0,0,0,134.092,39.217ZM156.8,43.705h-9.627a2.781,2.781,0,0,0,.5,1.261,2.49,2.49,0,0,0,2.1.969,2.125,2.125,0,0,0,1.912-.956h4.82a5.447,5.447,0,0,1-1.793,2.749,7.219,7.219,0,0,1-2.443,1.248,9.36,9.36,0,0,1-2.762.412,7.921,7.921,0,0,1-3.9-.956,6.209,6.209,0,0,1-2.788-3.267,7.547,7.547,0,0,1-.544-2.815,6.488,6.488,0,0,1,2.417-5.245,7.071,7.071,0,0,1,4.661-1.593,7.2,7.2,0,0,1,4.754,1.62Q156.785,39.35,156.8,43.705Zm-5.046-2.722a2.591,2.591,0,0,0-.412-1.261,2.054,2.054,0,0,0-1.779-.85,2.268,2.268,0,0,0-1.806.783,2.6,2.6,0,0,0-.518,1.328ZM6.379,73.6,5.5,76.171H.085L6.725,58.046H12.2l6.639,18.125H13.258L12.421,73.6Zm1.261-3.745h3.545l-1.7-5.338Zm16.532-6.732v1.607A6.119,6.119,0,0,1,25.421,63.5a4.66,4.66,0,0,1,2.735-.8A5.11,5.11,0,0,1,32.3,64.539a7.827,7.827,0,0,1,1.62,5.205A7.566,7.566,0,0,1,32.551,74.5a5.239,5.239,0,0,1-4.408,2.085,4.779,4.779,0,0,1-2.523-.651,4.457,4.457,0,0,1-1.169-1.076v5.577h-4.94V63.118Zm2.417,3.625a1.917,1.917,0,0,0-1.607.81,3.829,3.829,0,0,0-.624,2.35,3.675,3.675,0,0,0,.571,2.178A2.055,2.055,0,0,0,26.7,73a1.885,1.885,0,0,0,1.793-1.049,4.2,4.2,0,0,0,.451-2.018,3.739,3.739,0,0,0-.744-2.47A2.008,2.008,0,0,0,26.589,66.743Zm12.933-3.625v1.607A6.119,6.119,0,0,1,40.771,63.5a4.66,4.66,0,0,1,2.735-.8,5.11,5.11,0,0,1,4.143,1.832,7.827,7.827,0,0,1,1.62,5.205A7.566,7.566,0,0,1,47.9,74.5a5.239,5.239,0,0,1-4.408,2.085,4.779,4.779,0,0,1-2.523-.651A4.457,4.457,0,0,1,39.8,74.857v5.577h-4.94V63.118Zm2.417,3.625a1.917,1.917,0,0,0-1.607.81,3.829,3.829,0,0,0-.624,2.35,3.675,3.675,0,0,0,.571,2.178A2.055,2.055,0,0,0,42.046,73a1.885,1.885,0,0,0,1.793-1.049,4.2,4.2,0,0,0,.451-2.018,3.739,3.739,0,0,0-.744-2.47A2.008,2.008,0,0,0,41.939,66.743Zm7.715,5.179h4.74a1.833,1.833,0,0,0,2.111,1.819,1.654,1.654,0,0,0,1.169-.372,1.039,1.039,0,0,0,.345-.8.917.917,0,0,0-.7-.9q-.359-.12-3.466-.73a5.371,5.371,0,0,1-2.961-1.408,3.49,3.49,0,0,1-.969-2.47,3.569,3.569,0,0,1,1.607-3.081,8.19,8.19,0,0,1,4.833-1.275,9.344,9.344,0,0,1,3.771.664,3.722,3.722,0,0,1,2.111,2.045,6.693,6.693,0,0,1,.319,1.527H57.94a1.747,1.747,0,0,0-.332-.85,1.72,1.72,0,0,0-1.368-.478,2.152,2.152,0,0,0-1.129.266.769.769,0,0,0-.4.677q0,.531.651.783a5.72,5.72,0,0,0,1.368.292q2.045.292,2.842.491a4.5,4.5,0,0,1,2.7,1.726,3.9,3.9,0,0,1,.7,2.284,3.609,3.609,0,0,1-1.62,3.134,8.491,8.491,0,0,1-4.993,1.315A9.072,9.072,0,0,1,52,75.653,4.058,4.058,0,0,1,49.814,73.1,7.82,7.82,0,0,1,49.654,71.922Z" transform="translate(491.756 1840.588)" fill="#fff"/><g transform="translate(360.255 1824.584)"><path d="M960.4,117.891a5.9,5.9,0,0,1,5.754,4.027l8.439,22.764,20.542-3.867a6.462,6.462,0,0,1,1.2-.113,6.159,6.159,0,0,1,5.81,3.965l8.7,23.407a6.241,6.241,0,0,1-3.794,7.968L982.151,185.3l-.291.093a5.619,5.619,0,0,1-2.015.385,6.962,6.962,0,0,1-3.352-.973l-23.962-13.111c-4.5-2.367-3.3-10.3,3.563-10.3a10.789,10.789,0,0,1,2.311.271l9.1,2.216-13.849-37.32c-1.852-4.983,2.553-8.673,6.744-8.673m0-4.051a11.644,11.644,0,0,0-9.47,4.841,9.849,9.849,0,0,0-1.073,9.3l11.2,30.168-1.693-.412-.04-.01-.04-.008a14.759,14.759,0,0,0-3.189-.367c-4.957,0-8.88,2.91-9.993,7.415a9.278,9.278,0,0,0,4.543,10.518l23.905,13.08a10.88,10.88,0,0,0,5.3,1.472,9.71,9.71,0,0,0,3.341-.608l.2-.065.09-.028.09-.033,24.9-9.256a10.418,10.418,0,0,0,5.817-5.306,10.027,10.027,0,0,0,.364-7.874l-8.7-23.407a10.257,10.257,0,0,0-9.608-6.6,10.549,10.549,0,0,0-1.952.183l-17.183,3.234-7.249-19.558a9.993,9.993,0,0,0-9.551-6.669h0Z" transform="translate(-914.102 -86.496)" fill="#fff"/><path d="M991.734,144.319a2.634,2.634,0,0,0,2.633-2.633V112.123a14.762,14.762,0,0,0-14.746-14.744H941.467a14.761,14.761,0,0,0-14.744,14.744v94.7a14.761,14.761,0,0,0,14.744,14.744h38.154a14.762,14.762,0,0,0,14.746-14.744,2.633,2.633,0,0,0-2.633-2.633H931.987V114.171H989.1v27.515A2.632,2.632,0,0,0,991.734,144.319Zm-29.884,62.867A4.814,4.814,0,1,1,957.037,212,4.813,4.813,0,0,1,961.851,207.186Zm4.791-99.322H955.394a1.882,1.882,0,0,1,0-3.761h11.248A1.882,1.882,0,0,1,966.642,107.864Z" transform="translate(-926.723 -97.379)" fill="#fff"/></g><g transform="translate(298.554 1778.392)"><path d="M998.923,288.261a109.345,109.345,0,1,1,90.043-171.4.83.83,0,1,1-1.365.944,107.683,107.683,0,1,0,.618,121.315.831.831,0,0,1,1.375.932A109.3,109.3,0,0,1,998.923,288.261Z" transform="translate(-889.579 -69.571)" fill="#fff"/></g></g></svg>