<svg xmlns="http://www.w3.org/2000/svg" width="117.492" height="68.047" viewBox="0 0 117.492 68.047"><g transform="translate(-776.978 -132.801)"><path d="M835.281,137.76a9.36,9.36,0,0,1,2.294,18.434,24.4,24.4,0,0,0,40.189,6.076,7.311,7.311,0,1,1,2.39,1.225l-5.961,32.4H796.368l-5.925-32.2a7.319,7.319,0,1,1,2.716-1.032,24.4,24.4,0,0,0,39.826-6.466,9.36,9.36,0,0,1,2.3-18.437m0-4.959a14.325,14.325,0,0,0-9.259,25.249,19.539,19.539,0,0,1-15.155,7.267,19.249,19.249,0,0,1-10.7-3.2,12.279,12.279,0,1,0-13.9,6.27l5.227,28.4a4.96,4.96,0,0,0,4.877,4.061h77.82a4.956,4.956,0,0,0,4.875-4.061l5.191-28.2a12.261,12.261,0,1,0-13.184-6.955,19.427,19.427,0,0,1-26.536-3.582,14.324,14.324,0,0,0-9.256-25.249Z" fill="#fff"/><path d="M843.8,190.718l-8.523-4.481-8.523,4.481,1.628-9.49-6.9-6.721,9.529-1.385,4.261-8.635,4.261,8.635,9.529,1.385-6.9,6.721Z" fill="#fff"/></g></svg>