<svg xmlns="http://www.w3.org/2000/svg" xmlns:xlink="http://www.w3.org/1999/xlink" width="702.375" height="560.221" viewBox="0 0 702.375 560.221"><defs><linearGradient id="a" x1="-30.234" y1="-2.579" x2="-30.226" y2="-2.575" gradientUnits="objectBoundingBox"><stop offset="0" stop-color="#f99b55"/><stop offset="1" stop-color="#e91574"/></linearGradient><linearGradient id="b" x1="-98.614" y1="-17.311" x2="-98.518" y2="-17.202" xlink:href="#a"/><linearGradient id="c" x1="-125.504" y1="-21.595" x2="-125.345" y2="-21.43" xlink:href="#a"/><linearGradient id="d" x1="-247.714" y1="-24.643" x2="-247.06" y2="-24.441" xlink:href="#a"/><linearGradient id="e" x1="-247.704" y1="-25.287" x2="-247.049" y2="-25.084" xlink:href="#a"/><linearGradient id="f" x1="-247.659" y1="-25.947" x2="-247.005" y2="-25.745" xlink:href="#a"/><linearGradient id="g" x1="-155.565" y1="-24.746" x2="-155.321" y2="-24.581" xlink:href="#a"/></defs><g transform="translate(-170.825 -2668.527)"><g transform="translate(-880)"><path d="M6.45-17.325H1.625V0h5.2C11.25,0,15.45-1.775,15.45-8.75,15.45-15.9,11.075-17.325,6.45-17.325ZM5.725-14.35h1.3c2.4,0,4.175.95,4.175,5.6,0,4.6-1.65,5.775-4.125,5.775H5.725Zm14.05-5.925a2.214,2.214,0,0,0-2.325,2.25,2.214,2.214,0,0,0,2.325,2.25,2.235,2.235,0,0,0,2.35-2.25A2.235,2.235,0,0,0,19.775-20.275ZM21.775,0V-13.275h-3.95V0ZM29.55-13.7c-3.35,0-5.425,1.775-5.425,4.05,0,2.05,1.3,3.4,3.925,4.15,2.4.675,2.8.95,2.8,1.875,0,.775-.725,1.225-1.95,1.225a5.556,5.556,0,0,1-3.475-1.325L23.475-1.55A8.254,8.254,0,0,0,29.025.425c3.3,0,5.9-1.625,5.9-4.375,0-2.375-1.475-3.475-4.1-4.225-2.375-.7-2.725-1-2.725-1.7,0-.6.525-1,1.725-1a5.846,5.846,0,0,1,3.15,1.05l1.45-2.25A7.724,7.724,0,0,0,29.55-13.7ZM48.525-6.9c0-4.3-2.325-6.8-6.125-6.8-4.025,0-6.2,3.15-6.2,7.125,0,4.15,2.25,7,6.675,7a8.162,8.162,0,0,0,5.175-1.85l-1.625-2.2A5.381,5.381,0,0,1,43.25-2.45c-1.625,0-2.75-.65-3.025-3.025H48.45A13.252,13.252,0,0,0,48.525-6.9ZM44.65-7.85H40.225c.175-2.375.95-3.225,2.275-3.225,1.575,0,2.125,1.25,2.15,3.05ZM55.175-17C56-17,56.5-15.875,58.1-15.875c1.4,0,2.525-1.25,3.175-2.925L59.3-19.775c-.4.725-.75,1.1-1.3,1.1-.825,0-1.35-1.125-2.9-1.125-1.5,0-2.6,1.35-3.225,2.95l1.975.95C54.25-16.6,54.575-17,55.175-17Zm3.4,3.3a5.052,5.052,0,0,0-4.05,2l-.275-1.575H50.8V0h3.95V-9.075c.7-1.1,1.425-1.725,2.3-1.725.775,0,1.25.375,1.25,1.775V0h3.95V-9.7C62.25-12.225,60.875-13.7,58.575-13.7Zm12.4,0c-4.05,0-6.5,2.8-6.5,7.05,0,4.475,2.475,7.075,6.5,7.075,4.05,0,6.5-2.8,6.5-7.05C77.475-11.1,75.025-13.7,70.975-13.7Zm0,2.9c1.6,0,2.4,1.225,2.4,4.175,0,2.875-.8,4.15-2.4,4.15s-2.4-1.225-2.4-4.175C68.575-9.525,69.375-10.8,70.975-10.8ZM93.075.025l4.225-13.3H93.225l-2.6,10.75L88.25-13.275h-4.2L88.1,0h1.35c-.725,1.7-1.675,2.45-4.275,2.775L85.6,5.55C89.775,5.325,92.025,3.375,93.075.025ZM112.05-13.7a4.8,4.8,0,0,0-3.75,1.9l-.2-1.475h-3.475V5.55l3.95-.425V-.95A4.144,4.144,0,0,0,111.8.425c3.275,0,5.275-3,5.275-7.1C117.075-10.975,115.55-13.7,112.05-13.7ZM110.6-2.475a2.352,2.352,0,0,1-2.025-1.175v-5.6A2.689,2.689,0,0,1,110.8-10.8c1.375,0,2.175.875,2.175,4.175C112.975-3.65,112.075-2.475,110.6-2.475ZM126.75-13.65c-1.525,0-2.825,1.1-3.425,2.95L123-13.275h-3.45V0h3.95V-6.575c.425-2.025,1.1-3.25,2.75-3.25a4.8,4.8,0,0,1,1.2.175l.625-3.825A4.472,4.472,0,0,0,126.75-13.65Zm8.325-.05c-4.05,0-6.5,2.8-6.5,7.05,0,4.475,2.475,7.075,6.5,7.075,4.05,0,6.5-2.8,6.5-7.05C141.575-11.1,139.125-13.7,135.075-13.7Zm0,2.9c1.6,0,2.4,1.225,2.4,4.175,0,2.875-.8,4.15-2.4,4.15s-2.4-1.225-2.4-4.175C132.675-9.525,133.475-10.8,135.075-10.8Zm20.75-7.75-3.95-.425v6.525A4.3,4.3,0,0,0,148.8-13.7c-3.425,0-5.5,2.925-5.5,7.025,0,4.3,1.675,7.1,5.05,7.1a4.427,4.427,0,0,0,3.775-1.975l.2,1.55h3.5ZM149.6-2.475c-1.3,0-2.2-.875-2.2-4.175,0-2.975,1-4.175,2.425-4.175a2.581,2.581,0,0,1,2.05,1.125v5.725A2.648,2.648,0,0,1,149.6-2.475ZM170.125,0V-13.275h-3.95V-4.05a2.6,2.6,0,0,1-2.15,1.55c-.825,0-1.275-.4-1.275-1.75v-9.025H158.8V-3.75c0,2.575,1.225,4.175,3.7,4.175a4.594,4.594,0,0,0,4.025-2.1L166.7,0Zm8.85-13.7c-3.975,0-6.5,2.95-6.5,7.175,0,4.2,2.5,6.95,6.575,6.95a6.905,6.905,0,0,0,4.475-1.575l-1.8-2.525a3.713,3.713,0,0,1-2.475.975c-1.575,0-2.625-.9-2.625-3.85,0-2.975.975-4.125,2.675-4.125a3.773,3.773,0,0,1,2.5.975l1.725-2.375A6.675,6.675,0,0,0,178.975-13.7Zm11.725,0c-3.975,0-6.5,2.95-6.5,7.175,0,4.2,2.5,6.95,6.575,6.95A6.905,6.905,0,0,0,195.25-1.15l-1.8-2.525a3.713,3.713,0,0,1-2.475.975c-1.575,0-2.625-.9-2.625-3.85,0-2.975.975-4.125,2.675-4.125a3.773,3.773,0,0,1,2.5.975l1.725-2.375A6.675,6.675,0,0,0,190.7-13.7Zm8.175-6.575a2.214,2.214,0,0,0-2.325,2.25,2.214,2.214,0,0,0,2.325,2.25,2.235,2.235,0,0,0,2.35-2.25A2.235,2.235,0,0,0,198.875-20.275Zm2,20.275V-13.275h-3.95V0Zm12.1-17.925-1.55-2.95-5.45,3.3,1.1,2.025Zm-3.25,4.225c-4.05,0-6.5,2.8-6.5,7.05,0,4.475,2.475,7.075,6.5,7.075,4.05,0,6.5-2.8,6.5-7.05C216.225-11.1,213.775-13.7,209.725-13.7Zm0,2.9c1.6,0,2.4,1.225,2.4,4.175,0,2.875-.8,4.15-2.4,4.15s-2.4-1.225-2.4-4.175C207.325-9.525,208.125-10.8,209.725-10.8Zm16.625-2.9a5.052,5.052,0,0,0-4.05,2l-.275-1.575h-3.45V0h3.95V-9.075c.7-1.1,1.425-1.725,2.3-1.725.775,0,1.25.375,1.25,1.775V0h3.95V-9.7C230.025-12.225,228.65-13.7,226.35-13.7ZM13.45,17.45,9.5,17.025V23.55A4.3,4.3,0,0,0,6.425,22.3C3,22.3.925,25.225.925,29.325c0,4.3,1.675,7.1,5.05,7.1A4.427,4.427,0,0,0,9.75,34.45L9.95,36h3.5ZM7.225,33.525c-1.3,0-2.2-.875-2.2-4.175,0-2.975,1-4.175,2.425-4.175A2.581,2.581,0,0,1,9.5,26.3v5.725A2.648,2.648,0,0,1,7.225,33.525ZM27.875,29.1c0-4.3-2.325-6.8-6.125-6.8-4.025,0-6.2,3.15-6.2,7.125,0,4.15,2.25,7,6.675,7a8.162,8.162,0,0,0,5.175-1.85l-1.625-2.2A5.381,5.381,0,0,1,22.6,33.55c-1.625,0-2.75-.65-3.025-3.025H27.8A13.252,13.252,0,0,0,27.875,29.1ZM24,28.15H19.575c.175-2.375.95-3.225,2.275-3.225,1.575,0,2.125,1.25,2.15,3.05ZM40.75,22.3c-3.35,0-5.425,1.775-5.425,4.05,0,2.05,1.3,3.4,3.925,4.15,2.4.675,2.8.95,2.8,1.875,0,.775-.725,1.225-1.95,1.225a5.556,5.556,0,0,1-3.475-1.325l-1.95,2.175a8.254,8.254,0,0,0,5.55,1.975c3.3,0,5.9-1.625,5.9-4.375,0-2.375-1.475-3.475-4.1-4.225-2.375-.7-2.725-1-2.725-1.7,0-.6.525-1,1.725-1a5.846,5.846,0,0,1,3.15,1.05l1.45-2.25A7.724,7.724,0,0,0,40.75,22.3ZM56.475,35.375,55.15,32.85a2.627,2.627,0,0,1-1.425.45c-.825,0-1.25-.45-1.25-1.725v-6.1H55.1l.425-2.75h-3.05V19.4l-3.95.45v2.875H46.65v2.75h1.875v6.15c0,3.125,1.425,4.775,4.35,4.8A6.575,6.575,0,0,0,56.475,35.375ZM68.35,32.15V27c0-3.075-1.65-4.7-5.5-4.7a15,15,0,0,0-5,.975l.9,2.6a11.96,11.96,0,0,1,3.475-.7c1.625,0,2.25.475,2.25,2.05V27.8h-1.35c-4.025,0-6.225,1.575-6.225,4.475a4.011,4.011,0,0,0,4.325,4.15,4.469,4.469,0,0,0,4-2c.6,1.325,1.625,1.8,3.2,1.925l.825-2.575C68.625,33.55,68.35,33.175,68.35,32.15ZM62.375,33.6a1.482,1.482,0,0,1-1.55-1.675c0-1.325.875-1.95,2.675-1.95h.975v2.35A2.365,2.365,0,0,1,62.375,33.6Zm16.9-11.3a5.052,5.052,0,0,0-4.05,2l-.275-1.575H71.5V36h3.95V26.925c.7-1.1,1.425-1.725,2.3-1.725.775,0,1.25.375,1.25,1.775V36h3.95V26.3C82.95,23.775,81.575,22.3,79.275,22.3Zm18.55-4.85-3.95-.425V23.55A4.3,4.3,0,0,0,90.8,22.3c-3.425,0-5.5,2.925-5.5,7.025,0,4.3,1.675,7.1,5.05,7.1a4.427,4.427,0,0,0,3.775-1.975l.2,1.55h3.5ZM91.6,33.525c-1.3,0-2.2-.875-2.2-4.175,0-2.975,1-4.175,2.425-4.175a2.581,2.581,0,0,1,2.05,1.125v5.725A2.648,2.648,0,0,1,91.6,33.525Zm14-11.225c-3.35,0-5.425,1.775-5.425,4.05,0,2.05,1.3,3.4,3.925,4.15,2.4.675,2.8.95,2.8,1.875,0,.775-.725,1.225-1.95,1.225a5.556,5.556,0,0,1-3.475-1.325l-1.95,2.175a8.254,8.254,0,0,0,5.55,1.975c3.3,0,5.9-1.625,5.9-4.375,0-2.375-1.475-3.475-4.1-4.225-2.375-.7-2.725-1-2.725-1.7,0-.6.525-1,1.725-1a5.846,5.846,0,0,1,3.15,1.05l1.45-2.25A7.724,7.724,0,0,0,105.6,22.3Zm20.65,13.725,4.225-13.3H126.4l-2.6,10.75-2.375-10.75h-4.2L121.275,36h1.35c-.725,1.7-1.675,2.45-4.275,2.775l.425,2.775C122.95,41.325,125.2,39.375,126.25,36.025ZM145.05,36l4.175-13.275H145.2L142.75,33,140.4,22.725h-4.3L140.375,36Zm7.525-20.275a2.252,2.252,0,1,0,2.35,2.25A2.214,2.214,0,0,0,152.575,15.725Zm2,20.275V22.725h-3.95V36ZM166,35.375l-1.325-2.525a2.627,2.627,0,0,1-1.425.45c-.825,0-1.25-.45-1.25-1.725v-6.1h2.625l.425-2.75H162V19.4l-3.95.45v2.875h-1.875v2.75h1.875v6.15c0,3.125,1.425,4.775,4.35,4.8A6.575,6.575,0,0,0,166,35.375Zm8.525-13.025c-1.525,0-2.825,1.1-3.425,2.95l-.325-2.575h-3.45V36h3.95V29.425c.425-2.025,1.1-3.25,2.75-3.25a4.8,4.8,0,0,1,1.2.175l.625-3.825A4.472,4.472,0,0,0,174.525,22.35Zm4.775-6.625a2.252,2.252,0,1,0,2.35,2.25A2.214,2.214,0,0,0,179.3,15.725ZM181.3,36V22.725h-3.95V36Zm10.875-13.7a5.052,5.052,0,0,0-4.05,2l-.275-1.575H184.4V36h3.95V26.925c.7-1.1,1.425-1.725,2.3-1.725.775,0,1.25.375,1.25,1.775V36h3.95V26.3C195.85,23.775,194.475,22.3,192.175,22.3Zm8.6-6.575a2.252,2.252,0,1,0,2.35,2.25A2.214,2.214,0,0,0,200.775,15.725Zm2,20.275V22.725h-3.95V36Zm7.775-13.7c-3.35,0-5.425,1.775-5.425,4.05,0,2.05,1.3,3.4,3.925,4.15,2.4.675,2.8.95,2.8,1.875,0,.775-.725,1.225-1.95,1.225a5.556,5.556,0,0,1-3.475-1.325l-1.95,2.175a8.254,8.254,0,0,0,5.55,1.975c3.3,0,5.9-1.625,5.9-4.375,0-2.375-1.475-3.475-4.1-4.225-2.375-.7-2.725-1-2.725-1.7,0-.6.525-1,1.725-1a5.846,5.846,0,0,1,3.15,1.05l1.45-2.25A7.724,7.724,0,0,0,210.55,22.3Zm22.075,0a4.659,4.659,0,0,0-3.975,2.1,3.151,3.151,0,0,0-3.125-2.1,4.631,4.631,0,0,0-3.85,1.975l-.275-1.55h-3.45V36h3.95V26.925c.575-1.1,1.2-1.725,2.025-1.725.6,0,1.125.375,1.125,1.775V36H229V26.925c.575-1.1,1.175-1.725,2.025-1.725.6,0,1.125.375,1.125,1.775V36h3.95V26.3C236.1,23.775,234.675,22.3,232.625,22.3Zm12.2,0c-4.05,0-6.5,2.8-6.5,7.05,0,4.475,2.475,7.075,6.5,7.075,4.05,0,6.5-2.8,6.5-7.05C251.325,24.9,248.875,22.3,244.825,22.3Zm0,2.9c1.6,0,2.4,1.225,2.4,4.175,0,2.875-.8,4.15-2.4,4.15s-2.4-1.225-2.4-4.175C242.425,26.475,243.225,25.2,244.825,25.2Z" transform="translate(1470 2758)" fill="#fff"/><path d="M6.45-17.325H1.625V0h5.2C11.25,0,15.45-1.775,15.45-8.75,15.45-15.9,11.075-17.325,6.45-17.325ZM5.725-14.35h1.3c2.4,0,4.175.95,4.175,5.6,0,4.6-1.65,5.775-4.125,5.775H5.725Zm14.05-5.925a2.214,2.214,0,0,0-2.325,2.25,2.214,2.214,0,0,0,2.325,2.25,2.235,2.235,0,0,0,2.35-2.25A2.235,2.235,0,0,0,19.775-20.275ZM21.775,0V-13.275h-3.95V0ZM29.55-13.7c-3.35,0-5.425,1.775-5.425,4.05,0,2.05,1.3,3.4,3.925,4.15,2.4.675,2.8.95,2.8,1.875,0,.775-.725,1.225-1.95,1.225a5.556,5.556,0,0,1-3.475-1.325L23.475-1.55A8.254,8.254,0,0,0,29.025.425c3.3,0,5.9-1.625,5.9-4.375,0-2.375-1.475-3.475-4.1-4.225-2.375-.7-2.725-1-2.725-1.7,0-.6.525-1,1.725-1a5.846,5.846,0,0,1,3.15,1.05l1.45-2.25A7.724,7.724,0,0,0,29.55-13.7ZM48.525-6.9c0-4.3-2.325-6.8-6.125-6.8-4.025,0-6.2,3.15-6.2,7.125,0,4.15,2.25,7,6.675,7a8.162,8.162,0,0,0,5.175-1.85l-1.625-2.2A5.381,5.381,0,0,1,43.25-2.45c-1.625,0-2.75-.65-3.025-3.025H48.45A13.252,13.252,0,0,0,48.525-6.9ZM44.65-7.85H40.225c.175-2.375.95-3.225,2.275-3.225,1.575,0,2.125,1.25,2.15,3.05ZM55.175-17C56-17,56.5-15.875,58.1-15.875c1.4,0,2.525-1.25,3.175-2.925L59.3-19.775c-.4.725-.75,1.1-1.3,1.1-.825,0-1.35-1.125-2.9-1.125-1.5,0-2.6,1.35-3.225,2.95l1.975.95C54.25-16.6,54.575-17,55.175-17Zm3.4,3.3a5.052,5.052,0,0,0-4.05,2l-.275-1.575H50.8V0h3.95V-9.075c.7-1.1,1.425-1.725,2.3-1.725.775,0,1.25.375,1.25,1.775V0h3.95V-9.7C62.25-12.225,60.875-13.7,58.575-13.7Zm12.4,0c-4.05,0-6.5,2.8-6.5,7.05,0,4.475,2.475,7.075,6.5,7.075,4.05,0,6.5-2.8,6.5-7.05C77.475-11.1,75.025-13.7,70.975-13.7Zm0,2.9c1.6,0,2.4,1.225,2.4,4.175,0,2.875-.8,4.15-2.4,4.15s-2.4-1.225-2.4-4.175C68.575-9.525,69.375-10.8,70.975-10.8ZM93.075.025l4.225-13.3H93.225l-2.6,10.75L88.25-13.275h-4.2L88.1,0h1.35c-.725,1.7-1.675,2.45-4.275,2.775L85.6,5.55C89.775,5.325,92.025,3.375,93.075.025Zm18.75-13.675c-1.525,0-2.825,1.1-3.425,2.95l-.325-2.575h-3.45V0h3.95V-6.575c.425-2.025,1.1-3.25,2.75-3.25a4.8,4.8,0,0,1,1.2.175l.625-3.825A4.472,4.472,0,0,0,111.825-13.65Zm14.15,6.75c0-4.3-2.325-6.8-6.125-6.8-4.025,0-6.2,3.15-6.2,7.125,0,4.15,2.25,7,6.675,7a8.162,8.162,0,0,0,5.175-1.85l-1.625-2.2A5.381,5.381,0,0,1,120.7-2.45c-1.625,0-2.75-.65-3.025-3.025H125.9A13.254,13.254,0,0,0,125.975-6.9ZM122.1-7.85h-4.425c.175-2.375.95-3.225,2.275-3.225,1.575,0,2.125,1.25,2.15,3.05Zm20.825-5.85a4.659,4.659,0,0,0-3.975,2.1,3.151,3.151,0,0,0-3.125-2.1,4.631,4.631,0,0,0-3.85,1.975l-.275-1.55h-3.45V0h3.95V-9.075c.575-1.1,1.2-1.725,2.025-1.725.6,0,1.125.375,1.125,1.775V0h3.95V-9.075c.575-1.1,1.175-1.725,2.025-1.725.6,0,1.125.375,1.125,1.775V0h3.95V-9.7C146.4-12.225,144.975-13.7,142.925-13.7Zm12.2,0c-4.05,0-6.5,2.8-6.5,7.05,0,4.475,2.475,7.075,6.5,7.075,4.05,0,6.5-2.8,6.5-7.05C161.625-11.1,159.175-13.7,155.125-13.7Zm0,2.9c1.6,0,2.4,1.225,2.4,4.175,0,2.875-.8,4.15-2.4,4.15s-2.4-1.225-2.4-4.175C152.725-9.525,153.525-10.8,155.125-10.8Zm20.75-7.75-3.95-.425v6.525a4.3,4.3,0,0,0-3.075-1.25c-3.425,0-5.5,2.925-5.5,7.025,0,4.3,1.675,7.1,5.05,7.1a4.427,4.427,0,0,0,3.775-1.975l.2,1.55h3.5ZM169.65-2.475c-1.3,0-2.2-.875-2.2-4.175,0-2.975,1-4.175,2.425-4.175a2.581,2.581,0,0,1,2.05,1.125v5.725A2.648,2.648,0,0,1,169.65-2.475ZM190.3-6.9c0-4.3-2.325-6.8-6.125-6.8-4.025,0-6.2,3.15-6.2,7.125,0,4.15,2.25,7,6.675,7a8.162,8.162,0,0,0,5.175-1.85l-1.625-2.2a5.381,5.381,0,0,1-3.175,1.175c-1.625,0-2.75-.65-3.025-3.025h8.225A13.252,13.252,0,0,0,190.3-6.9Zm-3.875-.95H182c.175-2.375.95-3.225,2.275-3.225,1.575,0,2.125,1.25,2.15,3.05ZM196.4-3.725v-15.25l-3.95.425V-3.325c0,2.45,1.3,3.75,3.5,3.75a7.148,7.148,0,0,0,2.55-.45l-.775-2.8a1.878,1.878,0,0,1-.65.125C196.65-2.7,196.4-2.975,196.4-3.725Zm14.15-.125V-9c0-3.075-1.65-4.7-5.5-4.7a15,15,0,0,0-5,.975l.9,2.6a11.96,11.96,0,0,1,3.475-.7c1.625,0,2.25.475,2.25,2.05V-8.2h-1.35c-4.025,0-6.225,1.575-6.225,4.475a4.011,4.011,0,0,0,4.325,4.15,4.469,4.469,0,0,0,4-2c.6,1.325,1.625,1.8,3.2,1.925l.825-2.575C210.825-2.45,210.55-2.825,210.55-3.85ZM204.575-2.4a1.482,1.482,0,0,1-1.55-1.675c0-1.325.875-1.95,2.675-1.95h.975v2.35A2.365,2.365,0,0,1,204.575-2.4ZM219.45-13.7c-3.975,0-6.5,2.95-6.5,7.175,0,4.2,2.5,6.95,6.575,6.95A6.905,6.905,0,0,0,224-1.15l-1.8-2.525a3.713,3.713,0,0,1-2.475.975c-1.575,0-2.625-.9-2.625-3.85,0-2.975.975-4.125,2.675-4.125a3.773,3.773,0,0,1,2.5.975L224-12.075A6.675,6.675,0,0,0,219.45-13.7Zm8.175-6.575a2.214,2.214,0,0,0-2.325,2.25,2.214,2.214,0,0,0,2.325,2.25,2.235,2.235,0,0,0,2.35-2.25A2.235,2.235,0,0,0,227.625-20.275Zm2,20.275V-13.275h-3.95V0Zm12.1-17.925-1.55-2.95-5.45,3.3,1.1,2.025Zm-3.25,4.225c-4.05,0-6.5,2.8-6.5,7.05,0,4.475,2.475,7.075,6.5,7.075,4.05,0,6.5-2.8,6.5-7.05C244.975-11.1,242.525-13.7,238.475-13.7Zm0,2.9c1.6,0,2.4,1.225,2.4,4.175,0,2.875-.8,4.15-2.4,4.15s-2.4-1.225-2.4-4.175C236.075-9.525,236.875-10.8,238.475-10.8ZM255.1-13.7a5.052,5.052,0,0,0-4.05,2l-.275-1.575h-3.45V0h3.95V-9.075c.7-1.1,1.425-1.725,2.3-1.725.775,0,1.25.375,1.25,1.775V0h3.95V-9.7C258.775-12.225,257.4-13.7,255.1-13.7ZM13.45,17.45,9.5,17.025V23.55A4.3,4.3,0,0,0,6.425,22.3C3,22.3.925,25.225.925,29.325c0,4.3,1.675,7.1,5.05,7.1A4.427,4.427,0,0,0,9.75,34.45L9.95,36h3.5ZM7.225,33.525c-1.3,0-2.2-.875-2.2-4.175,0-2.975,1-4.175,2.425-4.175A2.581,2.581,0,0,1,9.5,26.3v5.725A2.648,2.648,0,0,1,7.225,33.525ZM27.875,29.1c0-4.3-2.325-6.8-6.125-6.8-4.025,0-6.2,3.15-6.2,7.125,0,4.15,2.25,7,6.675,7a8.162,8.162,0,0,0,5.175-1.85l-1.625-2.2A5.381,5.381,0,0,1,22.6,33.55c-1.625,0-2.75-.65-3.025-3.025H27.8A13.252,13.252,0,0,0,27.875,29.1ZM24,28.15H19.575c.175-2.375.95-3.225,2.275-3.225,1.575,0,2.125,1.25,2.15,3.05ZM41.825,22.3c-4.05,0-6.5,2.8-6.5,7.05,0,4.475,2.475,7.075,6.5,7.075,4.05,0,6.5-2.8,6.5-7.05C48.325,24.9,45.875,22.3,41.825,22.3Zm0,2.9c1.6,0,2.4,1.225,2.4,4.175,0,2.875-.8,4.15-2.4,4.15s-2.4-1.225-2.4-4.175C39.425,26.475,40.225,25.2,41.825,25.2ZM56.7,17.025c-3.925,0-5.5,2-5.5,4.55v1.15H49.15v2.75H51.2V36h3.95V25.475h3.4V36H62.5V22.725H55.15v-1c0-1.275.45-1.775,2.075-1.775a7.414,7.414,0,0,1,2.775.6l1.125-2.525A10.064,10.064,0,0,0,56.7,17.025ZM71.35,22.3c-3.975,0-6.5,2.95-6.5,7.175,0,4.2,2.5,6.95,6.575,6.95A6.905,6.905,0,0,0,75.9,34.85l-1.8-2.525a3.713,3.713,0,0,1-2.475.975C70.05,33.3,69,32.4,69,29.45c0-2.975.975-4.125,2.675-4.125a3.773,3.773,0,0,1,2.5.975L75.9,23.925A6.675,6.675,0,0,0,71.35,22.3Zm8.175-6.575a2.252,2.252,0,1,0,2.35,2.25A2.214,2.214,0,0,0,79.525,15.725Zm2,20.275V22.725h-3.95V36ZM92.4,22.3a5.052,5.052,0,0,0-4.05,2l-.275-1.575h-3.45V36h3.95V26.925c.7-1.1,1.425-1.725,2.3-1.725.775,0,1.25.375,1.25,1.775V36h3.95V26.3C96.075,23.775,94.7,22.3,92.4,22.3Zm17.2,9.85V27c0-3.075-1.65-4.7-5.5-4.7a15,15,0,0,0-5,.975l.9,2.6a11.96,11.96,0,0,1,3.475-.7c1.625,0,2.25.475,2.25,2.05V27.8h-1.35c-4.025,0-6.225,1.575-6.225,4.475a4.011,4.011,0,0,0,4.325,4.15,4.469,4.469,0,0,0,4-2c.6,1.325,1.625,1.8,3.2,1.925l.825-2.575C109.875,33.55,109.6,33.175,109.6,32.15Zm-5.975,1.45a1.482,1.482,0,0,1-1.55-1.675c0-1.325.875-1.95,2.675-1.95h.975v2.35A2.365,2.365,0,0,1,103.625,33.6Zm13.8-11.3c-3.35,0-5.425,1.775-5.425,4.05,0,2.05,1.3,3.4,3.925,4.15,2.4.675,2.8.95,2.8,1.875,0,.775-.725,1.225-1.95,1.225a5.556,5.556,0,0,1-3.475-1.325l-1.95,2.175a8.254,8.254,0,0,0,5.55,1.975c3.3,0,5.9-1.625,5.9-4.375,0-2.375-1.475-3.475-4.1-4.225-2.375-.7-2.725-1-2.725-1.7,0-.6.525-1,1.725-1a5.846,5.846,0,0,1,3.15,1.05l1.45-2.25A7.724,7.724,0,0,0,117.425,22.3Zm8.85,9.6A2.253,2.253,0,0,0,125,36.025l-1.075,4.4h2.225l1.575-3.625a6.356,6.356,0,0,0,.8-2.65A2.21,2.21,0,0,0,126.275,31.9Zm14.3.375V17.025l-3.95.425V32.675c0,2.45,1.3,3.75,3.5,3.75a7.148,7.148,0,0,0,2.55-.45l-.775-2.8a1.878,1.878,0,0,1-.65.125C140.825,33.3,140.575,33.025,140.575,32.275Zm9.1-9.975c-4.05,0-6.5,2.8-6.5,7.05,0,4.475,2.475,7.075,6.5,7.075,4.05,0,6.5-2.8,6.5-7.05C156.175,24.9,153.725,22.3,149.675,22.3Zm0,2.9c1.6,0,2.4,1.225,2.4,4.175,0,2.875-.8,4.15-2.4,4.15s-2.4-1.225-2.4-4.175C147.275,26.475,148.075,25.2,149.675,25.2Zm14.6-2.9c-3.975,0-6.5,2.95-6.5,7.175,0,4.2,2.5,6.95,6.575,6.95a6.905,6.905,0,0,0,4.475-1.575l-1.8-2.525a3.713,3.713,0,0,1-2.475.975c-1.575,0-2.625-.9-2.625-3.85,0-2.975.975-4.125,2.675-4.125a3.773,3.773,0,0,1,2.5.975l1.725-2.375A6.675,6.675,0,0,0,164.275,22.3Zm16.775,9.85V27c0-3.075-1.65-4.7-5.5-4.7a15,15,0,0,0-5,.975l.9,2.6a11.96,11.96,0,0,1,3.475-.7c1.625,0,2.25.475,2.25,2.05V27.8h-1.35c-4.025,0-6.225,1.575-6.225,4.475a4.011,4.011,0,0,0,4.325,4.15,4.469,4.469,0,0,0,4-2c.6,1.325,1.625,1.8,3.2,1.925l.825-2.575C181.325,33.55,181.05,33.175,181.05,32.15Zm-5.975,1.45a1.482,1.482,0,0,1-1.55-1.675c0-1.325.875-1.95,2.675-1.95h.975v2.35A2.365,2.365,0,0,1,175.075,33.6Zm12.95-1.325V17.025l-3.95.425V32.675c0,2.45,1.3,3.75,3.5,3.75a7.148,7.148,0,0,0,2.55-.45l-.775-2.8a1.878,1.878,0,0,1-.65.125C188.275,33.3,188.025,33.025,188.025,32.275ZM202.95,29.1c0-4.3-2.325-6.8-6.125-6.8-4.025,0-6.2,3.15-6.2,7.125,0,4.15,2.25,7,6.675,7a8.162,8.162,0,0,0,5.175-1.85l-1.625-2.2a5.381,5.381,0,0,1-3.175,1.175c-1.625,0-2.75-.65-3.025-3.025h8.225A13.252,13.252,0,0,0,202.95,29.1Zm-3.875-.95H194.65c.175-2.375.95-3.225,2.275-3.225,1.575,0,2.125,1.25,2.15,3.05ZM209.9,22.3c-3.35,0-5.425,1.775-5.425,4.05,0,2.05,1.3,3.4,3.925,4.15,2.4.675,2.8.95,2.8,1.875,0,.775-.725,1.225-1.95,1.225a5.556,5.556,0,0,1-3.475-1.325l-1.95,2.175a8.254,8.254,0,0,0,5.55,1.975c3.3,0,5.9-1.625,5.9-4.375,0-2.375-1.475-3.475-4.1-4.225-2.375-.7-2.725-1-2.725-1.7,0-.6.525-1,1.725-1a5.846,5.846,0,0,1,3.15,1.05l1.45-2.25A7.724,7.724,0,0,0,209.9,22.3ZM8.875,72.025l4.225-13.3H9.025l-2.6,10.75L4.05,58.725H-.15L3.9,72H5.25c-.725,1.7-1.675,2.45-4.275,2.775L1.4,77.55C5.575,77.325,7.825,75.375,8.875,72.025ZM27.625,58.35c-1.525,0-2.825,1.1-3.425,2.95l-.325-2.575h-3.45V72h3.95V65.425c.425-2.025,1.1-3.25,2.75-3.25a4.8,4.8,0,0,1,1.2.175l.625-3.825A4.472,4.472,0,0,0,27.625,58.35Zm14.15,6.75c0-4.3-2.325-6.8-6.125-6.8-4.025,0-6.2,3.15-6.2,7.125,0,4.15,2.25,7,6.675,7a8.162,8.162,0,0,0,5.175-1.85l-1.625-2.2A5.381,5.381,0,0,1,36.5,69.55c-1.625,0-2.75-.65-3.025-3.025H41.7A13.252,13.252,0,0,0,41.775,65.1ZM37.9,64.15H33.475c.175-2.375.95-3.225,2.275-3.225,1.575,0,2.125,1.25,2.15,3.05ZM48.725,58.3c-3.35,0-5.425,1.775-5.425,4.05,0,2.05,1.3,3.4,3.925,4.15,2.4.675,2.8.95,2.8,1.875,0,.775-.725,1.225-1.95,1.225A5.556,5.556,0,0,1,44.6,68.275L42.65,70.45a8.254,8.254,0,0,0,5.55,1.975c3.3,0,5.9-1.625,5.9-4.375,0-2.375-1.475-3.475-4.1-4.225-2.375-.7-2.725-1-2.725-1.7,0-.6.525-1,1.725-1a5.846,5.846,0,0,1,3.15,1.05l1.45-2.25A7.724,7.724,0,0,0,48.725,58.3Zm9.35-6.575a2.252,2.252,0,1,0,2.35,2.25A2.214,2.214,0,0,0,58.075,51.725Zm2,20.275V58.725h-3.95V72Zm15-18.55-3.95-.425V59.55A4.3,4.3,0,0,0,68.05,58.3c-3.425,0-5.5,2.925-5.5,7.025,0,4.3,1.675,7.1,5.05,7.1a4.427,4.427,0,0,0,3.775-1.975l.2,1.55h3.5ZM68.85,69.525c-1.3,0-2.2-.875-2.2-4.175,0-2.975,1-4.175,2.425-4.175a2.581,2.581,0,0,1,2.05,1.125v5.725A2.648,2.648,0,0,1,68.85,69.525ZM89.5,65.1c0-4.3-2.325-6.8-6.125-6.8-4.025,0-6.2,3.15-6.2,7.125,0,4.15,2.25,7,6.675,7a8.162,8.162,0,0,0,5.175-1.85l-1.625-2.2a5.381,5.381,0,0,1-3.175,1.175c-1.625,0-2.75-.65-3.025-3.025h8.225A13.254,13.254,0,0,0,89.5,65.1Zm-3.875-.95H81.2c.175-2.375.95-3.225,2.275-3.225,1.575,0,2.125,1.25,2.15,3.05ZM99.55,58.3a5.052,5.052,0,0,0-4.05,2l-.275-1.575h-3.45V72h3.95V62.925c.7-1.1,1.425-1.725,2.3-1.725.775,0,1.25.375,1.25,1.775V72h3.95V62.3C103.225,59.775,101.85,58.3,99.55,58.3Zm12.4,0c-3.975,0-6.5,2.95-6.5,7.175,0,4.2,2.5,6.95,6.575,6.95A6.905,6.905,0,0,0,116.5,70.85l-1.8-2.525a3.713,3.713,0,0,1-2.475.975c-1.575,0-2.625-.9-2.625-3.85,0-2.975.975-4.125,2.675-4.125a3.773,3.773,0,0,1,2.5.975l1.725-2.375A6.675,6.675,0,0,0,111.95,58.3Zm8.175-6.575a2.252,2.252,0,1,0,2.35,2.25A2.214,2.214,0,0,0,120.125,51.725Zm2,20.275V58.725h-3.95V72Zm13.65-3.85V63c0-3.075-1.65-4.7-5.5-4.7a15,15,0,0,0-5,.975l.9,2.6a11.96,11.96,0,0,1,3.475-.7c1.625,0,2.25.475,2.25,2.05V63.8h-1.35c-4.025,0-6.225,1.575-6.225,4.475a4.011,4.011,0,0,0,4.325,4.15,4.469,4.469,0,0,0,4-2c.6,1.325,1.625,1.8,3.2,1.925l.825-2.575C136.05,69.55,135.775,69.175,135.775,68.15ZM129.8,69.6a1.482,1.482,0,0,1-1.55-1.675c0-1.325.875-1.95,2.675-1.95h.975v2.35A2.365,2.365,0,0,1,129.8,69.6Zm12.95-1.325V53.025l-3.95.425V68.675c0,2.45,1.3,3.75,3.5,3.75a7.148,7.148,0,0,0,2.55-.45l-.775-2.8a1.878,1.878,0,0,1-.65.125C143,69.3,142.75,69.025,142.75,68.275Z" transform="translate(1462 3125)" fill="#fff"/><path d="M-259.525-17.325h-4.825V0h5.2c4.425,0,8.625-1.775,8.625-8.75C-250.525-15.9-254.9-17.325-259.525-17.325Zm-.725,2.975h1.3c2.4,0,4.175.95,4.175,5.6,0,4.6-1.65,5.775-4.125,5.775h-1.35Zm14.05-5.925a2.214,2.214,0,0,0-2.325,2.25,2.214,2.214,0,0,0,2.325,2.25,2.235,2.235,0,0,0,2.35-2.25A2.235,2.235,0,0,0-246.2-20.275ZM-244.2,0V-13.275h-3.95V0Zm7.775-13.7c-3.35,0-5.425,1.775-5.425,4.05,0,2.05,1.3,3.4,3.925,4.15,2.4.675,2.8.95,2.8,1.875,0,.775-.725,1.225-1.95,1.225a5.556,5.556,0,0,1-3.475-1.325L-242.5-1.55A8.254,8.254,0,0,0-236.95.425c3.3,0,5.9-1.625,5.9-4.375,0-2.375-1.475-3.475-4.1-4.225-2.375-.7-2.725-1-2.725-1.7,0-.6.525-1,1.725-1A5.846,5.846,0,0,1-233-9.825l1.45-2.25A7.724,7.724,0,0,0-236.425-13.7Zm18.975,6.8c0-4.3-2.325-6.8-6.125-6.8-4.025,0-6.2,3.15-6.2,7.125,0,4.15,2.25,7,6.675,7a8.162,8.162,0,0,0,5.175-1.85l-1.625-2.2a5.381,5.381,0,0,1-3.175,1.175c-1.625,0-2.75-.65-3.025-3.025h8.225A13.252,13.252,0,0,0-217.45-6.9Zm-3.875-.95h-4.425c.175-2.375.95-3.225,2.275-3.225,1.575,0,2.125,1.25,2.15,3.05ZM-210.8-17c.825,0,1.325,1.125,2.925,1.125,1.4,0,2.525-1.25,3.175-2.925l-1.975-.975c-.4.725-.75,1.1-1.3,1.1-.825,0-1.35-1.125-2.9-1.125-1.5,0-2.6,1.35-3.225,2.95l1.975.95C-211.725-16.6-211.4-17-210.8-17Zm3.4,3.3a5.052,5.052,0,0,0-4.05,2l-.275-1.575h-3.45V0h3.95V-9.075c.7-1.1,1.425-1.725,2.3-1.725.775,0,1.25.375,1.25,1.775V0h3.95V-9.7C-203.725-12.225-205.1-13.7-207.4-13.7Zm12.4,0c-4.05,0-6.5,2.8-6.5,7.05,0,4.475,2.475,7.075,6.5,7.075,4.05,0,6.5-2.8,6.5-7.05C-188.5-11.1-190.95-13.7-195-13.7Zm0,2.9c1.6,0,2.4,1.225,2.4,4.175,0,2.875-.8,4.15-2.4,4.15s-2.4-1.225-2.4-4.175C-197.4-9.525-196.6-10.8-195-10.8ZM-172.9.025l4.225-13.3h-4.075l-2.6,10.75-2.375-10.75h-4.2L-177.875,0h1.35c-.725,1.7-1.675,2.45-4.275,2.775l.425,2.775C-176.2,5.325-173.95,3.375-172.9.025ZM-153.925-13.7a4.8,4.8,0,0,0-3.75,1.9l-.2-1.475h-3.475V5.55l3.95-.425V-.95A4.144,4.144,0,0,0-154.175.425c3.275,0,5.275-3,5.275-7.1C-148.9-10.975-150.425-13.7-153.925-13.7Zm-1.45,11.225A2.352,2.352,0,0,1-157.4-3.65v-5.6a2.689,2.689,0,0,1,2.225-1.55c1.375,0,2.175.875,2.175,4.175C-153-3.65-153.9-2.475-155.375-2.475Zm16.15-11.175c-1.525,0-2.825,1.1-3.425,2.95l-.325-2.575h-3.45V0h3.95V-6.575c.425-2.025,1.1-3.25,2.75-3.25a4.8,4.8,0,0,1,1.2.175l.625-3.825A4.472,4.472,0,0,0-139.225-13.65Zm8.325-.05c-4.05,0-6.5,2.8-6.5,7.05,0,4.475,2.475,7.075,6.5,7.075,4.05,0,6.5-2.8,6.5-7.05C-124.4-11.1-126.85-13.7-130.9-13.7Zm0,2.9c1.6,0,2.4,1.225,2.4,4.175,0,2.875-.8,4.15-2.4,4.15s-2.4-1.225-2.4-4.175C-133.3-9.525-132.5-10.8-130.9-10.8Zm20.75-7.75-3.95-.425v6.525a4.3,4.3,0,0,0-3.075-1.25c-3.425,0-5.5,2.925-5.5,7.025,0,4.3,1.675,7.1,5.05,7.1A4.427,4.427,0,0,0-113.85-1.55l.2,1.55h3.5Zm-6.225,16.075c-1.3,0-2.2-.875-2.2-4.175,0-2.975,1-4.175,2.425-4.175A2.581,2.581,0,0,1-114.1-9.7v5.725A2.648,2.648,0,0,1-116.375-2.475ZM-95.85,0V-13.275H-99.8V-4.05a2.6,2.6,0,0,1-2.15,1.55c-.825,0-1.275-.4-1.275-1.75v-9.025h-3.95V-3.75c0,2.575,1.225,4.175,3.7,4.175a4.594,4.594,0,0,0,4.025-2.1L-99.275,0ZM-87-13.7c-3.975,0-6.5,2.95-6.5,7.175,0,4.2,2.5,6.95,6.575,6.95A6.905,6.905,0,0,0-82.45-1.15l-1.8-2.525a3.713,3.713,0,0,1-2.475.975c-1.575,0-2.625-.9-2.625-3.85,0-2.975.975-4.125,2.675-4.125a3.773,3.773,0,0,1,2.5.975l1.725-2.375A6.675,6.675,0,0,0-87-13.7Zm11.725,0c-3.975,0-6.5,2.95-6.5,7.175,0,4.2,2.5,6.95,6.575,6.95A6.905,6.905,0,0,0-70.725-1.15l-1.8-2.525A3.713,3.713,0,0,1-75-2.7c-1.575,0-2.625-.9-2.625-3.85,0-2.975.975-4.125,2.675-4.125a3.773,3.773,0,0,1,2.5.975l1.725-2.375A6.675,6.675,0,0,0-75.275-13.7Zm8.175-6.575a2.214,2.214,0,0,0-2.325,2.25,2.214,2.214,0,0,0,2.325,2.25,2.235,2.235,0,0,0,2.35-2.25A2.235,2.235,0,0,0-67.1-20.275ZM-65.1,0V-13.275h-3.95V0ZM-53-17.925l-1.55-2.95-5.45,3.3,1.1,2.025ZM-56.25-13.7c-4.05,0-6.5,2.8-6.5,7.05,0,4.475,2.475,7.075,6.5,7.075,4.05,0,6.5-2.8,6.5-7.05C-49.75-11.1-52.2-13.7-56.25-13.7Zm0,2.9c1.6,0,2.4,1.225,2.4,4.175,0,2.875-.8,4.15-2.4,4.15s-2.4-1.225-2.4-4.175C-58.65-9.525-57.85-10.8-56.25-10.8Zm16.625-2.9a5.052,5.052,0,0,0-4.05,2l-.275-1.575H-47.4V0h3.95V-9.075c.7-1.1,1.425-1.725,2.3-1.725.775,0,1.25.375,1.25,1.775V0h3.95V-9.7C-35.95-12.225-37.325-13.7-39.625-13.7Zm24.475-4.85-3.95-.425v6.525a4.3,4.3,0,0,0-3.075-1.25c-3.425,0-5.5,2.925-5.5,7.025,0,4.3,1.675,7.1,5.05,7.1A4.427,4.427,0,0,0-18.85-1.55l.2,1.55h3.5ZM-21.375-2.475c-1.3,0-2.2-.875-2.2-4.175,0-2.975,1-4.175,2.425-4.175A2.581,2.581,0,0,1-19.1-9.7v5.725A2.648,2.648,0,0,1-21.375-2.475ZM-.725-6.9c0-4.3-2.325-6.8-6.125-6.8-4.025,0-6.2,3.15-6.2,7.125,0,4.15,2.25,7,6.675,7A8.162,8.162,0,0,0-1.2-1.425l-1.625-2.2A5.381,5.381,0,0,1-6-2.45c-1.625,0-2.75-.65-3.025-3.025H-.8A13.253,13.253,0,0,0-.725-6.9ZM-4.6-7.85H-9.025c.175-2.375.95-3.225,2.275-3.225,1.575,0,2.125,1.25,2.15,3.05ZM-239.65,22.3a4.659,4.659,0,0,0-3.975,2.1,3.151,3.151,0,0,0-3.125-2.1,4.631,4.631,0,0,0-3.85,1.975l-.275-1.55h-3.45V36h3.95V26.925c.575-1.1,1.2-1.725,2.025-1.725.6,0,1.125.375,1.125,1.775V36h3.95V26.925c.575-1.1,1.175-1.725,2.025-1.725.6,0,1.125.375,1.125,1.775V36h3.95V26.3C-236.175,23.775-237.6,22.3-239.65,22.3Zm12.2,0c-4.05,0-6.5,2.8-6.5,7.05,0,4.475,2.475,7.075,6.5,7.075,4.05,0,6.5-2.8,6.5-7.05C-220.95,24.9-223.4,22.3-227.45,22.3Zm0,2.9c1.6,0,2.4,1.225,2.4,4.175,0,2.875-.8,4.15-2.4,4.15s-2.4-1.225-2.4-4.175C-229.85,26.475-229.05,25.2-227.45,25.2Zm16.3-2.9a4.4,4.4,0,0,0-3.5,1.775v-7.05l-3.95.425V36h3.5l.2-1.275a4.253,4.253,0,0,0,3.475,1.7c3.3,0,5.275-2.95,5.275-7.05C-206.15,24.925-207.875,22.3-211.15,22.3Zm-1.4,11.25a2.484,2.484,0,0,1-2.1-1.275V26.75a2.666,2.666,0,0,1,2.275-1.55c1.225,0,2.125.8,2.125,4.175C-210.25,32.475-211.2,33.55-212.55,33.55Zm10.825-17.825a2.214,2.214,0,0,0-2.325,2.25,2.214,2.214,0,0,0,2.325,2.25,2.235,2.235,0,0,0,2.35-2.25A2.235,2.235,0,0,0-201.725,15.725Zm2,20.275V22.725h-3.95V36Zm6.925-3.725V17.025l-3.95.425V32.675c0,2.45,1.3,3.75,3.5,3.75a7.148,7.148,0,0,0,2.55-.45l-.775-2.8a1.878,1.878,0,0,1-.65.125C-192.55,33.3-192.8,33.025-192.8,32.275Zm5.55-16.55a2.214,2.214,0,0,0-2.325,2.25,2.214,2.214,0,0,0,2.325,2.25,2.235,2.235,0,0,0,2.35-2.25A2.235,2.235,0,0,0-187.25,15.725Zm2,20.275V22.725h-3.95V36Zm13.65-3.85V27c0-3.075-1.65-4.7-5.5-4.7a15,15,0,0,0-5,.975l.9,2.6a11.96,11.96,0,0,1,3.475-.7c1.625,0,2.25.475,2.25,2.05V27.8h-1.35c-4.025,0-6.225,1.575-6.225,4.475a4.011,4.011,0,0,0,4.325,4.15,4.469,4.469,0,0,0,4-2c.6,1.325,1.625,1.8,3.2,1.925l.825-2.575C-171.325,33.55-171.6,33.175-171.6,32.15Zm-5.975,1.45a1.482,1.482,0,0,1-1.55-1.675c0-1.325.875-1.95,2.675-1.95h.975v2.35A2.365,2.365,0,0,1-177.575,33.6Zm16.325-11.25c-1.525,0-2.825,1.1-3.425,2.95L-165,22.725h-3.45V36h3.95V29.425c.425-2.025,1.1-3.25,2.75-3.25a4.8,4.8,0,0,1,1.2.175l.625-3.825A4.472,4.472,0,0,0-161.25,22.35Zm4.775-6.625a2.214,2.214,0,0,0-2.325,2.25,2.214,2.214,0,0,0,2.325,2.25,2.235,2.235,0,0,0,2.35-2.25A2.235,2.235,0,0,0-156.475,15.725Zm2,20.275V22.725h-3.95V36Zm8.85-13.7c-4.05,0-6.5,2.8-6.5,7.05,0,4.475,2.475,7.075,6.5,7.075,4.05,0,6.5-2.8,6.5-7.05C-139.125,24.9-141.575,22.3-145.625,22.3Zm0,2.9c1.6,0,2.4,1.225,2.4,4.175,0,2.875-.8,4.15-2.4,4.15s-2.4-1.225-2.4-4.175C-148.025,26.475-147.225,25.2-145.625,25.2Zm25.325,6.95V27c0-3.075-1.65-4.7-5.5-4.7a15,15,0,0,0-5,.975l.9,2.6a11.96,11.96,0,0,1,3.475-.7c1.625,0,2.25.475,2.25,2.05V27.8h-1.35c-4.025,0-6.225,1.575-6.225,4.475a4.011,4.011,0,0,0,4.325,4.15,4.469,4.469,0,0,0,4-2c.6,1.325,1.625,1.8,3.2,1.925l.825-2.575C-120.025,33.55-120.3,33.175-120.3,32.15Zm-5.975,1.45a1.482,1.482,0,0,1-1.55-1.675c0-1.325.875-1.95,2.675-1.95h.975v2.35A2.365,2.365,0,0,1-126.275,33.6Zm18.875-1.325V17.025l-3.95.425V32.675c0,2.45,1.3,3.75,3.5,3.75a7.148,7.148,0,0,0,2.55-.45l-.775-2.8a1.878,1.878,0,0,1-.65.125C-107.15,33.3-107.4,33.025-107.4,32.275Zm14.15-.125V27c0-3.075-1.65-4.7-5.5-4.7a15,15,0,0,0-5,.975l.9,2.6a11.96,11.96,0,0,1,3.475-.7c1.625,0,2.25.475,2.25,2.05V27.8h-1.35c-4.025,0-6.225,1.575-6.225,4.475a4.011,4.011,0,0,0,4.325,4.15,4.469,4.469,0,0,0,4-2c.6,1.325,1.625,1.8,3.2,1.925l.825-2.575C-92.975,33.55-93.25,33.175-93.25,32.15Zm-5.975,1.45a1.482,1.482,0,0,1-1.55-1.675c0-1.325.875-1.95,2.675-1.95h.975v2.35A2.365,2.365,0,0,1-99.225,33.6ZM-69.5,22.3a4.659,4.659,0,0,0-3.975,2.1A3.151,3.151,0,0,0-76.6,22.3a4.631,4.631,0,0,0-3.85,1.975l-.275-1.55h-3.45V36h3.95V26.925c.575-1.1,1.2-1.725,2.025-1.725.6,0,1.125.375,1.125,1.775V36h3.95V26.925c.575-1.1,1.175-1.725,2.025-1.725.6,0,1.125.375,1.125,1.775V36h3.95V26.3C-66.025,23.775-67.45,22.3-69.5,22.3Zm18.025,6.8c0-4.3-2.325-6.8-6.125-6.8-4.025,0-6.2,3.15-6.2,7.125,0,4.15,2.25,7,6.675,7a8.162,8.162,0,0,0,5.175-1.85l-1.625-2.2A5.381,5.381,0,0,1-56.75,33.55c-1.625,0-2.75-.65-3.025-3.025h8.225A13.252,13.252,0,0,0-51.475,29.1Zm-3.875-.95h-4.425c.175-2.375.95-3.225,2.275-3.225,1.575,0,2.125,1.25,2.15,3.05Zm18.05-10.7-3.95-.425V23.55a4.3,4.3,0,0,0-3.075-1.25c-3.425,0-5.5,2.925-5.5,7.025,0,4.3,1.675,7.1,5.05,7.1A4.427,4.427,0,0,0-41,34.45l.2,1.55h3.5Zm-6.225,16.075c-1.3,0-2.2-.875-2.2-4.175,0-2.975,1-4.175,2.425-4.175A2.581,2.581,0,0,1-41.25,26.3v5.725A2.648,2.648,0,0,1-43.525,33.525Zm11.275-17.8a2.214,2.214,0,0,0-2.325,2.25,2.214,2.214,0,0,0,2.325,2.25,2.235,2.235,0,0,0,2.35-2.25A2.235,2.235,0,0,0-32.25,15.725Zm2,20.275V22.725H-34.2V36Zm15-18.55-3.95-.425V23.55a4.3,4.3,0,0,0-3.075-1.25c-3.425,0-5.5,2.925-5.5,7.025,0,4.3,1.675,7.1,5.05,7.1A4.427,4.427,0,0,0-18.95,34.45l.2,1.55h3.5Zm-6.225,16.075c-1.3,0-2.2-.875-2.2-4.175,0-2.975,1-4.175,2.425-4.175A2.581,2.581,0,0,1-19.2,26.3v5.725A2.648,2.648,0,0,1-21.475,33.525ZM-1.6,32.15V27c0-3.075-1.65-4.7-5.5-4.7a15,15,0,0,0-5,.975l.9,2.6a11.96,11.96,0,0,1,3.475-.7c1.625,0,2.25.475,2.25,2.05V27.8h-1.35c-4.025,0-6.225,1.575-6.225,4.475a4.011,4.011,0,0,0,4.325,4.15,4.469,4.469,0,0,0,4-2c.6,1.325,1.625,1.8,3.2,1.925L-.7,33.775C-1.325,33.55-1.6,33.175-1.6,32.15ZM-7.575,33.6a1.482,1.482,0,0,1-1.55-1.675c0-1.325.875-1.95,2.675-1.95h.975v2.35A2.365,2.365,0,0,1-7.575,33.6Z" transform="translate(1345 2941)" fill="#fff"/><g transform="translate(1370.258 2849.937)"><path d="M1922.446,245.8c-.017-.031-.053-.047-.075-.076a.776.776,0,0,0-.219-.224l-86.479-50.922h0a.8.8,0,0,0-.247-.064.753.753,0,0,0-.154-.044h0a.784.784,0,0,0-.224.061.9.9,0,0,0-.182.047h0L1748.36,245.52a.8.8,0,0,0-.205.208c-.026.034-.068.054-.09.092a.825.825,0,0,0-.112.41l-.026,92.6a.822.822,0,0,0,.112.41c.016.031.054.048.075.076a.788.788,0,0,0,.219.224l86.483,50.924h0a.825.825,0,0,0,.818,0h0l86.507-50.938a.823.823,0,0,0,.207-.208c.028-.033.068-.054.088-.092a.8.8,0,0,0,.11-.41l.022-92.6A.8.8,0,0,0,1922.446,245.8Zm-1.554,92.541-.8.466-84.059,49.5h0v-7.349l77.824-45.819h0l.418-.246a.843.843,0,0,0,.407-.71v-.466h0l.019-82.4,6.218-3.661h0l-.02,89.717v.97Zm-171.343.016v-.972h0l.027-89.715,6.218,3.658-.021,82.4h0v.466a.836.836,0,0,0,.115.415.822.822,0,0,0,.291.294l.417.246h0l77.793,45.808v7.349h0l-84.034-49.481Zm85.7-142.111.824.485h0l33.842,19.927,50.19,29.554h0l-6.241,3.675h0l-77.794-45.811h0l-.4-.238a.83.83,0,0,0-.838,0l-.407.241h0L1756.606,249.9h0l-6.236-3.673h0l20.848-12.28,63.209-37.22.824-.485Zm76.974,137.939L1835.2,379.537,1758.21,334.2h0l14.117-8.311h0l23.171,13.646h0a.825.825,0,0,0,.818,0h0l55.043-32.415a.82.82,0,0,0,.406-.71V298.6h0l45.53,26.809h0v1.921a6.461,6.461,0,0,0-2.479.842l-5.512,3.247a3.229,3.229,0,0,0,0,5.562l5.506,3.232a6.488,6.488,0,0,0,6.566,0l5.51-3.241a3.227,3.227,0,0,0,0-5.562l-5.5-3.236a6.448,6.448,0,0,0-2.45-.841v-.951h0l13.265,7.811ZM1757.431,251.34,1834.425,206h0l-.016,59.1v12.087l-6.619-3.9a.826.826,0,0,0-.838,0l-2.51,1.486-.2-.933a.756.756,0,0,0-.065-.137.836.836,0,0,0-.071-.155.82.82,0,0,0-.177-.173c-.033-.025-.051-.065-.089-.087l-3.379-1.895a.819.819,0,0,0-.814,0L1779.8,294.34h0l-.02.012s0,.009-.012.012a.82.82,0,0,0-.393.648v6.294l-7.461,4.39a.843.843,0,0,0-.205.208c-.026.033-.068.054-.09.092a.838.838,0,0,0-.11.41v18.05l-14.091,8.3Zm92.7,44.383h0v1.913h0v8.31l-53.4,31.444V320.778l1.363-.8,4.85-2.851-.012,7.806h0a1.028,1.028,0,0,0,.037.14.881.881,0,0,0,.073.274.824.824,0,0,0,.714.41h0a.83.83,0,0,0,.417-.113l39.326-23.148a.819.819,0,0,0,.406-.71v-7.82h0v-.97l.8-.466h0l5.419-3.188Zm-76.184,29.223-.8-.466V307.856l2.153,1.268,11.123,6.55h0l.811.479.812.479h0l7.041,4.147v16.6l-21.14-12.449Zm0-18.519,6.241-3.673,4.545,2.686h0l6.839,4.032h0l2.694,1.587h0l.811.479.812.479h0l6.244,3.678-6.236,3.668h0l-6.241-3.676h0l-.811-.479-.812-.479h0l-14.1-8.3Zm47.821-32.4-4.306,2.487L1783.313,296.2l-1.567-1.055,38.316-22.072,1.71.958Zm-28.142,34.731h0l16.149-9.525,2.263,1.365h0l.8.482h0l.8.482h0l10.048,6.062-3.166,1.865-15.919,9.373v-3.182h0a.806.806,0,0,0-.11-.41c-.012-.02-.037-.031-.051-.053a.812.812,0,0,0-.243-.246l-6.657-3.92h0l-.8-.474h0l-.811-.479h0l-2.277-1.34Zm31.023,2.933L1804.59,323.5l.01-2.712.395-.233,19.656-11.574Zm8.958-23.792.811.479.378.222.434.256,6.193,3.65.841.5h0v2.717l-9.345-5.5h0l-.811-.479-.812-.479h0l-3.51-2.067a.73.73,0,0,0-.362-.1c-.02,0-.038-.016-.057-.016a.826.826,0,0,0-.3.058l-.751-3.536,7.295,4.3Zm-6.934,1.366.235-.137.459-.272.073.044,2.234,1.315h0l.812.479.811.479h0l10.169,5.989-16.144,9.5-10.049-6.062h0l-.8-.482h0l-.8-.482h0l-2.266-1.365,14.53-8.571Zm-.375,21.451V308l15.965-9.4v2.719Zm-1.991-28.616h0v.012l1.243,5.888h0L1792,307.791h0l-6.132-3.609v-.009l-1.641-6.616,38.636-22.273.26,1.225Zm-41.753,15.563,1.326,5.341h0l-2.866-1.694h0v-4.691Zm60.538-6.1-7.046-4.146h0l-.824-.485-.824-.485h0l-7.7-4.531-.86-.507h0l-.962-4.547-.081-.384,2.569-1.52,7.035,4.146h0l.824.485.824.485h0l13.278,7.823Zm47.064,41.279h0l5.512-3.247a4.828,4.828,0,0,1,1.643-.591v4.225a.824.824,0,0,0,1.648,0v-4.223a4.816,4.816,0,0,1,1.614.586l5.495,3.236a1.578,1.578,0,0,1,.56,2.162,1.558,1.558,0,0,1-.56.56l-5.513,3.239a4.832,4.832,0,0,1-4.895,0l-5.506-3.232a1.579,1.579,0,0,1,0-2.72Zm8.8-8.374V297.542a17.786,17.786,0,0,0-8.737-15.277l-13.85-8.147a1.767,1.767,0,0,0-2.418.628,1.8,1.8,0,0,0-.244.9v2.213a9.017,9.017,0,0,0-7.853,9.138v5.022c0,2.374,3.731,4.161,8.688,4.161s8.688-1.788,8.688-4.161V287a9.014,9.014,0,0,0-7.875-9.14v-2.207a.12.12,0,0,1,.121-.118.123.123,0,0,1,.057.016l13.85,8.147a16.136,16.136,0,0,1,7.928,13.856v25.958l-45.53-26.809v-8.79c0-.02-.014-.036-.016-.057a.815.815,0,0,0-.392-.656l-15.331-9.04V265.082l.016-59.09,76.972,45.328-.019,81.427Zm-24.427-43.094a.823.823,0,0,0,.824-.824h0v-1.034a7.378,7.378,0,0,1,6.233,7.483v5.022c0,1.026-2.744,2.513-7.04,2.513s-7.04-1.488-7.04-2.513V287a7.381,7.381,0,0,1,6.2-7.478v1.031A.825.825,0,0,0,1874.535,281.37Z" transform="translate(-1747.926 -194.475)" fill="#fff"/><path d="M1850.028,284.707c-.02-.036-.062-.058-.089-.09a.792.792,0,0,0-.205-.208l-23.6-13.893a.822.822,0,0,0-.836,0l-31.442,18.528a.811.811,0,0,0-.2.208c-.028.034-.068.054-.09.092a.839.839,0,0,0-.11.41v2.356l-.017,9.252a.825.825,0,0,0,.406.712l23.587,13.89h.009a.82.82,0,0,0,.385.106h.023c.013,0,.025-.009.039-.009a.826.826,0,0,0,.368-.1h0l7.865-4.631a.824.824,0,0,0,.406-.71v-4.16l14.093-8.293-.014,3.188a.824.824,0,0,0,1.244.714l7.884-4.623a.821.821,0,0,0,.407-.71V285.118A.807.807,0,0,0,1850.028,284.707Zm-1.536,4.211v7.349l-6.23,3.653.014-3.193a.824.824,0,0,0-.819-.829.833.833,0,0,0-.424.115l-15.746,9.267a.826.826,0,0,0-.406.71v4.158l-6.218,3.659-.824.485V306.8h.044a.828.828,0,0,0,.334-.089.043.043,0,0,0,.036-.012h0l.407-.238Zm-22.778-16.738,21.976,12.939-.376.221-.812.477-.813.479-10.335,6.081-17.5,10.3-19.944-11.747-.811-.479-.813-.479-.376-.222Zm-29.439,19.708,20.745,12.218h0v.445L1795.9,292.116l-.8-.466V291.2h0l.365.215Zm-1.18,1.663h0l21.926,12.912h0v7.346l-21.94-12.915Zm52.6-6.076-29.022,17.075v-.445l.327-.193,28.316-16.66.813-.479.365-.216V287l-.328.193Z" transform="translate(-1722.696 -152.381)" fill="#fff"/><path d="M1772.583,268.773a.82.82,0,0,0,.827,0L1806.3,249.3a.823.823,0,0,0,.4-.7l.2-24.734a.826.826,0,0,0-1.243-.717l-33.079,19.478a.828.828,0,0,0-.407.71v24.734A.823.823,0,0,0,1772.583,268.773Zm1.244-24.978,31.421-18.5-.182,22.812-31.243,18.5Z" transform="translate(-1734.486 -178.645)" fill="#fff"/><path d="M1771.342,277.024h0a.819.819,0,0,0,.819,0h.009l39.316-23.15a.82.82,0,0,0,.406-.71l.014-32.411h0a.806.806,0,0,0-.11-.41c-.023-.039-.065-.061-.095-.095a.776.776,0,0,0-.2-.205l-2.779-1.629a.826.826,0,0,0-.834,0l-39.326,23.161a.83.83,0,0,0-.19.191c-.032.039-.081.065-.107.109a.82.82,0,0,0-.085.32c-.009.03-.019.059-.025.089V274.69a.827.827,0,0,0,.407.712Zm-1.533-33.308,1.131.662v30.5l-1.131-.662Zm40.441,8.975-37.666,22.178V244.379l37.674-22.184Zm-1.941-32.611,1.152.675-37.7,22.2-.477-.28-.675-.395Z" transform="translate(-1736.714 -181.266)" fill="#fff"/></g><g transform="translate(1259.056 3032.655)"><path d="M1439.31,246.01a.787.787,0,0,0-.2-.2l-86.482-50.924h0a.821.821,0,0,0-.222-.057h-.011a1,1,0,0,0-.169-.047h-.01a14.825,14.825,0,0,1-.4.107h0l-86.528,50.934a.873.873,0,0,0-.188.19c-.033.039-.082.065-.107.11a.825.825,0,0,0-.11.41l-.025,92.6a.84.84,0,0,0,.11.41c.022.039.065.062.093.1a.865.865,0,0,0,.2.2l86.484,50.925h0a.832.832,0,0,0,.817,0h0l86.509-50.939a.749.749,0,0,0,.188-.19c.034-.039.083-.065.109-.109a.808.808,0,0,0,.11-.41l.023-92.6a.807.807,0,0,0-.11-.41C1439.382,246.065,1439.338,246.045,1439.31,246.01Zm-1.467,92.642-.8.466h0l-9.2,5.419-74.857,44.08h0v-7.351l7.483-4.377c.031-.019.045-.053.073-.073l23.551-13.867,7.83-4.587c.023-.012.034-.04.056-.056l38.832-22.864h0l.418-.246a.838.838,0,0,0,.406-.71v-.466h0l.019-82.4,2.577-1.517,3.639-2.142-.022,89.717h0v.97Zm-170.544.485-.8-.466V337.7l.025-89.715h0l6.218,3.659-.02,82.4v.466a.84.84,0,0,0,.406.71l.417.246h0l77.794,45.808v7.349h0l-78.486-46.22-5.549-3.264h0Zm84.083-142.1.824-.485h0l.824.485,84.032,49.481h0l-6.241,3.675h0l-77.792-45.819h0l-.4-.238a.82.82,0,0,0-.835,0l-.409.241h0L1273.564,250.2h0l-6.238-3.673h0Zm77.8,137.452-36.855,21.7v-21.11a6.371,6.371,0,0,0-3.242-5.6h0l-15.557-9.18a.516.516,0,0,0-.057-.031,6.351,6.351,0,0,0-6.569-.019l-11.618,6.839v-6.347c3.575-.5,6.042-2.08,6.042-4.057V315.11c0-2.411-3.671-4.228-8.538-4.228a14.234,14.234,0,0,0-5.952,1.146v-2.953l4.722-2.768h0a2.607,2.607,0,0,0,1.27-2.083v-5.086a1.279,1.279,0,0,0-.622-1.156,1.215,1.215,0,0,0-.516-.145.917.917,0,0,0-.1-.014h-1.211a.714.714,0,0,0-.082,0,1.673,1.673,0,0,0-.769.244l-8.652,5.07a2.612,2.612,0,0,0-1.27,2.083V310.3a1.262,1.262,0,0,0,.9,1.265,1.307,1.307,0,0,0,.542.036l.923.017h.081a1.7,1.7,0,0,0,.856-.252l.134-.079v4.124c0,.594.474,1.045,1.209,1.217v.047c0,1.977,2.469,3.552,6.04,4.057v9.286l-8.288,4.878a12.942,12.942,0,0,0-6.351,11.1v1.643a9.961,9.961,0,0,0-1.2-.311v-15.3c3.575-.5,6.042-2.081,6.042-4.059v-1.582c0-2.411-3.67-4.23-8.538-4.23A14.259,14.259,0,0,0,1326,323.3v-2.953l4.724-2.768h0A2.606,2.606,0,0,0,1332,315.5v-5.078a1.279,1.279,0,0,0-.622-1.157,1.216,1.216,0,0,0-.521-.146.841.841,0,0,0-.093-.014h-1.212a.854.854,0,0,0-.088,0,1.731,1.731,0,0,0-.763.244l-8.652,5.07a2.615,2.615,0,0,0-1.27,2.083v5.086a1.264,1.264,0,0,0,.9,1.265,1.367,1.367,0,0,0,.544.036l.923.017h.079a1.683,1.683,0,0,0,.856-.253l.134-.078v4.124c0,.594.474,1.045,1.209,1.217v.047c0,1.977,2.47,3.553,6.042,4.059v15.27c-2.627.466-4.412,1.71-4.412,3.252v.863c0,1.973,2.921,3.46,6.794,3.46a12.2,12.2,0,0,0,3.807-.561l-.013,15.8-60.466-35.6h0l77.021-45.351h0l3.166,1.865h0a5.553,5.553,0,0,0-.449,2.165v11.131a.822.822,0,0,0,.406.71l39.587,23.316h0a.813.813,0,0,0,.622.081.969.969,0,0,0,.135-.065c.022-.011.048,0,.07-.02l11.5-6.78h0l21.952,12.926Zm-46.386,26.338-14.06-8.3v-3.681h0l14.077-8.29Zm-21.917-7.346,6.218-3.658v3.177a.826.826,0,0,0,.4.71l14.5,8.559-21.117,12.435Zm29.806,3.695-6.241,3.654h0l.025-21.707a.823.823,0,0,0-1.243-.712l-15.726,9.261h0l-7.862,4.631a.827.827,0,0,0-.407.71v22.694l-6.241,3.65h0l.02-24.073a11.286,11.286,0,0,1,5.54-9.679l24.9-14.655a5.193,5.193,0,0,1,.58-.291c.081-.034.163-.056.245-.085.118-.044.235-.09.354-.123s.221-.047.333-.07.185-.044.28-.057c.125-.017.249-.02.373-.026.082,0,.166-.017.249-.017.155,0,.311.013.466.028a.752.752,0,0,1,.145.009,4.871,4.871,0,0,1,.5.1c.037.009.074.012.112.022.156.044.319.1.477.155.04.016.082.025.121.042.118.048.232.11.347.168.078.039.155.072.236.115a4.748,4.748,0,0,1,2.417,4.167v22.1Zm-63.988-6.636c0-.25.261-.546.717-.824a6.685,6.685,0,0,1,2.047-.741v1.85a1.175,1.175,0,0,0,.141.541,2.159,2.159,0,0,0,1.654.962,8.455,8.455,0,0,1-3.844-.962c-.452-.278-.715-.572-.715-.822Zm4.411-2.613V332.178c.278.012.561.02.849.02s.57,0,.849-.02V350.6a2.56,2.56,0,0,1-1.7,0v-2.666Zm-.758-32.431a1.044,1.044,0,0,1-.459.662l-.166.1L1326,318.438l-.824.482-.824.482-.5.291-.824.482-.824.482-.589.345v-4.508a1.055,1.055,0,0,1,.456-.662l.26-.155.706-.413,6.114-3.575.824-.482.371-.218Zm-5.994,5.818v3.087a3.7,3.7,0,0,0-.5.6v-3.4Zm14.49,5.064h0a1.226,1.226,0,0,1-.449.824,7.626,7.626,0,0,1-3.943,1.554c-.267.042-.535.084-.824.112-.263.026-.546.036-.825.051s-.55.037-.849.037-.567-.025-.849-.037-.561-.025-.824-.051c-.288-.028-.556-.07-.824-.112a8.233,8.233,0,0,1-3.718-1.374c-.076-.062-.156-.121-.227-.182a1.65,1.65,0,0,1-.348-.477.9.9,0,0,1-.1-.347h0a.885.885,0,0,1,.114-.395,1.8,1.8,0,0,1,.336-.429,3.729,3.729,0,0,1,.49-.379,11.213,11.213,0,0,1,5.952-1.377,9.889,9.889,0,0,1,6.44,1.757,1.228,1.228,0,0,1,.446.824Zm-3.193,23.338v1.963a9.37,9.37,0,0,1-2.921.633,2.114,2.114,0,0,0,1.581-.948,1.14,1.14,0,0,0,.142-.541v-1.8a7.69,7.69,0,0,1,1.2.376Zm1.645,3.793v-7.5a11.285,11.285,0,0,1,5.54-9.679l7.452-4.385.824-.485.824-.485,1.7-1,.824-.485.824-.485,12.452-7.327a4.728,4.728,0,0,1,4.94.044c.025.014.05.028.075.04l11.849,6.995c-.055.011-.1.034-.156.047a6.526,6.526,0,0,0-.657.193c-.095.033-.19.062-.283.1a6.918,6.918,0,0,0-.892.432l-24.9,14.653a13.058,13.058,0,0,0-6.353,11.1l-.02,24.076-14.058-8.3Zm13.888-49.29a1.037,1.037,0,0,1-.458.662l-.166.1-3.721,2.176-.824.482-.824.482-.5.291-.824.482-.824.482-.59.347v-4.508a1.056,1.056,0,0,1,.457-.662l.26-.155.7-.412,6.114-3.575.822-.482.373-.218Zm-5.994,5.818v3.081a3.617,3.617,0,0,0-.5.6v-3.389Zm14.49,5.063h0a1.239,1.239,0,0,1-.449.822,7.627,7.627,0,0,1-3.944,1.554c-.267.044-.536.084-.824.112-.263.026-.545.036-.824.051s-.55.037-.849.037-.566-.023-.847-.037-.561-.025-.824-.051c-.287-.028-.557-.07-.824-.112a8.221,8.221,0,0,1-3.719-1.374c-.078-.061-.157-.121-.227-.182a1.619,1.619,0,0,1-.348-.477.854.854,0,0,1-.1-.347h0a.831.831,0,0,1,.114-.392,1.676,1.676,0,0,1,.336-.432,3.312,3.312,0,0,1,.49-.378,11.205,11.205,0,0,1,5.952-1.377,9.894,9.894,0,0,1,6.44,1.756,1.228,1.228,0,0,1,.445.825Zm-7.74,5.792c.28.012.561.02.849.02s.57,0,.849-.02v7.166l-1.7,1Zm-77.55-69.264,76.994-45.337-.02,81.427-39.4,23.2-37.595,22.135Zm83.271,38.827h0a3.9,3.9,0,0,1,.762-.611l6.634-4.06a1.148,1.148,0,0,1,1.188-.016l37.379,22.024-6.482,3.967a5.5,5.5,0,0,0-1.332,1.163h0a5.784,5.784,0,0,0-.869,1.4h0a5.539,5.539,0,0,0-.455,2.176v9.689l-37.934-22.351v-10.66a3.941,3.941,0,0,1,.238-1.32h0a4,4,0,0,1,.362-.743,4.091,4.091,0,0,1,.507-.659Zm48.747,19.646v9.062h0v.97l-.8.466h0l-8.055,4.75-1.413.833V316.5a3.921,3.921,0,0,1,.243-1.329h0a4.144,4.144,0,0,1,.872-1.4h0a3.868,3.868,0,0,1,.752-.606l6.634-4.06a1.2,1.2,0,0,1,.292-.129,1.181,1.181,0,0,1,.311-.044,1.148,1.148,0,0,1,.567.155h0a1.205,1.205,0,0,1,.6,1.017Zm1.646,10.032V310.106a2.77,2.77,0,0,0-1.377-2.409c-.012-.009-.02-.023-.034-.031l-39.569-23.316h0a2.8,2.8,0,0,0-2.877.033l-6.634,4.062a5.526,5.526,0,0,0-1.338,1.169l-3.21-1.89.02-81.43,76.972,45.326-.019,81.429Z" transform="translate(-1264.851 -194.779)" fill="#fff"/><path d="M1326.818,215.732a.824.824,0,0,0-1.129.289.836.836,0,0,0-.115.421l-.011,37.068a.827.827,0,0,0,.407.71l47.184,27.751a.825.825,0,0,0,1.243-.71V244.24a.824.824,0,0,0-.406-.71Zm45.931,64.089L1327.2,253.041l.011-35.156,45.527,26.829Z" transform="translate(-1231.192 -183.226)" fill="#fff"/><path d="M1305.105,275.156c.028-.034.068-.056.089-.093v-.009l.1-.4v-46.3a.824.824,0,0,0-1.243-.71l-7.906,4.643h0l-15.715,9.246a.828.828,0,0,0-.407.71v47.1a.818.818,0,0,0,.064.235.426.426,0,0,0,.225.354.838.838,0,0,0,.129.129h0a.822.822,0,0,0,.835-.02l23.627-14.694A.815.815,0,0,0,1305.105,275.156Zm-2.221-.479-15.575,9.684-5.61,3.488.137-8,14.756-8.852h0l4.84,2.832,1.452.85Zm.777-1.46-6.244-3.654V233.474h0l6.253-3.675Zm-21.982-30.5,14.084-8.276v35.129l-14.089,8.453Z" transform="translate(-1256.439 -176.621)" fill="#fff"/><path d="M1308.525,258h0a.822.822,0,0,0,.816,0h0l19.443-11.448a.824.824,0,0,0,.407-.71V222.45h0a.82.82,0,0,0-.11-.409c-.02-.034-.057-.053-.081-.082a.8.8,0,0,0-.211-.216l-7.654-4.525a.821.821,0,0,0-.839,0l-19.6,11.618a.827.827,0,0,0-.193.2c-.031.037-.076.062-.1.1a.847.847,0,0,0-.1.359c0,.017-.012.033-.012.051h0V252.63a.823.823,0,0,0,.4.707Zm-5.764-28.459,17.978-10.657,6.042,3.575-17.845,10.725-3.642-2.143-2.534-1.491Zm-.8,22.623V230.99l6.151,3.622v21.235Zm7.806,3.687h0V234.6h0l15.12-9.082,2.683-1.61v21.466Z" transform="translate(-1245.201 -182.403)" fill="#fff"/></g><g transform="translate(1259.295 2668.527)"><path d="M956.473,247.382a.789.789,0,0,0-.219-.224l-86.2-50.754h0a.723.723,0,0,0-.208-.054.838.838,0,0,0-.194-.053h-.009a.881.881,0,0,0-.194.053.787.787,0,0,0-.211.054h0L783,247.176a.87.87,0,0,0-.188.19c-.034.039-.082.065-.107.109a.824.824,0,0,0-.11.41l-.025,92.3a.825.825,0,0,0,.11.41c.022.039.065.061.093.1a.809.809,0,0,0,.2.2l86.2,50.756h0a.82.82,0,0,0,.819,0h0l86.224-50.771a.789.789,0,0,0,.2-.208c.028-.034.07-.054.09-.092a.808.808,0,0,0,.11-.41l.022-92.3a.8.8,0,0,0-.11-.412C956.531,247.427,956.5,247.412,956.473,247.382Zm-1.484,92.311-.8.466-83.782,49.329h0v-7.32L947.971,336.5h0l.418-.246a.819.819,0,0,0,.289-.294.809.809,0,0,0,.117-.418v-.466h0l.017-82.124,4.275-2.517L955,249.31h0l-.022,89.411v.971Zm-169.974.485-.8-.466v-.971l.025-89.412h0l6.188,3.644-.02,82.122h0v.466a.848.848,0,0,0,.407.71l.417.246h0l77.535,45.654v7.32h0l-76.086-44.8-7.665-4.508Zm83.8-141.623.824-.485h0l.824.485,17.117,10.079,66.631,39.235h0l-6.218,3.659h0L870.461,205.87h0l-.4-.238a.829.829,0,0,0-.836,0l-.409.241h0l-77.564,45.67h0l-6.218-3.657h0Zm77.538,137-76.77,45.189-76.728-45.175h0l32.161-18.937h0l1.243,3.609-4.475,20.255a.825.825,0,0,0,.622.982.875.875,0,0,0,.179.02.822.822,0,0,0,.8-.647l3.023-13.679,1.865-1.071,1.206,3.488a9.082,9.082,0,0,0,5.269,5.489l9.577,3.757a1.868,1.868,0,0,1,.838.662V354.46a.824.824,0,0,0,1.648,0V344.341a1.894,1.894,0,0,0,1.749-.129l15.914-9.37v8.42a.824.824,0,0,0,1.648,0v-9.544a3.006,3.006,0,0,0,.823-2.053v-2.731a3.508,3.508,0,0,0-2.24-3.289l-9.883-3.886a7.486,7.486,0,0,1-4.13-4.021l-5.513-13h0l23.6-13.9h0v17.035a.829.829,0,0,0,.406.71l23.485,13.834h0a.825.825,0,0,0,.818,0h0l15.277-8.984h0l6.984,4.113h0v2.381a3.709,3.709,0,0,0-1.147.429l-8.532,5.024a1.733,1.733,0,0,0,0,2.986l8.549,5.033h0a3.689,3.689,0,0,0,3.741,0l8.535-5.027a1.73,1.73,0,0,0,0-2.986l-8.549-5.03a3.693,3.693,0,0,0-.945-.389v-1.449h0l28.912,17.025ZM792.077,252.969l76.728-45.183V232.8l-14.767-8.7a.823.823,0,0,0-.836,0L829.67,237.935a.864.864,0,0,0-.187.19c-.034.039-.082.065-.109.11a.839.839,0,0,0-.11.41v4.613a.829.829,0,0,0,.406.71l15.681,9.228h0a.825.825,0,0,0,.818,0h0l22.618-13.318V252.49h0v.71l-.009,35.732-24.221,14.28-1.416-3.339a4.426,4.426,0,0,0-6.578-2.922l-11.941,7.027a4.781,4.781,0,0,0-1.738,6.473l1.587,4.587-32.415,19.083Zm111.38,6.337-10.321,6.076h0L871.25,252.495h0l14.035-8.268,21.908,12.881Zm4.522,52.71-.8.466h0l-13.245,7.789V304.687h0V304.4a10.611,10.611,0,0,0,2.848,1.006,18.057,18.057,0,0,0,2.176.325h0c.622.054,1.244.087,1.865.087a14.649,14.649,0,0,0,7.141-1.554v6.773h0v.973Zm-76.266-73.368,21.906-12.881,14.036,8.273h0l-21.887,12.9h0l-13.065-7.7Zm-.8,1.441,14.031,8.265v2.7l-14.031-8.26Zm15.681,8.265,21.862-12.88v2.7l-21.862,12.874Zm47.35,54a1.036,1.036,0,0,1-.166-.256.545.545,0,0,1-.042-.193h0a.745.745,0,0,1,.21-.449h0a2.521,2.521,0,0,1,.606-.49,9.977,9.977,0,0,1,3.494-1.114,2.868,2.868,0,0,0,5.4.732,2.839,2.839,0,0,0,.239-.726,9.881,9.881,0,0,1,3.454,1.111c.522.32.808.65.808.933h0a.51.51,0,0,1-.042.193c-.356.891-3.084,2.072-7.063,2.072-3.6,0-6.177-.97-6.9-1.814Zm8.852-5.143V294.8a.785.785,0,0,0-.062-.311l2.755,4.052a16.5,16.5,0,0,0-2-.381,2.849,2.849,0,0,0-.689-.944Zm-3.156,2.123a1.289,1.289,0,0,1,.563-1.029.852.852,0,0,0,.378-.695V295.62h.566v1.994a.836.836,0,0,0,.378.692,1.285,1.285,0,0,1,.561,1.029,1.178,1.178,0,0,1-.07.344,1.2,1.2,0,0,1-2.308,0,1.312,1.312,0,0,1-.067-.337Zm2.894-5.13a.811.811,0,0,0-.564-.228h-.311v-1.048Zm-2.518-.228h-.261a.824.824,0,0,0-.824.824v2.416a2.877,2.877,0,0,0-.687.947,16.609,16.609,0,0,0-2.041.384l3.815-5.587Zm7.96,5.31L901.667,290l.009-5.262a1.476,1.476,0,0,1,2.224-1.268l4.08,2.391Zm-37.532-8.431h0v-1.913h0V253.937l21.864,12.874h0l-.017,34.173h0a2.19,2.19,0,0,0-.187.715h0v.061c0,.051-.017.1-.017.155s.011.09.014.137v.023a2.217,2.217,0,0,0,.155.673c.012.031.022.062.036.093h0v.883h0v16.554h0l-21.838-12.866Zm37.537-6.9-3.249-1.9a3.125,3.125,0,0,0-4.7,2.688l-.009,5.294-6.079,8.9.016-32.122,14.031-8.259Zm-64.218,21.633,5.43,12.8a9.14,9.14,0,0,0,5.044,4.91l9.883,3.886a1.885,1.885,0,0,1,.56.356,1.857,1.857,0,0,1,.636,1.4v2.73a1.372,1.372,0,0,1-.673,1.177l-.155.089-16.75,9.863a.371.371,0,0,1-.508-.131.377.377,0,0,1-.053-.191V340.6a3.5,3.5,0,0,0-.418-1.652c-.022-.042-.047-.081-.07-.121a3.534,3.534,0,0,0-1.753-1.523l-9.578-3.757a7.431,7.431,0,0,1-4.313-4.492l-4.592-13.27h0l-.275-.794-.275-.794-1.5-4.352a.741.741,0,0,0-.07-.155,3.135,3.135,0,0,1,1.11-4.289l11.942-7.027a2.741,2.741,0,0,1,1.4-.389,2.8,2.8,0,0,1,1.158.255,2.743,2.743,0,0,1,1.576,2.021.854.854,0,0,0,.051.174l1.534,3.617.325.766.325.765Zm-16.477,17.628.448,1.295-.841.482Zm88.495-7.571-6.162-3.629V286.833l4.25,2.487a3.864,3.864,0,0,1,1.907,3.328Zm.824,11.813a.823.823,0,0,0,.824-.824v-4.9c.036.019.076.025.11.047l8.549,5.03.418-.71-.418.855-8.537,5.025a2.04,2.04,0,0,1-2.07,0l-8.549-5.033V326.8l8.532-5.024a1.993,1.993,0,0,1,.311-.131v4.974a.824.824,0,0,0,.81.838h.03Zm.824-10.848V292.648a5.519,5.519,0,0,0-2.723-4.75l-5.083-2.978V257.11a.818.818,0,0,0-.11-.412c-.023-.039-.068-.062-.1-.1a.778.778,0,0,0-.2-.2h0l-23.523-13.834a.822.822,0,0,0-.836,0l-14.414,8.492.011-43.27,76.711,45.174-.019,81.149Z" transform="translate(-782.572 -196.297)" fill="#fff"/><path d="M818.842,272.516h0a.825.825,0,0,0,.818,0h0l35.263-20.761a.818.818,0,0,0,.407-.71v-4.62a.8.8,0,0,0-.11-.41c-.022-.04-.067-.062-.1-.1a.764.764,0,0,0-.2-.2l-15.659-9.228a.823.823,0,0,0-.836,0l-35.285,20.759a.867.867,0,0,0-.187.19c-.034.039-.084.065-.109.11a.843.843,0,0,0-.11.41v4.613a.826.826,0,0,0,.406.71l15.681,9.228ZM805.2,257.961l33.659-19.8,14.036,8.272h0l-33.639,19.809h0l-8.327-4.906Zm48.5-10.09v2.7l-33.617,19.791v-2.7l7.587-4.467ZM804.4,259.4l10.926,6.435,3.109,1.829v2.7L804.4,262.1Z" transform="translate(-771.391 -174.079)" fill="#fff"/><path d="M808.755,258.175h0a.825.825,0,0,0,.818,0h0l23.512-13.845a.818.818,0,0,0,.407-.71V239a.809.809,0,0,0-.11-.41c-.023-.039-.067-.062-.1-.1a.748.748,0,0,0-.2-.2l-15.659-9.228a.823.823,0,0,0-.836,0l-23.532,13.845a.8.8,0,0,0-.187.19c-.034.039-.084.065-.109.11a.841.841,0,0,0-.11.41v4.615a.826.826,0,0,0,.406.71l15.681,9.228Zm-13.643-14.557,21.908-12.889L831.056,239h0l-21.887,12.9h0l-13.065-7.7Zm36.745-.466-21.864,12.875v-2.7l21.864-12.88Zm-37.545,1.913,14.032,8.265v2.7l-14.032-8.26Z" transform="translate(-776.983 -178.195)" fill="#fff"/><path d="M859.5,245.47l-18.524-10.477a.825.825,0,0,0-1.124.312.846.846,0,0,0-.107.406v13.976a.827.827,0,0,0,.407.71l18.524,10.909a.826.826,0,0,0,1.13-.289.817.817,0,0,0,.114-.421V246.185A.826.826,0,0,0,859.5,245.47Zm-18.107-8.341,9.637,5.44-9.637,5.675Zm.8,12.563,10.492-6.18,5.585,3.157v12.49Z" transform="translate(-750.875 -174.903)" fill="#fff"/><path d="M859.5,256.559l-18.524-10.47a.825.825,0,0,0-1.124.312.846.846,0,0,0-.107.406v13.976a.824.824,0,0,0,.407.71L858.677,272.4a.823.823,0,0,0,1.242-.709V257.279A.825.825,0,0,0,859.5,256.559Zm-18.107-8.341,9.637,5.44-9.637,5.675Zm16.878,22.029L842.2,260.783l10.492-6.18,5.585,3.155Z" transform="translate(-750.875 -168.752)" fill="#fff"/><path d="M859.5,267.648l-18.524-10.472a1.237,1.237,0,0,0-.823.006.814.814,0,0,0-.375.581h0a.9.9,0,0,0-.036.131v13.976a.827.827,0,0,0,.407.71l18.524,10.907a.825.825,0,0,0,1.243-.71v-13.15h0V268.37A.821.821,0,0,0,859.5,267.648Zm-18.107-8.341,9.637,5.44-9.637,5.675Zm16.878,22.029L842.2,271.869l10.492-6.18,5.585,3.155Z" transform="translate(-750.875 -162.597)" fill="#fff"/><path d="M865.6,297.657l-7.306-4.29-8.35-4.927a.962.962,0,0,0-.883,0l-15.648,9.228a.871.871,0,0,0-.18.182c-.036.04-.087.068-.113.115a.863.863,0,0,0-.081.3c0,.039-.031.071-.031.11l-.036,9.249a.829.829,0,0,0,.407.713l15.689,9.218a.822.822,0,0,0,1.243-.707l.022-8.75,6.995-4.132,7.43,4.366a.824.824,0,0,0,1.242-.707v0l.022-9.218a.948.948,0,0,0-.421-.748Zm-1.243,8.521-5.4-3.176,5.42-3.2ZM855.708,303l-6.2,3.658-14.053-8.291,13.24-7.809.785-.466.04.025.822.482,7.206,4.234,6.008,3.533h-.013l-6.218,3.67-.811.479Zm-7.023,5.086-.017,7.306-14.042-8.251.028-7.338Z" transform="translate(-754.629 -145.273)" fill="#fff"/></g><path d="M3662.825,2871.2H3982.2v42.184h-28.559" transform="translate(-2230 -152)" fill="none" stroke="#fff" stroke-width="2"/><path d="M3662.825,2871.2H3982.2v-47.9h-28.559" transform="translate(5034.024 5773.59) rotate(180)" fill="none" stroke="#fff" stroke-width="2"/><path d="M3662.825,2871.2H3982.2l-.035,55.609h-28.559" transform="translate(-2230 213)" fill="none" stroke="#fff" stroke-width="2"/></g><g transform="translate(-2980.375 1710.552)"><path d="M3531.98,1009.23a.814.814,0,0,0-.218-.222l-85.685-50.453h0a.784.784,0,0,0-.207-.054.794.794,0,0,0-.194-.052h-.008a.791.791,0,0,0-.194.052.8.8,0,0,0-.21.054h0l-85.726,50.471a.781.781,0,0,0-.187.188c-.034.038-.082.065-.106.108a.812.812,0,0,0-.11.408l-.024,91.748a.807.807,0,0,0,.11.408c.022.039.065.061.092.1a.8.8,0,0,0,.2.2l85.686,50.455h0a.822.822,0,0,0,.814,0h0l85.711-50.471a.8.8,0,0,0,.2-.207c.027-.034.069-.054.089-.09a.841.841,0,0,0,.11-.408l.022-91.748a.817.817,0,0,0-.111-.411C3532.037,1009.276,3532,1009.259,3531.98,1009.23Z" transform="translate(0 0)" fill="#fff"/><g transform="translate(3370.235 970.939)"><path d="M3518.015,1011.978a.689.689,0,0,0-.19-.194l-74.667-43.966h0a.654.654,0,0,0-.181-.047.731.731,0,0,0-.168-.046h-.008a.729.729,0,0,0-.168.046.661.661,0,0,0-.183.047h0l-74.7,43.981a.7.7,0,0,0-.163.164c-.03.034-.072.057-.093.094a.7.7,0,0,0-.1.356l-.021,79.951a.7.7,0,0,0,.1.355c.019.034.057.053.081.083a.68.68,0,0,0,.175.176l74.668,43.967h0a.711.711,0,0,0,.71,0h0l74.691-43.981a.7.7,0,0,0,.177-.181c.024-.03.061-.047.078-.079a.713.713,0,0,0,.1-.355l.019-79.951a.706.706,0,0,0-.1-.357C3518.064,1012.017,3518.033,1012,3518.015,1011.978Zm-1.286,79.964-.693.4-72.577,42.731h0v-6.341l67.19-39.559h0l.362-.213a.71.71,0,0,0,.25-.254.7.7,0,0,0,.1-.362v-.4h0l.015-71.14,3.7-2.18,1.66-.978h0l-.019,77.452v.842Zm-147.24.42-.693-.4v-.842l.021-77.453h0l5.36,3.156-.017,71.138h0v.4a.724.724,0,0,0,.353.615l.361.213h0l67.165,39.548v6.341h0l-65.91-38.806-6.64-3.9Zm72.591-122.681.713-.42h0l.714.42,14.828,8.731,57.719,33.987h0l-5.386,3.17h0l-67.162-39.551h0l-.349-.206a.719.719,0,0,0-.725,0l-.354.209h0l-67.19,39.562h0l-5.386-3.168h0Zm67.167,118.672-66.5,39.145-66.466-39.133h0l27.859-16.4h0l1.077,3.127-3.876,17.546a.714.714,0,0,0,.539.851.67.67,0,0,0,.155.017.713.713,0,0,0,.7-.56l2.619-11.849,1.616-.928,1.045,3.021a7.858,7.858,0,0,0,4.564,4.755l8.3,3.255a1.633,1.633,0,0,1,.726.574v12.964a.714.714,0,0,0,1.427,0v-8.766a1.641,1.641,0,0,0,1.515-.112l13.786-8.117v7.294a.714.714,0,0,0,1.427,0v-8.267a2.614,2.614,0,0,0,.712-1.779v-2.366a3.042,3.042,0,0,0-1.94-2.849l-8.561-3.366a6.481,6.481,0,0,1-3.578-3.483l-4.776-11.262h0l20.444-12.038h0v14.756a.713.713,0,0,0,.352.615l20.344,11.984h0a.715.715,0,0,0,.708,0h0l13.233-7.783h0l6.05,3.563h0v2.063a3.207,3.207,0,0,0-.994.372l-7.391,4.352a1.5,1.5,0,0,0,0,2.587l7.406,4.36h0a3.2,3.2,0,0,0,3.241,0l7.394-4.355a1.5,1.5,0,0,0,0-2.586l-7.406-4.357a3.228,3.228,0,0,0-.818-.337V1073.6h0l25.044,14.748Zm-133.642-71.537,66.466-39.14v21.665l-12.792-7.54a.712.712,0,0,0-.725,0l-20.384,11.992a.709.709,0,0,0-.162.164c-.029.034-.071.057-.094.1a.718.718,0,0,0-.1.355v4a.713.713,0,0,0,.352.615l13.583,7.994h0a.715.715,0,0,0,.708,0h0l19.593-11.537V1016.4h0v.615l-.008,30.953-20.981,12.37-1.227-2.892a3.834,3.834,0,0,0-5.7-2.531l-10.344,6.087a4.141,4.141,0,0,0-1.506,5.607l1.375,3.974-28.08,16.531Zm96.483,5.49-8.941,5.263h0l-18.958-11.164h0l12.157-7.162,18.978,11.158Zm3.917,45.66-.69.4h0l-11.474,6.747v-13.5h0v-.247a9.147,9.147,0,0,0,2.467.871,15.624,15.624,0,0,0,1.885.281h0c.539.047,1.077.076,1.616.076a12.7,12.7,0,0,0,6.186-1.347v5.867h0v.843Zm-66.066-63.555,18.976-11.158,12.159,7.166h0l-18.959,11.176h0l-11.317-6.667Zm-.693,1.248,12.155,7.159v2.335L3409.247,1008Zm13.583,7.159,18.938-11.157V1004l-18.938,11.152Zm41.017,46.781a.847.847,0,0,1-.144-.222.444.444,0,0,1-.037-.167h0a.639.639,0,0,1,.182-.389h0a2.164,2.164,0,0,1,.525-.424,8.646,8.646,0,0,1,3.027-.965,2.484,2.484,0,0,0,4.675.634,2.423,2.423,0,0,0,.208-.629,8.566,8.566,0,0,1,2.992.963c.453.277.7.563.7.808h0a.435.435,0,0,1-.036.167c-.309.771-2.671,1.795-6.119,1.795-3.123,0-5.351-.84-5.973-1.571Zm7.668-4.456v-2.093a.712.712,0,0,0-.054-.269l2.386,3.51a14.366,14.366,0,0,0-1.735-.33,2.486,2.486,0,0,0-.6-.817Zm-2.733,1.839a1.117,1.117,0,0,1,.488-.891.739.739,0,0,0,.327-.6v-1.728h.49v1.728a.722.722,0,0,0,.327.6,1.117,1.117,0,0,1,.486.891,1.021,1.021,0,0,1-.061.3,1.059,1.059,0,0,1-2.058-.292Zm2.507-4.443a.707.707,0,0,0-.489-.2h-.269v-.907Zm-2.181-.2h-.227a.713.713,0,0,0-.713.714v2.092a2.473,2.473,0,0,0-.6.82,14.334,14.334,0,0,0-1.768.333l3.3-4.839Zm6.9,4.6-5.466-8.044.008-4.558a1.279,1.279,0,0,1,1.927-1.1l3.535,2.071Zm-32.513-7.3h0v-1.658h0v-30.326l18.94,11.152h0l-.015,29.6h0a1.866,1.866,0,0,0-.162.62h0v.052c0,.044-.015.086-.015.135s.009.078.012.119v.02a1.869,1.869,0,0,0,.135.583c.011.027.019.054.031.081h0v.765h0v14.34h0l-18.917-11.145Zm32.517-5.981-2.814-1.648a2.707,2.707,0,0,0-4.074,2.328l-.008,4.586-5.266,7.71.014-27.825,12.154-7.154Zm-55.629,18.739,4.7,11.09a7.915,7.915,0,0,0,4.37,4.254l8.561,3.366a1.667,1.667,0,0,1,.485.308,1.618,1.618,0,0,1,.551,1.212v2.365a1.192,1.192,0,0,1-.583,1.019l-.134.077-14.51,8.543a.322.322,0,0,1-.441-.113.328.328,0,0,1-.044-.166v-1.624a3.033,3.033,0,0,0-.362-1.431c-.019-.036-.04-.07-.061-.105a3.061,3.061,0,0,0-1.519-1.32l-8.3-3.254a6.435,6.435,0,0,1-3.737-3.891l-3.977-11.5h0l-.238-.688-.238-.688-1.3-3.77a.8.8,0,0,0-.061-.135,2.714,2.714,0,0,1,.962-3.715l10.345-6.088a2.368,2.368,0,0,1,1.211-.337,2.432,2.432,0,0,1,1,.221,2.378,2.378,0,0,1,1.366,1.75.779.779,0,0,0,.044.151l1.329,3.133.281.664.282.662Zm-14.273,15.271.388,1.122-.729.417Zm76.659-6.559-5.338-3.144v-21.813l3.682,2.154a3.35,3.35,0,0,1,1.652,2.883Zm.713,10.233a.713.713,0,0,0,.713-.714v-4.243c.031.016.066.021.1.04l7.406,4.357.362-.615-.362.74-7.4,4.353a1.766,1.766,0,0,1-1.793,0l-7.406-4.36v-.125l7.391-4.352a1.615,1.615,0,0,1,.269-.113v4.309a.714.714,0,0,0,.7.726h.025Zm.713-9.4v-20.756a4.783,4.783,0,0,0-2.359-4.115l-4.4-2.58V1020.4a.722.722,0,0,0-.1-.357c-.02-.034-.06-.054-.084-.086a.73.73,0,0,0-.171-.174h0L3456.7,1007.8a.713.713,0,0,0-.725,0l-12.486,7.356.009-37.482,66.451,39.132-.016,70.3Z" transform="translate(-3367.372 -967.725)" fill="url(#a)"/><path d="M3401.488,1039.11h0a.715.715,0,0,0,.708,0h0l30.547-17.984a.715.715,0,0,0,.353-.615v-4a.7.7,0,0,0-.1-.355c-.019-.035-.058-.054-.083-.085a.655.655,0,0,0-.171-.175l-13.564-7.994a.713.713,0,0,0-.725,0l-30.565,17.982a.722.722,0,0,0-.162.164c-.03.034-.073.057-.094.1a.713.713,0,0,0-.1.355v4a.712.712,0,0,0,.352.615l13.583,7.994ZM3389.67,1026.5l29.157-17.156,12.159,7.166h0l-29.139,17.16h0l-7.213-4.25Zm42.011-8.74v2.34l-29.121,17.144v-2.336l6.572-3.87Zm-42.7,9.988,9.464,5.574,2.693,1.585v2.336l-12.154-7.155Z" transform="translate(-3360.384 -953.839)" fill="url(#b)"/><path d="M3391.4,1025.694h0a.715.715,0,0,0,.708,0h0l20.368-11.993a.714.714,0,0,0,.353-.615v-4a.714.714,0,0,0-.1-.355c-.02-.034-.058-.054-.083-.085a.685.685,0,0,0-.172-.175l-13.565-7.994a.713.713,0,0,0-.725,0L3377.8,1012.47a.665.665,0,0,0-.162.164c-.03.034-.073.057-.095.1a.718.718,0,0,0-.1.355v4a.713.713,0,0,0,.352.615l13.583,7.994Zm-11.818-12.61,18.978-11.165,12.159,7.166h0l-18.96,11.176h0l-11.317-6.667Zm31.83-.4-18.94,11.153V1021.5l18.94-11.157Zm-32.523,1.657,12.155,7.159v2.336l-12.155-7.155Z" transform="translate(-3363.879 -956.411)" fill="url(#c)"/><path d="M3441.658,1015.482l-16.046-9.075a.715.715,0,0,0-1.066.622v12.106a.714.714,0,0,0,.353.615l16.046,9.45a.714.714,0,0,0,1.077-.615V1016.1A.716.716,0,0,0,3441.658,1015.482Zm-15.685-7.225,8.348,4.713-8.348,4.916Zm.693,10.882,9.089-5.354,4.838,2.735v10.819Z" transform="translate(-3347.562 -954.354)" fill="url(#d)"/><path d="M3441.658,1026.573l-16.046-9.07a.715.715,0,0,0-1.066.622v12.106a.714.714,0,0,0,.353.615l16.046,9.448a.712.712,0,0,0,1.076-.614V1027.2A.72.72,0,0,0,3441.658,1026.573Zm-15.685-7.225,8.348,4.713-8.348,4.916Zm14.621,19.083-13.926-8.2,9.089-5.354,4.838,2.733Z" transform="translate(-3347.562 -950.509)" fill="url(#e)"/><path d="M3441.659,1037.663l-16.046-9.071a.7.7,0,0,0-.558-.038.709.709,0,0,0-.155.043.7.7,0,0,0-.324.5h0a.629.629,0,0,0-.031.113v12.106a.714.714,0,0,0,.353.615l16.047,9.449a.715.715,0,0,0,.979-.255.705.705,0,0,0,.1-.361v-11.391h0v-1.088A.716.716,0,0,0,3441.659,1037.663Zm-15.685-7.225,8.348,4.713-8.348,4.916Zm14.621,19.083-13.926-8.2,9.089-5.354,4.838,2.734Z" transform="translate(-3347.562 -946.662)" fill="url(#f)"/><path d="M3446.04,1067.838l-6.329-3.716-7.233-4.268a.835.835,0,0,0-.765,0l-13.555,7.994a.689.689,0,0,0-.156.158c-.031.035-.076.059-.1.1a.708.708,0,0,0-.07.259c0,.033-.027.062-.027.1l-.031,8.012a.715.715,0,0,0,.353.618l13.59,7.985a.714.714,0,0,0,1.077-.613l.019-7.579,6.06-3.579,6.436,3.782a.714.714,0,0,0,1.076-.613h0l.019-7.985a.7.7,0,0,0-.1-.368A.708.708,0,0,0,3446.04,1067.838Zm-1.078,7.381-4.682-2.751,4.7-2.772Zm-7.495-2.75-5.368,3.168-12.174-7.182,11.469-6.765.68-.4.035.022.712.417,6.243,3.668,5.2,3.061h-.011l-5.386,3.179-.7.415Zm-6.083,4.406-.015,6.329-12.165-7.147.024-6.357Z" transform="translate(-3349.907 -935.835)" fill="url(#g)"/></g></g><g transform="translate(-2868.375 1892.552)"><path d="M3531.98,1009.23a.814.814,0,0,0-.218-.222l-85.685-50.453h0a.784.784,0,0,0-.207-.054.794.794,0,0,0-.194-.052h-.008a.791.791,0,0,0-.194.052.8.8,0,0,0-.21.054h0l-85.726,50.471a.781.781,0,0,0-.187.188c-.034.038-.082.065-.106.108a.812.812,0,0,0-.11.408l-.024,91.748a.807.807,0,0,0,.11.408c.022.039.065.061.092.1a.8.8,0,0,0,.2.2l85.686,50.455h0a.822.822,0,0,0,.814,0h0l85.711-50.471a.8.8,0,0,0,.2-.207c.027-.034.069-.054.089-.09a.841.841,0,0,0,.11-.408l.022-91.748a.817.817,0,0,0-.111-.411C3532.037,1009.276,3532,1009.259,3531.98,1009.23Z" transform="translate(0 0)" fill="#fff"/><g transform="translate(3370.235 970.939)"><path d="M3518.015,1011.978a.689.689,0,0,0-.19-.194l-74.667-43.966h0a.654.654,0,0,0-.181-.047.731.731,0,0,0-.168-.046h-.008a.729.729,0,0,0-.168.046.661.661,0,0,0-.183.047h0l-74.7,43.981a.7.7,0,0,0-.163.164c-.03.034-.072.057-.093.094a.7.7,0,0,0-.1.356l-.021,79.951a.7.7,0,0,0,.1.355c.019.034.057.053.081.083a.68.68,0,0,0,.175.176l74.668,43.967h0a.711.711,0,0,0,.71,0h0l74.691-43.981a.7.7,0,0,0,.177-.181c.024-.03.061-.047.078-.079a.713.713,0,0,0,.1-.355l.019-79.951a.706.706,0,0,0-.1-.357C3518.064,1012.017,3518.033,1012,3518.015,1011.978Zm-1.286,79.964-.693.4-72.577,42.731h0v-6.341l67.19-39.559h0l.362-.213a.71.71,0,0,0,.25-.254.7.7,0,0,0,.1-.362v-.4h0l.015-71.14,3.7-2.18,1.66-.978h0l-.019,77.452v.842Zm-147.24.42-.693-.4v-.842l.021-77.453h0l5.36,3.156-.017,71.138h0v.4a.724.724,0,0,0,.353.615l.361.213h0l67.165,39.548v6.341h0l-65.91-38.806-6.64-3.9Zm72.591-122.681.713-.42h0l.714.42,14.828,8.731,57.719,33.987h0l-5.386,3.17h0l-67.162-39.551h0l-.349-.206a.719.719,0,0,0-.725,0l-.354.209h0l-67.19,39.562h0l-5.386-3.168h0Zm67.167,118.672-66.5,39.145-66.466-39.133h0l27.859-16.4h0l1.077,3.127-3.876,17.546a.714.714,0,0,0,.539.851.67.67,0,0,0,.155.017.713.713,0,0,0,.7-.56l2.619-11.849,1.616-.928,1.045,3.021a7.858,7.858,0,0,0,4.564,4.755l8.3,3.255a1.633,1.633,0,0,1,.726.574v12.964a.714.714,0,0,0,1.427,0v-8.766a1.641,1.641,0,0,0,1.515-.112l13.786-8.117v7.294a.714.714,0,0,0,1.427,0v-8.267a2.614,2.614,0,0,0,.712-1.779v-2.366a3.042,3.042,0,0,0-1.94-2.849l-8.561-3.366a6.481,6.481,0,0,1-3.578-3.483l-4.776-11.262h0l20.444-12.038h0v14.756a.713.713,0,0,0,.352.615l20.344,11.984h0a.715.715,0,0,0,.708,0h0l13.233-7.783h0l6.05,3.563h0v2.063a3.207,3.207,0,0,0-.994.372l-7.391,4.352a1.5,1.5,0,0,0,0,2.587l7.406,4.36h0a3.2,3.2,0,0,0,3.241,0l7.394-4.355a1.5,1.5,0,0,0,0-2.586l-7.406-4.357a3.228,3.228,0,0,0-.818-.337V1073.6h0l25.044,14.748Zm-133.642-71.537,66.466-39.14v21.665l-12.792-7.54a.712.712,0,0,0-.725,0l-20.384,11.992a.709.709,0,0,0-.162.164c-.029.034-.071.057-.094.1a.718.718,0,0,0-.1.355v4a.713.713,0,0,0,.352.615l13.583,7.994h0a.715.715,0,0,0,.708,0h0l19.593-11.537V1016.4h0v.615l-.008,30.953-20.981,12.37-1.227-2.892a3.834,3.834,0,0,0-5.7-2.531l-10.344,6.087a4.141,4.141,0,0,0-1.506,5.607l1.375,3.974-28.08,16.531Zm96.483,5.49-8.941,5.263h0l-18.958-11.164h0l12.157-7.162,18.978,11.158Zm3.917,45.66-.69.4h0l-11.474,6.747v-13.5h0v-.247a9.147,9.147,0,0,0,2.467.871,15.624,15.624,0,0,0,1.885.281h0c.539.047,1.077.076,1.616.076a12.7,12.7,0,0,0,6.186-1.347v5.867h0v.843Zm-66.066-63.555,18.976-11.158,12.159,7.166h0l-18.959,11.176h0l-11.317-6.667Zm-.693,1.248,12.155,7.159v2.335L3409.247,1008Zm13.583,7.159,18.938-11.157V1004l-18.938,11.152Zm41.017,46.781a.847.847,0,0,1-.144-.222.444.444,0,0,1-.037-.167h0a.639.639,0,0,1,.182-.389h0a2.164,2.164,0,0,1,.525-.424,8.646,8.646,0,0,1,3.027-.965,2.484,2.484,0,0,0,4.675.634,2.423,2.423,0,0,0,.208-.629,8.566,8.566,0,0,1,2.992.963c.453.277.7.563.7.808h0a.435.435,0,0,1-.036.167c-.309.771-2.671,1.795-6.119,1.795-3.123,0-5.351-.84-5.973-1.571Zm7.668-4.456v-2.093a.712.712,0,0,0-.054-.269l2.386,3.51a14.366,14.366,0,0,0-1.735-.33,2.486,2.486,0,0,0-.6-.817Zm-2.733,1.839a1.117,1.117,0,0,1,.488-.891.739.739,0,0,0,.327-.6v-1.728h.49v1.728a.722.722,0,0,0,.327.6,1.117,1.117,0,0,1,.486.891,1.021,1.021,0,0,1-.061.3,1.059,1.059,0,0,1-2.058-.292Zm2.507-4.443a.707.707,0,0,0-.489-.2h-.269v-.907Zm-2.181-.2h-.227a.713.713,0,0,0-.713.714v2.092a2.473,2.473,0,0,0-.6.82,14.334,14.334,0,0,0-1.768.333l3.3-4.839Zm6.9,4.6-5.466-8.044.008-4.558a1.279,1.279,0,0,1,1.927-1.1l3.535,2.071Zm-32.513-7.3h0v-1.658h0v-30.326l18.94,11.152h0l-.015,29.6h0a1.866,1.866,0,0,0-.162.62h0v.052c0,.044-.015.086-.015.135s.009.078.012.119v.02a1.869,1.869,0,0,0,.135.583c.011.027.019.054.031.081h0v.765h0v14.34h0l-18.917-11.145Zm32.517-5.981-2.814-1.648a2.707,2.707,0,0,0-4.074,2.328l-.008,4.586-5.266,7.71.014-27.825,12.154-7.154Zm-55.629,18.739,4.7,11.09a7.915,7.915,0,0,0,4.37,4.254l8.561,3.366a1.667,1.667,0,0,1,.485.308,1.618,1.618,0,0,1,.551,1.212v2.365a1.192,1.192,0,0,1-.583,1.019l-.134.077-14.51,8.543a.322.322,0,0,1-.441-.113.328.328,0,0,1-.044-.166v-1.624a3.033,3.033,0,0,0-.362-1.431c-.019-.036-.04-.07-.061-.105a3.061,3.061,0,0,0-1.519-1.32l-8.3-3.254a6.435,6.435,0,0,1-3.737-3.891l-3.977-11.5h0l-.238-.688-.238-.688-1.3-3.77a.8.8,0,0,0-.061-.135,2.714,2.714,0,0,1,.962-3.715l10.345-6.088a2.368,2.368,0,0,1,1.211-.337,2.432,2.432,0,0,1,1,.221,2.378,2.378,0,0,1,1.366,1.75.779.779,0,0,0,.044.151l1.329,3.133.281.664.282.662Zm-14.273,15.271.388,1.122-.729.417Zm76.659-6.559-5.338-3.144v-21.813l3.682,2.154a3.35,3.35,0,0,1,1.652,2.883Zm.713,10.233a.713.713,0,0,0,.713-.714v-4.243c.031.016.066.021.1.04l7.406,4.357.362-.615-.362.74-7.4,4.353a1.766,1.766,0,0,1-1.793,0l-7.406-4.36v-.125l7.391-4.352a1.615,1.615,0,0,1,.269-.113v4.309a.714.714,0,0,0,.7.726h.025Zm.713-9.4v-20.756a4.783,4.783,0,0,0-2.359-4.115l-4.4-2.58V1020.4a.722.722,0,0,0-.1-.357c-.02-.034-.06-.054-.084-.086a.73.73,0,0,0-.171-.174h0L3456.7,1007.8a.713.713,0,0,0-.725,0l-12.486,7.356.009-37.482,66.451,39.132-.016,70.3Z" transform="translate(-3367.372 -967.725)" fill="url(#a)"/><path d="M3401.488,1039.11h0a.715.715,0,0,0,.708,0h0l30.547-17.984a.715.715,0,0,0,.353-.615v-4a.7.7,0,0,0-.1-.355c-.019-.035-.058-.054-.083-.085a.655.655,0,0,0-.171-.175l-13.564-7.994a.713.713,0,0,0-.725,0l-30.565,17.982a.722.722,0,0,0-.162.164c-.03.034-.073.057-.094.1a.713.713,0,0,0-.1.355v4a.712.712,0,0,0,.352.615l13.583,7.994ZM3389.67,1026.5l29.157-17.156,12.159,7.166h0l-29.139,17.16h0l-7.213-4.25Zm42.011-8.74v2.34l-29.121,17.144v-2.336l6.572-3.87Zm-42.7,9.988,9.464,5.574,2.693,1.585v2.336l-12.154-7.155Z" transform="translate(-3360.384 -953.839)" fill="url(#b)"/><path d="M3391.4,1025.694h0a.715.715,0,0,0,.708,0h0l20.368-11.993a.714.714,0,0,0,.353-.615v-4a.714.714,0,0,0-.1-.355c-.02-.034-.058-.054-.083-.085a.685.685,0,0,0-.172-.175l-13.565-7.994a.713.713,0,0,0-.725,0L3377.8,1012.47a.665.665,0,0,0-.162.164c-.03.034-.073.057-.095.1a.718.718,0,0,0-.1.355v4a.713.713,0,0,0,.352.615l13.583,7.994Zm-11.818-12.61,18.978-11.165,12.159,7.166h0l-18.96,11.176h0l-11.317-6.667Zm31.83-.4-18.94,11.153V1021.5l18.94-11.157Zm-32.523,1.657,12.155,7.159v2.336l-12.155-7.155Z" transform="translate(-3363.879 -956.411)" fill="url(#c)"/><path d="M3441.658,1015.482l-16.046-9.075a.715.715,0,0,0-1.066.622v12.106a.714.714,0,0,0,.353.615l16.046,9.45a.714.714,0,0,0,1.077-.615V1016.1A.716.716,0,0,0,3441.658,1015.482Zm-15.685-7.225,8.348,4.713-8.348,4.916Zm.693,10.882,9.089-5.354,4.838,2.735v10.819Z" transform="translate(-3347.562 -954.354)" fill="url(#d)"/><path d="M3441.658,1026.573l-16.046-9.07a.715.715,0,0,0-1.066.622v12.106a.714.714,0,0,0,.353.615l16.046,9.448a.712.712,0,0,0,1.076-.614V1027.2A.72.72,0,0,0,3441.658,1026.573Zm-15.685-7.225,8.348,4.713-8.348,4.916Zm14.621,19.083-13.926-8.2,9.089-5.354,4.838,2.733Z" transform="translate(-3347.562 -950.509)" fill="url(#e)"/><path d="M3441.659,1037.663l-16.046-9.071a.7.7,0,0,0-.558-.038.709.709,0,0,0-.155.043.7.7,0,0,0-.324.5h0a.629.629,0,0,0-.031.113v12.106a.714.714,0,0,0,.353.615l16.047,9.449a.715.715,0,0,0,.979-.255.705.705,0,0,0,.1-.361v-11.391h0v-1.088A.716.716,0,0,0,3441.659,1037.663Zm-15.685-7.225,8.348,4.713-8.348,4.916Zm14.621,19.083-13.926-8.2,9.089-5.354,4.838,2.734Z" transform="translate(-3347.562 -946.662)" fill="url(#f)"/><path d="M3446.04,1067.838l-6.329-3.716-7.233-4.268a.835.835,0,0,0-.765,0l-13.555,7.994a.689.689,0,0,0-.156.158c-.031.035-.076.059-.1.1a.708.708,0,0,0-.07.259c0,.033-.027.062-.027.1l-.031,8.012a.715.715,0,0,0,.353.618l13.59,7.985a.714.714,0,0,0,1.077-.613l.019-7.579,6.06-3.579,6.436,3.782a.714.714,0,0,0,1.076-.613h0l.019-7.985a.7.7,0,0,0-.1-.368A.708.708,0,0,0,3446.04,1067.838Zm-1.078,7.381-4.682-2.751,4.7-2.772Zm-7.495-2.75-5.368,3.168-12.174-7.182,11.469-6.765.68-.4.035.022.712.417,6.243,3.668,5.2,3.061h-.011l-5.386,3.179-.7.415Zm-6.083,4.406-.015,6.329-12.165-7.147.024-6.357Z" transform="translate(-3349.907 -935.835)" fill="url(#g)"/></g></g><g transform="translate(-2980.375 2075.552)"><path d="M3531.98,1009.23a.814.814,0,0,0-.218-.222l-85.685-50.453h0a.784.784,0,0,0-.207-.054.794.794,0,0,0-.194-.052h-.008a.791.791,0,0,0-.194.052.8.8,0,0,0-.21.054h0l-85.726,50.471a.781.781,0,0,0-.187.188c-.034.038-.082.065-.106.108a.812.812,0,0,0-.11.408l-.024,91.748a.807.807,0,0,0,.11.408c.022.039.065.061.092.1a.8.8,0,0,0,.2.2l85.686,50.455h0a.822.822,0,0,0,.814,0h0l85.711-50.471a.8.8,0,0,0,.2-.207c.027-.034.069-.054.089-.09a.841.841,0,0,0,.11-.408l.022-91.748a.817.817,0,0,0-.111-.411C3532.037,1009.276,3532,1009.259,3531.98,1009.23Z" transform="translate(0 0)" fill="#fff"/><g transform="translate(3370.235 970.939)"><path d="M3518.015,1011.978a.689.689,0,0,0-.19-.194l-74.667-43.966h0a.654.654,0,0,0-.181-.047.731.731,0,0,0-.168-.046h-.008a.729.729,0,0,0-.168.046.661.661,0,0,0-.183.047h0l-74.7,43.981a.7.7,0,0,0-.163.164c-.03.034-.072.057-.093.094a.7.7,0,0,0-.1.356l-.021,79.951a.7.7,0,0,0,.1.355c.019.034.057.053.081.083a.68.68,0,0,0,.175.176l74.668,43.967h0a.711.711,0,0,0,.71,0h0l74.691-43.981a.7.7,0,0,0,.177-.181c.024-.03.061-.047.078-.079a.713.713,0,0,0,.1-.355l.019-79.951a.706.706,0,0,0-.1-.357C3518.064,1012.017,3518.033,1012,3518.015,1011.978Zm-1.286,79.964-.693.4-72.577,42.731h0v-6.341l67.19-39.559h0l.362-.213a.71.71,0,0,0,.25-.254.7.7,0,0,0,.1-.362v-.4h0l.015-71.14,3.7-2.18,1.66-.978h0l-.019,77.452v.842Zm-147.24.42-.693-.4v-.842l.021-77.453h0l5.36,3.156-.017,71.138h0v.4a.724.724,0,0,0,.353.615l.361.213h0l67.165,39.548v6.341h0l-65.91-38.806-6.64-3.9Zm72.591-122.681.713-.42h0l.714.42,14.828,8.731,57.719,33.987h0l-5.386,3.17h0l-67.162-39.551h0l-.349-.206a.719.719,0,0,0-.725,0l-.354.209h0l-67.19,39.562h0l-5.386-3.168h0Zm67.167,118.672-66.5,39.145-66.466-39.133h0l27.859-16.4h0l1.077,3.127-3.876,17.546a.714.714,0,0,0,.539.851.67.67,0,0,0,.155.017.713.713,0,0,0,.7-.56l2.619-11.849,1.616-.928,1.045,3.021a7.858,7.858,0,0,0,4.564,4.755l8.3,3.255a1.633,1.633,0,0,1,.726.574v12.964a.714.714,0,0,0,1.427,0v-8.766a1.641,1.641,0,0,0,1.515-.112l13.786-8.117v7.294a.714.714,0,0,0,1.427,0v-8.267a2.614,2.614,0,0,0,.712-1.779v-2.366a3.042,3.042,0,0,0-1.94-2.849l-8.561-3.366a6.481,6.481,0,0,1-3.578-3.483l-4.776-11.262h0l20.444-12.038h0v14.756a.713.713,0,0,0,.352.615l20.344,11.984h0a.715.715,0,0,0,.708,0h0l13.233-7.783h0l6.05,3.563h0v2.063a3.207,3.207,0,0,0-.994.372l-7.391,4.352a1.5,1.5,0,0,0,0,2.587l7.406,4.36h0a3.2,3.2,0,0,0,3.241,0l7.394-4.355a1.5,1.5,0,0,0,0-2.586l-7.406-4.357a3.228,3.228,0,0,0-.818-.337V1073.6h0l25.044,14.748Zm-133.642-71.537,66.466-39.14v21.665l-12.792-7.54a.712.712,0,0,0-.725,0l-20.384,11.992a.709.709,0,0,0-.162.164c-.029.034-.071.057-.094.1a.718.718,0,0,0-.1.355v4a.713.713,0,0,0,.352.615l13.583,7.994h0a.715.715,0,0,0,.708,0h0l19.593-11.537V1016.4h0v.615l-.008,30.953-20.981,12.37-1.227-2.892a3.834,3.834,0,0,0-5.7-2.531l-10.344,6.087a4.141,4.141,0,0,0-1.506,5.607l1.375,3.974-28.08,16.531Zm96.483,5.49-8.941,5.263h0l-18.958-11.164h0l12.157-7.162,18.978,11.158Zm3.917,45.66-.69.4h0l-11.474,6.747v-13.5h0v-.247a9.147,9.147,0,0,0,2.467.871,15.624,15.624,0,0,0,1.885.281h0c.539.047,1.077.076,1.616.076a12.7,12.7,0,0,0,6.186-1.347v5.867h0v.843Zm-66.066-63.555,18.976-11.158,12.159,7.166h0l-18.959,11.176h0l-11.317-6.667Zm-.693,1.248,12.155,7.159v2.335L3409.247,1008Zm13.583,7.159,18.938-11.157V1004l-18.938,11.152Zm41.017,46.781a.847.847,0,0,1-.144-.222.444.444,0,0,1-.037-.167h0a.639.639,0,0,1,.182-.389h0a2.164,2.164,0,0,1,.525-.424,8.646,8.646,0,0,1,3.027-.965,2.484,2.484,0,0,0,4.675.634,2.423,2.423,0,0,0,.208-.629,8.566,8.566,0,0,1,2.992.963c.453.277.7.563.7.808h0a.435.435,0,0,1-.036.167c-.309.771-2.671,1.795-6.119,1.795-3.123,0-5.351-.84-5.973-1.571Zm7.668-4.456v-2.093a.712.712,0,0,0-.054-.269l2.386,3.51a14.366,14.366,0,0,0-1.735-.33,2.486,2.486,0,0,0-.6-.817Zm-2.733,1.839a1.117,1.117,0,0,1,.488-.891.739.739,0,0,0,.327-.6v-1.728h.49v1.728a.722.722,0,0,0,.327.6,1.117,1.117,0,0,1,.486.891,1.021,1.021,0,0,1-.061.3,1.059,1.059,0,0,1-2.058-.292Zm2.507-4.443a.707.707,0,0,0-.489-.2h-.269v-.907Zm-2.181-.2h-.227a.713.713,0,0,0-.713.714v2.092a2.473,2.473,0,0,0-.6.82,14.334,14.334,0,0,0-1.768.333l3.3-4.839Zm6.9,4.6-5.466-8.044.008-4.558a1.279,1.279,0,0,1,1.927-1.1l3.535,2.071Zm-32.513-7.3h0v-1.658h0v-30.326l18.94,11.152h0l-.015,29.6h0a1.866,1.866,0,0,0-.162.62h0v.052c0,.044-.015.086-.015.135s.009.078.012.119v.02a1.869,1.869,0,0,0,.135.583c.011.027.019.054.031.081h0v.765h0v14.34h0l-18.917-11.145Zm32.517-5.981-2.814-1.648a2.707,2.707,0,0,0-4.074,2.328l-.008,4.586-5.266,7.71.014-27.825,12.154-7.154Zm-55.629,18.739,4.7,11.09a7.915,7.915,0,0,0,4.37,4.254l8.561,3.366a1.667,1.667,0,0,1,.485.308,1.618,1.618,0,0,1,.551,1.212v2.365a1.192,1.192,0,0,1-.583,1.019l-.134.077-14.51,8.543a.322.322,0,0,1-.441-.113.328.328,0,0,1-.044-.166v-1.624a3.033,3.033,0,0,0-.362-1.431c-.019-.036-.04-.07-.061-.105a3.061,3.061,0,0,0-1.519-1.32l-8.3-3.254a6.435,6.435,0,0,1-3.737-3.891l-3.977-11.5h0l-.238-.688-.238-.688-1.3-3.77a.8.8,0,0,0-.061-.135,2.714,2.714,0,0,1,.962-3.715l10.345-6.088a2.368,2.368,0,0,1,1.211-.337,2.432,2.432,0,0,1,1,.221,2.378,2.378,0,0,1,1.366,1.75.779.779,0,0,0,.044.151l1.329,3.133.281.664.282.662Zm-14.273,15.271.388,1.122-.729.417Zm76.659-6.559-5.338-3.144v-21.813l3.682,2.154a3.35,3.35,0,0,1,1.652,2.883Zm.713,10.233a.713.713,0,0,0,.713-.714v-4.243c.031.016.066.021.1.04l7.406,4.357.362-.615-.362.74-7.4,4.353a1.766,1.766,0,0,1-1.793,0l-7.406-4.36v-.125l7.391-4.352a1.615,1.615,0,0,1,.269-.113v4.309a.714.714,0,0,0,.7.726h.025Zm.713-9.4v-20.756a4.783,4.783,0,0,0-2.359-4.115l-4.4-2.58V1020.4a.722.722,0,0,0-.1-.357c-.02-.034-.06-.054-.084-.086a.73.73,0,0,0-.171-.174h0L3456.7,1007.8a.713.713,0,0,0-.725,0l-12.486,7.356.009-37.482,66.451,39.132-.016,70.3Z" transform="translate(-3367.372 -967.725)" fill="url(#a)"/><path d="M3401.488,1039.11h0a.715.715,0,0,0,.708,0h0l30.547-17.984a.715.715,0,0,0,.353-.615v-4a.7.7,0,0,0-.1-.355c-.019-.035-.058-.054-.083-.085a.655.655,0,0,0-.171-.175l-13.564-7.994a.713.713,0,0,0-.725,0l-30.565,17.982a.722.722,0,0,0-.162.164c-.03.034-.073.057-.094.1a.713.713,0,0,0-.1.355v4a.712.712,0,0,0,.352.615l13.583,7.994ZM3389.67,1026.5l29.157-17.156,12.159,7.166h0l-29.139,17.16h0l-7.213-4.25Zm42.011-8.74v2.34l-29.121,17.144v-2.336l6.572-3.87Zm-42.7,9.988,9.464,5.574,2.693,1.585v2.336l-12.154-7.155Z" transform="translate(-3360.384 -953.839)" fill="url(#b)"/><path d="M3391.4,1025.694h0a.715.715,0,0,0,.708,0h0l20.368-11.993a.714.714,0,0,0,.353-.615v-4a.714.714,0,0,0-.1-.355c-.02-.034-.058-.054-.083-.085a.685.685,0,0,0-.172-.175l-13.565-7.994a.713.713,0,0,0-.725,0L3377.8,1012.47a.665.665,0,0,0-.162.164c-.03.034-.073.057-.095.1a.718.718,0,0,0-.1.355v4a.713.713,0,0,0,.352.615l13.583,7.994Zm-11.818-12.61,18.978-11.165,12.159,7.166h0l-18.96,11.176h0l-11.317-6.667Zm31.83-.4-18.94,11.153V1021.5l18.94-11.157Zm-32.523,1.657,12.155,7.159v2.336l-12.155-7.155Z" transform="translate(-3363.879 -956.411)" fill="url(#c)"/><path d="M3441.658,1015.482l-16.046-9.075a.715.715,0,0,0-1.066.622v12.106a.714.714,0,0,0,.353.615l16.046,9.45a.714.714,0,0,0,1.077-.615V1016.1A.716.716,0,0,0,3441.658,1015.482Zm-15.685-7.225,8.348,4.713-8.348,4.916Zm.693,10.882,9.089-5.354,4.838,2.735v10.819Z" transform="translate(-3347.562 -954.354)" fill="url(#d)"/><path d="M3441.658,1026.573l-16.046-9.07a.715.715,0,0,0-1.066.622v12.106a.714.714,0,0,0,.353.615l16.046,9.448a.712.712,0,0,0,1.076-.614V1027.2A.72.72,0,0,0,3441.658,1026.573Zm-15.685-7.225,8.348,4.713-8.348,4.916Zm14.621,19.083-13.926-8.2,9.089-5.354,4.838,2.733Z" transform="translate(-3347.562 -950.509)" fill="url(#e)"/><path d="M3441.659,1037.663l-16.046-9.071a.7.7,0,0,0-.558-.038.709.709,0,0,0-.155.043.7.7,0,0,0-.324.5h0a.629.629,0,0,0-.031.113v12.106a.714.714,0,0,0,.353.615l16.047,9.449a.715.715,0,0,0,.979-.255.705.705,0,0,0,.1-.361v-11.391h0v-1.088A.716.716,0,0,0,3441.659,1037.663Zm-15.685-7.225,8.348,4.713-8.348,4.916Zm14.621,19.083-13.926-8.2,9.089-5.354,4.838,2.734Z" transform="translate(-3347.562 -946.662)" fill="url(#f)"/><path d="M3446.04,1067.838l-6.329-3.716-7.233-4.268a.835.835,0,0,0-.765,0l-13.555,7.994a.689.689,0,0,0-.156.158c-.031.035-.076.059-.1.1a.708.708,0,0,0-.07.259c0,.033-.027.062-.027.1l-.031,8.012a.715.715,0,0,0,.353.618l13.59,7.985a.714.714,0,0,0,1.077-.613l.019-7.579,6.06-3.579,6.436,3.782a.714.714,0,0,0,1.076-.613h0l.019-7.985a.7.7,0,0,0-.1-.368A.708.708,0,0,0,3446.04,1067.838Zm-1.078,7.381-4.682-2.751,4.7-2.772Zm-7.495-2.75-5.368,3.168-12.174-7.182,11.469-6.765.68-.4.035.022.712.417,6.243,3.668,5.2,3.061h-.011l-5.386,3.179-.7.415Zm-6.083,4.406-.015,6.329-12.165-7.147.024-6.357Z" transform="translate(-3349.907 -935.835)" fill="url(#g)"/></g></g></g></svg>