<svg xmlns="http://www.w3.org/2000/svg" width="195" height="195.001" viewBox="0 0 195 195.001"><g transform="translate(-595 -2071.659)"><path d="M28.049,12.956V15.01h8.565v3.985H23.447V3.672H36.4V7.657H28.049V9.588h7.2v3.368Zm15.479-2.234v4.12h-6.7v-4.12Zm8.026,3.716,4.041.079a4.482,4.482,0,0,1-1.325,3.154,5.823,5.823,0,0,1-2.11,1.28,6.79,6.79,0,0,1-2.3.393,5.831,5.831,0,0,1-4.647-2.032,5.638,5.638,0,0,1-1.426-3.839,5.763,5.763,0,0,1,1.055-3.39A5.65,5.65,0,0,1,47.2,8.162a6.85,6.85,0,0,1,2.8-.55,5.613,5.613,0,0,1,4.434,1.774A4.977,4.977,0,0,1,55.6,12.058l-4.041.079q-.281-1.616-1.661-1.616a1.516,1.516,0,0,0-1.414.819,4.457,4.457,0,0,0-.471,2.189,4.434,4.434,0,0,0,.37,1.92,1.616,1.616,0,0,0,1.549.977,1.44,1.44,0,0,0,1.392-.943A3.315,3.315,0,0,0,51.555,14.437ZM62.118,7.612a6.6,6.6,0,0,1,3.154.8A5.315,5.315,0,0,1,67.6,10.834a5.979,5.979,0,0,1,.584,2.649A5.554,5.554,0,0,1,66.5,17.659a5.871,5.871,0,0,1-2.144,1.291,6.886,6.886,0,0,1-2.312.393,6.716,6.716,0,0,1-3.233-.8,5.319,5.319,0,0,1-2.324-2.425,5.929,5.929,0,0,1-.584-2.627,5.491,5.491,0,0,1,1.684-4.2A6.369,6.369,0,0,1,62.118,7.612Zm-.1,2.907q-1.9,0-1.9,2.93,0,2.986,1.919,2.986t1.931-2.941Q63.97,10.52,62.017,10.52ZM72.872,7.96V9.577a3.777,3.777,0,0,1,3.457-1.964,3.448,3.448,0,0,1,3.379,1.964,4.341,4.341,0,0,1,.965-1.134A4.4,4.4,0,0,1,83.4,7.612a4.09,4.09,0,0,1,2.8.943,3.837,3.837,0,0,1,1.224,2.3,9.131,9.131,0,0,1,.1,1.437v6.7H83.345V13.259a5.03,5.03,0,0,0-.123-1.369,1.179,1.179,0,0,0-1.246-.8q-1.639,0-1.639,2.458v5.444H76.16V13.259a4.767,4.767,0,0,0-.135-1.369,1.149,1.149,0,0,0-1.235-.8q-1.65,0-1.65,2.458v5.444H68.965V7.96Zm19.565,0V9.577a3.777,3.777,0,0,1,3.457-1.964,3.448,3.448,0,0,1,3.379,1.964,4.341,4.341,0,0,1,.965-1.134,4.4,4.4,0,0,1,2.728-.831,4.09,4.09,0,0,1,2.8.943,3.837,3.837,0,0,1,1.224,2.3,9.131,9.131,0,0,1,.1,1.437v6.7H102.91V13.259a5.03,5.03,0,0,0-.123-1.369,1.179,1.179,0,0,0-1.246-.8q-1.639,0-1.639,2.458v5.444H95.726V13.259a4.767,4.767,0,0,0-.135-1.369,1.149,1.149,0,0,0-1.235-.8q-1.65,0-1.65,2.458v5.444H88.531V7.96Zm27.681,6.578H111.98a2.351,2.351,0,0,0,.427,1.066,2.105,2.105,0,0,0,1.774.819,1.8,1.8,0,0,0,1.616-.808h4.075a4.6,4.6,0,0,1-1.515,2.324,6.1,6.1,0,0,1-2.065,1.055,7.913,7.913,0,0,1-2.335.348,6.7,6.7,0,0,1-3.3-.808,5.249,5.249,0,0,1-2.357-2.761,6.38,6.38,0,0,1-.46-2.38,5.485,5.485,0,0,1,2.043-4.434,5.978,5.978,0,0,1,3.94-1.347,6.085,6.085,0,0,1,4.019,1.369A6.822,6.822,0,0,1,120.118,14.538Zm-4.266-2.3a2.19,2.19,0,0,0-.348-1.066,1.736,1.736,0,0,0-1.5-.718,1.917,1.917,0,0,0-1.527.662,2.2,2.2,0,0,0-.438,1.123ZM124.7,7.96V9.509a3.846,3.846,0,0,1,3.267-1.8,4.947,4.947,0,0,1,1.179.168v3.48a4.807,4.807,0,0,0-1.089-.146,2.771,2.771,0,0,0-2.514,1.156,3.715,3.715,0,0,0-.46,2.009v4.614H120.9V7.96Zm12.583,6.477,4.041.079A4.482,4.482,0,0,1,140,17.67a5.823,5.823,0,0,1-2.11,1.28,6.79,6.79,0,0,1-2.3.393,5.831,5.831,0,0,1-4.647-2.032,5.638,5.638,0,0,1-1.426-3.839,5.763,5.763,0,0,1,1.055-3.39,5.65,5.65,0,0,1,2.357-1.92,6.85,6.85,0,0,1,2.8-.55,5.613,5.613,0,0,1,4.434,1.774,4.977,4.977,0,0,1,1.167,2.672l-4.041.079Q137,10.52,135.62,10.52a1.516,1.516,0,0,0-1.414.819,4.457,4.457,0,0,0-.471,2.189,4.434,4.434,0,0,0,.37,1.92,1.616,1.616,0,0,0,1.549.977,1.44,1.44,0,0,0,1.392-.943A3.314,3.314,0,0,0,137.281,14.437Zm16.636.1h-8.138a2.351,2.351,0,0,0,.427,1.066,2.105,2.105,0,0,0,1.774.819,1.8,1.8,0,0,0,1.616-.808h4.075a4.6,4.6,0,0,1-1.515,2.324,6.1,6.1,0,0,1-2.065,1.055,7.913,7.913,0,0,1-2.335.348,6.7,6.7,0,0,1-3.3-.808,5.249,5.249,0,0,1-2.357-2.761,6.38,6.38,0,0,1-.46-2.38,5.485,5.485,0,0,1,2.043-4.434,5.978,5.978,0,0,1,3.94-1.347,6.085,6.085,0,0,1,4.019,1.369A6.822,6.822,0,0,1,153.917,14.538Zm-4.266-2.3a2.19,2.19,0,0,0-.348-1.066,1.736,1.736,0,0,0-1.5-.718,1.917,1.917,0,0,0-1.527.662,2.2,2.2,0,0,0-.438,1.123Z" transform="translate(635.901 2220.613)" fill="#fff"/><g transform="translate(632.81 2117.184)"><g transform="translate(28.782 12.702)"><path d="M1141.934,308.237h-53.18a2.62,2.62,0,0,1-2.544-2l-10.473-43.1a2.618,2.618,0,0,1,2.543-3.237h74.129a2.618,2.618,0,0,1,2.543,3.237l-10.473,43.1A2.619,2.619,0,0,1,1141.934,308.237ZM1090.813,303h49.063l9.2-37.86h-67.467Z" transform="translate(-1075.662 -259.904)" fill="#fff"/></g><g transform="translate(4.972 2.703)"><path d="M1147.766,320.622h-53.089a10.039,10.039,0,0,1-9.716-7.514l-13.749-52.914-.007-.027a2.826,2.826,0,0,0-2.747-2.147h-7.135a2.618,2.618,0,0,1,0-5.236h7.135a8.053,8.053,0,0,1,7.824,6.1l13.746,52.9a4.8,4.8,0,0,0,4.648,3.595h53.089a2.618,2.618,0,1,1,0,5.236Z" transform="translate(-1058.706 -252.784)" fill="#fff"/></g><g transform="translate(65.846 15.32)"><rect width="5.237" height="43.096" fill="#fff"/></g><g transform="translate(48.026 15.091)"><rect width="5.237" height="43.261" transform="translate(0 0.458) rotate(-5.014)" fill="#fff"/></g><g transform="translate(79.356 15.091)"><rect width="43.261" height="5.237" transform="translate(0 43.096) rotate(-84.986)" fill="#fff"/></g><g transform="translate(36.637 34.249)"><rect width="63.654" height="5.237" fill="#fff"/></g><g transform="translate(37.544 76.061)"><circle cx="8.327" cy="8.327" r="8.327" fill="#fff"/></g><circle cx="6.682" cy="6.682" r="6.682" fill="#fff"/><g transform="translate(74.701 76.061)"><circle cx="8.327" cy="8.327" r="8.327" fill="#fff"/></g></g><g transform="translate(595 2071.659)"><path d="M1125.741,413.44a97.475,97.475,0,1,1,80.847-42.987l-1.163-.786a96.034,96.034,0,1,0-29.6,28.3l.732,1.2A97.291,97.291,0,0,1,1125.741,413.44Z" transform="translate(-1028.24 -218.439)" fill="#fff"/></g></g></svg>