<svg xmlns="http://www.w3.org/2000/svg" width="83.584" height="87.543" viewBox="0 0 83.584 87.543"><g transform="translate(-1410.797 -124.161)"><path d="M1482.686,145.325a12.509,12.509,0,0,0-6.117,1.556v-8.542c0-4.283-3.77-8.068-10.614-10.659-5.994-2.268-13.9-3.519-22.273-3.519s-16.277,1.251-22.271,3.519c-6.844,2.591-10.614,6.377-10.614,10.659v59.187c0,4.283,3.77,8.068,10.614,10.659,5.994,2.27,13.9,3.519,22.271,3.519s16.279-1.249,22.273-3.519c6.844-2.591,10.614-6.377,10.614-10.659v-8.434a12.5,12.5,0,0,0,6.127,1.562,12.126,12.126,0,0,0,7.931-2.821,10.909,10.909,0,0,0,3.749-8.562V156.707C1494.376,149.235,1488.495,145.325,1482.686,145.325Zm-59.3-12.442c5.379-2.036,12.59-3.158,20.3-3.158s14.925,1.122,20.3,3.158c5.18,1.96,7.02,4.165,7.02,5.456s-1.839,3.494-7.02,5.456c-5.379,2.036-12.59,3.157-20.3,3.157s-14.923-1.121-20.3-3.157c-5.182-1.962-7.02-4.165-7.02-5.456s1.833-3.5,7.015-5.456Zm47.625,64.643c0,1.291-1.839,3.5-7.02,5.456-5.379,2.036-12.59,3.158-20.3,3.158s-14.923-1.122-20.3-3.158c-5.182-1.96-7.02-4.165-7.02-5.456v-51a27.677,27.677,0,0,0,5.05,2.468c5.994,2.268,13.9,3.517,22.271,3.517s16.279-1.249,22.273-3.517a27.642,27.642,0,0,0,5.05-2.468Zm17.807-18.255c0,4.594-3.844,5.82-6.117,5.82s-6.127-1.226-6.127-5.82V156.707c0-4.594,3.845-5.818,6.117-5.818s6.127,1.224,6.127,5.818Z" fill="#fff"/><path d="M1422.782,169.778a2.783,2.783,0,0,0-2.781,2.781v22.585a2.782,2.782,0,1,0,5.563.106c0-.035,0-.07,0-.106V172.559A2.782,2.782,0,0,0,1422.782,169.778Z" fill="#fff"/><path d="M1422.782,154.614A2.783,2.783,0,0,0,1420,157.4h0v5.732a2.782,2.782,0,1,0,5.563.106c0-.035,0-.07,0-.106V157.4a2.782,2.782,0,0,0-2.781-2.783Z" fill="#fff"/><path d="M1425.32,139.757a78.447,78.447,0,0,1,36.726,0c4.687,1.356,6.35,2.877,6.35,3.77s-1.664,2.414-6.35,3.768a78.369,78.369,0,0,1-36.726,0c-4.687-1.354-6.35-2.877-6.35-3.768S1420.634,141.113,1425.32,139.757Z" fill="#fff"/></g></svg>