<svg xmlns="http://www.w3.org/2000/svg" width="62.089" height="80.632" viewBox="0 0 62.089 80.632"><g transform="translate(-804.605 -409.384)"><path d="M821.579,427.557a5.665,5.665,0,1,1,5.665-5.665h0A5.672,5.672,0,0,1,821.579,427.557Zm0-8.028a2.362,2.362,0,1,0,2.362,2.362h0A2.365,2.365,0,0,0,821.579,419.529Z" fill="#fff"/><path d="M856.268,423.543H832.435a1.651,1.651,0,0,1,0-3.3h23.832a1.651,1.651,0,1,1,.115,3.3,1.1,1.1,0,0,1-.115,0Z" fill="#fff"/><path d="M856.267,434.886H818.334a1.651,1.651,0,0,1-.115-3.3c.039,0,.077,0,.115,0h37.933a1.651,1.651,0,1,1,.115,3.3C856.344,434.887,856.306,434.887,856.267,434.886Z" fill="#fff"/><path d="M856.267,443.3H818.334a1.651,1.651,0,0,1-.115-3.3c.039,0,.077,0,.115,0h37.933a1.651,1.651,0,1,1,.115,3.3C856.344,443.3,856.306,443.3,856.267,443.3Z" fill="#fff"/><path d="M856.267,451.7H818.334a1.651,1.651,0,0,1-.115-3.3c.038,0,.077,0,.115,0h37.933a1.651,1.651,0,0,1,.116,3.3A1.114,1.114,0,0,1,856.267,451.7Z" fill="#fff"/><path d="M856.267,460.114H818.334a1.651,1.651,0,0,1-.115-3.3c.038,0,.077,0,.115,0h37.933a1.651,1.651,0,0,1,.116,3.3A1.131,1.131,0,0,1,856.267,460.114Z" fill="#fff"/><path d="M856.268,468.524H836.584a1.651,1.651,0,0,1-.115-3.3c.038,0,.077,0,.115,0h19.683a1.651,1.651,0,0,1,.116,3.3,1.114,1.114,0,0,1-.116,0Z" fill="#fff"/><path d="M807.908,465.253V412.687h-.865a2.439,2.439,0,0,0-2.438,2.438h0v52.421a2.438,2.438,0,0,0,.714,1.723L825.352,489.3a2.44,2.44,0,0,0,1.724.714h33.878a2.437,2.437,0,0,0,2.438-2.438v-.863H829.369Z" fill="#fff"/><path d="M807.908,411.822v52.421a2.438,2.438,0,0,0,.714,1.724l20.747,20.747h34.887a2.437,2.437,0,0,0,2.438-2.438V411.822a2.438,2.438,0,0,0-2.438-2.438H810.344A2.438,2.438,0,0,0,807.908,411.822Zm55.481,71.589h-34.02v-15.72a2.439,2.439,0,0,0-2.438-2.438H811.209V412.687h52.18Z" fill="#fff"/></g></svg>