<svg xmlns="http://www.w3.org/2000/svg" width="240" height="254.343" viewBox="0 0 240 254.343"><g transform="translate(-912.491 -1750)"><path d="M.592,3.652H8.046A8.1,8.1,0,0,1,13.2,5.19q2.719,2.147,2.719,6.6a9.249,9.249,0,0,1-1.3,5.1,6.288,6.288,0,0,1-4.449,2.9,12.144,12.144,0,0,1-2.016.143H.592Zm4.83,4.234V15.7H7.2a4,4,0,0,0,2.278-.561,3.685,3.685,0,0,0,1.479-3.292A3.754,3.754,0,0,0,9.441,8.41a4.013,4.013,0,0,0-2.183-.525ZM21.2,8.208V19.932H16.764V8.208Zm0-4.556V6.812H16.764V3.652Zm.632,12.463h4.258a1.647,1.647,0,0,0,1.9,1.634,1.485,1.485,0,0,0,1.05-.334.933.933,0,0,0,.31-.716.824.824,0,0,0-.632-.811q-.322-.107-3.113-.656a4.824,4.824,0,0,1-2.66-1.264,3.135,3.135,0,0,1-.871-2.218,3.206,3.206,0,0,1,1.443-2.767,7.356,7.356,0,0,1,4.341-1.145,8.393,8.393,0,0,1,3.387.6,3.343,3.343,0,0,1,1.9,1.837,6.012,6.012,0,0,1,.286,1.372H29.275a1.569,1.569,0,0,0-.3-.763,1.545,1.545,0,0,0-1.228-.429,1.933,1.933,0,0,0-1.014.239.691.691,0,0,0-.358.608q0,.477.584.7a5.138,5.138,0,0,0,1.228.262q1.837.262,2.552.441a4.045,4.045,0,0,1,2.421,1.55,3.5,3.5,0,0,1,.632,2.051,3.242,3.242,0,0,1-1.455,2.815A7.626,7.626,0,0,1,27.856,20.3a8.148,8.148,0,0,1-3.912-.835,3.645,3.645,0,0,1-1.968-2.29A7.024,7.024,0,0,1,21.833,16.115ZM47.249,15.2H38.6a2.5,2.5,0,0,0,.453,1.133,2.237,2.237,0,0,0,1.884.871,1.909,1.909,0,0,0,1.717-.859h4.329a4.893,4.893,0,0,1-1.61,2.469,6.484,6.484,0,0,1-2.195,1.121,8.407,8.407,0,0,1-2.481.37,7.114,7.114,0,0,1-3.506-.859,5.577,5.577,0,0,1-2.5-2.934A6.779,6.779,0,0,1,34.2,13.98a5.827,5.827,0,0,1,2.171-4.711,6.352,6.352,0,0,1,4.186-1.431,6.465,6.465,0,0,1,4.27,1.455A7.249,7.249,0,0,1,47.249,15.2Zm-4.532-2.445a2.327,2.327,0,0,0-.37-1.133,1.845,1.845,0,0,0-1.6-.763,2.037,2.037,0,0,0-1.622.7,2.338,2.338,0,0,0-.465,1.193Zm9.518-4.544V9.9A5.32,5.32,0,0,1,53.5,8.542a4.566,4.566,0,0,1,2.6-.7A3.817,3.817,0,0,1,59.82,9.925a5.112,5.112,0,0,1,.5,2.373v7.633H55.884V13.217q0-1.682-1.479-1.682a1.864,1.864,0,0,0-1.193.417,2.4,2.4,0,0,0-.7,1.992v5.987H48.084V8.208Zm6.214-4.592A5.236,5.236,0,0,1,58.21,5.31a2.38,2.38,0,0,1-.93,1.217,2.528,2.528,0,0,1-1.455.429,3.151,3.151,0,0,1-1.276-.25l-1.324-.549a.767.767,0,0,0-.346-.072q-.644,0-.7.906H49.932a4.081,4.081,0,0,1,.417-1.956A2.308,2.308,0,0,1,52.473,3.6a2.831,2.831,0,0,1,1.193.262l1.121.513a1.445,1.445,0,0,0,.608.143q.644,0,.751-.906Zm9.267,4.222a7.016,7.016,0,0,1,3.351.847,5.648,5.648,0,0,1,2.469,2.576,6.353,6.353,0,0,1,.62,2.815,5.9,5.9,0,0,1-1.789,4.437,6.238,6.238,0,0,1-2.278,1.372,7.317,7.317,0,0,1-2.457.417,7.136,7.136,0,0,1-3.435-.847,5.651,5.651,0,0,1-2.469-2.576,6.3,6.3,0,0,1-.62-2.791A5.834,5.834,0,0,1,62.9,9.627,6.768,6.768,0,0,1,67.715,7.838Zm-.107,3.089q-2.016,0-2.016,3.113,0,3.173,2.039,3.173t2.051-3.125Q69.683,10.927,67.608,10.927ZM91.533,8.208l-3.614,10.71a8.558,8.558,0,0,1-2.361,4.007,3.862,3.862,0,0,1-2.4.739q-.286.012-1.1.012H79.7V20.242q1.05.024,1.145.024,1.4,0,1.4-.883a3.585,3.585,0,0,0-.286-1.181L78.163,8.208h4.651l2.039,7.24,2.039-7.24ZM13.282,28.078v16.28H9.1V43.01a4.568,4.568,0,0,1-1.157,1.121,4.6,4.6,0,0,1-2.433.6A4.542,4.542,0,0,1,1.677,43.01,7.123,7.123,0,0,1,.305,38.526a6.981,6.981,0,0,1,1.384-4.461,4.511,4.511,0,0,1,3.721-1.8,4.313,4.313,0,0,1,3.435,1.562V28.078Zm-6.5,7.514a1.678,1.678,0,0,0-1.55.883,4.22,4.22,0,0,0,.1,3.984,1.6,1.6,0,0,0,1.419.739,1.861,1.861,0,0,0,1.682-.954,3.646,3.646,0,0,0,.453-1.908,3.465,3.465,0,0,0-.429-1.861A1.815,1.815,0,0,0,6.781,35.592Zm20.395,4.031H18.529a2.5,2.5,0,0,0,.453,1.133,2.237,2.237,0,0,0,1.884.871,1.909,1.909,0,0,0,1.717-.859h4.329a4.893,4.893,0,0,1-1.61,2.469,6.484,6.484,0,0,1-2.195,1.121,8.407,8.407,0,0,1-2.481.37,7.114,7.114,0,0,1-3.506-.859,5.577,5.577,0,0,1-2.5-2.934,6.779,6.779,0,0,1-.489-2.528A5.827,5.827,0,0,1,16.3,33.7a6.352,6.352,0,0,1,4.186-1.431,6.465,6.465,0,0,1,4.27,1.455A7.249,7.249,0,0,1,27.176,39.623Zm-4.532-2.445a2.327,2.327,0,0,0-.37-1.133,1.845,1.845,0,0,0-1.6-.763,2.037,2.037,0,0,0-1.622.7,2.338,2.338,0,0,0-.465,1.193Zm4.866,3.363h4.258a1.647,1.647,0,0,0,1.9,1.634,1.485,1.485,0,0,0,1.05-.334.933.933,0,0,0,.31-.716.824.824,0,0,0-.632-.811q-.322-.107-3.113-.656a4.824,4.824,0,0,1-2.66-1.264,3.135,3.135,0,0,1-.871-2.218,3.206,3.206,0,0,1,1.443-2.767,7.356,7.356,0,0,1,4.341-1.145,8.393,8.393,0,0,1,3.387.6,3.343,3.343,0,0,1,1.9,1.837,6.012,6.012,0,0,1,.286,1.372H34.952a1.569,1.569,0,0,0-.3-.763,1.545,1.545,0,0,0-1.228-.429,1.933,1.933,0,0,0-1.014.239.691.691,0,0,0-.358.608q0,.477.584.7a5.138,5.138,0,0,0,1.228.262q1.837.262,2.552.441a4.045,4.045,0,0,1,2.421,1.55,3.5,3.5,0,0,1,.632,2.051,3.242,3.242,0,0,1-1.455,2.815,7.627,7.627,0,0,1-4.484,1.181,8.148,8.148,0,0,1-3.912-.835,3.645,3.645,0,0,1-1.968-2.29A7.024,7.024,0,0,1,27.51,40.541ZM44.446,36.57h-4.21a4.266,4.266,0,0,1,1.2-3.006,6.58,6.58,0,0,1,4.532-1.3q3.888,0,5.2,1.658a4.658,4.658,0,0,1,.775,2.946v5.081a4.336,4.336,0,0,0,.3,1.765,2.013,2.013,0,0,0,.549.644H48a3.878,3.878,0,0,1-.25-.7,3.586,3.586,0,0,1-.119-.632,4.26,4.26,0,0,1-1.145,1.1,5.008,5.008,0,0,1-2.588.608,4.478,4.478,0,0,1-3.149-1.061,3.025,3.025,0,0,1-.99-2.338,3.179,3.179,0,0,1,1.694-2.934,11.207,11.207,0,0,1,3.268-.942,10.474,10.474,0,0,0,2.373-.6.869.869,0,0,0,.489-.775.775.775,0,0,0-.167-.489,1.581,1.581,0,0,0-1.288-.453,1.986,1.986,0,0,0-1.4.441.956.956,0,0,0-.3.739Q44.434,36.426,44.446,36.57Zm3.184,2.278a3.537,3.537,0,0,1-.954.572,10.617,10.617,0,0,1-1.419.429,2.332,2.332,0,0,0-1.061.465.9.9,0,0,0-.274.656.882.882,0,0,0,.274.644,1.515,1.515,0,0,0,1.073.346,2.2,2.2,0,0,0,1.908-.871,2.761,2.761,0,0,0,.453-1.646Zm9.792-6.214V34.28a4.087,4.087,0,0,1,3.471-1.908,5.256,5.256,0,0,1,1.252.179v3.7a5.107,5.107,0,0,0-1.157-.155,2.944,2.944,0,0,0-2.672,1.228,3.947,3.947,0,0,0-.489,2.135v4.9H53.391V32.634Zm9.434,0V34.28a4.087,4.087,0,0,1,3.471-1.908,5.256,5.256,0,0,1,1.252.179v3.7a5.107,5.107,0,0,0-1.157-.155,2.944,2.944,0,0,0-2.672,1.228,3.947,3.947,0,0,0-.489,2.135v4.9H62.825V32.634Zm11.724-.37a7.016,7.016,0,0,1,3.351.847A5.648,5.648,0,0,1,84.4,35.687a6.353,6.353,0,0,1,.62,2.815,5.9,5.9,0,0,1-1.789,4.437,6.238,6.238,0,0,1-2.278,1.372,7.317,7.317,0,0,1-2.457.417,7.136,7.136,0,0,1-3.435-.847A5.651,5.651,0,0,1,72.593,41.3a6.3,6.3,0,0,1-.62-2.791,5.834,5.834,0,0,1,1.789-4.461A6.768,6.768,0,0,1,78.58,32.264Zm-.107,3.089q-2.016,0-2.016,3.113,0,3.173,2.039,3.173t2.051-3.125Q80.548,35.353,78.473,35.353Zm11.819-7.275v16.28H85.856V28.078Zm5.57,0v16.28H91.426V28.078Zm7.454,4.186a7.016,7.016,0,0,1,3.351.847,5.648,5.648,0,0,1,2.469,2.576,6.353,6.353,0,0,1,.62,2.815,5.9,5.9,0,0,1-1.789,4.437,6.238,6.238,0,0,1-2.278,1.372,7.317,7.317,0,0,1-2.457.417,7.136,7.136,0,0,1-3.435-.847A5.651,5.651,0,0,1,97.329,41.3a6.3,6.3,0,0,1-.62-2.791A5.834,5.834,0,0,1,98.5,34.053,6.768,6.768,0,0,1,103.317,32.264Zm-.107,3.089q-2.016,0-2.016,3.113,0,3.173,2.039,3.173t2.051-3.125Q105.284,35.353,103.209,35.353Zm23.746-7.275v16.28h-4.186V43.01a4.861,4.861,0,0,1-7.418,0,7.123,7.123,0,0,1-1.372-4.484,6.981,6.981,0,0,1,1.384-4.461,4.511,4.511,0,0,1,3.721-1.8,4.313,4.313,0,0,1,3.435,1.562V28.078Zm-6.5,7.514a1.678,1.678,0,0,0-1.55.883,4.22,4.22,0,0,0,.1,3.984,1.6,1.6,0,0,0,1.419.739,1.861,1.861,0,0,0,1.682-.954,3.646,3.646,0,0,0,.453-1.908,3.465,3.465,0,0,0-.429-1.861A1.815,1.815,0,0,0,120.455,35.592Zm20.395,4.031H132.2a2.5,2.5,0,0,0,.453,1.133,2.237,2.237,0,0,0,1.884.871,1.909,1.909,0,0,0,1.717-.859h4.329a4.893,4.893,0,0,1-1.61,2.469,6.484,6.484,0,0,1-2.195,1.121,8.407,8.407,0,0,1-2.481.37,7.115,7.115,0,0,1-3.506-.859,5.577,5.577,0,0,1-2.5-2.934,6.779,6.779,0,0,1-.489-2.528,5.827,5.827,0,0,1,2.171-4.711,6.352,6.352,0,0,1,4.186-1.431,6.465,6.465,0,0,1,4.27,1.455A7.249,7.249,0,0,1,140.85,39.623Zm-4.532-2.445a2.327,2.327,0,0,0-.37-1.133,1.845,1.845,0,0,0-1.6-.763,2.037,2.037,0,0,0-1.622.7,2.338,2.338,0,0,0-.465,1.193ZM14.093,57.286H9.25a2.239,2.239,0,0,0-.3-.751,2.093,2.093,0,0,0-1.765-.656,2.451,2.451,0,0,0-1.193.262.875.875,0,0,0-.5.787.772.772,0,0,0,.549.692,20.522,20.522,0,0,0,2,.584,32.312,32.312,0,0,1,3.542,1.05q3.184,1.36,3.184,4.365a4.853,4.853,0,0,1-1.181,3.208q-1.956,2.326-6.059,2.326a8.932,8.932,0,0,1-5.212-1.4A4.873,4.873,0,0,1,.1,63.512h4.95a3,3,0,0,0,.3.954,2.386,2.386,0,0,0,2.218.942,3.508,3.508,0,0,0,1.6-.322,1.017,1.017,0,0,0,.62-.942.865.865,0,0,0-.525-.823q-.25-.119-1.36-.465a44.879,44.879,0,0,1-4.437-1.443A4.363,4.363,0,0,1,.58,57.167a4.422,4.422,0,0,1,1.658-3.638,5.127,5.127,0,0,1,1.92-1,12.558,12.558,0,0,1,3.256-.394q3.912,0,5.582,2.051A5.709,5.709,0,0,1,14.093,57.286Zm7.729-.6a7.016,7.016,0,0,1,3.351.847,5.648,5.648,0,0,1,2.469,2.576,6.353,6.353,0,0,1,.62,2.815,5.9,5.9,0,0,1-1.789,4.437,6.238,6.238,0,0,1-2.278,1.372,7.317,7.317,0,0,1-2.457.417,7.136,7.136,0,0,1-3.435-.847,5.651,5.651,0,0,1-2.469-2.576,6.3,6.3,0,0,1-.62-2.791A5.834,5.834,0,0,1,17,58.479,6.768,6.768,0,0,1,21.821,56.69Zm-.107,3.089q-2.016,0-2.016,3.113,0,3.173,2.039,3.173t2.051-3.125Q23.789,59.779,21.714,59.779Zm13.012-.1v9.1H30.289v-9.1H28.655V57.06h1.634v-.549a4.412,4.412,0,0,1,.644-2.528,3.32,3.32,0,0,1,1.849-1.3,7.292,7.292,0,0,1,2.016-.227q.406,0,2.23.048v3.1q-.465-.048-.692-.048a1.773,1.773,0,0,0-1.312.358,1.214,1.214,0,0,0-.3.859v.286h2.3v2.624Zm8.587-6.4V57.06h2.123v2.624H43.313v4.365a1.437,1.437,0,0,0,.382,1.145,1.234,1.234,0,0,0,.775.239,6.253,6.253,0,0,0,.966-.107V68.7a18.317,18.317,0,0,1-3.017.274,3.313,3.313,0,0,1-3.184-1.527,3.547,3.547,0,0,1-.346-1.527q-.012-.286-.012-1.539v-4.7H37.242V57.06h1.634V53.279Zm22.41,3.781L62,68.784H57.47L55.7,61.962l-1.729,6.822H49.408L45.615,57.06h4.58L52,63.834l1.67-6.774h4.043l1.646,6.774,1.825-6.774ZM70.625,61h-4.21a4.266,4.266,0,0,1,1.2-3.006,6.58,6.58,0,0,1,4.532-1.3q3.888,0,5.2,1.658a4.658,4.658,0,0,1,.775,2.946v5.081a4.336,4.336,0,0,0,.3,1.765,2.013,2.013,0,0,0,.549.644H74.18a3.878,3.878,0,0,1-.25-.7,3.586,3.586,0,0,1-.119-.632,4.26,4.26,0,0,1-1.145,1.1,5.008,5.008,0,0,1-2.588.608,4.478,4.478,0,0,1-3.149-1.061,3.025,3.025,0,0,1-.99-2.338,3.179,3.179,0,0,1,1.694-2.934,11.207,11.207,0,0,1,3.268-.942,10.474,10.474,0,0,0,2.373-.6.869.869,0,0,0,.489-.775.775.775,0,0,0-.167-.489,1.581,1.581,0,0,0-1.288-.453,1.986,1.986,0,0,0-1.4.441.956.956,0,0,0-.3.739Q70.613,60.852,70.625,61Zm3.184,2.278a3.537,3.537,0,0,1-.954.572,10.615,10.615,0,0,1-1.419.429,2.332,2.332,0,0,0-1.061.465.9.9,0,0,0-.274.656.882.882,0,0,0,.274.644,1.515,1.515,0,0,0,1.073.346,2.2,2.2,0,0,0,1.908-.871,2.761,2.761,0,0,0,.453-1.646ZM83.6,57.06v1.646A4.087,4.087,0,0,1,87.072,56.8a5.256,5.256,0,0,1,1.252.179v3.7a5.107,5.107,0,0,0-1.157-.155A2.944,2.944,0,0,0,84.5,61.747a3.947,3.947,0,0,0-.489,2.135v4.9H79.57V57.06Zm18.176,6.989H93.131a2.5,2.5,0,0,0,.453,1.133,2.237,2.237,0,0,0,1.884.871,1.909,1.909,0,0,0,1.717-.859h4.329a4.893,4.893,0,0,1-1.61,2.469,6.484,6.484,0,0,1-2.195,1.121,8.407,8.407,0,0,1-2.481.37,7.114,7.114,0,0,1-3.506-.859,5.577,5.577,0,0,1-2.5-2.934,6.779,6.779,0,0,1-.489-2.528A5.827,5.827,0,0,1,90.9,58.121a6.352,6.352,0,0,1,4.186-1.431,6.465,6.465,0,0,1,4.27,1.455A7.249,7.249,0,0,1,101.778,64.049ZM97.246,61.6a2.327,2.327,0,0,0-.37-1.133,1.845,1.845,0,0,0-1.6-.763,2.037,2.037,0,0,0-1.622.7,2.338,2.338,0,0,0-.465,1.193Z" transform="translate(983.959 1935.189)" fill="#fff"/><g transform="translate(964.618 1798.346)"><g transform="translate(12.052 12.224)"><path d="M1323.567,175h-95.925a7.892,7.892,0,0,1-7.882-7.884V104.771a7.892,7.892,0,0,1,7.882-7.884h69.809a2.677,2.677,0,1,1,0,5.355h-69.809a2.532,2.532,0,0,0-2.527,2.529v62.345a2.531,2.531,0,0,0,2.527,2.529h95.925a2.532,2.532,0,0,0,2.529-2.529V127.06a2.677,2.677,0,1,1,5.355,0v40.056A7.893,7.893,0,0,1,1323.567,175Z" transform="translate(-1219.76 -96.887)" fill="#fff"/></g><g transform="translate(45.33 84.982)"><path d="M1287.2,164.939h-45.134l9.26-19.287h26.616Zm-36.623-5.355h28.113l-4.116-8.578h-19.878Z" transform="translate(-1242.064 -145.652)" fill="#fff"/></g><g transform="translate(26.468 98.81)"><path d="M1304.227,160.275c3.6,0,3.6,5.588,0,5.588h-66.751c-3.6,0-3.6-5.588,0-5.588h66.751m0-5.355h-66.751a8.149,8.149,0,0,0,0,16.3h66.751a8.149,8.149,0,0,0,0-16.3Z" transform="translate(-1229.422 -154.92)" fill="#fff"/></g><g transform="translate(14.729 71.486)"><rect width="106.336" height="16.173" fill="#fff"/></g><g transform="translate(89.224)"><g transform="translate(15.911)"><g transform="translate(4.912)"><path d="M1294.288,115.828a1.4,1.4,0,0,1-1.153-.6l-7.445-10.746a1.4,1.4,0,0,1,.027-1.634,35.413,35.413,0,0,1,8.322-7.99c7.43-5.149,16.2-7.25,23.456-5.617a1.4,1.4,0,0,1,1.082,1.561c-1.022,7.368-6.068,14.84-13.5,19.989h0a35.445,35.445,0,0,1-10.4,4.986A1.376,1.376,0,0,1,1294.288,115.828Zm-5.71-12.106,6.28,9.064a32.917,32.917,0,0,0,8.624-4.306h0c6.346-4.4,10.78-10.577,12.087-16.752-6.243-.944-13.586,1.035-19.932,5.432A32.9,32.9,0,0,0,1288.578,103.721Z" transform="translate(-1285.439 -88.694)" fill="#fff"/></g><g transform="translate(0 13.583)"><path d="M1288.294,112.466a23.085,23.085,0,0,1-5.052-.542,1.4,1.4,0,0,1-1.082-1.561,26.574,26.574,0,0,1,5.176-12,1.451,1.451,0,0,1,1.149-.565,1.4,1.4,0,0,1,1.13.6l7.447,10.747a1.4,1.4,0,0,1-.767,2.146A29.066,29.066,0,0,1,1288.294,112.466Zm-3.124-3.033a23.608,23.608,0,0,0,8.432-.354l-5.138-7.415A23.629,23.629,0,0,0,1285.17,109.433Z" transform="translate(-1282.147 -97.798)" fill="#fff"/></g></g><g transform="translate(32.573 7.459)"><path d="M1298.229,103.509a4.905,4.905,0,1,1,2.789-.873h0A4.884,4.884,0,0,1,1298.229,103.509Zm1.989-2.025h0Zm-2-4.985a2.1,2.1,0,1,0,1.2,3.832h0a2.1,2.1,0,0,0-.822-3.8A2.048,2.048,0,0,0,1298.217,96.5Z" transform="translate(-1293.315 -93.694)" fill="#fff"/></g><g transform="translate(6.647 8.773)"><path d="M1279.013,108.4a1.423,1.423,0,0,1-.251-.022,1.4,1.4,0,0,1-.9-.582l-1.673-2.414a1.4,1.4,0,0,1,.135-1.764l7.338-7.733a4.209,4.209,0,0,1,6.514.5l2.807,4.051a1.4,1.4,0,0,1-2.307,1.6l-2.8-4.051a1.405,1.405,0,0,0-2.174-.166l-6.553,6.905.225.325,6.15-4.261a1.4,1.4,0,0,1,1.952.354l1.889,2.729a1.4,1.4,0,1,1-2.305,1.6l-1.092-1.574-6.148,4.261A1.4,1.4,0,0,1,1279.013,108.4Z" transform="translate(-1275.939 -94.574)" fill="#fff"/><g transform="translate(11.413 15.106)"><path d="M1286.664,119.891a1.4,1.4,0,0,1-1.153-.6l-1.672-2.414a1.4,1.4,0,0,1,.354-1.952l6.15-4.261-1.09-1.574a1.4,1.4,0,1,1,2.305-1.6l1.89,2.727a1.4,1.4,0,0,1-.355,1.952l-6.149,4.26.224.325,8.767-3.709a1.406,1.406,0,0,0,.609-2.095l-2.807-4.049a1.4,1.4,0,1,1,2.305-1.6l2.807,4.049a4.208,4.208,0,0,1-1.82,6.274l-9.817,4.154A1.406,1.406,0,0,1,1286.664,119.891Z" transform="translate(-1283.588 -104.699)" fill="#fff"/></g></g><g transform="translate(13.19 18.955)"><path d="M1281.729,112.073a1.4,1.4,0,0,1-.8-2.556l11.356-7.869a1.4,1.4,0,0,1,1.6,2.305l-11.356,7.869A1.386,1.386,0,0,1,1281.729,112.073Z" transform="translate(-1280.323 -101.398)" fill="#fff"/></g><g transform="translate(0 20.867)"><path d="M1274.051,121c-.719,0-1.173-.033-1.274-.04a1.4,1.4,0,0,1-.974-2.289l5.605-6.826a1.4,1.4,0,0,1-.759-2.132,15.974,15.974,0,0,1,13.2-7.032,1.4,1.4,0,0,1-.121,2.8,13.132,13.132,0,0,0-9.291,3.988,1.4,1.4,0,0,1,.706,2.241l-5.253,6.4a26.152,26.152,0,0,0,4.88-.85c5.443-1.513,9.306-4.609,11.483-9.2a1.4,1.4,0,1,1,2.535,1.2C1289.672,120.065,1277.957,121,1274.051,121Z" transform="translate(-1271.483 -102.68)" fill="#fff"/></g></g><g transform="translate(0 39.32)"><path d="M1296.538,119.387c-7.937,4.246-15.961,8.34-24.131,12.157a252.365,252.365,0,0,1-25.051,10.28,115.046,115.046,0,0,1-13.1,3.691,59.792,59.792,0,0,1-6.786,1.064,31.774,31.774,0,0,1-6.981-.051,15.57,15.57,0,0,1-3.5-.871,9.3,9.3,0,0,1-3.2-1.995,7.042,7.042,0,0,1-1.885-3.379,8.935,8.935,0,0,1-.031-3.735,16.438,16.438,0,0,1,2.936-6.422,22.7,22.7,0,0,1,4.891-4.93.736.736,0,0,1,.891,1.173h0a21.117,21.117,0,0,0-4.413,4.713,14.728,14.728,0,0,0-2.465,5.783,7.01,7.01,0,0,0,.1,2.939,5.016,5.016,0,0,0,1.415,2.377,9.734,9.734,0,0,0,5.549,2.105,29.338,29.338,0,0,0,6.441-.149,57.227,57.227,0,0,0,6.467-1.209,111.938,111.938,0,0,0,12.667-3.973,248.711,248.711,0,0,0,24.4-10.857c7.97-4.011,15.808-8.3,23.56-12.745h0a2.305,2.305,0,1,1,2.293,4Z" transform="translate(-1211.682 -115.048)" fill="#fff"/></g><g transform="translate(6.724 49.214)"><path d="M1217.028,136.032a18.233,18.233,0,0,0,5.555.118c.94-.075,1.878-.261,2.817-.4l1.4-.289c.468-.09.934-.194,1.4-.318a91.644,91.644,0,0,0,10.947-3.509c1.785-.719,3.575-1.417,5.333-2.2,1.774-.748,3.515-1.573,5.262-2.383s3.464-1.69,5.2-2.532l5.135-2.662.028-.013a1.4,1.4,0,0,1,1.291,2.49l-.04.019-5.27,2.524c-1.78.8-3.54,1.632-5.335,2.4s-3.581,1.543-5.4,2.243c-1.8.74-3.648,1.394-5.48,2.065a93.4,93.4,0,0,1-11.292,3.232c-.477.11-.961.2-1.447.282l-1.455.252c-.982.118-1.955.278-2.948.328a19.573,19.573,0,0,1-6.014-.336.67.67,0,0,1,.291-1.309Z" transform="translate(-1216.189 -121.679)" fill="#fff"/></g><g transform="translate(59.779 39.088)"><path d="M1296.018,117.472c-3.467,2.248-6.968,4.24-10.535,6.189s-7.174,3.77-10.819,5.531c-3.658,1.732-7.33,3.433-11.057,5-1.85.813-3.735,1.549-5.6,2.322-1.874.755-3.766,1.468-5.646,2.2a.448.448,0,0,1-.343-.827l.01,0c1.845-.806,3.7-1.589,5.535-2.414,1.828-.843,3.672-1.649,5.48-2.53,3.645-1.705,7.226-3.539,10.787-5.4q5.32-2.833,10.5-5.9c3.433-2.052,6.866-4.2,10.082-6.465l.031-.024a1.4,1.4,0,1,1,1.619,2.293Z" transform="translate(-1251.748 -114.892)" fill="#fff"/></g></g><g transform="translate(912.491 1750)"><path d="M1231.365,276.931a120.01,120.01,0,1,1,155.076-20.924l-1.116-.991a118.454,118.454,0,1,0-153.148,20.664Z" transform="translate(-1176.745 -56.291)" fill="#fff"/></g></g></svg>