<svg xmlns="http://www.w3.org/2000/svg" width="71.04" height="91.265" viewBox="0 0 71.04 91.265"><g transform="translate(-1116.351 -123.024)"><path d="M1187.391,201.216V136.855a3.625,3.625,0,0,0-3.624-3.626h-44.244a11.642,11.642,0,0,0-12.447-10.17,11.93,11.93,0,0,0-10.724,12.039v67.556a11.635,11.635,0,0,0,11.634,11.635h48.272a2.188,2.188,0,0,0,0-4.375h-47.92a7.486,7.486,0,0,1-7.607-7.363c0-.049,0-.1,0-.148a7.27,7.27,0,0,1,7-7,7.489,7.489,0,0,1,7.514,7.464c0,.049,0,.1,0,.146v1.826h48.522A3.624,3.624,0,0,0,1187.391,201.216Zm-4.374-.748h-43.4V137.6h43.4Zm-55.034-9.448a11.578,11.578,0,0,0-7.26,2.559v-58.92a7.26,7.26,0,0,1,14.521,0v58.92a11.578,11.578,0,0,0-7.26-2.559Z" fill="#fff"/><path d="M1144.917,162.429c.009.047.021.093.034.139s.026.089.042.132a1.6,1.6,0,0,0,.071.151c.014.026.023.054.038.08l.017.02a1.505,1.505,0,0,0,.214.269c.017.017.037.028.054.043a1.461,1.461,0,0,0,.217.16c.031.018.06.034.091.049a1.341,1.341,0,0,0,.234.092.643.643,0,0,0,.085.026,1.413,1.413,0,0,0,.336.043h29.939a1.407,1.407,0,0,0,.336-.043c.029-.006.057-.017.086-.026a1.288,1.288,0,0,0,.232-.092c.031-.015.06-.031.091-.049a1.417,1.417,0,0,0,.217-.16.573.573,0,0,0,.054-.043,1.438,1.438,0,0,0,.216-.269l.015-.02c.017-.026.025-.054.039-.08a1.209,1.209,0,0,0,.071-.151,1.015,1.015,0,0,0,.042-.132,1.344,1.344,0,0,0,.035-.139,1.453,1.453,0,0,0,.015-.16c0-.031.009-.06.009-.092V144.083c0-.031-.008-.06-.009-.091a1.513,1.513,0,0,0-.015-.162c-.009-.046-.022-.092-.035-.139a1.015,1.015,0,0,0-.042-.132,1.209,1.209,0,0,0-.071-.151.638.638,0,0,0-.039-.079l-.02-.021a1.274,1.274,0,0,0-.1-.132,1.112,1.112,0,0,0-.08-.1c-.032-.032-.069-.062-.1-.092a.941.941,0,0,0-.111-.092c-.039-.027-.075-.043-.112-.065a1.048,1.048,0,0,0-.132-.072c-.039-.017-.08-.028-.12-.042a1.214,1.214,0,0,0-.148-.046,1.1,1.1,0,0,0-.117-.017,1.239,1.239,0,0,0-.172-.018h-30.006a1.647,1.647,0,0,0-.171.017c-.04.006-.08.009-.119.018a1.273,1.273,0,0,0-.145.045c-.042.014-.085.026-.123.043s-.086.046-.129.071-.078.043-.115.068a1.06,1.06,0,0,0-.109.091,1.139,1.139,0,0,0-.106.092c-.028.032-.055.065-.08.1a1.652,1.652,0,0,0-.1.132l-.018.026c-.015.025-.025.052-.038.079a1.6,1.6,0,0,0-.071.151c-.017.045-.029.088-.042.132a1.225,1.225,0,0,0-.034.139c-.008.054-.014.108-.017.162,0,.031-.009.06-.009.091v18.094c0,.032.008.062.009.092C1144.9,162.327,1144.909,162.378,1144.917,162.429Zm29.912-2.837-10.692-6.461,10.688-6.462Zm-3.775,1.127h-19.472l9.737-5.884Zm-9.736-9.292-9.737-5.885h19.474Zm-2.82,1.7-10.692,6.461V146.669Z" fill="#fff"/><path d="M1146.349,172.165h29.939a1.458,1.458,0,1,0,0-2.916h-29.939a1.458,1.458,0,1,0,0,2.916Z" fill="#fff"/><path d="M1146.349,179.487h29.939a1.458,1.458,0,1,0,0-2.916h-29.939a1.458,1.458,0,1,0,0,2.916Z" fill="#fff"/><path d="M1146.349,186.808h29.939a1.458,1.458,0,1,0,0-2.916h-29.939a1.458,1.458,0,1,0,0,2.916Z" fill="#fff"/><path d="M1146.349,194.135h15.329a1.459,1.459,0,0,0,0-2.917h-15.329a1.459,1.459,0,0,0,0,2.917Z" fill="#fff"/></g></svg>