<svg xmlns="http://www.w3.org/2000/svg" xmlns:xlink="http://www.w3.org/1999/xlink" width="300" height="300" viewBox="0 0 300 300"><defs><clipPath id="a"><rect width="300" height="300" transform="translate(792 2318)" fill="#fff" stroke="#707070" stroke-width="1"/></clipPath><linearGradient id="b" x1="0.239" y1="0.45" x2="5.167" y2="3.171" gradientUnits="objectBoundingBox"><stop offset="0" stop-color="#44d4b6"/><stop offset="1" stop-color="#85cc55"/></linearGradient><linearGradient id="c" x1="-2.05" y1="0.092" x2="14.972" y2="2.813" xlink:href="#b"/><linearGradient id="d" x1="-1.057" y1="-0.283" x2="4.94" y2="2.485" xlink:href="#b"/><linearGradient id="e" x1="-5.239" y1="-0.417" x2="11.786" y2="2.304" xlink:href="#b"/><linearGradient id="f" x1="-3.242" y1="-0.678" x2="5.977" y2="2.145" xlink:href="#b"/><linearGradient id="g" x1="-2.575" y1="-1.354" x2="3.22" y2="2.201" xlink:href="#b"/><linearGradient id="h" x1="-9.836" y1="-1.152" x2="7.19" y2="1.569" xlink:href="#b"/><linearGradient id="i" x1="-0.614" y1="-0.015" x2="4.56" y2="2.706" xlink:href="#b"/><linearGradient id="j" x1="-1.703" y1="-0.878" x2="4.47" y2="2.781" xlink:href="#b"/><linearGradient id="k" x1="-7.006" y1="-0.7" x2="10.02" y2="2.021" xlink:href="#b"/><linearGradient id="l" x1="-7.94" y1="-0.849" x2="9.086" y2="1.872" xlink:href="#b"/><linearGradient id="m" x1="-2.904" y1="-1.12" x2="2.918" y2="1.54" xlink:href="#b"/><linearGradient id="n" x1="-11.19" y1="-1.368" x2="5.835" y2="1.353" xlink:href="#b"/><linearGradient id="o" x1="-4.419" y1="-2.35" x2="1.754" y2="1.313" xlink:href="#b"/><linearGradient id="p" x1="-5.063" y1="-2.131" x2="0.934" y2="0.636" xlink:href="#b"/></defs><g transform="translate(-792 -2318)" clip-path="url(#a)"><path d="M528.623,149.711,432.471,403.456h192.3Z" transform="translate(415.02 2190.255)" fill="none" stroke="#6dcf78" stroke-miterlimit="10" stroke-width="2"/><g transform="translate(821.546 2455.615)"><path d="M421.905,196.807h19.922q8.542,0,13.771,4.113,7.267,5.739,7.268,17.629,0,8.254-3.475,13.643a16.8,16.8,0,0,1-11.89,7.745,32.416,32.416,0,0,1-5.387.383h-20.21Zm12.909,11.318V229h4.749a10.7,10.7,0,0,0,6.09-1.5q3.952-2.678,3.954-8.8,0-6.6-4.049-9.179a10.721,10.721,0,0,0-5.835-1.4Z" transform="translate(-421.905 -196.807)" fill="url(#b)"/><path d="M451.368,196.807v8.447H439.507v-8.447Zm0,12.177V240.32H439.507V208.984Z" transform="translate(-396.284 -196.807)" fill="url(#c)"/><path d="M478.935,202.351v22.857a56.639,56.639,0,0,1-.287,6.055q-.7,7.2-5.068,10.267-3.7,2.611-11.095,2.613-8.254,0-11.986-3.826a11.961,11.961,0,0,1-3-6.026h11.158q1.083,2.136,4.079,2.136,2.965,0,4.017-1.847a11.021,11.021,0,0,0,.7-4.72v-.987a13.853,13.853,0,0,1-8.607,3.028,12.687,12.687,0,0,1-10.1-4.3q-3.473-3.985-3.475-10.424,0-8.162,4.879-12.688a11.754,11.754,0,0,1,8.288-3.124q6.693,0,9.722,5.26v-4.273Zm-16.7,7.936a5.5,5.5,0,0,0-4.081,1.689,6.512,6.512,0,0,0-1.753,4.815,6.971,6.971,0,0,0,1.817,5,5.533,5.533,0,0,0,8.383-.351,7.339,7.339,0,0,0,1.338-4.621,7.242,7.242,0,0,0-1.243-4.5A5.24,5.24,0,0,0,462.232,210.288Z" transform="translate(-387.894 -190.174)" fill="url(#d)"/><path d="M472.058,196.807v8.447H460.2v-8.447Zm0,12.177V240.32H460.2V208.984Z" transform="translate(-366.163 -196.807)" fill="url(#e)"/><path d="M482,197.651v10.1h5.672v7.013H482v11.667a3.837,3.837,0,0,0,1.019,3.06,3.289,3.289,0,0,0,2.073.638,16.672,16.672,0,0,0,2.581-.287v9.022a48.952,48.952,0,0,1-8.064.734q-6.247,0-8.511-4.081a9.467,9.467,0,0,1-.923-4.081c-.022-.508-.032-1.881-.032-4.111v-12.56h-4.369v-7.013h4.369v-10.1Z" transform="translate(-358.057 -195.579)" fill="url(#f)"/><path d="M487.722,212.871H476.469q.35-5.418,3.219-8.032,3.794-3.477,12.113-3.475,10.391,0,13.9,4.43,2.07,2.582,2.073,7.873v13.582a11.594,11.594,0,0,0,.8,4.717,5.358,5.358,0,0,0,1.468,1.721H497.221a10.473,10.473,0,0,1-.67-1.881,9.588,9.588,0,0,1-.317-1.689,11.354,11.354,0,0,1-3.062,2.932,13.367,13.367,0,0,1-6.917,1.626q-5.323,0-8.415-2.836a8.089,8.089,0,0,1-2.645-6.247,8.5,8.5,0,0,1,4.526-7.843q2.357-1.37,8.735-2.517,5.227-.958,6.343-1.6a2.317,2.317,0,0,0,1.309-2.07,2.082,2.082,0,0,0-.447-1.309,4.232,4.232,0,0,0-3.443-1.211,5.3,5.3,0,0,0-3.73,1.181,2.555,2.555,0,0,0-.8,1.974C487.688,212.392,487.7,212.616,487.722,212.871Zm8.511,6.087a9.374,9.374,0,0,1-2.551,1.53,27.863,27.863,0,0,1-3.794,1.149,6.222,6.222,0,0,0-2.836,1.243,2.394,2.394,0,0,0-.734,1.753,2.359,2.359,0,0,0,.734,1.721,4.045,4.045,0,0,0,2.868.926,5.89,5.89,0,0,0,5.1-2.328,7.378,7.378,0,0,0,1.213-4.4Z" transform="translate(-344.338 -190.174)" fill="url(#g)"/><path d="M501.89,196.807V240.32H490.032V196.807Z" transform="translate(-322.74 -196.807)" fill="url(#h)"/><path d="M429.038,216.3h21.484q6.568,0,9.6,1.562a10.925,10.925,0,0,1,6.024,9.817,8.9,8.9,0,0,1-5.26,8.479q7.172,3,7.173,10.679a12.137,12.137,0,0,1-3.507,8.8,13.818,13.818,0,0,1-8.7,3.954,49.029,49.029,0,0,1-5.228.223h-21.58Zm12.909,10.232v6.6h6.534a11.642,11.642,0,0,0,3.7-.383A2.768,2.768,0,0,0,454,229.881a2.98,2.98,0,0,0-2.166-3.06,11.609,11.609,0,0,0-3.286-.287Zm0,15.077v7.968h8.194a8.869,8.869,0,0,0,3.536-.476,3.505,3.505,0,0,0,2.009-3.475,3.6,3.6,0,0,0-3.219-3.858,14.358,14.358,0,0,0-2.613-.16Z" transform="translate(-411.522 -168.43)" fill="url(#i)"/><path d="M478.4,221.261V252.6H467.369v-4.56a12.858,12.858,0,0,1-4.334,4.241,11.712,11.712,0,0,1-5.579,1.338,13.376,13.376,0,0,1-6.534-1.626,8.937,8.937,0,0,1-4.589-6.026,27.516,27.516,0,0,1-.639-6.534V221.261h11.858v16.065a11.178,11.178,0,0,0,.511,4.081,3.449,3.449,0,0,0,3.475,2.1,4.969,4.969,0,0,0,4.079-1.849,3.919,3.919,0,0,0,.766-1.721,17.182,17.182,0,0,0,.16-2.615V221.261Z" transform="translate(-387.279 -161.212)" fill="url(#j)"/><path d="M472.09,216.3v8.447H460.232V216.3Zm0,12.177v31.336H460.232V228.479Z" transform="translate(-366.116 -168.43)" fill="url(#k)"/><path d="M478.153,216.3v43.513H466.3V216.3Z" transform="translate(-357.291 -168.43)" fill="url(#l)"/><path d="M506.726,216.3v43.513H495.539v-3.6a10.531,10.531,0,0,1-9.594,4.59q-6.7,0-10.235-4.59a19.046,19.046,0,0,1-3.664-11.986q0-7.238,3.7-11.924a12.064,12.064,0,0,1,9.948-4.813,11.523,11.523,0,0,1,9.179,4.177V216.3Zm-17.373,20.082a4.488,4.488,0,0,0-4.142,2.36,11.267,11.267,0,0,0,.255,10.647,4.264,4.264,0,0,0,3.791,1.974,4.971,4.971,0,0,0,4.5-2.549,9.741,9.741,0,0,0,1.211-5.1,9.247,9.247,0,0,0-1.147-4.973A4.859,4.859,0,0,0,489.353,236.384Z" transform="translate(-348.92 -168.43)" fill="url(#m)"/><path d="M499.248,216.3v8.447H487.39V216.3Zm0,12.177v31.336H487.39V228.479Z" transform="translate(-326.585 -168.43)" fill="url(#n)"/><path d="M504.546,221.848v4.526a14.23,14.23,0,0,1,3.379-3.634,12.213,12.213,0,0,1,6.949-1.881q7.105,0,9.945,5.579a13.675,13.675,0,0,1,1.338,6.343v20.4H514.3V235.236q0-4.494-3.954-4.494a4.979,4.979,0,0,0-3.187,1.115q-1.882,1.466-1.881,5.324v16H493.452V221.848Z" transform="translate(-317.761 -161.798)" fill="url(#o)"/><path d="M541.3,221.848V244.7a57.346,57.346,0,0,1-.285,6.056q-.7,7.2-5.068,10.264-3.7,2.615-11.094,2.615-8.258,0-11.986-3.826a11.941,11.941,0,0,1-3-6.026h11.156q1.083,2.136,4.081,2.136,2.965,0,4.017-1.849a11.008,11.008,0,0,0,.7-4.717v-.99a13.842,13.842,0,0,1-8.607,3.03,12.678,12.678,0,0,1-10.1-4.3q-3.477-3.985-3.475-10.424,0-8.159,4.877-12.688a11.765,11.765,0,0,1,8.288-3.124q6.7,0,9.724,5.26v-4.27Zm-16.7,7.936a5.49,5.49,0,0,0-4.079,1.689,6.5,6.5,0,0,0-1.756,4.813,6.966,6.966,0,0,0,1.817,5,5.535,5.535,0,0,0,8.383-.349,7.331,7.331,0,0,0,1.341-4.624,7.229,7.229,0,0,0-1.245-4.494A5.231,5.231,0,0,0,524.6,229.784Z" transform="translate(-297.108 -161.798)" fill="url(#p)"/></g></g></svg>