<svg xmlns="http://www.w3.org/2000/svg" xmlns:xlink="http://www.w3.org/1999/xlink" width="300" height="300" viewBox="0 0 300 300"><defs><clipPath id="a"><rect width="300" height="300" transform="translate(1301 2318)" fill="#fff" stroke="#707070" stroke-width="1"/></clipPath><linearGradient id="b" x1="-0.088" y1="-0.106" x2="2.526" y2="2.65" gradientUnits="objectBoundingBox"><stop offset="0" stop-color="#f99b55"/><stop offset="1" stop-color="#e91574"/></linearGradient><linearGradient id="c" x1="-0.824" y1="-0.709" x2="2.139" y2="2.238" xlink:href="#b"/><linearGradient id="d" x1="-1.124" y1="-1.521" x2="1.817" y2="2.242" xlink:href="#b"/><linearGradient id="e" x1="-1.566" y1="-2.069" x2="1.49" y2="1.695" xlink:href="#b"/><linearGradient id="f" x1="-1.907" y1="-2.57" x2="1.031" y2="1.193" xlink:href="#b"/><linearGradient id="g" x1="-1.296" y1="-0.869" x2="1.855" y2="2.012" xlink:href="#b"/><linearGradient id="h" x1="-4.749" y1="-1.25" x2="3.891" y2="1.631" xlink:href="#b"/><linearGradient id="i" x1="-2.563" y1="-1.481" x2="2.016" y2="1.392" xlink:href="#b"/><linearGradient id="j" x1="-3.102" y1="-1.842" x2="1.577" y2="1.146" xlink:href="#b"/></defs><g transform="translate(-1301 -2318)" clip-path="url(#a)"><path d="M586.415,492.5V267.431L781.368,379.964Z" transform="translate(781.932 2088.329)" fill="none" stroke="#ed386c" stroke-miterlimit="10" stroke-width="2"/><g transform="translate(1341.188 2429.082)"><g transform="translate(0 0)"><path d="M611.374,310.555H598.907a5.758,5.758,0,0,0-.769-1.932q-1.289-1.691-4.545-1.689a6.313,6.313,0,0,0-3.069.675,2.252,2.252,0,0,0-1.289,2.026,1.987,1.987,0,0,0,1.412,1.78,52.328,52.328,0,0,0,5.159,1.505,82.955,82.955,0,0,1,9.12,2.7q8.2,3.5,8.2,11.237a12.487,12.487,0,0,1-3.04,8.261q-5.035,5.985-15.6,5.987-8.258,0-13.417-3.593a12.543,12.543,0,0,1-5.712-10.932H588.1a7.745,7.745,0,0,0,.769,2.458q1.474,2.427,5.712,2.426a9.029,9.029,0,0,0,4.113-.83,2.614,2.614,0,0,0,1.6-2.426,2.231,2.231,0,0,0-1.351-2.119q-.645-.306-3.5-1.2a115.6,115.6,0,0,1-11.424-3.715q-7.429-3.286-7.431-10.932a11.384,11.384,0,0,1,4.268-9.366A13.208,13.208,0,0,1,585.8,298.3a32.327,32.327,0,0,1,8.381-1.014q10.071,0,14.37,5.282A14.709,14.709,0,0,1,611.374,310.555Z" transform="translate(-575.355 -297.29)" fill="url(#b)"/><path d="M602.276,303.02v3.715a14.156,14.156,0,0,1,2.888-2.826,10.767,10.767,0,0,1,6.323-1.842,11.814,11.814,0,0,1,9.582,4.238q3.746,4.453,3.745,12.035,0,6.91-3.163,10.994a12.111,12.111,0,0,1-10.193,4.82,11.038,11.038,0,0,1-5.834-1.505,10.243,10.243,0,0,1-2.7-2.485v12.894H591.5V303.02Zm5.589,8.381a4.437,4.437,0,0,0-3.715,1.874,8.853,8.853,0,0,0-1.444,5.434,8.485,8.485,0,0,0,1.321,5.036,4.752,4.752,0,0,0,4.084,2.119,4.357,4.357,0,0,0,4.145-2.426,9.713,9.713,0,0,0,1.044-4.666,8.639,8.639,0,0,0-1.719-5.712A4.648,4.648,0,0,0,607.865,311.4Z" transform="translate(-551.857 -290.337)" fill="url(#c)"/><path d="M617.609,313.152H606.77q.335-5.219,3.1-7.738,3.654-3.345,11.669-3.347,10.012,0,13.388,4.268,2,2.49,2,7.585V327a11.138,11.138,0,0,0,.766,4.543,5.189,5.189,0,0,0,1.414,1.66H626.759a10.115,10.115,0,0,1-.646-1.812,9.393,9.393,0,0,1-.307-1.628,11.033,11.033,0,0,1-2.947,2.826,12.9,12.9,0,0,1-6.665,1.564,11.531,11.531,0,0,1-8.106-2.733,7.785,7.785,0,0,1-2.549-6.019,8.185,8.185,0,0,1,4.361-7.553q2.273-1.319,8.413-2.424a26.912,26.912,0,0,0,6.112-1.537,2.238,2.238,0,0,0,1.257-2,1.991,1.991,0,0,0-.43-1.257,4.063,4.063,0,0,0-3.315-1.166,5.114,5.114,0,0,0-3.592,1.135,2.462,2.462,0,0,0-.769,1.906C617.577,312.692,617.587,312.906,617.609,313.152Zm8.2,5.864a9.059,9.059,0,0,1-2.456,1.476,27.144,27.144,0,0,1-3.654,1.1,5.994,5.994,0,0,0-2.733,1.2,2.3,2.3,0,0,0-.7,1.687,2.268,2.268,0,0,0,.7,1.66,3.91,3.91,0,0,0,2.765.889,5.671,5.671,0,0,0,4.911-2.242,7.1,7.1,0,0,0,1.167-4.236Z" transform="translate(-531.418 -290.337)" fill="url(#d)"/><path d="M640.781,320.737l11.055.214a12.263,12.263,0,0,1-3.624,8.629,15.92,15.92,0,0,1-5.773,3.5,18.615,18.615,0,0,1-6.294,1.073,15.95,15.95,0,0,1-12.713-5.557,15.421,15.421,0,0,1-3.9-10.5,15.773,15.773,0,0,1,2.885-9.272,15.458,15.458,0,0,1,6.448-5.25,18.732,18.732,0,0,1,7.647-1.505q7.831,0,12.128,4.852a13.626,13.626,0,0,1,3.195,7.308l-11.055.214q-.77-4.42-4.545-4.42a4.143,4.143,0,0,0-3.868,2.242,14.348,14.348,0,0,0-.277,11.237,4.425,4.425,0,0,0,4.238,2.672,3.943,3.943,0,0,0,3.809-2.578A9.133,9.133,0,0,0,640.781,320.737Z" transform="translate(-511.049 -290.337)" fill="url(#e)"/><path d="M666.63,321.012H644.367a6.429,6.429,0,0,0,1.169,2.917,5.752,5.752,0,0,0,4.85,2.242,4.915,4.915,0,0,0,4.423-2.21h11.146a12.586,12.586,0,0,1-4.145,6.355,16.734,16.734,0,0,1-5.65,2.888,21.681,21.681,0,0,1-6.387.95,18.321,18.321,0,0,1-9.027-2.21,14.36,14.36,0,0,1-6.448-7.553,17.444,17.444,0,0,1-1.26-6.51,15,15,0,0,1,5.589-12.128,16.346,16.346,0,0,1,10.778-3.686,16.651,16.651,0,0,1,10.994,3.747Q666.6,310.942,666.63,321.012Zm-11.667-6.294a6.006,6.006,0,0,0-.953-2.917,4.755,4.755,0,0,0-4.116-1.965,5.247,5.247,0,0,0-4.174,1.81,6.031,6.031,0,0,0-1.2,3.072Z" transform="translate(-491.393 -290.337)" fill="url(#f)"/><path d="M590.559,320.5v31.014H609.29v10.9H577.969V320.5Z" transform="translate(-571.55 -263.501)" fill="url(#g)"/><path d="M602.922,320.5v8.138H591.5V320.5Zm0,11.73v30.184H591.5V332.233Z" transform="translate(-551.856 -263.501)" fill="url(#h)"/><path d="M612.506,339.062V362.49H601.082V339.062h-4.206v-6.755h4.206v-1.412a11.358,11.358,0,0,1,1.658-6.51,8.554,8.554,0,0,1,4.759-3.347,18.817,18.817,0,0,1,5.191-.584q1.042,0,5.741.123v7.983q-1.2-.121-1.78-.123-2.549,0-3.379.923a3.126,3.126,0,0,0-.766,2.21v.737h5.925v6.755Z" transform="translate(-544.029 -263.574)" fill="url(#i)"/><path d="M622.032,321.316v9.734H627.5v6.755h-5.466v11.239a3.7,3.7,0,0,0,.982,2.947,3.177,3.177,0,0,0,2,.614,15.857,15.857,0,0,0,2.487-.277v8.69a47.109,47.109,0,0,1-7.77.707q-6.018,0-8.2-3.931a9.087,9.087,0,0,1-.891-3.929q-.03-.737-.032-3.961v-12.1H606.4V331.05h4.206v-9.734Z" transform="translate(-530.163 -262.318)" fill="url(#j)"/></g></g></g></svg>