<svg xmlns="http://www.w3.org/2000/svg" xmlns:xlink="http://www.w3.org/1999/xlink" width="300" height="300" viewBox="0 0 300 300"><defs><clipPath id="a"><rect width="300" height="300" transform="translate(254 2332)" fill="#fff" stroke="#707070" stroke-width="1"/></clipPath><linearGradient id="b" x1="-0.139" y1="0.109" x2="1.419" y2="1.903" gradientUnits="objectBoundingBox"><stop offset="0" stop-color="#29cedc"/><stop offset="1" stop-color="#1ea9ec"/></linearGradient><linearGradient id="c" x1="-1.277" y1="-0.247" x2="2.993" y2="1.548" xlink:href="#b"/><linearGradient id="d" x1="-0.624" y1="-0.465" x2="1.639" y2="1.325" xlink:href="#b"/><linearGradient id="e" x1="-0.597" y1="-1.258" x2="0.855" y2="1.087" xlink:href="#b"/><linearGradient id="f" x1="-0.529" y1="-0.846" x2="0.763" y2="0.87" xlink:href="#b"/><linearGradient id="g" x1="-1.73" y1="-1.337" x2="0.582" y2="0.524" xlink:href="#b"/><linearGradient id="h" x1="-1.217" y1="-1.865" x2="0.2" y2="0.024" xlink:href="#b"/><linearGradient id="i" x1="-4.999" y1="-1.811" x2="-0.729" y2="-0.017" xlink:href="#b"/><linearGradient id="j" x1="-1.674" y1="-2.995" x2="-0.222" y2="-0.651" xlink:href="#b"/></defs><g transform="translate(-254 -2332)" clip-path="url(#a)"><path d="M694.894,250.748,847.076,58.693,547.2,184.721Z" transform="translate(-293.003 2327.509)" fill="none" stroke="#1ea9ec" stroke-miterlimit="10" stroke-width="2"/><g transform="translate(323.341 2444.061)"><path d="M588.807,82.308v33.138H608.82v11.647H575.355V82.308Z" transform="translate(-575.355 -82.178)" fill="url(#b)"/><path d="M602.016,82.308V91h-12.2v-8.7Zm0,12.533v32.252h-12.2V94.841Z" transform="translate(-554.311 -82.178)" fill="url(#c)"/><path d="M612.257,102.138V127.17h-12.2V102.138h-4.5V94.919h4.5V93.411a12.14,12.14,0,0,1,1.773-6.957,9.131,9.131,0,0,1,5.083-3.575,20.084,20.084,0,0,1,5.545-.624q1.116,0,6.136.13v8.531c-.852-.086-1.488-.13-1.9-.13q-2.722,0-3.61.985a3.344,3.344,0,0,0-.82,2.362v.786h6.333v7.219Z" transform="translate(-545.95 -82.255)" fill="url(#d)"/><path d="M640.99,107.242H617.2a6.883,6.883,0,0,0,1.247,3.116,6.157,6.157,0,0,0,5.184,2.394,5.248,5.248,0,0,0,4.724-2.362h11.91a13.435,13.435,0,0,1-4.427,6.792,17.841,17.841,0,0,1-6.038,3.084,23.14,23.14,0,0,1-6.824,1.017,19.551,19.551,0,0,1-9.646-2.362,15.334,15.334,0,0,1-6.891-8.072,18.647,18.647,0,0,1-1.346-6.954,16.035,16.035,0,0,1,5.972-12.961A17.469,17.469,0,0,1,622.585,87a17.779,17.779,0,0,1,11.745,4Q640.956,96.482,640.99,107.242Zm-12.467-6.726a6.412,6.412,0,0,0-1.017-3.119,5.077,5.077,0,0,0-4.4-2.1,5.6,5.6,0,0,0-4.464,1.937,6.424,6.424,0,0,0-1.279,3.281Z" transform="translate(-532.064 -75.351)" fill="url(#e)"/><path d="M617.513,116.627H604.194a6.248,6.248,0,0,0-.82-2.068q-1.378-1.8-4.857-1.8a6.741,6.741,0,0,0-3.281.722,2.408,2.408,0,0,0-1.378,2.166,2.124,2.124,0,0,0,1.51,1.9,55.93,55.93,0,0,0,5.51,1.606,89.413,89.413,0,0,1,9.746,2.888q8.759,3.742,8.759,12.008a13.354,13.354,0,0,1-3.249,8.828q-5.381,6.394-16.666,6.4-8.829,0-14.338-3.838a13.4,13.4,0,0,1-6.1-11.681h13.616a8.22,8.22,0,0,0,.82,2.625q1.573,2.593,6.1,2.593a9.663,9.663,0,0,0,4.4-.887,2.8,2.8,0,0,0,1.707-2.593,2.382,2.382,0,0,0-1.444-2.264q-.689-.328-3.74-1.279a123.1,123.1,0,0,1-12.2-3.968q-7.941-3.51-7.941-11.681a12.166,12.166,0,0,1,4.56-10.007,14.109,14.109,0,0,1,5.285-2.755,34.519,34.519,0,0,1,8.955-1.083q10.763,0,15.355,5.643A15.687,15.687,0,0,1,617.513,116.627Z" transform="translate(-570.007 -52.855)" fill="url(#f)"/><path d="M612.324,103.735v10.4h5.839v7.217h-5.839v12.008a3.952,3.952,0,0,0,1.049,3.151,3.4,3.4,0,0,0,2.134.656,17.242,17.242,0,0,0,2.657-.295v9.285a50.358,50.358,0,0,1-8.3.754q-6.431,0-8.762-4.2a9.757,9.757,0,0,1-.95-4.2q-.033-.788-.034-4.233V121.354h-4.494v-7.217h4.494v-10.4Z" transform="translate(-545.853 -50.989)" fill="url(#g)"/><path d="M641.78,107.971l-9.94,29.462q-2.788,8.137-6.5,11.023a10.625,10.625,0,0,1-6.6,2.036q-.788.029-3.018.032h-6.5v-9.449q2.888.066,3.15.066,3.838,0,3.838-2.429a9.864,9.864,0,0,0-.788-3.249L605,107.971h12.8l5.609,19.915,5.611-19.915Z" transform="translate(-532.199 -44.823)" fill="url(#h)"/><path d="M632.815,102.867v44.785H620.608V102.867Z" transform="translate(-509.485 -52.252)" fill="url(#i)"/><path d="M662.435,127.8H638.647a6.858,6.858,0,0,0,1.247,3.119,6.15,6.15,0,0,0,5.184,2.394,5.246,5.246,0,0,0,4.722-2.362h11.912a13.475,13.475,0,0,1-4.43,6.792,17.887,17.887,0,0,1-6.038,3.084,23.131,23.131,0,0,1-6.824,1.017,19.585,19.585,0,0,1-9.646-2.362,15.352,15.352,0,0,1-6.89-8.072,18.651,18.651,0,0,1-1.343-6.954,16.03,16.03,0,0,1,5.969-12.961,17.475,17.475,0,0,1,11.517-3.936,17.78,17.78,0,0,1,11.745,4Q662.4,117.037,662.435,127.8Zm-12.467-6.726a6.412,6.412,0,0,0-1.019-3.116,5.077,5.077,0,0,0-4.4-2.1,5.605,5.605,0,0,0-4.462,1.935,6.437,6.437,0,0,0-1.282,3.281Z" transform="translate(-500.849 -45.425)" fill="url(#j)"/></g></g></svg>