<svg xmlns="http://www.w3.org/2000/svg" width="35" height="38" viewBox="0 0 38.223 41.198"><g transform="translate(0 0)"><path d="M34.207,7.536,22.755.992a8.505,8.505,0,0,0-7.585,0L3.867,7.536A8.481,8.481,0,0,0,0,14.08V27.317a8.481,8.481,0,0,0,3.867,6.544l11.452,6.544a8.505,8.505,0,0,0,7.585,0l11.452-6.544a8.481,8.481,0,0,0,3.867-6.544V14.08A9.081,9.081,0,0,0,34.207,7.536ZM31.977,18.1v10.56a5.015,5.015,0,0,1-5.057,5.057H11.155A5.015,5.015,0,0,1,6.1,28.656V12.742a5.015,5.015,0,0,1,5.057-5.057H27.068a5.015,5.015,0,0,1,5.057,5.057V18.1Z" transform="translate(0 -0.1)" fill="#fff"/><path d="M14.311,20.021a4.634,4.634,0,0,0,4.611-4.611,4.152,4.152,0,0,0-.892-2.677,4.542,4.542,0,0,0-7.436,0A4.152,4.152,0,0,0,9.7,15.411,4.634,4.634,0,0,0,14.311,20.021Z" transform="translate(4.727 5.114)" fill="#fff"/><path d="M20.962,11.613V7.3H16.5v4.313Z" transform="translate(8.04 3.408)" fill="#fff"/><path d="M23.2,14.777a7.139,7.139,0,1,1-14.278,0A8.422,8.422,0,0,1,9.369,12.1H5.8V22.66a2.507,2.507,0,0,0,2.528,2.528H24.242a2.507,2.507,0,0,0,2.528-2.528V12.1H22.9A16.389,16.389,0,0,1,23.2,14.777Z" transform="translate(2.826 5.747)" fill="#fff"/><path d="M20.367,7.3h.595v4.313H16.5V7.3Z" transform="translate(8.04 3.408)" fill="#fff"/><path d="M10.592,12.833a4.542,4.542,0,0,1,7.436,0,4.152,4.152,0,0,1,.892,2.677,4.611,4.611,0,1,1-9.221,0A4.152,4.152,0,0,1,10.592,12.833Z" transform="translate(4.727 5.163)" fill="#fff"/><path d="M26.622,22.808a2.507,2.507,0,0,1-2.528,2.528H8.328A2.507,2.507,0,0,1,5.8,22.808V12.249H9.667a7.007,7.007,0,0,0-.595,2.528,7.139,7.139,0,1,0,14.278,0,5.833,5.833,0,0,0-.595-2.677h3.867V22.808Z" transform="translate(2.826 5.747)" fill="#fff"/></g></svg>