<svg xmlns="http://www.w3.org/2000/svg" width="240.468" height="131.253" viewBox="0 0 240.468 131.253"><g transform="translate(45.136 47.111)"><path d="M327.744,203.19a3.035,3.035,0,0,1-2.772-1.793l-14.637-32.612a3.036,3.036,0,0,1,3.4-4.215l34.949,7.377a3.038,3.038,0,1,1-1.254,5.944l-29.1-6.144,12.19,27.16a3.039,3.039,0,0,1-2.77,4.283Z" transform="translate(-310.068 -164.504)" fill="#b2b4b3"/></g><g transform="translate(0 26.906)"><path d="M292.2,193.45a3.038,3.038,0,0,1-1.407-5.732l26.375-13.754-26.674-13.221a3.038,3.038,0,0,1,2.7-5.444l32.026,15.876a3.037,3.037,0,0,1,.057,5.414L293.6,193.1A3,3,0,0,1,292.2,193.45Z" transform="translate(-288.8 -154.983)" fill="#b2b4b3"/></g><g transform="translate(9.598)"><path d="M323.5,184.018a3.039,3.039,0,0,1-1.976-.73l-27.139-23.226a3.038,3.038,0,0,1,3.952-4.616l22.6,19.342,2.315-29.681a3.038,3.038,0,1,1,6.057.473l-2.78,35.636a3.04,3.04,0,0,1-3.028,2.8Z" transform="translate(-293.323 -142.305)" fill="#b2b4b3"/></g><g transform="translate(45.797 6.016)"><path d="M313.417,183.277a3.038,3.038,0,0,1-2.727-4.378l15.747-32.06a3.038,3.038,0,0,1,5.454,2.676l-13.113,26.7,29.325-5.14a3.038,3.038,0,1,1,1.048,5.985l-35.21,6.169A2.918,2.918,0,0,1,313.417,183.277Z" transform="translate(-310.38 -145.139)" fill="#b2b4b3"/></g><g transform="translate(9.003 49.362)"><path d="M325.505,207.356a3.038,3.038,0,0,1-3.033-2.916l-1.191-29.747-23.317,18.472a3.037,3.037,0,0,1-3.771-4.762l28-22.181a3.037,3.037,0,0,1,4.921,2.26l1.43,35.715a3.04,3.04,0,0,1-2.914,3.158C325.588,207.356,325.548,207.356,325.505,207.356Z" transform="translate(-293.042 -165.565)" fill="#b2b4b3"/></g><g transform="translate(101.918 26.049)"><path d="M365.595,163.826h-18.3v6.717h16.29v8.06h-16.29v15.45H336.824V154.87h28.771Z" transform="translate(-336.824 -154.252)" fill="#b2b4b3"/><path d="M389.815,194.052h-11.14l-3.134-8.228H363.449l-3.077,8.228H349.512l15.225-39.182h9.516Zm-24.63-16.458h8.508l-4.14-10.97Z" transform="translate(-322.585 -154.252)" fill="#b2b4b3"/><path d="M404.943,160.513l-5.821,6.829a13.3,13.3,0,0,0-9.346-3.75,10.292,10.292,0,0,0-7.755,3.107,12.42,12.42,0,0,0,0,16.176,10.292,10.292,0,0,0,7.755,3.107,13.3,13.3,0,0,0,9.346-3.75l5.821,6.884a23.109,23.109,0,0,1-15.5,5.879,20.956,20.956,0,0,1-14.972-5.626q-5.962-5.625-5.961-14.582t5.961-14.582a20.956,20.956,0,0,1,14.972-5.626A22.854,22.854,0,0,1,404.943,160.513Z" transform="translate(-301.272 -154.579)" fill="#b2b4b3"/><path d="M417.15,163.826H398.173v6.717h17.576v8.06H398.173V185.1H417.15v8.956H387.706V154.87H417.15Z" transform="translate(-279.723 -154.252)" fill="#b2b4b3"/></g><g transform="translate(101.746 74.955)"><path d="M342.558,178.5H337.7v3.671h4.491v.8H337.7v4.274h-.957v-9.556h5.815Z" transform="translate(-336.743 -177.545)" fill="#b2b4b3"/><path d="M341.354,187.25H340.4v-9.556h.957Z" transform="translate(-332.642 -177.545)" fill="#b2b4b3"/><path d="M349.639,187.25h-.724l-5.787-7.835v7.835h-.955v-9.556h.749l5.762,7.81v-7.81h.955Z" transform="translate(-330.649 -177.545)" fill="#b2b4b3"/><path d="M355.188,187.25h-1l-1.106-2.8h-4.546l-1.078,2.8h-1.01l3.782-9.556h1.159Zm-6.335-3.591h3.918l-1.952-5.036Z" transform="translate(-325.849 -177.545)" fill="#b2b4b3"/><path d="M358.787,187.25h-.724l-5.787-7.835v7.835h-.955v-9.556h.749l5.762,7.81v-7.81h.955Z" transform="translate(-320.383 -177.545)" fill="#b2b4b3"/><path d="M362.656,177.9a5.045,5.045,0,0,1,1.454.745l-.369.724a4.283,4.283,0,0,0-1.29-.635,5,5,0,0,0-1.507-.24,4.066,4.066,0,0,0-3,1.121,4.377,4.377,0,0,0,.009,5.868,4.083,4.083,0,0,0,3,1.121,4.585,4.585,0,0,0,2.784-.86l.369.736a5.192,5.192,0,0,1-1.447.724,5.268,5.268,0,0,1-1.651.274,5.186,5.186,0,0,1-3.754-1.367,5.187,5.187,0,0,1-.006-7.124A5.158,5.158,0,0,1,361,177.624,5.225,5.225,0,0,1,362.656,177.9Z" transform="translate(-315.315 -177.624)" fill="#b2b4b3"/><path d="M361.578,187.25h-.955v-9.556h.955Z" transform="translate(-309.945 -177.545)" fill="#b2b4b3"/><path d="M370.569,187.25h-1l-1.108-2.8H363.92l-1.078,2.8h-1.01l3.782-9.556h1.161Zm-6.335-3.591h3.918l-1.95-5.036Z" transform="translate(-308.588 -177.545)" fill="#b2b4b3"/><path d="M367.659,186.446h4.353v.8H366.7v-9.556h.957Z" transform="translate(-303.123 -177.545)" fill="#b2b4b3"/><path d="M379.452,187.25h-1l-1.106-2.8h-4.546l-1.08,2.8h-1.008l3.78-9.556h1.161Zm-6.333-3.591h3.918l-1.952-5.036Z" transform="translate(-298.617 -177.545)" fill="#b2b4b3"/><path d="M378.44,177.694A4.873,4.873,0,0,1,382,179.018a5.071,5.071,0,0,1,0,6.908,4.873,4.873,0,0,1-3.555,1.324h-2.854v-9.556Zm-1.9.806v7.946h1.9a3.846,3.846,0,0,0,2.852-1.1,4.324,4.324,0,0,0,0-5.747,3.846,3.846,0,0,0-2.852-1.1Z" transform="translate(-293.153 -177.545)" fill="#b2b4b3"/><path d="M384.017,187.25h-.983l-3.427-9.556h1l2.92,8.34,2.922-8.34h1.01Z" transform="translate(-288.64 -177.545)" fill="#b2b4b3"/><path d="M385.1,187.25h-.955v-9.556h.955Z" transform="translate(-283.543 -177.545)" fill="#b2b4b3"/><path d="M392.118,178.4l-.41.792a5.6,5.6,0,0,0-2.661-.681,2.868,2.868,0,0,0-1.66.429,1.412,1.412,0,0,0-.622,1.235,1.277,1.277,0,0,0,.391.97,3.139,3.139,0,0,0,1.208.628l1.706.533a4.833,4.833,0,0,1,1.823.942,2.025,2.025,0,0,1,.635,1.583,2.321,2.321,0,0,1-.915,1.938,3.884,3.884,0,0,1-2.445.711,6.75,6.75,0,0,1-3.629-1.025l.477-.736a5.833,5.833,0,0,0,3.139.874,2.947,2.947,0,0,0,1.749-.465,1.473,1.473,0,0,0,.641-1.256,1.343,1.343,0,0,0-.458-1.084,3.474,3.474,0,0,0-1.288-.635l-1.694-.505q-2.321-.7-2.322-2.472a2.226,2.226,0,0,1,.9-1.87,3.809,3.809,0,0,1,2.368-.681A6.557,6.557,0,0,1,392.118,178.4Z" transform="translate(-281.983 -177.624)" fill="#b2b4b3"/><path d="M397.894,179.069a4.9,4.9,0,0,1,0,6.963,4.959,4.959,0,0,1-7,0,4.9,4.9,0,0,1,0-6.963,4.965,4.965,0,0,1,7,0Zm-6.307.609a4.121,4.121,0,0,0,0,5.747,3.94,3.94,0,0,0,5.617.006,4.155,4.155,0,0,0,0-5.762,3.938,3.938,0,0,0-5.617.008Z" transform="translate(-277.609 -177.624)" fill="#b2b4b3"/><path d="M398.812,177.694a2.7,2.7,0,1,1,.191,5.393h-.166l2.759,4.081v.083h-1.01l-2.731-4.164h-1.8v4.164H395.1v-9.556Zm-2.757.806v3.782h2.757a1.625,1.625,0,0,0,1.254-.52,1.916,1.916,0,0,0,.48-1.35,1.989,1.989,0,0,0-.48-1.388,1.614,1.614,0,0,0-1.254-.524Z" transform="translate(-271.256 -177.545)" fill="#b2b4b3"/><path d="M405.351,178.4l-.41.792a5.6,5.6,0,0,0-2.661-.681,2.868,2.868,0,0,0-1.66.429,1.41,1.41,0,0,0-.62,1.235,1.268,1.268,0,0,0,.388.97,3.139,3.139,0,0,0,1.208.628l1.706.533a4.816,4.816,0,0,1,1.823.942,2.025,2.025,0,0,1,.635,1.583,2.321,2.321,0,0,1-.915,1.938,3.878,3.878,0,0,1-2.443.711,6.747,6.747,0,0,1-3.631-1.025l.477-.736a5.828,5.828,0,0,0,3.139.874,2.932,2.932,0,0,0,1.747-.465,1.47,1.47,0,0,0,.643-1.256,1.343,1.343,0,0,0-.458-1.084,3.467,3.467,0,0,0-1.29-.635l-1.691-.505q-2.32-.7-2.322-2.472a2.226,2.226,0,0,1,.9-1.87,3.809,3.809,0,0,1,2.368-.681A6.563,6.563,0,0,1,405.351,178.4Z" transform="translate(-267.133 -177.624)" fill="#b2b4b3"/></g><g transform="translate(7.222 106.931)"><g transform="translate(122.078)"><path d="M354.171,208.69a.887.887,0,1,1,.768.444.884.884,0,0,1-.768-.444m3.062-2.636c-.376-.683-1.823-.456-1.354.518a1.921,1.921,0,1,0,.98,1.7c.609.891,1.528-.248,1.127-.915.378-.282,1.106-.745,1.783-1.159.032-.494.053-.978.064-1.481-.811.456-2.012,1.082-2.6,1.337m9.586,2.96a.885.885,0,1,1,.444.119.886.886,0,0,1-.444-.119m-4.387-2.816c.677.414,1.4.876,1.783,1.159-.4.666.518,1.806,1.125.915a1.923,1.923,0,1,0,.983-1.7c.469-.974-.978-1.2-1.354-.518-.588-.255-1.791-.881-2.6-1.337.011.5.032.987.064,1.481m-2.218-8.635a.886.886,0,1,1,.885.887.884.884,0,0,1-.885-.887m-1.033,0a1.921,1.921,0,0,0,.938,1.651c-1.078.081-.55,1.447.229,1.432.081.715.123,2.358.123,3.262,0,3.351-.461,7.449-1.613,8.559a8.569,8.569,0,0,1-2.822-.325,8.162,8.162,0,0,1-2.723-1.246,6.349,6.349,0,0,0-2.112.626,27.374,27.374,0,0,0,4.213,3.007,28.063,28.063,0,0,0,5.685,2.483,28.532,28.532,0,0,0,5.685-2.483A27.5,27.5,0,0,0,371,211.524a6.365,6.365,0,0,0-2.112-.626,8.156,8.156,0,0,1-2.725,1.248,8.671,8.671,0,0,1-2.823.325c-1.152-1.112-1.613-5.21-1.613-8.561,0-.9.043-2.545.125-3.262.777.015,1.305-1.352.229-1.432a1.92,1.92,0,1,0-2.9-1.651m-3.771-2.727a27.14,27.14,0,0,0-4.991,3.684,27.42,27.42,0,0,0-.2,11.316,6.415,6.415,0,0,0,1.6-1.513,8.2,8.2,0,0,1,.28-2.984,8.718,8.718,0,0,1,1.131-2.606c1.263-.365,4.041.669,6.6,1.982.006-.276.009-.537.009-.811,0-.223,0-.492-.009-.781-2.156-1.462-4.073-3.118-4.359-4.274a8.693,8.693,0,0,1,1.691-2.281,8.269,8.269,0,0,1,2.443-1.736,6.333,6.333,0,0,0,.514-2.141,27.471,27.471,0,0,0-4.711,2.146m7.182,0a8.215,8.215,0,0,1,2.443,1.736,8.659,8.659,0,0,1,1.694,2.281c-.289,1.157-2.2,2.812-4.361,4.274,0,.289-.006.558-.006.781,0,.274,0,.535.009.811,2.559-1.314,5.337-2.347,6.6-1.982a8.665,8.665,0,0,1,1.133,2.606,8.243,8.243,0,0,1,.28,2.984,6.378,6.378,0,0,0,1.6,1.513,27.374,27.374,0,0,0-.2-11.316,27.071,27.071,0,0,0-4.991-3.684,27.459,27.459,0,0,0-4.709-2.146,6.377,6.377,0,0,0,.511,2.141" transform="translate(-349.727 -192.691)" fill="#b2b4b3"/><g transform="translate(27.612 7.167)"><path d="M362.738,200.958v-.028a4.859,4.859,0,0,1,9.718-.028c.015.015.015.015,0,.028a4.859,4.859,0,0,1-9.718.028m8.6,0v-.028a3.763,3.763,0,0,0-3.756-3.884,3.717,3.717,0,0,0-3.729,3.856v.028a3.76,3.76,0,0,0,3.756,3.884,3.716,3.716,0,0,0,3.729-3.856" transform="translate(-362.738 -196.068)" fill="#b2b4b3"/></g><path d="M367.889,196.143h1.076v8.425h5.361v.98h-6.437Z" transform="translate(-329.345 -188.817)" fill="#b2b4b3"/><g transform="translate(46.252 7.326)"><path d="M371.521,196.143h3.306a4.722,4.722,0,0,1,5.064,4.675v.028a4.742,4.742,0,0,1-5.064,4.7h-3.306Zm3.306,8.425a3.666,3.666,0,0,0,3.947-3.695v-.028a3.685,3.685,0,0,0-3.947-3.72H372.6v7.443Z" transform="translate(-371.521 -196.143)" fill="#b2b4b3"/></g><path d="M376.072,196.143h2.26l2.5,3.978,2.505-3.978H385.6v9.405h-2.081v-6.14l-2.683,4.017h-.053l-2.655-3.976v6.1h-2.056Z" transform="translate(-320.162 -188.817)" fill="#b2b4b3"/><g transform="translate(66.714 7.326)"><path d="M381.163,201.519v-5.376h2.1v5.323c0,1.53.775,2.324,2.054,2.324s2.054-.766,2.054-2.258v-5.388h2.1v5.308c0,2.848-1.621,4.247-4.179,4.247s-4.126-1.409-4.126-4.179" transform="translate(-381.163 -196.143)" fill="#b2b4b3"/></g><path d="M388.48,198.051h-2.9v-1.908h7.894v1.908h-2.9v7.5H388.48Z" transform="translate(-309.492 -188.817)" fill="#b2b4b3"/><g transform="translate(85.054 7.326)"><path d="M389.805,201.519v-5.376h2.1v5.323c0,1.53.775,2.324,2.054,2.324s2.054-.766,2.054-2.258v-5.388h2.1v5.308c0,2.848-1.619,4.247-4.181,4.247s-4.123-1.409-4.123-4.179" transform="translate(-389.805 -196.143)" fill="#b2b4b3"/></g><path d="M397.761,196.112h1.931l4.085,9.471h-2.192l-.872-2.109h-4.028l-.87,2.109h-2.137Zm2.2,5.535L398.7,198.6l-1.269,3.05Z" transform="translate(-300.404 -188.852)" fill="#b2b4b3"/><path d="M398.884,196.143h2.095v7.525h4.751v1.88h-6.846Z" transform="translate(-294.563 -188.817)" fill="#b2b4b3"/></g><g transform="translate(0 3.971)" opacity="0.7"><path d="M294.883,194.592h1.267l2.68,6.3h-1.439l-.571-1.4h-2.644l-.571,1.4h-1.4Zm1.447,3.68-.832-2.029-.83,2.029Z" transform="translate(-292.203 -194.528)" fill="#b2b4b3"/><path d="M295.462,197.813V197.8a3.209,3.209,0,0,1,3.279-3.234,3.43,3.43,0,0,1,2.455.857l-.866,1.046a2.3,2.3,0,0,0-1.634-.635,1.876,1.876,0,0,0-1.8,1.946v.019a1.872,1.872,0,0,0,1.893,1.982,2.194,2.194,0,0,0,1.295-.376v-.893H298.7v-1.186h2.714v2.714a4.056,4.056,0,0,1-2.67.991A3.129,3.129,0,0,1,295.462,197.813Z" transform="translate(-288.546 -194.562)" fill="#b2b4b3"/><path d="M298.893,194.613h4.716v1.225H300.26V197.1h2.948v1.224H300.26v1.312h3.393v1.225h-4.76Z" transform="translate(-284.695 -194.505)" fill="#b2b4b3"/><path d="M301.714,194.613h1.269l2.929,3.85v-3.85h1.358v6.252H306.1l-3.026-3.975v3.975h-1.358Z" transform="translate(-281.53 -194.505)" fill="#b2b4b3"/><path d="M304.91,197.813V197.8a3.177,3.177,0,0,1,3.26-3.234,3.226,3.226,0,0,1,2.464.966l-.874,1.01a2.3,2.3,0,0,0-1.6-.707,1.852,1.852,0,0,0-1.814,1.946v.019a1.858,1.858,0,0,0,1.814,1.965,2.259,2.259,0,0,0,1.643-.732l.874.883a3.19,3.19,0,0,1-2.562,1.116A3.156,3.156,0,0,1,304.91,197.813Z" transform="translate(-277.943 -194.562)" fill="#b2b4b3"/><path d="M308.177,194.613h1.375v6.252h-1.375Z" transform="translate(-274.277 -194.505)" fill="#b2b4b3"/><path d="M311.988,194.592h1.269l2.678,6.3H314.5l-.573-1.4h-2.642l-.573,1.4h-1.4Zm1.447,3.68-.832-2.029-.83,2.029Z" transform="translate(-273.005 -194.528)" fill="#b2b4b3"/><path d="M314.021,197.813V197.8a3.177,3.177,0,0,1,3.26-3.234,3.226,3.226,0,0,1,2.464.966l-.874,1.01a2.3,2.3,0,0,0-1.6-.707,1.852,1.852,0,0,0-1.815,1.946v.019a1.858,1.858,0,0,0,1.815,1.965,2.262,2.262,0,0,0,1.643-.732l.874.883a3.193,3.193,0,0,1-2.562,1.116A3.156,3.156,0,0,1,314.021,197.813Z" transform="translate(-267.719 -194.562)" fill="#b2b4b3"/><path d="M317.044,197.813V197.8a3.324,3.324,0,0,1,6.645-.019v.019a3.324,3.324,0,0,1-6.645.017Zm5.206,0V197.8a1.9,1.9,0,0,0-1.893-1.965,1.869,1.869,0,0,0-1.876,1.946v.019a1.9,1.9,0,0,0,1.893,1.965A1.871,1.871,0,0,0,322.25,197.813Z" transform="translate(-264.326 -194.562)" fill="#b2b4b3"/><path d="M320.753,194.613h1.481l1.645,2.644,1.643-2.644h1.483v6.252h-1.367v-4.081l-1.759,2.67h-.036l-1.742-2.644v4.056h-1.348Z" transform="translate(-260.164 -194.505)" fill="#b2b4b3"/><path d="M324.407,194.613h4.716v1.225h-3.349V197.1h2.948v1.224h-2.948v1.312h3.393v1.225h-4.76Z" transform="translate(-256.063 -194.505)" fill="#b2b4b3"/><path d="M327.228,194.613h2.859a2.493,2.493,0,0,1,1.821.632,1.961,1.961,0,0,1,.537,1.43v.019a1.943,1.943,0,0,1-1.339,1.938l1.526,2.233h-1.606l-1.339-2H328.6v2h-1.375ZM330,197.65c.671,0,1.053-.359,1.053-.885v-.017c0-.59-.41-.893-1.08-.893H328.6v1.8Z" transform="translate(-252.897 -194.505)" fill="#b2b4b3"/><path d="M330.142,197.813V197.8a3.177,3.177,0,0,1,3.26-3.234,3.226,3.226,0,0,1,2.464.966l-.874,1.01a2.3,2.3,0,0,0-1.6-.707,1.852,1.852,0,0,0-1.814,1.946v.019a1.858,1.858,0,0,0,1.814,1.965,2.262,2.262,0,0,0,1.643-.732l.874.883a3.19,3.19,0,0,1-2.561,1.116A3.156,3.156,0,0,1,330.142,197.813Z" transform="translate(-249.627 -194.562)" fill="#b2b4b3"/><path d="M333.409,194.613h1.375v6.252h-1.375Z" transform="translate(-245.961 -194.505)" fill="#b2b4b3"/><path d="M337.22,194.592h1.269l2.678,6.3h-1.437l-.573-1.4h-2.642l-.573,1.4h-1.4Zm1.447,3.68-.83-2.029-.832,2.029Z" transform="translate(-244.689 -194.528)" fill="#b2b4b3"/><path d="M338.12,194.613H339.5v5h3.117v1.252H338.12Z" transform="translate(-240.674 -194.505)" fill="#b2b4b3"/></g><g transform="translate(59.895 14.174)" opacity="0.7"><path d="M320.426,199.4h3.041v.645h-2.322v1.065H323.2v.645h-2.059v1.1H323.5v.643h-3.071Z" transform="translate(-320.426 -199.333)" fill="#b2b4b3"/><path d="M324.079,201.419l-1.437-2.016h.851l1.021,1.471,1.025-1.471h.826l-1.43,2,1.49,2.1h-.849l-1.08-1.553-1.084,1.553h-.826Z" transform="translate(-318.003 -199.333)" fill="#b2b4b3"/><path d="M324.976,201.5v-.013a2.076,2.076,0,0,1,2.116-2.12,2.139,2.139,0,0,1,1.607.639l-.463.533a1.627,1.627,0,0,0-1.148-.509,1.375,1.375,0,0,0-1.354,1.447v.011a1.386,1.386,0,0,0,1.354,1.46,1.615,1.615,0,0,0,1.178-.533l.463.469a2.119,2.119,0,0,1-1.666.726A2.063,2.063,0,0,1,324.976,201.5Z" transform="translate(-315.32 -199.37)" fill="#b2b4b3"/><path d="M327.555,199.4h.722v3.446h2.156v.656h-2.878Z" transform="translate(-312.426 -199.333)" fill="#b2b4b3"/><path d="M329.634,201.765V199.4h.721v2.332c0,.762.393,1.171,1.038,1.171s1.031-.386,1.031-1.142V199.4h.721v2.326a1.64,1.64,0,0,1-1.763,1.842A1.62,1.62,0,0,1,329.634,201.765Z" transform="translate(-310.093 -199.333)" fill="#b2b4b3"/><path d="M332.081,202.938l.433-.516a1.883,1.883,0,0,0,1.3.535c.446,0,.726-.206.726-.516v-.013c0-.293-.163-.452-.925-.626-.874-.212-1.367-.469-1.367-1.227v-.011a1.256,1.256,0,0,1,1.4-1.191,2.28,2.28,0,0,1,1.49.516l-.386.545a1.862,1.862,0,0,0-1.114-.422c-.422,0-.669.216-.669.486v.013c0,.316.187.456.972.645.868.21,1.32.52,1.32,1.2v.011c0,.768-.6,1.227-1.466,1.227A2.53,2.53,0,0,1,332.081,202.938Z" transform="translate(-307.347 -199.364)" fill="#b2b4b3"/><path d="M334.453,199.4h.722v4.1h-.722Z" transform="translate(-304.685 -199.333)" fill="#b2b4b3"/><path d="M335.6,199.4h.8l1.237,3.151,1.231-3.151h.781l-1.706,4.132h-.632Z" transform="translate(-303.399 -199.333)" fill="#b2b4b3"/><path d="M339.655,199.389h.668l1.806,4.132h-.762l-.418-.991h-1.94l-.422.991h-.739Zm1.031,2.5-.709-1.64-.7,1.64Z" transform="translate(-300.874 -199.349)" fill="#b2b4b3"/></g><line y2="24.321" transform="translate(111.993 0.001)" fill="#b2b4b3"/></g></svg>