<svg xmlns="http://www.w3.org/2000/svg" width="100.101" height="152.402" viewBox="0 0 100.101 152.402"><path d="M116.8,264.569v40.05h-6.976V260.887H126.83a21.772,21.772,0,0,1,7.484,1.29,15.648,15.648,0,0,1,6,3.8,15.653,15.653,0,0,1,5.955-3.8,21.68,21.68,0,0,1,7.528-1.29,22.341,22.341,0,0,1,6.346.9,16.882,16.882,0,0,1,5.4,2.661,13.584,13.584,0,0,1,3.765,4.313,11.694,11.694,0,0,1,1.408,5.761v30.1h-6.974V274.756a10.507,10.507,0,0,0-2.585-7.328q-2.588-2.86-7.365-2.859-4.868,0-7.45,2.859a10.507,10.507,0,0,0-2.585,7.328v29.863h-6.978V274.756a10.518,10.518,0,0,0-2.585-7.328q-2.581-2.86-7.367-2.859H116.8" transform="translate(-109.824 -165.685)" fill="#b1b3b3"/><path d="M155.885,260.886a20.332,20.332,0,0,1,6.27.98,16.2,16.2,0,0,1,5.366,2.861,13.565,13.565,0,0,1,3.648,4.584,12.227,12.227,0,0,1,1.175,6.074,10.15,10.15,0,0,1-1.6,5.173,13.11,13.11,0,0,1-3.687,3.685A19.055,19.055,0,0,1,162,286.593a32.9,32.9,0,0,1-5.725,1.214,32.182,32.182,0,0,1-5.681.2,25.111,25.111,0,0,1-4.9-.706v3.919a8.932,8.932,0,0,0,1.571,5.368,9.25,9.25,0,0,0,3.6,2.859,14.44,14.44,0,0,0,4.51,1.178q2.387.231,4.271.235h8.386v2.507a11.3,11.3,0,0,1-2.742.9,22.492,22.492,0,0,1-4.547.357H157.61a44.783,44.783,0,0,1-5.72-.432,20.337,20.337,0,0,1-6.235-1.842,13.452,13.452,0,0,1-4.975-4.112,11.532,11.532,0,0,1-1.957-7.328V278.442a20.165,20.165,0,0,1,1.173-6.978,16.319,16.319,0,0,1,3.37-5.564,15.432,15.432,0,0,1,5.373-3.682,18.612,18.612,0,0,1,7.247-1.332m9.876,14.108a10.593,10.593,0,0,0-.589-4.506,8.76,8.76,0,0,0-2.153-3.255,9.372,9.372,0,0,0-3.255-2,11.323,11.323,0,0,0-3.88-.665,9.5,9.5,0,0,0-7.447,3.057,11.4,11.4,0,0,0-2.744,7.917v8.071a44.538,44.538,0,0,0,7.917.078,22.576,22.576,0,0,0,6.233-1.332,10.411,10.411,0,0,0,4.193-2.822A7.361,7.361,0,0,0,165.762,274.994Z" transform="translate(-72.26 -165.687)" fill="#b1b3b3"/><path d="M111.517,282.739v7.7h-1.334v-8.4h3.266a4.136,4.136,0,0,1,1.438.248,2.964,2.964,0,0,1,1.152.731,3.061,3.061,0,0,1,1.145-.731,4.123,4.123,0,0,1,1.447-.248,4.274,4.274,0,0,1,1.217.172,3.274,3.274,0,0,1,1.04.511,2.575,2.575,0,0,1,.722.83,2.238,2.238,0,0,1,.274,1.109v5.782H120.54v-5.743a2.016,2.016,0,0,0-.492-1.4,1.823,1.823,0,0,0-1.417-.55,1.843,1.843,0,0,0-1.433.55,2.016,2.016,0,0,0-.492,1.4v5.743h-1.343v-5.743a2,2,0,0,0-.5-1.4,1.817,1.817,0,0,0-1.417-.55h-1.932" transform="translate(-109.357 -138.198)" fill="#b1b3b3"/><path d="M118.527,282.552a3.411,3.411,0,0,1,1.03.163,2.639,2.639,0,0,1,.885.472,2.218,2.218,0,0,1,.6.757,1.907,1.907,0,0,1,.191,1,1.645,1.645,0,0,1-.262.851,2.172,2.172,0,0,1-.6.607,3.169,3.169,0,0,1-.835.389,5.607,5.607,0,0,1-.943.2,5.315,5.315,0,0,1-.934.03,3.651,3.651,0,0,1-.8-.117v.646a1.448,1.448,0,0,0,.255.885,1.559,1.559,0,0,0,.593.471,2.439,2.439,0,0,0,.743.191c.262.025.5.044.706.044h1.378v.409a1.7,1.7,0,0,1-.451.147,3.507,3.507,0,0,1-.747.062h-.515a8.132,8.132,0,0,1-.945-.071,3.519,3.519,0,0,1-1.026-.3,2.216,2.216,0,0,1-.819-.679,1.849,1.849,0,0,1-.32-1.21v-2.052a3.3,3.3,0,0,1,.191-1.145,2.7,2.7,0,0,1,.554-.918,2.543,2.543,0,0,1,.885-.607,3.076,3.076,0,0,1,1.194-.221m1.628,2.325a1.8,1.8,0,0,0-.1-.738,1.359,1.359,0,0,0-.354-.538,1.5,1.5,0,0,0-.534-.331,1.923,1.923,0,0,0-.639-.108,1.563,1.563,0,0,0-1.224.5,1.873,1.873,0,0,0-.453,1.3V286.3a7.3,7.3,0,0,0,1.3.014,3.738,3.738,0,0,0,1.028-.221,1.792,1.792,0,0,0,.69-.46A1.274,1.274,0,0,0,120.156,284.877Z" transform="translate(-102.183 -137.521)" fill="#b1b3b3"/><path d="M121.51,282.62h1.2v.4a1.526,1.526,0,0,1-.451.129c-.182.028-.432.051-.75.076a4.17,4.17,0,0,0-.651.108,1.764,1.764,0,0,0-.619.262,1.424,1.424,0,0,0-.453.5,1.612,1.612,0,0,0-.159.821v4.752h-1.15v-4.763a2.868,2.868,0,0,1,.113-.789,1.753,1.753,0,0,1,.449-.736,2.325,2.325,0,0,1,.92-.547,4.664,4.664,0,0,1,1.55-.214" transform="translate(-98.573 -137.433)" fill="#b1b3b3"/><path d="M123.3,283.272a2.327,2.327,0,0,0-.766.209,1.384,1.384,0,0,0-.812,1.444v2.449a1.467,1.467,0,0,0,.214.932,1.558,1.558,0,0,0,.6.506,2.317,2.317,0,0,0,.766.2c.274.025.515.044.722.044h1.518v.423a1.666,1.666,0,0,1-.449.14,3.932,3.932,0,0,1-.75.055h-.669c-.17,0-.373-.011-.593-.03a3.891,3.891,0,0,1-.688-.11,3.553,3.553,0,0,1-.681-.235,2.075,2.075,0,0,1-.586-.407,1.936,1.936,0,0,1-.55-1.481v-2.541a2.021,2.021,0,0,1,.143-.862,1.935,1.935,0,0,1,.407-.612,1.851,1.851,0,0,1,.586-.4,3.826,3.826,0,0,1,1.368-.34c.221-.021.423-.028.593-.028l.669-.014a3.888,3.888,0,0,1,.75.057,1.928,1.928,0,0,1,.449.149v.412h-1.518c-.207,0-.449.016-.722.039" transform="translate(-95.846 -137.44)" fill="#b1b3b3"/><path d="M125.665,282.632a8.059,8.059,0,0,1,.943.067,3.5,3.5,0,0,1,1.026.306,2.153,2.153,0,0,1,.814.683,1.863,1.863,0,0,1,.329,1.2v4.763h-2.558a8.1,8.1,0,0,1-.941-.071,3.472,3.472,0,0,1-1.028-.3,2.253,2.253,0,0,1-.819-.679,1.918,1.918,0,0,1-.324-1.21,1.97,1.97,0,0,1,.423-1.274,2.68,2.68,0,0,1,1.044-.764,4.811,4.811,0,0,1,1.437-.343,11.453,11.453,0,0,1,1.615-.021v-.048A1.553,1.553,0,0,0,127.4,284a1.532,1.532,0,0,0-.6-.527,2.3,2.3,0,0,0-.757-.214,5.79,5.79,0,0,0-.715-.051h-.867v-.37a1.726,1.726,0,0,1,.451-.149,3.636,3.636,0,0,1,.752-.058m1.962,2.981a8.741,8.741,0,0,0-1.256.007,3.478,3.478,0,0,0-1.07.232,1.824,1.824,0,0,0-.747.547,1.545,1.545,0,0,0-.294.952,1.527,1.527,0,0,0,.223.932,1.561,1.561,0,0,0,.6.506,2.222,2.222,0,0,0,.757.2c.267.025.5.044.713.044h1.069Z" transform="translate(-92.556 -137.417)" fill="#b1b3b3"/><path d="M126,286.339a2.1,2.1,0,0,1,.14-.862,1.814,1.814,0,0,1,.416-.612,1.961,1.961,0,0,1,.587-.4,4.447,4.447,0,0,1,.676-.237,4.572,4.572,0,0,1,.688-.1c.221-.021.421-.028.6-.028h1.408v-2.608h1.145v9.658h-2.553a7.955,7.955,0,0,1-.938-.071,3.486,3.486,0,0,1-1.03-.3,2.216,2.216,0,0,1-.819-.679,1.876,1.876,0,0,1-.324-1.21v-2.541m1.15,2.5a1.4,1.4,0,0,0,.823,1.438,2.287,2.287,0,0,0,.766.2c.264.025.5.044.708.044h1.072V284.7h-1.072c-.209,0-.444.016-.708.039a2.3,2.3,0,0,0-.766.209,1.493,1.493,0,0,0-.6.508,1.555,1.555,0,0,0-.225.936Z" transform="translate(-88.792 -138.907)" fill="#b1b3b3"/><path d="M131.72,282.552a3.426,3.426,0,0,1,1.033.163,2.607,2.607,0,0,1,.888.472,2.268,2.268,0,0,1,.6.757,2,2,0,0,1,.191,1,1.626,1.626,0,0,1-.264.851,2.121,2.121,0,0,1-.607.607,3.139,3.139,0,0,1-.83.389,5.607,5.607,0,0,1-.943.2,5.334,5.334,0,0,1-.936.03,3.673,3.673,0,0,1-.807-.117v.646a1.389,1.389,0,0,0,.856,1.357,2.39,2.39,0,0,0,.741.191c.262.025.492.044.7.044h1.38v.409a1.775,1.775,0,0,1-.453.147,3.487,3.487,0,0,1-.75.062H132a8.208,8.208,0,0,1-.941-.071,3.5,3.5,0,0,1-1.026-.3,2.26,2.26,0,0,1-.821-.679,1.932,1.932,0,0,1-.322-1.21v-2.052a3.3,3.3,0,0,1,.2-1.145,2.568,2.568,0,0,1,.557-.918,2.494,2.494,0,0,1,.879-.607,3.1,3.1,0,0,1,1.2-.221m1.628,2.325a1.762,1.762,0,0,0-.1-.738,1.388,1.388,0,0,0-.357-.538,1.5,1.5,0,0,0-.534-.331,1.927,1.927,0,0,0-.642-.108,1.572,1.572,0,0,0-1.226.5,1.894,1.894,0,0,0-.453,1.3V286.3a7.329,7.329,0,0,0,1.3.014,3.738,3.738,0,0,0,1.028-.221,1.8,1.8,0,0,0,.692-.46A1.258,1.258,0,0,0,133.348,284.877Z" transform="translate(-85.034 -137.521)" fill="#b1b3b3"/><path d="M134.46,282.552a3.623,3.623,0,0,1,1.049.15,2.836,2.836,0,0,1,.888.439,2.226,2.226,0,0,1,.619.708,1.915,1.915,0,0,1,.232.952v2.877a1.85,1.85,0,0,1-.232.938,2.218,2.218,0,0,1-.619.706,2.847,2.847,0,0,1-.888.444,3.58,3.58,0,0,1-2.093,0,2.847,2.847,0,0,1-.892-.444,2.157,2.157,0,0,1-.616-.706,1.829,1.829,0,0,1-.237-.938V284.8a1.893,1.893,0,0,1,.237-.952,2.164,2.164,0,0,1,.616-.708,2.836,2.836,0,0,1,.892-.439,3.6,3.6,0,0,1,1.044-.15m1.651,2.286a1.729,1.729,0,0,0-.426-1.208,1.839,1.839,0,0,0-2.454,0,1.739,1.739,0,0,0-.423,1.208v2.79a1.723,1.723,0,0,0,.423,1.2,1.826,1.826,0,0,0,2.454,0,1.714,1.714,0,0,0,.426-1.2Z" transform="translate(-81.424 -137.521)" fill="#b1b3b3"/><path d="M137.825,282.031a3.961,3.961,0,0,1,1.205.186,3.3,3.3,0,0,1,1.03.55,2.661,2.661,0,0,1,.7.885,2.352,2.352,0,0,1,.223,1.164,1.881,1.881,0,0,1-.308.994,2.556,2.556,0,0,1-.706.708,3.705,3.705,0,0,1-.973.453,6.332,6.332,0,0,1-1.1.232,6.984,6.984,0,0,1-1.09.039,5.052,5.052,0,0,1-.945-.138v.752a1.707,1.707,0,0,0,.3,1.033,1.739,1.739,0,0,0,.692.55,2.792,2.792,0,0,0,.865.228c.308.028.58.044.821.044h1.61v.481a2.208,2.208,0,0,1-.527.172,4.115,4.115,0,0,1-.872.071h-.6a9.02,9.02,0,0,1-1.1-.083,4.034,4.034,0,0,1-1.2-.354,2.584,2.584,0,0,1-.957-.794,2.221,2.221,0,0,1-.377-1.405v-2.4a3.907,3.907,0,0,1,.228-1.341,3.065,3.065,0,0,1,.649-1.067,2.943,2.943,0,0,1,1.03-.708,3.524,3.524,0,0,1,1.391-.255m1.9,2.714a2.094,2.094,0,0,0-.11-.869,1.692,1.692,0,0,0-.419-.626,1.714,1.714,0,0,0-.621-.382,2.213,2.213,0,0,0-.747-.129,1.816,1.816,0,0,0-1.431.587,2.185,2.185,0,0,0-.529,1.52v1.55a8.541,8.541,0,0,0,1.527.016,4.347,4.347,0,0,0,1.2-.253,2,2,0,0,0,.8-.545A1.4,1.4,0,0,0,139.723,284.745Z" transform="translate(-77.71 -138.198)" fill="#b1b3b3"/><path d="M141.1,282.109a4.914,4.914,0,0,0-.614.037,1.2,1.2,0,0,0-.534.2,1.1,1.1,0,0,0-.368.506,2.331,2.331,0,0,0-.113.925v.612h2.107v.414a2.24,2.24,0,0,1-.453.145,3.7,3.7,0,0,1-.745.057h-.908v6.134h-1.148V285h-.619v-.607h.619v-.646a2.053,2.053,0,0,1,.265-1.2,2,2,0,0,1,.724-.685,2.813,2.813,0,0,1,.929-.3,6.132,6.132,0,0,1,.883-.071H142.3v.416a2.329,2.329,0,0,1-.453.147,3.72,3.72,0,0,1-.75.06" transform="translate(-73.576 -138.907)" fill="#b1b3b3"/><path d="M142.51,282.552a3.429,3.429,0,0,1,1.035.163,2.673,2.673,0,0,1,.883.472,2.269,2.269,0,0,1,.6.757,2,2,0,0,1,.193,1,1.625,1.625,0,0,1-.262.851,2.122,2.122,0,0,1-.607.607,3.134,3.134,0,0,1-.835.389,5.421,5.421,0,0,1-.943.2,5.329,5.329,0,0,1-.934.03,3.673,3.673,0,0,1-.807-.117v.646a1.463,1.463,0,0,0,.26.885,1.552,1.552,0,0,0,.591.471,2.474,2.474,0,0,0,.743.191c.262.025.5.044.7.044h1.38v.409a1.7,1.7,0,0,1-.451.147,3.5,3.5,0,0,1-.75.062h-.515a8.024,8.024,0,0,1-.938-.071,3.451,3.451,0,0,1-1.028-.3,2.26,2.26,0,0,1-.821-.679,1.918,1.918,0,0,1-.324-1.21v-2.052a3.247,3.247,0,0,1,.2-1.145,2.659,2.659,0,0,1,.552-.918,2.533,2.533,0,0,1,.883-.607,3.121,3.121,0,0,1,1.2-.221m1.624,2.325a1.659,1.659,0,0,0-.094-.738,1.388,1.388,0,0,0-.356-.538,1.467,1.467,0,0,0-.536-.331,1.9,1.9,0,0,0-.637-.108,1.568,1.568,0,0,0-1.226.5,1.883,1.883,0,0,0-.453,1.3V286.3a7.332,7.332,0,0,0,1.3.014,3.683,3.683,0,0,0,1.026-.221,1.783,1.783,0,0,0,.692-.46A1.187,1.187,0,0,0,144.134,284.877Z" transform="translate(-71.01 -137.521)" fill="#b1b3b3"/><path d="M145.192,283.272a2.353,2.353,0,0,0-.771.209,1.376,1.376,0,0,0-.8,1.444v2.449a1.483,1.483,0,0,0,.209.932,1.551,1.551,0,0,0,.6.506,2.343,2.343,0,0,0,.771.2c.274.025.513.044.72.044h1.518v.423a1.622,1.622,0,0,1-.446.14,3.992,3.992,0,0,1-.752.055h-.669c-.17,0-.37-.011-.593-.03a3.867,3.867,0,0,1-.685-.11,3.687,3.687,0,0,1-.683-.235,2.087,2.087,0,0,1-.589-.407,1.927,1.927,0,0,1-.4-.616,1.994,1.994,0,0,1-.14-.865v-2.541a1.989,1.989,0,0,1,.14-.862A1.882,1.882,0,0,1,143.6,283a4.81,4.81,0,0,1,.683-.237,4.587,4.587,0,0,1,.685-.1c.223-.021.423-.028.593-.028l.669-.014a3.948,3.948,0,0,1,.752.057,1.87,1.87,0,0,1,.446.149v.412h-1.518c-.207,0-.446.016-.72.039" transform="translate(-67.39 -137.44)" fill="#b1b3b3"/><path d="M146.322,288.959a1.446,1.446,0,0,0,.446.5,1.562,1.562,0,0,0,.6.258,4.863,4.863,0,0,0,.646.1v.619c-.184,0-.38-.011-.593-.03a3.774,3.774,0,0,1-.667-.11,3.3,3.3,0,0,1-.658-.235,2.088,2.088,0,0,1-.561-.407,1.88,1.88,0,0,1-.384-.616,2.23,2.23,0,0,1-.131-.865v-6.141h1.136v1.99a3.278,3.278,0,0,1,.991-.283c.345-.035.644-.053.892-.053v.642a6.192,6.192,0,0,0-.628.092,1.888,1.888,0,0,0-.6.235,1.4,1.4,0,0,0-.458.458,1.425,1.425,0,0,0-.2.752v2.27a1.606,1.606,0,0,0,.161.826" transform="translate(-64.064 -138.198)" fill="#b1b3b3"/><path d="M148.079,282.277a.649.649,0,0,1-.186.458.658.658,0,0,1-.918,0,.645.645,0,1,1,.918-.906.648.648,0,0,1,.186.448M148,283.9h-1.15v7.049H148Z" transform="translate(-61.773 -138.716)" fill="#b1b3b3"/><path d="M151.1,289.67h-1.174l-2.127-7.05H148.9l1.652,5.744,1.654-5.744h1.106l-2.218,7.05" transform="translate(-60.459 -137.433)" fill="#b1b3b3"/><path d="M153.348,282.552a3.634,3.634,0,0,1,1.049.15,2.787,2.787,0,0,1,.888.439,2.262,2.262,0,0,1,.621.708,1.965,1.965,0,0,1,.232.952v2.877a1.9,1.9,0,0,1-.232.938,2.254,2.254,0,0,1-.621.706,2.8,2.8,0,0,1-.888.444,3.58,3.58,0,0,1-2.093,0,2.846,2.846,0,0,1-.892-.444,2.337,2.337,0,0,1-.619-.706,1.9,1.9,0,0,1-.23-.938V284.8a1.964,1.964,0,0,1,.23-.952,2.345,2.345,0,0,1,.619-.708,2.835,2.835,0,0,1,.892-.439,3.6,3.6,0,0,1,1.044-.15M155,284.838a1.729,1.729,0,0,0-.426-1.208,1.836,1.836,0,0,0-2.452,0,1.729,1.729,0,0,0-.425,1.208v2.79a1.714,1.714,0,0,0,.425,1.2,1.823,1.823,0,0,0,2.452,0,1.714,1.714,0,0,0,.426-1.2Z" transform="translate(-56.863 -137.521)" fill="#b1b3b3"/><path d="M190.884,236.776a42.011,42.011,0,0,1-67.7,46.281,43.06,43.06,0,0,0,69.5-33.962,43.121,43.121,0,0,0-1.794-12.319m-4.991-9.892a42.509,42.509,0,0,1-70.247,47.725,42.509,42.509,0,1,0,70.247-47.725Z" transform="translate(-102.255 -209.889)" fill="#b1b3b3"/><path d="M153.187,301.209a42.51,42.51,0,0,0,36.246-64.72,42.509,42.509,0,0,0-70.247,47.725,42.441,42.441,0,0,0,34,16.995M149.2,224.178a30.687,30.687,0,0,1,28.745,19.946A29.329,29.329,0,1,1,133.993,281.5,30.677,30.677,0,0,1,149.2,224.178Z" transform="translate(-105.795 -219.495)" fill="#b1b3b3"/><path d="M144.922,275.116a24.486,24.486,0,0,0,17.9-41.2c.051.724.087,1.449.087,2.185a30.7,30.7,0,0,1-36.931,30.043,24.444,24.444,0,0,0,18.943,8.968" transform="translate(-88.823 -200.741)" fill="#b1b3b3"/><path d="M130.846,279.23a30.942,30.942,0,1,1,44.33-37.7l.338.909-.75-.614A29.065,29.065,0,0,0,131.2,278.871l.488.842-.844-.483" transform="translate(-102.779 -216.996)" fill="#b1b3b3"/><path d="M146.333,221.826a30.687,30.687,0,0,1,28.745,19.946,29.326,29.326,0,0,0-43.953,37.377,30.677,30.677,0,0,1,15.208-57.323m0-.522a31.2,31.2,0,0,0-15.467,58.3l1.686.961-.973-1.681a28.8,28.8,0,0,1,43.169-36.71l1.5,1.228-.678-1.817A31.347,31.347,0,0,0,146.333,221.3Z" transform="translate(-102.927 -217.143)" fill="#fff"/><path d="M135.512,271.6a31.133,31.133,0,0,1-6.3-.644l-.09-.018-.06-.071A24.749,24.749,0,0,1,166.3,238.293l.064.067.007.094c.057.83.085,1.532.085,2.2A30.977,30.977,0,0,1,135.512,271.6" transform="translate(-92.106 -205.29)" fill="#b1b3b3"/><path d="M148.354,230.832a24.421,24.421,0,0,1,17.9,7.786c.051.724.087,1.449.087,2.185a30.7,30.7,0,0,1-36.931,30.043,24.49,24.49,0,0,1,18.943-40.013m0-.524a25.015,25.015,0,0,0-19.348,40.871l.117.143.182.037A31.218,31.218,0,0,0,166.864,240.8c0-.676-.028-1.382-.087-2.222l-.012-.184-.129-.136A25.1,25.1,0,0,0,148.354,230.308Z" transform="translate(-92.255 -205.438)" fill="#fff"/></svg>