<svg xmlns="http://www.w3.org/2000/svg" width="92.691" height="125.188" viewBox="0 0 92.691 125.188"><circle cx="44.897" cy="44.897" r="44.897" transform="translate(0 89.787) rotate(-89.266)" fill="#b2b4b3"/><g transform="translate(17.408 20.805)"><path d="M104.361,324.115l36.994-13.284-24.8,37.948" transform="translate(-104.361 -310.831)" fill="none" stroke="#fff" stroke-linecap="round" stroke-linejoin="round" stroke-width="2.112"/><path d="M132.293,318.061l-21.617,32.832,42.72-15.177" transform="translate(-97.275 -302.718)" fill="none" stroke="#fff" stroke-linecap="round" stroke-linejoin="round" stroke-width="2.112"/></g><g transform="translate(6.247 94.978)"><path d="M109.73,351.577l-9.079,17.869h9.079v1.379H99.1v-1.379l9.079-17.869H99.1V350.2H109.73Z" transform="translate(-99.102 -340.826)" fill="#b2b4b3"/><path d="M113.327,359.473c-.253.085-.673.244-1.254.48s-1.22.482-1.906.734-1.348.5-1.989.753-1.142.433-1.507.543v3.555a4.129,4.129,0,0,0,.335,1.655,4.177,4.177,0,0,0,2.239,2.237,4.239,4.239,0,0,0,3.3,0,4.264,4.264,0,0,0,1.341-.9,4.37,4.37,0,0,0,.9-1.339,4.163,4.163,0,0,0,.333-1.655h1.382a5.527,5.527,0,0,1-.439,2.2,5.53,5.53,0,0,1-2.973,2.971,5.705,5.705,0,0,1-4.391,0,5.522,5.522,0,0,1-2.969-2.971,5.454,5.454,0,0,1-.439-2.2v-9.83a5.454,5.454,0,0,1,.439-2.2,5.527,5.527,0,0,1,2.969-2.969,5.68,5.68,0,0,1,4.391,0,5.535,5.535,0,0,1,2.973,2.969,5.427,5.427,0,0,1,.439,2.156v.042Q116.506,358.3,113.327,359.473Zm-2.428-7.992a4.16,4.16,0,0,0-1.653.333,4.282,4.282,0,0,0-1.339.9,4.216,4.216,0,0,0-.9,1.335,4.152,4.152,0,0,0-.335,1.655v4.811c.418-.168.938-.369,1.549-.6s1.227-.469,1.84-.692,1.178-.433,1.7-.628.885-.335,1.108-.418a6.108,6.108,0,0,0,1.509-.879,1.954,1.954,0,0,0,.751-1.632,3.99,3.99,0,0,0-.333-1.63,4.268,4.268,0,0,0-2.241-2.222A4.135,4.135,0,0,0,110.9,351.481Z" transform="translate(-92.153 -340.937)" fill="#b2b4b3"/><path d="M111.858,375.782v-30h1.382v30Z" transform="translate(-84.787 -345.782)" fill="#b2b4b3"/><path d="M122.12,359.473q-.376.127-1.254.48c-.586.24-1.222.482-1.9.734s-1.345.5-1.989.753-1.144.433-1.507.543v3.555a4.094,4.094,0,0,0,.337,1.655,4.321,4.321,0,0,0,.9,1.339,4.254,4.254,0,0,0,1.339.9,4.25,4.25,0,0,0,3.309,0,4.164,4.164,0,0,0,2.237-2.237,4.13,4.13,0,0,0,.337-1.655H125.3a5.527,5.527,0,0,1-.439,2.2,5.536,5.536,0,0,1-2.971,2.971,5.71,5.71,0,0,1-4.393,0,5.554,5.554,0,0,1-2.971-2.971,5.528,5.528,0,0,1-.441-2.2v-9.83a5.528,5.528,0,0,1,.441-2.2,5.559,5.559,0,0,1,2.971-2.969,5.685,5.685,0,0,1,4.393,0,5.541,5.541,0,0,1,2.971,2.969,5.427,5.427,0,0,1,.439,2.156v.042Q125.3,358.3,122.12,359.473Zm-2.424-7.992a4.181,4.181,0,0,0-1.657.333,4.2,4.2,0,0,0-2.235,2.239,4.117,4.117,0,0,0-.337,1.655v4.811q.63-.252,1.547-.6c.618-.24,1.231-.469,1.844-.692s1.176-.433,1.7-.628.885-.335,1.106-.418a6.023,6.023,0,0,0,1.507-.879,1.952,1.952,0,0,0,.756-1.632,3.959,3.959,0,0,0-.337-1.63,4.232,4.232,0,0,0-.9-1.318,4.306,4.306,0,0,0-1.339-.9A4.173,4.173,0,0,0,119.7,351.481Z" transform="translate(-82.288 -340.937)" fill="#b2b4b3"/><path d="M126.355,369.766a4.091,4.091,0,0,0,1.653-.335,4.264,4.264,0,0,0,1.341-.9,4.369,4.369,0,0,0,.9-1.339,4.164,4.164,0,0,0,.333-1.655h1.382a5.527,5.527,0,0,1-.439,2.2,5.517,5.517,0,0,1-2.971,2.971,5.711,5.711,0,0,1-4.393,0,5.517,5.517,0,0,1-2.971-2.971,5.527,5.527,0,0,1-.439-2.2v-9.83a5.527,5.527,0,0,1,.439-2.2,5.6,5.6,0,0,1,1.191-1.776,5.655,5.655,0,0,1,1.781-1.193,5.685,5.685,0,0,1,4.393,0,5.522,5.522,0,0,1,2.971,2.969,5.527,5.527,0,0,1,.439,2.2h-1.382a4.187,4.187,0,0,0-.333-1.655,4.222,4.222,0,0,0-2.241-2.239,4.267,4.267,0,0,0-3.306,0,4.3,4.3,0,0,0-1.337.9,4.176,4.176,0,0,0-.9,1.335,4.08,4.08,0,0,0-.335,1.655v9.83a4.058,4.058,0,0,0,.335,1.655,4.169,4.169,0,0,0,2.235,2.237A4.1,4.1,0,0,0,126.355,369.766Z" transform="translate(-74.808 -340.937)" fill="#b2b4b3"/><path d="M128.8,363.59v4.934a4.635,4.635,0,0,0,.291,1.655,4.308,4.308,0,0,0,.794,1.339,3.864,3.864,0,0,0,1.174.9,3.115,3.115,0,0,0,1.422.335v1.382a4.507,4.507,0,0,1-1.967-.439A5.253,5.253,0,0,1,128.9,372.5a5.61,5.61,0,0,1-1.091-1.778,6.116,6.116,0,0,1-.395-2.2V347.438H128.8V353.3h4.516v1.379H128.8Z" transform="translate(-67.33 -343.924)" fill="#b2b4b3"/><path d="M132.564,363.59v4.934a4.681,4.681,0,0,0,.289,1.655,4.316,4.316,0,0,0,.8,1.339,3.821,3.821,0,0,0,1.169.9,3.124,3.124,0,0,0,1.424.335v1.382a4.491,4.491,0,0,1-1.965-.439,5.2,5.2,0,0,1-1.613-1.193,5.6,5.6,0,0,1-1.087-1.778,5.984,5.984,0,0,1-.4-2.2V347.438h1.386V353.3h4.516v1.379h-4.516Z" transform="translate(-63.106 -343.924)" fill="#b2b4b3"/><path d="M140.159,371.147a5.526,5.526,0,0,1-2.2-.439,5.528,5.528,0,0,1-2.967-2.971,5.457,5.457,0,0,1-.444-2.2v-9.83a5.457,5.457,0,0,1,.444-2.2,5.63,5.63,0,0,1,7.36-2.969,5.522,5.522,0,0,1,2.971,2.969,5.529,5.529,0,0,1,.441,2.2v9.83a5.529,5.529,0,0,1-.441,2.2,5.517,5.517,0,0,1-2.971,2.971A5.506,5.506,0,0,1,140.159,371.147Zm0-19.667a4.153,4.153,0,0,0-1.653.333,4.227,4.227,0,0,0-2.239,2.239,4.151,4.151,0,0,0-.335,1.655v9.83a4.128,4.128,0,0,0,.335,1.655,4.3,4.3,0,0,0,.9,1.339,4.206,4.206,0,0,0,1.339.9,4.244,4.244,0,0,0,3.306,0,4.254,4.254,0,0,0,1.339-.9,4.32,4.32,0,0,0,.9-1.339,4.094,4.094,0,0,0,.337-1.655v-9.83a4.117,4.117,0,0,0-.337-1.655,4.2,4.2,0,0,0-2.235-2.239A4.175,4.175,0,0,0,140.159,351.481Z" transform="translate(-59.322 -340.937)" fill="#b2b4b3"/></g></svg>