<svg xmlns="http://www.w3.org/2000/svg" width="289.342" height="60.872" viewBox="0 0 289.342 60.872"><path d="M458.276,342.315l3.4,1.962a32.625,32.625,0,0,1-1.532-5.152A10.764,10.764,0,0,0,458.276,342.315Z" transform="translate(-441.801 -293.413)" fill="none"/><path d="M471.463,327.107l-6.564-3.79c.784,2.153,1.69,4.768,2.5,7.44A26.411,26.411,0,0,0,471.463,327.107Z" transform="translate(-433.191 -313.963)" fill="none"/><g transform="translate(164.036 8.712)"><path d="M543.938,344.465c0-6.647.08-9.931.08-9.97h-.08c-.041.039-1.4,2.562-2.762,4.966l-2.723,4.924h-3.765l-2.723-4.844c-1.4-2.484-2.721-5.007-2.762-5.046h-.12c0,.039.078,3.323.078,9.97v6.847h-6.727v-28.03h7.128l7.049,12.535h.12l7.089-12.535h6.847v28.03h-6.728Z" transform="translate(-522.433 -322.721)" fill="#b1b3b3"/><path d="M536.658,323.282h20.424v6.247h-13.7v4.8h10.092v5.607H543.385v5.124h13.9v6.247H536.658Z" transform="translate(-503.94 -322.721)" fill="#b1b3b3"/><path d="M559.264,323.282c8.37,0,14.777,5.686,14.777,14.136,0,8.489-6.447,13.894-14.736,13.894H547.332v-28.03Zm-.361,21.783c4.165,0,8.37-2.121,8.37-7.647,0-5.486-4.2-7.889-8.37-7.889H554.06v15.536Z" transform="translate(-490.064 -322.721)" fill="#b1b3b3"/><path d="M560.408,323.282h6.728v28.03h-6.728Z" transform="translate(-473.065 -322.721)" fill="#b1b3b3"/><path d="M592.667,343.34a13.912,13.912,0,0,1-13.335,8.85c-8.37,0-14.536-5.886-14.536-14.656,0-8.531,6.166-14.5,14.536-14.5,6.447,0,11.171,3.565,13.055,8.089l-6.649,1.8a7.62,7.62,0,0,0-6.725-3.563c-4.566,0-7.45,3.363-7.45,8.248,0,4.966,3.084,8.211,7.408,8.211a7.45,7.45,0,0,0,7.089-4.246Z" transform="translate(-467.361 -323.038)" fill="#b1b3b3"/></g><g transform="translate(58.563 6.042)"><path d="M477.941,355.859a12.119,12.119,0,0,1-1.083-8.13,18.8,18.8,0,0,1,3.825-7.68,35.809,35.809,0,0,1,7.408-6.806,63.765,63.765,0,0,1,9.607-5.573,67.471,67.471,0,0,1,10.481-3.915,49.073,49.073,0,0,1,10.058-1.808,25.691,25.691,0,0,1,8.282.662,8.18,8.18,0,0,1,5.15,3.553,2.135,2.135,0,0,1,.242,1.688,4.308,4.308,0,0,1-.964,1.656,8.613,8.613,0,0,1-1.808,1.507,18.622,18.622,0,0,1-2.259,1.233,14.213,14.213,0,0,1-2.288.844,7.4,7.4,0,0,1-1.9.3,4.863,4.863,0,0,1-2.169-.421,4.092,4.092,0,0,1-1.265-.9,1.607,1.607,0,0,1-.451-.934c-.021-.3.069-.492.271-.573q.963-.238,2.8-.692a31,31,0,0,0,3.586-1.113,10.939,10.939,0,0,0,2.861-1.536,1.591,1.591,0,0,0,.57-2.079q-.421-.842-2.107-1.053a17.106,17.106,0,0,0-3.795,0,37.739,37.739,0,0,0-4.306.692q-2.2.483-3.705.964-3.674,1.145-8.041,2.983a91.684,91.684,0,0,0-8.643,4.186,90.064,90.064,0,0,0-8.163,5.058,42.952,42.952,0,0,0-6.624,5.6,19.743,19.743,0,0,0-3.977,5.812,7.692,7.692,0,0,0-.271,5.693,4.211,4.211,0,0,0,1.9,2.289,8.5,8.5,0,0,0,3.192,1.023,16.655,16.655,0,0,0,4.007,0,23.156,23.156,0,0,0,4.246-.874,25.068,25.068,0,0,0,3.944-1.566,17.082,17.082,0,0,0,3.192-2.017q1.083-1.808,2.321-3.583t2.5-3.282q1.266-1.5,2.53-2.742a15.152,15.152,0,0,1,2.41-1.957,2.957,2.957,0,0,1,1.385-.511,3.834,3.834,0,0,1,1.387.06,2.152,2.152,0,0,1,.932.451c.221.2.271.382.152.543q-2.653,3.612-4.908,6.9t-4.218,6.626q-1.956,3.343-3.7,6.928t-3.434,7.8a.407.407,0,0,1-.6.242,2.184,2.184,0,0,1-.842-.752,5.447,5.447,0,0,1-.964-3.464,19.548,19.548,0,0,1,2.226-8.193,19.613,19.613,0,0,1-5.12,1.566,20.014,20.014,0,0,1-5.571.182,13.475,13.475,0,0,1-4.97-1.506A7.678,7.678,0,0,1,477.941,355.859Z" transform="translate(-476.575 -321.877)" fill="#b1b3b3"/><path d="M497.143,333.451a.89.89,0,0,0,.722.212,3.647,3.647,0,0,0,.994-.212,6.884,6.884,0,0,0,.964-.421,3.721,3.721,0,0,0,.633-.421.764.764,0,0,1,.632-.242,2.9,2.9,0,0,1,1.053.212,3.336,3.336,0,0,1,.994.6,1.711,1.711,0,0,1,.573.934,2.54,2.54,0,0,1-.451,1.387q-.514.9-1.083,1.776a11.435,11.435,0,0,0-.874,1.536q-.3.662.179.662a2.838,2.838,0,0,0,1.417-.692q.931-.693,1.957-1.6t1.927-1.808l1.325-1.325q.9-.783,1.536-.6t-.152,1.265c-.239.361-.612.883-1.113,1.566s-1.076,1.405-1.718,2.169a26.074,26.074,0,0,1-2.047,2.169,6.792,6.792,0,0,1-2.169,1.444,2.5,2.5,0,0,1-1.355,0,7.959,7.959,0,0,1-1.778-.6,5.142,5.142,0,0,1-1.566-1.113,2.027,2.027,0,0,1-.6-1.6,4.032,4.032,0,0,1,.391-1.656q.39-.873.874-1.9a4.646,4.646,0,0,1-2.229.06,4.209,4.209,0,0,1-1.868-.844,2.28,2.28,0,0,1-.844-1.474,2.446,2.446,0,0,1,.784-1.9,3.161,3.161,0,0,1,1.9-1.265,1.719,1.719,0,0,1,1.474.391,1.809,1.809,0,0,1,.513,1.447A2.7,2.7,0,0,1,497.143,333.451Z" transform="translate(-454.633 -311.636)" fill="#b1b3b3"/><path d="M504.009,330.192a1.416,1.416,0,0,1,1.145-.15,4.515,4.515,0,0,1,1.385.54,6.846,6.846,0,0,1,1.205.9,1.758,1.758,0,0,1,.6.934q.121.3-.242.934a11.039,11.039,0,0,1-.934,1.355q-.573.724-1.205,1.507t-1.083,1.355a4.129,4.129,0,0,0-.573.874c-.081.2.039.242.361.12a6.27,6.27,0,0,0,1.175-.752q.752-.573,1.656-1.355t1.868-1.656q.963-.873,1.806-1.658c.563-.52,1.044-.964,1.447-1.325a5.023,5.023,0,0,1,.844-.662,1.858,1.858,0,0,1,.782.06,3.791,3.791,0,0,1,.994.423,3.626,3.626,0,0,1,.9.752,3.134,3.134,0,0,1,.573.934c.12.322-.03.773-.453,1.355s-.883,1.175-1.385,1.778-.934,1.143-1.295,1.626-.442.8-.242.964c.161.12.591-.03,1.295-.453s1.495-.943,2.38-1.566,1.737-1.253,2.558-1.9,1.417-1.125,1.778-1.447q1.087-.962,1.506-.451t-.182,1.474c-.239.283-.713.794-1.414,1.536s-1.477,1.516-2.318,2.318a29.858,29.858,0,0,1-2.53,2.169,5.216,5.216,0,0,1-1.987,1.083,3.526,3.526,0,0,1-1.658-.03,5.856,5.856,0,0,1-3.011-1.838,2.813,2.813,0,0,1-.692-1.385,1.6,1.6,0,0,1,0-.872,2.195,2.195,0,0,1,.241-.573q-.783.662-1.718,1.474t-1.838,1.536a16.72,16.72,0,0,1-1.686,1.205,2.669,2.669,0,0,1-1.325.481,3.658,3.658,0,0,1-1.023-.209,6.645,6.645,0,0,1-1.295-.573,7.018,7.018,0,0,1-1.145-.814,1.887,1.887,0,0,1-.632-.994,3.809,3.809,0,0,1,.513-1.746q.573-1.2,1.385-2.59a29.429,29.429,0,0,1,1.778-2.682A18.71,18.71,0,0,1,504.009,330.192Z" transform="translate(-447.888 -311.327)" fill="#b1b3b3"/><path d="M505.075,364.555a1.515,1.515,0,0,1-1.053.633,3.563,3.563,0,0,1-1.447,0,1.937,1.937,0,0,1-1.113-.662,1.275,1.275,0,0,1,0-1.414q.3-.666,1.325-2.5t2.5-4.368q1.477-2.529,3.282-5.541t3.673-6.054q1.87-3.039,3.675-5.9t3.282-5.12q1.477-2.26,2.53-3.675a6.374,6.374,0,0,1,1.355-1.536,1.453,1.453,0,0,1,1.325-.09,4.424,4.424,0,0,1,1.295.752,4.6,4.6,0,0,1,.934,1.056.961.961,0,0,1,.182.934,3.16,3.16,0,0,1-.451.812q-.335.452-.934,1.295t-1.566,2.169q-.966,1.325-2.41,3.312.9-.842,1.868-1.716t1.716-1.6c.5-.483.934-.883,1.295-1.205a6,6,0,0,1,.662-.543,1.891,1.891,0,0,1,.934-.03,7.152,7.152,0,0,1,1.447.361,7.343,7.343,0,0,1,1.385.665,1.547,1.547,0,0,1,.752.812c.081.2,0,.492-.239.874a10.468,10.468,0,0,1-.9,1.2c-.361.423-.764.874-1.205,1.357s-.844.913-1.205,1.295a6.12,6.12,0,0,0-.812,1.023c-.182.3-.212.492-.092.573.2.12.773-.069,1.718-.573s1.987-1.1,3.133-1.808,2.217-1.394,3.222-2.077,1.665-1.164,1.987-1.447c.6-.6,1.044-.752,1.325-.451s.241.734-.12,1.295a15.207,15.207,0,0,1-1.6,1.626q-1.3,1.208-2.861,2.56t-3.073,2.47a8.226,8.226,0,0,1-2.169,1.295,5.2,5.2,0,0,1-1.925,0,7.791,7.791,0,0,1-1.93-.6,5.39,5.39,0,0,1-1.564-1.083,2.262,2.262,0,0,1-.725-1.447,1.681,1.681,0,0,1,.242-.964q.3-.6.662-1.205c.281-.439.6-.922.964-1.444q-1.2.962-2.348,1.987-1.025.845-2.109,1.927t-1.927,2.109q-2.47,3.674-5.9,9.094T505.075,364.555Z" transform="translate(-444.496 -313.646)" fill="#b1b3b3"/><path d="M522.708,329.948a2.906,2.906,0,0,1,1.536.421,1.623,1.623,0,0,1,.812,1.145,3.268,3.268,0,0,1,2.229,1.507,4.326,4.326,0,0,1,.543,2.59,5.271,5.271,0,0,0,2.921-.483,6.094,6.094,0,0,0,2.2-1.626,2.845,2.845,0,0,1,.874-.722.732.732,0,0,1,.632-.06.46.46,0,0,1,.239.451,1.577,1.577,0,0,1-.239.754,9.97,9.97,0,0,1-2.8,2.951,10.29,10.29,0,0,1-4.849,1.686,9.511,9.511,0,0,1-1.957,2.169,7.9,7.9,0,0,1-2.8,1.444,3.305,3.305,0,0,1-1.778,0,6.12,6.12,0,0,1-2.047-.9,5.768,5.768,0,0,1-1.656-1.688,3.237,3.237,0,0,1-.483-2.288,8.293,8.293,0,0,1,.692-2.5,10.632,10.632,0,0,1,1.447-2.378,7.707,7.707,0,0,1,2.017-1.778A4.7,4.7,0,0,1,522.708,329.948Zm-2.41,9.938q.3.483,1.265,0a6.243,6.243,0,0,0,1.868-1.506,4.2,4.2,0,0,1-1.143-1.295,5.437,5.437,0,0,1-.665-1.9,9.244,9.244,0,0,0-1.444,2.739A1.983,1.983,0,0,0,520.3,339.886Z" transform="translate(-425.266 -311.385)" fill="#b1b3b3"/><g transform="translate(30.343 20.599)"><path d="M494.044,341.47a5.209,5.209,0,0,1-2.919.078q-1.073-.407-1.332-2.217a4.366,4.366,0,0,1,.4-2.2,19.2,19.2,0,0,1,1.274-2.571,22.622,22.622,0,0,1,1.484-2.219c.495-.642.816-1.049.973-1.224.315-.315.591-.368.833-.163s.223.6-.055,1.178a15.414,15.414,0,0,1-.787,1.578q-.624,1.152-1.256,2.392t-1.067,2.3q-.431,1.052-.219,1.29c.177.186.453.182.833-.007a6.166,6.166,0,0,0,1.286-.927,20.917,20.917,0,0,0,1.534-1.55q.818-.907,1.539-1.824t1.325-1.769a12.86,12.86,0,0,0,.881-1.389,1.1,1.1,0,0,1,1.178-.573c.389.184.752-.085,1.09.287s.35.352.4.7c.055.384-.11.6-.589,1.631a11.333,11.333,0,0,1-.823,1.47,20.136,20.136,0,0,1-1.495,2.139A12.824,12.824,0,0,1,494.044,341.47Z" transform="translate(-489.768 -330.833)" fill="#b1b3b3"/></g></g><g transform="translate(134.741 43.477)"><path d="M511.984,342.434h-.672v-1.787l-1.617-2.454.775,0,.849,1.32c.193.3.338.527.345.534h.012c.007-.007.145-.237.34-.527l.872-1.323h.722l-1.626,2.454Z" transform="translate(-509.696 -338.108)" fill="#b1b3b3"/><path d="M513.58,338.153a2.2,2.2,0,1,1-2.206,2.206A2.134,2.134,0,0,1,513.58,338.153Zm0,3.777a1.574,1.574,0,1,0-1.532-1.571A1.486,1.486,0,0,0,513.58,341.93Z" transform="translate(-507.515 -338.153)" fill="#b1b3b3"/><path d="M517.031,340.621a1.751,1.751,0,1,1-3.491,0V338.19h.681v2.424c0,.856.345,1.267,1.072,1.267s1.079-.412,1.079-1.267V338.19h.66Z" transform="translate(-504.699 -338.105)" fill="#b1b3b3"/><path d="M516.809,340.851c-.078,0-.248,0-.327,0h-.43v1.576h-.667V338.19h1.4c1.016,0,1.621.515,1.621,1.359a1.135,1.135,0,0,1-.913,1.18l1.023,1.7h-.8Zm.03-.54c.541,0,.885-.2.885-.731s-.333-.777-.908-.777h-.764v1.509Z" transform="translate(-502.3 -338.105)" fill="#b1b3b3"/><path d="M519.9,340.173a1.058,1.058,0,0,1,.9,1.06c0,.7-.5,1.2-1.472,1.2h-1.7V338.19h1.624a1.143,1.143,0,0,1,1.279,1.067.89.89,0,0,1-.626.89Zm-.745-.212c.407,0,.7-.219.7-.607,0-.357-.274-.6-.734-.6h-.83v1.207Zm.122,1.907c.5,0,.816-.242.816-.683a.735.735,0,0,0-.823-.715h-.982v1.4Z" transform="translate(-499.395 -338.105)" fill="#b1b3b3"/><path d="M522.715,340.621a1.751,1.751,0,1,1-3.491,0V338.19h.678v2.424c0,.856.347,1.267,1.074,1.267s1.079-.412,1.079-1.267V338.19h.66Z" transform="translate(-497.31 -338.105)" fill="#b1b3b3"/><path d="M521.611,341.207c.055.515.5.757,1.079.757.541,0,.867-.212.867-.642,0-.6-.637-.612-1.159-.734-.58-.131-1.307-.363-1.307-1.228,0-.782.582-1.207,1.49-1.207a1.493,1.493,0,0,1,1.612,1.074l-.637.17a.888.888,0,0,0-.982-.649c-.545,0-.8.223-.8.586,0,.492.49.593,1.095.715.632.122,1.371.34,1.371,1.272,0,.819-.575,1.237-1.546,1.237a1.533,1.533,0,0,1-1.72-1.175Z" transform="translate(-495.041 -338.153)" fill="#b1b3b3"/><path d="M522.637,338.19h.667v4.241h-.667Z" transform="translate(-492.873 -338.105)" fill="#b1b3b3"/><path d="M523.937,339.287h-.011c0,.007.011.511.011,1.042v2.1h-.665V338.19h.679l2.254,3.1h.018s-.011-.515-.011-.994V338.19h.665v4.241H526.2Z" transform="translate(-492.047 -338.105)" fill="#b1b3b3"/><path d="M525.185,338.19h2.935v.626h-2.268v1.109h1.739v.623h-1.739v1.26h2.284v.623h-2.951Z" transform="translate(-489.56 -338.105)" fill="#b1b3b3"/><path d="M527.295,341.207c.055.515.5.757,1.079.757.541,0,.867-.212.867-.642,0-.6-.637-.612-1.157-.734-.582-.131-1.311-.363-1.311-1.228,0-.782.582-1.207,1.493-1.207a1.5,1.5,0,0,1,1.612,1.074l-.637.17a.888.888,0,0,0-.982-.649c-.545,0-.805.223-.805.586,0,.492.49.593,1.1.715.63.122,1.369.34,1.369,1.272,0,.819-.575,1.237-1.546,1.237a1.533,1.533,0,0,1-1.72-1.175Z" transform="translate(-487.652 -338.153)" fill="#b1b3b3"/><path d="M528.865,341.207c.053.515.495.757,1.077.757.54,0,.867-.212.867-.642,0-.6-.637-.612-1.159-.734-.579-.131-1.306-.363-1.306-1.228,0-.782.582-1.207,1.49-1.207a1.489,1.489,0,0,1,1.61,1.074l-.635.17a.89.89,0,0,0-.982-.649c-.545,0-.805.223-.805.586,0,.492.49.593,1.095.715.63.122,1.371.34,1.371,1.272,0,.819-.575,1.237-1.546,1.237a1.533,1.533,0,0,1-1.72-1.175Z" transform="translate(-485.613 -338.153)" fill="#b1b3b3"/><path d="M531.906,338.19c1.005,0,1.61.485,1.61,1.371,0,.853-.6,1.364-1.61,1.364h-.715v1.506h-.667V338.19Zm.018,2.146c.616,0,.927-.278.927-.768,0-.511-.333-.766-.927-.766h-.734v1.534Z" transform="translate(-482.62 -338.105)" fill="#b1b3b3"/><path d="M532.816,341.445l-.4.987h-.7l1.753-4.241h.745l1.744,4.241h-.713l-.4-.987Zm1.375-1.631c-.152-.375-.345-.86-.352-.865h-.018s-.2.49-.357.865l-.4,1.026H534.6Z" transform="translate(-481.075 -338.105)" fill="#b1b3b3"/><path d="M535.195,340.851c-.081,0-.248,0-.329,0h-.428v1.576h-.667V338.19h1.4c1.019,0,1.624.515,1.624,1.359a1.135,1.135,0,0,1-.915,1.18l1.026,1.7h-.8Zm.03-.54c.538,0,.883-.2.883-.731s-.331-.777-.908-.777h-.761v1.509Z" transform="translate(-478.399 -338.105)" fill="#b1b3b3"/><path d="M537.284,338.816v3.616h-.667v-3.616h-1.405v-.626h3.478v.626Z" transform="translate(-476.525 -338.105)" fill="#b1b3b3"/><path d="M537.644,339.287h-.012c0,.007.012.511.012,1.042v2.1h-.667V338.19h.681l2.254,3.1h.016s-.011-.515-.011-.994V338.19h.667v4.241H539.9Z" transform="translate(-474.231 -338.105)" fill="#b1b3b3"/><path d="M538.891,338.19h2.932v.626h-2.265v1.109H541.3v.623h-1.739v1.26h2.284v.623h-2.951Z" transform="translate(-471.743 -338.105)" fill="#b1b3b3"/><path d="M541.883,340.851c-.078,0-.248,0-.327,0h-.432v1.576h-.665V338.19h1.4c1.019,0,1.624.515,1.624,1.359a1.135,1.135,0,0,1-.913,1.18l1.023,1.7h-.8Zm.03-.54c.541,0,.886-.2.886-.731s-.336-.777-.911-.777h-.764v1.509Z" transform="translate(-469.704 -338.105)" fill="#b1b3b3"/><path d="M542.693,338.19h.667v4.241h-.667Z" transform="translate(-466.8 -338.105)" fill="#b1b3b3"/><path d="M543.995,339.287h-.012c0,.007.012.511.012,1.042v2.1h-.667V338.19h.678l2.254,3.1h.018s-.011-.515-.011-.994V338.19h.667v4.241h-.678Z" transform="translate(-465.974 -338.105)" fill="#b1b3b3"/><path d="M548.154,340.173a1.058,1.058,0,0,1,.9,1.06c0,.7-.5,1.2-1.472,1.2h-1.7V338.19H547.5a1.141,1.141,0,0,1,1.276,1.067.889.889,0,0,1-.623.89Zm-.745-.212c.407,0,.7-.219.7-.607,0-.357-.274-.6-.734-.6h-.83v1.207Zm.122,1.907c.5,0,.817-.242.817-.683a.735.735,0,0,0-.823-.715h-.982v1.4Z" transform="translate(-462.661 -338.105)" fill="#b1b3b3"/><path d="M547.5,338.19h.665v4.241H547.5Z" transform="translate(-460.547 -338.105)" fill="#b1b3b3"/><path d="M550.251,338.153a2.2,2.2,0,1,1-2.206,2.206A2.133,2.133,0,0,1,550.251,338.153Zm0,3.777a1.574,1.574,0,1,0-1.532-1.571A1.487,1.487,0,0,0,550.251,341.93Z" transform="translate(-459.842 -338.153)" fill="#b1b3b3"/><path d="M553.6,340.814c0-.771.011-1.516.011-1.52H553.6c-.007,0-.182.357-.5.927l-.653,1.164h-.389l-.656-1.145c-.331-.589-.5-.941-.508-.945h-.011s.011.75.011,1.52v1.617h-.667V338.19h.711l1.313,2.351h.018l1.316-2.351h.683v4.241H553.6Z" transform="translate(-457.016 -338.105)" fill="#b1b3b3"/><path d="M552.322,338.19h2.932v.626h-2.266v1.109h1.739v.623h-1.739v1.26h2.284v.623h-2.951Z" transform="translate(-454.282 -338.105)" fill="#b1b3b3"/><path d="M555.472,338.19a2.091,2.091,0,0,1,2.242,2.139,2.054,2.054,0,0,1-2.219,2.1H553.89V338.19Zm-.014,3.618a1.431,1.431,0,0,0,1.582-1.479,1.466,1.466,0,0,0-1.605-1.513h-.879v2.992Z" transform="translate(-452.244 -338.105)" fill="#b1b3b3"/><path d="M555.806,338.19h.667v4.241h-.667Z" transform="translate(-449.753 -338.105)" fill="#b1b3b3"/><path d="M560.53,341.269a2.193,2.193,0,1,1-1.994-3.116,2.043,2.043,0,0,1,1.944,1.182l-.658.177a1.539,1.539,0,1,0-1.323,2.417,1.472,1.472,0,0,0,1.375-.837Z" transform="translate(-449.047 -338.153)" fill="#b1b3b3"/><path d="M559.371,341.445l-.4.987h-.7l1.752-4.241h.745l1.743,4.241H561.8l-.4-.987Zm1.375-1.631c-.152-.375-.345-.86-.352-.865h-.018c-.007,0-.2.49-.357.865l-.407,1.026h1.546Z" transform="translate(-446.554 -338.105)" fill="#b1b3b3"/><path d="M560.325,338.19h.667v3.618h2.127v.623h-2.794Z" transform="translate(-443.878 -338.105)" fill="#b1b3b3"/><path d="M562.972,341.207c.053.515.495.757,1.076.757.541,0,.867-.212.867-.642,0-.6-.637-.612-1.157-.734-.582-.131-1.309-.363-1.309-1.228,0-.782.582-1.207,1.49-1.207a1.5,1.5,0,0,1,1.612,1.074l-.637.17a.89.89,0,0,0-.982-.649c-.545,0-.8.223-.8.586,0,.492.49.593,1.095.715.633.122,1.371.34,1.371,1.272,0,.819-.575,1.237-1.546,1.237a1.533,1.533,0,0,1-1.72-1.175Z" transform="translate(-441.275 -338.153)" fill="#b1b3b3"/><path d="M566.11,338.153a2.2,2.2,0,1,1-2.206,2.206A2.133,2.133,0,0,1,566.11,338.153Zm0,3.777a1.574,1.574,0,1,0-1.532-1.571A1.487,1.487,0,0,0,566.11,341.93Z" transform="translate(-439.226 -338.153)" fill="#b1b3b3"/><path d="M566.078,338.19h.667v3.618h2.128v.623h-2.795Z" transform="translate(-436.4 -338.105)" fill="#b1b3b3"/><path d="M570.935,340.621a1.75,1.75,0,1,1-3.489,0V338.19h.676v2.424c0,.856.347,1.267,1.074,1.267s1.079-.412,1.079-1.267V338.19h.66Z" transform="translate(-434.621 -338.105)" fill="#b1b3b3"/><path d="M571.27,338.816v3.616H570.6v-3.616H569.2v-.626h3.478v.626Z" transform="translate(-432.344 -338.105)" fill="#b1b3b3"/><path d="M570.964,338.19h.665v4.241h-.665Z" transform="translate(-430.048 -338.105)" fill="#b1b3b3"/><path d="M573.712,338.153a2.2,2.2,0,1,1-2.206,2.206A2.134,2.134,0,0,1,573.712,338.153Zm0,3.777a1.574,1.574,0,1,0-1.532-1.571A1.486,1.486,0,0,0,573.712,341.93Z" transform="translate(-429.343 -338.153)" fill="#b1b3b3"/><path d="M574.347,339.287h-.011c0,.007.011.511.011,1.042v2.1h-.667V338.19h.678l2.256,3.1h.016s-.012-.515-.012-.994V338.19h.667v4.241h-.678Z" transform="translate(-426.517 -338.105)" fill="#b1b3b3"/><path d="M576.135,341.207c.055.515.5.757,1.081.757.538,0,.865-.212.865-.642,0-.6-.635-.612-1.157-.734-.582-.131-1.309-.363-1.309-1.228,0-.782.582-1.207,1.49-1.207a1.494,1.494,0,0,1,1.612,1.074l-.637.17a.887.887,0,0,0-.98-.649c-.545,0-.807.223-.807.586,0,.492.492.593,1.1.715.63.122,1.371.34,1.371,1.272,0,.819-.577,1.237-1.546,1.237a1.536,1.536,0,0,1-1.723-1.175Z" transform="translate(-424.16 -338.153)" fill="#b1b3b3"/></g><path d="M471.878,355.179l.189-.11A25.325,25.325,0,0,0,477.014,351c4.032-4.3,3.346-10.589,2.686-13.662a31.387,31.387,0,0,0,6.854-6.1l-4.138-2.387a26.411,26.411,0,0,1-4.06,3.65c-.814-2.673-1.72-5.288-2.5-7.44l-5.35-3.089-.708.409c.764,1.934,2.884,7.436,4.427,12.758a51.138,51.138,0,0,0-4.706,3.034c-6.261,4.692-7.381,12.45-7.427,12.79a31.2,31.2,0,0,0-.26,4.646,16.724,16.724,0,0,0-5.357,6.606l4.147,2.394a10.764,10.764,0,0,1,1.87-3.19,32.625,32.625,0,0,0,1.532,5.152l6.481,3.742.568-.327a27.267,27.267,0,0,1-4.352-11.916C469.551,356.393,471.853,355.193,471.878,355.179Zm-5.117-3.59c.009-.062.881-6.12,5.582-9.644.888-.665,1.99-1.373,3.015-2,.3,2.383.235,5.7-1.8,7.848l-.062.067a20.622,20.622,0,0,1-3.9,3.188c-.336.175-1.449.766-2.958,1.619C466.676,352.313,466.713,351.952,466.761,351.589Z" transform="translate(-444.145 -315.709)" fill="#b1b3b3"/><path d="M477.471,319.25l-26.358,15.219V364.9l26.358,15.217L503.829,364.9V334.469ZM498.4,361.772,478.039,373.53l-.568.327-6.481-3.742-3.4-1.962-4.147-2.394-6.9-3.986V337.6l20.224-11.677.708-.409,5.35,3.089,6.564,3.79,4.138,2.387,4.881,2.82Z" transform="translate(-451.113 -319.25)" fill="#b1b3b3"/></svg>