<svg xmlns="http://www.w3.org/2000/svg" width="294.062" height="78.637" viewBox="0 0 294.062 78.637"><g transform="translate(0)"><g transform="translate(78.881 67.584)"><g transform="translate(10.281)"><path d="M283.217,264.994h4.6a4.214,4.214,0,0,1,3.038,1.07,2.951,2.951,0,0,1,.826,2.107v.03a3.132,3.132,0,0,1-2.9,3.117l3.284,4.368h-1.481l-3.1-4.154h-3.054v4.154h-1.205Zm4.49,5.451c1.6,0,2.746-.823,2.746-2.2v-.03c0-1.313-1.007-2.107-2.732-2.107h-3.3v4.336Z" transform="translate(-283.217 -264.812)" fill="#909194"/><path d="M288.474,270.472v-.03a5.452,5.452,0,1,1,10.9-.032v.032a5.452,5.452,0,1,1-10.9.03Zm9.651,0v-.03a4.25,4.25,0,0,0-4.214-4.414,4.2,4.2,0,0,0-4.184,4.382v.032a4.249,4.249,0,0,0,4.214,4.414A4.2,4.2,0,0,0,298.125,270.472Z" transform="translate(-276.383 -264.915)" fill="#909194"/><path d="M294.987,264.994h4c2.413,0,4,1.283,4,3.39v.03c0,2.307-1.925,3.5-4.2,3.5h-2.594v3.772h-1.208Zm3.848,5.819c1.771,0,2.932-.948,2.932-2.353v-.03c0-1.527-1.145-2.321-2.87-2.321h-2.7v4.7Z" transform="translate(-267.916 -264.812)" fill="#909194"/><path d="M304.094,264.961h1.129l4.871,10.766h-1.3l-1.251-2.827h-5.817l-1.27,2.827h-1.235Zm2.976,6.856-2.427-5.451-2.445,5.451Z" transform="translate(-262.409 -264.855)" fill="#909194"/><path d="M308.232,264.994h1.205v10.69h-1.205Z" transform="translate(-250.698 -264.812)" fill="#909194"/><path d="M310.781,264.994h1.129l6.734,8.568v-8.568h1.175v10.69h-.961l-6.9-8.765v8.765h-1.175Z" transform="translate(-247.384 -264.812)" fill="#909194"/><path d="M319.945,266.11h-3.588v-1.116h8.4v1.116h-3.588v9.575h-1.224Z" transform="translate(-240.135 -264.812)" fill="#909194"/><path d="M321.7,264.994h1.205v10.69H321.7Z" transform="translate(-233.187 -264.812)" fill="#909194"/><path d="M324.251,264.994h1.221l3.894,5.833,3.894-5.833h1.221v10.69h-1.205v-8.659l-3.894,5.727h-.062l-3.894-5.711v8.643h-1.175Z" transform="translate(-229.873 -264.812)" fill="#909194"/><path d="M335.15,264.961h1.129l4.871,10.766h-1.3L338.6,272.9h-5.817l-1.267,2.827h-1.237Zm2.976,6.856-2.427-5.451-2.443,5.451Z" transform="translate(-222.037 -264.855)" fill="#909194"/></g><g transform="translate(0 4.125)"><circle cx="1.237" cy="1.237" r="1.237" transform="translate(134.454)" fill="#909194"/><circle cx="1.237" cy="1.237" r="1.237" fill="#909194"/></g></g><path d="M250.316,252.952a41.357,41.357,0,0,1,7.084-3.8,124.658,124.658,0,0,1,14.858-5.695c5.051-1.569,10.233-2.638,15.447-3.731a203.761,203.761,0,0,1,28.716-4.165c2.535-.315,2.7,1.734,2.7,1.734a2.3,2.3,0,0,1-1.3,2.466s-.706.5-3.781.665c-12.188.292-27.874,3.436-27.874,3.436a136.067,136.067,0,0,0-13.874,3.478c.681.262.414,1.518.262,1.835q-2.556,4.4-4.756,8.922t-3.967,9.248c.306-.044.6-.087.885-.131a7.293,7.293,0,0,0,.885-.2q2.229-.4,4.427-.69t4.494-.426q2.1-.131,4.329-.163s2.017-.016,2.972.055c0,0,1.281-.009,1.005,2.006a1.7,1.7,0,0,1-1.587,1.412s-1-.009-2.358-.03c-1.465-.023-2.919-.023-4.361.064a53.513,53.513,0,0,0-8.331.787c-.614.09-1.214.186-1.8.3s-1.194.23-1.805.361c-.044.175-.087.327-.131.458a3.945,3.945,0,0,1-.2.46q-.921,2.888-1.739,5.773t-1.541,5.837q-.331,1.508-.623,3.082t-.623,3.084q-.262,1.508-.492,3.05a8.337,8.337,0,0,1-1.017,2.919,1.263,1.263,0,0,1-1.378.656,1.329,1.329,0,0,1-1.18-.984,8.333,8.333,0,0,1-.166-3.213c.154-1.093.338-2.164.559-3.215q.328-1.508.623-3.05t.688-3.05a92.306,92.306,0,0,1,3.149-10.821q-2.3.59-4.494,1.311t-4.361,1.573a.835.835,0,0,1-.821-.032,1.336,1.336,0,0,1-.524-.623,1.582,1.582,0,0,1-.1-.853.8.8,0,0,1,.524-.656q2.688-1.245,5.41-2.231T259.7,268.4a120.054,120.054,0,0,1,9.708-20.1q-3.019.983-5.969,2.128t-5.837,2.456a51.8,51.8,0,0,0-5.971,3.206,21.262,21.262,0,0,0-4.244,3.167,2.1,2.1,0,0,1-1.739.589,1.253,1.253,0,0,1-1.185-1.017C244.177,256.664,250.316,252.952,250.316,252.952Z" transform="translate(-244.451 -235.531)" fill="#b2b4b3"/><path d="M270.321,269.092c1.709.465,3.342.492,6.318-.458a34.949,34.949,0,0,0,7.135-3.271c1.99-1.157,4.565-3.213,6.491-4.483l5.051-3.542q.852-.656,1.7-1.247a6.974,6.974,0,0,1,1.9-.918.943.943,0,0,1,1.182.361,1.149,1.149,0,0,1,.131,1.279,7.611,7.611,0,0,1-2.068,2.525q-1.346,1.08-2.59,2-1.839,1.442-3.74,2.82t-3.869,2.624q-1.773,1.18-3.609,2.3a34.8,34.8,0,0,1-3.8,2,23.484,23.484,0,0,1-4,1.511c-7.089,1.732-10.6-1.083-10.6-1.083-4.416-3.28-4.306-8.712-2.587-12.979,4.586-9.752,12.093-11.21,12.093-11.21a9.252,9.252,0,0,1,3.084-.2,6.108,6.108,0,0,1,2.919,1.15,5.2,5.2,0,0,1,2.059,3.947s.722,4.871-4.687,7.549a22.447,22.447,0,0,1-11.422,2.144,11.4,11.4,0,0,0-.2,3.195A4.8,4.8,0,0,0,270.321,269.092Zm-2.53-9.117a19.272,19.272,0,0,0,9.246-1.787c4.453-2.387,3.248-5.81,3.248-5.81a2.864,2.864,0,0,0-2.187-1.805,4.943,4.943,0,0,0-3.271.517,9.16,9.16,0,0,0-2.714,1.884A15.453,15.453,0,0,0,267.791,259.975Z" transform="translate(-221.29 -220.529)" fill="#b2b4b3"/><path d="M346.19,254.559a1.771,1.771,0,0,1,1.541-.688,2.345,2.345,0,0,1,1.412.688,2.541,2.541,0,0,1,.72,1.444,1.945,1.945,0,0,1-.589,1.64,44.673,44.673,0,0,1-4.888,4.46,34.086,34.086,0,0,1-5.543,3.542,42.647,42.647,0,0,1-10.888,3.74,46.21,46.21,0,0,1-6.3.885,12.306,12.306,0,0,1-6.166-1.148,8.8,8.8,0,0,1-4.1-3.8,8.149,8.149,0,0,1-.821-5.446,11.012,11.012,0,0,1,1.017-2.951,15.375,15.375,0,0,0,1.148-3.018,57.136,57.136,0,0,0-7.378,6,49,49,0,0,0-6.2,7.247,2.124,2.124,0,0,1-1.214.886,2.056,2.056,0,0,1-1.311-.1,2.016,2.016,0,0,1-.984-.885,2.188,2.188,0,0,1-.23-1.474q.524-2.888,1.049-5.709t1.051-5.706q-4.854,3.347-9.315,7.052t-8.724,7.838a1.543,1.543,0,0,1-2,.23,2.144,2.144,0,0,1-.688-.819,1.635,1.635,0,0,1-.131-1.116q.524-2.953,1.311-6.428a40.388,40.388,0,0,1,1.9-6.231,1.378,1.378,0,0,1,.819-.853,1.833,1.833,0,0,1,1.083-.067,1.367,1.367,0,0,1,.821.559,1.214,1.214,0,0,1,.1,1.081q-.525,1.573-1.081,3.705t-.886,3.772a103.044,103.044,0,0,1,8.919-7.707q4.657-3.574,9.577-6.723a1.548,1.548,0,0,1,1.148-.294,2.047,2.047,0,0,1,.984.458,2.1,2.1,0,0,1,.623.888,2.376,2.376,0,0,1,.131,1.113q-.393,2.035-.722,4.069l-.656,4.066a53.508,53.508,0,0,1,12.924-10.43,1.7,1.7,0,0,1,1.8-.131,2.717,2.717,0,0,1,1.279,1.378,6.177,6.177,0,0,1,.458,2.624,11.248,11.248,0,0,1-.425,2.558,22.942,22.942,0,0,1-.886,2.493q-.524,1.245-.918,2.491a6.021,6.021,0,0,0-.329,1.9,3.673,3.673,0,0,0,.524,1.838,4.89,4.89,0,0,0,1.576,1.442,7.638,7.638,0,0,0,1.966.789,10.282,10.282,0,0,0,2.624.327,19.474,19.474,0,0,0,2.755-.2q1.376-.2,2.723-.524t2.59-.658A35.37,35.37,0,0,0,346.19,254.559Z" transform="translate(-202.635 -219.325)" fill="#b2b4b3"/><path d="M343.649,265.058q-1.9.921-3.772,1.838t-3.77,1.771q-3.15,1.314-6.265,2.525a48,48,0,0,1-6.461,2,41.592,41.592,0,0,1-5.444.95,17.311,17.311,0,0,1-5.511-.294,8.891,8.891,0,0,1-2.788-1.115,9.732,9.732,0,0,1-2.231-1.87,7.465,7.465,0,0,1-1.442-2.491,6.491,6.491,0,0,1-.294-2.985,10.418,10.418,0,0,1,.819-3.312,15.7,15.7,0,0,1,1.739-3.05q.393-.59.918-1.247a10.056,10.056,0,0,1,1.148-1.214,7.753,7.753,0,0,1,1.313-.95,2.922,2.922,0,0,1,1.474-.4,1.23,1.23,0,0,1,1.247.591,1.93,1.93,0,0,1,.262,1.378,2.54,2.54,0,0,1-.72,1.444,15.043,15.043,0,0,0-1.115,1.244,18.418,18.418,0,0,0-1.576,2.362,13.043,13.043,0,0,0-.984,2.493,3.231,3.231,0,0,0,.265,2.558,3.376,3.376,0,0,0,1.247,1.247,6.353,6.353,0,0,0,1.737.688,9.6,9.6,0,0,0,1.934.265,17.038,17.038,0,0,0,1.838-.034,22.443,22.443,0,0,0,4.657-.754q2.294-.621,4.526-1.343,2.884-.983,5.575-2.132t5.444-2.461l2.951-1.41q1.442-.69,2.886-1.41,1.508-.721,3.018-1.378a15.507,15.507,0,0,1,3.149-.984,2,2,0,0,1,1.081.163,1.939,1.939,0,0,1,.789.658,1.478,1.478,0,0,1,.262.95,1.522,1.522,0,0,1-.492.984,14.276,14.276,0,0,1-3.51,2.689Q345.617,264.077,343.649,265.058Zm-25.417-13.411a1.218,1.218,0,0,1-1.1.5,1.567,1.567,0,0,1-.994-.541,1.955,1.955,0,0,1-.478-1.125,1.566,1.566,0,0,1,.442-1.249,15.186,15.186,0,0,1,2.613-2.374,14.719,14.719,0,0,1,3.057-1.624.974.974,0,0,1,.883.083,1.326,1.326,0,0,1,.518.708,2.125,2.125,0,0,1,.074.957,1.257,1.257,0,0,1-.515.835q-1.18.914-2.321,1.831A22.485,22.485,0,0,0,318.232,251.647Z" transform="translate(-164.937 -223.002)" fill="#b2b4b3"/><path d="M381.6,253.6a1.865,1.865,0,0,1,1.707-.3,2.326,2.326,0,0,1,1.212,1.019,2.439,2.439,0,0,1,.3,1.638,2.171,2.171,0,0,1-.984,1.509q-4.592,3.15-9.414,5.971a53.547,53.547,0,0,1-10.134,4.591,49.459,49.459,0,0,1-4.821,1.247,33.222,33.222,0,0,1-5.019.655,10.118,10.118,0,0,1-4.591-.821,6.9,6.9,0,0,1-3.411-3.05,7.448,7.448,0,0,1-1.017-4.1,21.279,21.279,0,0,1,.623-4.232c.131-.481.262-.971.393-1.474s.283-.994.46-1.477a7.206,7.206,0,0,0,.228-.918c.067-.35.143-.679.23-.984l-1.835.984a72.711,72.711,0,0,0-8,5.214,92.273,92.273,0,0,0-7.346,6.134,9.983,9.983,0,0,1-1.672,1.244,2.742,2.742,0,0,1-2.068.264,3.969,3.969,0,0,1-1.506-.853,3.169,3.169,0,0,1-.92-1.444,3.868,3.868,0,0,1,0-2.229c.221-.789.439-1.529.658-2.231q.328-1.18.656-2.328c.219-.766.435-1.543.656-2.33a1.007,1.007,0,0,1,.524-.656,1.453,1.453,0,0,1,.787-.163,1.152,1.152,0,0,1,.722.361,1.074,1.074,0,0,1,.329.787,28.561,28.561,0,0,1-.46,5.182c0,.087-.023.306-.067.656s-.087.7-.131,1.051a24.446,24.446,0,0,1,3.411-3.282q1.9-1.508,3.74-2.884,1.77-1.311,3.542-2.56t3.673-2.36q.918-.59,1.9-1.182t2.033-1.113a6.787,6.787,0,0,1,1.8-.623,2.811,2.811,0,0,1,1.87.361,2.969,2.969,0,0,1,1.543,1.507,4.67,4.67,0,0,1,.294,2,10.559,10.559,0,0,1-.361,2.164c-.2.722-.361,1.41-.492,2.068q-.2.787-.46,1.737a19.488,19.488,0,0,0-.425,1.9,7.658,7.658,0,0,0-.1,1.868,3.474,3.474,0,0,0,.591,1.707,2.765,2.765,0,0,0,1.378,1.18,5.344,5.344,0,0,0,1.771.361,9.338,9.338,0,0,0,1.9-.131l1.771-.294q2.229-.393,4.4-.952a28.1,28.1,0,0,0,4.264-1.474,54.453,54.453,0,0,0,8.133-4.069Q377.736,256.1,381.6,253.6Z" transform="translate(-141.234 -218.696)" fill="#b2b4b3"/><path d="M406.09,253.124a1.945,1.945,0,0,1,2.068.885,1.934,1.934,0,0,1,.262,1.113,1.745,1.745,0,0,1-.559,1.15,11.359,11.359,0,0,1-3.05,2.164q-1.739.852-3.379,1.7-1.573.787-3.181,1.509t-3.245,1.444q-3.284,1.377-6.594,2.394a46.91,46.91,0,0,1-6.787,1.541,19.553,19.553,0,0,1-3.577.2,9.025,9.025,0,0,1-3.51-.853,7.816,7.816,0,0,1-2.394-1.934,6.232,6.232,0,0,1-1.343-2.788,6.005,6.005,0,0,1,0-2.164l-1.838,1.247q-1.9,1.311-3.869,2.558t-3.938,2.493q-1.835,1.114-3.639,2.231t-3.708,2.1a10.032,10.032,0,0,1-3.606,1.148,5.256,5.256,0,0,1-3.609-.886,4.164,4.164,0,0,1-2.033-2.951,7,7,0,0,1,.524-3.478,15.782,15.782,0,0,1,1.937-3.411,30.844,30.844,0,0,1,2.263-2.753,26.192,26.192,0,0,1,5.246-4.264,27.8,27.8,0,0,1,6.231-2.887,26.117,26.117,0,0,1,6.725-1.214,21.106,21.106,0,0,1,6.723.754,1.677,1.677,0,0,1,.918.722c.306-.35.6-.69.885-1.017a5.9,5.9,0,0,1,.952-.885,1.572,1.572,0,0,1,.787-.327,1.418,1.418,0,0,1,.853.131,1.329,1.329,0,0,1,.589.557,1.038,1.038,0,0,1,0,.886,14.832,14.832,0,0,1-1.343,2.852q-.821,1.346-1.541,2.788c-.352.7-.734,1.509-1.15,2.429a3.347,3.347,0,0,0-.163,2.622,2.55,2.55,0,0,0,1.608,1.576,6.852,6.852,0,0,0,2.558.329,16.511,16.511,0,0,0,2.755-.361c.895-.2,1.628-.361,2.2-.492q2.888-.721,5.61-1.672t5.476-2.132q1.311-.59,2.624-1.214t2.624-1.345q1.311-.652,2.721-1.41A11.278,11.278,0,0,1,406.09,253.124Zm-34.173.589a.43.43,0,0,1-.131-.327.187.187,0,0,1,.064-.131,29.148,29.148,0,0,0-5.38.23,24.286,24.286,0,0,0-5.115,1.279,23.675,23.675,0,0,0-8.986,5.837q-.918.983-1.771,2.065a15.249,15.249,0,0,0-1.509,2.33,8.492,8.492,0,0,0-.393.95.849.849,0,0,0,.2.952,1.189,1.189,0,0,0,1.116.262,5.57,5.57,0,0,0,1.182-.329,23.113,23.113,0,0,0,2.983-1.573q1.476-.918,2.919-1.838,1.508-.918,2.953-1.835t2.951-1.838l5.837-3.8Z" transform="translate(-114.36 -218.478)" fill="#b2b4b3"/></g></svg>