<svg xmlns="http://www.w3.org/2000/svg" width="213.024" height="115.294" viewBox="0 0 213.024 115.294"><g transform="translate(0)"><g transform="translate(0 104.512)"><path d="M293.725,348.97h4.9a5.8,5.8,0,0,1,2.13.324,2.526,2.526,0,0,1,1.281.9,2.58,2.58,0,0,1,.425,1.527,4.735,4.735,0,0,1-.085.853q-.683,3.443-4.832,3.436H295.83l-.554,3.2h-3.353Zm2.939,2.387-.423,2.275h1.449a1.6,1.6,0,0,0,1.074-.391,1.253,1.253,0,0,0,.444-.987c0-.6-.513-.9-1.548-.9Z" transform="translate(-291.922 -348.715)" fill="#b1b3b3"/><path d="M298.043,348.97H303a5.978,5.978,0,0,1,3.075.561,1.836,1.836,0,0,1,.86,1.642,3.761,3.761,0,0,1-.561,2.052,2.622,2.622,0,0,1-1.654,1.159,2.87,2.87,0,0,1,1.065.623,1.522,1.522,0,0,1,.3,1.095A8.257,8.257,0,0,1,306,357.11l-.145.8-.113.695c.028.212.122.315.283.315l-.058.3h-3.379l-.014-.368a7.589,7.589,0,0,1,.085-1.037l.113-1.152c0-.462-.147-.75-.442-.858a5.088,5.088,0,0,0-1.605-.166h-.5l-.639,3.581h-3.351Zm2.942,2.387-.368,2.031h1.419c1.023,0,1.578-.331,1.663-1a.852.852,0,0,0-.076-.515.887.887,0,0,0-.421-.377,1.413,1.413,0,0,0-.61-.14Z" transform="translate(-286.306 -348.715)" fill="#b1b3b3"/><path d="M307.522,348.859a3.915,3.915,0,0,1,4.207,2.553,4.2,4.2,0,0,1,.214.8,5.706,5.706,0,0,1,.071.929v.538l-.057.439a6.723,6.723,0,0,1-1.044,2.712,6.153,6.153,0,0,1-2.226,2.045,6.3,6.3,0,0,1-3.082.764,4.394,4.394,0,0,1-3.4-1.212,4.266,4.266,0,0,1-1.115-3l.041-.4.046-.471.041-.407a7.234,7.234,0,0,1,1.065-2.636,6.015,6.015,0,0,1,2.151-1.9A6.322,6.322,0,0,1,307.522,348.859Zm-.469,2.5q-2.187,0-2.585,3.816c0,1.313.529,1.973,1.578,1.973a2.129,2.129,0,0,0,1.932-1.2,5.183,5.183,0,0,0,.681-2.6,2.388,2.388,0,0,0-.386-1.449A1.418,1.418,0,0,0,307.052,351.357Z" transform="translate(-280.011 -348.859)" fill="#b1b3b3"/><path d="M313.36,353.036a3.015,3.015,0,0,0-.092-.826,1.041,1.041,0,0,0-.35-.5,2,2,0,0,0-1.095-.357,1.868,1.868,0,0,0-1.569.844,5.046,5.046,0,0,0-.846,2.118l-.113,1.051c0,1.18.538,1.776,1.619,1.776.968,0,1.649-.587,2.047-1.75h3.227a6.229,6.229,0,0,1-1.115,2.176A5.627,5.627,0,0,1,313.1,359.1a5.849,5.849,0,0,1-1.194.4c-.2.037-.416.069-.649.1a5.81,5.81,0,0,1-.688.041,4.961,4.961,0,0,1-3.395-1.076,3.735,3.735,0,0,1-.927-1.306,4.784,4.784,0,0,1-.313-1.732l.014-.626.1-.577a6.7,6.7,0,0,1,1.295-3.082,6.069,6.069,0,0,1,2.259-1.8,6.205,6.205,0,0,1,2.558-.58,6.982,6.982,0,0,1,1.576.156,3.84,3.84,0,0,1,1.251.522,2.9,2.9,0,0,1,1.281,1.516,4.772,4.772,0,0,1,.214.92l.055,1.063Z" transform="translate(-273.699 -348.859)" fill="#b1b3b3"/><path d="M312.363,348.97h8.351l-.437,2.387H315.3l-.269,1.477h4.234l-.439,2.385h-4.221l-.271,1.608h5.184l-.409,2.387h-8.556Z" transform="translate(-267.699 -348.715)" fill="#b1b3b3"/><path d="M321.411,352.081c0-.575-.416-.865-1.251-.865-.651,0-1.021.186-1.109.554a.618.618,0,0,0,.23.566,2.988,2.988,0,0,0,.865.382l1.095.271a5.643,5.643,0,0,1,2.2.945,1.919,1.919,0,0,1,.768,1.592l-.044.614a3.616,3.616,0,0,1-1.865,2.675,7.269,7.269,0,0,1-3.519.826,4.5,4.5,0,0,1-3-.948,2.725,2.725,0,0,1-.966-2.148l.014-.354h3.227a.9.9,0,0,0,.437.846,1.9,1.9,0,0,0,.955.248c.812,0,1.293-.23,1.435-.7v-.184a.521.521,0,0,0-.343-.471,9.194,9.194,0,0,0-1.461-.508,7.8,7.8,0,0,1-2.489-.957,1.974,1.974,0,0,1-.865-1.766l.041-.4.044-.338a3.294,3.294,0,0,1,.81-1.582,4.28,4.28,0,0,1,1.718-1.125,6.978,6.978,0,0,1,2.459-.4,4.823,4.823,0,0,1,2.8.764,2.793,2.793,0,0,1,1.01,2.459Z" transform="translate(-262.156 -348.859)" fill="#b1b3b3"/><path d="M325.7,352.081c0-.575-.416-.865-1.249-.865-.653,0-1.026.186-1.106.554a.593.593,0,0,0,.223.566,3.035,3.035,0,0,0,.867.382l1.1.271a5.674,5.674,0,0,1,2.2.945,1.927,1.927,0,0,1,.764,1.592l-.041.614a3.632,3.632,0,0,1-1.87,2.675,7.251,7.251,0,0,1-3.514.826,4.48,4.48,0,0,1-3-.948,2.72,2.72,0,0,1-.968-2.148l.014-.354h3.227a.891.891,0,0,0,.435.846,1.919,1.919,0,0,0,.955.248c.816,0,1.293-.23,1.44-.7v-.184a.523.523,0,0,0-.345-.471,9.345,9.345,0,0,0-1.463-.508,7.842,7.842,0,0,1-2.489-.957,1.977,1.977,0,0,1-.862-1.766l.039-.4.044-.338a3.334,3.334,0,0,1,.81-1.582,4.322,4.322,0,0,1,1.72-1.125,7,7,0,0,1,2.459-.4,4.838,4.838,0,0,1,2.8.764,2.786,2.786,0,0,1,1.007,2.459Z" transform="translate(-256.574 -348.859)" fill="#b1b3b3"/><path d="M331.877,352.081c0-.575-.414-.865-1.249-.865-.653,0-1.024.186-1.111.554a.608.608,0,0,0,.23.566,2.988,2.988,0,0,0,.865.382l1.095.271a5.671,5.671,0,0,1,2.206.945,1.929,1.929,0,0,1,.766,1.592l-.044.614a3.632,3.632,0,0,1-1.87,2.675,7.248,7.248,0,0,1-3.517.826,4.493,4.493,0,0,1-3-.948,2.718,2.718,0,0,1-.966-2.148l.014-.354h3.222a.9.9,0,0,0,.442.846,1.9,1.9,0,0,0,.957.248c.812,0,1.29-.23,1.435-.7v-.184a.525.525,0,0,0-.343-.471,9.493,9.493,0,0,0-1.465-.508,7.848,7.848,0,0,1-2.486-.957,1.974,1.974,0,0,1-.865-1.766l.041-.4.044-.338a3.279,3.279,0,0,1,.812-1.582,4.248,4.248,0,0,1,1.718-1.125,6.961,6.961,0,0,1,2.454-.4,4.826,4.826,0,0,1,2.8.764,2.793,2.793,0,0,1,1.01,2.459Z" transform="translate(-248.55 -348.859)" fill="#b1b3b3"/><path d="M336.171,348.859a4.395,4.395,0,0,1,3.369,1.189,4.289,4.289,0,0,1,.835,1.364,4.384,4.384,0,0,1,.216.8,5.994,5.994,0,0,1,.071.929v.538l-.055.439a6.83,6.83,0,0,1-1.046,2.712,6.147,6.147,0,0,1-2.224,2.045,6.33,6.33,0,0,1-3.087.764,4.386,4.386,0,0,1-3.4-1.212,4.258,4.258,0,0,1-1.118-3l.044-.4.046-.471.039-.407a7.234,7.234,0,0,1,1.065-2.636,6.031,6.031,0,0,1,2.155-1.9A6.285,6.285,0,0,1,336.171,348.859Zm-.467,2.5q-2.187,0-2.588,3.816c0,1.313.524,1.973,1.578,1.973a2.127,2.127,0,0,0,1.932-1.2,5.16,5.16,0,0,0,.681-2.6,2.372,2.372,0,0,0-.391-1.449A1.4,1.4,0,0,0,335.7,351.357Z" transform="translate(-242.768 -348.859)" fill="#b1b3b3"/><path d="M336.381,348.97h3.353l-1.378,7.857h4.6l-.414,2.387h-7.969Z" transform="translate(-236.469 -348.715)" fill="#b1b3b3"/><path d="M339.938,348.97h3.367l-1.095,6.166a1.411,1.411,0,0,1-.025.327l-.046.368q0,1.138,1.295,1.138a1.758,1.758,0,0,0,1.295-.453,2.573,2.573,0,0,0,.623-1.38l1.079-6.166H349.8l-1.04,5.826a5.517,5.517,0,0,1-1.872,3.574,6.13,6.13,0,0,1-3.869,1.127,5.368,5.368,0,0,1-3.16-.782,2.929,2.929,0,0,1-1.088-2.553V355.8a2.785,2.785,0,0,1,.037-.407c.023-.149.041-.26.051-.32a2.5,2.5,0,0,1,.057-.276Z" transform="translate(-231.017 -348.715)" fill="#b1b3b3"/><path d="M344.272,348.97h9.377l-.469,2.7h-3.027l-1.306,7.546h-3.381l1.334-7.546h-3Z" transform="translate(-224.479 -348.715)" fill="#b1b3b3"/><path d="M349.607,348.97h3.353l-1.806,10.244h-3.349Z" transform="translate(-219.273 -348.715)" fill="#b1b3b3"/><path d="M356.582,348.859a3.915,3.915,0,0,1,4.207,2.553,4.786,4.786,0,0,1,.214.8,5.735,5.735,0,0,1,.069.929v.538l-.057.439a6.621,6.621,0,0,1-1.042,2.712,6.128,6.128,0,0,1-2.224,2.045,6.321,6.321,0,0,1-3.084.764,4.39,4.39,0,0,1-3.4-1.212,4.275,4.275,0,0,1-1.113-3l.041-.4.044-.471.041-.407a7.157,7.157,0,0,1,1.067-2.636,5.957,5.957,0,0,1,2.151-1.9A6.306,6.306,0,0,1,356.582,348.859Zm-.469,2.5q-2.187,0-2.583,3.816c0,1.313.524,1.973,1.576,1.973a2.129,2.129,0,0,0,1.932-1.2,5.162,5.162,0,0,0,.683-2.6,2.388,2.388,0,0,0-.393-1.449A1.4,1.4,0,0,0,356.113,351.357Z" transform="translate(-216.23 -348.859)" fill="#b1b3b3"/><path d="M356.746,348.97h3.167l2.656,5.584.287-2.272.58-3.312h3.2l-1.805,10.244h-3.14l-2.673-5.582-.269,2.328-.584,3.255h-3.224Z" transform="translate(-209.997 -348.715)" fill="#b1b3b3"/><path d="M366.521,352.081c0-.575-.419-.865-1.254-.865-.653,0-1.021.186-1.106.554a.606.606,0,0,0,.228.566,2.948,2.948,0,0,0,.867.382l1.095.271a5.647,5.647,0,0,1,2.2.945,1.919,1.919,0,0,1,.768,1.592l-.044.614a3.624,3.624,0,0,1-1.868,2.675,7.26,7.26,0,0,1-3.517.826,4.5,4.5,0,0,1-3-.948,2.73,2.73,0,0,1-.964-2.148l.014-.354h3.225a.894.894,0,0,0,.439.846,1.892,1.892,0,0,0,.952.248c.814,0,1.295-.23,1.435-.7v-.184a.523.523,0,0,0-.338-.471,9.4,9.4,0,0,0-1.465-.508,7.8,7.8,0,0,1-2.486-.957,1.975,1.975,0,0,1-.867-1.766l.041-.4.044-.338a3.335,3.335,0,0,1,.81-1.582,4.28,4.28,0,0,1,1.718-1.125,7.01,7.01,0,0,1,2.461-.4,4.84,4.84,0,0,1,2.8.764,2.8,2.8,0,0,1,1.005,2.459Z" transform="translate(-203.516 -348.859)" fill="#b1b3b3"/><path d="M372.693,352.081c0-.575-.421-.865-1.251-.865-.651,0-1.024.186-1.109.554a.6.6,0,0,0,.225.566,3.054,3.054,0,0,0,.869.382l1.093.271a5.655,5.655,0,0,1,2.206.945,1.923,1.923,0,0,1,.766,1.592l-.044.614a3.624,3.624,0,0,1-1.868,2.675,7.267,7.267,0,0,1-3.517.826,4.491,4.491,0,0,1-3-.948,2.725,2.725,0,0,1-.966-2.148l.014-.354h3.225a.894.894,0,0,0,.439.846,1.9,1.9,0,0,0,.952.248c.814,0,1.295-.23,1.438-.7v-.184a.526.526,0,0,0-.34-.471,9.4,9.4,0,0,0-1.465-.508,7.825,7.825,0,0,1-2.486-.957,1.976,1.976,0,0,1-.867-1.766l.044-.4.039-.338a3.4,3.4,0,0,1,.812-1.582,4.3,4.3,0,0,1,1.718-1.125,7.015,7.015,0,0,1,2.459-.4,4.848,4.848,0,0,1,2.8.764,2.8,2.8,0,0,1,1.005,2.459Z" transform="translate(-195.492 -348.859)" fill="#b1b3b3"/><path d="M370.83,352.145h3.025l-.538,2.942h-2.985Z" transform="translate(-189.991 -344.587)" fill="#b1b3b3"/><path d="M377.364,348.97h3.425l1.861,10.244h-3.34l-.168-1.364h-3.356l-.612,1.364h-3.268Zm-.554,6.75h2.118l-.414-3.666Z" transform="translate(-187.943 -348.715)" fill="#b1b3b3"/><path d="M377.332,352.145h3.029l-.54,2.942h-2.983Z" transform="translate(-181.533 -344.587)" fill="#b1b3b3"/><path d="M385.371,352.081c0-.575-.419-.865-1.251-.865-.656,0-1.023.186-1.109.554a.606.606,0,0,0,.228.566,2.946,2.946,0,0,0,.867.382l1.095.271a5.619,5.619,0,0,1,2.2.945,1.915,1.915,0,0,1,.771,1.592l-.044.614a3.624,3.624,0,0,1-1.868,2.675,7.26,7.26,0,0,1-3.517.826,4.5,4.5,0,0,1-3-.948,2.73,2.73,0,0,1-.964-2.148l.016-.354h3.222a.894.894,0,0,0,.439.846,1.892,1.892,0,0,0,.952.248c.816,0,1.295-.23,1.44-.7v-.184a.527.527,0,0,0-.345-.471,9.252,9.252,0,0,0-1.463-.508,7.8,7.8,0,0,1-2.486-.957,1.979,1.979,0,0,1-.865-1.766l.041-.4.044-.338a3.29,3.29,0,0,1,.807-1.582,4.3,4.3,0,0,1,1.718-1.125,7.01,7.01,0,0,1,2.461-.4,4.815,4.815,0,0,1,2.8.764,2.787,2.787,0,0,1,1.01,2.459Z" transform="translate(-179.011 -348.859)" fill="#b1b3b3"/><path d="M383.509,352.145h3.024l-.543,2.942h-2.983Z" transform="translate(-173.51 -344.587)" fill="#b1b3b3"/></g><path d="M340.71,313.294l-.094,7.489,8.883-2.477s12.618,7.528,11.21,25.866l.842.382s12.627-17.459-13.305-32.642Z" transform="translate(-228.62 -292.378)" fill="#a2a4a4"/><path d="M336.223,329.257l1.531,1.869-5.434,9.507h-2.893l.349-5.035Z" transform="translate(-243.165 -269.83)" fill="#a2a4a4"/><path d="M347.212,324.267l-2.246,2.942,8.664,21.9,26.729-5.885-23.988,2.459Z" transform="translate(-222.965 -276.317)" fill="#a2a4a4"/><path d="M367.959,310.986l-4.308,5.775s-15.518-4.3-28.318,6.456l1.927,8.494-7.027-3.4a28.019,28.019,0,0,0,1.543,30.063s-15.681-16.019-5.2-34.935l4.085-2.716,2.351-2.167S344.959,304.417,367.959,310.986Z" transform="translate(-251.561 -295.845)" fill="#a2a4a4"/><path d="M379.283,332.459s-18.973,16.735-39.813,7.335l6.226-10.536-23.444,5.663-.113,34.093,6.346-10.532s43.946,28.428,71.24-19.486L383.3,342.62Z" transform="translate(-252.639 -269.83)" fill="#b1b3b3"/><path d="M348.555,344.747l8.685,4.225s10.532-17.639-13.308-32.642l10.361-1.9-1.472-5.916s36.471,12.6,24.465,49.974l9.287,4.646-28.881,3.358Z" transform="translate(-224.309 -296.797)" fill="#b1b3b3"/><path d="M381.549,321.051l-17.894,3.284,3.473-5.587s-20.159-6.136-33.75,8.834l-2.194-8.91-8.218.718s19.028-23.752,50.6-11.44l3.6-4.531Z" transform="translate(-251.565 -303.419)" fill="#b1b3b3"/><path d="M317.477,312.089l24.842-2.038,4.039,16.535L337.72,322.4s-8.784,17.537,5.2,34.935l-10.6,2.558.012,16.415s-33.762-23.892-8.618-60.929Z" transform="translate(-262.7 -294.797)" fill="#b1b3b3"/><g transform="translate(87.739 3.047)"><path d="M334.6,310.9l8.042-5.776,2.718,6.343Z" transform="translate(-324.18 -304.246)" fill="#fff"/><path d="M340.263,307.893l-8.155,6.036-2.039-6.512Z" transform="translate(-330.07 -301.269)" fill="#fff"/><line x1="1.475" y1="4.587" transform="translate(8.719 2.013)" fill="none" stroke="#fff" stroke-miterlimit="10" stroke-width="0.137"/><path d="M337.283,305.087c-.159-.458-1.352-.458-2.67,0s-2.249,1.2-2.093,1.656,1.357.458,2.668,0S337.442,305.545,337.283,305.087Z" transform="translate(-326.907 -304.744)" fill="#fff" fill-rule="evenodd"/></g><g transform="translate(135.819 25.56)"><path d="M353.794,321.353l-1.417,3.512,11.666-5.72-3.908-1.017A29.279,29.279,0,0,0,353.794,321.353Z" transform="translate(-349.15 -309.857)" fill="#fff"/><path d="M362.354,320.224a5.69,5.69,0,1,1-5.69-5.692A5.693,5.693,0,0,1,362.354,320.224Z" transform="translate(-350.974 -314.532)" fill="#fff"/></g><path d="M320.739,318.028s-2.344,13.593,4,22.577" transform="translate(-255.01 -284.427)" fill="none" stroke="#fff" stroke-linecap="round" stroke-linejoin="round" stroke-width="0.411"/><path d="M317.872,322.486s3.473,2.19,2.569,10.867l5.587-1.734s-3.85-4.156-1.812-11.323C324.215,320.3,318.4,322.253,317.872,322.486Z" transform="translate(-258.187 -281.479)" fill="#fff"/><path d="M340.041,344.731a9.386,9.386,0,0,1,5.209-2.155" transform="translate(-229.367 -252.515)" fill="#fff" stroke="#fff" stroke-linecap="round" stroke-linejoin="round" stroke-width="0.154"/><path d="M343.218,343.387s2.661-1.983,5.15-1.812" transform="translate(-225.237 -253.83)" fill="#fff" stroke="#fff" stroke-linecap="round" stroke-linejoin="round" stroke-width="0.154"/><path d="M338.612,338.442l4.417,11.838,2.832-.963-4.471-11.836Z" transform="translate(-231.225 -259.138)" fill="#fff"/><path d="M341.935,337.317l4.252,11.951,2.718-.906L344.62,336.3Z" transform="translate(-226.905 -260.674)" fill="#fff"/><path d="M338.1,340.194a12.088,12.088,0,0,0,3.795-.851l7.532-2.887a4.637,4.637,0,0,1,1.594-.32" transform="translate(-231.896 -260.89)" fill="none" stroke="#fff" stroke-linecap="round" stroke-linejoin="round" stroke-width="0.154"/><g transform="translate(88.729 33.76)"><path d="M336.779,330.035l.862,4.3-4.273.858L330.5,320.957l6.82-1.373a6.911,6.911,0,0,1,3.215-.048,4.54,4.54,0,0,1,2.459,1.748,5.68,5.68,0,0,1,.918,2.192,4.8,4.8,0,0,1-.89,4.154,4.346,4.346,0,0,1-1.64,1.283,9.866,9.866,0,0,1-1.955.589Zm-.706-3.491,2.088-.421a2.035,2.035,0,0,0,1.24-.642,1.379,1.379,0,0,0,.237-1.168,1.343,1.343,0,0,0-.669-.968,1.988,1.988,0,0,0-1.392-.113l-2.088.421Z" transform="translate(-330.5 -316.444)" fill="#b1b3b3"/><path d="M348.6,321.7l-4.119.83a1.655,1.655,0,0,0-1.978-.925,2.162,2.162,0,0,0-1.051.492.693.693,0,0,0-.269.662c.069.331.384.522.952.566l2.884.246a9.589,9.589,0,0,1,3.56.833,3.538,3.538,0,0,1,1.792,2.583,4.342,4.342,0,0,1-1.2,4.108,7.707,7.707,0,0,1-4.117,2.077,8.149,8.149,0,0,1-3.813-.06A4.923,4.923,0,0,1,338.249,331a6.5,6.5,0,0,1-.674-1.633l4.368-.879a1.589,1.589,0,0,0,.807,1.095,2.541,2.541,0,0,0,1.7.145,2.79,2.79,0,0,0,1.244-.552.92.92,0,0,0,.407-.918.708.708,0,0,0-.421-.506,3.43,3.43,0,0,0-.987-.212l-3-.308a8.2,8.2,0,0,1-2.608-.612,3.7,3.7,0,0,1-2.13-2.742,3.926,3.926,0,0,1,1.454-3.947,7.56,7.56,0,0,1,3.517-1.624q3.44-.693,5.265.915A5.03,5.03,0,0,1,348.6,321.7Z" transform="translate(-322.224 -318.097)" fill="#b1b3b3"/></g></g></svg>