<svg xmlns="http://www.w3.org/2000/svg" xmlns:xlink="http://www.w3.org/1999/xlink" width="155.142" height="114.206" viewBox="0 0 155.142 114.206"><defs><clipPath id="a"><path d="M537.9,417.663l-155.141-12.33V303.457L537.9,315.789Z" transform="translate(-382.756 -303.457)" fill="none"/></clipPath></defs><path d="M537.9,417.663l-155.141-12.33V303.457L537.9,315.789Z" transform="translate(-382.756 -303.457)" fill="#b1b3b3"/><g transform="translate(11.576 19.933)"><path d="M397.587,375.512a3.882,3.882,0,0,1-3.881-3.881V344.911h-1.615a3.881,3.881,0,0,1-3.879-3.879v-8.824a3.881,3.881,0,0,1,3.879-3.879h1.689a17.466,17.466,0,0,1,2.767-8.659,15.048,15.048,0,0,1,8.332-5.9,28.014,28.014,0,0,1,7.867-.917c.953,0,3.438.051,7.6.159a3.883,3.883,0,0,1,3.78,3.879v10.428a3.876,3.876,0,0,1-.87,2.445,3.867,3.867,0,0,1,.87,2.447v8.824a3.883,3.883,0,0,1-3.882,3.879h-3.86V371.63a3.88,3.88,0,0,1-3.879,3.881Z" transform="translate(-388.211 -312.849)" fill="#fff"/><path d="M433.172,367.326a3.88,3.88,0,0,1-3.357-1.942l-2.224-3.845-2.309,3.888a3.873,3.873,0,0,1-3.334,1.9H405.625a3.879,3.879,0,0,1-3.222-6.044L414.749,342.9,403.6,326.174a3.879,3.879,0,0,1,3.23-6.031h16.2a3.886,3.886,0,0,1,3.37,1.952l1.2,2.1,1.146-2.059a3.878,3.878,0,0,1,3.387-1.991h16.407a3.879,3.879,0,0,1,3.217,6.048l-11.3,16.772,12.233,18.33a3.882,3.882,0,0,1-3.23,6.033Z" transform="translate(-373.026 -304.664)" fill="#fff"/><path d="M439.854,369.228c-5.448,0-9.89-1.543-13.213-4.593a13.945,13.945,0,0,1-4.584-10.717A14.443,14.443,0,0,1,428,341.8h-.461a3.892,3.892,0,0,1-3.875-4.132c.363-5.56,2.15-9.843,5.31-12.723,3.952-3.621,9.8-5.384,17.856-5.384,10.059,0,16.776,2.3,20.528,7.046,2.311,2.882,3.444,6.916,3.444,12.313V356c.026,2.729.331,3.831.62,4.255a3.029,3.029,0,0,0,.834.906,3.756,3.756,0,0,1,1.169,4.236,3.877,3.877,0,0,1-3.657,2.583H453.65a3.876,3.876,0,0,1-3-1.415c-.043.027-.087.055-.132.078a20.667,20.667,0,0,1-10.666,2.581Z" transform="translate(-350.228 -305.321)" fill="#fff"/><path d="M410.455,338.981v30.6H395.535v-30.6h-5.5v-8.824h5.5v-1.844a14.856,14.856,0,0,1,2.167-8.5,11.178,11.178,0,0,1,6.214-4.372,24.571,24.571,0,0,1,6.778-.76q1.366,0,7.5.159v10.428q-1.563-.162-2.326-.161-3.326,0-4.412,1.2a4.082,4.082,0,0,0-1,2.888v.961h7.74v8.824Z" transform="translate(-386.16 -310.798)" fill="#b1b3b3"/><path d="M433.731,340.9,447.4,361.393H431.118l-5.533-9.584-5.692,9.584H403.572l13.792-20.532-12.591-18.89h16.2l4.612,8.06,4.491-8.06h16.407Z" transform="translate(-370.973 -302.612)" fill="#b1b3b3"/><path d="M439.649,335.862H425.491q.442-6.819,4.051-10.106,4.769-4.371,15.24-4.37,13.071,0,17.485,5.573,2.6,3.247,2.6,9.9v17.088a14.593,14.593,0,0,0,1,5.934,6.8,6.8,0,0,0,1.846,2.165H451.6a12.79,12.79,0,0,1-.843-2.364,11.86,11.86,0,0,1-.4-2.127,14.232,14.232,0,0,1-3.85,3.688,16.805,16.805,0,0,1-8.7,2.048q-6.7,0-10.588-3.57a10.166,10.166,0,0,1-3.33-7.861,10.692,10.692,0,0,1,5.7-9.866q2.964-1.725,10.987-3.171,6.577-1.2,7.979-2a2.917,2.917,0,0,0,1.647-2.606,2.613,2.613,0,0,0-.562-1.645q-1.244-1.525-4.333-1.524a6.682,6.682,0,0,0-4.692,1.483,3.218,3.218,0,0,0-1,2.487C439.609,335.261,439.621,335.541,439.649,335.862Zm10.707,7.661a11.844,11.844,0,0,1-3.207,1.925,36.152,36.152,0,0,1-4.773,1.445,7.778,7.778,0,0,0-3.57,1.564,3.005,3.005,0,0,0-.923,2.2,2.969,2.969,0,0,0,.923,2.167,5.093,5.093,0,0,0,3.608,1.161,7.414,7.414,0,0,0,6.418-2.924,9.312,9.312,0,0,0,1.524-5.537Z" transform="translate(-348.177 -303.269)" fill="#b1b3b3"/></g><g transform="translate(133.605 56.084)"><path d="M447.225,336.739v1.424a.684.684,0,0,0-.221.087.613.613,0,0,0-.193.52.725.725,0,0,0,.076.35.259.259,0,0,0,.231.146.226.226,0,0,0,.2-.161,5.732,5.732,0,0,0,.172-.588,9.108,9.108,0,0,1,.31-1.042,1.337,1.337,0,0,1,1.282-.936,1.427,1.427,0,0,1,.942.348,2.193,2.193,0,0,1,.683,1.781,2.629,2.629,0,0,1-.41,1.532,1.431,1.431,0,0,1-1.248.652V339.4a.893.893,0,0,0,.28-.087.7.7,0,0,0,.278-.652,1.034,1.034,0,0,0-.1-.471.3.3,0,0,0-.276-.18.254.254,0,0,0-.242.153c-.023.049-.07.182-.138.4a13.541,13.541,0,0,1-.422,1.305,1.372,1.372,0,0,1-2.318.361,1.491,1.491,0,0,1-.3-.564,3.724,3.724,0,0,1-.115-.957,2,2,0,0,1,.6-1.64A1.67,1.67,0,0,1,447.225,336.739Z" transform="translate(-445.712 -322.416)" fill="#fff"/><path d="M445.763,334.4h4.784v1.439h-1.885v1.454h1.885v1.437h-4.784v-1.437h1.653v-1.454h-1.653Z" transform="translate(-445.655 -324.818)" fill="#fff"/><path d="M445.712,334.391a2.574,2.574,0,0,1,4.471-1.564,2.435,2.435,0,0,1-1.963,4.024,2.378,2.378,0,0,1-1.98-.84A2.517,2.517,0,0,1,445.712,334.391Zm1.184.043a.821.821,0,0,0,.416.732,1.9,1.9,0,0,0,1.8,0,.877.877,0,0,0,0-1.492,1.881,1.881,0,0,0-1.8,0A.848.848,0,0,0,446.9,334.434Z" transform="translate(-445.712 -327.524)" fill="#fff"/><path d="M449.082,332.664h1.464V334.1h-4.784v-2.275a2.583,2.583,0,0,1,.164-1.017,1.5,1.5,0,0,1,.611-.673,1.79,1.79,0,0,1,.932-.252,1.566,1.566,0,0,1,1.048.369,1.78,1.78,0,0,1,.564,1.441Zm-2.146,0h1.023v-.732a.671.671,0,0,0-.091-.386.5.5,0,0,0-.437-.2.437.437,0,0,0-.456.272.9.9,0,0,0-.038.3Z" transform="translate(-445.655 -329.884)" fill="#fff"/></g><g clip-path="url(#a)"><g transform="translate(142.801 10.91)"><rect width="1.243" height="103.119" transform="translate(7.445 0.08)" fill="#fff"/><rect width="0.443" height="103.12" transform="translate(9.52 0.84)" fill="#fff"/><rect width="2.974" height="103.119" transform="translate(2.431 0.049)" fill="#fff"/><rect width="1.151" height="103.23" fill="#fff"/></g></g><g transform="translate(32.671 91.046)"><g transform="translate(6.004)"><path d="M404.259,350.58a.175.175,0,0,1-.161-.108l-.461-1.144h-1.749l-.471,1.146a.174.174,0,0,1-.159.106h-.106a.168.168,0,0,1-.142-.076.174.174,0,0,1-.017-.161l1.573-3.841a.174.174,0,0,1,.159-.106c.072,0,.236.042.261.106l1.541,3.843a.175.175,0,0,1-.019.161.171.171,0,0,1-.142.074Zm-.8-1.687-.688-1.73-.7,1.73Z" transform="translate(-400.98 -346.317)" fill="#fff"/><path d="M403.663,349.063h-1.982l-.514,1.254h-.106l1.573-3.841h.1l1.539,3.841h-.106Zm-.042-.089-.94-2.366-.957,2.366Z" transform="translate(-400.89 -346.226)" fill="#fff"/><path d="M404.778,350.7a1.8,1.8,0,0,1-1.339-.562,2.205,2.205,0,0,1-.581-1.594,2.265,2.265,0,0,1,.558-1.589,1.806,1.806,0,0,1,1.39-.6,1.836,1.836,0,0,1,1.031.3,1.674,1.674,0,0,1,.55.6.176.176,0,0,1-.009.174.168.168,0,0,1-.144.081l-.121-.006a.165.165,0,0,1-.142-.087,1.329,1.329,0,0,0-.106-.155,1.273,1.273,0,0,0-1.053-.465,1.381,1.381,0,0,0-1.076.452,1.865,1.865,0,0,0-.448,1.312,1.924,1.924,0,0,0,.206.938,1.554,1.554,0,0,0,.622.618,1.424,1.424,0,0,0,.658.153,1.316,1.316,0,0,0,.834-.276,1.415,1.415,0,0,0,.511-.734.171.171,0,0,1,.165-.125h0a.28.28,0,0,1,.18.07c.032.042.089.1.076.149a1.775,1.775,0,0,1-.263.567,1.924,1.924,0,0,1-.673.588,1.8,1.8,0,0,1-.832.2Z" transform="translate(-398.874 -346.358)" fill="#fff"/><path d="M406.287,349.213a1.589,1.589,0,0,1-.238.511,1.753,1.753,0,0,1-.611.537,1.7,1.7,0,0,1-1.967-.333,2.036,2.036,0,0,1-.533-1.475,2.084,2.084,0,0,1,.514-1.473,1.631,1.631,0,0,1,1.263-.541,1.659,1.659,0,0,1,.936.27,1.478,1.478,0,0,1,.492.535l-.112-.006a1.459,1.459,0,0,0-.123-.178,1.444,1.444,0,0,0-1.186-.528,1.555,1.555,0,0,0-1.2.507,2.024,2.024,0,0,0-.492,1.428,2.071,2.071,0,0,0,.227,1.021,1.715,1.715,0,0,0,.69.685,1.613,1.613,0,0,0,.741.174,1.5,1.5,0,0,0,.94-.31,1.607,1.607,0,0,0,.571-.826Z" transform="translate(-398.783 -346.267)" fill="#fff"/><path d="M406.871,350.7a1.8,1.8,0,0,1-1.339-.562,2.2,2.2,0,0,1-.581-1.594,2.265,2.265,0,0,1,.558-1.589,1.806,1.806,0,0,1,1.39-.6,1.836,1.836,0,0,1,1.031.3,1.673,1.673,0,0,1,.55.6.176.176,0,0,1-.008.174.168.168,0,0,1-.144.081l-.121-.006a.174.174,0,0,1-.144-.087,1.084,1.084,0,0,0-.1-.155,1.273,1.273,0,0,0-1.053-.465,1.381,1.381,0,0,0-1.076.452,1.865,1.865,0,0,0-.448,1.312,1.925,1.925,0,0,0,.206.938,1.542,1.542,0,0,0,.622.618,1.424,1.424,0,0,0,.658.153,1.315,1.315,0,0,0,.834-.276,1.413,1.413,0,0,0,.511-.734.171.171,0,0,1,.166-.125h0a.28.28,0,0,1,.18.07c.032.042.089.1.076.149a1.777,1.777,0,0,1-.263.567,1.926,1.926,0,0,1-.673.588,1.8,1.8,0,0,1-.832.2Z" transform="translate(-396.525 -346.358)" fill="#fff"/><path d="M408.38,349.213a1.593,1.593,0,0,1-.238.511,1.755,1.755,0,0,1-.611.537,1.7,1.7,0,0,1-1.967-.333,2.036,2.036,0,0,1-.533-1.475,2.083,2.083,0,0,1,.514-1.473,1.631,1.631,0,0,1,1.263-.541,1.658,1.658,0,0,1,.936.27,1.5,1.5,0,0,1,.492.535l-.115-.006a1.429,1.429,0,0,0-.119-.178,1.454,1.454,0,0,0-1.188-.528,1.556,1.556,0,0,0-1.2.507,2.024,2.024,0,0,0-.492,1.428,2.071,2.071,0,0,0,.227,1.021,1.715,1.715,0,0,0,.69.685,1.614,1.614,0,0,0,.741.174,1.5,1.5,0,0,0,.94-.31,1.606,1.606,0,0,0,.571-.826Z" transform="translate(-396.434 -346.267)" fill="#fff"/><path d="M407.263,350.58a.171.171,0,0,1-.172-.172v-3.841a.171.171,0,0,1,.172-.172h2.564a.171.171,0,0,1,.172.172c0,.1-.076.263-.172.263h-2.3V348.2h2.148a.173.173,0,0,1,.174.172c0,.1-.079.263-.174.263h-2.148v1.513h2.3a.171.171,0,0,1,.172.172c0,.1-.076.263-.172.263Z" transform="translate(-394.123 -346.317)" fill="#fff"/><path d="M407.172,350.317v-3.841h2.564v.091h-2.477v1.711h2.322v.091h-2.322v1.857h2.477v.091Z" transform="translate(-394.032 -346.226)" fill="#fff"/><path d="M410.44,350.695a1.8,1.8,0,0,1-1.22-.388,1.462,1.462,0,0,1-.452-1.165l0-.159a.173.173,0,0,1,.174-.163c.093,0,.259.076.259.172l0,.119a1.051,1.051,0,0,0,.31.864,1.364,1.364,0,0,0,.942.289,1.447,1.447,0,0,0,.781-.187.72.72,0,0,0,.363-.641.485.485,0,0,0-.225-.456,2.462,2.462,0,0,0-.645-.248l-.758-.206a2.612,2.612,0,0,1-.664-.25.883.883,0,0,1-.314-.346.958.958,0,0,1-.1-.446,1.043,1.043,0,0,1,.185-.6,1.432,1.432,0,0,1,1.269-.524,1.558,1.558,0,0,1,1.316.535,1.31,1.31,0,0,1,.259.821v.106a.174.174,0,0,1-.174.172c-.1,0-.27-.078-.27-.172a.965.965,0,0,0-.221-.732,1.555,1.555,0,0,0-1.7-.083.588.588,0,0,0-.172.212.607.607,0,0,0-.062.267.475.475,0,0,0,.106.312.68.68,0,0,0,.3.2c.066.025.185.059.352.108l.762.208a4.838,4.838,0,0,1,.548.178.983.983,0,0,1,.639.944,1.147,1.147,0,0,1-.287.768,1.652,1.652,0,0,1-1.307.49Z" transform="translate(-392.241 -346.357)" fill="#fff"/><path d="M408.855,348.9h.087c0,.074,0,.136,0,.18a1.172,1.172,0,0,0,.367.932,1.524,1.524,0,0,0,1.057.331,1.62,1.62,0,0,0,.874-.212.894.894,0,0,0,.441-.787.653.653,0,0,0-.306-.6,2.649,2.649,0,0,0-.69-.267l-.76-.206a2.48,2.48,0,0,1-.618-.231.716.716,0,0,1-.253-.28.777.777,0,0,1-.085-.365.864.864,0,0,1,.157-.5,1.264,1.264,0,0,1,1.125-.45,1.391,1.391,0,0,1,1.178.467,1.122,1.122,0,0,1,.223.717v.106h-.1v-.072a1.056,1.056,0,0,0-.272-.783,1.724,1.724,0,0,0-1.921-.1.8.8,0,0,0-.3.618.656.656,0,0,0,.144.42.866.866,0,0,0,.376.253c.072.025.2.064.367.112l.764.21a5.363,5.363,0,0,1,.522.166.812.812,0,0,1,.537.789.96.96,0,0,1-.242.654,1.488,1.488,0,0,1-1.178.433,1.632,1.632,0,0,1-1.106-.346,1.289,1.289,0,0,1-.395-1.036C408.849,349.014,408.851,348.963,408.855,348.9Z" transform="translate(-392.15 -346.266)" fill="#fff"/><path d="M412.608,350.7a1.835,1.835,0,0,1-1.415-.613,2.248,2.248,0,0,1-.541-1.549,2.225,2.225,0,0,1,.543-1.562,1.872,1.872,0,0,1,1.439-.613,1.8,1.8,0,0,1,1.388.613,2.5,2.5,0,0,1,0,3.111,1.819,1.819,0,0,1-1.414.613Zm-.028-3.9a1.347,1.347,0,0,0-1.061.469,2.063,2.063,0,0,0,0,2.532,1.5,1.5,0,0,0,2.182,0,2.08,2.08,0,0,0,0-2.53,1.418,1.418,0,0,0-1.118-.471Z" transform="translate(-390.127 -346.358)" fill="#fff"/><path d="M412.541,346.439A1.627,1.627,0,0,1,413.8,347a2.318,2.318,0,0,1,0,2.878,1.758,1.758,0,0,1-2.57,0,2.333,2.333,0,0,1,0-2.878A1.7,1.7,0,0,1,412.541,346.439Zm-.053.091a1.527,1.527,0,0,0-1.191.526,2.234,2.234,0,0,0,0,2.761,1.673,1.673,0,0,0,2.436,0,1.989,1.989,0,0,0,.475-1.375,1.969,1.969,0,0,0-.475-1.386A1.6,1.6,0,0,0,412.488,346.53Z" transform="translate(-390.035 -346.267)" fill="#fff"/><path d="M415.724,350.58a.173.173,0,0,1-.165-.121,1.847,1.847,0,0,1-.057-.414,4.6,4.6,0,0,0-.068-.849.5.5,0,0,0-.191-.293,1.285,1.285,0,0,0-.685-.138h-1.239v1.643a.171.171,0,0,1-.172.172c-.1,0-.261-.076-.261-.172v-3.841a.173.173,0,0,1,.174-.172h1.4a3.093,3.093,0,0,1,.647.055,1.1,1.1,0,0,1,.692.473,1.187,1.187,0,0,1,.185.662,1.056,1.056,0,0,1-.405.872.82.82,0,0,1-.112.079.9.9,0,0,1,.433.707c.015.134.032.395.045.789a1.215,1.215,0,0,0,.047.323.169.169,0,0,1-.025.155.172.172,0,0,1-.14.07Zm-1.159-2.25a1.142,1.142,0,0,0,.741-.206.653.653,0,0,0,.242-.543.675.675,0,0,0-.344-.628.942.942,0,0,0-.378-.108c-.1-.011-.248-.015-.437-.015h-1.072v1.5Z" transform="translate(-387.62 -346.317)" fill="#fff"/><path d="M412.967,350.317v-3.841h1.4a2.842,2.842,0,0,1,.609.051.934.934,0,0,1,.586.4,1.02,1.02,0,0,1,.155.569.882.882,0,0,1-.34.736.95.95,0,0,1-.316.17,1.792,1.792,0,0,1-.265.053,1.419,1.419,0,0,1,.482.136.724.724,0,0,1,.357.584c.015.132.03.386.045.775a1.512,1.512,0,0,0,.053.369h-.1a1.757,1.757,0,0,1-.051-.374,4.828,4.828,0,0,0-.074-.887.656.656,0,0,0-.263-.388,1.436,1.436,0,0,0-.8-.168h-1.392v1.817Zm.087-1.906h1.42a1.3,1.3,0,0,0,.851-.244.829.829,0,0,0,.3-.677.843.843,0,0,0-.427-.775,1.045,1.045,0,0,0-.45-.132,4.144,4.144,0,0,0-.454-.017h-1.244Z" transform="translate(-387.528 -346.226)" fill="#fff"/><path d="M414.885,350.58a.171.171,0,0,1-.172-.172v-3.841a.171.171,0,0,1,.172-.172c.1,0,.259.076.259.172v3.841a.171.171,0,0,1-.172.172Z" transform="translate(-385.569 -346.317)" fill="#fff"/><path d="M414.881,346.476v3.841h-.087v-3.841Z" transform="translate(-385.478 -346.226)" fill="#fff"/><path d="M417.262,350.7a1.832,1.832,0,0,1-1.416-.613,2.51,2.51,0,0,1,0-3.111,1.864,1.864,0,0,1,1.437-.613,1.8,1.8,0,0,1,1.388.613,2.5,2.5,0,0,1,0,3.111,1.817,1.817,0,0,1-1.411.613Zm-.028-3.9a1.344,1.344,0,0,0-1.061.469,2.06,2.06,0,0,0,0,2.532,1.5,1.5,0,0,0,2.18,0,1.844,1.844,0,0,0,.429-1.261,1.825,1.825,0,0,0-.429-1.271,1.427,1.427,0,0,0-1.119-.469Z" transform="translate(-384.902 -346.358)" fill="#fff"/><path d="M417.194,346.439a1.628,1.628,0,0,1,1.261.558,2.325,2.325,0,0,1,0,2.878,1.758,1.758,0,0,1-2.57,0,2.333,2.333,0,0,1,0-2.878A1.7,1.7,0,0,1,417.194,346.439Zm-.051.091a1.52,1.52,0,0,0-1.19.526,2.234,2.234,0,0,0,0,2.761,1.673,1.673,0,0,0,2.436,0,1.989,1.989,0,0,0,.475-1.375,1.969,1.969,0,0,0-.475-1.386A1.6,1.6,0,0,0,417.143,346.53Z" transform="translate(-384.812 -346.267)" fill="#fff"/><path d="M419.148,350.695a1.8,1.8,0,0,1-1.22-.388,1.462,1.462,0,0,1-.452-1.165c0-.1.081-.323.176-.323s.261.076.261.172v.117a1.068,1.068,0,0,0,.306.866,1.377,1.377,0,0,0,.944.289,1.46,1.46,0,0,0,.783-.187.725.725,0,0,0,.359-.641.483.483,0,0,0-.223-.456,2.572,2.572,0,0,0-.645-.248l-.758-.206a2.615,2.615,0,0,1-.664-.25.875.875,0,0,1-.314-.348.957.957,0,0,1-.106-.443,1.044,1.044,0,0,1,.187-.6,1.426,1.426,0,0,1,1.267-.526,1.563,1.563,0,0,1,1.318.535,1.314,1.314,0,0,1,.259.821v.106a.174.174,0,0,1-.174.172c-.1,0-.27-.078-.27-.172a.956.956,0,0,0-.223-.732,1.255,1.255,0,0,0-.917-.295,1.27,1.27,0,0,0-.777.212.619.619,0,0,0-.172.214.6.6,0,0,0-.064.265.462.462,0,0,0,.108.312.7.7,0,0,0,.3.2c.066.025.187.059.354.108l.762.208a5.708,5.708,0,0,1,.548.176.987.987,0,0,1,.639.946,1.138,1.138,0,0,1-.289.768,1.644,1.644,0,0,1-1.305.49Z" transform="translate(-382.468 -346.357)" fill="#fff"/><path d="M417.561,348.9h.089c0,.074,0,.136,0,.18a1.172,1.172,0,0,0,.367.932,1.524,1.524,0,0,0,1.057.331,1.625,1.625,0,0,0,.874-.212.9.9,0,0,0,.441-.787.657.657,0,0,0-.306-.6,2.648,2.648,0,0,0-.69-.267l-.76-.206a2.481,2.481,0,0,1-.618-.231.7.7,0,0,1-.253-.28.779.779,0,0,1-.087-.365.879.879,0,0,1,.157-.5,1.267,1.267,0,0,1,1.125-.45,1.4,1.4,0,0,1,1.18.467,1.135,1.135,0,0,1,.223.717v.106h-.1v-.072a1.064,1.064,0,0,0-.272-.783,1.724,1.724,0,0,0-1.921-.1.786.786,0,0,0-.3.618.656.656,0,0,0,.144.42.871.871,0,0,0,.374.253c.074.025.2.064.369.112l.764.21a5.369,5.369,0,0,1,.522.166.812.812,0,0,1,.537.789.962.962,0,0,1-.244.654,1.477,1.477,0,0,1-1.176.433,1.628,1.628,0,0,1-1.106-.346,1.289,1.289,0,0,1-.395-1.036C417.557,349.014,417.559,348.963,417.561,348.9Z" transform="translate(-382.377 -346.266)" fill="#fff"/><g transform="translate(42.043)"><path d="M420.963,350.58a.171.171,0,0,1-.172-.172v-3.841a.171.171,0,0,1,.172-.172h2.377a.173.173,0,0,1,.172.172c0,.1-.079.263-.172.263h-2.116V348.2h1.861a.173.173,0,0,1,.172.174c0,.093-.076.263-.172.263h-1.861v1.77a.171.171,0,0,1-.172.172Z" transform="translate(-420.791 -346.317)" fill="#fff"/><path d="M420.961,348.375v1.942h-.089v-3.841h2.377v.091h-2.288v1.717h2.033v.091Z" transform="translate(-420.7 -346.226)" fill="#fff"/><path d="M422.6,350.58a.173.173,0,0,1-.174-.172v-3.841a.173.173,0,0,1,.174-.172h2.564a.171.171,0,0,1,.172.172c0,.1-.076.263-.172.263h-2.3V348.2h2.15a.171.171,0,0,1,.172.172c0,.1-.076.263-.172.263h-2.15v1.513h2.3a.171.171,0,0,1,.172.172c0,.1-.076.263-.172.263Z" transform="translate(-418.951 -346.317)" fill="#fff"/><path d="M422.513,350.317v-3.841h2.564v.091H422.6v1.711h2.322v.091H422.6v1.857h2.477v.091Z" transform="translate(-418.858 -346.226)" fill="#fff"/><path d="M427.881,350.58a.173.173,0,0,1-.172-.172v-2.9l-1.335,2.973a.176.176,0,0,1-.159.1h-.123a.173.173,0,0,1-.159-.1l-1.326-2.969v2.9a.171.171,0,0,1-.172.172c-.1,0-.261-.076-.261-.172v-3.841a.173.173,0,0,1,.174-.172h.151a.169.169,0,0,1,.157.1l1.5,3.387,1.513-3.387a.169.169,0,0,1,.157-.1h.146a.171.171,0,0,1,.172.172v3.841a.171.171,0,0,1-.172.172Z" transform="translate(-416.994 -346.317)" fill="#fff"/><path d="M424.256,350.317v-3.841h.151l1.655,3.744,1.672-3.744h.146v3.841h-.091v-3.71l-1.666,3.71H426l-1.657-3.71v3.71Z" transform="translate(-416.902 -346.226)" fill="#fff"/><path d="M426.649,350.58a.173.173,0,0,1-.174-.172v-3.841a.173.173,0,0,1,.174-.172h2.564a.173.173,0,0,1,.172.172c0,.1-.079.263-.172.263h-2.3V348.2h2.15a.171.171,0,0,1,.172.172c0,.1-.077.263-.172.263h-2.15v1.513h2.3a.173.173,0,0,1,.172.172c0,.1-.079.263-.172.263Z" transform="translate(-414.412 -346.317)" fill="#fff"/><path d="M426.557,350.317v-3.841h2.564v.091h-2.477v1.711h2.322v.091h-2.322v1.857h2.477v.091Z" transform="translate(-414.32 -346.226)" fill="#fff"/><path d="M431.158,350.58a.172.172,0,0,1-.14-.07l-2.368-3.3v3.2a.171.171,0,0,1-.172.172c-.1,0-.261-.076-.261-.172v-3.841a.171.171,0,0,1,.172-.172h.134a.172.172,0,0,1,.14.07l2.36,3.287v-3.185a.173.173,0,0,1,.174-.172c.093,0,.261.076.261.172v3.841a.171.171,0,0,1-.172.172Z" transform="translate(-412.457 -346.317)" fill="#fff"/><path d="M428.3,350.317v-3.841h.134l2.674,3.722v-3.722h.089v3.841h-.127l-2.68-3.737v3.737Z" transform="translate(-412.367 -346.226)" fill="#fff"/><path d="M430.35,350.58a.171.171,0,0,1-.172-.172v-3.841a.171.171,0,0,1,.172-.172c.1,0,.261.076.261.172v3.841a.173.173,0,0,1-.172.172Z" transform="translate(-410.257 -346.317)" fill="#fff"/><path d="M430.348,346.476v3.841h-.089v-3.841Z" transform="translate(-410.166 -346.226)" fill="#fff"/><path d="M433.76,350.58a.179.179,0,0,1-.142-.07l-2.368-3.3v3.2a.171.171,0,0,1-.172.172c-.1,0-.261-.076-.261-.172v-3.841a.173.173,0,0,1,.174-.172h.131a.172.172,0,0,1,.14.07l2.362,3.287v-3.185a.171.171,0,0,1,.172-.172c.1,0,.263.076.263.172v3.841a.173.173,0,0,1-.174.172Z" transform="translate(-409.541 -346.317)" fill="#fff"/><path d="M430.9,350.317v-3.841h.131L433.7,350.2v-3.722h.089v3.841h-.125l-2.682-3.737v3.737Z" transform="translate(-409.449 -346.226)" fill="#fff"/><path d="M434.723,350.7a1.826,1.826,0,0,1-1.416-.613,2.506,2.506,0,0,1,0-3.111,1.872,1.872,0,0,1,1.439-.613,1.8,1.8,0,0,1,1.388.613,2.5,2.5,0,0,1,0,3.111,1.817,1.817,0,0,1-1.411.613Zm-.028-3.9a1.351,1.351,0,0,0-1.063.469,2.067,2.067,0,0,0,0,2.532,1.5,1.5,0,0,0,2.179,0,1.846,1.846,0,0,0,.431-1.261,1.816,1.816,0,0,0-.431-1.271,1.422,1.422,0,0,0-1.116-.469Z" transform="translate(-407.352 -346.358)" fill="#fff"/><path d="M434.655,346.439a1.624,1.624,0,0,1,1.258.558,2.317,2.317,0,0,1,0,2.878,1.758,1.758,0,0,1-2.57,0,2.333,2.333,0,0,1,0-2.878A1.7,1.7,0,0,1,434.655,346.439Zm-.051.091a1.528,1.528,0,0,0-1.193.526,2.234,2.234,0,0,0,0,2.761,1.675,1.675,0,0,0,2.438,0,2,2,0,0,0,.473-1.375,1.977,1.977,0,0,0-.473-1.386A1.6,1.6,0,0,0,434.6,346.53Z" transform="translate(-407.262 -346.267)" fill="#fff"/><path d="M436.606,350.695a1.8,1.8,0,0,1-1.218-.388,1.456,1.456,0,0,1-.454-1.165l.006-.159a.17.17,0,0,1,.172-.163c.1,0,.261.076.261.172l0,.119a1.059,1.059,0,0,0,.308.864,1.371,1.371,0,0,0,.942.289,1.46,1.46,0,0,0,.783-.187.723.723,0,0,0,.361-.641.485.485,0,0,0-.225-.456,2.542,2.542,0,0,0-.645-.248l-.758-.206a2.648,2.648,0,0,1-.664-.25.916.916,0,0,1-.314-.346.969.969,0,0,1-.1-.446,1.028,1.028,0,0,1,.187-.6,1.421,1.421,0,0,1,1.267-.526,1.558,1.558,0,0,1,1.316.535,1.3,1.3,0,0,1,.259.821v.106a.174.174,0,0,1-.174.172c-.093,0-.27-.078-.27-.172a.965.965,0,0,0-.221-.732,1.552,1.552,0,0,0-1.694-.083.624.624,0,0,0-.174.214.591.591,0,0,0-.062.265.475.475,0,0,0,.106.312.692.692,0,0,0,.3.2c.066.025.185.059.352.108l.762.208a4.679,4.679,0,0,1,.548.178.979.979,0,0,1,.639.944,1.138,1.138,0,0,1-.289.768,1.645,1.645,0,0,1-1.305.49Z" transform="translate(-404.919 -346.357)" fill="#fff"/><path d="M435.021,348.9h.087c0,.074,0,.136,0,.18a1.179,1.179,0,0,0,.367.932,1.524,1.524,0,0,0,1.057.331,1.633,1.633,0,0,0,.877-.212.9.9,0,0,0,.439-.787.653.653,0,0,0-.306-.6,2.647,2.647,0,0,0-.69-.267l-.758-.206a2.5,2.5,0,0,1-.62-.231.716.716,0,0,1-.252-.28.8.8,0,0,1-.085-.365.864.864,0,0,1,.157-.5,1.265,1.265,0,0,1,1.125-.45,1.391,1.391,0,0,1,1.178.467,1.122,1.122,0,0,1,.223.717v.106h-.1v-.072a1.056,1.056,0,0,0-.272-.783,1.72,1.72,0,0,0-1.919-.1.782.782,0,0,0-.223.274.774.774,0,0,0-.083.344.646.646,0,0,0,.146.42.844.844,0,0,0,.373.253c.074.025.2.064.369.112l.762.21a5.369,5.369,0,0,1,.522.166.814.814,0,0,1,.539.789.954.954,0,0,1-.246.654,1.477,1.477,0,0,1-1.176.433,1.632,1.632,0,0,1-1.106-.346,1.289,1.289,0,0,1-.395-1.036C435.015,349.014,435.017,348.963,435.021,348.9Z" transform="translate(-404.828 -346.266)" fill="#fff"/></g></g><g transform="translate(0 1.303)"><path d="M440.313,347.931a.953.953,0,1,1-.953-.951A.954.954,0,0,1,440.313,347.931Z" transform="translate(-352.975 -346.963)" fill="#fff"/><path d="M400.057,347.925a.953.953,0,1,1-.953-.953A.956.956,0,0,1,400.057,347.925Z" transform="translate(-398.151 -346.972)" fill="#fff"/></g></g><g transform="translate(128.941 33.597)"><path d="M449.187,322.049a2.837,2.837,0,1,1-2.812-2.761A2.781,2.781,0,0,1,449.187,322.049Zm-4.964,0a2.146,2.146,0,0,0,2.152,2.2,2.112,2.112,0,0,0,2.1-2.188,2.129,2.129,0,1,0-4.255-.015Zm1.7,1.428h-.637v-2.759a7.361,7.361,0,0,1,1.057-.085,1.467,1.467,0,0,1,.944.221.7.7,0,0,1,.284.59.71.71,0,0,1-.571.654v.034c.267.085.4.3.488.675a2.357,2.357,0,0,0,.2.671h-.673a2.1,2.1,0,0,1-.219-.671c-.051-.289-.219-.422-.573-.422h-.3Zm.017-1.547h.3c.354,0,.639-.117.639-.4,0-.253-.185-.42-.59-.42a1.414,1.414,0,0,0-.352.034Z" transform="translate(-443.514 -319.288)" fill="#fff"/></g></svg>