<svg xmlns="http://www.w3.org/2000/svg" width="239.265" height="72.506" viewBox="0 0 239.265 72.506"><g transform="translate(0.088 1.512)"><text transform="translate(158.177 17.488)" fill="#b2b4b3" font-size="18" font-family="SegoeUI, Segoe UI"><tspan x="0" y="0">Caribbean</tspan><tspan x="0" y="18">Offshore</tspan><tspan x="0" y="36">Solutions</tspan></text><line y2="70.994" transform="translate(143.163)" fill="none" stroke="#b2b4b3" stroke-miterlimit="10" stroke-width="0.704"/><path d="M323.53,247.093a17.474,17.474,0,0,0-7.657-.04s-.518-3.65,3.676-3.782A3.617,3.617,0,0,1,323.53,247.093Z" transform="translate(-247.087 -230.254)" fill="#b2b4b3"/><line y2="6.723" transform="translate(20.726 10.914)" fill="none" stroke="#b2b4b3" stroke-miterlimit="10" stroke-width="0.176"/><path d="M298.237,251.57" transform="translate(-266.855 -220.935)" fill="#b2b4b3" stroke="#323e8a" stroke-linecap="round" stroke-linejoin="round" stroke-width="0.571"/><path d="M301.681,250.517l13.538-1.966,3.516-3.176h2.8v-.6l9.1.832v.983l2.281.076-.189,3.781,9.149-.473,2.76.51-2.306,4.65,1.966.057v.454l-3.61.057.113,1.826-8.648.949-14.356-.318-3.024.454-10.358.222-.152-2.424h.472l-.132-1.711-2.079-3.573h-.835Z" transform="translate(-262.99 -228.565)" fill="#b2b4b3"/><line x1="8.094" y2="1.134" transform="translate(38.692 20.818)" stroke-width="0.176" stroke="#fff" stroke-linecap="round" stroke-linejoin="round" fill="#b2b4b3"/><path d="M306.9,247.637l7.016-.3,16.5.855c-3.018.881-8.47,2.827-8.47,2.827l-8.323.335-7.674.365-1.354.093-2.08-3.572h-.836v-.6Z" transform="translate(-262.99 -225.684)" fill="#b2b4b3"/><path d="M309.725,244.618" transform="translate(-253.963 -228.736)" fill="#b2b4b3" stroke="#323e8a" stroke-linecap="round" stroke-linejoin="round" stroke-width="0.374"/><path d="M302.93,251.469" transform="translate(-261.588 -221.048)" fill="#b2b4b3" stroke="#323e8a" stroke-linecap="round" stroke-linejoin="round" stroke-width="0.374"/><path d="M302.406,251.488" transform="translate(-262.176 -221.027)" fill="#b2b4b3" stroke="#323e8a" stroke-linecap="round" stroke-linejoin="round" stroke-width="0.374"/><path d="M302,251.5" transform="translate(-262.634 -221.01)" fill="#b2b4b3" stroke="#323e8a" stroke-linecap="round" stroke-linejoin="round" stroke-width="0.374"/><path d="M300.6,251.553" transform="translate(-264.2 -220.954)" fill="#b2b4b3" stroke="#323e8a" stroke-linecap="round" stroke-linejoin="round" stroke-width="0.374"/><line y1="1.392" x2="2.988" transform="translate(26.946 31.252)" stroke-width="0.374" stroke="#323e8a" stroke-linecap="round" stroke-linejoin="round" fill="#b2b4b3"/><path d="M306.862,252.343l20.435-.378,3.024-.454,14.215.38s12.553-3.177,20.189,1.738l-.227,16.71s-.151,1.437,1.437,1.133l9.6-.6,1.36,2.95,24.5-1.74,1.664-2.721h3.629V274.8l-1.057,1.511L352.1,283.268a295.959,295.959,0,0,1-45.367,1.815l-4.79-1.106a4.347,4.347,0,0,1-1.817-.989,6.286,6.286,0,0,0-2.844-1.761,4.015,4.015,0,0,1-3.251-3.251l-3.478-13.911,1.891-2.572-.454-.6s2.058-2.708,8.712-5.5h0A46.072,46.072,0,0,1,306.862,252.343Z" transform="translate(-275.48 -221.708)" fill="#b2b4b3" stroke="#fff" stroke-linecap="round" stroke-linejoin="round" stroke-width="1.408"/><path d="M334.372,259.164h-2.744v5.08" transform="translate(-229.383 -212.412)" fill="none" stroke="#b2b4b3" stroke-linecap="round" stroke-linejoin="round" stroke-width="0.374"/><line x1="18.558" y1="0.702" transform="translate(111.609 46.731)" stroke-width="0.571" stroke="#b2b4b3" stroke-linecap="round" stroke-linejoin="round" fill="none"/><path d="M335.606,261.249" transform="translate(-224.919 -210.073)" fill="#b2b4b3" stroke="#323e8a" stroke-linecap="round" stroke-linejoin="round" stroke-width="0.374"/><path d="M325.38,259.8l11.1-.395-.034,1.9" transform="translate(-236.394 -212.142)" fill="none" stroke="#b2b4b3" stroke-linecap="round" stroke-linejoin="round" stroke-width="0.374"/><line y2="1.942" transform="translate(98.97 47.305)" stroke-width="0.374" stroke="#b2b4b3" stroke-linecap="round" stroke-linejoin="round" fill="none"/><line y2="1.851" transform="translate(98.011 47.441)" stroke-width="0.374" stroke="#b2b4b3" stroke-linecap="round" stroke-linejoin="round" fill="none"/><line y2="1.91" transform="translate(97.028 47.441)" stroke-width="0.374" stroke="#b2b4b3" stroke-linecap="round" stroke-linejoin="round" fill="none"/><line y2="1.851" transform="translate(96.008 47.441)" stroke-width="0.374" stroke="#b2b4b3" stroke-linecap="round" stroke-linejoin="round" fill="none"/><line y2="1.763" transform="translate(94.817 47.589)" stroke-width="0.374" stroke="#323e8a" stroke-linecap="round" stroke-linejoin="round" fill="#b2b4b3"/><line y2="1.659" transform="translate(92.775 47.589)" stroke-width="0.374" stroke="#323e8a" stroke-linecap="round" stroke-linejoin="round" fill="#b2b4b3"/><line y2="1.919" transform="translate(91.641 47.589)" stroke-width="0.374" stroke="#323e8a" stroke-linecap="round" stroke-linejoin="round" fill="#b2b4b3"/><line y2="1.961" transform="translate(90.507 47.589)" stroke-width="0.374" stroke="#323e8a" stroke-linecap="round" stroke-linejoin="round" fill="#b2b4b3"/><line y2="1.659" transform="translate(93.796 47.589)" stroke-width="0.374" stroke="#323e8a" stroke-linecap="round" stroke-linejoin="round" fill="#b2b4b3"/><line x1="1.951" y2="2.798" transform="translate(100.294 46.753)" stroke-width="0.374" stroke="#b2b4b3" stroke-linecap="round" stroke-linejoin="round" fill="none"/><path d="M302.93,251.469" transform="translate(-261.588 -221.048)" fill="#b2b4b3" stroke="#323e8a" stroke-linecap="round" stroke-linejoin="round" stroke-width="0.374"/><path d="M295.988,254.457l15.178-.282,8.31-2.865-14.131.337" transform="translate(-269.379 -221.226)" fill="#b2b4b3" stroke="#fff" stroke-linecap="round" stroke-linejoin="round" stroke-width="0.374"/><path d="M300.6,251.57" transform="translate(-264.199 -220.935)" fill="#b2b4b3" stroke="#323e8a" stroke-linecap="round" stroke-linejoin="round" stroke-width="0.374"/><path d="M301.947,251.505" transform="translate(-262.692 -221.007)" fill="#b2b4b3" stroke="#323e8a" stroke-linecap="round" stroke-linejoin="round" stroke-width="0.374"/><path d="M302.469,251.5" transform="translate(-262.106 -221.013)" fill="#b2b4b3" stroke="#323e8a" stroke-linecap="round" stroke-linejoin="round" stroke-width="0.374"/><path d="M302.93,251.469" transform="translate(-261.588 -221.048)" fill="#b2b4b3" stroke="#323e8a" stroke-linecap="round" stroke-linejoin="round" stroke-width="0.374"/><path d="M302.966,251.4" transform="translate(-261.548 -221.131)" fill="#b2b4b3" stroke="#323e8a" stroke-linecap="round" stroke-linejoin="round" stroke-width="0.374"/><path d="M303.625,247.479" transform="translate(-260.809 -225.526)" fill="#b2b4b3" stroke="#323e8a" stroke-linecap="round" stroke-linejoin="round" stroke-width="0.374"/><path d="M303.183,247.479" transform="translate(-261.305 -225.526)" fill="#b2b4b3" stroke="#323e8a" stroke-linecap="round" stroke-linejoin="round" stroke-width="0.374"/><path d="M302.382,251.408" transform="translate(-262.203 -221.116)" fill="#b2b4b3" stroke="#323e8a" stroke-linecap="round" stroke-linejoin="round" stroke-width="0.374"/><path d="M302.966,251.4" transform="translate(-261.548 -221.131)" fill="#b2b4b3" stroke="#323e8a" stroke-linecap="round" stroke-linejoin="round" stroke-width="0.374"/><path d="M325.018,248.777v-2.205l-2.42-.34-3.743.17" transform="translate(-243.716 -226.925)" fill="#fff" stroke="#b2b4b3" stroke-linecap="round" stroke-linejoin="round" stroke-width="0.374"/><line y2="1.713" transform="translate(70.371 20.139)" fill="#fff" stroke="#b2b4b3" stroke-miterlimit="10" stroke-width="0.176"/><line y2="1.669" transform="translate(72.02 20.139)" fill="#fff" stroke="#b2b4b3" stroke-miterlimit="10" stroke-width="0.176"/><line y2="1.058" transform="translate(73.325 20.624)" fill="#fff" stroke="#b2b4b3" stroke-miterlimit="10" stroke-width="0.176"/><line y2="2.206" transform="translate(75.139 19.476)" fill="#fff" stroke="#b2b4b3" stroke-miterlimit="10" stroke-width="0.176"/><line y2="2.206" transform="translate(76.954 19.476)" stroke-width="0.176" stroke="#b2b4b3" stroke-linecap="round" stroke-linejoin="round" fill="#fff"/><line y1="2.098" transform="translate(78.882 19.306)" stroke-width="0.176" stroke="#b2b4b3" stroke-linecap="round" stroke-linejoin="round" fill="#fff"/><line x1="11.039" y2="0.238" transform="translate(70.262 19.902)" stroke-width="0.374" stroke="#b2b4b3" stroke-linecap="round" stroke-linejoin="round" fill="#fff"/><line y2="1.361" transform="translate(78.021 20.088)" fill="#fff" stroke="#b2b4b3" stroke-miterlimit="10" stroke-width="0.176"/><line y2="1.592" transform="translate(80.044 19.973)" stroke-width="0.176" stroke="#b2b4b3" stroke-linecap="round" stroke-linejoin="round" fill="#fff"/><path d="M316.875,249.558a2.446,2.446,0,0,0,.662.594l.03.815,4.223-.138v-.789a3.245,3.245,0,0,0,1.73-2.95c0-2.443-1.539-3.835-3.981-3.822-2.757.015-4.1,1.844-3.561,4.843,0,0,.038.079.1.206" transform="translate(-247.077 -230.251)" fill="#fff" stroke="#b2b4b3" stroke-linecap="round" stroke-linejoin="round" stroke-width="0.374"/><line y2="0.859" transform="translate(74.345 20.705)" fill="#fff" stroke="#b2b4b3" stroke-miterlimit="10" stroke-width="0.176"/><line y2="1.04" transform="translate(70.943 20.769)" fill="#fff" stroke="#b2b4b3" stroke-miterlimit="10" stroke-width="0.176"/><line y2="1.04" transform="translate(71.482 20.769)" fill="#fff" stroke="#b2b4b3" stroke-miterlimit="10" stroke-width="0.176"/><line y2="1.04" transform="translate(72.672 20.615)" fill="#fff" stroke="#b2b4b3" stroke-miterlimit="10" stroke-width="0.176"/><line y2="1.445" transform="translate(73.722 20.21)" fill="#fff" stroke="#b2b4b3" stroke-miterlimit="10" stroke-width="0.176"/><path d="M320.249,246.392v-1.673l-9.316-.652" transform="translate(-252.607 -229.354)" fill="none" stroke="#b2b4b3" stroke-linecap="round" stroke-linejoin="round" stroke-width="0.374"/><line y2="1.515" transform="translate(65.017 15.283)" stroke-width="0.374" stroke="#b2b4b3" stroke-linecap="round" stroke-linejoin="round" fill="none"/><line y2="1.586" transform="translate(63.573 15.08)" stroke-width="0.374" stroke="#b2b4b3" stroke-linecap="round" stroke-linejoin="round" fill="none"/><line y2="1.554" transform="translate(62.072 14.975)" stroke-width="0.374" stroke="#b2b4b3" stroke-linecap="round" stroke-linejoin="round" fill="none"/><line y2="1.519" transform="translate(60.455 14.862)" stroke-width="0.374" stroke="#b2b4b3" stroke-linecap="round" stroke-linejoin="round" fill="none"/><line x1="9.685" y1="0.427" transform="translate(57.957 15.08)" stroke-width="0.374" stroke="#b2b4b3" stroke-linecap="round" stroke-linejoin="round" fill="none"/><line y2="1.122" transform="translate(59.005 15.126)" stroke-width="0.374" stroke="#b2b4b3" stroke-linecap="round" stroke-linejoin="round" fill="none"/><line x2="0.111" y2="1.814" transform="translate(69.393 26.612)" stroke-width="0.374" stroke="#323e8a" stroke-linecap="round" stroke-linejoin="round" fill="#b2b4b3"/><path d="M316.1,250.013" transform="translate(-246.809 -222.682)" fill="#b2b4b3" stroke="#323e8a" stroke-linecap="round" stroke-linejoin="round" stroke-width="0.374"/><path d="M316.037,250.881" transform="translate(-246.88 -221.708)" fill="#b2b4b3" stroke="#323e8a" stroke-linecap="round" stroke-linejoin="round" stroke-width="0.374"/><path d="M301.915,250.253" transform="translate(-262.728 -222.412)" fill="#b2b4b3" stroke="#323e8a" stroke-linecap="round" stroke-linejoin="round" stroke-width="0.374"/><path d="M302.894,250.253" transform="translate(-261.629 -222.412)" fill="#b2b4b3" stroke="#323e8a" stroke-linecap="round" stroke-linejoin="round" stroke-width="0.374"/><path d="M303.055,250.7" transform="translate(-261.448 -221.911)" fill="#b2b4b3" stroke="#323e8a" stroke-linecap="round" stroke-linejoin="round" stroke-width="0.374"/><path d="M302.2,250.7" transform="translate(-262.408 -221.911)" fill="#b2b4b3" stroke="#323e8a" stroke-linecap="round" stroke-linejoin="round" stroke-width="0.374"/><path d="M303.055,250.816" transform="translate(-261.448 -221.781)" fill="#b2b4b3" stroke="#323e8a" stroke-linecap="round" stroke-linejoin="round" stroke-width="0.374"/><line y2="2.34" transform="translate(38.692 28.003)" stroke-width="0.176" stroke="#fff" stroke-linecap="round" stroke-linejoin="round" fill="none"/><path d="M301.17,250.7" transform="translate(-263.564 -221.912)" fill="#b2b4b3" stroke="#323e8a" stroke-linecap="round" stroke-linejoin="round" stroke-width="0.374"/><path d="M301.681,250.7" transform="translate(-262.99 -221.907)" fill="#b2b4b3" stroke="#323e8a" stroke-linecap="round" stroke-linejoin="round" stroke-width="0.374"/><path d="M299.634,250.253" transform="translate(-265.287 -222.412)" fill="#b2b4b3" stroke="#323e8a" stroke-linecap="round" stroke-linejoin="round" stroke-width="0.374"/><path d="M301.06,250.253" transform="translate(-263.687 -222.412)" fill="#b2b4b3" stroke="#323e8a" stroke-linecap="round" stroke-linejoin="round" stroke-width="0.374"/><path d="M299.866,250.253" transform="translate(-265.027 -222.412)" fill="#b2b4b3" stroke="#323e8a" stroke-linecap="round" stroke-linejoin="round" stroke-width="0.374"/><path d="M299.866,251.433" transform="translate(-265.027 -221.088)" fill="#b2b4b3" stroke="#323e8a" stroke-linecap="round" stroke-linejoin="round" stroke-width="0.374"/><path d="M299.634,250.725" transform="translate(-265.287 -221.883)" fill="#b2b4b3" stroke="#323e8a" stroke-linecap="round" stroke-linejoin="round" stroke-width="0.374"/><line y2="2.405" transform="translate(36.106 28.016)" stroke-width="0.176" stroke="#323e8a" stroke-linecap="round" stroke-linejoin="round" fill="#b2b4b3"/><path d="M298.441,250.253" transform="translate(-266.626 -222.412)" fill="#b2b4b3" stroke="#323e8a" stroke-linecap="round" stroke-linejoin="round" stroke-width="0.374"/><path d="M299.064,251.505" transform="translate(-265.927 -221.007)" fill="#b2b4b3" stroke="#323e8a" stroke-linecap="round" stroke-linejoin="round" stroke-width="0.374"/><path d="M298.583,250.68" transform="translate(-266.467 -221.933)" fill="#b2b4b3" stroke="#323e8a" stroke-linecap="round" stroke-linejoin="round" stroke-width="0.374"/><path d="M298.655,250.68" transform="translate(-266.386 -221.933)" fill="#b2b4b3" stroke="#323e8a" stroke-linecap="round" stroke-linejoin="round" stroke-width="0.374"/><path d="M299.029,250.68" transform="translate(-265.966 -221.933)" fill="#b2b4b3" stroke="#323e8a" stroke-linecap="round" stroke-linejoin="round" stroke-width="0.374"/><path d="M302.894,250.253" transform="translate(-261.629 -222.412)" fill="#b2b4b3" stroke="#323e8a" stroke-linecap="round" stroke-linejoin="round" stroke-width="0.176"/><line y1="2.327" transform="translate(30.945 28.169)" stroke-width="0.176" stroke="#323e8a" stroke-linecap="round" stroke-linejoin="round" fill="#b2b4b3"/><path d="M301.06,250.478" transform="translate(-263.687 -222.16)" fill="#b2b4b3" stroke="#323e8a" stroke-linecap="round" stroke-linejoin="round" stroke-width="0.374"/><path d="M299.634,250.478" transform="translate(-265.287 -222.16)" fill="#b2b4b3" stroke="#323e8a" stroke-linecap="round" stroke-linejoin="round" stroke-width="0.374"/><line y1="0.491" x2="0.018" transform="translate(33.138 33.407)" stroke-width="0.374" stroke="#323e8a" stroke-linecap="round" stroke-linejoin="round" fill="#b2b4b3"/><path d="M299.783,252.872" transform="translate(-265.12 -219.473)" fill="#b2b4b3" stroke="#323e8a" stroke-linecap="round" stroke-linejoin="round" stroke-width="0.374"/><line x1="0.055" y1="2.566" transform="translate(33.1 30.842)" stroke-width="0.374" stroke="#fff" stroke-linecap="round" stroke-linejoin="round" fill="none"/><path d="M296.963,252.542l-.23,1.351h-1.162l-.258-.591" transform="translate(-270.136 -219.843)" fill="#b2b4b3" stroke="#fff" stroke-linecap="round" stroke-linejoin="round" stroke-width="0.374"/><path d="M296.091,252.814" transform="translate(-269.263 -219.538)" fill="#b2b4b3" stroke="#323e8a" stroke-linecap="round" stroke-linejoin="round" stroke-width="0.374"/><path d="M298.334,252.814" transform="translate(-266.746 -219.538)" fill="#b2b4b3" stroke="#323e8a" stroke-linecap="round" stroke-linejoin="round" stroke-width="0.374"/><path d="M299.634,251.537" transform="translate(-265.287 -220.972)" fill="#b2b4b3" stroke="#323e8a" stroke-linecap="round" stroke-linejoin="round" stroke-width="0.374"/><path d="M300.18,251.528" transform="translate(-264.675 -220.982)" fill="#b2b4b3" stroke="#323e8a" stroke-linecap="round" stroke-linejoin="round" stroke-width="0.374"/><path d="M298.772,251.553" transform="translate(-266.255 -220.954)" fill="#b2b4b3" stroke="#323e8a" stroke-linecap="round" stroke-linejoin="round" stroke-width="0.374"/><path d="M299.073,251.553" transform="translate(-265.917 -220.954)" fill="#b2b4b3" stroke="#323e8a" stroke-linecap="round" stroke-linejoin="round" stroke-width="0.374"/><path d="M303.3,251.469l-4.3.214-.8-.035-.391.242" transform="translate(-267.333 -221.048)" fill="#b2b4b3" stroke="#fff" stroke-linecap="round" stroke-linejoin="round" stroke-width="0.374"/><line y2="0.411" transform="translate(28.44 33.375)" stroke-width="0.374" stroke="#fff" stroke-linecap="round" stroke-linejoin="round" fill="none"/><line y2="0.274" transform="translate(30.586 33.375)" stroke-width="0.374" stroke="#fff" stroke-linecap="round" stroke-linejoin="round" fill="none"/><line y2="0.494" transform="translate(36.986 33.086)" stroke-width="0.374" stroke="#fff" stroke-linecap="round" stroke-linejoin="round" fill="none"/><line y2="0.576" transform="translate(39.364 33.004)" stroke-width="0.374" stroke="#fff" stroke-linecap="round" stroke-linejoin="round" fill="none"/><line x1="8.776" y2="0.223" transform="translate(26.742 33.708)" stroke-width="0.374" stroke="#fff" stroke-linecap="round" stroke-linejoin="round" fill="none"/><line x1="8.626" y2="0.28" transform="translate(34.832 33.466)" stroke-width="0.374" stroke="#fff" stroke-linecap="round" stroke-linejoin="round" fill="none"/><line x1="0.019" y2="0.384" transform="translate(42.306 32.949)" stroke-width="0.374" stroke="#fff" stroke-linecap="round" stroke-linejoin="round" fill="none"/><line y2="0.385" transform="translate(43.396 32.58)" stroke-width="0.374" stroke="#fff" stroke-linecap="round" stroke-linejoin="round" fill="none"/><path d="M325.917,248.656h5.957l.631-.255H333.8l.91-.107,1.565-1.049h1.5l2.117-2.473-14.385-2-22.645-.491H300.5L286.3,244.051l-.227,1.317.624.255h1.928l1.077,1.024.116,1.7" transform="translate(-280.51 -231.363)" fill="#b2b4b3" stroke="#fff" stroke-linecap="round" stroke-linejoin="round" stroke-width="0.552"/><path d="M303.052,245.44l-6.323-.55-.982-.069" transform="translate(-269.649 -228.509)" fill="#b2b4b3" stroke="#323e8a" stroke-linecap="round" stroke-linejoin="round" stroke-width="0.552"/><path d="M300.614,245.283h0Z" transform="translate(-264.187 -227.99)" fill="#b2b4b3" stroke="#323e8a" stroke-linecap="round" stroke-linejoin="round" stroke-width="0.552"/><line y2="0.808" transform="translate(28.488 7.807)" stroke-width="0.374" stroke="#323e8a" stroke-linecap="round" stroke-linejoin="round" fill="#b2b4b3"/><path d="M302.827,248.841" transform="translate(-261.704 -223.997)" fill="#b2b4b3" stroke="#323e8a" stroke-linecap="round" stroke-linejoin="round" stroke-width="0.374"/><path d="M303.117,247.583" transform="translate(-261.379 -225.409)" fill="#b2b4b3" stroke="#323e8a" stroke-linecap="round" stroke-linejoin="round" stroke-width="0.374"/><path d="M303.659,247.552" transform="translate(-260.77 -225.444)" fill="#b2b4b3" stroke="#323e8a" stroke-linecap="round" stroke-linejoin="round" stroke-width="0.374"/><path d="M344.83,267.72v4.425h-1.078l-8.166.656v-3.729H337.4l.908-.514.112-4.353s.966-.4.511-3.459c0,0-.17-1.305-1.021-.739l.17-4.913-5.028-2.419v-.227h-.567v-.758l-.38-.151-4.007.3,8.544,7.143.567.643s.615-.047.573.535" transform="translate(-233.341 -220.968)" fill="#fff" stroke="#b2b4b3" stroke-linecap="round" stroke-linejoin="round" stroke-width="0.374"/><line y2="6.408" transform="translate(111.489 40.345)" stroke-width="0.374" stroke="#b2b4b3" stroke-linecap="round" stroke-linejoin="round" fill="none"/><path d="M342.245,268.175s-2.438.539-2.581-2.3V265.2l-7.116-3.005-.142.369-.448-.115-.289,6.918h1.418l.123,4.754-5.284.2v-4.7l-1.248-.028,1.617-.085.112-5.132.482-2.665h-.282l.112-.709a.767.767,0,0,1-.794-.482h-1.078l-.227-4.045-.342-.214-.48-4.588-.736-.749-.6-1.093v-1.645l1.445.142s.539-.539,1.106.282l.4.809h.452s-.227-1.063,1.7-.666l6.8.794s0-.963.681-.879l1.73-.112a1.256,1.256,0,0,1,.511,1.418l6.747.567s.057-1.191,1.674-1.051l1.587-.028s.964-1.275,1.56.369c0,0,1.53.282.879,2.409L351.629,254h1.333l-.142,5.925-3.911.17v5.161" transform="translate(-237.419 -224.768)" fill="#fff" stroke="#b2b4b3" stroke-linecap="round" stroke-linejoin="round" stroke-width="0.374"/><path d="M341.659,253.765v1.171h-1.248v.6l3.894,1.776v.87h-.832l-5.369-2.572v-1.21l-6.577-2.343s-5.407-2.782-5.671-3.313l1.246,6.791,13.913,9.431-1.513-.529-.52-.208-7.455-3.748s-.569.762-.851-.374l-2.25-.809a2.139,2.139,0,0,1-1.1,1" transform="translate(-235.859 -224.099)" fill="#fff" stroke="#b2b4b3" stroke-linecap="round" stroke-linejoin="round" stroke-width="0.374"/><path d="M326.84,249.44l.692,2.61,1.385,1.508,2.873-.2-4.258-1.573" transform="translate(-234.756 -223.324)" fill="none" stroke="#b2b4b3" stroke-linecap="round" stroke-linejoin="round" stroke-width="0.374"/><path d="M332.815,251.38l-2.434.151,6.594,3.024-.2.68-1.248.038" transform="translate(-230.782 -221.148)" fill="none" stroke="#b2b4b3" stroke-linecap="round" stroke-linejoin="round" stroke-width="0.374"/><path d="M337.9,248.77s-.454.17-.4,1.305l-2.865-.227" transform="translate(-226.01 -224.077)" fill="none" stroke="#b2b4b3" stroke-linecap="round" stroke-linejoin="round" stroke-width="0.374"/><line x1="3.908" y2="0.283" transform="translate(96.776 29.751)" stroke-width="0.374" stroke="#b2b4b3" stroke-linecap="round" stroke-linejoin="round" fill="none"/><path d="M336.289,250.78v1.614H333.3" transform="translate(-227.504 -221.822)" fill="#fff" stroke="#b2b4b3" stroke-linecap="round" stroke-linejoin="round" stroke-width="0.374"/><line x1="6.826" y2="0.183" transform="translate(104.662 36.205)" stroke-width="0.374" stroke="#b2b4b3" stroke-linecap="round" stroke-linejoin="round" fill="#323e8a"/><line x1="5.826" transform="translate(105.662 40.345)" stroke-width="0.374" stroke="#b2b4b3" stroke-linecap="round" stroke-linejoin="round" fill="none"/><path d="M333.934,253.549l-2.306-1.134,6.521-1.436,2.061-.454.151,1.361" transform="translate(-229.383 -222.108)" fill="none" stroke="#b2b4b3" stroke-linecap="round" stroke-linejoin="round" stroke-width="0.374"/><path d="M334.71,251.54" transform="translate(-225.924 -220.968)" fill="#b2b4b3" stroke="#323e8a" stroke-linecap="round" stroke-linejoin="round" stroke-width="0.374"/><path d="M339.465,251.305l-.794.662h-3.516l.794-.794,3.7-.013Z" transform="translate(-225.425 -221.395)" fill="#fff" stroke="#b2b4b3" stroke-linecap="round" stroke-linejoin="round" stroke-width="0.374"/><path d="M335.88,256.039a8.663,8.663,0,0,1-.719-4.5h3.517a14.071,14.071,0,0,0,.242,2.924,3.625,3.625,0,0,0,.741,1.711Z" transform="translate(-225.431 -220.968)" fill="#fff" stroke="#b2b4b3" stroke-linecap="round" stroke-linejoin="round" stroke-width="0.374"/><line x2="3.556" transform="translate(109.932 33.496)" stroke-width="0.374" stroke="#b2b4b3" stroke-linecap="round" stroke-linejoin="round" fill="#fff"/><path d="M329.619,255.289l-.742-.756-2.325.019" transform="translate(-235.08 -217.61)" fill="none" stroke="#b2b4b3" stroke-linecap="round" stroke-linejoin="round" stroke-width="0.374"/><path d="M327.222,252.039l-1.74.076.119,2.116h1.186A2.687,2.687,0,0,1,327.222,252.039Z" transform="translate(-236.28 -220.408)" fill="none" stroke="#b2b4b3" stroke-linecap="round" stroke-linejoin="round" stroke-width="0.374"/><path d="M328.394,254.535l-.356,2.227-1.444-.006.415-2.215" transform="translate(-235.033 -217.608)" fill="none" stroke="#b2b4b3" stroke-miterlimit="10" stroke-width="0.176"/><path d="M327.83,254.621l-.325,2.157.433.334.279-2.174" transform="translate(-234.01 -217.51)" fill="none" stroke="#b2b4b3" stroke-miterlimit="10" stroke-width="0.176"/><path d="M328.092,256.395l-.567-.473-.156,4.423h.591Z" transform="translate(-234.163 -216.05)" fill="#fff" stroke="#b2b4b3" stroke-miterlimit="10" stroke-width="0.176"/><path d="M327.808,255.884l-.17,4.5h-1.026l-.019-4.5Z" transform="translate(-235.033 -216.093)" fill="#fff" stroke="#b2b4b3" stroke-miterlimit="10" stroke-width="0.176"/><g transform="translate(38.692 15.882)"><path d="M304.14,250.518h2.2l.679-1.135,5.443-.832,3.517-3.175h2.8v-.6l9.1.832v.983l2.279.076-.189,3.78,9.149-.473,2.761.511-2.307,4.65,1.965.057v.452l-3.61.057.115,1.827s-3.258.214-8.79,1.008l-14.215-.378-3.024.454-1.339.028" transform="translate(-298.923 -244.447)" fill="#b2b4b3" stroke="#fff" stroke-linecap="round" stroke-linejoin="round" stroke-width="0.176"/><path d="M303.353,249.714l-.836-1.631h-.835v-.6H306.9" transform="translate(-301.681 -241.408)" fill="#b2b4b3" stroke="#fff" stroke-linecap="round" stroke-linejoin="round" stroke-width="0.176"/><line x1="1.243" y1="1.942" transform="translate(1.671 8.306)" stroke-width="0.176" stroke="#fff" stroke-linecap="round" stroke-linejoin="round" fill="#b2b4b3"/><path d="M317.433,244.618v1.049l-5.036,5.162" transform="translate(-289.656 -244.618)" fill="#b2b4b3" stroke="#fff" stroke-linecap="round" stroke-linejoin="round" stroke-width="0.176"/><path d="M330.567,252.144H326.8c-2.591-.56-8.272-1.248-8.272-1.248l-6.373-.176c3.362-.934,7.848-2.47,7.848-2.47l9.578-.819,3.1.441" transform="translate(-289.923 -241.461)" fill="#b2b4b3" stroke="#fff" stroke-linecap="round" stroke-linejoin="round" stroke-width="0.176"/><path d="M328.029,251.112h.452l.794-2.155-3.818-.3h-9.149v1.183l12.662-.053" transform="translate(-285.267 -240.089)" fill="#b2b4b3" stroke="#fff" stroke-linecap="round" stroke-linejoin="round" stroke-width="0.176"/><line x1="0.493" y2="1.96" transform="translate(42.269 8.769)" stroke-width="0.176" stroke="#fff" stroke-linecap="round" stroke-linejoin="round" fill="#b2b4b3"/><line x1="0.455" y2="1.973" transform="translate(41.551 8.71)" stroke-width="0.176" stroke="#fff" stroke-linecap="round" stroke-linejoin="round" fill="#b2b4b3"/><path d="M312.159,248.981l6.5.136-.624,2.733-.059,1.9" transform="translate(-289.923 -239.722)" fill="#b2b4b3" stroke="#fff" stroke-linecap="round" stroke-linejoin="round" stroke-width="0.176"/><path d="M316.613,248.654l-.577,3.762v1.7" transform="translate(-285.572 -240.089)" fill="#b2b4b3" stroke="#fff" stroke-linecap="round" stroke-linejoin="round" stroke-width="0.176"/><path d="M324.571,249.919l-7.958.2-.577,2.754" transform="translate(-285.572 -238.669)" fill="#b2b4b3" stroke="#fff" stroke-linecap="round" stroke-linejoin="round" stroke-width="0.176"/><line y1="1.824" transform="translate(31.041 9.624)" stroke-width="0.176" stroke="#fff" stroke-linecap="round" stroke-linejoin="round" fill="#b2b4b3"/><line x1="2.396" transform="translate(28.269 11.023)" stroke-width="0.176" stroke="#fff" stroke-linecap="round" stroke-linejoin="round" fill="#b2b4b3"/><line x1="2.358" transform="translate(28.107 11.959)" stroke-width="0.176" stroke="#fff" stroke-linecap="round" stroke-linejoin="round" fill="#b2b4b3"/><line x1="2.358" transform="translate(28.107 12.726)" stroke-width="0.176" stroke="#fff" stroke-linecap="round" stroke-linejoin="round" fill="#b2b4b3"/><line x1="25.438" transform="translate(2.633 12.908)" stroke-width="0.176" stroke="#fff" stroke-linecap="round" stroke-linejoin="round" fill="#b2b4b3"/><line x1="2.336" transform="translate(28.072 13.717)" stroke-width="0.176" stroke="#fff" stroke-linecap="round" stroke-linejoin="round" fill="#b2b4b3"/><line x1="25.537" y2="0.17" transform="translate(2.574 11.789)" stroke-width="0.176" stroke="#fff" stroke-linecap="round" stroke-linejoin="round" fill="#b2b4b3"/><line y2="2.222" transform="translate(27.53 11.789)" stroke-width="0.176" stroke="#fff" stroke-linecap="round" stroke-linejoin="round" fill="#b2b4b3"/><line y2="2.206" transform="translate(25.749 11.805)" stroke-width="0.176" stroke="#fff" stroke-linecap="round" stroke-linejoin="round" fill="#b2b4b3"/><line y2="2.137" transform="translate(23.556 11.874)" stroke-width="0.176" stroke="#fff" stroke-linecap="round" stroke-linejoin="round" fill="#b2b4b3"/><line y2="1.877" transform="translate(20.947 11.959)" stroke-width="0.176" stroke="#fff" stroke-linecap="round" stroke-linejoin="round" fill="#b2b4b3"/><line y2="1.814" transform="translate(18.566 11.959)" stroke-width="0.176" stroke="#fff" stroke-linecap="round" stroke-linejoin="round" fill="#b2b4b3"/><line y2="1.897" transform="translate(15.919 11.875)" stroke-width="0.176" stroke="#fff" stroke-linecap="round" stroke-linejoin="round" fill="#b2b4b3"/><line x1="0.113" y2="2.202" transform="translate(13.084 11.959)" stroke-width="0.176" stroke="#fff" stroke-linecap="round" stroke-linejoin="round" fill="#b2b4b3"/><line y2="2.24" transform="translate(11.307 11.959)" stroke-width="0.176" stroke="#fff" stroke-linecap="round" stroke-linejoin="round" fill="#b2b4b3"/><line y2="2.365" transform="translate(8.585 11.959)" stroke-width="0.176" stroke="#fff" stroke-linecap="round" stroke-linejoin="round" fill="#b2b4b3"/><line y2="2.344" transform="translate(6.468 11.959)" stroke-width="0.176" stroke="#fff" stroke-linecap="round" stroke-linejoin="round" fill="#b2b4b3"/><line y2="2.387" transform="translate(4.426 11.959)" stroke-width="0.176" stroke="#fff" stroke-linecap="round" stroke-linejoin="round" fill="#b2b4b3"/><line x1="0.076" y1="2.243" transform="translate(2.574 11.959)" stroke-width="0.176" stroke="#fff" stroke-linecap="round" stroke-linejoin="round" fill="#b2b4b3"/><path d="M303.693,251.72l7.674-.365,8.323-.335s5.452-1.946,8.47-2.827l-16.5-.855-7.016.3" transform="translate(-299.424 -241.566)" fill="#b2b4b3" stroke="#fff" stroke-linecap="round" stroke-linejoin="round" stroke-width="0.176"/><line y1="3.262" x2="0.05" transform="translate(20.267 6.192)" stroke-width="0.176" stroke="#fff" stroke-linecap="round" stroke-linejoin="round" fill="#b2b4b3"/><line y2="3.999" transform="translate(12.672 5.796)" stroke-width="0.176" stroke="#fff" stroke-linecap="round" stroke-linejoin="round" fill="#b2b4b3"/><line y2="3.935" transform="translate(7.413 6.071)" stroke-width="0.176" stroke="#fff" stroke-linecap="round" stroke-linejoin="round" fill="#b2b4b3"/><line y1="2.152" transform="translate(28.735 7.242)" stroke-width="0.176" stroke="#fff" stroke-linecap="round" stroke-linejoin="round" fill="#b2b4b3"/><line x2="0.118" y2="3.697" transform="translate(33.948 6.458)" stroke-width="0.176" stroke="#fff" stroke-linecap="round" stroke-linejoin="round" fill="#b2b4b3"/><line x1="0.151" y2="4.713" transform="translate(39.51 5.97)" stroke-width="0.176" stroke="#fff" stroke-linecap="round" stroke-linejoin="round" fill="#b2b4b3"/><path d="M304.409,249.4l-1.355.092v1.541" transform="translate(-300.14 -239.248)" fill="#b2b4b3" stroke="#fff" stroke-linecap="round" stroke-linejoin="round" stroke-width="0.176"/></g><path d="M327.316,255.925l-.2,4.464h-.5l-.019-4.5Z" transform="translate(-235.033 -216.093)" fill="#fff" stroke="#b2b4b3" stroke-miterlimit="10" stroke-width="0.176"/><path d="M327.417,254.621l-.345,1.989h-.451l.3-1.989Z" transform="translate(-235.001 -217.51)" fill="none" stroke="#b2b4b3" stroke-miterlimit="10" stroke-width="0.176"/><path d="M290.551,259.208s6.931.5,51.152-4" transform="translate(-275.48 -216.852)" fill="#b2b4b3" stroke="#fff" stroke-linecap="round" stroke-linejoin="round" stroke-width="0.571"/><path d="M291.442,260.934s.577.422,6.171-.486c0,0,24.5-5.356,27.447-6.193,0,0,5.45-1.382,13.964-2.878" transform="translate(-274.481 -221.15)" fill="#b2b4b3" stroke="#fff" stroke-linecap="round" stroke-linejoin="round" stroke-width="0.571"/><path d="M295.7,259.674s20.129-5.458,25.488-8.2" transform="translate(-269.7 -221.048)" fill="#b2b4b3" stroke="#fff" stroke-linecap="round" stroke-linejoin="round" stroke-width="0.571"/><rect width="0.68" height="1.437" transform="translate(66.961 37.415)" stroke-width="0.374" stroke="#fff" stroke-linecap="round" stroke-linejoin="round" fill="#b2b4b3"/><g transform="translate(58.543 32.262)"><rect width="0.68" height="1.437" transform="translate(8.379 0.944)" stroke-width="0.374" stroke="#fff" stroke-linecap="round" stroke-linejoin="round" fill="#b2b4b3"/><rect width="0.68" height="1.437" transform="translate(11.379 0.944)" stroke-width="0.374" stroke="#fff" stroke-linecap="round" stroke-linejoin="round" fill="#b2b4b3"/><rect width="0.68" height="1.437" transform="translate(14.379 0.944)" stroke-width="0.374" stroke="#fff" stroke-linecap="round" stroke-linejoin="round" fill="#b2b4b3"/><rect width="0.68" height="1.437" transform="translate(17.379 0.944)" stroke-width="0.374" stroke="#fff" stroke-linecap="round" stroke-linejoin="round" fill="#b2b4b3"/><rect width="0.68" height="1.437" transform="translate(20.379 0.944)" stroke-width="0.374" stroke="#fff" stroke-linecap="round" stroke-linejoin="round" fill="#b2b4b3"/><rect width="0.68" height="1.437" transform="translate(23.379 0.944)" stroke-width="0.374" stroke="#fff" stroke-linecap="round" stroke-linejoin="round" fill="#b2b4b3"/><rect width="0.68" height="1.437" transform="translate(11.379 5.153)" stroke-width="0.374" stroke="#fff" stroke-linecap="round" stroke-linejoin="round" fill="#b2b4b3"/><rect width="0.832" height="1.437" transform="translate(0 0.905)" stroke-width="0.374" stroke="#fff" stroke-linecap="round" stroke-linejoin="round" fill="#b2b4b3"/><rect width="1.512" height="3.44" transform="translate(3.44)" stroke-width="0.374" stroke="#fff" stroke-linecap="round" stroke-linejoin="round" fill="#b2b4b3"/></g><g transform="translate(70.955 37.292)"><path d="M316.884,258.725v5.083l11.216-.3v-7.927c0-.736-.528-.717-.528-.717l-8.633-.157s-.681-.1-.59.717l-.038,2.75s.062.548-.416.533Z" transform="translate(-316.884 -254.706)" fill="#b2b4b3" stroke="#fff" stroke-linecap="round" stroke-linejoin="round" stroke-width="0.374"/><path d="M317.558,259.165v-2.753a4.1,4.1,0,0,1,2.528-.452l3.555-.015s2.2.153,2.216,1.161v2.375s.2.688-1.048.72h-6.373S317.558,260.321,317.558,259.165Z" transform="translate(-316.128 -253.316)" fill="#b2b4b3" stroke="#fff" stroke-linecap="round" stroke-linejoin="round" stroke-width="0.374"/></g><path d="M321.8,244.2l-4.957,6.843-7.867-.812-2.609,13.927h-.543l-5.959-15.183.111-6.5" transform="translate(-265.027 -231.15)" fill="#b2b4b3" stroke="#fff" stroke-linecap="round" stroke-linejoin="round" stroke-width="0.552"/><path d="M313.836,242.606l-9.642,6.777-.481-.01-.505,15.563,10.08-14.656-17.458-1.824,2.359-4.615.789-1.373" transform="translate(-269.555 -231.15)" fill="#b2b4b3" stroke="#fff" stroke-linecap="round" stroke-linejoin="round" stroke-width="0.552"/><line x2="6.18" y2="4.933" transform="translate(28.635 12.851)" stroke-width="0.552" stroke="#fff" stroke-linecap="round" stroke-linejoin="round" fill="#b2b4b3"/><path d="M304.14,242.65v6.977l9.378-5.991" transform="translate(-260.231 -230.945)" fill="#b2b4b3" stroke="#fff" stroke-linecap="round" stroke-linejoin="round" stroke-width="0.552"/><line y2="5.561" transform="translate(51.674 13.922)" stroke-width="0.552" stroke="#fff" stroke-linecap="round" stroke-linejoin="round" fill="#b2b4b3"/><path d="M302.437,246.152l-5.494.882,5.449.5" transform="translate(-268.308 -227.015)" fill="#fff" stroke="#b2b4b3" stroke-miterlimit="10" stroke-width="0.176"/><path d="M299.321,245.482l-.562,2.407-3.3-2.477" transform="translate(-269.975 -227.845)" fill="#fff" stroke="#b2b4b3" stroke-miterlimit="10" stroke-width="0.176"/><path d="M288.479,245.352v.788l8.387.91-1.55-1.353" transform="translate(-277.806 -227.913)" fill="#fff" stroke="#b2b4b3" stroke-miterlimit="10" stroke-width="0.176"/><path d="M301.811,247.852l-9.111-.977-.27-.029,6.486-1.4" transform="translate(-273.371 -227.808)" fill="#fff" stroke="#b2b4b3" stroke-miterlimit="10" stroke-width="0.176"/><path d="M306.337,260.29l-3.963-13.222-.219-.01-2.413,13.605h-.526l-6.786-14.511,13.776,14.762Z" transform="translate(-273.371 -227.015)" fill="#fff" stroke="#b2b4b3" stroke-linecap="round" stroke-linejoin="round" stroke-width="0.552"/><line x2="3.024" y2="0.362" transform="translate(33.403 16.931)" stroke-width="0.552" stroke="#fff" stroke-linecap="round" stroke-linejoin="round" fill="#b2b4b3"/><line y1="0.329" x2="10.321" transform="translate(30.945 27.841)" stroke-width="0.176" stroke="#fff" stroke-linecap="round" stroke-linejoin="round" fill="#b2b4b3"/><g transform="translate(0 7.456)"><path d="M295.9,242.757l-3.052-.413,11.576-1.7,24.37.338,13.268,2.8,5.1,1.147-3.747-.169-15.1-2.366-23.891-.563-8.85,1.071-.382.046-8.457,1.024,1.578,1.762H284.3" transform="translate(-282.491 -240.648)" fill="#fff" stroke="#b2b4b3" stroke-linecap="round" stroke-linejoin="round" stroke-width="0.176"/><path d="M291.05,242.225l-1.013-.377-6.587.784,3.434,3.34,2.779-.016" transform="translate(-283.45 -239.301)" fill="#fff" stroke="#b2b4b3" stroke-linecap="round" stroke-linejoin="round" stroke-width="0.176"/><line x2="4.182" y2="0.364" transform="translate(0.418 3.366)" stroke-width="0.176" stroke="#b2b4b3" stroke-linecap="round" stroke-linejoin="round" fill="#fff"/></g><line x2="0.076" y2="2.49" transform="translate(33.062 28.116)" stroke-width="0.176" stroke="#fff" stroke-linecap="round" stroke-linejoin="round" fill="none"/><line x1="1.942" y1="1.007" transform="translate(15.99 8.236)" fill="#323e8a" stroke="#b2b4b3" stroke-miterlimit="10" stroke-width="0.176"/><line y2="1.046" transform="translate(22.002 7.793)" fill="#323e8a" stroke="#b2b4b3" stroke-miterlimit="10" stroke-width="0.176"/><line y2="1.176" transform="translate(32.59 7.728)" fill="#323e8a" stroke="#b2b4b3" stroke-miterlimit="10" stroke-width="0.176"/><line y2="1.176" transform="translate(32.987 7.728)" fill="#323e8a" stroke="#b2b4b3" stroke-miterlimit="10" stroke-width="0.176"/><line y2="1.025" transform="translate(35.671 7.807)" fill="#323e8a" stroke="#b2b4b3" stroke-miterlimit="10" stroke-width="0.176"/><line y2="1.025" transform="translate(37.164 7.807)" fill="#323e8a" stroke="#b2b4b3" stroke-miterlimit="10" stroke-width="0.176"/><line y2="1.216" transform="translate(45.01 7.947)" fill="#323e8a" stroke="#b2b4b3" stroke-miterlimit="10" stroke-width="0.176"/><line x2="0.076" y2="1.216" transform="translate(43.44 7.947)" fill="#323e8a" stroke="#b2b4b3" stroke-miterlimit="10" stroke-width="0.176"/><line x1="1.683" y2="0.479" transform="translate(54.81 10.219)" fill="#323e8a" stroke="#b2b4b3" stroke-miterlimit="10" stroke-width="0.176"/><line x1="1.285" y2="0.384" transform="translate(57.257 10.699)" fill="#323e8a" stroke="#b2b4b3" stroke-miterlimit="10" stroke-width="0.176"/><line x1="1.55" y2="0.277" transform="translate(59.639 11.178)" fill="#323e8a" stroke="#b2b4b3" stroke-miterlimit="10" stroke-width="0.176"/><line x1="1.871" y2="1.701" transform="translate(59.375 11.707)" fill="#323e8a" stroke="#b2b4b3" stroke-miterlimit="10" stroke-width="0.176"/><path d="M306.887,271.775l-5.9-1.36a31.219,31.219,0,0,0-6.195.83,22.12,22.12,0,0,0-2.8,1.176s-4.97,2.4,2.7,3.9c0,0,26.746,4.448,62.147-2.2,0,0,37.268-6.3,48.864-9.822,0,0,1.2-.367,2.167-.745,1.466-.573,2.413-1.167-2.088-.545l-35.611,4.629-17.922,2.328A294.675,294.675,0,0,1,306.887,271.775Z" transform="translate(-275.636 -208.4)" fill="#b2b4b3"/><path d="M285.428,243.374l17.8-2.074,24.046.486,15.2,2.382-1.871,1.7-14.385-2-25-.491-14.205,1.774Z" transform="translate(-281.23 -232.46)" fill="#b2b4b3"/><line y1="0.383" x2="10.38" transform="translate(30.945 28.79)" stroke-width="0.176" stroke="#fff" stroke-linecap="round" stroke-linejoin="round" fill="none"/><line x2="3.304" y2="5.589" transform="translate(13.657 11.705)" stroke-width="0.552" stroke="#fff" stroke-linecap="round" stroke-linejoin="round" fill="#b2b4b3"/><path d="M305.208,246.806H294.694l-6.123-.271-1.255-3.482" transform="translate(-279.11 -230.494)" fill="none" stroke="#fff" stroke-linecap="round" stroke-linejoin="round" stroke-width="0.552"/></g></svg>