<svg xmlns="http://www.w3.org/2000/svg" width="129.135" height="143.417" viewBox="0 0 129.135 143.417"><g transform="translate(0)"><path d="M428.387,147.621c-11.005.966-18.607,1.971-29.21,4.917-8.384,2.33-17.894,6.028-23.366,10.677-3.186,2.7-5.46,5.055-6.118,10.826-1.389,12.153,3.958,32.329,7.638,43.231,4.885,14.483,8.634,22.367,16.7,34.279,2.323,3.429,4.692,6.778,7.132,9.964a173.533,173.533,0,0,0,15.771,18.267,64.1,64.1,0,0,0,9.165,7.781c3.731,2.535,7.422,4.66,12.6,2.01,11.666-5.973,26.027-24.334,33.336-34.735,10.6-15.077,16.07-28.554,21.355-46.713,2.431-8.354,5-19.46,5.2-28.9.126-6.173-.421-9.9-3.574-13.432a33.527,33.527,0,0,0-9.913-7.181c-14.361-7.206-40.043-12.459-56.713-10.994Z" transform="translate(-369.468 -147.375)" fill="#b1b3b3" fill-rule="evenodd"/><path d="M378.179,211.236a41.9,41.9,0,0,1,4.579-3.153c5.239-2.841,11.735-4.554,17.728-5.828,21.362-4.543,51.2-5.1,73.6-5,2.56.014,5.274.018,7.781.127,2.328.1,5.4.31,7.687.17.4-2.061.961-4.025,1.35-6.107,1.12-6.014,2.509-14.591,1.166-20.456-1.633-7.137-10.414-11.107-16.578-13.57-14.752-5.9-35.91-9.147-52.18-7.714-15.969,1.405-36.448,5.991-46.446,13.86-2.9,2.279-4.908,4.352-5.513,9.568-1.293,11.134,3.682,28,6.824,38.1Z" transform="translate(-367.289 -144.778)" fill="#fff" fill-rule="evenodd"/><path d="M476.446,172.927c-2.026-.219-18.775,1.047-20.792,1.244-6.762.66-13.167,1.415-19.745,2.387-12.218,1.81-24.7,5-34.847,9.513-8.669,3.85-20.882,11.785-21.052,23.3-.028,1.946.212,1.778,1.543,3.905,1.934,3.089,4.612,7.109,6.711,9.948,6.332,8.565,17.922,23.09,26.894,28.536,2.691,1.635,4.846,2.716,8.252,1.18a30.979,30.979,0,0,0,6.612-4.451c11.753-9.791,26.935-29.932,34.049-43.636a170.8,170.8,0,0,0,12.374-31.926Z" transform="translate(-355.768 -114.19)" fill="#fff" fill-rule="evenodd"/><path d="M374.818,176.77c8.292.108,16.795,1.433,19.64-7.981,1.286-4.255.727-8.2-2.742-9.683-1.934-.828-3.786-.787-6.127-.789a66.588,66.588,0,0,0-6.893.051l-3.878,18.4Z" transform="translate(-362.513 -133.24)" fill="#b1b3b3" fill-rule="evenodd"/><path d="M403.726,158.288l-7.112-.009c-.467,2.953-1.6,7.8-2.293,11.1-.265,1.26-.536,2.558-1.64,2.82-1.8.423-1.449-1.608-1.2-2.79.271-1.3.5-2.429.764-3.7.446-2.141,1.313-5.313,1.5-7.418l-7.052-.011c-.274.495-2.433,11.088-2.659,12.425-.936,5.522,3.473,6.8,8.406,6.509,8.768-.515,8.731-6.383,10.016-12.491a57.519,57.519,0,0,0,1.267-6.433Z" transform="translate(-350.695 -133.2)" fill="#b1b3b3" fill-rule="evenodd"/><path d="M399.45,176.78l6.753,0,1.373-2.942,5.147-.016.085,2.82c.791.281,5.835.117,7.413.11l-1.937-18.4c-2.2-.156-6.778-.06-9.326-.055l-4.8,9.26c-.7,1.3-4.575,8.45-4.71,9.221Z" transform="translate(-330.492 -133.217)" fill="#b1b3b3" fill-rule="evenodd"/><path d="M409.848,170.283l-6.711-.057c-.287,1.143-1.318,3.4-2.956,2.263-1.352-.938.306-7.811,1.518-9a1.962,1.962,0,0,1,2.139-.4c.662.375.538,1.4.518,2.323l6.541,0c.354-3.307-.051-5.028-2.233-6.3-4.046-2.357-13.9-1.433-15.962,8.455-1.251,6.005.879,9.86,6.845,9.97,5.377.1,9.416-2.744,10.3-7.266Z" transform="translate(-339.712 -133.512)" fill="#b1b3b3" fill-rule="evenodd"/><path d="M408.936,163.225l4.349.018c.064,1.626-2.758,12.257-2.62,13.508l7.033.014c.593-1.856,1.056-4.807,1.449-6.744.271-1.334,1.017-5.925,1.5-6.73l4.264-.025a34.864,34.864,0,0,0,1.081-4.98l-16.033,0-1.028,4.943Z" transform="translate(-318.16 -133.196)" fill="#b1b3b3" fill-rule="evenodd"/><path d="M415.282,176.726l7.186.02,3.814-18.443-7.167-.024-3.834,18.447Z" transform="translate(-309.911 -133.2)" fill="#b1b3b3" fill-rule="evenodd"/><path d="M378.254,170.12c3.08.209,3.88-1.766,4.46-4.294.639-2.785,1.417-5.957-2.309-5.7l-2.15,9.991Z" transform="translate(-358.047 -130.815)" fill="#fff" fill-rule="evenodd"/><path d="M403.9,166.8l2.916.021.025-6.665A48.13,48.13,0,0,0,403.9,166.8Z" transform="translate(-324.707 -130.761)" fill="#fff" fill-rule="evenodd"/></g></svg>