<svg xmlns="http://www.w3.org/2000/svg" width="143.284" height="130.005" viewBox="0 0 143.284 130.005"><g transform="translate(0)"><path d="M239.625,320.328v84.439l70.668,21.765,70.668-21.765V320.328l-70.668-21.765ZM380.2,404.313l-69.91,21.532-69.908-21.532V320.778l69.908-21.528,69.91,21.528Z" transform="translate(-238.651 -297.544)" fill="#b1b3b3"/><path d="M239.166,320.148v85.875l71.642,22.065,71.642-22.065V320.148l-71.642-22.065ZM380.259,404.58l-69.452,21.39-69.452-21.39V321.593l69.452-21.39,69.452,21.39Z" transform="translate(-239.166 -298.083)" fill="#b1b3b3"/><g transform="translate(9.766 39.214)"><path d="M259.33,339.441a6.676,6.676,0,0,0,1.352-2.587,22.346,22.346,0,0,0,.671-3.529l.011-.093h-1.407l-.006.076a13.035,13.035,0,0,1-.694,3.315,5.706,5.706,0,0,1-1.331,2.1,4.6,4.6,0,0,1-2,1.121,10.387,10.387,0,0,1-2.727.32,8.56,8.56,0,0,1-3.272-.658,6.248,6.248,0,0,1-2.492-1.946,9.547,9.547,0,0,1-1.6-3.419,19.776,19.776,0,0,1-.567-5.059c0-3.892.641-6.744,1.906-8.48a6.578,6.578,0,0,1,5.66-2.6,8.43,8.43,0,0,1,2.581.352,5.335,5.335,0,0,1,1.874,1.042,6.237,6.237,0,0,1,1.335,1.689,13.414,13.414,0,0,1,.968,2.294l.021.059h1.379v-6.354h-1.4v3.12a7.071,7.071,0,0,0-2.6-2.668,8.421,8.421,0,0,0-4.221-.974c-3.207,0-5.535,1.067-6.923,3.166s-2.084,5.235-2.084,9.355c0,4.191.8,7.345,2.379,9.38a8.336,8.336,0,0,0,6.984,3.075,11.618,11.618,0,0,0,3.788-.526A5.606,5.606,0,0,0,259.33,339.441Zm-6.2,2.012a8.231,8.231,0,0,1-6.921-3.041q-2.356-3.043-2.358-9.329,0-6.185,2.067-9.31t6.855-3.126a8.31,8.31,0,0,1,4.183.961,7.124,7.124,0,0,1,2.716,2.916v-3.355h1.237v6.184h-1.237a13.511,13.511,0,0,0-.976-2.311,6.146,6.146,0,0,0-1.352-1.706,5.373,5.373,0,0,0-1.9-1.061,8.589,8.589,0,0,0-2.606-.359,6.63,6.63,0,0,0-5.728,2.638q-1.92,2.639-1.921,8.529a19.756,19.756,0,0,0,.569,5.081,9.571,9.571,0,0,0,1.613,3.449,6.3,6.3,0,0,0,2.523,1.971,8.689,8.689,0,0,0,3.3.666,10.566,10.566,0,0,0,2.75-.325,4.635,4.635,0,0,0,2.035-1.142,5.737,5.737,0,0,0,1.352-2.131,12.935,12.935,0,0,0,.7-3.336h1.237a21.971,21.971,0,0,1-.666,3.517,6.619,6.619,0,0,1-1.335,2.553,5.528,5.528,0,0,1-2.377,1.549A11.547,11.547,0,0,1,253.131,341.453Z" transform="translate(-243.768 -316.561)" fill="#b1b3b3"/><path d="M260.559,336.788a21.972,21.972,0,0,0,.666-3.517h-1.237a12.935,12.935,0,0,1-.7,3.336,5.737,5.737,0,0,1-1.352,2.131,4.636,4.636,0,0,1-2.035,1.142,10.566,10.566,0,0,1-2.75.325,8.688,8.688,0,0,1-3.3-.666,6.3,6.3,0,0,1-2.523-1.972,9.572,9.572,0,0,1-1.613-3.449,19.757,19.757,0,0,1-.569-5.081q0-5.889,1.921-8.529a6.63,6.63,0,0,1,5.728-2.638,8.589,8.589,0,0,1,2.606.359,5.373,5.373,0,0,1,1.9,1.061A6.146,6.146,0,0,1,258.653,321a13.514,13.514,0,0,1,.976,2.311h1.237v-6.184h-1.237v3.355a7.124,7.124,0,0,0-2.716-2.916,8.31,8.31,0,0,0-4.183-.961q-4.791,0-6.855,3.126t-2.067,9.31q0,6.287,2.358,9.329a8.231,8.231,0,0,0,6.921,3.041,11.547,11.547,0,0,0,3.761-.518,5.528,5.528,0,0,0,2.377-1.549A6.619,6.619,0,0,0,260.559,336.788Z" transform="translate(-243.723 -316.516)" fill="#b1b3b3"/><path d="M260.943,316.823h-7.816v1.371h2.506v10.628a25.807,25.807,0,0,0,.573,5.942,10.327,10.327,0,0,0,1.609,3.758,5.692,5.692,0,0,0,2.511,1.984,8.875,8.875,0,0,0,3.234.573,10.338,10.338,0,0,0,3.071-.444,5.568,5.568,0,0,0,2.528-1.685,8.8,8.8,0,0,0,1.711-3.4,20.882,20.882,0,0,0,.62-5.592V318.194h2.443v-1.371h-7.816v1.371h3.973l.03,10.594a28.051,28.051,0,0,1-.452,5.569,9.111,9.111,0,0,1-1.305,3.353,4.31,4.31,0,0,1-2.029,1.63,7.831,7.831,0,0,1-2.7.433,7.013,7.013,0,0,1-2.687-.5,4.651,4.651,0,0,1-2.048-1.727,9.607,9.607,0,0,1-1.322-3.357,25.554,25.554,0,0,1-.471-5.369v-6.855c0-1.668-.011-2.935-.032-3.773h3.875Zm-.083,1.286h-3.875q.032,1.238.034,3.858v6.855a25.441,25.441,0,0,0,.471,5.386,9.584,9.584,0,0,0,1.335,3.387,4.714,4.714,0,0,0,2.082,1.757,7.038,7.038,0,0,0,2.721.505,8,8,0,0,0,2.733-.437,4.395,4.395,0,0,0,2.069-1.664,9.258,9.258,0,0,0,1.318-3.383,28.033,28.033,0,0,0,.454-5.586l-.034-10.679H266.2v-1.2h7.651v1.2h-2.441V329.96a20.661,20.661,0,0,1-.62,5.569,8.677,8.677,0,0,1-1.694,3.37,5.4,5.4,0,0,1-2.489,1.657,10.159,10.159,0,0,1-3.045.444,8.675,8.675,0,0,1-3.2-.573,5.6,5.6,0,0,1-2.474-1.95,10.31,10.31,0,0,1-1.6-3.729,25.559,25.559,0,0,1-.569-5.925V318.109h-2.508v-1.2h7.653Z" transform="translate(-233.265 -316.267)" fill="#b1b3b3"/><path d="M253.165,318.065h2.508v10.713a25.561,25.561,0,0,0,.569,5.925,10.31,10.31,0,0,0,1.6,3.729,5.6,5.6,0,0,0,2.474,1.95,8.675,8.675,0,0,0,3.2.573,10.159,10.159,0,0,0,3.045-.444,5.4,5.4,0,0,0,2.489-1.657,8.677,8.677,0,0,0,1.694-3.37,20.661,20.661,0,0,0,.62-5.569v-11.85h2.441v-1.2h-7.651v1.2h3.971l.034,10.679a28.033,28.033,0,0,1-.454,5.586,9.258,9.258,0,0,1-1.318,3.383,4.4,4.4,0,0,1-2.069,1.664,8,8,0,0,1-2.733.437,7.038,7.038,0,0,1-2.721-.505,4.714,4.714,0,0,1-2.082-1.757,9.584,9.584,0,0,1-1.335-3.387,25.439,25.439,0,0,1-.471-5.386v-6.855q0-2.62-.034-3.858h3.875v-1.2h-7.653Z" transform="translate(-233.223 -316.223)" fill="#b1b3b3"/><path d="M263.926,333.171l.032,7.625h1.536l-.032-2.36a5.964,5.964,0,0,0,.853.906,6.758,6.758,0,0,0,1.447.94,8.276,8.276,0,0,0,1.927.641,12.294,12.294,0,0,0,2.491.227h.127c.087,0,.172,0,.257,0a11.645,11.645,0,0,0,4.119-.611,7.016,7.016,0,0,0,2.57-1.6,4.853,4.853,0,0,0,1.21-2.073,7.705,7.705,0,0,0,.295-1.993,15.5,15.5,0,0,0-.115-1.747,3.968,3.968,0,0,0-.912-2.014,7.719,7.719,0,0,0-2.517-1.878,17.293,17.293,0,0,0-4.892-1.407,15.823,15.823,0,0,1-3.385-.872,7.42,7.42,0,0,1-2.107-1.239,4.012,4.012,0,0,1-1.084-1.486,4.308,4.308,0,0,1-.32-1.626,5.876,5.876,0,0,1,.223-1.577,3.18,3.18,0,0,1,.94-1.458,5.486,5.486,0,0,1,2.05-1.108,12.319,12.319,0,0,1,3.638-.433,9.312,9.312,0,0,1,3.487.548,5.63,5.63,0,0,1,2.018,1.314,4.053,4.053,0,0,1,.942,1.609,7.02,7.02,0,0,1,.274,1.462v.83h1.4v-6.872H279v2.538a5.611,5.611,0,0,0-.787-.9,5.769,5.769,0,0,0-1.4-.959,7.867,7.867,0,0,0-1.942-.643,13.166,13.166,0,0,0-2.589-.231h-.132a12.861,12.861,0,0,0-4.325.594,6.389,6.389,0,0,0-2.458,1.483,4.294,4.294,0,0,0-1.093,1.925,8.121,8.121,0,0,0-.246,1.88,7.959,7.959,0,0,0,.212,1.759,4.065,4.065,0,0,0,1.063,1.846,8.2,8.2,0,0,0,2.5,1.657,18.36,18.36,0,0,0,4.5,1.261,16.671,16.671,0,0,1,4.047,1.121,6.128,6.128,0,0,1,2.09,1.441,3.262,3.262,0,0,1,.794,1.6,10.348,10.348,0,0,1,.129,1.579,5.707,5.707,0,0,1-.242,1.509,3.871,3.871,0,0,1-.972,1.626,5.728,5.728,0,0,1-2.135,1.3,10.643,10.643,0,0,1-3.7.535,8.667,8.667,0,0,1-3.644-.643,5.727,5.727,0,0,1-2.052-1.526,4.629,4.629,0,0,1-.93-1.819,7.2,7.2,0,0,1-.223-1.53v-1.159Zm1.677,2.706a4.751,4.751,0,0,0,.944,1.857,5.84,5.84,0,0,0,2.084,1.547,8.669,8.669,0,0,0,3.678.647,10.716,10.716,0,0,0,3.729-.535,5.865,5.865,0,0,0,2.165-1.318,3.922,3.922,0,0,0,.993-1.66,5.828,5.828,0,0,0,.244-1.534,10.747,10.747,0,0,0-.129-1.592,3.342,3.342,0,0,0-.815-1.647,6.2,6.2,0,0,0-2.118-1.462,16.653,16.653,0,0,0-4.068-1.125,18.073,18.073,0,0,1-4.476-1.254,8.057,8.057,0,0,1-2.474-1.643,3.915,3.915,0,0,1-1.04-1.808,7.642,7.642,0,0,1-.212-1.738,7.929,7.929,0,0,1,.244-1.859,4.14,4.14,0,0,1,1.076-1.887,6.259,6.259,0,0,1,2.421-1.466,12.821,12.821,0,0,1,4.3-.586h.132a12.638,12.638,0,0,1,2.572.229,7.7,7.7,0,0,1,1.921.635,5.7,5.7,0,0,1,1.384.944,5.5,5.5,0,0,1,.93,1.125V317.01h1.235v6.7h-1.235v-.745a6.869,6.869,0,0,0-.278-1.481,4.134,4.134,0,0,0-.961-1.645,5.633,5.633,0,0,0-2.052-1.335,9.293,9.293,0,0,0-3.514-.556,12.167,12.167,0,0,0-3.663.443,5.425,5.425,0,0,0-2.084,1.125,3.237,3.237,0,0,0-.959,1.494,5.874,5.874,0,0,0-.229,1.6,4.4,4.4,0,0,0,.329,1.657,4.058,4.058,0,0,0,1.1,1.513,7.453,7.453,0,0,0,2.133,1.256,15.614,15.614,0,0,0,3.4.874,17.183,17.183,0,0,1,4.87,1.4,7.706,7.706,0,0,1,2.489,1.855,3.872,3.872,0,0,1,.893,1.969,15.462,15.462,0,0,1,.115,1.74,7.757,7.757,0,0,1-.293,1.971,4.724,4.724,0,0,1-1.188,2.035,6.84,6.84,0,0,1-2.54,1.579,11.925,11.925,0,0,1-4.346.6h-.127a12.127,12.127,0,0,1-2.477-.227,8.085,8.085,0,0,1-1.9-.637,6.849,6.849,0,0,1-1.432-.925,5.591,5.591,0,0,1-.993-1.11l.034,2.54h-1.369l-.032-7.455h1.367v1.074A7.114,7.114,0,0,0,265.6,335.877Z" transform="translate(-221.146 -316.371)" fill="#b1b3b3"/><path d="M265.332,333.211h-1.367l.032,7.455h1.369l-.034-2.54a5.589,5.589,0,0,0,.993,1.11,6.852,6.852,0,0,0,1.432.925,8.084,8.084,0,0,0,1.9.637,12.128,12.128,0,0,0,2.477.227h.127a11.924,11.924,0,0,0,4.346-.6,6.838,6.838,0,0,0,2.54-1.579,4.724,4.724,0,0,0,1.188-2.035,7.756,7.756,0,0,0,.293-1.972,15.45,15.45,0,0,0-.115-1.74,3.872,3.872,0,0,0-.893-1.969,7.706,7.706,0,0,0-2.489-1.855,17.182,17.182,0,0,0-4.87-1.4,15.615,15.615,0,0,1-3.4-.874,7.454,7.454,0,0,1-2.133-1.256,4.058,4.058,0,0,1-1.1-1.513,4.4,4.4,0,0,1-.329-1.657,5.874,5.874,0,0,1,.229-1.6,3.237,3.237,0,0,1,.959-1.494,5.425,5.425,0,0,1,2.084-1.125,12.167,12.167,0,0,1,3.663-.444,9.294,9.294,0,0,1,3.514.556A5.632,5.632,0,0,1,277.8,319.8a4.135,4.135,0,0,1,.961,1.645,6.866,6.866,0,0,1,.278,1.481v.745h1.235v-6.7h-1.235V319.7a5.49,5.49,0,0,0-.93-1.125,5.7,5.7,0,0,0-1.384-.944,7.7,7.7,0,0,0-1.921-.635,12.636,12.636,0,0,0-2.572-.229H272.1a12.819,12.819,0,0,0-4.3.586,6.258,6.258,0,0,0-2.421,1.466,4.139,4.139,0,0,0-1.076,1.887,7.931,7.931,0,0,0-.244,1.859,7.643,7.643,0,0,0,.212,1.738,3.915,3.915,0,0,0,1.04,1.808,8.057,8.057,0,0,0,2.474,1.643,18.075,18.075,0,0,0,4.476,1.254,16.652,16.652,0,0,1,4.068,1.125,6.2,6.2,0,0,1,2.118,1.462,3.342,3.342,0,0,1,.815,1.647,10.754,10.754,0,0,1,.129,1.592,5.828,5.828,0,0,1-.244,1.534,3.921,3.921,0,0,1-.993,1.66,5.864,5.864,0,0,1-2.165,1.318,10.716,10.716,0,0,1-3.729.535,8.669,8.669,0,0,1-3.678-.647,5.84,5.84,0,0,1-2.084-1.547,4.751,4.751,0,0,1-.944-1.857,7.114,7.114,0,0,1-.227-1.547Z" transform="translate(-221.103 -316.326)" fill="#b1b3b3"/><path d="M274.142,316.794h-1.059v5.5h1.371v-4.132h7.031v21.125h-2.54v1.369h6.71v-1.369h-2.54V318.165l7.029-.034V322.3h1.371v-5.5h-.978v-.032Zm17.288.081v5.344h-1.205v-4.17l-7.194.034v21.292h2.54v1.205h-6.543v-1.205h2.538V318.082h-7.194v4.136h-1.205v-5.344h.976l16.311-.03v.03Z" transform="translate(-210.87 -316.336)" fill="#b1b3b3"/><path d="M290.409,316.8l-16.31.031h-.977v5.342h1.2v-4.136h7.194v21.293h-2.538v1.2h6.544v-1.2h-2.54V318.038l7.194-.034v4.17h1.205v-5.342h-.977Z" transform="translate(-210.826 -316.292)" fill="#b1b3b3"/><path d="M287.982,338.814a9.131,9.131,0,0,0,3.045.488,7.517,7.517,0,0,0,3.451-.732,5.9,5.9,0,0,0,2.328-2.148,10.408,10.408,0,0,0,1.318-3.468,25.52,25.52,0,0,0,0-9.247,10.568,10.568,0,0,0-1.318-3.483,6.228,6.228,0,0,0-2.328-2.216,7.158,7.158,0,0,0-3.451-.779,8.529,8.529,0,0,0-3.045.522,5.409,5.409,0,0,0-2.375,1.791,9.031,9.031,0,0,0-1.532,3.4,22.663,22.663,0,0,0-.537,5.388,21.83,21.83,0,0,0,.556,5.4,9.022,9.022,0,0,0,1.528,3.353A5.166,5.166,0,0,0,287.982,338.814Zm-4.359-10.484a22.61,22.61,0,0,1,.533-5.367,9.066,9.066,0,0,1,1.517-3.37,5.315,5.315,0,0,1,2.339-1.764,8.56,8.56,0,0,1,3.016-.516,7.04,7.04,0,0,1,3.41.773,6.183,6.183,0,0,1,2.3,2.182,10.526,10.526,0,0,1,1.305,3.457,25.332,25.332,0,0,1,0,9.212,10.323,10.323,0,0,1-1.305,3.438,5.829,5.829,0,0,1-2.3,2.118,7.427,7.427,0,0,1-3.413.726,8.949,8.949,0,0,1-3.018-.486,5.049,5.049,0,0,1-2.322-1.7,9.061,9.061,0,0,1-1.515-3.323A21.879,21.879,0,0,1,283.623,328.33Z" transform="translate(-199.137 -315.809)" fill="#b1b3b3"/><path d="M287.969,340.663a11.15,11.15,0,0,0,7.451,0,6.731,6.731,0,0,0,2.818-2.095,9.959,9.959,0,0,0,1.774-3.79,27.87,27.87,0,0,0,0-11.549,10.148,10.148,0,0,0-1.774-3.822,6.863,6.863,0,0,0-2.818-2.126,10.877,10.877,0,0,0-7.451,0,6.637,6.637,0,0,0-2.786,2.126,10.315,10.315,0,0,0-1.725,3.822,28.76,28.76,0,0,0,0,11.549,10.122,10.122,0,0,0,1.725,3.79A6.51,6.51,0,0,0,287.969,340.663Zm-5.017-11.651a24.156,24.156,0,0,1,.586-5.762,10.126,10.126,0,0,1,1.711-3.792,6.537,6.537,0,0,1,2.75-2.1,9.957,9.957,0,0,1,3.712-.649,9.845,9.845,0,0,1,3.678.649,6.749,6.749,0,0,1,2.782,2.1,10.056,10.056,0,0,1,1.761,3.792,27.86,27.86,0,0,1,0,11.507,9.909,9.909,0,0,1-1.761,3.763,6.632,6.632,0,0,1-2.782,2.067,10.064,10.064,0,0,1-3.678.637,10.178,10.178,0,0,1-3.712-.637,6.425,6.425,0,0,1-2.75-2.067,9.976,9.976,0,0,1-1.711-3.763A23.933,23.933,0,0,1,282.952,329.012Z" transform="translate(-199.886 -316.491)" fill="#b1b3b3"/><path d="M287.956,340.542a10.177,10.177,0,0,0,3.712.637,10.064,10.064,0,0,0,3.678-.637,6.632,6.632,0,0,0,2.782-2.067,9.91,9.91,0,0,0,1.761-3.763,27.86,27.86,0,0,0,0-11.507,10.057,10.057,0,0,0-1.761-3.792,6.749,6.749,0,0,0-2.782-2.1,9.845,9.845,0,0,0-3.678-.649,9.956,9.956,0,0,0-3.712.649,6.537,6.537,0,0,0-2.75,2.1,10.126,10.126,0,0,0-1.711,3.792,28.548,28.548,0,0,0,0,11.507,9.976,9.976,0,0,0,1.711,3.763A6.425,6.425,0,0,0,287.956,340.542Zm-3.712-11.575a22.669,22.669,0,0,1,.537-5.388,9.032,9.032,0,0,1,1.532-3.4,5.408,5.408,0,0,1,2.375-1.791,8.529,8.529,0,0,1,3.045-.522,7.158,7.158,0,0,1,3.451.779,6.227,6.227,0,0,1,2.328,2.216,10.567,10.567,0,0,1,1.318,3.483,25.518,25.518,0,0,1,0,9.247,10.407,10.407,0,0,1-1.318,3.468,5.9,5.9,0,0,1-2.328,2.148,7.517,7.517,0,0,1-3.451.732,9.131,9.131,0,0,1-3.045-.488,5.165,5.165,0,0,1-2.36-1.728,9.022,9.022,0,0,1-1.528-3.353A21.835,21.835,0,0,1,284.244,328.968Z" transform="translate(-199.843 -316.447)" fill="#b1b3b3"/><path d="M302.77,333.771l-5.32-15.645h2.767v-1.3H292.4v1.3h2.313v21.192h-2.377v1.373h7.816v-1.373h-4V318.451l5.942,17.451h1.358l5.717-17.4v20.817H305.1v1.373h7.818v-1.373h-2.309V318.126h2.309v-1.3H305.1v1.3h2.833Zm2.411-15.726v-1.14h7.651v1.14H310.52V339.4h2.311v1.2h-7.651v-1.2h4.068V317.98l-5.862,17.841h-1.235l-6.089-17.871V339.4h4v1.2H292.42v-1.2H294.8V318.045h-2.313v-1.14h7.648v1.14h-2.8l5.435,15.987,5.274-15.987Z" transform="translate(-189.265 -316.267)" fill="#b1b3b3"/><path d="M302.725,333.989,297.291,318h2.8v-1.142h-7.649V318h2.313v21.356h-2.376v1.2h7.65v-1.2h-4.006V317.906l6.089,17.872h1.236l5.862-17.843v21.423h-4.069v1.2h7.65v-1.2h-2.311V318h2.311v-1.142h-7.65V318H308Z" transform="translate(-189.221 -316.224)" fill="#b1b3b3"/><path d="M259.25,330.742a.677.677,0,0,0-.537.2.789.789,0,0,0-.18.547v22.72a.663.663,0,0,0,.2.531.76.76,0,0,0,.52.17h4.834c.5,0,.751-.231.751-.7v-7.75h4.932a6.828,6.828,0,0,0,3.024-.692,7.649,7.649,0,0,0,2.347-1.764,7.927,7.927,0,0,0,1.5-2.489,8.006,8.006,0,0,0,.286-4.828,8.4,8.4,0,0,0-.707-1.844,8.3,8.3,0,0,0-1.133-1.638,7.327,7.327,0,0,0-1.5-1.3,7.212,7.212,0,0,0-1.823-.853,7.026,7.026,0,0,0-2.116-.308Zm11.371,6.9a2.921,2.921,0,0,1,.17.976,3.037,3.037,0,0,1-.17,1.012,2.772,2.772,0,0,1-.486.862,2.478,2.478,0,0,1-.792.607,2.292,2.292,0,0,1-1.059.236h-3.449V335.9h3.449a2.26,2.26,0,0,1,1.05.24,2.778,2.778,0,0,1,.792.628A2.811,2.811,0,0,1,270.621,337.641Z" transform="translate(-227.198 -300.647)" fill="#b1b3b3"/><path d="M269.169,330.944a.764.764,0,0,0-.189.547v22.72a.669.669,0,0,0,.2.531.756.756,0,0,0,.52.17h16.458c.4,0,.622-.149.668-.456a.4.4,0,0,0,.132-.291v-4.09a.657.657,0,0,0-.734-.749H275.281V345.16h8.156a.636.636,0,0,0,.52-.212.663.663,0,0,0,.178-.437v-3.516a.567.567,0,0,0-.2-.49.881.881,0,0,0-.516-.146h-8.137v-4.034h10.547a.68.68,0,0,0,.571-.255.841.841,0,0,0,.193-.526v-4.026a.8.8,0,0,0-.193-.565.708.708,0,0,0-.554-.21H269.7A.671.671,0,0,0,269.169,330.944Z" transform="translate(-215.475 -300.647)" fill="#b1b3b3"/><path d="M278.932,330.935a.665.665,0,0,0-.219.518V335.5a.819.819,0,0,0,.219.613.766.766,0,0,0,.548.212h5.6v17.825a.706.706,0,0,0,.244.543.763.763,0,0,0,.52.221h4.773a.7.7,0,0,0,.554-.238.767.767,0,0,0,.212-.526V336.323h5.613a.675.675,0,0,0,.577-.27.9.9,0,0,0,.2-.556v-4.045a.732.732,0,0,0-.259-.535.825.825,0,0,0-.522-.176H279.479A.789.789,0,0,0,278.932,330.935Z" transform="translate(-204.552 -300.647)" fill="#b1b3b3"/></g><rect width="104.791" height="0.457" transform="translate(19.181 33.953)" fill="#b1b3b3"/><rect width="104.791" height="0.456" transform="translate(19.181 98.772)" fill="#b1b3b3"/><path d="M274.6,307.188a5.843,5.843,0,0,1-.813,2.271,16.092,16.092,0,0,1-.849,2.186,10.173,10.173,0,0,0-1.256,3.323,90.66,90.66,0,0,0-.972,9.317H282.78a6.891,6.891,0,0,0-.223-2.173,2.993,2.993,0,0,0-.518-1.019,3.808,3.808,0,0,1-.473-1.509c-.161-1.3,2.269,0,2.269,0,2.188,1.377,3.241.244,3.241.244a.9.9,0,0,0,.3-.42s.153.108.352.257c.717.507,1.048.626,1.1.471.066-.185-.157-.48-.157-.48a5.553,5.553,0,0,0-.864-.964,4.976,4.976,0,0,0-1.218-.889c-.647-.405-1.9-1.29-1.9-1.29-.505-.444-.31-.48.045-.386a7.086,7.086,0,0,0,1.048.386,3.767,3.767,0,0,0,1.878.051,3.147,3.147,0,0,0,1.891-.666,11.382,11.382,0,0,0,1.171-1.254c.7-.978-.24-1.377-.24-1.377-1.7-.732-4.051-1.46-4.051-1.46a5.635,5.635,0,0,1-2.073-1.409,4.673,4.673,0,0,0-.728-.637,18.693,18.693,0,0,0-4.573-2.572,16.262,16.262,0,0,0-.322-3c-.488-2.593-.809-.635-.809-.635-.244,1.3-.732.635-.732.635,0-.284,0-.715-.03-1.053a5.3,5.3,0,0,0-.13-.73c-.876-2.508-1.3,0-1.3,0a6.676,6.676,0,0,1-.4,1.619A18.619,18.619,0,0,0,274.6,307.188Z" transform="translate(-203.768 -294.48)" fill="#b1b3b3"/><path d="M263.423,349.4l-1.739,3.21.2-3.631-1.5-.413-1.651,3.236.126-3.652-1.672-.455.059,6.12,1.712.467,1.62-3.458-.337,3.812,1.71.467,3.115-5.257Z" transform="translate(-218.94 -242.411)" fill="#b1b3b3"/><path d="M260.374,354.457l4.952,1.053.318-1.5-3.221-.682.164-.775,2.7.577.27-1.268-2.706-.573.153-.73,3.143.671.318-1.5-4.872-1.035Z" transform="translate(-215.366 -241.286)" fill="#b1b3b3"/><path d="M270.719,350.224l-2.224-.312-2,1.635.263-1.879-1.748-.244-.817,5.839,1.748.244.244-1.745.615-.493,1.125,2.51,2.2.312-1.952-3.862Z" transform="translate(-211.079 -240.469)" fill="#b1b3b3"/><path d="M271,353.194l-1.518-3.218-1.777-.16-.523,5.867,1.763.16.27-3.025L270.72,356l1.792.16.525-5.867-1.765-.156Z" transform="translate(-207.727 -240.027)" fill="#b1b3b3"/><path d="M275.068,350.765a2.946,2.946,0,0,0-1.9-.721,3.071,3.071,0,0,0-2.014.582,2.918,2.918,0,0,0-1.123,2.4,3,3,0,1,0,5.036-2.258Zm-1.165,3.5a1.077,1.077,0,0,1-1.838-.068,2.018,2.018,0,0,1-.24-1.112,2.041,2.041,0,0,1,.32-1.1,1,1,0,0,1,.919-.48,1.035,1.035,0,0,1,.917.548,2.009,2.009,0,0,1,.242,1.121A2.055,2.055,0,0,1,273.9,354.26Z" transform="translate(-204.532 -239.775)" fill="#b1b3b3"/><path d="M278.5,353.7l-.855-3.534-1.555.038-.644,3.576-.936-3.534-1.733.046,1.826,5.842,1.773-.046.548-3.783.779,3.749,1.773-.042,1.466-5.935-1.7.046Z" transform="translate(-201.444 -239.74)" fill="#b1b3b3"/><path d="M283.739,352.415a2.861,2.861,0,0,0-1.256-2.254,2.916,2.916,0,0,0-1.916-.337l-2.678.316.685,5.851,2.716-.32a5.086,5.086,0,0,0,.717-.134,2.3,2.3,0,0,0,1.479-1.231A3.349,3.349,0,0,0,283.739,352.415Zm-2.175,1.477a1.411,1.411,0,0,1-.8.295l-.639.076-.327-2.81.658-.074a1.463,1.463,0,0,1,.809.1,1.364,1.364,0,0,1,.688,1.171A1.331,1.331,0,0,1,281.564,353.892Z" transform="translate(-195.712 -240.052)" fill="#b1b3b3"/><path d="M286.7,351.884a2.867,2.867,0,0,0-3.453-2.517,3.109,3.109,0,0,0-1.851.989,3.374,3.374,0,0,0,.847,4.786,3,3,0,0,0,4.457-3.258Zm-1.851,1.449a1.077,1.077,0,0,1-1.81.325,2.312,2.312,0,0,1-.386-2.182,1.017,1.017,0,0,1,.8-.662,1.049,1.049,0,0,1,1.012.342,1.993,1.993,0,0,1,.469,1.05A2.016,2.016,0,0,1,284.846,353.333Z" transform="translate(-192.521 -240.593)" fill="#b1b3b3"/><path d="M286.85,351.408l.3,1.254.736-.176a.726.726,0,0,1-.113.41,1.152,1.152,0,0,1-.724.463,1.118,1.118,0,0,1-.9-.136,1.826,1.826,0,0,1-.709-1.167,2.114,2.114,0,0,1,0-1.152.981.981,0,0,1,.745-.675.993.993,0,0,1,.7.072.967.967,0,0,1,.384.365l1.664-.4a2.347,2.347,0,0,0-1.49-1.424,2.977,2.977,0,0,0-1.623-.017A2.712,2.712,0,0,0,284,350.152a3.332,3.332,0,0,0-.265,2.47,3.028,3.028,0,0,0,1.18,1.831,2.559,2.559,0,0,0,2.173.4,2.4,2.4,0,0,0,1.152-.6,2.686,2.686,0,0,0,.367-.5l.238.543,1.167-.282-.77-3.179Z" transform="translate(-189.287 -241.261)" fill="#b1b3b3"/><path d="M290.4,350.2a11.961,11.961,0,0,0-1.337.013c-.418.013-.668.017-.753.009a.284.284,0,0,1-.263-.182.313.313,0,0,1,.091-.327.88.88,0,0,1,.384-.214.749.749,0,0,1,.681.042.719.719,0,0,1,.18.225l1.677-.509a2.056,2.056,0,0,0-.707-.959,2.473,2.473,0,0,0-2.15-.123,4.817,4.817,0,0,0-1.085.48,1.893,1.893,0,0,0-.556.554,1.686,1.686,0,0,0,1.254,2.6,16.026,16.026,0,0,0,1.689.03,4.755,4.755,0,0,1,.518.021.317.317,0,0,1,.27.227.369.369,0,0,1-.119.393,1.323,1.323,0,0,1-.518.282.866.866,0,0,1-.868-.093,1.154,1.154,0,0,1-.2-.3l-1.715.52a1.772,1.772,0,0,0,1.216,1.237,3.231,3.231,0,0,0,1.952-.068,2.7,2.7,0,0,0,1.853-1.443,1.76,1.76,0,0,0,.07-1.235A1.651,1.651,0,0,0,290.4,350.2Z" transform="translate(-186.293 -242.075)" fill="#b1b3b3"/><path d="M290.694,348.272a.884.884,0,1,0,.881.885A.884.884,0,0,0,290.694,348.272Z" transform="translate(-182.336 -241.76)" fill="#b1b3b3"/><path d="M255.91,348.272a.884.884,0,1,0,.883.885A.886.886,0,0,0,255.91,348.272Z" transform="translate(-221.371 -241.76)" fill="#b1b3b3"/></g></svg>