<svg xmlns="http://www.w3.org/2000/svg" width="209.867" height="144.061" viewBox="0 0 209.867 144.061"><g transform="translate(5.228 95.019)"><path d="M117.853,186.042v6.141c3.518-.977,7.184-.375,8.684,2.4,1.525,2.84.938,7.374-1.346,9.341-1.995,1.746-6.449,1.959-9.339.676V186.444C115.831,185.614,117.24,186.227,117.853,186.042Zm4.945,17.623c2.36-1.211,3.247-6.038,1.73-8.684-1.251-2.174-3.786-2.48-6.676-1.464v10.148A6.593,6.593,0,0,0,122.8,203.665Z" transform="translate(-81.939 -185.995)" fill="#b2b4b3" fill-rule="evenodd"/><path d="M151.267,186.042V204.6c-3.365,1.134-7.643,1.4-9.876-.935-2.077-2.18-2.221-7.077-.266-9.62,1.428-1.852,4.565-2.783,8.012-2a45.211,45.211,0,0,0,.128-5.6C149.244,185.614,150.652,186.227,151.267,186.042Zm-8.547,8.939a8.043,8.043,0,0,0-.265,6.8c1.112,2.324,3.921,2.792,6.809,1.881V193.251C146.413,192.609,143.88,193.154,142.72,194.981Z" transform="translate(-60.353 -185.995)" fill="#b2b4b3" fill-rule="evenodd"/><path d="M183.8,186.686a4.817,4.817,0,0,1-1.475,1.865c-.767.777-1.31,1.8-2.931,1.608C180.582,188.856,181.081,185.582,183.8,186.686Z" transform="translate(-24.527 -185.573)" fill="#b2b4b3" fill-rule="evenodd"/><path d="M131.372,186.661c1.009-.145,1.529.346,1.475,1.207-.11,1.5-2.473,1.376-2.671.124C130.007,186.973,130.508,186.787,131.372,186.661Z" transform="translate(-69.026 -185.417)" fill="#b2b4b3" fill-rule="evenodd"/><path d="M170.889,186.688c1.093-.312,1.671.312,1.73.933.167,1.624-2.339,1.8-2.669.541C169.732,187.265,170.172,186.894,170.889,186.688Z" transform="translate(-33.11 -185.444)" fill="#b2b4b3" fill-rule="evenodd"/><path d="M192.316,186.681c.779-.183,1.458-.019,1.6.809.364,1.959-2.57,1.869-2.663.4C191.21,187.359,191.356,186.907,192.316,186.681Z" transform="translate(-13.82 -185.437)" fill="#b2b4b3" fill-rule="evenodd"/><path d="M165.8,195.2c2.834.605,5.419,3.1,4.015,6.411-1.456,3.4-8.073,3.3-11.887,2V187.985c3.166-1.367,9.9-1.445,11.219,1.736A4,4,0,0,1,165.8,195.2Zm.276-1.207a3.263,3.263,0,0,0,.525-4.534c-1.089-1.317-4.445-1.338-6.533-.678v6.011C162.214,194.7,164.576,195,166.08,193.993Zm1.2,7.744a3.77,3.77,0,0,0,.135-4.136c-1.119-1.749-4.03-1.664-7.077-1.732a.348.348,0,0,0-.265.39v6.419C162.517,203.3,165.939,203.442,167.279,201.736Z" transform="translate(-43.919 -185.007)" fill="#b2b4b3" fill-rule="evenodd"/><path d="M176.384,187.21c.312.94.053,2.444.133,3.6a12.479,12.479,0,0,0,2.931.139v1.2h-2.8c.358,3.447-2,11.773,2.8,10.673v1.338c-2,.274-3.565.034-4.4-1.072-1.635-2.151.118-7.6-.535-10.814-.44-.3-1.462-.038-2.134-.126v-1.2h2.008a14.082,14.082,0,0,0,.126-3.072C175.048,187.568,175.883,187.564,176.384,187.21Z" transform="translate(-30.865 -184.898)" fill="#b2b4b3" fill-rule="evenodd"/><path d="M107.241,187.283v1.323h-6.8a50.954,50.954,0,0,0-.128,6.011h6.272v1.34H100.44a62.835,62.835,0,0,0-.128,6.674h6.929v1.336H98.036V187.283Z" transform="translate(-98.036 -184.832)" fill="#b2b4b3" fill-rule="evenodd"/><path d="M187.726,201.9c-2.406.777-6.634,1.513-9.08.133-2.612-1.475-1.934-5.372.4-6.678,1.686-.94,4.279-1.188,6.679-1.47.421-3.247-2.141-3.937-5.075-3.476-1.133.187-2.558,1.2-2.667-.265-.067-.575.948-.676,1.468-.8,3.3-.8,7.753-.417,8.277,2.935C188.125,194.924,187.431,198.621,187.726,201.9Zm-8.277-4.945a3.29,3.29,0,0,0-.265,3.206c.881,1.717,4.235,1.8,6.539.935-.029-1.538.038-3.384,0-4.808-.013-.43.225-1.174-.268-1.336C183.056,195.3,180.431,195.579,179.449,196.951Z" transform="translate(-26.718 -183.292)" fill="#b2b4b3" fill-rule="evenodd"/><path d="M113.886,190.521c2.714-2.387,8.813-2.05,9.478,1.869.453,2.69-.335,6.712,0,10.011h-2c-.442-3.287.655-7.256-.133-10.011s-4.618-2.574-6.4-.8V202.4h-2.141v-5.073c0-1.763.324-3.738,0-5.077-.594-2.475-4.216-2.231-6.546-1.464V202.4h-2V189.852C106.8,188.767,112.091,188.522,113.886,190.521Z" transform="translate(-92.523 -183.265)" fill="#b2b4b3" fill-rule="evenodd"/><path d="M133.685,201.863c-3.615,1.312-10.494,1.529-10.818-2.671-.3-3.98,4.686-5.025,8.821-5.343.476-3.221-2.084-3.91-4.94-3.476-1.18.188-2.663,1.277-2.808-.265-.175-.565.72-.548,1.07-.662,2.039-.64,6.287-.685,7.745.8C135.089,192.62,132.942,197.9,133.685,201.863Zm-8.813-3.082c.057,2.941,4.081,3.063,6.817,2.277v-6.145h-.27C128.467,195.233,124.837,195.962,124.871,198.781Z" transform="translate(-75.612 -183.259)" fill="#b2b4b3" fill-rule="evenodd"/><path d="M143.6,201.893c-2.88,1.116-8.494,1.361-10.144-.805a3.939,3.939,0,0,1-.274-4.14c1.233-2.32,5.362-2.655,8.41-3.068.723-4.572-4.787-3.74-7.477-2.808a2.186,2.186,0,0,0-.4-1.066c2.884-1.411,8.661-1.746,9.74,1.607C144.374,194.447,143.061,198.248,143.6,201.893Zm-8.284-4.945a3.137,3.137,0,0,0-.129,3.348c1.089,1.6,4.285,1.323,6.405.792v-6.145h-.268C138.983,195.482,136.4,195.4,135.315,196.948Z" transform="translate(-66.695 -183.289)" fill="#b2b4b3" fill-rule="evenodd"/><path d="M157.908,201.888c-2.9,1.131-8.461,1.355-10.146-.805a3.888,3.888,0,0,1-.268-4.14c1.239-2.32,5.358-2.655,8.412-3.068.727-4.572-4.8-3.74-7.481-2.808a2.043,2.043,0,0,0-.39-1.066c2.178-1.2,6.52-1.428,8.4-.129C159.351,191.872,157.276,197.611,157.908,201.888Zm-8.278-4.945a3.083,3.083,0,0,0-.129,3.348c1.117,1.633,4.3,1.3,6.405.792v-6.145h-.27C153.284,195.477,150.735,195.4,149.63,196.943Z" transform="translate(-53.774 -183.284)" fill="#b2b4b3" fill-rule="evenodd"/><path d="M172.382,189.046a9.384,9.384,0,0,0-.525,1.47,10.124,10.124,0,0,0-4.144.126V202.4h-2.136V189.848A16.449,16.449,0,0,1,172.382,189.046Z" transform="translate(-37.011 -183.261)" fill="#b2b4b3" fill-rule="evenodd"/><path d="M195.046,202.4H193.04c-.655-3.822,1.4-9.933-1.336-11.613-1.26-.779-3.442-.539-5.337-.141-.306,3.649-.053,7.879-.135,11.754h-2.14V189.854c2.574-1,7.985-1.407,9.887.527C196.354,192.825,194.4,197.7,195.046,202.4Z" transform="translate(-20.283 -183.266)" fill="#b2b4b3" fill-rule="evenodd"/><path d="M203.557,189.855a5.9,5.9,0,0,0-.539,1.2c-1.8-1.079-4.717-.933-6.006.938-1.93,2.81-.87,8.2,1.744,9.078a5.347,5.347,0,0,0,4.133-.531c.388.234.312.946.668,1.2a6.223,6.223,0,0,1-4.54.935c-5.088-.611-6.866-8.583-3.2-12.143A7.179,7.179,0,0,1,203.557,189.855Z" transform="translate(-11.444 -183.268)" fill="#b2b4b3" fill-rule="evenodd"/><path d="M210.655,201.884c-2.87,1.032-8.351,1.4-10.146-.676a4.138,4.138,0,0,1,.141-4.938c1.593-1.776,5.2-2.006,8.006-2.4.027-1.618-.3-2.7-1.342-3.209-1.839-.908-4.637.112-6.272.274a1.234,1.234,0,0,0-.392-.938c2.819-1.483,8.4-1.483,9.6,1.2C211.382,193.7,210.24,198.309,210.655,201.884Zm-8.674-4.412c-1.567,3.98,3.925,4.808,6.676,3.478a53.459,53.459,0,0,0-.141-6.015h-.263C206.109,195.351,202.728,195.594,201.98,197.471Z" transform="translate(-6.129 -183.279)" fill="#b2b4b3" fill-rule="evenodd"/><path d="M133.934,189.174c-.4,5.92,1.2,13.431-1.879,16.688a6.548,6.548,0,0,1-3.333,1.742c-.415-1.818.967-1.639,1.738-2.543,2.484-2.918.862-10.138,1.334-15.493-.013-.181-.017-.377.128-.394Z" transform="translate(-70.379 -183.124)" fill="#b2b4b3" fill-rule="evenodd"/><path d="M172.2,189.174v13.085h-2.136V189.174Z" transform="translate(-32.955 -183.124)" fill="#b2b4b3" fill-rule="evenodd"/><path d="M193.523,189.174v13.085h-2.138V189.174Z" transform="translate(-13.693 -183.124)" fill="#b2b4b3" fill-rule="evenodd"/><path d="M138.986,199.566c-.459.495-.994,1.129-1.6,1.738-.779.765-1.279,1.745-2.808,1.607C135.565,201.446,136.479,198.218,138.986,199.566Z" transform="translate(-65.02 -174.025)" fill="#b2b4b3" fill-rule="evenodd"/><path d="M105.913,207.929c1.852.868,3.881,1.578,4.272,3.609,1.207,6.122-7.616,6.7-12.148,4.808V200.725c3.2-1.235,9.582-1.416,11.08,1.607A3.912,3.912,0,0,1,105.913,207.929Zm1.2-2.263c1.588-4.022-3.346-5.457-6.944-4.136v6.006C103.229,207.553,106.335,207.638,107.116,205.666Zm.672,8.143c1.544-4.388-3.851-5.653-7.475-5.069a64.15,64.15,0,0,0-.141,6.67C103.038,216.465,107.009,215.995,107.788,213.809Z" transform="translate(-98.036 -173.446)" fill="#b2b4b3" fill-rule="evenodd"/><path d="M131.365,200.044h.265v3.611h2.937v1.2h-2.806c.459,3.232-2.147,11.619,2.806,10.812v1.2c-2.311.411-4.213-.063-4.8-1.73-.9-2.545.392-7.11-.139-10.142-.442-.31-1.462-.057-2.128-.141v-1.2h2.128v-3.074A9.059,9.059,0,0,0,131.365,200.044Z" transform="translate(-71.419 -173.302)" fill="#b2b4b3" fill-rule="evenodd"/><path d="M110.265,201.921a6.723,6.723,0,0,1,5.743,1.47c2.627,2.779,2.242,9.877-1.6,11.61-3.008,1.353-7.028.055-8.277-2.528-1.015-2.1-.771-6.453.265-8.147A5.114,5.114,0,0,1,110.265,201.921Zm-2.671,8.271c.36,2.6,2.654,4.688,5.478,3.742,2.735-.916,3.27-6.83,1.6-9.346a3.982,3.982,0,0,0-3.345-1.47C108.284,203.362,107.041,206.2,107.594,210.192Z" transform="translate(-91.308 -171.701)" fill="#b2b4b3" fill-rule="evenodd"/><path d="M124.385,202.632c-.691,5.132,1.386,13.587-1.066,16.427-1.924,2.227-6.419,2.044-9.744.933.063-.558.47-.782.539-1.334,3.259,1.184,9.093,1.258,8.269-3.607-2.457.828-6.065.379-7.608-1.066a7.166,7.166,0,0,1-1.867-4.938c-.048-3.531,2.086-6.805,5.745-7.218A12.212,12.212,0,0,1,124.385,202.632Zm-8.28,2.14c-1.4,1.984-1.519,5.9-.128,7.875,1.251,1.795,3.908,2.075,6.405,1.07V203.441C119.839,202.529,117.292,203.1,116.1,204.771Z" transform="translate(-84.601 -171.752)" fill="#b2b4b3" fill-rule="evenodd"/><path d="M125.155,201.924c5.063-.775,7.479,2.581,7.336,7.075-.084,2.751-1.249,5.09-3.206,6a6.359,6.359,0,0,1-8.408-2.676c-1.479-3.223-.423-7.9,1.608-9.47A5.1,5.1,0,0,1,125.155,201.924Zm-1.2,1.86c-2.275,1.869-2.235,9.082.931,10.153,5.811,1.947,7.083-7.568,3.866-10.153a3.762,3.762,0,0,0-2.524-.662A3.665,3.665,0,0,0,123.952,203.784Z" transform="translate(-78.024 -171.704)" fill="#b2b4b3" fill-rule="evenodd"/><path d="M142.887,214.746c-2.593.746-7,1.452-9.342-.131a3.739,3.739,0,0,1-1.2-4.538c1.095-2.65,4.854-3,8.543-3.339.384-3.051-1.529-3.9-4.677-3.607-1.247.112-2.93,1.279-3.063-.265-.135-.453.8-.533,1.329-.67,2.261-.611,6.352-.716,7.742,1.207C144.13,206.02,142.172,210.825,142.887,214.746Zm-8.541-1.871c.79,1.7,4.331,1.766,6.542,1.072v-6.274h-.274C137.173,207.794,132.808,209.57,134.346,212.875Z" transform="translate(-67.323 -171.714)" fill="#b2b4b3" fill-rule="evenodd"/></g><path d="M129.331,157.491a13.777,13.777,0,0,1,2.916,7.439h-9.053V153.537a10.529,10.529,0,0,1,6.137,3.954Zm3.131,6.594a14.041,14.041,0,0,0-2.358-6.038.88.88,0,0,0,.352-.569.8.8,0,0,0-.634.168c-.08-.11-.156-.23-.242-.333a11.172,11.172,0,0,0-5.547-3.877.43.43,0,0,0-.5-.421.331.331,0,0,0-.219.251.516.516,0,0,0-.1-.025.832.832,0,0,0-.474-.2.853.853,0,0,0,.147.55v.042a.353.353,0,0,0-.3.158.443.443,0,0,0,.3.569v4.43a.83.83,0,0,0-.539.244.8.8,0,0,0,.539.242v4.8a.419.419,0,0,0-.322.52.344.344,0,0,0,.322.2v.1a.882.882,0,0,0-.135.449.847.847,0,0,0,.436-.114h.124a.337.337,0,0,0,.2.3.4.4,0,0,0,.516-.3h3.207a.779.779,0,0,0,.244.55.752.752,0,0,0,.246-.55h3.657a.427.427,0,0,0,.544.346.336.336,0,0,0,.177-.346h.082a.96.96,0,0,0,.489.139.865.865,0,0,0-.141-.436c0-.038,0-.08,0-.128a.342.342,0,0,0,.318-.194.436.436,0,0,0-.392-.529Z" transform="translate(-70.835 -120.787)" fill="#b2b4b3"/><path d="M128.353,157.28a.357.357,0,0,0-.065.282.379.379,0,0,0,.383.249.744.744,0,0,0-.3.523.824.824,0,0,0,.581-.139.359.359,0,0,0,.141.432.3.3,0,0,0,.234.025,13.635,13.635,0,0,1,1.848,5.048.956.956,0,0,0-.417-.088.782.782,0,0,0,.167.476h-3.055a.36.36,0,0,0-.2-.324.354.354,0,0,0-.424.148.785.785,0,0,0-.246-.548.905.905,0,0,0-.244.548.344.344,0,0,0-.417-.148.351.351,0,0,0-.207.324h-2.61a.962.962,0,0,0,.143-.463.789.789,0,0,0-.472.152v-4.241a.408.408,0,0,0,.373-.207.4.4,0,0,0-.158-.424.783.783,0,0,0,.544-.242.868.868,0,0,0-.544-.244.389.389,0,0,0,.158-.417.4.4,0,0,0-.373-.217V154.2a.808.808,0,0,0,.386.143.78.78,0,0,0-.082-.464,10.421,10.421,0,0,1,4.854,3.4Zm3.186,6.946a13.667,13.667,0,0,0-2.825-6.984,11.5,11.5,0,0,0-2.615-2.433,9.383,9.383,0,0,0-3.021-1.371l-.188-.032v10.978h8.674l-.025-.158Z" transform="translate(-70.352 -120.422)" fill="#b2b4b3"/><path d="M129.578,161.4v0a.75.75,0,0,0,.362-.348.369.369,0,0,1-.369-.044c.129-.076.291.013.129-.228-.145-.253-.259-.253-.415-.08a.947.947,0,0,1-1.188-.82l.006.01a.744.744,0,0,0,.327.282c.516.308,1.007.116,1.039-.3.038-.434-.365-.638-.822-1.005-.183-.162-.333-.3-.449-.421-.139-.3-.013-.573-.4-1.125-.038-.137-.069-.291-.137-.489a1.422,1.422,0,0,0,.242,1.652c.442.474,1.367.935,1.323,1.334a.259.259,0,0,1-.251.228,1.15,1.15,0,0,1-.624-.308.736.736,0,0,1-.084-.088h-.01a8.77,8.77,0,0,1-.961-1.184,1.749,1.749,0,0,1-.167-1.544c.3-.413-.19-1.273-.47-1.481a.818.818,0,0,0-.029-.451c-.051.059-.188.042-.263.042-.074-.166-.118-.2-.215-.211-.19-.034-.19-.143-.2-.208-.107.088-.156.183-.265.194-.148.013-.209,0-.28.049a.376.376,0,0,1-.32.124c-.168-.01-.168.091-.16.225.013.074.019.2.122.251a.258.258,0,0,1,.055.021l.141.16.1-.171h0c.07-.069.3-.09.346.07.03.12.05.148-.091.158s-.232.021-.377.032c-.1,0-.1.137-.1.217.013.1.126.148.331.1s.584-.089.584.088c0,.474-.562.428-.678.982a.981.981,0,0,1-.308-.287,1.93,1.93,0,0,0-.394-.493,1.816,1.816,0,0,0-.394-.324c-.194-.107-.194-.19-.194-.384,0-.164.074-.314.072-.468A.663.663,0,0,0,124.1,155a.256.256,0,0,0-.246-.158.242.242,0,0,1,.093.164c-.036.036-.065.08-.076.088-.029.055-.046.112.011.164.017.015.017.015.017.038a.553.553,0,0,0-.017.074c-.011.029-.023.006-.023,0-.034-.12-.089-.28-.2-.284-.019,0-.053-.017-.076-.017v-.015c0-.118-.133-.223-.282-.072.03.006.1.011.116.048a.625.625,0,0,0-.017.124c-.01.124.078.166.206.169.029,0,.034.011.034.027a.257.257,0,0,1,.019.053c0,.019-.008.019-.019.015-.213-.1-.308,0-.308.1v.089c-.07.053-.1.16.059.255,0-.042-.03-.128.036-.143l.032-.011a.231.231,0,0,0,.055.05c.017.017.051.01.126-.038.011-.011.019-.019.046-.006s.04.025.065.044.017.025,0,.036c-.133.148-.116.27.053.312-.067.152-.325.082-.32-.141a.283.283,0,0,0,.373.4c.011.107,0,.3.044.31a.058.058,0,0,1,.063-.063l.01.023c.01.076.03.171.135.181-.011-.051-.011-.1.025-.1a1.847,1.847,0,0,0,.133.217,1.973,1.973,0,0,0,.919,1.005,2.551,2.551,0,0,0-.662.624c-.156.152-.379.312-.52.225-.063-.04-.08-.093-.164-.158a.206.206,0,0,0-.181-.046.775.775,0,0,0-.093.032.253.253,0,0,0-.28.1.219.219,0,0,1,.192.029v.107c-.011.059.04.135.325.114.019,0,.053.008.036.027a.143.143,0,0,1-.154.051c-.128-.032-.187-.137-.28-.023a.3.3,0,0,1-.055.076.09.09,0,0,0-.032,0c-.114.044-.221.249-.089.348a.216.216,0,0,1,.089-.181.4.4,0,0,0,.042.07c.1.118.187.2.377-.093.019-.032.03,0,.03.006-.017.137-.141.32.032.348a.526.526,0,0,0,.08.019v.034a.251.251,0,0,0,.327.154.288.288,0,0,1-.179-.188c.04,0,.08-.008.08-.019.107-.1-.011-.223.036-.308.009-.023.027-.008.036,0,.036.059.129.2.278.116a.261.261,0,0,0,.122-.194.833.833,0,0,1,.5-.086c-.027-.1.1-.244.3-.3a.324.324,0,0,1,.36.063,1.059,1.059,0,0,1,.215-.362c-.029.819,1.077.8,1.331,1.275a1.916,1.916,0,0,0-.912-.154c-.265.05-.729.293-.8.615a1.116,1.116,0,0,0,.476.87c-.314.057-.424-.048-.721.036l-.027-.006c-.253.023-.293-.423-.584-.308-.017.01-.063.048-.088.067h0c-.112,0-.272.137-.247.261a.3.3,0,0,1,.183-.11v.072c0,.038.019.086.118.086.059,0,.076-.027.116-.027,0,0,.029.013.029.032,0,.112-.365-.067-.3.253.011,0,.04.063.059.091-.019.093.07.179.225.139-.027-.023-.086-.067-.072-.122a.344.344,0,0,1,.063.008c.029,0,.046-.011.057-.053,0,0,0-.01.013-.01a.033.033,0,0,1,.034.034c0,.011-.029.029-.029.063,0,.008.029.089.029.1,0,.112.145.227.314.112-.038,0-.145-.027-.152-.07a.26.26,0,0,1,.07-.036c.032-.025.032-.069.032-.114s.021-.032.021-.032a.818.818,0,0,1,.091,0c.046-.006.048,0,.048.023a.2.2,0,0,0,.236.093.121.121,0,0,0,.1-.08.7.7,0,0,1,.131.089c-.034-.126.049-.225.31-.046l.183-.143s.249.1.337-.015c.156-.139.074-.147.074-.274-.112-.242-.166-.223-.225-.455-.078-.405.483-.64.817-.577a1.843,1.843,0,0,0,1.037,1.144c.375.135.529-.282.649-.223a.176.176,0,0,1,.063.093c-.036.2.013.369-.036.463-.034.1-.244.011-.373.011a.142.142,0,0,0-.147.061.285.285,0,0,0-.251.249.594.594,0,0,1,.207-.107.12.12,0,0,0,.01.049.174.174,0,0,0,.3.107c.01-.011.059,0,.036.03-.1.067-.263.221-.122.278a.443.443,0,0,1,.086.044.191.191,0,0,0,.15.207c-.036-.048-.044-.08.008-.188H129c.107.006.059-.19.169-.265.019-.01.032-.006.019.013-.034.112-.057.257.04.291.011,0,.051.01.1.013.027.088.135.152.284.08-.034-.008-.118-.042-.126-.088a.659.659,0,0,0,.068-.109c.072-.246-.133-.251-.133-.345,0-.12.24-.044.24-.284v-.04c.118-.065.227-.147.236-.232a.886.886,0,0,1-.312-.057Z" transform="translate(-70.102 -119.335)" fill="#b2b4b3"/><path d="M124.4,162.143l-.168-.021a.414.414,0,0,0-.483.35c-.025.28.169.424.426.445l.126.008-.3,1.942-1.93-2.758a8.983,8.983,0,0,1,2.018-.74c.31,0,.383.143.31.775Zm-3.771.432a8.3,8.3,0,0,0,.98-.284l2.277,3.27c-.07.461-.139.923-.215,1.382l-3.042-4.369Zm2.735,6.335-4.321-6.2c.148.006.276.01.394.01a4.26,4.26,0,0,0,.662-.046l3.459,4.957c-.072.484-.141.929-.194,1.279Zm-4.883-6.152,4.736,6.8c-2.534-.921-5.056-3.261-4.736-6.8Zm7.037-.539-.213-.013V162a1.18,1.18,0,0,0-1.239-1.321c-.721,0-2.122.938-4.093.938a5.5,5.5,0,0,1-2.461-.761l-.244.575a.082.082,0,0,0,.011-.053.489.489,0,1,0-.978,0,.487.487,0,0,0,.487.491.478.478,0,0,0,.383-.19l-.249.588a1.29,1.29,0,0,0,.249.1,7.981,7.981,0,0,0,5.749,7.915c.575-.156,1.239-.051,1.239.581a.5.5,0,0,1-.55.565c-.228,0-.379-.139-.379-.293,0-.268.459-.107.5-.284.067-.242-.091-.35-.354-.35a.652.652,0,0,0-.689.634.847.847,0,0,0,.889.845,1.138,1.138,0,0,0,1.228-1.3c.2.01.432-.025.485-.225l.044-.607-.2-.027.158-6.828.145.025a.4.4,0,0,0,.483-.375c.032-.272-.2-.4-.4-.421Z" transform="translate(-76.305 -113.85)" fill="#b2b4b3"/><path d="M121.538,155.345c-.093,0-.143-.124-.116-.206a1.536,1.536,0,0,0,.326.129c-.154.03-.112.076-.209.076Zm-.143.186c-.025.006-.025-.086-.07-.086s-.038.03,0,.091c-.078-.023-.128-.051-.16,0s-.013.089.025.129,0,.082-.015.131c-.03.057-.1.147-.19.089a.133.133,0,0,1-.042-.194c.027-.059.042-.109.08-.109s.086,0,.1-.057-.038-.088-.089-.135c.051-.01.089-.048.051-.065-.034-.04-.086.017-.1,0-.01-.036.036-.046.053-.065s.051-.023.076,0l.255.124c.029.01.059.023.059.063-.015.023,0,.068-.023.086Zm-.162-.493c-.048.076-.129.131-.206.065s.009-.091-.076-.215a2.122,2.122,0,0,0,.282.15Zm2.431,1.344c.952,0,1.428-.316,1.428-.6,0-1.068-2.627-.413-2.627-1.064a.372.372,0,0,1,.187-.274h0c1.329-.1,1.382-1.043,2.332-1.224-1.146-.164-1.315.739-1.789.775a.6.6,0,0,0,.331-.552c-.232.32-.744.341-1.028.7a.2.2,0,0,0-.044.187.464.464,0,0,0-.276.385c0,1,2.663.316,2.663,1.045,0,.249-.463.438-1.2.438-.546,0-.938-.4-1.97-.141,0-.171.352-.495.219-.649a.287.287,0,0,0,.175-.213.41.41,0,0,0-.2-.078c.029-.057-.01-.1-.049-.148-.008-.008-.038-.114-.057-.145a.979.979,0,0,0-.234-.15.607.607,0,0,0-.238-.07.8.8,0,0,0-.16.027c-.048-.01-.108-.01-.116.061a.391.391,0,0,0-.194-.088.369.369,0,0,0-.021.289c-.1.011-.2.249-.289.228.032.061.065.1.086.1-.078.145-.108.316-.2.322a.127.127,0,0,0,.069.084,3.087,3.087,0,0,0-.141.6h0a.893.893,0,0,0-.206-.164c-.154-.093-.147-.164-.122-.32.021-.131.112-.246.122-.375a.6.6,0,0,0-.025-.114.181.181,0,0,0-.2-.131.125.125,0,0,1,.065.131c-.03.032-.074.065-.074.069a.087.087,0,0,0-.015.131.02.02,0,0,1,0,.03.133.133,0,0,1-.013.061c-.013.017-.021.008-.025,0-.013-.1-.049-.238-.137-.249h-.057l-.006-.013c.017-.1-.089-.187-.242-.063.025,0,.084,0,.1.04a.633.633,0,0,0-.051.093c-.019.1.057.145.173.145.019,0,.036.013.036.025a.118.118,0,0,0,0,.036c.008.021,0,.021-.021.009-.183-.07-.272,0-.291.076,0,.009-.011.057-.011.078-.061.038-.1.126.011.206.01-.032.01-.093.063-.107l.023-.015a.227.227,0,0,0,.048.042c.017.015.046.013.12-.023.013-.019.025-.019.044,0a.165.165,0,0,0,.055.027c.013.011.01.019-.006.04-.145.1-.145.219.027.244.021.01.021.023.021.038-.057.217-.362.167-.314-.046-.215.244.07.43.318.312.025-.006.025-.006.032.009.006.036.021.074.061.074a.06.06,0,0,1,.063-.038c.019,0,.019.006.019.017a.1.1,0,0,0,.088.139c0-.042.013-.084.044-.084s.107.187.236.333a2.987,2.987,0,0,1-.588.179,1.272,1.272,0,0,0-.463.027c-.15.07-.516.211-.63.057-.04-.053-.025-.107-.069-.188a.293.293,0,0,0-.124-.1H118.3a.217.217,0,0,0-.253-.027.174.174,0,0,1,.147.093.848.848,0,0,1-.046.08c-.025.044-.013.128.227.207,0,0,.036.023.011.038a.119.119,0,0,1-.131-.025c-.091-.069-.107-.173-.211-.107a.413.413,0,0,1-.074.034.037.037,0,0,0-.029-.008c-.1-.006-.261.122-.187.234a.184.184,0,0,1,.124-.1c.01.032.017.067.023.078.025.116.069.206.324.044.023-.019.023.009.023.021-.067.1-.232.2-.1.289a.275.275,0,0,0,.053.038.041.041,0,0,0-.008.023.216.216,0,0,0,.2.234.2.2,0,0,1-.065-.209.325.325,0,0,0,.063.023c.114-.048.063-.194.124-.242.029-.015.032-.006.038.015a.182.182,0,0,0,.183.187.213.213,0,0,0,.181-.211v-.006a.142.142,0,0,1,.072.15.179.179,0,0,0,.1-.1.2.2,0,0,1-.057.244.336.336,0,0,0,.23-.24.264.264,0,0,1,.048.074l.011-.006a.486.486,0,0,0,.284-.011c.013,0,.025.006.013.017a.2.2,0,0,0,.023.145c0-.019.034-.078.053-.078.04,0,0,.147.078.223.036-.356.23-.211.459-.356.011-.011.021-.008.01.013a.154.154,0,0,1-.089.116c.086,0,.276-.08.276-.211,0-.025.069-.072.141-.116a.232.232,0,0,0,.247-.116c.021.036.048.145,0,.173.234.011.476-.259.565-.272.506-.109-.308-.472.71-.417a.448.448,0,0,0,.3-.1c-.074.148-.074.461.078.482a.63.63,0,0,1,.268.124c.013.011,0,.013-.015.013a.862.862,0,0,0-.215.065c-.238.158-.247-.367-.5-.268-.015.011-.049.038-.069.049-.107,0-.236.12-.207.23a.26.26,0,0,1,.16-.089v.046c-.015.044,0,.089.091.089.049,0,.059-.03.1-.03a.039.039,0,0,1,.036.03c0,.1-.329-.057-.261.215a.217.217,0,0,0,.046.084c-.008.082.057.154.2.114-.021-.019-.078-.057-.07-.1a.317.317,0,0,0,.059.008c.03,0,.04-.013.046-.044l.01-.013c.023.009.036.013.036.034a.082.082,0,0,0-.021.046.275.275,0,0,0,.021.089c-.013.1.131.194.268.1-.034,0-.122-.021-.137-.07a.256.256,0,0,1,.061-.023c.029-.027.029-.059.029-.1,0-.023.025-.023.025-.023a.342.342,0,0,1,.074-.006.035.035,0,0,1,.048.017.15.15,0,0,0,.2.078c.168-.057.021-.211.158-.236a.456.456,0,0,1,.114,0c.129.034.322.025.362-.04a.37.37,0,0,0-.135-.39c-.076-.034.021-.143-.07-.265a1.335,1.335,0,0,0,.514.122c.365,0,0-.057.169-.147a.581.581,0,0,1,.455-.049c.042.01.082.027.067.093-.038.187.015.207-.017.291s-.2.019-.306.01a.175.175,0,0,0-.112.042.255.255,0,0,0-.2.217.4.4,0,0,1,.168-.086c0,.009.015.034.015.044a.135.135,0,0,0,.232.086c.009-.015.044,0,.017.013-.067.059-.207.19-.091.236a.216.216,0,0,1,.069.025.173.173,0,0,0,.122.179c-.032-.042-.032-.072,0-.154h.063c.082,0,.046-.168.137-.213l.017,0c-.027.093-.046.209.032.24a.5.5,0,0,1,.072.015.147.147,0,0,0,.219.067c-.019-.015-.08-.044-.093-.082a.32.32,0,0,0,.053-.088c.059-.2-.1-.2-.1-.286s.194-.029.194-.23a.128.128,0,0,0-.089-.118v-.013h0c.053,0,.116.017.139-.063-.139.011-.1-.112-.118-.2-.01-.008-.01-.017.008-.023a.219.219,0,0,0,.061-.221c-.049.069-.2.152-.217.011-.013-.011-.013-.1-.164-.084-.244.031-.356-.1-.822-.141-.023,0-.051-.027,0-.027Z" transform="translate(-75.006 -120.609)" fill="#b2b4b3"/><path d="M119.545,157.023c.036-.057.059-.107.1-.107a.1.1,0,0,0,.116-.069c.027-.065-.038-.1-.107-.147.069-.013.1-.048.069-.07-.038-.042-.1.017-.114-.01s.029-.055.051-.074.055-.019.089,0l.284.135c.034.015.057.029.057.07s.01.089-.023.1-.025-.089-.076-.1-.04.036-.015.1c-.069-.017-.133-.053-.169.011a.128.128,0,0,0,.029.145c.027.013,0,.07-.017.143a.161.161,0,0,1-.209.1.17.17,0,0,1-.059-.227Zm.335-.708c-.048.07-.147.131-.225.061s.013-.093-.08-.246a2.5,2.5,0,0,0,.3.185Zm.215.1a1.582,1.582,0,0,0,.346.135c-.16.036-.118.1-.223.1s-.143-.143-.124-.23Zm-1.4.8a4.591,4.591,0,0,0-.388-.329c-.171-.1-.171-.192-.162-.373.01-.156.088-.3.088-.438-.008-.017-.027-.1-.042-.137a.228.228,0,0,0-.228-.156.186.186,0,0,1,.091.156.563.563,0,0,1-.082.084.121.121,0,0,0,0,.156.03.03,0,0,1,.015.032.455.455,0,0,1-.025.069c0,.036-.006.013-.017,0-.025-.112-.072-.263-.167-.276,0,0-.051,0-.076,0l0-.019c0-.122-.116-.211-.255-.076.03.006.088.006.1.053a.762.762,0,0,0-.04.114c-.006.114.074.158.194.158.029,0,.04.01.044.027s.006.03.008.055-.008.017-.017.008c-.2-.089-.293.01-.3.091v.088c-.074.048-.093.154.036.238,0-.042-.008-.112.046-.131l.029,0a.35.35,0,0,0,.055.046c.017.013.044,0,.118-.042a.067.067,0,0,1,.044,0,.353.353,0,0,0,.057.046c.017.013.017.023,0,.04-.143.126-.126.261.057.284.015.006.025.032.025.046-.025.253-.356.206-.324-.048-.2.291.11.506.36.36.017-.008.017,0,.027.011.015.044.032.086.082.093a.061.061,0,0,1,.055-.059c.013,0,.013.01.013.029a.144.144,0,0,0,.116.162c-.013-.048,0-.1.034-.1.05,0,.154.192.352.306.175.076.284.246.394.141-.017.173.147.367.1.367a2.2,2.2,0,0,0-.619.032c-.167.1-.584.244-.7.061-.044-.05-.03-.11-.093-.206a.157.157,0,0,0-.122-.107h-.1a.257.257,0,0,0-.284-.027.22.22,0,0,1,.166.1.514.514,0,0,0-.048.084c-.036.046-.023.145.253.234.011,0,.034.019.011.032a.121.121,0,0,1-.148-.013c-.1-.086-.116-.2-.238-.118a.363.363,0,0,0-.08.032.092.092,0,0,0-.034-.006c-.109-.013-.282.131-.209.263a.2.2,0,0,1,.141-.118.674.674,0,0,1,.023.088c.032.128.086.228.354.051.038-.021.038.008.034.011-.07.122-.255.23-.118.32l.072.053c-.01.006-.013.006-.013.027-.032.156.139.257.219.255a.278.278,0,0,1-.08-.234.3.3,0,0,0,.078.027c.122-.057.067-.217.145-.263.021-.019.04-.006.04.019.008.055.03.209.192.2a.218.218,0,0,0,.2-.228c0-.013,0-.013.015-.013a.145.145,0,0,1,.07.169.287.287,0,0,0,.12-.11.211.211,0,0,1-.061.266.377.377,0,0,0,.253-.261.193.193,0,0,1,.048.09l.017-.015a.565.565,0,0,0,.318-.011c.015,0,.015.011.015.027a.178.178,0,0,0,.011.15c0-.019.046-.088.072-.088s0,.16.086.257c.03-.4.251-.236.491-.405.034-.017.034,0,.029.019a.221.221,0,0,1-.1.129c.274.069.695-.358.756-.529a1.211,1.211,0,0,1,.272-.021c.78.072.232-.7,1.5-.489.074.023.23-.072.3-.131-.082.162-.082.5.084.531a.717.717,0,0,1,.293.122c.019.021.01.03-.008.034a1.03,1.03,0,0,0-.247.055c-.261.188-.272-.4-.554-.282a.216.216,0,0,0-.084.063c-.112,0-.261.12-.234.246a.373.373,0,0,1,.188-.116v.074c-.008.042.008.086.107.086.044,0,.055-.027.1-.027.023,0,.044.006.044.027,0,.118-.36-.059-.291.234a.471.471,0,0,0,.057.093c-.011.089.057.185.213.118-.025,0-.088-.046-.074-.093.025,0,.063.006.072.006s.023-.013.042-.05l0-.009c.03,0,.042.009.042.025s-.023.034-.023.059c0,0,.011.08.023.088-.011.12.139.234.3.12a.219.219,0,0,1-.16-.078.371.371,0,0,0,.078-.027.139.139,0,0,0,.034-.107.032.032,0,0,1,.03-.034.406.406,0,0,0,.072,0,.087.087,0,0,1,.059.017.154.154,0,0,0,.215.088c.192-.059.032-.219.183-.259.025,0,.067,0,.116,0,.143.042.36.04.4-.032a.386.386,0,0,0-.147-.436c-.08-.048.013-.166-.078-.3a1.447,1.447,0,0,0,.569.135,1,1,0,0,0,.695-.171.616.616,0,0,1,.489-.046c.057.01.1.027.078.1-.046.217.023.236-.021.335-.038.074-.221.01-.341.006a.135.135,0,0,0-.12.057.241.241,0,0,0-.217.219.462.462,0,0,1,.185-.088l0,.04a.153.153,0,0,0,.268.1c.013-.006.048,0,.021.023-.082.063-.223.2-.1.255a.607.607,0,0,0,.072.038.2.2,0,0,0,.129.19c-.025-.046-.03-.072.015-.175H125c.093.013.059-.177.152-.232.017-.013.025-.008.017.006-.032.1-.038.238.044.257a.3.3,0,0,1,.072.023.178.178,0,0,0,.253.076.214.214,0,0,1-.11-.1.272.272,0,0,0,.063-.088c.07-.225-.116-.225-.116-.314,0-.109.206-.04.206-.27a.136.136,0,0,0-.089-.124l0-.013h0c.063,0,.122.013.15-.076-.15.021-.108-.118-.133-.208,0-.011,0-.025.011-.029a.224.224,0,0,0,.074-.236c-.051.07-.225.156-.257,0,0,0,0-.11-.168-.082a5.005,5.005,0,0,1-.965-.08c.584,0,1.437-.152,1.437-.48,0-.272-.289-.451-1.182-.451s-2.907.341-2.907-.166c0-.24.383-.223.862-.2a.3.3,0,0,0,.2.1c1.142.341,2.507-.268,3.2-.065-.819-.628-1.5.019-2.374-.169.506,0,.68-.147.71-.287-.4.255-1.155-.128-1.616.158a.159.159,0,0,0-.07.059c-.641-.017-1.15-.017-1.15.4,0,.889,2.385.367,3.131.367s.912.084.912.227c0,.206-.746.257-1.161.257a18.4,18.4,0,0,0-3.8-.093c.093-.2.31-.445.194-.592a.291.291,0,0,0,.194-.219.554.554,0,0,0-.225-.1c.036-.048-.013-.107-.048-.158-.023-.011-.051-.135-.069-.154a1.421,1.421,0,0,0-.265-.177.566.566,0,0,0-.265-.065.4.4,0,0,0-.154.011c-.069,0-.147,0-.154.059a.37.37,0,0,0-.2-.07.374.374,0,0,0-.034.308c-.108.01-.217.289-.314.253a.209.209,0,0,0,.1.109c-.089.16-.128.35-.228.354.07.089.107.128.147.139-.015.114-.015.23-.023.337l-.19-.07-.156-.057Z" transform="translate(-75.799 -118.274)" fill="#b2b4b3"/><path d="M119.716,158.661c-.1,0-.143-.145-.122-.225a2.275,2.275,0,0,0,.346.126c-.16.038-.12.1-.225.1Zm-.154.2c-.027.01-.027-.08-.076-.1s-.042.036-.017.1c-.072-.023-.141-.059-.166.006a.11.11,0,0,0,.025.145c.021.017,0,.072-.025.145-.029.057-.1.148-.2.1a.173.173,0,0,1-.061-.227c.034-.065.061-.1.091-.1a.111.111,0,0,0,.118-.072c.023-.07-.046-.1-.1-.141.065-.017.1-.057.065-.088-.049-.03-.1.03-.12,0s.036-.049.055-.07.046-.025.086,0l.282.133c.036.013.061.03.061.07s.008.082-.019.1Zm-.187-.537c-.048.072-.137.139-.223.067s.015-.091-.086-.246a1.814,1.814,0,0,0,.308.179Zm.48,2.366c.048-.006.1-.019.139-.027l-.011.046c.257.021.228-.228.329-.211,1.456.19.626-.624,2.347-.457.074,0,.109-.046.185-.109-.089.168-.1.436.078.48a.632.632,0,0,1,.3.122c.017.023,0,.029-.011.029a1.3,1.3,0,0,0-.24.063c-.263.168-.274-.405-.556-.3-.01.015-.063.038-.084.057-.112,0-.261.135-.238.253a.314.314,0,0,1,.19-.107v.07c-.01.036,0,.084.107.084.042,0,.053-.03.1-.03.021,0,.023.013.023.03,0,.1-.331-.059-.272.246,0,0,.032.055.048.076-.006.093.063.185.223.135-.032-.017-.091-.063-.08-.107a.225.225,0,0,0,.072.011c.009,0,.03-.017.03-.053,0-.008.013-.015.013-.015.025.008.049.015.049.029s-.032.04-.032.067c0,.006.015.078.032.086-.017.11.139.223.3.11-.046,0-.147-.019-.156-.078a.273.273,0,0,0,.072-.027.145.145,0,0,0,.038-.11c0-.019.025-.019.025-.019a.4.4,0,0,1,.078-.006c.03-.006.046.006.048.017a.179.179,0,0,0,.225.1c.185-.063.025-.238.175-.263a.262.262,0,0,1,.122,0c.145.029.365.025.407-.04a.427.427,0,0,0-.141-.442c-.089-.036,0-.154-.089-.293a1.515,1.515,0,0,0,.565.139,1,1,0,0,0,.695-.181.745.745,0,0,1,.491-.046c.049.008.1.04.074.1-.038.206.029.24-.019.325s-.215.021-.331.008a.123.123,0,0,0-.12.063c-.108.013-.232.1-.219.227a.447.447,0,0,1,.175-.1c0,.025,0,.042.011.044a.148.148,0,0,0,.261.1c.019-.013.049,0,.034.013-.086.072-.238.207-.1.259l.065.042a.192.192,0,0,0,.139.2.2.2,0,0,1,0-.179.192.192,0,0,1,.078.008c.091,0,.049-.177.15-.24.013-.006.021,0,.021,0-.032.1-.057.236.038.263.01,0,.04.013.065.015a.173.173,0,0,0,.259.076.192.192,0,0,1-.114-.091.227.227,0,0,0,.069-.093c.063-.215-.124-.219-.124-.314s.209-.03.209-.257a.123.123,0,0,0-.086-.126l-.008-.011h0c.067,0,.116.011.154-.074-.16.015-.107-.128-.139-.213a.109.109,0,0,1,.008-.046c.061-.029.093-.1.07-.23-.04.084-.217.164-.234.013-.01-.013-.025-.114-.181-.086a5.816,5.816,0,0,1-.969-.074c.518-.04,1.445-.147,1.445-.478,0-.278-.3-.457-1.188-.457s-3.649.329-3.649-.171c0-.322.931-.19,1.616-.166a.351.351,0,0,0,.194.128c1.154.32,2.353-.447,3.183-.171-.651-.584-1.5.069-2.368-.114.5-.01,1.043-.107,1.077-.253-.405.255-1.523-.167-1.983.118a.591.591,0,0,0-.082.067c-.849,0-1.883-.12-1.883.392,0,.891,3.133.375,3.879.375s.914.082.914.217c0,.215-.759.263-1.178.263-.7,0-3.615-.383-4.776-.029.069-.2.345-.5.215-.655a.27.27,0,0,0,.192-.227.472.472,0,0,0-.221-.1c.036-.051-.008-.11-.053-.156-.008-.011-.034-.139-.063-.158a1.182,1.182,0,0,0-.261-.175.986.986,0,0,0-.257-.076c-.038,0-.156.03-.175.03-.063-.017-.137-.017-.143.067a.358.358,0,0,0-.207-.1.465.465,0,0,0-.04.324c-.1,0-.215.276-.31.242.042.072.065.116.1.116-.086.16-.112.348-.217.354a.378.378,0,0,0,.093.108,1.86,1.86,0,0,0-.034.274l-.088-.034a.59.59,0,0,1-.148-.01.378.378,0,0,0-.15-.027c-.129-.006-.238-.242-.478-.375-.171-.107-.179-.2-.179-.373,0-.154.072-.3.063-.445-.006-.017-.03-.086-.044-.133a.26.26,0,0,0-.242-.152.177.177,0,0,1,.1.152.366.366,0,0,0-.069.086.118.118,0,0,0,0,.154c.013.01.023.019.023.032a.161.161,0,0,1-.023.069c0,.034-.015.013-.015,0-.029-.11-.086-.265-.192-.27-.011,0-.049-.01-.069-.01v-.021c0-.116-.12-.207-.261-.063.032,0,.089,0,.114.04a.76.76,0,0,0-.03.116c-.017.116.074.169.2.169.029,0,.03,0,.034.017s.011.034.019.055-.008.013-.019,0c-.2-.08-.293.011-.293.109a.151.151,0,0,0,0,.072c-.076.053-.082.166.042.244,0-.038,0-.109.048-.122l.027-.019c.025.023.055.042.055.053.015.01.059.01.118-.034.015-.019.032-.019.055,0a.222.222,0,0,1,.053.03c.025.013.013.019.013.034-.148.137-.124.265.057.293.025.011.025.021.025.036-.013.253-.335.211-.331-.036-.179.289.143.493.385.36.023-.013.03,0,.03,0,.01.048.048.091.086.091a.058.058,0,0,1,.053-.048c.013,0,.013,0,.023.029a.153.153,0,0,0,.114.162c-.009-.057,0-.1.032-.1a3.132,3.132,0,0,0,.6.55c.065-.032.164-.032.2-.114a.148.148,0,0,0,.082.082c.011.175.118.385.084.385a2.721,2.721,0,0,0-.739.036c-.169.082-.579.228-.693.063-.046-.057-.032-.118-.082-.2a.2.2,0,0,0-.143-.1.347.347,0,0,0-.093-.006.227.227,0,0,0-.274-.04.267.267,0,0,1,.156.1l-.051.08c-.027.065-.006.148.247.238.015,0,.036.029.015.038a.131.131,0,0,1-.145-.017c-.1-.082-.118-.194-.24-.118a.51.51,0,0,1-.08.03c-.008-.008-.015-.008-.03-.008-.11,0-.282.139-.207.272a.2.2,0,0,1,.147-.12c.006.036.027.061.027.084.017.131.072.238.35.053.025-.017.025.006.023.017-.063.1-.255.219-.112.314a.36.36,0,0,1,.065.049l-.008.019a.234.234,0,0,0,.223.261.249.249,0,0,1-.082-.234c.042.019.065.036.07.023.135-.049.076-.213.158-.259.017-.006.03,0,.03.027a.177.177,0,0,0,.2.187.2.2,0,0,0,.2-.215s0-.013.023,0a.141.141,0,0,1,.07.154.255.255,0,0,0,.118-.108.25.25,0,0,1-.07.266.339.339,0,0,0,.246-.263c.036.036.059.061.063.089l.011,0a.783.783,0,0,0,.312-.013c.011-.011.011,0,.011.017a.221.221,0,0,0,.023.154c.006-.015.04-.078.065-.078.049,0-.006.152.089.242.036-.394.506-.2.754-.348.025-.023.025-.017.021,0a.228.228,0,0,1-.11.131.517.517,0,0,0,.289-.1c.158-.061.447-.2.424-.3Z" transform="translate(-76.389 -116.559)" fill="#b2b4b3"/><path d="M124.914,161.838c.03-.057.061-.107.089-.107.063,0,.093-.01.11-.07.034-.067-.03-.1-.093-.143.063-.017.093-.048.063-.074s-.109.027-.12,0,.04-.057.057-.076a.053.053,0,0,1,.084,0l.286.133c.036.017.049.034.049.067s.019.082-.01.1-.023-.086-.076-.1-.04.044-.011.1c-.07-.021-.137-.046-.175.013a.122.122,0,0,0,.029.137c.019.032,0,.078-.015.152a.147.147,0,0,1-.206.091c-.11-.046-.084-.166-.061-.227Zm.335-.706c-.053.072-.145.141-.217.065s0-.1-.093-.242a1.811,1.811,0,0,0,.31.177Zm.209.1a1.374,1.374,0,0,0,.352.141c-.16.032-.114.093-.234.093-.089-.013-.137-.148-.118-.234ZM131.9,162.9a.093.093,0,0,1,.006-.042c.057-.029.1-.1.1-.238-.048.086-.24.168-.24.023,0-.017-.013-.128-.169-.089a7.474,7.474,0,0,1-1.045-.084c-.03-.006-.053-.013,0-.027.615-.04,1.45-.114,1.45-.444,0-.28-.3-.455-1.2-.455s-3.634.324-3.634-.169c0-.325.925-.185,1.6-.173a.377.377,0,0,0,.206.128c1.146.326,2.45-.535,3.15-.331-.906-.324-1.477.232-2.343.038.512,0,1.045-.1,1.075-.232-.4.253-1.515-.175-1.983.108-.029.023-.063.042-.07.076-.849-.011-1.89-.112-1.89.386,0,.895,3.127.366,3.885.366s.9.078.9.23c0,.206-.744.261-1.159.261-.708,0-3.621-.4-4.789-.034.07-.2.358-.5.221-.653a.282.282,0,0,0,.188-.228.369.369,0,0,0-.215-.1c.027-.049-.011-.11-.059-.158-.023-.013-.036-.126-.065-.152a1.467,1.467,0,0,0-.263-.177.7.7,0,0,0-.259-.076c-.038-.013-.15.03-.168.023-.051,0-.139,0-.143.072a.41.41,0,0,0-.209-.1.51.51,0,0,0-.034.326c-.1,0-.213.27-.316.253.048.067.076.1.1.1-.078.166-.116.348-.215.35.055.089.1.128.137.135a1.265,1.265,0,0,0-.019.263l-.152-.04a.931.931,0,0,0-.137-.01.738.738,0,0,0-.154-.032c-.133-.013-.246-.238-.474-.377-.183-.107-.187-.181-.187-.375,0-.152.07-.3.061-.434a.7.7,0,0,0-.051-.141.235.235,0,0,0-.232-.158.192.192,0,0,1,.1.158.3.3,0,0,0-.063.086.114.114,0,0,0,0,.154.04.04,0,0,1,.013.032c0,.025-.011.044-.013.07s-.015.019-.021,0c-.027-.114-.089-.268-.185-.278a.168.168,0,0,0-.072-.006v-.017c0-.114-.118-.206-.268-.076a.12.12,0,0,1,.11.051c-.011.038-.017.108-.027.124,0,.114.08.156.209.156.009,0,.034.011.034.029a.1.1,0,0,0,.013.036c0,.023,0,.023-.013.023-.2-.088-.287,0-.3.1a.293.293,0,0,0,.011.08c-.076.053-.091.164.044.244-.015-.036-.015-.11.04-.128.01,0,.017-.015.029-.015a.2.2,0,0,0,.051.053c.023.013.046.009.124-.048.013-.006.017-.008.046,0a.112.112,0,0,0,.059.044c.01.017.01.023,0,.034-.135.133-.114.263.067.3.025.006.027.019.027.04-.011.249-.354.206-.327-.048-.188.293.143.5.375.36.019,0,.036,0,.036.015.01.044.032.082.082.082,0-.01.023-.046.049-.046s.019.008.019.023a.149.149,0,0,0,.128.158c-.021-.049,0-.1.036-.1s.2.369.563.569c-.013-.027.139-.093.219-.124a.269.269,0,0,0,.131.164l.057-.046c-.029.168.183.352.139.352a1.412,1.412,0,0,0-.512.021c-.166.091-.575.24-.7.072-.04-.072-.025-.131-.082-.215a.2.2,0,0,0-.131-.107s-.063,0-.1,0a.261.261,0,0,0-.28-.027.167.167,0,0,1,.156.1.7.7,0,0,0-.046.086c-.042.053-.017.141.24.228.025.006.038.032.025.044a.14.14,0,0,1-.15-.023c-.1-.069-.114-.2-.232-.11a.169.169,0,0,0-.076.032.107.107,0,0,0-.04-.006c-.116-.017-.282.128-.206.263a.2.2,0,0,1,.147-.122.45.45,0,0,0,.017.082c.025.141.084.236.354.061.036-.021.027,0,.019.01-.063.12-.244.232-.1.318l.063.048c0,.008-.013.025-.013.032-.025.148.141.257.228.257a.316.316,0,0,1-.088-.236c.029.021.078.034.078.027.131-.053.069-.213.137-.261.036-.019.042,0,.051.017.01.067.034.213.19.2a.206.206,0,0,0,.2-.215c-.01-.023.006-.023.006-.023a.143.143,0,0,1,.076.181.228.228,0,0,0,.114-.12.209.209,0,0,1-.055.27.38.38,0,0,0,.251-.267c.019.025.042.063.059.082.011,0,.011,0,.011-.008a.562.562,0,0,0,.306-.008c.021,0,.021.008.021.015a.3.3,0,0,0,.019.164c0-.017.04-.08.065-.08.04,0-.006.143.091.236.034-.39.247-.228.495-.394.021-.021.032-.008.021.011a.2.2,0,0,1-.1.129c.084.08.455-.148.455-.287,0-.048.133-.061.249-.086.263.011.221-.187.331-.169,1.456.194.609-.628,2.338-.47.078,0,.116-.093.194-.158-.1.162-.1.51.08.539a.689.689,0,0,1,.3.126c.013.013,0,.023-.021.027a.573.573,0,0,0-.236.059c-.265.185-.284-.4-.558-.287a.25.25,0,0,0-.078.061c-.12,0-.266.124-.236.244a.222.222,0,0,1,.177-.1v.055c-.01.046.01.082.1.082.059,0,.067-.021.112-.021.019,0,.023.01.023.034,0,.112-.339-.067-.274.23a.248.248,0,0,0,.048.091c-.01.093.063.173.223.128-.04-.021-.089-.055-.072-.1a.515.515,0,0,0,.072,0s.021-.008.034-.046a.047.047,0,0,1,.008-.021c.027.011.036.021.036.036s-.025.03-.025.059c0,0,.015.086.036.089-.021.11.135.228.3.118-.046-.008-.143-.029-.162-.076.038-.017.078-.025.078-.029a.152.152,0,0,0,.038-.107c0-.029.006-.032.029-.032s.049-.009.072-.009.04.017.049.034a.174.174,0,0,0,.228.08c.183-.069.021-.227.171-.268h.11c.15.042.373.042.409-.036a.381.381,0,0,0-.141-.428c-.093-.051.01-.168-.08-.308a1.224,1.224,0,0,0,.562.141,1.3,1.3,0,0,0,.739-.16.686.686,0,0,1,.495-.057c.044,0,.082.029.057.1-.049.221.015.234-.046.335-.04.084-.217.008-.339,0a.159.159,0,0,0-.128.065.271.271,0,0,0-.228.238.3.3,0,0,1,.188-.1v.044a.146.146,0,0,0,.259.1c.008-.015.044,0,.027.017-.1.065-.253.206-.133.261,0,0,.036.021.069.042a.17.17,0,0,0,.114.183c-.021-.046-.021-.069.027-.169h.068c.1.006.072-.179.173-.232.021-.011.021-.009.021,0-.048.1-.072.234.01.263a.118.118,0,0,1,.068.021c.025.072.124.128.257.069-.04-.013-.1-.044-.107-.086a.316.316,0,0,0,.067-.093c.089-.215-.1-.232-.093-.312.013-.11.217-.038.242-.261a.142.142,0,0,0-.084-.139l-.01-.006h0c.069,0,.128.009.164-.07-.164.008-.1-.128-.11-.213Z" transform="translate(-70.728 -114)" fill="#b2b4b3"/><path d="M124.935,163.6c.029-.061.051-.1.086-.1.055,0,.1-.008.109-.063.027-.063-.036-.093-.093-.135.069-.021.093-.048.057-.072s-.1.019-.107,0,.03-.061.049-.076c.029-.032.05-.023.084,0l.272.131c.034.011.053.027.053.067s.017.086-.019.089-.023-.08-.069-.089-.046.04-.025.1c-.065-.027-.129-.059-.156,0a.125.125,0,0,0,.027.139c.025.021,0,.067-.017.131a.146.146,0,0,1-.2.1.159.159,0,0,1-.051-.215Zm.318-.681c-.049.07-.135.141-.206.07s0-.1-.084-.228a2.339,2.339,0,0,0,.289.158Zm.209.1a1.23,1.23,0,0,0,.327.143c-.16.03-.118.084-.217.076s-.133-.129-.11-.219Zm2.564-.048c.019.065.088.11.2.143,1.1.32,2.347-.5,3.011-.306-.868-.308-1.4.211-2.231.042.482,0,.994-.1,1.016-.234-.375.249-1.443-.169-1.89.112a.383.383,0,0,0-.059.053c-.455-.008-1.1-.021-1.1.381,0,.849,2.275.36,3,.36.539,0,.621.072.621.2,0,.2-.817.251-1.22.251a18.2,18.2,0,0,0-3.6-.1c.08-.177.286-.421.166-.544a.285.285,0,0,0,.187-.221.443.443,0,0,0-.2-.093c.027-.044-.019-.112-.049-.15-.023-.01-.049-.131-.065-.148a.89.89,0,0,0-.247-.168,1.013,1.013,0,0,0-.263-.076.558.558,0,0,0-.135.027c-.076-.006-.15-.006-.154.065a.286.286,0,0,0-.2-.078.37.37,0,0,0-.023.3c-.1.011-.206.261-.3.238.038.072.067.1.1.1-.08.158-.124.329-.221.352.04.034.067.063.091.086a1.38,1.38,0,0,0-.051.326l-.1-.032c-.011,0-.029-.011-.048-.011a.744.744,0,0,1-.438-.126c-.164-.1-.164-.179-.164-.346,0-.148.057-.289.049-.421,0-.025-.027-.1-.034-.139a.231.231,0,0,0-.238-.145.194.194,0,0,1,.1.156c-.032.027-.057.063-.067.069a.1.1,0,0,0,.01.148.06.06,0,0,1,.01.036.187.187,0,0,1-.01.065c-.01.03-.015.021-.015,0-.042-.1-.091-.255-.19-.263a.263.263,0,0,0-.067-.01s.006,0,.006-.019c0-.107-.118-.192-.251-.057.023.008.084.015.1.04-.006.032-.021.1-.021.118-.013.109.074.148.188.148a.1.1,0,0,1,.038.015.075.075,0,0,0,.025.057c0,.027-.017.021-.03.01-.188-.082-.276.011-.276.091a.3.3,0,0,0,0,.072c-.069.049-.076.152.042.234,0-.04,0-.1.046-.126l.023-.006a.133.133,0,0,0,.046.042c.021.017.055.008.114-.042h.049c.015.029.03.029.055.042s.015.021,0,.032c-.131.128-.1.261.063.282.019.008.042.015.042.04-.023.238-.341.2-.324-.046-.166.276.133.487.373.341.01,0,.01,0,.017.011.017.046.038.086.084.086,0-.01.013-.051.05-.051.021,0,.023.021.023.03a.147.147,0,0,0,.114.156c-.011-.048,0-.1.027-.1.046,0,.036-.1.327.059a.181.181,0,0,0,.11.116l.221-.032c-.03.164.017.407-.017.407a1.3,1.3,0,0,0-.489.029c-.164.08-.558.213-.661.057-.053-.057-.029-.107-.089-.188a.162.162,0,0,0-.116-.1.785.785,0,0,0-.091-.009.247.247,0,0,0-.272-.032.183.183,0,0,1,.143.1c-.013.021-.025.068-.04.078-.021.049-.008.129.242.211.01.017.029.04.01.046a.132.132,0,0,1-.129-.017c-.1-.07-.122-.183-.234-.118a.485.485,0,0,1-.078.038s-.017-.013-.029-.013c-.1,0-.276.128-.2.263a.181.181,0,0,1,.143-.112.446.446,0,0,0,.025.072c.013.137.069.23.331.049.029-.01.029.015.019.027-.057.1-.228.206-.1.3a.291.291,0,0,0,.063.046.072.072,0,0,1-.023.027.23.23,0,0,0,.221.242.271.271,0,0,1-.074-.217.308.308,0,0,1,.065.021c.124-.046.076-.208.137-.253.025-.006.042,0,.049.023,0,.057.029.2.179.185a.192.192,0,0,0,.194-.208c0-.006,0-.023.021-.006a.145.145,0,0,1,.065.158c.03-.025.084-.053.1-.107a.216.216,0,0,1-.059.253.372.372,0,0,0,.244-.253.127.127,0,0,1,.042.082l.03-.013a.459.459,0,0,0,.278-.01c.03,0,.036,0,.036.013a.162.162,0,0,0,.013.156c0-.021.032-.08.059-.08.046,0-.01.145.08.234.04-.369.341-.276.575-.434.027-.021.027-.017.023.006a.206.206,0,0,1-.1.128c.249.156.525-.188.59-.379a.129.129,0,0,0,.065-.08.075.075,0,0,1-.034.114c.253.021.215-.177.316-.177.746.086.169-.607,1.372-.407a.582.582,0,0,0,.3-.126c-.1.158-.107.482.069.51a.744.744,0,0,1,.274.112c.021.015,0,.029-.006.029a.959.959,0,0,0-.23.059c-.253.179-.261-.381-.529-.278-.011.011-.059.036-.07.059-.109,0-.261.128-.236.24a.3.3,0,0,1,.177-.107v.067c0,.04.011.091.1.091.049,0,.061-.038.1-.038.013,0,.029.023.029.038,0,.107-.333-.059-.28.215l.053.091c-.011.074.059.168.2.122-.025-.021-.074-.061-.061-.1a.415.415,0,0,0,.055,0c.019.01.042-.01.048-.036v-.021a.047.047,0,0,1,.042.021c0,.023-.021.036-.021.063,0,.011.01.088.025.088-.015.108.137.217.289.12-.04-.011-.147-.032-.152-.086l.076-.034a.108.108,0,0,0,.036-.091c0-.027.01-.032.01-.032.03,0,.059,0,.082,0a.049.049,0,0,1,.048.023.156.156,0,0,0,.2.089c.183-.069.032-.217.183-.253a.358.358,0,0,1,.1-.006c.133.042.352.034.392-.03a.382.382,0,0,0-.141-.415c-.1-.049.011-.148-.078-.289a1.2,1.2,0,0,0,.533.141,1.434,1.434,0,0,0,.769-.164.668.668,0,0,1,.48-.055c.05.008.082.032.05.1-.093.192-.032.217-.1.314-.049.069-.209.008-.32.006-.063-.006-.131.036-.131.059a.333.333,0,0,0-.27.213.42.42,0,0,1,.209-.091.1.1,0,0,0-.011.042c-.017.139.118.19.223.093.019-.021.051,0,.019.013-.084.063-.259.19-.16.246a.221.221,0,0,0,.069.029c-.032.093.008.183.072.188-.013-.048-.013-.068.051-.162H130c.091,0,.1-.169.209-.217,0-.015.023-.015,0,0-.055.1-.1.217-.017.253h.067c.009.084.086.143.215.078-.017-.006-.076-.044-.082-.078a.338.338,0,0,0,.082-.091c.124-.208-.053-.208-.027-.3s.209-.036.268-.24a.129.129,0,0,0-.059-.135l0-.006h0a.158.158,0,0,0,.168-.069c-.168.013-.084-.118-.084-.2a.041.041,0,0,1,.021-.038.286.286,0,0,0,.129-.217c-.067.069-.257.15-.238,0,0,0,.008-.1-.147-.076a7.222,7.222,0,0,1-1.119-.07c-.03,0-.053-.03,0-.034.483-.042,1.492-.072,1.492-.472,0-.173-.118-.426-.91-.379-.851.046-2.766.318-2.766-.168,0-.236.527-.2.822-.19Z" transform="translate(-70.8 -112.226)" fill="#b2b4b3"/><path d="M125.255,165.106c-.076-.009-.124-.128-.109-.2a2.233,2.233,0,0,0,.32.12c-.152.032-.118.091-.211.082Zm-.135.179c-.029,0-.025-.07-.072-.082s-.036.029-.01.086c-.074-.017-.124-.048-.156.011a.094.094,0,0,0,.032.128c.017.021,0,.07-.025.128s-.1.145-.183.093a.165.165,0,0,1-.059-.206c.04-.053.059-.1.089-.1a.1.1,0,0,0,.107-.063c.025-.059-.048-.093-.091-.118.057-.027.091-.051.044-.084-.032-.036-.089.032-.1-.006-.01-.021.03-.046.055-.067s.044-.015.08,0l.255.126a.065.065,0,0,1,.049.067c0,.023.008.072-.017.082Zm-.169-.483c-.036.063-.129.128-.2.053-.065-.059.011-.088-.076-.215a1.222,1.222,0,0,0,.274.162Zm2.246,0a.3.3,0,0,0,.207.145c1.081.308,2.341-.512,3.011-.322-.874-.3-1.409.227-2.237.046.482-.006.992-.1,1.022-.226-.379.232-1.443-.164-1.894.11a.211.211,0,0,0-.076.086c-.35.072-.632.255-.632.5,0,.314.413.407,1.186.375s1.61-.122,1.61.019c0,.19-.544.375-1.281.375a7.546,7.546,0,0,0-2.73-.07v-.015c.082-.213.337-.514.232-.655a.23.23,0,0,0,.16-.2.332.332,0,0,0-.19-.086c.03-.053-.011-.1-.057-.139,0-.01-.023-.128-.051-.148a.957.957,0,0,0-.23-.162,1.175,1.175,0,0,0-.251-.067.465.465,0,0,0-.128.025c-.072-.01-.141-.01-.152.059a.366.366,0,0,0-.188-.084.407.407,0,0,0-.019.291c-.1,0-.2.255-.286.225.032.069.059.093.089.1-.074.154-.11.322-.2.322a.249.249,0,0,0,.093.1,1.874,1.874,0,0,0-.048.689,4.185,4.185,0,0,0-.605-.689c-.154-.082-.154-.166-.154-.329a2.5,2.5,0,0,0,.046-.4c0-.011-.019-.078-.027-.122a.217.217,0,0,0-.219-.137.249.249,0,0,1,.1.143.256.256,0,0,0-.069.08c-.038.03-.042.08.006.128v.1c-.006.031-.015.015-.021,0-.027-.1-.084-.24-.168-.246-.013,0-.055-.013-.065,0l0-.017c0-.1-.11-.19-.244-.063a.206.206,0,0,1,.1.036.59.59,0,0,0-.019.1c-.017.109.065.152.169.152.025,0,.038,0,.042.023a.051.051,0,0,0,.019.044c0,.021-.019.019-.023.013-.183-.08-.257.006-.272.074,0,.01,0,.059.015.074-.065.059-.089.147.04.228-.008-.044-.013-.1.034-.118a.043.043,0,0,0,.029-.017.354.354,0,0,0,.048.053c.008.011.044,0,.107-.036,0,0,.023-.017.038,0a.086.086,0,0,1,.053.029c.01.008.01.03,0,.032-.122.12-.1.238.063.27.025,0,.027.017.027.036-.023.223-.314.177-.3-.042-.168.255.118.463.343.322.015-.013.015-.01.023.01.017.046.03.074.076.089,0-.015.01-.061.049-.061a.023.023,0,0,1,.023.025c0,.069.019.137.1.143-.006-.036,0-.088.027-.088.055,0,0,.354.329.543a.341.341,0,0,0,.386.27c.059.147.139.268.112.268a1.78,1.78,0,0,0-.544.013.9.9,0,0,1-.286.1l-.069.023c-.12.019-.219.01-.266-.063-.032-.051-.029-.1-.072-.183-.036-.061-.08-.1-.118-.1h-.1a.213.213,0,0,0-.255-.021.192.192,0,0,1,.154.08c-.017.032-.03.082-.042.084-.03.048-.006.128.221.215,0,0,.038.019.011.036a.144.144,0,0,1-.133-.023c-.088-.07-.1-.177-.211-.109l-.069.03-.025-.008c-.107-.006-.268.126-.2.249a.251.251,0,0,1,.133-.124c0,.042.025.07.025.086.023.122.069.215.318.049.027-.011.027.015.027.015-.065.1-.234.207-.1.282a.5.5,0,0,0,.059.046l-.011.027c-.025.139.128.234.2.234a.235.235,0,0,1-.076-.215.2.2,0,0,0,.072.019c.118-.044.063-.185.118-.23.029-.011.044,0,.044.015,0,.053.029.2.175.177a.2.2,0,0,0,.188-.2c-.011,0,0-.011,0,0a.127.127,0,0,1,.074.152.457.457,0,0,0,.107-.1.213.213,0,0,1-.067.24.342.342,0,0,0,.234-.236.154.154,0,0,1,.05.072l.008,0a.485.485,0,0,0,.282-.013c.017,0,.017.006.017.017a.354.354,0,0,0,.011.147c.011-.015.042-.072.07-.072s0,.131.069.217c.032-.358.223-.211.459-.358.021-.009.027-.006.013.01a.193.193,0,0,1-.089.116c.086,0,.339-.107.339-.234a1.687,1.687,0,0,0,.207-.609h.091c.291-.027.419-.251.718-.259a.886.886,0,0,0-.089.425c.011.164.219.345.28.39.011.023,0,.023-.013.029a.541.541,0,0,0-.219.055c-.24.16-.257-.358-.506-.259-.013.008-.061.03-.07.049-.1,0-.234.124-.215.23a.239.239,0,0,1,.164-.1.312.312,0,0,1-.006.049c0,.048.017.084.1.084.059,0,.059-.025.1-.025s.029.013.029.036c0,.091-.31-.069-.251.207a.272.272,0,0,0,.042.08c-.011.08.049.156.187.12-.019-.023-.07-.067-.042-.1h.042c.019,0,.034-.01.046-.04l.008-.011c.021,0,.025.011.025.025s-.015.027-.015.059c0,0,.011.074.03.086-.019.093.129.2.266.093-.034,0-.126-.021-.137-.067l.061-.027c.025-.019.029-.055.042-.1,0-.021.01-.021.017-.021a.162.162,0,0,1,.069-.01.039.039,0,0,1,.048.027.163.163,0,0,0,.2.082c.171-.067.032-.219.164-.24a.13.13,0,0,1,.1,0c.135.021.236.055.276-.017a.34.34,0,0,0-.128-.39c-.082-.042.12-.586-.282-.832.187.048.815.135.917-.013a.969.969,0,0,1,.421.211.068.068,0,0,1-.019.108c-.168.109-.131.158-.23.188l-.013,0a2.076,2.076,0,0,0-.164-.173.215.215,0,0,0-.129,0,.264.264,0,0,0-.268.118.454.454,0,0,1,.2-.01.055.055,0,0,0-.015.04.089.089,0,0,0,.03.086h.008v.006c.01.013.01.027,0,.027-.089-.013-.28-.027-.232.088a.594.594,0,0,0,.008.072.162.162,0,0,0-.036.2c.015-.044.029-.063.124-.1a.089.089,0,0,0,.048.048c.048.072.141-.072.24-.048.01.01.023.025,0,.025-.088.044-.173.1-.141.187,0,.011.019.03.034.055a.151.151,0,0,0,.107.213.281.281,0,0,1-.013-.128c.042,0,.1-.011.11-.011.177-.109.067-.221.12-.28.082-.063.162.114.31-.019a.133.133,0,0,0,.029-.139.029.029,0,0,1,0-.029v.009c.036.036.076.091.143.057-.107-.1.019-.145.061-.211,0-.019.013-.027.032-.019a.189.189,0,0,0,.188-.1c-.076.019-.282-.1-.156-.156.183-.072.213-.171.139-.27-.139-.19-.449-.2-.461-.419a2.266,2.266,0,0,0,.278-.008c.94.017,1.553-.268,1.536-.558-.013-.249-.276-.335-.952-.3-.838.063-1.913.166-1.913-.118,0-.141.168-.244.39-.322Z" transform="translate(-70.826 -110.517)" fill="#b2b4b3"/><path d="M121.43,146.614a1.756,1.756,0,0,1-2.5-.817,26.038,26.038,0,0,0,3.449-1.6c-.845,1.294-.266,1.883-.952,2.416Zm-.187,8.876a1.666,1.666,0,0,1-2.166-1.148c-.215-.661-.394-1.2-.133-1.456.482-.468.622-.836.333-1.418-.322-.678-1.047-.36-1.816-.166.36-.651.39-1.112-.1-1.051-.586.069-.594,1.015-.919.906s-.131-.662-.131-.95c0-.4.253-.544.659-.72l3.179-1.213c.413-.148.695-.23.988.063.2.207.71.461.556.777s-.824-.362-1.292,0c-.39.3-.05.6.655.815-.681.4-1.409.662-1.174,1.386.188.613.55.78,1.22.78.362,0,.617.522.916,1.146a1.573,1.573,0,0,1-.773,2.252Zm-6.061-6.419c-.86.076-.83-.746-2.339-1.112a25.14,25.14,0,0,0,3.6-1.2c.225.99-.179,2.208-1.26,2.311Zm16.471,25.962a4.7,4.7,0,0,0-1.1-3.093c-1.058-1.23-4.553-5.079-5.655-6.329.276-.03.605.036,1.289.676.426.4,1.481,1.42,2.216,2.157a21.675,21.675,0,0,1,4.026-6.622c.3-.341.622-.666.929-.982a7.074,7.074,0,0,0-2.223.967,3.914,3.914,0,0,0-1.036-2.772c.282-1.494.036-3.318-3.341-5.551,1.732.417,2.745,1.98,4.064.78-1.18-.03-1.213-2.615-5.482-4.755,1.637-.034,2.912,2.6,4.795,1.1-1.778-.211-2.368-3.369-5.581-4.351,1.117.122,2.261.674,3.223-.628-1.108.267-1.765-.756-2.964-.851a3.942,3.942,0,0,0-.143-3.272,4.094,4.094,0,0,0-2.3.82c-.1-.76-.9-.805-1.6-.756.034.335.192.807-.171.878a30.739,30.739,0,0,0-3.95,1.2,21.854,21.854,0,0,0-3.643,1.949c-.3.209-.554-.27-.731-.5-.527.444-1.036,1.013-.655,1.591a4.7,4.7,0,0,0-2.492.887,2.877,2.877,0,0,0,1.972,2.393c-1.982,1.974-.194,3.792-1.936,5.518,2.452.082,2.029-3.333,3.265-3.8-.129,2.4-1.47,2.823-1.47,5.41,0,1.384.82,2.886.1,3.8,2.042-.569,1.5-5.1,2.777-6.47a3.851,3.851,0,0,1-.164,2.319c-.718,2.113.072,5.008-1.041,5.948,1.833-.186,2.254-2.775,3.478-4.252-1.3,3.432-2.724,9.36-4.622,12.137-3.565,4.814-5.669,10.681-8.937,10.681a2.41,2.41,0,0,1-2.535-2.709c0-5.475,9.384-9.234,9.384-15.057a3.468,3.468,0,0,0-3.43-3.6,4.82,4.82,0,0,0-2.886,1.194,3.093,3.093,0,0,0-1.108-.247c-3.316,0-2.427,5.962-5.317,5.9,1.148.643,3.124-.6,4.273-2.279-.476,3.876-6.046,2.838-5.617,7.481.779-3.636,9.651-3.1,9.651-8.613a2.143,2.143,0,0,0-.763-1.557,3.446,3.446,0,0,1,1.875-.582,2.088,2.088,0,0,1,2.029,2.353c0,4.884-9.325,9.008-9.325,15a4.227,4.227,0,0,0,.779,2.52,1.566,1.566,0,0,1-1.9-.512c-.053,1.548,2.153,2.518,3.546,1.747a4.249,4.249,0,0,0,.969.194,2.646,2.646,0,0,1-2.6,1.441c2.284,1.8,6.284-.56,6.053-2.608,1.816-1.452,2.966-3.965,4.289-5.617-.084.392-.156.767-.213,1.146-1.334,2.431-2.587,4.6-2.941,7.816-.293,2.678-1.647,5.092-3.531,5.092-.407,0-1.089-.542-1.416-.268-.584.5-.025,1.037-.025,1.54,0,.756-1.464,1.523-1.464,3.876,0,1.055.6,2.322.375,3.027a4.273,4.273,0,0,0,1.728-2.606c.651,3.1-1.336,2.973.093,5.73a1.142,1.142,0,0,1,1.65-.914c.556.377.3.649-.122,1.062s-.8,2.469,1.087,2.353c-.346-.236-.373-.779.567-.973,1.294-.259,1.673.333,3.053.333.857,0,1.089-1.117,1.763-1.117s.683.525.453.91c1.081-.285,1.294-.885,1.294-1.492s-.5-1-.122-1.239,1.647.023,1.15,1.055a1.218,1.218,0,0,0,1-1.378c0-.8-.919-1.268-1.768-1.123-.145-.495-.887-.767-1.555-.767-1.538,0-1.292,1.209-2.343,1.209-1.688,0-3.318-2.183-3.318-5.857,0-1.978,2.13-2.473,3.62-3.124a12.942,12.942,0,0,0,5.718-4.911c1.232-2.067,1.272-4.329,1.106-7.024a4.451,4.451,0,0,1,2.37,4.228,2.6,2.6,0,0,1-1.523,2.623c-.575.249-.769.154-.828.489a.733.733,0,0,0,.455.786c.763.394.605,1.123.828,1.909a6,6,0,0,0,2.1,2.96,9.422,9.422,0,0,0,.021-2.3c1.622.8.324,4.066,3.48,4.066a.806.806,0,0,1-.1-1.315c.339-.122.759.211,1.371,1.066s.445.782,1.94.782.82-.516,1.61-.516.723.914.31,1.584a1.71,1.71,0,0,0,1.287-2.448,1.268,1.268,0,0,1,1.963.9,1.561,1.561,0,0,0-.906-2.648.919.919,0,0,0-.857-.912,13.158,13.158,0,0,0-1.487-.029c-.55.032-.851.82-1.5.82-1.978,0-5.9-3.588-5.9-5.136s3.756-2.492,3.756-4.9c0-3.154-3.1-4.222-5.7-6.245.925-1.034,3.64-1.279,5.168-.527.171-.879.735-.67.938-2.178.554,1.331-.175,2.429.386,2.987.432-.638,1.557-.546,1.487-2.189.339,1.03-.434,2.6.339,3.293.139-.855.645-1.005.973-1.005s.584.228.584.723c0,1.252-1.509.919-1.509,2.341,0,.588.756.8.756,1.184a.832.832,0,0,1-1.367.476,1.6,1.6,0,0,0,1.39,1.034,2,2,0,0,0,1.7-1.254c.364.9.091,1.9-.552,2.039.674.335,2.3.011,2.115-2.067.918.148,1.393.775.857,1.877.746-.183,1.439-.544,1.439-1.351,0-.621-.611-1.037-.5-1.884.084-.7-.876-1.361-1.007-2.294Z" transform="translate(-95.29 -131.169)" fill="#b2b4b3"/><path d="M104,141.845a.612.612,0,1,0-.617.6.612.612,0,0,0,.617-.6Z" transform="translate(-88.526 -131.419)" fill="#b2b4b3"/><path d="M103.881,140.995a.609.609,0,1,0-1.218,0,.609.609,0,0,0,1.218,0Z" transform="translate(-88.628 -132.195)" fill="#b2b4b3"/><path d="M103.777,140.9a.612.612,0,1,0-.611-.6.609.609,0,0,0,.611.6Z" transform="translate(-88.173 -132.827)" fill="#b2b4b3"/><path d="M104.631,140.845a.612.612,0,1,0-.611-.611.612.612,0,0,0,.611.611Z" transform="translate(-87.402 -132.877)" fill="#b2b4b3"/><path d="M108.075,140.165a.611.611,0,0,0,.864-.006.619.619,0,0,0,0-.864.627.627,0,0,0-.864,0,.609.609,0,0,0,0,.87Z" transform="translate(-83.903 -133.327)" fill="#b2b4b3"/><path d="M108.41,139.477a.609.609,0,1,0-.858,0,.6.6,0,0,0,.858,0Z" transform="translate(-84.376 -133.947)" fill="#b2b4b3"/><path d="M107.561,139.337a.613.613,0,0,0,0-.862.612.612,0,0,0-.868.862.617.617,0,0,0,.868,0Z" transform="translate(-85.144 -134.072)" fill="#b2b4b3"/><path d="M106.827,139.887a.6.6,0,0,0,0-.874.615.615,0,0,0-.86,0,.628.628,0,0,0,0,.874.61.61,0,0,0,.857,0Z" transform="translate(-85.801 -133.585)" fill="#b2b4b3"/><path d="M104.294,139.612l.484,1.07.619-.744a.145.145,0,0,0,.076.025,9.675,9.675,0,0,1,.076,1.338.777.777,0,1,0,1.144-.689,5.932,5.932,0,0,1-.857-.807.246.246,0,0,0,.034-.1l1.034.089-.409-1.095-.769.661a.31.31,0,0,0-.046-.027l-.055-1.136-1.064.407.708.841a.268.268,0,0,0-.042.089l-.933.072Z" transform="translate(-87.154 -134.16)" fill="#b2b4b3"/><path d="M112.36,140.19a1.6,1.6,0,0,1,.331.843,1.844,1.844,0,0,1-.64-.584l.131,1.43a1.334,1.334,0,0,1,.508-.518c-.048.929-.413,1.308-.735,1.378a.6.6,0,0,1-.727-.483c-.084-.405.282-.662.641-.293.07-.855-.626-.839-.923-.482a1.245,1.245,0,0,0-.522-1.81,1.339,1.339,0,0,0,.314,1.865c-.558-.289-1.064.192-.567.822.118-.556.594-.43.7.008.089.381-.261.86-.876,1.045-.874.259-1.152-.3-1.372-.769a1.2,1.2,0,0,1,1.138.236l-.409-1.386a1.476,1.476,0,0,1-.845.843,4.37,4.37,0,0,1,.272-1.228l-1.692.693a4.236,4.236,0,0,1,1.049.681,1.4,1.4,0,0,1-1.192-.027l.678,1.3c.128-.577.423-.923.649-.969.177.489.362,1.091-.445,1.519a1.048,1.048,0,0,1-1.353-.139c-.223-.388.03-.817.485-.5-.08-.805-.777-.794-.98-.188,0-.828-.209-1.329-1.072-1.561a1.245,1.245,0,0,0,.887,1.664c-.464-.051-.967.417-.325.992,0-.523.442-.581.674-.232a.591.591,0,0,1-.192.836c-.265.183-.807.162-1.485-.464a1.3,1.3,0,0,1,.721.015l-.9-1.106a1.7,1.7,0,0,1-.053.855,1.538,1.538,0,0,1-.343-.841l-.685.611a7.879,7.879,0,0,1,2.3,2.28,30.762,30.762,0,0,1,3.737-1.86,32.173,32.173,0,0,1,3.967-1.283,7.946,7.946,0,0,1,.069-3.23l-.914.04Z" transform="translate(-88.143 -132.833)" fill="#b2b4b3"/><path d="M146.986,169.443a1.964,1.964,0,1,1,1.974,1.953,1.96,1.96,0,0,1-1.974-1.953Zm-.674,0a2.637,2.637,0,1,0,2.648-2.634,2.643,2.643,0,0,0-2.648,2.634Z" transform="translate(-49.19 -108.312)" fill="#b2b4b3"/><path d="M142.656,172c-.754-.141-1.285-.7-1.186-1.256a.868.868,0,0,1,.375-.537,1.537,1.537,0,0,1,1.178-.217,1.314,1.314,0,0,1,1.186,1.114.6.6,0,0,1-.013.131c-.1.558-.782.891-1.54.765Zm-1.2-2.357a1.522,1.522,0,0,0-.653.982,1.58,1.58,0,0,0,.407,1.313,2.379,2.379,0,0,0,2.808.508,1.537,1.537,0,0,0,.836-1.093h0a1.907,1.907,0,0,0-1.728-2.039,2.307,2.307,0,0,0-1.669.327Z" transform="translate(-54.181 -106.083)" fill="#b2b4b3"/><path d="M133.756,151.789a1.342,1.342,0,0,1,.546-1.005,1.4,1.4,0,0,1,1.009-.312.654.654,0,0,1,.482.263.742.742,0,0,1,.145.556,1.437,1.437,0,0,1-.554.879,1.081,1.081,0,0,1-1.489.044.637.637,0,0,1-.139-.424Zm.139-1.542a1.742,1.742,0,0,0-.531,2.383h0a1.742,1.742,0,0,0,2.429.082,2.092,2.092,0,0,0,.815-1.348A1.354,1.354,0,0,0,135.4,149.8a2.073,2.073,0,0,0-1.5.444Z" transform="translate(-61.142 -123.689)" fill="#b2b4b3"/><path d="M140.844,170.376h0a.792.792,0,0,1-.592-.289,1.536,1.536,0,0,1-.4-1.121,1.633,1.633,0,0,1,.445-1.1.836.836,0,0,1,.613-.249c.55,0,.988.636.971,1.4a1.539,1.539,0,0,1-.432,1.1.817.817,0,0,1-.6.259Zm-1.024-3a2.289,2.289,0,0,0-.643,1.582v.055a2.275,2.275,0,0,0,.586,1.551,1.526,1.526,0,0,0,1.07.483,1.5,1.5,0,0,0,1.085-.443,2.189,2.189,0,0,0,.641-1.578,2.275,2.275,0,0,0-.44-1.443,1.532,1.532,0,0,0-1.2-.653,1.592,1.592,0,0,0-1.095.445Z" transform="translate(-55.637 -108.201)" fill="#b2b4b3"/><path d="M133.754,158.6c-.683-.327-1.058-1.011-.815-1.517a.846.846,0,0,1,.5-.421,1.53,1.53,0,0,1,1.186.11,1.512,1.512,0,0,1,.828.86.864.864,0,0,1-.008.659.9.9,0,0,1-.51.413,1.561,1.561,0,0,1-1.18-.1Zm-.525-2.574a1.488,1.488,0,0,0-.891.767,1.9,1.9,0,0,0,1.121,2.414,2.238,2.238,0,0,0,1.711.133,1.546,1.546,0,0,0,.876-.767,1.515,1.515,0,0,0,.048-1.167,2.234,2.234,0,0,0-1.163-1.245,2.262,2.262,0,0,0-1.7-.135Z" transform="translate(-61.941 -118.153)" fill="#b2b4b3"/><path d="M155.563,184.937a1.252,1.252,0,0,1-1.656.491,1.387,1.387,0,1,1,1.656-.491Zm-3.118,4.905a1.094,1.094,0,1,1-.089-1.715,1.222,1.222,0,0,1,.089,1.715ZM141.69,162.985l.025-.061c.36-1.131,1.058-3.384,1.066-3.413l.025-.076,1.47.563-.192.08a3.729,3.729,0,0,0-1.028.714,1.228,1.228,0,0,0,.891-.118l.215-.148-.636,1.6-.086-.145a1.675,1.675,0,0,0-.645-.64,1.464,1.464,0,0,0-.051.314,1.189,1.189,0,0,0,.822,1.068c.7.362,1.135.405,1.317.129a.647.647,0,0,0,.032-.185.447.447,0,0,0-.118-.308.6.6,0,0,0-.7-.126l-.1.036-.008-.1a.952.952,0,0,1,.213-.805.753.753,0,0,1,.567-.249.741.741,0,0,1,.609.384,1.97,1.97,0,0,1,1.412-1.782l.07-.025.029.074a2.514,2.514,0,0,1,.148.8,2.083,2.083,0,0,1-.643,1.441.78.78,0,0,1,.815.257.746.746,0,0,1,.118.609,1.013,1.013,0,0,1-.548.624l-.1.055-.023-.108a.571.571,0,0,0-.464-.489.473.473,0,0,0-.483.219c-.177.346.082.718.754,1.089a1.136,1.136,0,0,0,1.656-.381,1.417,1.417,0,0,0-.944.244l-.263.164,1.057-1.963.032.232a1.535,1.535,0,0,0,.386.744,2.257,2.257,0,0,0,.131-.718,1.435,1.435,0,0,0-.118-.56l-.1-.228,2.147,1.249-.244.021a1.746,1.746,0,0,0-1.108.647,1.489,1.489,0,0,0,.851-.04l.215-.072L149,165.488l0-.3v-.057a1.4,1.4,0,0,0-.266-.881,1.671,1.671,0,0,0-.15.624,1.145,1.145,0,0,0,.659,1c.653.405,1.106.442,1.312.107a.469.469,0,0,0-.038-.529.585.585,0,0,0-.67-.166l-.1.036v-.11a.97.97,0,0,1,.261-.784.8.8,0,0,1,.579-.219.829.829,0,0,1,.634.6,1.989,1.989,0,0,1,1.7-1.553l.067-.025.017.08a1.853,1.853,0,0,1,.059.482,1.945,1.945,0,0,1-.9,1.624.759.759,0,0,1,.653.346.785.785,0,0,1,.108.386.85.85,0,0,1-.04.228,1,1,0,0,1-.6.584L152.2,167l-.011-.1a.594.594,0,0,0-.457-.542.437.437,0,0,0-.463.185c-.158.287.093.632.754,1.06a1.151,1.151,0,0,0,1.586-.013,1.575,1.575,0,0,0-.872-.249h-.171l1.066-1.346-.023.255v.049a1.163,1.163,0,0,0,.35.779,4.546,4.546,0,0,0,.126-.948,2.221,2.221,0,0,0-.011-.287l-.044-.207,1.233.992-.057.063c-.017.017-1.635,1.742-2.419,2.619l-.049.053-11.046-6.375Zm13.018,14.642a.813.813,0,0,1,.24-.592v-.006a.88.88,0,0,1,.626-.207,1.554,1.554,0,0,1,1.076.52,1.622,1.622,0,0,1,.455,1.1.829.829,0,0,1-.255.6h0a.843.843,0,0,1-.615.23,1.606,1.606,0,0,1-1.066-.535,1.557,1.557,0,0,1-.461-1.106Zm4.719,21.727a1.565,1.565,0,0,1,.7-.967,1.6,1.6,0,0,1,1.169-.27.91.91,0,0,1,.56.362h0a.861.861,0,0,1,.1.636,1.573,1.573,0,0,1-.706.973,1.233,1.233,0,0,1-1.707-.086.864.864,0,0,1-.112-.647Zm-22.475-32.729a1.348,1.348,0,0,1-.407.931.729.729,0,0,1-.508.194c-.432-.021-.78-.539-.78-1.125v-.093a1.342,1.342,0,0,1,.405-.931.664.664,0,0,1,1,.063,1.329,1.329,0,0,1,.3.961Zm6.948-14.282c.375-.7,0-1.776,1.3-1.776.632,0,1.19.628,1.961.883a7.894,7.894,0,0,0-3.257.893Zm20.252,17.872c.862,2.366,2.564,3.2,3.866,2.595-2.907-.331-.554-5.311-4.291-5.311a2.745,2.745,0,0,0-.6.067,3.053,3.053,0,0,0-2.442-.956,4.652,4.652,0,0,0-4.315,4.7c0,6.794,7.9,7.4,7.9,13.412a2.751,2.751,0,0,1-2.8,2.851c-1.331,0-2.4-1.5-3.508-3.83a29.035,29.035,0,0,0-2.9-4.216,2.063,2.063,0,0,0,1.176.409,1.525,1.525,0,0,0,1.093-.4,1.5,1.5,0,0,0,.457-1.07.207.207,0,0,0,.006-.061,2.375,2.375,0,0,0-2.2-2.267,1.486,1.486,0,0,0-1.551,1.471.258.258,0,0,0,0,.053,1.985,1.985,0,0,0,.131.7c-1.7-2.214-3.284-4.4-3.284-5.593,0-1.051.729-1.982,1.624-3.1l.308.171.242-.261c.322-.35.978-1.066,2.336-2.526l.084-.093h0l.324-.346-.843-.683a9.549,9.549,0,0,0,.565-1.666c.274,1.089.824,1.791,1.6,1.563-.52-1.119.518-2.638-.16-5.406.647,1.066,1.578,1.641,2.246,1.437-1.755-1.551.52-3.716-1.765-7.072a1.358,1.358,0,0,0,1.58-.266c-2.09-.293-1.144-2.945-4.785-3.895.91-.16,1.437-.693,1.308-1.169-.965.7-1.816-1.3-4.983-1.239a4.587,4.587,0,0,0-2.53-3.034,4.108,4.108,0,0,1-.213,2.423L137.5,137.5c-.3-.287-.474-.348-.552-.242s-.074.291.122.5l8.838,11.092c-.666.221-1.313.514-2.008.765a1.2,1.2,0,0,0-.763,1.146,18.693,18.693,0,0,0-3.8,2.475c-.541.5-.982.619-.5,1.727.183.43-.383,1.477.9.714.843-.5,2.745-1.559,3.027-.9.15.346-.788.794-1.441,1.037s-1.34.752-1.237,1,.605-.021.641.242a.57.57,0,0,0,.5.554c.253,0,.582-.541.788-.352s-.1,1.391-.306,1.692a2.01,2.01,0,0,0,1.675-1.818c.017-.752.227-.931.379-1.037s.341.8.131,1.34c.533-.116,1.081-.809,1.007-2.1a1.491,1.491,0,0,1,.739-.375c.343,0,1.015.933,1.961.933a2.928,2.928,0,0,0,2.831-2.084,1.924,1.924,0,0,0-.251-1.462,2.435,2.435,0,0,1,.832,1.886c0,2.482-4.389,3.651-6.2,5.364-.069.059-.12.124-.187.185l-2.062-.8-.141.453c0,.027-.032.108-.116.388-.215.71-.668,2.176-.944,3.027l-.11.335.187.11a11.389,11.389,0,0,0-2.427,5.3,18.617,18.617,0,0,0-1.5-1.367,2.283,2.283,0,0,0,.1-.569,2.015,2.015,0,0,0-.457-1.456,1.353,1.353,0,0,0-1.959-.109c-.063.07-.118.131-.187.2-.067-.055-.133-.109-.211-.164a18.216,18.216,0,0,1-2.035-1.709,1.028,1.028,0,0,0-.891-.371c-.171,0-.617-.013-.91-.013-.312,0-.491.228-.836.541-.2.166-.847.672-1.506,1.173.308.31.617.626.906.961.084.1.179.188.257.289.289-.23.522-.4.668-.525a1.112,1.112,0,0,1,1.658.371c.187.282,1.86,2.465,3.234,3.986-.154.057-.3.107-.434.162a7.068,7.068,0,0,1-2.524.152c-.586-.051-.7-.2-1.1.43a7.384,7.384,0,0,1-.548.769c-.2.242-.346.514.07,1.224.605,1.022,2.107,3.735,2.619,4.957a2.886,2.886,0,0,0,2.046,1.814,15.784,15.784,0,0,1,2.8,1.544l.067-.931a5.587,5.587,0,0,0-1.561-.758c-.331-.129-.432-.272-.013-.272a10.752,10.752,0,0,1,2.383.737,6.974,6.974,0,0,0-1.637-2.482,2.182,2.182,0,0,0-1.683.023.375.375,0,0,1-.392.428.366.366,0,0,1-.377-.482c.1-.272.51-.364.415-.891s-.737-.609-1.157-.649c-.584-.853-1.264-2.1-1.563-2.6a.643.643,0,0,1,.086-.961c.5-.411,1.546.227,3.641.354.721.042,1.667.089,2.594.141.282,2.421,1.249,4.742,4.639,5.585a5.717,5.717,0,0,1,3.94,3.213c-6.758-.118-7.82,2.513-7.82,5,0,2.832,2.376,2.674,2.376,4.795,0,1.846-5.673,2.614-7.393,2.865a4.788,4.788,0,0,0-2.994,1.245c-.687.693-1.4,1.367-2.676,2.638a4.516,4.516,0,0,0,1.079.093l.961-1.245c.284-.421.478-.763.666-.729s.07.346-.15.794l-.794,1.327c3.331.232,3.552-1,3.552-1.519s-.817-.853-.339-1.171.883-.1,1.258.345.516.826,1.439.48c0,0,7.271-3.017,8.187-3.438.832-.365.6-.729.1-1.14a2.364,2.364,0,0,1-.626-1.936c0-2.2,1.317-2.882,3.691-2.832a8.815,8.815,0,0,0-.082,1.058c0,3.436,5.195,6.79,6.6,6.79.63,0,1.462-.466,1.525,1.607a21.082,21.082,0,0,1,.076,4.361,3.27,3.27,0,0,1-1.839,2.766c-1.056.742-2.05,3.063-2.5,3.563.468.308.973.341,1.363-.79a3.461,3.461,0,0,1,1.108-1.833c-.4,1.043-.718,2.555-.912,3.008,1.329.236,3.483-.986,3.483-1.905,0-.944-.746-.872-.746-1.49a.721.721,0,0,1,.746-.588,1.093,1.093,0,0,1,.975.622c.59-.314.954-.9.933-2.265,0-.529-.03-1.087-.057-1.66.04.07.078.145.118.221a1.538,1.538,0,0,0,1.2.67,2.275,2.275,0,0,0,1.45-.39,2.219,2.219,0,0,0,1-1.393,1.736,1.736,0,0,0,.036-.339,1.505,1.505,0,0,0-.236-.809,1.526,1.526,0,0,0-.978-.643,2.226,2.226,0,0,0-1.675.358,2.32,2.32,0,0,0-.965,1.275c-.112-1.864-.232-3.628-.2-4.344.088-1.055.128-1.519-.221-1.683s-.744.438-1.253.438a3.406,3.406,0,0,1-2.037-2.89c0-1.479,1.6-3.4,1.53-5.433-.034-.632.375-.957.621-.386a9.606,9.606,0,0,0,1.447,2.408c-.415,2.549,2.393,5.037,4.706,3.186-1.144.179-1.93-.843-2.435-1.862a3.239,3.239,0,0,0,.613.049c.12,0,.242-.006.356-.006.8,1.005,3.4.919,4.06-1.572a2.656,2.656,0,0,1-2.06.83,4.128,4.128,0,0,0,1.479-3.312c0-6.48-7.865-7.233-7.865-13.138a3.617,3.617,0,0,1,3.247-3.594,1.955,1.955,0,0,1,1.213.386,2.955,2.955,0,0,0-.729,2.254c.215,4.662,7.81,4.424,7.917,6.67.862-3.369-4.827-2.326-5.035-6.885Z" transform="translate(-65.166 -135.059)" fill="#b2b4b3"/><path d="M128.008,177.972a.931.931,0,0,0-.721-.565c-1.093,0-.666,2.882-1.961,2.882a.783.783,0,0,1-.874-.765c0-.4.272-.525.272-.851s-.249-.445-.527-.445-.543.116-.543.445.287.447.287.851a.789.789,0,0,1-.874.765c-1.306,0-.876-2.882-1.966-2.882a.911.911,0,0,0-.712.565,2.5,2.5,0,0,1-.348-1.129,1.256,1.256,0,0,1,1.264-1.251c1.466,0,1.119,1.976,1.8,1.976a.486.486,0,0,0,.546-.48c0-.575-1.015-1.1-1.015-1.917s.748-1.489,1.557-2.14c.809.651,1.549,1.334,1.549,2.14s-1.022,1.342-1.022,1.917a.487.487,0,0,0,.543.48c.7,0,.358-1.976,1.818-1.976a1.253,1.253,0,0,1,1.254,1.251,2.686,2.686,0,0,1-.331,1.129Zm-3.811,4.037a.711.711,0,1,1,.708-.712.717.717,0,0,1-.708.712Zm2.888-6.98a1.8,1.8,0,0,0-.542.074v-3.116a22.429,22.429,0,0,1-4.679-.744v3.874a1.444,1.444,0,0,0-.558-.088,1.828,1.828,0,0,0-1.829,1.814,3.272,3.272,0,0,0,.914,2.06c.207-.5.405-.9.681-.9.558,0,.293,2.783,1.934,2.853a1.133,1.133,0,0,0-.088.44,1.275,1.275,0,1,0,2.551,0,1.334,1.334,0,0,0-.078-.44c1.629-.07,1.35-2.853,1.907-2.853.276,0,.457.384.7.9a3.227,3.227,0,0,0,.906-2.06,1.818,1.818,0,0,0-1.82-1.814Z" transform="translate(-73.437 -104.306)" fill="#b2b4b3"/><path d="M119.051,143.434c-.491.937-.914,1.485-.851,2.2s.826,1.237,1.19,1.964c.32-.841.87-1.481.8-2.141s-.977-1.548-1.14-2.027Z" transform="translate(-74.595 -129.432)" fill="#b2b4b3"/><path d="M125.8,143.434c.483.937.906,1.485.849,2.2s-.824,1.237-1.188,1.964c-.327-.841-.866-1.481-.809-2.141s.988-1.548,1.148-2.027Z" transform="translate(-68.767 -129.432)" fill="#b2b4b3"/><path d="M115.239,143.962a.855.855,0,1,0-.843-.847.849.849,0,0,0,.843.847Z" transform="translate(-78.027 -130.499)" fill="#b2b4b3"/><path d="M115.949,144.189a.852.852,0,1,0-.855.849.854.854,0,0,0,.855-.849Z" transform="translate(-78.163 -129.515)" fill="#b2b4b3"/><path d="M116.162,145.274a.839.839,0,0,0-.841-.851.85.85,0,1,0,.841.851Z" transform="translate(-77.967 -128.538)" fill="#b2b4b3"/><path d="M117.706,141.827a.849.849,0,1,0-.841-.853.85.85,0,0,0,.841.853Z" transform="translate(-75.796 -132.418)" fill="#b2b4b3"/><path d="M116.61,142.172a.852.852,0,1,0-.857-.849.853.853,0,0,0,.857.849Z" transform="translate(-76.801 -132.112)" fill="#b2b4b3"/><path d="M115.737,142.932a.847.847,0,1,0-.855-.847.85.85,0,0,0,.855.847Z" transform="translate(-77.588 -131.416)" fill="#b2b4b3"/><path d="M118.889,141.932a.847.847,0,1,0-.857-.849.851.851,0,0,0,.857.849Z" transform="translate(-74.741 -132.319)" fill="#b2b4b3"/><path d="M119.981,142.255a.85.85,0,1,0-.845-.857.85.85,0,0,0,.845.857Z" transform="translate(-73.744 -132.033)" fill="#b2b4b3"/><path d="M121.027,142.75a.855.855,0,1,0-.845-.855.85.85,0,0,0,.845.855Z" transform="translate(-72.799 -131.594)" fill="#b2b4b3"/><path d="M128.6,143.115a.845.845,0,1,0,.841-.862.847.847,0,0,0-.841.862Z" transform="translate(-65.197 -130.499)" fill="#b2b4b3"/><path d="M129.58,143.342a.848.848,0,1,0,.858.847.843.843,0,0,0-.858-.847Z" transform="translate(-65.065 -129.515)" fill="#b2b4b3"/><path d="M129.365,144.423a.85.85,0,0,0,0,1.7.85.85,0,1,0,0-1.7Z" transform="translate(-65.263 -128.538)" fill="#b2b4b3"/><path d="M126.97,141.827a.849.849,0,1,0-.851-.853.854.854,0,0,0,.851.853Z" transform="translate(-67.435 -132.418)" fill="#b2b4b3"/><path d="M128.081,142.172a.852.852,0,1,0-.849-.849.846.846,0,0,0,.849.849Z" transform="translate(-66.429 -132.112)" fill="#b2b4b3"/><path d="M128.953,142.932a.847.847,0,1,0,0-1.694.847.847,0,1,0,0,1.694Z" transform="translate(-65.643 -131.416)" fill="#b2b4b3"/><path d="M125.808,141.932a.847.847,0,0,0,0-1.694.847.847,0,1,0,0,1.694Z" transform="translate(-68.488 -132.319)" fill="#b2b4b3"/><path d="M124.7,142.255a.85.85,0,1,0-.855-.857.86.86,0,0,0,.855.857Z" transform="translate(-69.487 -132.033)" fill="#b2b4b3"/><path d="M122.809,141.9a.847.847,0,1,0,.845-.855.845.845,0,0,0-.845.855Z" transform="translate(-70.425 -131.594)" fill="#b2b4b3"/><path d="M121.174,145.772h.95V142.13a3.291,3.291,0,0,1-.95-.291v3.933Z" transform="translate(-71.903 -130.873)" fill="#b2b4b3"/><path d="M123.153,141.839a3.152,3.152,0,0,1-.95.291v3.641h.95v-3.933Z" transform="translate(-70.973 -130.873)" fill="#b2b4b3"/><path d="M122.636,140.747V138.6a2.667,2.667,0,0,0-2.081,2.151Z" transform="translate(-72.462 -133.803)" fill="#b2b4b3"/><path d="M122.23,140.747h2.082a2.674,2.674,0,0,0-2.082-2.151v2.151Z" transform="translate(-70.948 -133.803)" fill="#b2b4b3"/><path d="M120.567,140.278a2.674,2.674,0,0,0,5.218,0Z" transform="translate(-72.451 -132.283)" fill="#b2b4b3"/><path d="M124.457,140.53a2.968,2.968,0,0,1-1.157-1.89,3.5,3.5,0,0,1,1.938,1.235v-2.931a3.393,3.393,0,0,1-1.938,1.226,4.283,4.283,0,0,1,1.123-2.092h-2.836a4.443,4.443,0,0,1,1.115,2.092,3.313,3.313,0,0,1-1.934-1.226v2.931a3.427,3.427,0,0,1,1.921-1.235,2.9,2.9,0,0,1-1.15,1.89Z" transform="translate(-72.269 -136.078)" fill="#b2b4b3"/><path d="M131.8,178.584a1.04,1.04,0,1,1,1.041-1.035,1.033,1.033,0,0,1-1.041,1.035Zm-5.022-1.538a1.138,1.138,0,1,1,1.152-1.14,1.155,1.155,0,0,1-1.152,1.14Zm-1.728-5.09-.282-.215a1,1,0,0,0-1.42.027,6.139,6.139,0,0,0-.617.64l-.291.333.2.162c.554.434.636.914.478,1.2a.432.432,0,0,1-.286.209,1.406,1.406,0,0,1-1.045-.249l-.209-.126-.137.2a.677.677,0,0,1-.1.152c-.038.065-.1.133-.141.217a2.143,2.143,0,0,0-.346.978,1.018,1.018,0,0,0,.025.213.979.979,0,0,0,.541.544l.131.086c.236.148.592.352.841.5a1.465,1.465,0,0,1-1.449.059,2.241,2.241,0,0,1-1.213-1.61,4.619,4.619,0,0,1,.811-2.256l.084-.124-.076-.133a5.234,5.234,0,0,1-.381-.735,7.318,7.318,0,0,1,.828.16l.135.029.1-.11a4.3,4.3,0,0,1,2.482-1.479,1.808,1.808,0,0,1,1.336.655,2,2,0,0,1,.482,1.028c-.147-.109-.312-.23-.482-.358Zm-7.214.168-.674-.942s1.037-.72,1.163-.8c-.076-.11-.579-.813-.657-.921-.114.078-1.148.805-1.148.805l-.661-.933,3.2-2.256.666.942s-1.041.725-1.146.8c.07.112.569.815.64.917.12-.076,1.157-.805,1.157-.805l.653.944-3.19,2.246Zm-3.207-5.6a2.018,2.018,0,0,1,0-1.608,1.986,1.986,0,0,1,2.619-1.016,2.109,2.109,0,0,1,1.108,1.2,2.483,2.483,0,0,1,.147.8,1.937,1.937,0,0,1-.166.788,1.965,1.965,0,0,1-1.106,1.049,1.934,1.934,0,0,1-1.5-.021,2.066,2.066,0,0,1-1.1-1.192Zm20.212,9.455a55.561,55.561,0,0,1-8.829-3.16l0-.044a2.409,2.409,0,0,0-.6-1.81,2.34,2.34,0,0,0-1.7-.824,2.523,2.523,0,0,0-.8.16,12.461,12.461,0,0,1-1.228-1.262,14.536,14.536,0,0,1-2.627-4.561,15.315,15.315,0,0,1-.765-3.025,2.734,2.734,0,0,1-2.85,1.894c.029-.173-.023-.438-.173-.48-.442.484-1.02.975-2.537.445a22.919,22.919,0,0,0,.988,3.464,20.8,20.8,0,0,0,3.845,6.457,18.547,18.547,0,0,0,1.709,1.707,2.108,2.108,0,0,0-.025.343,2.7,2.7,0,0,0,1.479,2.046,2.061,2.061,0,0,0,2.183-.244,23.858,23.858,0,0,0,4.732,1.837,21.342,21.342,0,0,0,5.45.864,9.671,9.671,0,0,0,4.734-1.685,12.367,12.367,0,0,0,1.791-1.348,1.694,1.694,0,0,0,.185-.185,15,15,0,0,1-4.963-.592Z" transform="translate(-79.529 -113.156)" fill="#b2b4b3"/><path d="M116.029,164.238v-.015a1.1,1.1,0,0,0-.069-.373.889.889,0,1,0-1.654.647.985.985,0,0,0,.472.527.935.935,0,0,0,.678,0,.854.854,0,0,0,.573-.788Z" transform="translate(-78.175 -111.528)" fill="#b2b4b3"/><path d="M116.069,154.867a.82.82,0,0,0-1.142.384.86.86,0,0,0-.074.664.83.83,0,0,0,.415.484.841.841,0,0,0,.632.069.828.828,0,0,0,.51-.44.925.925,0,0,0,.1-.415.841.841,0,0,0-.436-.746Z" transform="translate(-77.646 -119.193)" fill="#b2b4b3"/><path d="M127.961,153.721l-.421.121.217.284.2-.406Z" transform="translate(-66.151 -120.137)" fill="#b2b4b3"/><path d="M130.751,158.219l-.365-.716v.006c-.07.086-.147.2-.215.3-.04.051-.088.114-.124.169.069.021.158.057.24.091.158.046.314.11.464.15Z" transform="translate(-63.886 -116.72)" fill="#b2b4b3"/><path d="M130.32,160.709c.074,0,.147.006.154-.188v-.215c-.086,0-.225-.006-.318-.006v.183a.281.281,0,0,0,.044.188.164.164,0,0,0,.12.038Z" transform="translate(-63.787 -114.193)" fill="#b2b4b3"/><path d="M120.5,150.9a.9.9,0,0,0-.683-.017.947.947,0,0,0-.554.464.893.893,0,0,0-.019.695.939.939,0,0,0,1.7.051.935.935,0,0,0,.078-.367.778.778,0,0,0-.059-.3.9.9,0,0,0-.459-.523Z" transform="translate(-73.7 -122.759)" fill="#b2b4b3"/><path d="M146.914,174.992a1.419,1.419,0,0,1-.4,1.018,1.279,1.279,0,0,1-.9.331,1.156,1.156,0,0,1-.845-.352,1.459,1.459,0,0,1-.373-1.051v-.2c-.141,0-1.393-.021-1.393-.021l.025-1.148,3.9.076-.015,1.342Zm-.609,4.683-1.083-.2.255-1.334-.3-.05-.24,1.294-1.087-.2.246-1.3-.308-.057-.261,1.382-1.077-.187.459-2.516,3.841.7-.445,2.465Zm-.613,1.883-2.435.839,1.793.723-.417,1.039L141.01,182.7l.339-.83,2.395-.822-1.774-.72.413-1.032,3.624,1.458-.314.807Zm-2.33,4.694a2.269,2.269,0,0,1-.912.668h0l-1.1-.739c1.142-.356,1.222-.687,1.163-.737s-.232.05-.459.164a1.528,1.528,0,0,1-1.666.076,1.186,1.186,0,0,1-.516-.765,1.266,1.266,0,0,1,.208-.95,2.266,2.266,0,0,1,1.087-.771l1.083.744-.179.032a2.135,2.135,0,0,0-1.053.571c-.046.053-.082.118-.069.15,0,.015,0,.023.023.034.089.065.377-.063.6-.166a1.446,1.446,0,0,1,1.525-.08,1.1,1.1,0,0,1,.506.742.9.9,0,0,1,.023.219,1.43,1.43,0,0,1-.272.805Zm-3.175,3.546-.784-.771.967-.969-.208-.208-.919.938-.784-.765.916-.937-.227-.228-1.011.957-.782-.769,1.81-1.784,2.792,2.747-1.77,1.787Zm-9.815-15.752v-14a10.831,10.831,0,0,1,4.241,1.108,12.041,12.041,0,0,1,3.864,3.063,14.81,14.81,0,0,1,2.633,4.561,16.439,16.439,0,0,1,.952,5.267Zm-.485-14.836a1.569,1.569,0,0,1-1.717-1.57l-.011-2.341,1.15-.025v2.246c.013.324.053.373.107.417a.549.549,0,0,0,.444.164.716.716,0,0,0,.52-.169c.055-.055.1-.145.1-.466v-2.214l1.148.01v2.309a1.609,1.609,0,0,1-.411,1.136,1.809,1.809,0,0,1-1.323.5ZM117.7,174.046a16.494,16.494,0,0,1,.956-5.267,14.8,14.8,0,0,1,2.627-4.561,12.192,12.192,0,0,1,3.872-3.063,10.608,10.608,0,0,1,4.517-1.108v14ZM117.665,167a1.924,1.924,0,0,1-1.447-.135,1.867,1.867,0,0,1-.927-1.117,2.108,2.108,0,0,1,1.336-2.543,1.92,1.92,0,0,1,1.447.137,1.881,1.881,0,0,1,.931,1.121,1.829,1.829,0,0,1,.086.548,2.074,2.074,0,0,1-.261.99,1.922,1.922,0,0,1-1.165,1Zm.059-6.122,2.949,2.307-.7.876-2.941-2.309.691-.874ZM120.6,158.1l.712.779-.773.725c.1.11,1.808,1.966,1.808,1.966l-.813.752-1.82-1.968-.773.723-.723-.782L120.6,158.1Zm7.542.525-.489,1.062a4.588,4.588,0,0,1-1.97-.07,1.958,1.958,0,0,1-2.105-1.281,1.886,1.886,0,0,1,.036-1.5,2.194,2.194,0,0,1,1.264-1.114,2,2,0,0,1,2.6,1.188,1.924,1.924,0,0,1,.112.672,1.978,1.978,0,0,1-.327,1.081,2.969,2.969,0,0,0,.876-.042Zm5.758-3.011-.773,3.952-1.123-.234.782-3.94,1.114.223Zm-13.686-.887c0-2.263,6.4-2.465,9.657-2.465h.011c3.246,0,9.651.2,9.651,2.465,0,.636-.4,1.176-1.327,1.719a16.626,16.626,0,0,0-16.658,0c-.931-.542-1.334-1.083-1.334-1.719ZM139.5,158.2l.685.539-2.358,3.185-.946-.659,1.2-1.567-1.155.3-.192-1.226-1.108,1.6-1-.541,2.261-3.282.782.409.251,1.639,1.584-.388Zm2.684,2.547.482.6-2.069,4.013-.752-1.036.375-.7-.752-.973-.659.213-.929-.864,4.3-1.254Zm5.625,12.148a3.691,3.691,0,0,1-1.127-1.306c-.419-.141-1.563-.55-2.06-.731,0,0-.227-.086-.266-.1l-1.6.442-.3-1.1,1.607-.44c.032-.029.084-.107.15-.187.238-.314.67-.878.868-1.1-.4-.75-.782-1.414-1.039-1.852a2.216,2.216,0,0,1-.367-1.123l-1.483.771c.069.126.649,1.3.649,1.3l-.992.495-1.136-2.349,3.5-1.707.154.3c.089-.124.177-.253.268-.4a3.289,3.289,0,0,1,.329-.434,20.687,20.687,0,0,0-2.358-3.255,18.5,18.5,0,0,0-3.628-3.15,2.646,2.646,0,0,0,1.42-2.244,2.027,2.027,0,0,0-.733-1.588,20.826,20.826,0,0,1,3.232-6.561l-2.406-1.016a3.766,3.766,0,0,1,.537,2.714,3.128,3.128,0,0,1-1.352-1.822,10.505,10.505,0,0,1-.881,2.621,2.173,2.173,0,0,1,1.957-.181,2.854,2.854,0,0,1-3.021,1.005c-.853-.206-1.711-.653-1.664-1.321a.8.8,0,0,1,.834-.819c.523.053.552.849.4,1.207.681-.388,1.4-2.408.316-2.709-.841-.232-1.618.935-1.9,1.818-.162-1.074-.609-2.1-1.464-2.041-1.1.07-.748,2.121-.362,2.636.07-.712.459-1.1.786-1.068.3.013.691.228.626.876s-1,1.062-2.071,1.062c-1.013,0-2.8-.325-2.973-2.288a3.692,3.692,0,0,1,2.147,1.289,12.69,12.69,0,0,1,0-3.268,3.411,3.411,0,0,1-2.109,1.285,3.909,3.909,0,0,1,1.749-2.265h-4.378a3.9,3.9,0,0,1,1.755,2.248,3.3,3.3,0,0,1-2.077-1.268,13.04,13.04,0,0,1,0,3.268,3.662,3.662,0,0,1,2.109-1.277c-.177,1.951-1.964,2.277-2.973,2.277-1.06,0-1.993-.417-2.058-1.062s.322-.862.617-.876c.327-.03.723.356.782,1.068.386-.516.742-2.566-.362-2.636-.847-.055-1.3.967-1.46,2.041-.278-.883-1.051-2.05-1.9-1.818-1.079.3-.356,2.32.324,2.709-.164-.358-.131-1.154.39-1.207a.822.822,0,0,1,.857.819c.032.668-.817,1.115-1.675,1.321a2.869,2.869,0,0,1-3.019-1,2.18,2.18,0,0,1,1.978.177,10.748,10.748,0,0,1-.883-2.621,3.135,3.135,0,0,1-1.374,1.841,3.88,3.88,0,0,1,.533-2.733l-2.406,1.016a20.794,20.794,0,0,1,3.24,6.579,2.053,2.053,0,0,0-.72,1.57,2.645,2.645,0,0,0,1.435,2.244,18.066,18.066,0,0,0-3.628,3.15,20.356,20.356,0,0,0-3.845,6.4c-.051.12-.086.242-.133.352.272.276.544.563.8.849a.253.253,0,0,1,.034-.1,2.06,2.06,0,0,1,.746-.843l1.2.472c-.508.358-1.106.849-.98.959.051.063.316-.152.44-.246a1.535,1.535,0,0,1,1.6-.436,1.2,1.2,0,0,1,.672.643,1.239,1.239,0,0,1,.01.952,2.246,2.246,0,0,1-.895,1l-1.1-.43a3.325,3.325,0,0,0,.952-.916c.036-.093.042-.169,0-.188-.1-.055-.339.128-.554.289a2,2,0,0,1-.82.459,3.988,3.988,0,0,1,.87,1.98,3.121,3.121,0,0,0,.855,2.25c.862,1.1-.029,1.009.733,2.378-.034-.392-.057-.777-.061-1.165h11.971v13.068a1.662,1.662,0,0,0-1.42.558c1.38.56,2.775,1.066,4.1,1.47a3.126,3.126,0,0,1,.771-1.8s-1.8-.173-2.745-.225V174.765h11.69a16.287,16.287,0,0,1-.952,5.21,14.549,14.549,0,0,1-2.633,4.561,12.326,12.326,0,0,1-3.864,3.063c-.356.175-.6.72-.822,1.213a4.239,4.239,0,0,0-.364,1.289c.544.171.664.276,1.186.407,4.1,1.032,5.172.83,5.406.647h0a18.99,18.99,0,0,0,2.585-2.423,20.677,20.677,0,0,0,3.839-6.457,22.371,22.371,0,0,0,1.409-7.882c0-.506-.019-1-.044-1.492Z" transform="translate(-79.124 -128.658)" fill="#b2b4b3"/><path d="M105.785,174.835s-.129.067-.242.118c.088.143.879,1.462.992,1.656.069-.036.244-.145.244-.145.864-.459.761-1.045.533-1.4-.451-.706-1-.506-1.527-.234Z" transform="translate(-86.026 -101.286)" fill="#b2b4b3"/><path d="M133.972,172.374a.265.265,0,0,0,.188-.238.34.34,0,0,0-.167-.251c-.021,0-.324-.185-.324-.185s-.188.3-.27.444c.124.076.284.166.284.166a.364.364,0,0,0,.289.065Z" transform="translate(-60.857 -103.893)" fill="#b2b4b3"/><path d="M131.136,172.683c.775.194,1.258.076,1.551-.674.223-.552.048-.982-.843-1.232h0l-.286-.065c-.082.187-.666,1.85-.693,1.907l.27.063Z" transform="translate(-63.146 -104.784)" fill="#b2b4b3"/><path d="M135.345,174.911a1.168,1.168,0,0,0,.839.126,1,1,0,0,0,.649-.484.938.938,0,0,0,.124-.752,1.081,1.081,0,0,0-.51-.638,1.165,1.165,0,0,0-.836-.131,1,1,0,0,0-.647.493.894.894,0,0,0-.133.752,1.055,1.055,0,0,0,.514.634Z" transform="translate(-59.591 -102.714)" fill="#b2b4b3"/><path d="M125.83,178.809a1.027,1.027,0,0,0-.8-.274,1.182,1.182,0,0,0-.83.331,1.044,1.044,0,0,0-.306.775.923.923,0,0,0,.306.737,1.082,1.082,0,0,0,.807.272,1.171,1.171,0,0,0,.82-.337,1.062,1.062,0,0,0,.325-.773.914.914,0,0,0-.325-.731Z" transform="translate(-69.443 -97.718)" fill="#b2b4b3"/><path d="M158.094,179.172c0,1.043-.936,2.042-2.6,2.9.468-2.191-4.768-2.871-4.768-4.475,0-1.4,2.09-2.134,3.666-2.4,1.02,1.313,3.7,2.282,3.7,3.973Zm-5.377,9.247-.925.326s-1.508-1.525-1.846-1.86c-.029.472-.133,2.391-.133,2.391l-1.224.234.27-4.582.878-.147,1.879,1.885c.023-.453.135-2.328.135-2.328l1.233-.333-.266,4.414Zm-5.17.735a2.637,2.637,0,0,1-1.744.7,2.39,2.39,0,0,1-1.7-.6,2.062,2.062,0,0,1-.683-1.591,2.227,2.227,0,0,1,.683-1.667,2.521,2.521,0,0,1,1.717-.71,2.4,2.4,0,0,1,1.728.6,2.078,2.078,0,0,1,.714,1.616,2.19,2.19,0,0,1-.714,1.656Zm-4.494.794-1.247.019V187.6c-.3.362-1.041,1.228-1.041,1.228s-.733-.866-1.034-1.228v2.362l-1.243-.034V185.48l1.043.03s1.066,1.3,1.241,1.511c.181-.211,1.213-1.5,1.213-1.5l1.068-.029v4.45Zm-6.967-3.457c-.352-.038-.95-.112-1.277-.156v3.335l-1.247-.179v-3.339c-.345-.05-.889-.141-1.254-.2v-1.186c1.1.183,2.572.4,3.779.541v1.182Zm-6.83,1.888-.232-4.4c.678.2,2.136.584,2.907.723l.029,1.2c-.375-.063-1.106-.23-1.639-.362.008.048.017.266.023.384.173.038,1.511.377,1.511.377l.051,1.213s-1.228-.3-1.5-.367c0,.025.025.345.029.466.413.141,1.06.293,1.588.417l.07,1.211a14.787,14.787,0,0,1-2.838-.859Zm-2.728-6.306c-1.65-.858-2.587-1.858-2.587-2.9,0-1.69,2.657-2.659,3.695-3.967,1.574.267,3.657,1,3.657,2.393,0,1.6-5.221,2.284-4.765,4.475Zm-4.355-6.5a1.685,1.685,0,0,1-2.469-.9l-1.024-2.3,1.1-.569,1.032,2.322c.227.482.468.645.921.413.548-.253.539-.48.335-.931L121,171.175l1.213-.413,1,2.37a1.662,1.662,0,0,1-1.037,2.436Zm-4.905,2.775L115,174.708l2.381-1.553.609.975-1.367.912c.069.11.135.24.206.345l1.323-.9.607.984-1.319.883c.076.116.171.263.244.379l1.411-.946.609.984-2.437,1.572Zm-2.395,1.593L112.6,176.3l.994-.661,2.277,3.647-1,.647Zm-3.3,1.963-1.253.689-2.178-3.643,1.323-.729a2.76,2.76,0,0,1,1.254-.383,1.893,1.893,0,0,1,1.076.28,2.116,2.116,0,0,1,.822.805,2.031,2.031,0,0,1-1.045,2.981Zm46.29-11.663,1.667.407a1.888,1.888,0,0,1,1.433,2.631c-.661,1.618-1.879,1.717-3.1,1.441l-1.46-.36,1.46-4.119Zm6.143,2.522h0a2.122,2.122,0,0,1,.659.641,1.165,1.165,0,0,1-.046,1.218,1.047,1.047,0,0,1-.666.533.965.965,0,0,1-.331.038,4.378,4.378,0,0,1,.072.628c.051.9.185,1.881.185,1.9-.194-.122-1.23-.782-1.319-.841l-.11-1.256c-.032-.444-.051-.63-.194-.729-.1.192-.786,1.344-.786,1.344l-1.066-.563,2.145-3.752c.324.185,1.136.641,1.458.838Zm1.961,2.113a2.342,2.342,0,0,1,1.738.28,2.185,2.185,0,0,1,1.079,1.352,1.871,1.871,0,0,1,.086.571,2.229,2.229,0,0,1-1.732,2.1,2.49,2.49,0,0,1-1.746-.31,2.179,2.179,0,0,1-1.072-1.321,2.015,2.015,0,0,1,.253-1.652,2.132,2.132,0,0,1,1.393-1.016Zm5.261,2.536-2.259,3.71-1.06-.651,2.269-3.687,1.051.628Zm3.891,2.14-.556,1c-.314-.128-.895-.4-1.317-.607-.367.594-1.407,2.246-1.614,2.556l-1.1-.489c.013-.021,1.247-1.962,1.66-2.623-.348-.2-.853-.489-1.121-.651l.562-1.011c.912.554,2.722,1.483,3.491,1.827Zm-.957,4.11c2.233,0,4.222-2.819,7.014-4.068-7.051,2.063-16.789-9.891-23.413-9.891a5.157,5.157,0,0,0-5.081,3.266c-1.117,2.716-2.355,3.62-2.355,4.824,0,1.055.944,1.86,2.555,2.711,1.036.552,2.121.859,2.077,1.839-3.044,1.384-8.025,2.341-13.953,2.341-5.91,0-10.9-.957-13.924-2.341-.057-.98,1.022-1.287,2.058-1.839,1.612-.851,2.572-1.656,2.572-2.711,0-1.2-1.249-2.107-2.37-4.824a5.149,5.149,0,0,0-5.069-3.266c-6.63,0-16.368,11.954-23.417,9.895,2.791,1.245,4.776,4.068,7.014,4.068,5.716,0,12.329-8.581,18.531-8.581.089,0,.171,0,.274.006-1.447,1.793-3.457,2.164-3.457,3.978,0,1.272,1.087,2.035,1.852,3.735a20.5,20.5,0,0,1,.959,3.306c.367,1.329,1.289,4.709,14.977,4.709,13.705,0,14.625-3.381,14.983-4.709a20.088,20.088,0,0,1,.963-3.306c.765-1.7,1.865-2.463,1.865-3.735,0-1.822-2.027-2.185-3.47-3.978.1-.006.188-.015.268-.015,6.217,0,12.83,8.587,18.546,8.587Z" transform="translate(-90.259 -105.701)" fill="#b2b4b3"/></svg>