<svg xmlns="http://www.w3.org/2000/svg" width="106.404" height="132.876" viewBox="0 0 106.404 132.876"><g transform="translate(0.692 93.057)"><path d="M525.522,343.2h4.525l7.008,25.834h.081l7.01-25.834h4.278v29.093h-2.608V345.645h-.081L538.2,372.293h-2.445l-7.538-26.649h-.083v26.649h-2.608Z" transform="translate(-525.522 -343.2)" fill="#b1b3b3"/><path d="M544.383,346.483c4.769,0,7.458,3.79,7.458,11.288,0,7.538-2.689,11.328-7.458,11.328s-7.455-3.79-7.455-11.328C536.928,350.273,539.617,346.483,544.383,346.483Zm0,20.579c2.729,0,4.849-2.364,4.849-9.291,0-6.887-2.12-9.249-4.849-9.249s-4.849,2.362-4.849,9.249C539.534,364.7,541.654,367.062,544.383,367.062Z" transform="translate(-512.722 -339.516)" fill="#b1b3b3"/><path d="M544.493,346.973h2.443v3.383h.083a5.725,5.725,0,0,1,5.46-3.873,3.124,3.124,0,0,1,.855.123v2.445a6.188,6.188,0,0,0-1.18-.121c-2.691,0-5.219,1.955-5.219,6.152v13.527h-2.443Z" transform="translate(-504.232 -339.516)" fill="#b1b3b3"/><path d="M548.833,353.412c0-4.442,2.118-6.929,6.683-6.929,4.482,0,6.112,2.324,6.112,5.747v12.795c0,1.222.407,1.791,1.265,1.791h.692v1.793a3.383,3.383,0,0,1-1.142.244c-1.914,0-3.137-.448-3.137-2.689v-.732h-.083c-.978,2.852-3.177,3.667-5.581,3.667-3.79,0-5.5-2.364-5.5-6.112,0-2.852,1.3-5.136,4.359-5.991l4.605-1.3c1.711-.49,2.078-.9,2.078-3.423,0-2.772-1.547-3.748-3.748-3.748-2.895,0-4.155,1.751-4.155,4.89Zm10.35,2.973H559.1c-.242.734-1.628,1.182-2.606,1.426l-2.037.531c-2.445.651-3.708,1.914-3.708,4.482,0,2.525,1.3,4.238,3.421,4.238,2.975,0,5.013-2.241,5.013-6.112Z" transform="translate(-500.139 -339.516)" fill="#b1b3b3"/><path d="M555.706,346.973h2.2v3.016h.081a6.076,6.076,0,0,1,5.543-3.506c3.3,0,5.541,1.713,5.541,5.787v16.339h-2.445V352.962c0-2.973-1.222-4.44-3.71-4.44-2.85,0-4.767,2.2-4.767,5.541v14.546h-2.445Z" transform="translate(-491.649 -339.516)" fill="#b1b3b3"/><path d="M574.962,368.709h-.081a5.335,5.335,0,0,1-5.3,4.075c-4.766,0-6.925-3.831-6.925-11.328,0-7.458,2.158-11.288,6.925-11.288a4.81,4.81,0,0,1,5.053,3.75h.083V343.2h2.445v29.093h-2.2Zm-4.97,2.037c2.485,0,4.726-1.263,4.726-9.291,0-7.986-2.241-9.249-4.726-9.249-2.445,0-4.728,1.263-4.728,9.249C565.263,369.484,567.547,370.746,569.991,370.746Z" transform="translate(-483.848 -343.2)" fill="#b1b3b3"/><path d="M570.528,343.2h2.447v4.157h-2.447Zm0,7.457h2.447v21.636h-2.447Z" transform="translate(-475.016 -343.2)" fill="#b1b3b3"/><g transform="translate(99.632 1.014)"><path d="M575.419,343.678a2.951,2.951,0,1,1-2.95,2.95A2.949,2.949,0,0,1,575.419,343.678Zm0,5.059a2.109,2.109,0,1,0-2.058-2.109A2.063,2.063,0,0,0,575.419,348.737Zm-1.152-3.7h1.239c.828,0,1.227.359,1.227.987a.851.851,0,0,1-.789.883l.789,1.312h-.764l-.749-1.28h-.253v1.28h-.7Zm.7,1.343h.531c.312,0,.535-.055.535-.4s-.342-.391-.6-.391h-.46Z" transform="translate(-572.469 -343.678)" fill="#b1b3b3"/></g></g><g transform="translate(0 123.623)"><path d="M529.638,362.548c-.079,1.382-.6,2.651-2.156,2.651-2.018,0-2.286-1.955-2.286-3.8s.329-3.8,2.286-3.8c1.449,0,2.056.84,2.1,2.273h-.915c-.021-.83-.278-1.536-1.182-1.536-1.214,0-1.371,1.373-1.371,3.06s.157,3.062,1.371,3.062c1.063,0,1.212-1.025,1.241-1.914Z" transform="translate(-525.196 -357.603)" fill="#b1b3b3"/><path d="M527.854,360.262c0-1.248.516-1.8,1.789-1.8,1.619,0,1.619,1,1.619,1.575v3.06c0,.225,0,.441.259.441a.3.3,0,0,0,.2-.051v.613a2.905,2.905,0,0,1-.488.051c-.316,0-.715,0-.756-.707h-.019a1.5,1.5,0,0,1-1.284.79c-.991,0-1.45-.613-1.45-1.6a1.418,1.418,0,0,1,1-1.513l1.123-.35c.607-.193.607-.367.607-.828a.754.754,0,0,0-.855-.809c-.913,0-.913.881-.913,1.076v.049Zm2.574.84c-.308.337-1.044.41-1.422.645a.882.882,0,0,0-.407.87c0,.552.189.942.755.942a1.1,1.1,0,0,0,1.074-1.046Z" transform="translate(-522.358 -356.639)" fill="#b1b3b3"/><path d="M530.138,357.671h.834v7.307h-.834Z" transform="translate(-519.65 -357.527)" fill="#b1b3b3"/><path d="M531.28,357.671h.836v.98h-.836Zm0,1.821h.836v5.486h-.836Z" transform="translate(-518.368 -357.527)" fill="#b1b3b3"/><path d="M536.011,364.978h-.794V364.3H535.2a1.213,1.213,0,0,1-1.154.819c-1.263,0-1.738-1.157-1.738-2.888,0-1.144.178-2.884,1.679-2.884a1.289,1.289,0,0,1,1.174.766h.019v-2.445h.834Zm-1.857-.592c.925,0,1.074-.9,1.074-2.152,0-1.063-.178-2.148-1.074-2.148-.775,0-.974.838-.974,2.148S533.38,364.386,534.154,364.386Z" transform="translate(-517.217 -357.527)" fill="#b1b3b3"/><path d="M534.761,360.262c0-1.248.518-1.8,1.791-1.8,1.621,0,1.621,1,1.621,1.575v3.06c0,.225,0,.441.257.441a.293.293,0,0,0,.2-.051v.613a2.9,2.9,0,0,1-.486.051c-.318,0-.715,0-.755-.707h-.019a1.5,1.5,0,0,1-1.282.79c-1,0-1.452-.613-1.452-1.6a1.418,1.418,0,0,1,1-1.513l1.123-.35c.607-.193.607-.367.607-.828a.753.753,0,0,0-.855-.809c-.915,0-.915.881-.915,1.076v.049Zm2.576.84c-.308.337-1.044.41-1.422.645a.878.878,0,0,0-.407.87c0,.552.189.942.755.942a1.1,1.1,0,0,0,1.074-1.046Z" transform="translate(-514.605 -356.639)" fill="#b1b3b3"/><path d="M540.637,364.978h-.8V364.3h-.019a1.21,1.21,0,0,1-1.152.819c-1.263,0-1.74-1.157-1.74-2.888,0-1.144.178-2.884,1.681-2.884a1.288,1.288,0,0,1,1.172.766h.019v-2.445h.836Zm-1.859-.592c.925,0,1.074-.9,1.074-2.152,0-1.063-.178-2.148-1.074-2.148-.774,0-.974.838-.974,2.148S538,364.386,538.777,364.386Z" transform="translate(-512.029 -357.527)" fill="#b1b3b3"/><path d="M543.47,363.466h-.019a1.21,1.21,0,0,1-1.114.768c-1.382,0-1.74-1.494-1.74-2.99,0-1.626.48-2.782,1.74-2.782a1.215,1.215,0,0,1,1.154.817h.019V358.6h.8v7.288h-.836Zm-1.023-4.268c-.777,0-.974.838-.974,2.046,0,1.413.2,2.254.974,2.254.893,0,1.074-1.087,1.074-2.152C543.521,360.1,543.37,359.2,542.447,359.2Z" transform="translate(-507.914 -356.639)" fill="#b1b3b3"/><path d="M546.556,364.015h-.8v-.645h-.019a1.421,1.421,0,0,1-1.294.79c-1.4,0-1.4-1.1-1.4-1.74v-3.89h.836v3.788c0,.418.03,1.106.785,1.106a1.043,1.043,0,0,0,1.055-1.106v-3.788h.834Z" transform="translate(-505.164 -356.564)" fill="#b1b3b3"/><path d="M546.191,361.45c0,.84,0,2.109,1.025,2.109.8,0,.9-.862.9-1.269h.834a1.838,1.838,0,0,1-1.789,1.944c-1.3,0-1.846-.932-1.846-2.816,0-1.371.257-2.956,1.9-2.956s1.778,1.462,1.778,2.64v.348Zm1.929-.677v-.295c0-.615-.189-1.341-.925-1.341-.874,0-.974,1.106-.974,1.433v.2Z" transform="translate(-502.614 -356.639)" fill="#b1b3b3"/><path d="M551.425,360.213c0-.7-.178-1.076-.783-1.076a.776.776,0,0,0-.866.838c0,.645.656.768,1.311.993s1.3.46,1.3,1.545a1.58,1.58,0,0,1-1.717,1.721,1.669,1.669,0,0,1-1.831-1.944h.836c0,.664.18,1.269,1,1.269a.846.846,0,0,0,.883-.913c0-.736-.656-.889-1.3-1.114s-1.311-.42-1.311-1.558a1.512,1.512,0,0,1,1.7-1.513c1.549,0,1.609,1.106,1.619,1.751Z" transform="translate(-498.662 -356.639)" fill="#b1b3b3"/><path d="M551.865,361.45c0,.84,0,2.109,1.023,2.109.8,0,.9-.862.9-1.269h.836a1.838,1.838,0,0,1-1.791,1.944c-1.3,0-1.846-.932-1.846-2.816,0-1.371.259-2.956,1.9-2.956s1.778,1.462,1.778,2.64v.348Zm1.927-.677v-.295c0-.615-.189-1.341-.923-1.341-.876,0-.974,1.106-.974,1.433v.2Z" transform="translate(-496.248 -356.639)" fill="#b1b3b3"/><path d="M557.308,360.272c0-.531-.208-1.135-.845-1.135-.516,0-1.042.265-1.042,2.273,0,.715.011,2.15,1.012,2.15.717,0,.874-.779.874-1.373h.836a1.825,1.825,0,0,1-1.749,2.048c-1.3,0-1.851-.932-1.851-2.816,0-1.371.259-2.956,1.9-2.956a1.635,1.635,0,0,1,1.7,1.81Z" transform="translate(-492.26 -356.639)" fill="#b1b3b3"/><path d="M558.632,358.462c1.541,0,1.919,1.339,1.919,2.884s-.386,2.888-1.919,2.888-1.918-1.341-1.918-2.888S557.1,358.462,558.632,358.462Zm1.044,2.884c0-1.186-.17-2.209-1.063-2.209-.845,0-1.025,1.023-1.025,2.209s.17,2.213,1.025,2.213C559.5,363.56,559.677,362.535,559.677,361.346Z" transform="translate(-489.826 -356.639)" fill="#b1b3b3"/><path d="M559.1,358.6h.8v.645h.021a1.413,1.413,0,0,1,1.29-.787c1.4,0,1.4,1.1,1.4,1.74v3.888h-.836V360.3c0-.42-.03-1.106-.785-1.106a1.042,1.042,0,0,0-1.053,1.106v3.786H559.1Z" transform="translate(-487.145 -356.639)" fill="#b1b3b3"/><path d="M563.9,360.213c0-.7-.178-1.076-.785-1.076a.775.775,0,0,0-.864.838c0,.645.656.768,1.312.993s1.3.46,1.3,1.545a1.581,1.581,0,0,1-1.719,1.721,1.667,1.667,0,0,1-1.829-1.944h.834c0,.664.18,1.269,1,1.269a.848.848,0,0,0,.885-.913c0-.736-.658-.889-1.3-1.114s-1.314-.42-1.314-1.558a1.511,1.511,0,0,1,1.7-1.513c1.551,0,1.611,1.106,1.621,1.751Z" transform="translate(-484.658 -356.639)" fill="#b1b3b3"/><path d="M564.081,357.777h.834v1.6h.925v.675h-.925v3.523c0,.439.113.613.548.613a2.371,2.371,0,0,0,.367-.032v.707a3.333,3.333,0,0,1-.675.062c-.864,0-1.074-.367-1.074-1.084v-3.788H563.3v-.675h.777Z" transform="translate(-482.431 -357.408)" fill="#b1b3b3"/><path d="M564.953,358.6h.836v.819h.019c.24-.522.556-.961,1.152-.961a.851.851,0,0,1,.369.059v.84a2.24,2.24,0,0,0-.448-.04,1.2,1.2,0,0,0-1.093,1.3v3.47h-.836Z" transform="translate(-480.58 -356.639)" fill="#b1b3b3"/><path d="M570.035,364.015h-.794v-.645h-.021a1.416,1.416,0,0,1-1.292.79c-1.4,0-1.4-1.1-1.4-1.74v-3.89h.834v3.788c0,.418.032,1.106.785,1.106a1.043,1.043,0,0,0,1.055-1.106v-3.788h.834Z" transform="translate(-478.814 -356.564)" fill="#b1b3b3"/><path d="M568.673,358.529h.913l1.055,4.4h.019l.936-4.4h.913l-1.541,5.855c-.2.758-.416,1.432-1.42,1.432a5.641,5.641,0,0,1-.607-.032v-.675a2.892,2.892,0,0,0,.488.032.651.651,0,0,0,.654-.533l.161-.482Z" transform="translate(-476.405 -356.564)" fill="#b1b3b3"/><path d="M571.762,361.45c0,.84,0,2.109,1.023,2.109.8,0,.9-.862.9-1.269h.836a1.838,1.838,0,0,1-1.789,1.944c-1.3,0-1.848-.932-1.848-2.816,0-1.371.259-2.956,1.9-2.956s1.781,1.462,1.781,2.64v.348Zm1.927-.677v-.295c0-.615-.187-1.341-.923-1.341-.874,0-.974,1.106-.974,1.433v.2Z" transform="translate(-473.92 -356.639)" fill="#b1b3b3"/></g><g transform="translate(0.692)"><path d="M551.679,344.465a75.929,75.929,0,0,0-7.033,22.281l-.019.136-.355,2.065h35.2V318.9C567.555,322.749,558.219,331.333,551.679,344.465Z" transform="translate(-504.48 -277.414)" fill="#b1b3b3"/><path d="M525.522,346.6v22.336h32.236l.24-50.031C537.47,325.274,528.792,339.208,525.522,346.6Z" transform="translate(-525.522 -277.405)" fill="#b1b3b3"/><path d="M560.543,333.841l4.308-1.029-.172,35.157c.6-1.4,1.271-2.835,2-4.278,7.177-14.174,17.9-23.9,31.2-28.4-15.5-14.484-37.979-28.158-70.385-35.494l-1.976-.448v56.264C531.848,347.3,542.612,338.118,560.543,333.841Z" transform="translate(-525.522 -299.351)" fill="#b1b3b3"/><path d="M587.98,366.678l-.308-1.636c-.074-.382-4.4-21.748-23.608-44.121v45.757Z" transform="translate(-482.268 -275.145)" fill="#b1b3b3"/></g></svg>