<svg xmlns="http://www.w3.org/2000/svg" width="215.539" height="105.571" viewBox="0 0 215.539 105.571"><path d="M690.519,278.452a2.337,2.337,0,0,1-.711,1.8,2.746,2.746,0,0,1-1.942.658,2.778,2.778,0,0,1-1.488-.388,2.253,2.253,0,0,1-.923-1.076l.679-.584a1.641,1.641,0,0,0,.669.845,2,2,0,0,0,1.1.306,1.742,1.742,0,0,0,1.218-.4,1.576,1.576,0,0,0,.034-2.152,4.817,4.817,0,0,0-1.371-.908,4.963,4.963,0,0,1-1.585-1.1,2.034,2.034,0,0,1-.448-1.35,1.962,1.962,0,0,1,.645-1.532,2.735,2.735,0,0,1,2.84-.333,2.223,2.223,0,0,1,.828.76l-.649.6a1.317,1.317,0,0,0-.548-.528,1.7,1.7,0,0,0-.808-.189,1.458,1.458,0,0,0-.991.316,1.081,1.081,0,0,0-.361.855,1.242,1.242,0,0,0,.276.823,3.856,3.856,0,0,0,1.087.773l.049.023q2.4,1.286,2.4,2.77m-9.6-2a4.294,4.294,0,0,1-1.3,3.173,4.609,4.609,0,0,1-6.394,0,4.551,4.551,0,0,1-.011-6.352,4.658,4.658,0,0,1,6.413,0A4.294,4.294,0,0,1,680.922,276.453Zm-.955,0a3.47,3.47,0,0,0-1.017-2.534,3.417,3.417,0,0,0-2.523-1.027,3.335,3.335,0,0,0-2.566,1.044,3.557,3.557,0,0,0-.974,2.517,3.474,3.474,0,0,0,1.01,2.534,3.608,3.608,0,0,0,5.049,0A3.459,3.459,0,0,0,679.967,276.453ZM668.1,273.028h-2.027v7.716h-.955v-7.716h-2.027v-.864H668.1Zm-9.461,7.16a4.427,4.427,0,0,1-1.271.516,5.8,5.8,0,0,1-1.458.21,4.493,4.493,0,0,1-3.27-1.263,4.3,4.3,0,0,1-1.295-3.209,4.238,4.238,0,0,1,1.318-3.168,4.489,4.489,0,0,1,3.26-1.282,5.76,5.76,0,0,1,1.517.2,3.733,3.733,0,0,1,1.2.552v1.072a4.141,4.141,0,0,0-1.224-.675,4.089,4.089,0,0,0-1.378-.246,3.726,3.726,0,0,0-2.663,1.015,3.344,3.344,0,0,0-1.074,2.536A3.434,3.434,0,0,0,653.333,279a3.476,3.476,0,0,0,2.553,1.021,4.739,4.739,0,0,0,1.494-.246,3.894,3.894,0,0,0,1.259-.677Zm-12.058.556h-4.349v-8.58h4.349v.9h-3.393v2.606h3.393v.9h-3.393v3.277h3.393Zm-9.244-8.58-2.687,4.641v3.939h-.955v-3.939l-2.744-4.641h1.07l2.163,3.778,2.092-3.778Zm-10.115,4.289a4.294,4.294,0,0,1-1.3,3.173,4.609,4.609,0,0,1-6.394,0,4.551,4.551,0,0,1-.011-6.352,4.658,4.658,0,0,1,6.413,0A4.294,4.294,0,0,1,627.222,276.453Zm-.957,0a3.461,3.461,0,0,0-1.017-2.534,3.409,3.409,0,0,0-2.521-1.027,3.335,3.335,0,0,0-2.566,1.044,3.556,3.556,0,0,0-.974,2.517,3.475,3.475,0,0,0,1.01,2.534,3.608,3.608,0,0,0,5.049,0A3.457,3.457,0,0,0,626.265,276.453Zm-12.324,4.291H612.78l-2.629-4.051h-.282v4.051h-.957v-8.58H610.7a3.211,3.211,0,0,1,2.093.6,2.1,2.1,0,0,1,.721,1.715,2.068,2.068,0,0,1-.615,1.577,2.471,2.471,0,0,1-1.7.607Zm-1.388-6.235a1.278,1.278,0,0,0-.471-1.1,2.51,2.51,0,0,0-1.475-.348h-.739v2.812h.739a2.658,2.658,0,0,0,1.486-.323A1.185,1.185,0,0,0,612.553,274.509Zm-8.6.055a2.134,2.134,0,0,1-.773,1.781,3.586,3.586,0,0,1-2.26.609h-.393v3.79h-.957v-8.58h1.35a3.625,3.625,0,0,1,2.279.6A2.165,2.165,0,0,1,603.952,274.564Zm-.957,0a1.336,1.336,0,0,0-.478-1.146,2.688,2.688,0,0,0-1.568-.357h-.422v2.994h.422a2.741,2.741,0,0,0,1.585-.346A1.336,1.336,0,0,0,602.995,274.564Zm-15.617-2.4-2.687,4.641v3.939h-.955v-3.939l-2.742-4.641h1.067l2.163,3.778,2.092-3.778Zm-18.635,8.82L562.1,274.22v6.524h-.955v-8.82l6.645,6.747v-6.507h.957Zm-16.016-10.957-1.628,1.5-.339-.365,1.49-1.67Zm3.232,6.426a4.3,4.3,0,0,1-1.3,3.173,4.609,4.609,0,0,1-6.394,0,4.551,4.551,0,0,1-.011-6.352,4.66,4.66,0,0,1,6.416,0A4.3,4.3,0,0,1,555.958,276.453Zm-.955,0a3.47,3.47,0,0,0-1.017-2.534,3.414,3.414,0,0,0-2.523-1.027,3.342,3.342,0,0,0-2.566,1.044,3.557,3.557,0,0,0-.974,2.517,3.467,3.467,0,0,0,1.012,2.534,3.6,3.6,0,0,0,5.047,0A3.459,3.459,0,0,0,555,276.453Zm-13.147,4.291H540.9v-8.58h.957Zm-6.224-2.292a2.337,2.337,0,0,1-.711,1.8,2.742,2.742,0,0,1-1.942.658,2.782,2.782,0,0,1-1.488-.388,2.252,2.252,0,0,1-.923-1.076l.679-.584a1.639,1.639,0,0,0,.669.845,2,2,0,0,0,1.1.306,1.742,1.742,0,0,0,1.218-.4,1.57,1.57,0,0,0,.034-2.152,4.821,4.821,0,0,0-1.371-.908,4.963,4.963,0,0,1-1.585-1.1,2.035,2.035,0,0,1-.448-1.35,1.961,1.961,0,0,1,.645-1.532,2.735,2.735,0,0,1,2.84-.333,2.244,2.244,0,0,1,.83.76l-.652.6a1.315,1.315,0,0,0-.548-.528,1.7,1.7,0,0,0-.808-.189,1.459,1.459,0,0,0-.991.316,1.08,1.08,0,0,0-.359.855,1.251,1.251,0,0,0,.274.823,3.888,3.888,0,0,0,1.087.773l.051.023Q535.631,276.969,535.631,278.452Zm-9.416,2.292h-1.161l-2.629-4.051h-.284v4.051h-.955v-8.58h1.785a3.21,3.21,0,0,1,2.092.6,2.1,2.1,0,0,1,.72,1.715,2.067,2.067,0,0,1-.613,1.577,2.473,2.473,0,0,1-1.7.607Zm-1.388-6.235a1.273,1.273,0,0,0-.473-1.1,2.5,2.5,0,0,0-1.473-.348h-.741v2.812h.741a2.659,2.659,0,0,0,1.486-.323A1.191,1.191,0,0,0,524.827,274.509Zm-9.2,6.235h-4.348v-8.58h4.348v.9h-3.391v2.606h3.391v.9h-3.391v3.277h3.391Zm-9.007-8.58L503,280.971l-3.6-8.807h1.036l2.561,6.5,2.585-6.5Zm-11.931,8.82-6.647-6.763v6.524h-.955v-8.82l6.645,6.747v-6.507h.957Zm-13.249-.24h-.957v-8.58h.957Z" transform="translate(-477.731 -175.413)" fill="#b2b4b3"/><path d="M529.309,233l10.965-7.725s57.444-4.185,92.3,37.671c0,0-34.635-32.381-92.3-29.416l-10.25,6.98-.717.524Z" transform="translate(-422.935 -225.16)" fill="#b2b4b3" fill-rule="evenodd"/><path d="M516.9,249.832a7.676,7.676,0,0,0-6.413,2.833c-1.479,1.9-2.224,4.641-2.224,8.258v.216h-7.513V241.865h53.571v19.274H546.88v-.216q0-5.386-2.239-8.232a7.726,7.726,0,0,0-6.475-2.859h-2.213V277.27c-.026,4.66.477,8.9,3.845,12.241a13.747,13.747,0,0,0,5.291,3.268h-34.1v-7.207h3.945a6.224,6.224,0,0,0,3.364-.607c.543-.418.809-1.67.809-3.769V249.832Z" transform="translate(-454.99 -206.414)" fill="#b2b4b3"/><path d="M504.388,241.865l18.731,34.3v-22.75c0-2.05-.265-3.289-.8-3.705a6.019,6.019,0,0,0-3.376-.632h-2.882v-7.209h22.383v7.209h-1.808c-1.783,0-2.92.227-3.427.683s-.758,1.681-.758,3.654v39.367H514.987L495.2,256.294v24.9c0,1.974.253,3.2.76,3.667s1.655.709,3.427.709h2.262v7.207H479.185v-7.207h2.492c1.8,0,2.958-.242,3.478-.722s.783-1.694.783-3.654V253.412c0-1.935-.253-3.137-.758-3.618s-1.683-.719-3.5-.719h-2.492v-7.209Z" transform="translate(-479.185 -206.414)" fill="#b2b4b3"/><path d="M539.5,270.706h-4.16v-6.241h14.671c.025.545.042.949.055,1.214s.019.5.019.713a18.579,18.579,0,0,1-.439,4.172,11.868,11.868,0,0,1-1.269,3.336,14.064,14.064,0,0,1-5.238,5.212,14.568,14.568,0,0,1-7.286,1.808,15.188,15.188,0,0,1-5.6-1.01,13.4,13.4,0,0,1-4.582-2.965,13.172,13.172,0,0,1-2.99-4.476,15.281,15.281,0,0,1,.013-10.982,12.983,12.983,0,0,1,2.984-4.45,13.455,13.455,0,0,1,4.569-2.958,15.282,15.282,0,0,1,5.609-1.017,14.516,14.516,0,0,1,7.256,1.789,13.832,13.832,0,0,1,5.187,5.238L539.8,263.24a4.59,4.59,0,0,0-1.615-1.647,4.234,4.234,0,0,0-2.16-.545,4.087,4.087,0,0,0-3.387,1.611,6.839,6.839,0,0,0-1.263,4.334,6.691,6.691,0,0,0,1.269,4.357,4.391,4.391,0,0,0,3.6,1.547,3.915,3.915,0,0,0,2.241-.581,2.3,2.3,0,0,0,1.027-1.609" transform="translate(-431.501 -193.848)" fill="#b2b4b3"/><path d="M535.925,279.9V253.342h12q5.221,0,7.973,2.3a8.165,8.165,0,0,1,2.757,6.643,7.511,7.511,0,0,1-1.388,4.662,5.36,5.36,0,0,1-3.745,2.141l7.1,10.808h-10.7l-4.637-8.758V279.9Zm9.361-19.722v5.2h1.486a3.033,3.033,0,0,0,2.092-.662,2.441,2.441,0,0,0,.73-1.9,2.543,2.543,0,0,0-.73-1.955,2.977,2.977,0,0,0-2.092-.681Z" transform="translate(-415.511 -193.534)" fill="#b2b4b3"/><path d="M575.712,266.992a14.153,14.153,0,0,1-1.033,5.429,13.465,13.465,0,0,1-3.026,4.493,13.924,13.924,0,0,1-4.6,2.973,15.433,15.433,0,0,1-11.105,0,13.811,13.811,0,0,1-4.605-3.009,12.859,12.859,0,0,1-2.99-4.427,14.438,14.438,0,0,1-1.014-5.458,14.588,14.588,0,0,1,1.014-5.48,12.787,12.787,0,0,1,2.99-4.444,13.61,13.61,0,0,1,4.586-2.98,15.712,15.712,0,0,1,11.176,0,13.8,13.8,0,0,1,4.605,2.98,13.222,13.222,0,0,1,2.977,4.463,14.3,14.3,0,0,1,1.027,5.46M561.519,272a4.143,4.143,0,0,0,3.237-1.367A5.259,5.259,0,0,0,565.982,267a5.343,5.343,0,0,0-1.227-3.669,4.48,4.48,0,0,0-6.494.011A5.312,5.312,0,0,0,557.03,267a5.231,5.231,0,0,0,1.231,3.642A4.187,4.187,0,0,0,561.519,272Z" transform="translate(-402.705 -193.848)" fill="#b2b4b3"/><path d="M561.239,267.748V253.342h9.546v14.48a7.006,7.006,0,0,0,.6,3.472,2.648,2.648,0,0,0,4.092-.023,6.862,6.862,0,0,0,.62-3.449v-14.48h9.546v14.406a24.018,24.018,0,0,1-.371,4.66,8.612,8.612,0,0,1-1.189,3.065,10.359,10.359,0,0,1-4.353,3.807,15.65,15.65,0,0,1-12.61,0,10.371,10.371,0,0,1-4.357-3.807,8.516,8.516,0,0,1-1.159-3.026,24.7,24.7,0,0,1-.365-4.7" transform="translate(-387.103 -193.534)" fill="#b2b4b3"/><path d="M579.5,260.734v4.421h1.492a3.351,3.351,0,0,0,2.093-.571,1.946,1.946,0,0,0,.724-1.621,1.979,1.979,0,0,0-.743-1.641,3.287,3.287,0,0,0-2.073-.588ZM569.914,279.9V253.342h11.4q6.016,0,8.8,2.322t2.784,7.366q0,4.7-2.5,6.865c-1.672,1.443-4.315,2.167-7.943,2.167h-3V279.9Z" transform="translate(-377.367 -193.534)" fill="#b2b4b3"/><path d="M529.309,241.854l10.965-7.725s53.856-6.356,93.093,29.119c0,0-35.43-23.826-93.091-20.864l-10.25,6.982-.717.522Z" transform="translate(-422.935 -215.592)" fill="#b2b4b3" fill-rule="evenodd"/><path d="M529.309,249.966l10.965-7.725c17.642-.331,57.733-2.025,93.333,21.982,0,0-35.67-16.689-93.331-13.726l-10.25,6.982-.717.522Z" transform="translate(-422.935 -206.164)" fill="#b2b4b3" fill-rule="evenodd"/></svg>