<svg xmlns="http://www.w3.org/2000/svg" width="146.029" height="145.767" viewBox="0 0 146.029 145.767"><g transform="translate(0.298 0.365)"><path d="M496.5,176.792V258.38c0,5.531,5.437,6.971,5.437,6.971l63.54,19.552a13.268,13.268,0,0,0,7.493,0l63.657-19.591s5.306-1.4,5.306-6.932V167.468c0-5.534-5.437-6.971-5.437-6.971l-63.54-19.552a13.268,13.268,0,0,0-7.493,0L501.8,160.536s-5.306,1.4-5.306,6.932Z" transform="translate(-496.496 -140.406)" fill="#b1b3b3"/><path d="M496.5,176.792V258.38c0,5.531,5.437,6.971,5.437,6.971l63.54,19.552a13.268,13.268,0,0,0,7.493,0l63.657-19.591s5.306-1.4,5.306-6.932V167.468c0-5.534-5.437-6.971-5.437-6.971l-63.54-19.552a13.268,13.268,0,0,0-7.493,0L501.8,160.536s-5.306,1.4-5.306,6.932Z" transform="translate(-496.496 -140.406)" fill="none" stroke="#b1b3b3" stroke-miterlimit="10" stroke-width="0.595"/><g transform="translate(5.175 5.159)"><path d="M566.3,143.61a10.969,10.969,0,0,1,3.176.458l59.055,18.17c.044.012,4.335,1.2,4.335,5.548v84.442a5.8,5.8,0,0,1-4.25,5.525l-59.156,18.207a11.456,11.456,0,0,1-6.364-.009l-59.052-18.175c-.177-.048-4.338-1.23-4.338-5.548V167.786a5.8,5.8,0,0,1,4.248-5.522l59.16-18.2a10.865,10.865,0,0,1,3.186-.448m0-.961a11.65,11.65,0,0,0-3.5.5l-59.131,18.2s-4.927,1.3-4.927,6.44v84.442c0,5.14,5.048,6.474,5.048,6.474l59.018,18.165a12.055,12.055,0,0,0,3.462.5,11.724,11.724,0,0,0,3.5-.5l59.126-18.2s4.929-1.3,4.929-6.44V167.786c0-5.138-5.051-6.475-5.051-6.475L569.761,143.15a11.981,11.981,0,0,0-3.459-.5Z" transform="translate(-498.746 -142.649)" fill="#fff"/></g><g transform="translate(18.671 30.156)"><g transform="translate(51.973 26.57)"><path d="M529.935,172.935h0l-.12-.007a2.386,2.386,0,0,1-.538-.057,2.209,2.209,0,0,1-1.477-1.332,6.7,6.7,0,0,1-.377-.964,6.356,6.356,0,0,1-.2-2.153c0-.161.007-.322.007-.485a2.332,2.332,0,0,1,.051-.513,2.637,2.637,0,0,1,.253-.651,1.554,1.554,0,0,0,.161-.8.325.325,0,0,1,.106-.239.332.332,0,0,1,.25-.078l.136.009a3.356,3.356,0,0,0,1.194-.283.6.6,0,0,0,.244-.182.327.327,0,0,1,.26-.129h0a.314.314,0,0,1,.258.133.659.659,0,0,0,.244.184,3.431,3.431,0,0,0,1.2.288l.113,0a.327.327,0,0,1,.26.078.332.332,0,0,1,.117.235,1.55,1.55,0,0,0,.152.8,2.523,2.523,0,0,1,.251.653,2.434,2.434,0,0,1,.053.513c0,.163,0,.32,0,.478a6.5,6.5,0,0,1-.216,2.157,7.1,7.1,0,0,1-.386.961,2.218,2.218,0,0,1-1.481,1.323A2.629,2.629,0,0,1,529.935,172.935Zm-.081-.646.044,0h.037a2.313,2.313,0,0,0,.366-.044,1.647,1.647,0,0,0,1.042-.987,6.228,6.228,0,0,0,.347-.867,5.859,5.859,0,0,0,.186-1.95c0-.163,0-.327,0-.492a1.927,1.927,0,0,0-.032-.375,2.053,2.053,0,0,0-.2-.5,1.946,1.946,0,0,1-.212-.768,4.1,4.1,0,0,1-1.325-.345,1.409,1.409,0,0,1-.228-.129,1.836,1.836,0,0,1-.232.129,4.131,4.131,0,0,1-1.327.336,1.936,1.936,0,0,1-.216.766,1.924,1.924,0,0,0-.2.5,1.638,1.638,0,0,0-.035.373c0,.166-.007.336-.007.495a5.874,5.874,0,0,0,.172,1.946,6.871,6.871,0,0,0,.34.879,1.654,1.654,0,0,0,1.04.989,2.3,2.3,0,0,0,.366.046Z" transform="translate(-527.211 -165.069)" fill="#fff"/></g><g transform="translate(75.807 11.268)"><path d="M554.855,163.175c0,.092.041.161.025.17.094.074.06.092.069.12l.126.34c.032.092.051.161.076.232l.076.267c.025.108.051.214.074.322s.051.232.069.35.039.255.055.386.028.278.042.419.009.3.009.444a4.476,4.476,0,0,1-.016.465c-.009.166-.027.327-.051.485s-.053.336-.092.5-.085.343-.136.511-.122.35-.193.52-.156.343-.246.511-.2.352-.315.513a29.539,29.539,0,0,1-3.234,4.963,3.8,3.8,0,0,0-1.06,1.709,5.688,5.688,0,0,1-2.18,3.289,18.153,18.153,0,0,0-1.658,1.281,3.682,3.682,0,0,1-2.512,1.279,2.512,2.512,0,0,1-1.185-.3c-.067.007-.163.011-.278.011a2.459,2.459,0,0,1-2.489-1.937h0s-.667-1.619-1.546-3.409a4.775,4.775,0,0,1-.29-3.954h0a3.485,3.485,0,0,0-.366-1.96l-.025-.11a26.3,26.3,0,0,1,.191-4.692c.037-.258.053-.518.074-.777.027-.343.055-.7.117-1.053a13.656,13.656,0,0,1,.492-1.9,4.418,4.418,0,0,1,.271-.607c.051-.1.1-.2.152-.31a.814.814,0,0,0,.048-.143,2.03,2.03,0,0,1,.3-.474,6.179,6.179,0,0,1,.906-.913s1.438-1.78,5.453-1.184c0,0,1.125.242,2.261.527a23.526,23.526,0,0,1,2.367.54,8.486,8.486,0,0,1,2.551,1.028,4.627,4.627,0,0,1,2.042,2.408m-3.537-2.351a15.232,15.232,0,0,0-2.367-.656c-1.168-.2-3.218-.626-3.218-.626a6.982,6.982,0,0,0-3.075-.115,4.033,4.033,0,0,0-2.268,1.113c-.237.064-.568.616-.713.731-.046.032-.051.048-.081.152a1.44,1.44,0,0,1-.083.225c-.057.124-.11.235-.163.338a3.7,3.7,0,0,0-.232.524,12.147,12.147,0,0,0-.467,1.8,8.373,8.373,0,0,0-.11.989c-.023.276-.041.545-.078.814a25.283,25.283,0,0,0-.188,4.51,3.907,3.907,0,0,1,.368,2.348,4.117,4.117,0,0,0,.228,3.448c.915,1.865,1.592,3.51,1.6,3.526a1.827,1.827,0,0,0,1.879,1.5,1.7,1.7,0,0,0,.285-.021l.115-.018.1.06a1.911,1.911,0,0,0,.959.269,3.133,3.133,0,0,0,2.056-1.09,18.407,18.407,0,0,1,1.764-1.371,5.09,5.09,0,0,0,1.9-2.893,4.364,4.364,0,0,1,1.242-2.022,29.239,29.239,0,0,0,3.089-4.773l.055-.087c.1-.152.2-.306.283-.462a4.453,4.453,0,0,0,.221-.46q.1-.228.172-.462c.048-.147.087-.3.124-.453s.058-.3.081-.449.034-.294.046-.439.018-.281.018-.419-.009-.274-.016-.407-.018-.253-.032-.379-.032-.239-.055-.359-.039-.216-.058-.324-.048-.191-.073-.288-.044-.168-.071-.248l-.2-.527C553.932,161.625,551.29,160.691,551.29,160.691Z" transform="translate(-537.573 -158.416)" fill="#fff"/></g><g transform="translate(78.904 30.192)"><path d="M541.563,170.069a1,1,0,0,1-.55-.115.17.17,0,0,1-.046-.037c-.032-.039-.12-.016-.12-.016-.1.051-.5-.092-.642-.14-1.835-.738-1.171-2.981-1.164-3a.161.161,0,0,1,.308.092c-.025.081-.584,1.98.968,2.606a3.169,3.169,0,0,0,.426.138.453.453,0,0,1,.444.09.713.713,0,0,0,.52.048,2.116,2.116,0,0,0,1.849-1.815.158.158,0,0,1,.187-.126.161.161,0,0,1,.131.184,2.462,2.462,0,0,1-2.125,2.072A.724.724,0,0,1,541.563,170.069Z" transform="translate(-538.919 -166.644)" fill="#fff"/></g><g transform="translate(77.405 26.65)"><path d="M545.391,170.594a1.016,1.016,0,0,1-.7-.3,3.111,3.111,0,0,1-.543-.973c-.168-.359-.727-1.481-.727-1.481a.792.792,0,0,0-.483-.46.9.9,0,0,0-.637.129.159.159,0,0,1-.053.025,6.4,6.4,0,0,0-1.518.925c-.738.812-1.27.49-1.378.407a1.334,1.334,0,0,1-.69-.973c-.032-.154-.055-.329-.076-.5-.039-.329-.071-.688-.1-1.134-.007-.108-.014-.216-.023-.322l-.039,0a.16.16,0,0,1-.156-.166c0-.085.028-.267.037-.368l0-.053c.016-.177.106-.23.177-.244a.233.233,0,0,1,.223.09.259.259,0,0,1,.044.115.429.429,0,0,1,.011.113l-.142.053v0l.142-.007c0,.03,0,.062,0,.092.014.214.025.442.044.669.03.439.06.794.1,1.118.021.166.039.329.074.49a1,1,0,0,0,.529.741.084.084,0,0,1,.035.028c.016.009.361.283.971-.389a7.127,7.127,0,0,1,1.633-.994,1.153,1.153,0,0,1,.869-.159,1.085,1.085,0,0,1,.7.626s.557,1.132.734,1.5a2.938,2.938,0,0,0,.481.874.674.674,0,0,0,.5.2,1.145,1.145,0,0,0,.777-.55,18.532,18.532,0,0,0,1.067-1.838c.113-.2.237-.373.4-.306s.108.283,0,.609a.154.154,0,0,1-.2.106.088.088,0,0,1-.039-.018,18.87,18.87,0,0,1-.964,1.633,1.426,1.426,0,0,1-1.028.683Z" transform="translate(-538.268 -165.104)" fill="#fff"/></g><g transform="translate(80.065 23.423)"><g transform="translate(0.085 0.087)"><path d="M540.861,165.041c.281-.34.7.106.7.106.455,1.042-.543,1.145-.543,1.145a1.353,1.353,0,0,1-1.161-.471c-.607-.283-.333.248-.333.248a3.4,3.4,0,0,0,1.987,1.879l.761-2.447-.506,2.491a2.349,2.349,0,0,0,2.473-.738c.308-.527-.5-.327-.5-.327-.883.039-1.1-.43-1.1-.43a.744.744,0,0,1,.4-.966c.715-.225.57.317.57.317a.554.554,0,0,0,.313.761c.911.239.874-.741.874-.741a1.816,1.816,0,0,0-1.09-1.594,6.7,6.7,0,0,0-2.194-.522,1.952,1.952,0,0,0-1.592.8.88.88,0,0,0-.094.922.61.61,0,0,0,.828,0A1.8,1.8,0,0,0,540.861,165.041Z" transform="translate(-539.461 -163.739)" fill="#fff"/></g><path d="M542.48,168.193a3.189,3.189,0,0,1-.681-.071l-.087-.018.188-.925-.287.925-.08-.025a3.444,3.444,0,0,1-2.04-1.923c-.018-.037-.117-.239-.037-.366a.179.179,0,0,1,.175-.09.8.8,0,0,1,.308.092l.025.009.014.023a1.278,1.278,0,0,0,1.09.432.758.758,0,0,0,.506-.3.791.791,0,0,0-.037-.711.654.654,0,0,0-.377-.2.238.238,0,0,0-.179.085,1.892,1.892,0,0,1-.216.442.61.61,0,0,1-.444.2h0a.836.836,0,0,1-.5-.189l-.018-.021a.952.952,0,0,1,.1-1.019,2.155,2.155,0,0,1,1.481-.844,1.278,1.278,0,0,1,.191.016,6.765,6.765,0,0,1,2.215.529,1.912,1.912,0,0,1,1.141,1.677,1.056,1.056,0,0,1-.23.674.724.724,0,0,1-.75.145.638.638,0,0,1-.373-.867.27.27,0,0,0-.028-.2c-.057-.078-.214-.083-.439-.012a.66.66,0,0,0-.34.853c.007.012.193.382.922.382h.1a1.188,1.188,0,0,1,.3-.041.352.352,0,0,1,.329.133.372.372,0,0,1-.053.356A2.276,2.276,0,0,1,542.48,168.193Zm-.566-.221a3.726,3.726,0,0,0,.566.053,2.152,2.152,0,0,0,1.736-.77c.069-.124.053-.17.048-.182s-.039-.046-.179-.046a1.427,1.427,0,0,0-.276.034c-.051,0-.085,0-.12,0-.846,0-1.069-.467-1.079-.485a.834.834,0,0,1,.439-1.076c.329-.106.525-.076.633.064a.469.469,0,0,1,.058.354c-.157.511.212.644.253.658a.577.577,0,0,0,.58-.1.872.872,0,0,0,.182-.561,1.737,1.737,0,0,0-1.035-1.518,6.767,6.767,0,0,0-2.162-.517.964.964,0,0,0-.177-.012,2.015,2.015,0,0,0-1.343.775.784.784,0,0,0-.1.816.7.7,0,0,0,.382.14h0a.43.43,0,0,0,.32-.147h0a2.143,2.143,0,0,0,.186-.4l.018-.025a.41.41,0,0,1,.315-.154.856.856,0,0,1,.511.26l.016.028a.958.958,0,0,1,.037.876.915.915,0,0,1-.649.386,1.486,1.486,0,0,1-1.226-.49c-.191-.083-.246-.062-.251-.062a.341.341,0,0,0,.051.207,3.357,3.357,0,0,0,1.852,1.808l.734-2.364.168.044Z" transform="translate(-539.424 -163.701)" fill="#fff"/></g><g transform="translate(78.715 16.836)"><path d="M539,168.613l-.016,0a.159.159,0,0,1-.143-.177,7.256,7.256,0,0,1,2.817-4.883,5.032,5.032,0,0,0,2.091-2.6.164.164,0,0,1,.2-.113.161.161,0,0,1,.115.2,5.292,5.292,0,0,1-2.224,2.781,7.067,7.067,0,0,0-2.677,4.653A.161.161,0,0,1,539,168.613Z" transform="translate(-538.837 -160.837)" fill="#fff"/></g><g transform="translate(86.033 17.328)"><path d="M543,170.263a.161.161,0,0,1-.143-.237c1.267-2.364-.1-5.145-.117-5.173a6.859,6.859,0,0,1-.688-3.662.161.161,0,0,1,.184-.138.159.159,0,0,1,.138.182,6.562,6.562,0,0,0,.656,3.478c.055.115,1.458,2.951.113,5.467A.159.159,0,0,1,543,170.263Z" transform="translate(-542.019 -161.051)" fill="#fff"/></g><g transform="translate(79.878 28.697)"><path d="M539.952,167.675c.127.034.26.071.386.1.08.021.269.032.3.133.009.032-.023.1-.03.133-.007.067-.021.138-.032.209-.016.106-.039.265.06.334.179.126.338-.108.379-.248.028-.094.041-.366.108-.428.025-.028.152,0,.2,0a2.814,2.814,0,0,1,.336.071,4.884,4.884,0,0,1,.49.1,1.721,1.721,0,0,0,.451.1c.1,0,.262-.016.239-.154a.392.392,0,0,0-.044-.087c-.021-.055-.007-.076-.021-.124-.021-.087-.046-.17-.074-.258-.018-.053-.014-.12-.035-.17-.023-.071-.09-.126-.113-.2a1.36,1.36,0,0,0-.184-.437,2.4,2.4,0,0,0-.29-.3,3.115,3.115,0,0,0-.285-.228A.882.882,0,0,0,541.2,166a1.4,1.4,0,0,0-.7.347c-.039.037-.055.076-.094.106s-.113.057-.156.092a4.57,4.57,0,0,1-.432.276c-.159.092-.529.212-.469.465C539.4,167.5,539.757,167.625,539.952,167.675Z" transform="translate(-539.343 -165.994)" fill="#fff"/></g><g transform="translate(69.811 12.088)"><path d="M538.682,174.193h0c-1.171,0-1.509-1.4-1.525-2.222v-.035a3.515,3.515,0,0,0-.244-1.507c-.384-.761-1.313-3.077-1.424-3.356a3.738,3.738,0,0,1,.55-4.538c2.615-2.558,7.675-3.705,7.891-3.754a.429.429,0,0,1,.352.759c-1.615,1.228-2.213,3.968-2.433,6.049a26.079,26.079,0,0,0-.076,4.342c0,.03,0,.062,0,.09a5.979,5.979,0,0,1-1.5,3.445l-.025.023A2.6,2.6,0,0,1,538.682,174.193Zm-.667-2.229c0,.136.088,1.375.667,1.375h0a1.8,1.8,0,0,0,1.014-.5,5.315,5.315,0,0,0,1.217-2.884c-.048-.66-.442-6.721,1.776-9.947a16.129,16.129,0,0,0-6.058,3.144,2.888,2.888,0,0,0-.379,3.533.212.212,0,0,1,.021.046c.014.028,1.023,2.558,1.41,3.33A4.272,4.272,0,0,1,538.015,171.964Z" transform="translate(-534.966 -158.773)" fill="#fff"/></g><g transform="translate(90.568 15.035)"><path d="M545.847,176.391a1.519,1.519,0,0,1-1.051-.419,2.239,2.239,0,0,1-.794-2.006c.014-.138.025-.274.032-.409a7.656,7.656,0,0,1,.083-.814,5.693,5.693,0,0,1,.182-.674c.046-.15.092-.292.129-.444.053-.212.124-.414.2-.621a4.994,4.994,0,0,0,.177-.552.775.775,0,0,0,.011-.338,1.357,1.357,0,0,1,.028-.6,13.575,13.575,0,0,1,.7-1.826c.09-.212.182-.419.269-.63.071-.175.161-.363.253-.561a6.473,6.473,0,0,0,.575-1.559,7.109,7.109,0,0,0,.016-1.911l-.03-.308a3.8,3.8,0,0,0-.214-1.139l-.069-.179c-.055-.138-.106-.283-.17-.409a.805.805,0,0,0-.288-.338l-.12-.1.4-.5.317.262c.244.223.481.423.725.626a7.777,7.777,0,0,1,2.123,2.364c.225.435.421.892.623,1.352.106.253.212.5.327.752a7.415,7.415,0,0,1,.628,2.433,9.964,9.964,0,0,1-.037,1.6c-.023.292-.044.589-.053.879a3.1,3.1,0,0,1-.775,2.4,3.585,3.585,0,0,1-.681.472c-.083.048-.166.1-.246.147-.283.182-.55.386-.823.591l-.451.338a1.741,1.741,0,0,0-.584.573,8.515,8.515,0,0,1-.614.869.915.915,0,0,0-.1.147.951.951,0,0,1-.619.52Zm1.286-14.674a6.307,6.307,0,0,1,.138.943l.03.3a7.955,7.955,0,0,1-.021,2.077,6.893,6.893,0,0,1-.63,1.732c-.09.191-.172.373-.244.54-.088.216-.182.426-.276.642a12.609,12.609,0,0,0-.665,1.739.72.72,0,0,0-.014.34,1.42,1.42,0,0,1-.021.582c-.055.207-.126.409-.2.609-.064.184-.131.366-.179.559-.041.163-.09.32-.138.481a4.557,4.557,0,0,0-.166.593,6.852,6.852,0,0,0-.071.743c-.009.14-.018.283-.034.426a1.6,1.6,0,0,0,.545,1.435c.17.131.4.31.591.29l.032.32-.007-.324c.06-.009.106-.076.2-.221a2.075,2.075,0,0,1,.138-.209,7.241,7.241,0,0,0,.57-.8,2.364,2.364,0,0,1,.761-.771l.439-.324c.285-.216.566-.432.869-.626.085-.051.172-.1.262-.154a3.408,3.408,0,0,0,.566-.391,2.5,2.5,0,0,0,.575-1.943c.009-.3.03-.607.051-.909a9.735,9.735,0,0,0,.039-1.5,6.794,6.794,0,0,0-.573-2.213c-.115-.258-.225-.513-.336-.766-.193-.451-.384-.892-.6-1.318A6.382,6.382,0,0,0,547.133,161.717Z" transform="translate(-543.991 -160.054)" fill="#fff"/></g><g transform="translate(79.238 17.217)"><path d="M540.735,161.146a1.084,1.084,0,0,0-1.327.2,4.841,4.841,0,0,0-.334.4s-.076.1.212.212a.542.542,0,0,1,.2.283s.2.416.938.269a2.194,2.194,0,0,1,.409.012.254.254,0,0,0,.244-.051S541.381,161.548,540.735,161.146Zm-.522.414a.073.073,0,0,1-.094.041.11.11,0,0,0-.136.064.067.067,0,0,1-.064.046l-.021,0a.075.075,0,0,1-.046-.092.254.254,0,0,1,.32-.147A.071.071,0,0,1,540.213,161.56Z" transform="translate(-539.065 -161.003)" fill="#fff"/><g transform="translate(8.507 1.949)"><path d="M544.86,162.924a1.092,1.092,0,0,0-.354-.787.912.912,0,0,0-1.04-.209,1.4,1.4,0,0,0-.632.66c-.223.294.161.4.161.4.241.138.338.2.338.2a1.349,1.349,0,0,0,.869.285,1.617,1.617,0,0,0,.4-.1s.212.046.253-.113A1.254,1.254,0,0,0,544.86,162.924Zm-.614-.145h0a.069.069,0,0,1-.071-.071.1.1,0,0,0-.1-.1h0a.068.068,0,0,1-.069-.069.071.071,0,0,1,.064-.074h.009a.248.248,0,0,1,.244.242A.069.069,0,0,1,544.246,162.779Z" transform="translate(-542.764 -161.85)" fill="#fff"/></g></g><g transform="translate(78.399 15.961)"><g transform="translate(0 0.071)"><path d="M538.822,162.117a.14.14,0,0,1-.09-.037.12.12,0,0,1,.007-.17c.3-.292.95-1.035.955-1.04a1.2,1.2,0,0,1,.9-.382c1.277.253,1.244.863,1.244.888a.127.127,0,0,1-.129.113.124.124,0,0,1-.11-.129c0-.014-.021-.428-1.042-.63h0a.914.914,0,0,0-.678.3c-.025.025-.662.754-.971,1.049A.127.127,0,0,1,538.822,162.117Z" transform="translate(-538.7 -160.488)" fill="#fff"/></g><g transform="translate(9.895 2.186)"><path d="M545.313,163.891h-.018a.125.125,0,0,1-.1-.136c0-.014-.021-.057-.032-.085s-.034-.081-.046-.11a1.314,1.314,0,0,1-.048-.294l0-.039a1.76,1.76,0,0,0-.007-.191c0-.044,0-.083,0-.124a.706.706,0,0,0,0-.14l-.021-.1a1.186,1.186,0,0,0-.244-.662,1.266,1.266,0,0,0-.432-.253,1.934,1.934,0,0,0-.393-.1.233.233,0,0,0-.067,0,.784.784,0,0,1-.106.009l-.074-.007a.276.276,0,0,0-.087,0l-.044.007c-.333.064-.49.071-.559-.032a.122.122,0,0,1,.172-.166,1.322,1.322,0,0,0,.343-.039l.044-.009a.506.506,0,0,1,.156,0l.064,0,.058,0a.458.458,0,0,1,.129-.007,1.781,1.781,0,0,1,.448.122,1.328,1.328,0,0,1,.522.306,1.438,1.438,0,0,1,.308.787l.016.1a.8.8,0,0,1,.011.193.737.737,0,0,0,0,.1c.007.067.007.133.011.2v.039a.9.9,0,0,0,.041.228.422.422,0,0,0,.032.083.386.386,0,0,1,.051.221A.115.115,0,0,1,545.313,163.891Z" transform="translate(-543.002 -161.407)" fill="#fff"/></g><g transform="translate(1.68)"><path d="M540.779,161.545a.158.158,0,0,1-.069-.016.12.12,0,0,1-.053-.163.137.137,0,0,1,.081-.06,1.71,1.71,0,0,0,.08-.391.163.163,0,0,0-.156-.212.9.9,0,0,0-.285.025,1.353,1.353,0,0,1-.276.037h-.262a.962.962,0,0,1-.143-.018.385.385,0,0,0-.129-.014.119.119,0,0,1-.136-.1.12.12,0,0,1,.106-.136.557.557,0,0,1,.2.014,1.053,1.053,0,0,0,.191.014h.172a1.4,1.4,0,0,0,.23-.03,1.162,1.162,0,0,1,.368-.03.405.405,0,0,1,.361.485c-.06.506-.161.559-.2.582A.166.166,0,0,1,540.779,161.545Z" transform="translate(-539.431 -160.457)" fill="#fff"/></g><g transform="translate(9.863 1.64)"><path d="M544.74,162.171a.082.082,0,0,1-.055-.016c-.083-.039-.159-.074-.237-.108a1.639,1.639,0,0,1-.681-.458c-.136-.152-.221-.175-.258-.179a.133.133,0,0,0-.087.041.446.446,0,0,0-.088.184.689.689,0,0,1-.14.274.122.122,0,0,1-.17,0,.118.118,0,0,1,0-.17.54.54,0,0,0,.08-.182.606.606,0,0,1,.152-.285.322.322,0,0,1,.26-.106.646.646,0,0,1,.435.258,1.368,1.368,0,0,0,.593.4,2.378,2.378,0,0,1,.253.115.121.121,0,0,1-.058.228Z" transform="translate(-542.988 -161.17)" fill="#fff"/></g></g><g transform="translate(78.884 18.203)"><path d="M541.3,162.67a.274.274,0,0,1-.161-.071c-.025-.021-.053-.046-.076-.067a.336.336,0,0,0-.131-.094.885.885,0,0,0-.3,0,1.386,1.386,0,0,1-.527-.021l-.083-.023a1.5,1.5,0,0,1-.628-.271,1.351,1.351,0,0,1-.223-.223.913.913,0,0,1-.067-.1.473.473,0,0,0-.09-.127.115.115,0,0,1-.1-.136.127.127,0,0,1,.14-.1c.129.023.2.147.26.248.018.025.028.051.044.071a1.6,1.6,0,0,0,.189.189,1.362,1.362,0,0,0,.536.221l.083.025a1.19,1.19,0,0,0,.412.018,1.046,1.046,0,0,1,.423,0,.568.568,0,0,1,.228.147.706.706,0,0,1,.062.055l.009.009.014-.014a.1.1,0,0,1,.041-.152.126.126,0,0,1,.168.055.258.258,0,0,1-.223.361Z" transform="translate(-538.911 -161.431)" fill="#fff"/></g><g transform="translate(87.421 20.377)"><path d="M544.465,163.33h-.048a1.855,1.855,0,0,1-.455-.087l-.108-.025a1.383,1.383,0,0,1-.391-.193l-.064-.044-.09-.058a.455.455,0,0,0-.313-.129.4.4,0,0,1-.333-.138.2.2,0,0,1-.014-.216.129.129,0,0,1,.166-.051.121.121,0,0,1,.06.138.216.216,0,0,0,.088.025.66.66,0,0,1,.483.17c.03.021.055.039.081.055l.069.046a1.128,1.128,0,0,0,.322.156l.113.032a1.711,1.711,0,0,0,.4.076,1.32,1.32,0,0,0,.722-.173.129.129,0,0,1,.17.032.124.124,0,0,1-.037.168A1.551,1.551,0,0,1,544.465,163.33Z" transform="translate(-542.623 -162.377)" fill="#fff"/></g><g transform="translate(43.775)"><g transform="translate(12.629 0.048)"><path d="M535.644,170.908H535.6a.324.324,0,0,1-.29-.352,3.06,3.06,0,0,0-.14-1.619,4.138,4.138,0,0,0-.518-.692c-.14-.166-.276-.329-.4-.49a3.619,3.619,0,0,0-.658-.655,5.545,5.545,0,0,1-.644-.616l-.136-.159c-.283-.333-.561-.674-.819-1.021a3.92,3.92,0,0,1-.485-1.088,2.282,2.282,0,0,0-.61-1.136,2.137,2.137,0,0,0-1.327-.2.312.312,0,0,1-.32-.117.451.451,0,0,1-.085-.485.465.465,0,0,1,.313-.246,4.743,4.743,0,0,1,.485-1.8c.094-.223.184-.437.251-.639a8.449,8.449,0,0,1,.964-2.2,24.541,24.541,0,0,1,1.755-2.252l.074-.085c.527-.607,1.318-1.518,2.24-1.518a1.37,1.37,0,0,1,.853.3,4.394,4.394,0,0,1,1.315,2.374,5.217,5.217,0,0,1,.163,1.2c.009.138.018.276.03.416.032.366.076.736.12,1.1.037.3.074.589.1.879a8.359,8.359,0,0,1,.009,1.872,3,3,0,0,1-.131.591c.046.193.088.391.129.587.053.241.1.481.168.711l.088.285a4.2,4.2,0,0,1,.228,1.058,2.591,2.591,0,0,1-.278,1.4,2.46,2.46,0,0,1-.915.895l-.255.175c-.147.108-.168.29-.193.614l-.021.207a2.053,2.053,0,0,1-.057.327,1.084,1.084,0,0,1-.313.791.591.591,0,0,0-.182.4,1.223,1.223,0,0,0,.025.172c.053.278.122.658-.143.879A.564.564,0,0,1,535.644,170.908Zm-5.492-8.7a2.233,2.233,0,0,1,1.141.354,2.727,2.727,0,0,1,.835,1.449,3.32,3.32,0,0,0,.4.909c.246.34.52.662.791.987l.133.161a4.115,4.115,0,0,0,.57.538,4.467,4.467,0,0,1,.764.768c.106.15.23.3.361.451a4.851,4.851,0,0,1,.6.807c.032.074.064.147.094.221a.508.508,0,0,0,.122-.265.888.888,0,0,1,.014-.172c.023-.1.039-.2.053-.288l.016-.189a1.328,1.328,0,0,1,.46-1.081c.092-.067.182-.124.271-.184a1.905,1.905,0,0,0,.706-.669,1.947,1.947,0,0,0,.2-1.063,3.642,3.642,0,0,0-.2-.892l-.09-.3c-.069-.246-.124-.5-.177-.754-.044-.221-.092-.437-.147-.653a.287.287,0,0,1,0-.191,2.476,2.476,0,0,0,.133-.545,7.653,7.653,0,0,0-.011-1.73c-.028-.288-.062-.575-.1-.865-.048-.377-.092-.754-.122-1.125-.016-.147-.025-.292-.03-.437a4.892,4.892,0,0,0-.143-1.058,3.846,3.846,0,0,0-1.083-2.038c-.736-.554-1.691.518-2.22,1.125l-.076.085a23.426,23.426,0,0,0-1.707,2.192,7.766,7.766,0,0,0-.874,2c-.085.255-.179.488-.278.724a3.8,3.8,0,0,0-.432,1.64A.772.772,0,0,0,530.151,162.209Z" transform="translate(-529.137 -153.538)" fill="#fff"/></g><path d="M526.309,170.887a.549.549,0,0,1-.361-.145c-.258-.223-.189-.6-.138-.874a.987.987,0,0,0,.028-.175c.007-.145-.055-.237-.179-.4a1.272,1.272,0,0,1-.3-.655.843.843,0,0,1-.007-.131,3.1,3.1,0,0,1-.053-.329l-.018-.209c-.025-.317-.046-.508-.2-.614-.085-.06-.166-.12-.248-.172a2.443,2.443,0,0,1-.911-.9,2.626,2.626,0,0,1-.274-1.4,4.258,4.258,0,0,1,.235-1.056l.092-.288c.064-.23.115-.465.166-.7.046-.2.087-.4.14-.6a2.919,2.919,0,0,1-.131-.589,8.4,8.4,0,0,1,.021-1.87c.032-.283.069-.57.106-.856.046-.375.092-.754.129-1.127.014-.145.023-.285.032-.425a5.131,5.131,0,0,1,.168-1.191,4.411,4.411,0,0,1,1.332-2.367,1.378,1.378,0,0,1,.846-.294c.927,0,1.716.925,2.24,1.534l.071.083a23.429,23.429,0,0,1,1.743,2.266,8.082,8.082,0,0,1,.936,2.157c.083.244.17.462.26.685a4.752,4.752,0,0,1,.476,1.8.467.467,0,0,1,.311.251.458.458,0,0,1-.083.478.323.323,0,0,1-.327.117,2.185,2.185,0,0,0-1.325.191,2.267,2.267,0,0,0-.621,1.136,3.881,3.881,0,0,1-.49,1.083c-.26.354-.55.7-.839,1.03l-.122.147a5.19,5.19,0,0,1-.649.612,3.555,3.555,0,0,0-.662.651c-.117.159-.255.322-.4.488a4.217,4.217,0,0,0-.522.688,3.1,3.1,0,0,0-.15,1.621.325.325,0,0,1-.076.237.339.339,0,0,1-.221.113Zm.476-16.726a.753.753,0,0,0-.462.168,3.937,3.937,0,0,0-1.095,2.029,4.874,4.874,0,0,0-.15,1.053c-.009.147-.016.292-.032.444-.032.382-.083.764-.131,1.148-.035.281-.069.566-.1.842a7.865,7.865,0,0,0-.023,1.73,2.557,2.557,0,0,0,.129.545.3.3,0,0,1,.009.2c-.06.216-.106.435-.154.653-.058.253-.11.5-.182.743l-.094.306a3.411,3.411,0,0,0-.2.895,1.941,1.941,0,0,0,.2,1.063,1.871,1.871,0,0,0,.706.669c.087.06.177.124.264.186a1.34,1.34,0,0,1,.458,1.09l.016.186a2.307,2.307,0,0,0,.048.29.221.221,0,0,1,.009.1.6.6,0,0,0,.126.336c.028-.071.06-.145.1-.218a4.874,4.874,0,0,1,.6-.807c.126-.147.255-.294.361-.442a4.181,4.181,0,0,1,.77-.766,4.874,4.874,0,0,0,.571-.534l.126-.149c.276-.327.557-.651.807-.994a3.365,3.365,0,0,0,.4-.906,2.76,2.76,0,0,1,.844-1.447,2.247,2.247,0,0,1,1.141-.347.269.269,0,0,0,.016-.087,3.792,3.792,0,0,0-.419-1.645c-.1-.239-.191-.471-.262-.69a7.884,7.884,0,0,0-.874-2.038,23.277,23.277,0,0,0-1.7-2.2l-.074-.085C528.115,154.982,527.415,154.161,526.785,154.161Z" transform="translate(-523.646 -153.517)" fill="#fff"/><g transform="translate(17.125 19.456)"><path d="M531.531,162.91h0a.445.445,0,0,1-.359-.246c-.108-.172-.124-.524.055-.646a.212.212,0,0,1,.124-.041.733.733,0,0,1,.435.264.362.362,0,0,1,0,.547A.349.349,0,0,1,531.531,162.91Zm-.179-.718c-.053.034-.064.248,0,.354s.124.15.179.15a.173.173,0,0,0,.106-.057.156.156,0,0,0,0-.251A.6.6,0,0,0,531.352,162.192Z" transform="translate(-531.092 -161.976)" fill="#fff"/></g><g transform="translate(12.569 22.177)"><path d="M529.679,170.153a.116.116,0,0,1-.057-.014.156.156,0,0,1-.1-.11,2.029,2.029,0,0,0-.209-.538,2.058,2.058,0,0,1-.2-1.026.163.163,0,0,1,.147-.159c1.173-.11,1.424-1.272,1.665-2.4.046-.219.094-.435.145-.63l.023-.076a2.141,2.141,0,0,1,.336-.819,1.763,1.763,0,0,1,.495-.4,2.126,2.126,0,0,0,.292-.2.887.887,0,0,0,.267-.49.153.153,0,0,1,.152-.122.159.159,0,0,1,.161.117,3.468,3.468,0,0,1-.43,2.332,5.509,5.509,0,0,0-.589,1.451c-.085.276-.17.561-.278.833a5.288,5.288,0,0,1-1.645,2.176.39.39,0,0,1-.083.053A.121.121,0,0,1,529.679,170.153Zm-.246-1.543a1.565,1.565,0,0,0,.172.731,3.25,3.25,0,0,1,.163.377,4.922,4.922,0,0,0,1.431-1.941c.1-.26.184-.54.267-.812a5.885,5.885,0,0,1,.626-1.529,3.62,3.62,0,0,0,.446-1.534.691.691,0,0,1-.117.115,2.683,2.683,0,0,1-.329.235,1.534,1.534,0,0,0-.412.327,1.959,1.959,0,0,0-.281.7l-.018.078c-.053.193-.094.4-.143.616C531.006,167.055,530.719,168.4,529.433,168.61Z" transform="translate(-529.111 -163.159)" fill="#fff"/></g><g transform="translate(5.437 22.147)"><path d="M529.149,170.156a.152.152,0,0,1-.085-.025.574.574,0,0,1-.085-.062,5.271,5.271,0,0,1-1.628-2.183c-.1-.271-.191-.561-.274-.835a5.728,5.728,0,0,0-.577-1.454,3.436,3.436,0,0,1-.416-2.337.162.162,0,0,1,.159-.115.164.164,0,0,1,.154.124.9.9,0,0,0,.26.49,2.769,2.769,0,0,0,.292.207,1.756,1.756,0,0,1,.495.407,2.207,2.207,0,0,1,.336.833l.016.064c.053.2.094.414.143.633.235,1.127.476,2.293,1.651,2.41a.162.162,0,0,1,.145.161,2.074,2.074,0,0,1-.212,1.021,2.091,2.091,0,0,0-.214.536.186.186,0,0,1-.094.115A.274.274,0,0,1,529.149,170.156Zm-2.815-6.27a3.615,3.615,0,0,0,.437,1.536,5.984,5.984,0,0,1,.619,1.536c.078.271.161.552.262.81a4.848,4.848,0,0,0,1.412,1.95,3.7,3.7,0,0,1,.17-.373,1.6,1.6,0,0,0,.175-.731c-1.283-.225-1.562-1.562-1.789-2.645-.044-.214-.09-.426-.138-.621l-.018-.067a1.946,1.946,0,0,0-.276-.713,1.567,1.567,0,0,0-.412-.333,2.224,2.224,0,0,1-.327-.232A.7.7,0,0,1,526.334,163.887Z" transform="translate(-526.01 -163.146)" fill="#fff"/></g><g transform="translate(5.408 14.339)"><path d="M535.221,160.712a1.187,1.187,0,0,0-.672.3h0a2.985,2.985,0,0,0,.327-.023c.117-.011.232-.021.352-.021a1.211,1.211,0,0,1,.686.193,1.951,1.951,0,0,1,.844,1.136c.076.736-1.251,1.122-1.631,1.168a1.577,1.577,0,0,1-.4-.018.9.9,0,0,0-.4,0c-.225.092-.262.467-.267.626a4.515,4.515,0,0,0,.317,1.4c.046.133.092.262.129.384l.037.133c.113.377.265.888.6.973.15.039.269-.11.412-.288a1.107,1.107,0,0,1,.589-.453.619.619,0,0,1,.628.163.808.808,0,0,1,.166.639l-.016.179a3.551,3.551,0,0,1-.083.58,1.182,1.182,0,0,1-.373.66,2.683,2.683,0,0,1-.329.235,1.534,1.534,0,0,0-.412.327,1.959,1.959,0,0,0-.281.7l-.018.078c-.053.193-.094.4-.143.616-.239,1.12-.543,2.521-1.953,2.654-.041,0-.067,0-.094.009h-.085a3.712,3.712,0,0,1-1.4-.336,1.1,1.1,0,0,1-.295-.189,1.279,1.279,0,0,1-.3.189,3.766,3.766,0,0,1-1.49.327l-.1-.009c-1.405-.143-1.7-1.543-1.932-2.666-.044-.214-.09-.426-.138-.621l-.018-.069a1.951,1.951,0,0,0-.276-.711,1.567,1.567,0,0,0-.412-.333,2.224,2.224,0,0,1-.327-.232,1.162,1.162,0,0,1-.366-.662,3.543,3.543,0,0,1-.08-.593L526,167a.819.819,0,0,1,.17-.639.621.621,0,0,1,.626-.159,1.11,1.11,0,0,1,.591.455c.142.177.258.324.4.288.345-.081.5-.591.612-.966l.039-.131c.037-.126.083-.255.131-.391a4.407,4.407,0,0,0,.324-1.4c0-.193-.044-.534-.262-.623a.969.969,0,0,0-.4-.009,1.762,1.762,0,0,1-.4.016c-.382-.046-1.7-.444-1.626-1.175a1.965,1.965,0,0,1,.856-1.134,1.554,1.554,0,0,1,1.033-.166c.108.011.216.023.329.025v0a1.225,1.225,0,0,0-.672-.3.2.2,0,0,1-.048-.313c.053-.018.136-.136.188-.214a1.557,1.557,0,0,1,.136-.175.847.847,0,0,1,.531-.225c.669-.083.922.467,1.134.9.055.11.11.223.168.322a3.9,3.9,0,0,1,.363.787c.087.244.26.517.416.561.122.037.182-.044.294-.218a.666.666,0,0,1,.545-.4c.287,0,.43.223.547.4s.172.258.29.221c.159-.046.334-.313.421-.561a4.349,4.349,0,0,1,.366-.782,3.542,3.542,0,0,0,.17-.322c.216-.432.488-.982,1.141-.9a.86.86,0,0,1,.531.232,1.3,1.3,0,0,1,.136.177c.051.076.131.193.186.209A.2.2,0,0,1,535.221,160.712Zm-3.765,11.321.129.177a.788.788,0,0,0,.306.23,3.421,3.421,0,0,0,1.263.306l.126-.007c1.2-.113,1.449-1.274,1.69-2.4.046-.219.094-.435.145-.63l.023-.076a2.141,2.141,0,0,1,.336-.819,1.763,1.763,0,0,1,.495-.4,2.126,2.126,0,0,0,.292-.2.887.887,0,0,0,.267-.49,3.64,3.64,0,0,0,.076-.534l.014-.184a.488.488,0,0,0-.085-.391.312.312,0,0,0-.315-.067.862.862,0,0,0-.412.343c-.182.223-.414.474-.736.4-.522-.124-.711-.766-.837-1.2l-.035-.124c-.037-.122-.083-.248-.126-.38a4.656,4.656,0,0,1-.336-1.511c.014-.474.177-.8.472-.915a1.225,1.225,0,0,1,.563-.025,1.138,1.138,0,0,0,.318.016c.485-.055,1.387-.437,1.348-.812a1.678,1.678,0,0,0-.7-.9,1.243,1.243,0,0,0-.828-.12,2.366,2.366,0,0,1-.625,0l-.138-.021v-.136a.524.524,0,0,1,.173-.375,1.511,1.511,0,0,1,.563-.329c-.021-.03-.044-.057-.062-.085a1.336,1.336,0,0,0-.1-.133.533.533,0,0,0-.343-.14c-.391-.046-.573.246-.81.722a3.05,3.05,0,0,1-.186.347,3.833,3.833,0,0,0-.336.727c-.039.1-.258.649-.63.759a.6.6,0,0,1-.152.021c-.258,0-.393-.209-.5-.38s-.168-.253-.276-.253-.172.1-.276.253-.248.377-.5.377a.506.506,0,0,1-.152-.023c-.377-.113-.591-.656-.628-.761a3.84,3.84,0,0,0-.334-.731c-.064-.106-.124-.228-.182-.345-.237-.478-.412-.784-.81-.729a.524.524,0,0,0-.338.136.972.972,0,0,0-.1.131c-.018.03-.044.06-.064.09a1.5,1.5,0,0,1,.561.331.53.53,0,0,1,.17.375v.136l-.138.021a2.572,2.572,0,0,1-.625-.009,1.238,1.238,0,0,0-.83.117,1.674,1.674,0,0,0-.7.892c-.037.375.86.764,1.341.826a1.477,1.477,0,0,0,.317-.016,1.2,1.2,0,0,1,.566.028.924.924,0,0,1,.467.915,4.679,4.679,0,0,1-.345,1.511c-.046.131-.09.255-.126.377l-.039.131c-.127.423-.32,1.065-.847,1.187a.426.426,0,0,1-.12.014c-.274,0-.453-.221-.612-.414-.129-.159-.251-.313-.409-.345a.314.314,0,0,0-.315.062.522.522,0,0,0-.09.393l.016.168a3.863,3.863,0,0,0,.073.55.9.9,0,0,0,.26.49,2.769,2.769,0,0,0,.292.207,1.756,1.756,0,0,1,.495.407,2.207,2.207,0,0,1,.336.833l.016.064c.053.2.094.414.143.633.235,1.127.476,2.293,1.651,2.41l.081.009h.073a3.558,3.558,0,0,0,1.263-.3.752.752,0,0,0,.3-.232Z" transform="translate(-525.997 -159.751)" fill="#fff"/></g><g transform="translate(10.539 26.899)"><path d="M528.515,170.451a.149.149,0,0,1-.044-.009.116.116,0,0,1-.062-.152,1.424,1.424,0,0,0,.057-.573c0-.064,0-.124,0-.182v-.488c0-.327,0-.653,0-.978,0-.288-.014-.582-.03-.869-.011-.209-.021-.421-.025-.633l0-.124a1.89,1.89,0,0,0-.15-.918.115.115,0,0,1-.009-.131l-.014-.025a.12.12,0,0,1,.083-.145.628.628,0,0,1,.281.007.112.112,0,0,1,.092.1,20.359,20.359,0,0,1,.124,2.339,14.835,14.835,0,0,1-.071,1.605c-.007.1-.007.216-.012.334a1.815,1.815,0,0,1-.108.77A.111.111,0,0,1,528.515,170.451Z" transform="translate(-528.228 -165.212)" fill="#fff"/></g><g transform="translate(13.491 15.962)"><path d="M530.49,162.143a1.371,1.371,0,0,1-.508-.087c-.053-.025-.1-.053-.159-.083a1.337,1.337,0,0,0-.175-.076.123.123,0,0,1-.094-.021.106.106,0,0,1-.037-.117c.055-.186.352-1.113.667-1.237a1.05,1.05,0,0,1,.389-.064,1.277,1.277,0,0,1,.812.26,1.8,1.8,0,0,1,.386.495c.021.032.037.06.046.074a.122.122,0,0,1,.032.131,1.262,1.262,0,0,1-.759.623A1.84,1.84,0,0,1,530.49,162.143Zm-.734-.437c.044.018.1.046.163.078.051.025.1.051.152.071a1.046,1.046,0,0,0,.419.074,1.632,1.632,0,0,0,.531-.09,1.243,1.243,0,0,0,.609-.448.577.577,0,0,1-.044-.071,1.778,1.778,0,0,0-.345-.446,1.083,1.083,0,0,0-.669-.2.926.926,0,0,0-.311.048A2.3,2.3,0,0,0,529.756,161.706Z" transform="translate(-529.512 -160.457)" fill="#fff"/></g><g transform="translate(8.792 9.694)"><path d="M529.583,162.7a.633.633,0,0,1-.085-.009c-.166-.037-.2-.26-.225-.492a1.682,1.682,0,0,0-.039-.239,2.061,2.061,0,0,1-.048-.209,1.578,1.578,0,0,0-.1-.333,1.337,1.337,0,0,0-.773-.46c-.06-.018-.115-.037-.17-.053-.23-.085-.271-.12-.324-.264-.014-.034-.034-.087-.069-.159a1.2,1.2,0,0,0-.106-.152.689.689,0,0,1-.156-.306,1.038,1.038,0,0,1,.43-1.035c.083-.081.168-.163.248-.258.057-.067.113-.14.166-.214.322-.4.646-.823,1.212-.78,0-.009.064,0,.092,0h.074c.52,0,.837.4,1.141.789.051.074.11.143.17.214a2.909,2.909,0,0,0,.244.258,1.054,1.054,0,0,1,.426,1.04.7.7,0,0,1-.161.3,1.2,1.2,0,0,0-.106.154,1.181,1.181,0,0,0-.069.156c-.055.147-.094.177-.324.26-.055.018-.113.035-.17.053a1.351,1.351,0,0,0-.782.455,1.625,1.625,0,0,0-.1.333c-.016.083-.032.156-.048.212a1.971,1.971,0,0,0-.041.235c-.032.237-.062.458-.23.492A.511.511,0,0,1,529.583,162.7Zm-.108-4.752c-.416,0-.672.327-.971.7-.057.071-.117.147-.177.219a3.289,3.289,0,0,1-.26.271c-.255.251-.437.428-.368.849a.5.5,0,0,0,.113.209,1.024,1.024,0,0,1,.129.184c.039.083.062.14.078.184.027.074.027.074.2.133.055.018.108.039.165.055a1.514,1.514,0,0,1,.892.554,1.462,1.462,0,0,1,.122.4,1.831,1.831,0,0,0,.041.193,1.572,1.572,0,0,1,.048.274.993.993,0,0,0,.074.315l.025,0,.03,0a1.056,1.056,0,0,0,.062-.31,2.021,2.021,0,0,1,.053-.271c.016-.053.032-.122.046-.191a1.472,1.472,0,0,1,.122-.4,1.511,1.511,0,0,1,.9-.545c.058-.021.108-.039.161-.055.175-.057.175-.057.2-.133a1.849,1.849,0,0,1,.081-.179,1,1,0,0,1,.131-.189.494.494,0,0,0,.115-.207.844.844,0,0,0-.37-.851c-.08-.085-.17-.173-.258-.274-.06-.071-.117-.145-.17-.219-.311-.4-.584-.745-1.024-.7l-.053,0a.139.139,0,0,0-.055,0Z" transform="translate(-527.469 -157.732)" fill="#fff"/></g><g transform="translate(3.829 19.421)"><path d="M525.69,162.89a.4.4,0,0,1-.253-.676.741.741,0,0,1,.432-.253A.2.2,0,0,1,526,162c.182.12.159.474.053.644A.454.454,0,0,1,525.69,162.89Zm.186-.713a.551.551,0,0,0-.285.186.188.188,0,0,0,.1.313c.055,0,.117-.055.179-.152a.376.376,0,0,0,.009-.347Z" transform="translate(-525.311 -161.961)" fill="#fff"/></g><g transform="translate(5.959 15.939)"><path d="M527.606,162.135h0a1.793,1.793,0,0,1-.609-.108,1.291,1.291,0,0,1-.755-.628.124.124,0,0,1,.035-.131l.048-.076a1.854,1.854,0,0,1,.386-.488,1.267,1.267,0,0,1,.8-.258,1.14,1.14,0,0,1,.4.064c.3.124.577.975.651,1.214a.114.114,0,0,1,.016.062.1.1,0,0,1-.108.106l-.03,0a1.056,1.056,0,0,0-.177.078,1.432,1.432,0,0,1-.161.076A1.25,1.25,0,0,1,527.606,162.135Zm-1.145-.759a1.287,1.287,0,0,0,.609.451,1.572,1.572,0,0,0,.536.092h0a1.189,1.189,0,0,0,.414-.067c.051-.023.1-.048.152-.074s.117-.057.161-.078a2.371,2.371,0,0,0-.5-.991.99.99,0,0,0-.322-.048,1.057,1.057,0,0,0-.662.2,1.733,1.733,0,0,0-.345.435C526.49,161.328,526.474,161.355,526.46,161.376Z" transform="translate(-526.237 -160.447)" fill="#fff"/></g><g transform="translate(6.314 16.094)"><g transform="translate(7.564 0.02)"><path d="M531.26,160.988a.869.869,0,0,0-.761-.458c-.435-.041-.582.11-.665.232a1.9,1.9,0,0,0-.154.327s.044.789.628.8c.623.021.784-.223.865-.391A.725.725,0,0,0,531.26,160.988Zm-.483.2a.139.139,0,0,1,0-.278.139.139,0,1,1,0,.278Z" transform="translate(-529.68 -160.523)" fill="#fff"/></g><path d="M527.177,160.521a.855.855,0,0,0-.761.451.682.682,0,0,0,.081.508c.083.168.244.414.867.4.579-.014.628-.8.628-.8a1.746,1.746,0,0,0-.149-.324C527.759,160.633,527.616,160.481,527.177,160.521Zm-.283.658a.14.14,0,1,1,.14-.14A.14.14,0,0,1,526.894,161.178Z" transform="translate(-526.391 -160.514)" fill="#fff"/></g><g transform="translate(8.782 22.985)"><g transform="translate(0.083 0.082)"><path d="M531.023,165.37c.568,0,.6-1.017.347-1.368-.276-.384-1.506-.481-1.985-.446-.465-.039-1.458.048-1.732.435-.253.35-.228,1.359.338,1.368.276.007.633-.334.736.1.087.366-.251.419-.506.343-.117-.037-.287-.214-.407-.1-.133.127.062.361.124.462a1.678,1.678,0,0,0,.892.69,1.246,1.246,0,0,0,.5.081.5.5,0,0,0,.172-.14.488.488,0,0,0,.163.14,1.223,1.223,0,0,0,.508-.076,1.682,1.682,0,0,0,.89-.685c.064-.094.262-.336.126-.46-.115-.11-.29.064-.4.1-.258.074-.6.021-.5-.347.108-.428.46-.083.736-.087" transform="translate(-527.5 -163.546)" fill="#fff"/></g><path d="M529.791,167.07a.286.286,0,0,1-.11-.021.4.4,0,0,1-.126-.1.47.47,0,0,1-.138.1.268.268,0,0,1-.106.016,1.941,1.941,0,0,1-.458-.092,1.766,1.766,0,0,1-.936-.725l-.03-.044c-.078-.12-.251-.368-.078-.524a.192.192,0,0,1,.143-.06.487.487,0,0,1,.241.092,1.039,1.039,0,0,0,.1.051.742.742,0,0,0,.182.028.284.284,0,0,0,.2-.071.227.227,0,0,0,.016-.2c-.035-.154-.094-.154-.133-.154a.726.726,0,0,0-.216.055.912.912,0,0,1-.3.069.518.518,0,0,1-.471-.315,1.33,1.33,0,0,1,.062-1.187,2.163,2.163,0,0,1,1.576-.476c.085,0,.161,0,.228.007.354-.035,1.723.03,2.047.478a1.352,1.352,0,0,1,.048,1.189.52.52,0,0,1-.465.315.943.943,0,0,1-.3-.071.7.7,0,0,0-.219-.057c-.032,0-.092,0-.133.152a.219.219,0,0,0,.021.2.257.257,0,0,0,.2.071.636.636,0,0,0,.179-.025.68.68,0,0,0,.1-.051.514.514,0,0,1,.241-.09.207.207,0,0,1,.147.06c.168.161,0,.407-.087.524l-.028.041a1.775,1.775,0,0,1-.943.722A2.15,2.15,0,0,1,529.791,167.07Zm-.039-.173.039,0a1.8,1.8,0,0,0,.407-.08,1.652,1.652,0,0,0,.851-.653l.032-.046c.053-.081.17-.248.106-.308-.044-.041-.117.012-.189.053a.643.643,0,0,1-.14.067.544.544,0,0,1-.554-.1.375.375,0,0,1-.051-.343c.048-.186.145-.281.294-.281a.878.878,0,0,1,.276.067.728.728,0,0,0,.242.06.351.351,0,0,0,.324-.221,1.16,1.16,0,0,0-.041-1.014c-.191-.274-1.019-.416-1.7-.416a1.922,1.922,0,0,0-.209.007c-.076-.007-.15-.007-.228-.007a2.113,2.113,0,0,0-1.444.4,1.167,1.167,0,0,0-.041,1.017.351.351,0,0,0,.317.225h0a.832.832,0,0,0,.244-.057.755.755,0,0,1,.271-.067c.152,0,.255.094.3.281a.391.391,0,0,1-.048.34.543.543,0,0,1-.563.1.92.92,0,0,1-.136-.067c-.071-.041-.15-.094-.189-.055-.064.06.048.228.1.306l.032.051a1.622,1.622,0,0,0,.844.656,1.8,1.8,0,0,0,.409.085l.039,0a.39.39,0,0,0,.14-.12l.067-.083.067.085a.372.372,0,0,0,.129.117Z" transform="translate(-527.464 -163.511)" fill="#fff"/></g><g transform="translate(14.631 2.81)"><path d="M533.3,164.482H533.3a.168.168,0,0,1-.133-.069.522.522,0,0,0-.159-.193,2.086,2.086,0,0,0-.359-.177,2.443,2.443,0,0,1-.343-.159,1.8,1.8,0,0,1-.754-1.035,3.716,3.716,0,0,0-.255-.54c-.071-.113-.138-.225-.2-.333a3.671,3.671,0,0,0-.554-.791,1.494,1.494,0,0,1-.136-.258c-.064-.172-.124-.343-.179-.52-.044-.147-.094-.3-.147-.444a1.468,1.468,0,0,1,.03-.994,2.018,2.018,0,0,1,.373-.635,1.993,1.993,0,0,0,.287-.462,7.59,7.59,0,0,1,1.568-2.507,1.7,1.7,0,0,1,1.4-.6h0c.064,0,.133-.009.2-.012a1.532,1.532,0,0,1,.462,0,.686.686,0,0,1,.407.476c.023.051.044.1.069.156a6.846,6.846,0,0,1,.288,3.528l-.03.359a2.006,2.006,0,0,1-.11.384,1.559,1.559,0,0,0-.11.444c.007.016.035.032.117.055a.51.51,0,0,1,.331.228.162.162,0,0,1,.016.113.694.694,0,0,1-.041.117,3.827,3.827,0,0,0-.175.637c-.018.1-.037.2-.06.3a1.974,1.974,0,0,1-.32.633c-.051.076-.106.156-.152.239a.964.964,0,0,0-.1.384,1.5,1.5,0,0,1-.083.382,2.253,2.253,0,0,1-.582.745,3.046,3.046,0,0,0-.359.389l-.064.085A.173.173,0,0,1,533.3,164.482Zm.444-9.407a1.407,1.407,0,0,0-1.191.515,7.266,7.266,0,0,0-1.5,2.4,2.037,2.037,0,0,1-.329.529,1.742,1.742,0,0,0-.32.545,1.146,1.146,0,0,0-.034.8c.053.147.1.3.149.451.053.168.108.338.17.5a1.693,1.693,0,0,0,.092.182,3.551,3.551,0,0,1,.577.828c.062.1.124.212.193.324a3.643,3.643,0,0,1,.278.586,1.541,1.541,0,0,0,.621.883,3.135,3.135,0,0,0,.306.14,2.291,2.291,0,0,1,.419.207.768.768,0,0,1,.122.106c.1-.124.225-.242.338-.356a1.942,1.942,0,0,0,.511-.63,1.221,1.221,0,0,0,.064-.313,1.238,1.238,0,0,1,.14-.5c.055-.09.11-.173.166-.258a1.672,1.672,0,0,0,.274-.531c.025-.1.041-.2.06-.285a3.416,3.416,0,0,1,.193-.7.493.493,0,0,0-.113-.041.428.428,0,0,1-.315-.239c-.062-.149,0-.359.108-.658a2.321,2.321,0,0,0,.094-.313l.03-.359a6.579,6.579,0,0,0-.26-3.365c-.028-.057-.051-.117-.074-.175-.071-.17-.117-.267-.209-.294a1.624,1.624,0,0,0-.345.007c-.083.007-.156.011-.219.011Z" transform="translate(-530.007 -154.739)" fill="#fff"/></g><g transform="translate(1.839 2.764)"><path d="M526.514,164.524a.151.151,0,0,1-.122-.057,1,1,0,0,1-.078-.108,3.991,3.991,0,0,0-.364-.393,2.274,2.274,0,0,1-.579-.747,1.7,1.7,0,0,1-.083-.391.947.947,0,0,0-.1-.384c-.051-.083-.1-.163-.154-.239a1.9,1.9,0,0,1-.315-.637c-.023-.108-.044-.209-.062-.306a3.451,3.451,0,0,0-.17-.637.787.787,0,0,1-.039-.117.15.15,0,0,1,.016-.117.486.486,0,0,1,.331-.221c.083-.03.113-.041.122-.062a1.549,1.549,0,0,0-.113-.446,2.206,2.206,0,0,1-.106-.384l-.03-.361a6.868,6.868,0,0,1,.313-3.547c.025-.053.048-.108.071-.161a.665.665,0,0,1,.414-.469,1.583,1.583,0,0,1,.46,0c.069.007.138.014.189.014a1.711,1.711,0,0,1,1.417.614,7.7,7.7,0,0,1,1.559,2.525,2.078,2.078,0,0,0,.283.467,1.886,1.886,0,0,1,.368.646,1.459,1.459,0,0,1,.03,1c-.057.143-.1.294-.152.442-.06.177-.117.352-.182.522a2.361,2.361,0,0,1-.115.228.1.1,0,0,1-.023.03,3.63,3.63,0,0,0-.566.8c-.06.106-.124.214-.2.329a3.326,3.326,0,0,0-.26.54,1.837,1.837,0,0,1-.764,1.033,2.347,2.347,0,0,1-.347.156,1.983,1.983,0,0,0-.363.179.585.585,0,0,0-.161.191.154.154,0,0,1-.122.076Zm-1.736-4.018a3.245,3.245,0,0,1,.188.7c.018.092.037.189.062.29a1.617,1.617,0,0,0,.267.538,2.914,2.914,0,0,1,.166.258,1.173,1.173,0,0,1,.138.5,1.449,1.449,0,0,0,.064.315,1.963,1.963,0,0,0,.5.635,4.27,4.27,0,0,1,.345.366.77.77,0,0,1,.12-.108,2.327,2.327,0,0,1,.423-.207,2.383,2.383,0,0,0,.308-.138,1.56,1.56,0,0,0,.635-.885,4.061,4.061,0,0,1,.278-.584c.071-.113.131-.219.191-.322a4.159,4.159,0,0,1,.6-.849,1.416,1.416,0,0,0,.083-.168c.064-.163.12-.333.177-.5.048-.154.1-.306.156-.453a1.141,1.141,0,0,0-.037-.8,1.7,1.7,0,0,0-.315-.547,2.223,2.223,0,0,1-.329-.534,7.252,7.252,0,0,0-1.49-2.42,1.4,1.4,0,0,0-1.2-.527,2.052,2.052,0,0,1-.214-.016,1.9,1.9,0,0,0-.354-.007c-.09.028-.133.12-.207.294-.023.055-.048.117-.076.177a6.577,6.577,0,0,0-.281,3.379l.03.363a2.231,2.231,0,0,0,.087.313,1.051,1.051,0,0,1,.108.655.422.422,0,0,1-.32.244A.423.423,0,0,0,524.778,160.506Z" transform="translate(-524.446 -154.719)" fill="#fff"/></g><g transform="translate(1.154 8.694)"><path d="M533.916,183.039l-.12-.007a2.386,2.386,0,0,1-.538-.057,2.116,2.116,0,0,1-1.382-1.15,1.492,1.492,0,0,1-.253-.034,2.914,2.914,0,0,1-1.21-.646,8.876,8.876,0,0,1-.633-.7c-.106-.122-.207-.244-.311-.361a2.436,2.436,0,0,1-.287-.414,1.551,1.551,0,0,0-.26-.361c-.09-.083-.186-.161-.281-.239-.113-.09-.223-.179-.324-.274-.294-.274-.563-.564-.833-.849a11.075,11.075,0,0,0-1.06-1.044,2.3,2.3,0,0,1-.764-1.01,3.66,3.66,0,0,1-.117-.531,2.071,2.071,0,0,0-.191-.665,1.93,1.93,0,0,0-.393-.43,2.779,2.779,0,0,1-.485-.545,2.283,2.283,0,0,1-.258-1.3c0-.324-.018-.584-.037-.837a4.551,4.551,0,0,1,.175-1.989c.076-.209.143-.421.209-.63a6.557,6.557,0,0,1,.626-1.509,1.992,1.992,0,0,0,.188-1.433l-.032-.317a3.663,3.663,0,0,1,.218-2.012,4.874,4.874,0,0,1,.6-.807c.126-.147.255-.294.361-.442a4.181,4.181,0,0,1,.77-.766,4.874,4.874,0,0,0,.571-.534L528,161c.276-.327.557-.651.807-.994a3.365,3.365,0,0,0,.4-.906,2.76,2.76,0,0,1,.844-1.447,2.69,2.69,0,0,1,1.854-.3l.269.062.009.283a.242.242,0,0,0,.007.117.365.365,0,0,0,.2.032,3.8,3.8,0,0,0,.75-.12,3.368,3.368,0,0,1,.653-.1l.106,0c.069,0,.1,0,.138,0a3.134,3.134,0,0,1,.656.108,4.146,4.146,0,0,0,.757.122c.152,0,.191-.035.191-.035a.207.207,0,0,0,.009-.113l-.018-.251.242-.078a2.359,2.359,0,0,1,.547-.064,2.45,2.45,0,0,1,1.362.366,2.727,2.727,0,0,1,.835,1.449,3.32,3.32,0,0,0,.4.909c.246.34.52.662.791.987l.133.161a4.115,4.115,0,0,0,.57.538,4.467,4.467,0,0,1,.764.768c.106.15.23.3.361.451a4.851,4.851,0,0,1,.6.807,3.653,3.653,0,0,1,.2,1.983l-.037.347a1.989,1.989,0,0,0,.182,1.435,6.73,6.73,0,0,1,.614,1.5c.062.214.129.426.207.639a4.5,4.5,0,0,1,.161,1.99c-.018.253-.035.515-.035.789a2.356,2.356,0,0,1-.271,1.345,2.76,2.76,0,0,1-.49.538,2.339,2.339,0,0,0-.4.432,2.056,2.056,0,0,0-.2.667,3.942,3.942,0,0,1-.122.529,2.3,2.3,0,0,1-.768,1,11.96,11.96,0,0,0-1.07,1.037c-.269.288-.538.573-.833.839-.1.1-.214.186-.324.276s-.2.154-.285.237a1.522,1.522,0,0,0-.26.356,2.453,2.453,0,0,1-.292.414c-.1.113-.2.232-.3.352a9.527,9.527,0,0,1-.644.7,3,3,0,0,1-1.214.642,1.8,1.8,0,0,1-.258.03,2.1,2.1,0,0,1-1.382,1.141A2.629,2.629,0,0,1,533.916,183.039Zm-.115-.649.115,0a2.313,2.313,0,0,0,.366-.044,1.647,1.647,0,0,0,1.042-.987l.1-.193.216.018a.86.86,0,0,0,.281-.016,2.362,2.362,0,0,0,.911-.478,8.642,8.642,0,0,0,.593-.653c.108-.122.212-.246.317-.366a1.854,1.854,0,0,0,.219-.311,2.054,2.054,0,0,1,.377-.506q.152-.135.317-.262a3.705,3.705,0,0,0,.29-.248c.285-.255.545-.531.8-.8a12.742,12.742,0,0,1,1.127-1.1,1.7,1.7,0,0,0,.568-.7,3.748,3.748,0,0,0,.1-.446,2.521,2.521,0,0,1,.278-.876,2.561,2.561,0,0,1,.508-.575,2.168,2.168,0,0,0,.382-.412,1.766,1.766,0,0,0,.168-.957c0-.334.021-.612.039-.881a3.911,3.911,0,0,0-.122-1.72c-.083-.223-.15-.446-.219-.669a6.23,6.23,0,0,0-.547-1.366,2.59,2.59,0,0,1-.271-1.84l.032-.3a3.092,3.092,0,0,0-.136-1.647,4.138,4.138,0,0,0-.518-.692c-.14-.166-.276-.329-.4-.49a3.619,3.619,0,0,0-.658-.655,5.545,5.545,0,0,1-.644-.616l-.136-.159c-.283-.333-.561-.674-.819-1.021a3.92,3.92,0,0,1-.485-1.088,2.282,2.282,0,0,0-.61-1.136,1.963,1.963,0,0,0-1.122-.23.642.642,0,0,1-.163.294c-.288.315-.975.232-1.559.1a3.1,3.1,0,0,0-.513-.092.966.966,0,0,1-.12.009l-.108-.009a1.674,1.674,0,0,0-.531.09c-.582.129-1.27.2-1.557-.11a.632.632,0,0,1-.159-.294,1.956,1.956,0,0,0-1.122.219,2.267,2.267,0,0,0-.621,1.136,3.881,3.881,0,0,1-.49,1.083c-.26.354-.55.7-.839,1.03l-.122.147a5.19,5.19,0,0,1-.649.612,3.555,3.555,0,0,0-.662.651c-.117.159-.255.322-.4.488a4.217,4.217,0,0,0-.522.688,3.1,3.1,0,0,0-.15,1.621l.037.331a2.631,2.631,0,0,1-.281,1.84,6.1,6.1,0,0,0-.561,1.366c-.069.221-.14.442-.219.66a3.916,3.916,0,0,0-.138,1.723c.021.269.039.543.037.833a1.906,1.906,0,0,0,.161,1.005,2.106,2.106,0,0,0,.382.412,2.6,2.6,0,0,1,.5.577,2.483,2.483,0,0,1,.271.881,3.824,3.824,0,0,0,.1.446,1.708,1.708,0,0,0,.563.711,12.339,12.339,0,0,1,1.12,1.1c.255.278.515.554.8.814.094.09.193.17.294.251s.212.17.308.264a2.13,2.13,0,0,1,.38.506,1.782,1.782,0,0,0,.214.313c.106.122.212.248.322.375.189.223.382.453.582.649a2.363,2.363,0,0,0,.911.488.8.8,0,0,0,.189.018l.306-.018.1.191a1.651,1.651,0,0,0,1.04.994,2.3,2.3,0,0,0,.366.046Z" transform="translate(-524.148 -157.297)" fill="#fff"/></g></g><g transform="translate(24.983 24.184)"><path d="M517.5,174.807a1.866,1.866,0,0,1-1.138-.4,5.871,5.871,0,0,1-.541-.7,4.9,4.9,0,0,1-.294-2.578c.014-.177.419-4.547,2.369-6.194a4.232,4.232,0,0,1,2.3-.9l.092,0a5.436,5.436,0,0,1,3.565,1.27,13.43,13.43,0,0,1,3.13,3.632c.034.067.954,1.812-.044,2.684a2.091,2.091,0,0,1-2.387-.246,2.974,2.974,0,0,1-.375-.412c-.011-.021-1.355-1.8-2.767-1.725a.532.532,0,0,1-.248,0,.635.635,0,0,1-.232-.11.873.873,0,0,1-.182-.2.777.777,0,0,1-.127.471l-.03.051a1.228,1.228,0,0,1-.1.138h0s-.032.046-.087.131a4.275,4.275,0,0,0-.8,2.265c0,.1-.136,1.923-1.1,2.544A1.957,1.957,0,0,1,517.5,174.807Zm2.785-10.456-.069,0a3.991,3.991,0,0,0-2.109.826c-1.856,1.566-2.256,5.948-2.261,5.987a4.635,4.635,0,0,0,.26,2.39,6.547,6.547,0,0,0,.474.621,1.53,1.53,0,0,0,.92.306,1.687,1.687,0,0,0,.828-.228c.837-.536.959-2.261.959-2.279a4.507,4.507,0,0,1,.849-2.443c.064-.1.106-.15.106-.15a.5.5,0,0,0,.067-.1l.039-.064a.438.438,0,0,0,.046-.409l-.679-1.925c-.1-.4-.087-.508-.032-.582a.2.2,0,0,1,.143-.069c.069,0,.166,0,.4.448l.711,1.914a.746.746,0,0,0,.2.283.338.338,0,0,0,.1.046.4.4,0,0,0,.133-.009,1.355,1.355,0,0,1,.152-.009c1.541,0,2.864,1.783,2.921,1.861a2.213,2.213,0,0,0,.324.359,1.756,1.756,0,0,0,1.145.435,1.852,1.852,0,0,0,.844-.2c.782-.688-.048-2.261-.055-2.277a13.3,13.3,0,0,0-3.052-3.53A5.379,5.379,0,0,0,520.286,164.352Z" transform="translate(-515.476 -164.032)" fill="#fff"/></g><g transform="translate(22.915 21.978)"><g transform="translate(0 3.616)"><path d="M514.92,165a1.178,1.178,0,0,0-.306,1.035,1.116,1.116,0,0,0,1.171.471s1.185-.315.851-1.4A1.142,1.142,0,0,0,514.92,165Zm1.194.067c-.069.064-.2.15-.306.113a.229.229,0,0,1-.1-.317C515.865,164.636,516.374,164.818,516.114,165.068Z" transform="translate(-514.577 -164.645)" fill="#fff"/></g><g transform="translate(8.985)"><path d="M520.4,163.352a1.256,1.256,0,0,0-1.392-.106,1.2,1.2,0,0,0-.522,1.187,1.082,1.082,0,0,0,1.474.345A1.177,1.177,0,0,0,520.4,163.352Zm-1.01.352a.315.315,0,0,1-.55.028c-.142-.253.092-.458.354-.377A.308.308,0,0,1,519.391,163.7Z" transform="translate(-518.483 -163.073)" fill="#fff"/></g></g><g transform="translate(27.538 18.191)"><path d="M517.871,162.226a1.761,1.761,0,0,1-.264-.023,2.06,2.06,0,0,1-.968-.5.157.157,0,0,1-.007-.225.155.155,0,0,1,.223-.014,1.739,1.739,0,0,0,.812.421,1.812,1.812,0,0,0,.51,0,2.521,2.521,0,0,1,.439-.016.158.158,0,0,1,.152.168.16.16,0,0,1-.17.15,2.876,2.876,0,0,0-.391.018A3.169,3.169,0,0,1,517.871,162.226Z" transform="translate(-516.587 -161.426)" fill="#fff"/></g><g transform="translate(11.815 17.741)"><path d="M519.489,171.74a.32.32,0,0,1-.216-.081,6.889,6.889,0,0,0-2.2-.483,1.357,1.357,0,0,1-.246.016,1.38,1.38,0,0,1-1.366-.656,13.618,13.618,0,0,1-1.134-1.412,2.117,2.117,0,0,0-.966-.75.429.429,0,0,1-.115-.062c-.927-.766-2.355-1.973-2.355-1.973a3.531,3.531,0,0,1-1.136-2.019,13.2,13.2,0,0,1,.057-1.424.368.368,0,0,1,.018-.09c.754-1.978,3.126-1.534,3.126-1.534l.069-.007c2.712,0,7.167,2.42,7.353,2.521a.319.319,0,0,1,.067.517,6.3,6.3,0,0,0-1.212,2.3,10.645,10.645,0,0,0-.163,1.394,4.639,4.639,0,0,0,.685,3.234.325.325,0,0,1-.055.426A.318.318,0,0,1,519.489,171.74Zm-2.413-1.2a12.708,12.708,0,0,1,1.721.269,4.789,4.789,0,0,1-.364-2.893h0a10.3,10.3,0,0,1,.177-1.472,7.823,7.823,0,0,1,1.1-2.279c-1.118-.575-4.561-2.249-6.682-2.249h-.115a4.207,4.207,0,0,0-.5-.035A1.94,1.94,0,0,0,510.453,163c-.016.193-.074.934-.057,1.247a2.877,2.877,0,0,0,.879,1.582c.035.021,1.415,1.189,2.339,1.957a2.8,2.8,0,0,1,1.237.966,11.5,11.5,0,0,0,1.1,1.359.31.31,0,0,1,.092.156h0S516.217,170.616,517.077,170.537Z" transform="translate(-509.751 -161.23)" fill="#fff"/></g><g transform="translate(15.165 19.985)"><path d="M514.5,168.83h0l-.025,0c-.168-.009-.285-.175-.34-.271a2.729,2.729,0,0,1-.189-.416c-.032-.078-.064-.156-.1-.23a2.611,2.611,0,0,0-.9-1.187l-.087-.057c-.292-.193-.736-.49-.678-.971a.542.542,0,0,1,.49-.451c.168-.03.575-.106.658-.251.009-.012.023-.041,0-.1a1.045,1.045,0,0,0-.448-.451l-.117-.085c-.129-.09-.248-.191-.368-.292l-.126-.106c-.064-.055-.136-.108-.2-.156a2.327,2.327,0,0,1-.4-.338c-.193-.228-.573-.658-.4-1.017a.511.511,0,0,1,.5-.242c.069,0,.138,0,.2.009.444.037.865.113,1.272.186.223.037.444.078.667.113.087.012.166.012.253.016a2.526,2.526,0,0,1,.3.025l.15.028a2.55,2.55,0,0,0,.331.051,1.75,1.75,0,0,1,.966.244,1.543,1.543,0,0,1,.462,1.566,4.277,4.277,0,0,0,.028,1.665c.145.964-.269,1.316-.637,1.444-.126.044-.161.113-.228.262a1.163,1.163,0,0,1-.219.357c-.028.032-.064.081-.1.131C515.013,168.524,514.772,168.83,514.5,168.83Zm-2.744-6.3c-.083,0-.191.014-.214.064-.08.163.237.527.34.644a1.992,1.992,0,0,0,.363.306c.076.055.15.11.221.168l.129.113c.115.092.228.193.347.274l.113.081a1.317,1.317,0,0,1,.568.6.425.425,0,0,1-.018.373c-.154.276-.619.363-.865.409-.113.021-.232.067-.244.177-.034.281.283.492.538.662l.09.06a2.952,2.952,0,0,1,1.014,1.316,2.667,2.667,0,0,1,.106.248,2.881,2.881,0,0,0,.163.37.454.454,0,0,0,.094.113c.122,0,.334-.271.435-.4.046-.057.09-.113.124-.15a.883.883,0,0,0,.159-.271.658.658,0,0,1,.416-.435c.136-.048.557-.193.428-1.065a4.629,4.629,0,0,1-.027-1.806,1.241,1.241,0,0,0-.338-1.247,1.442,1.442,0,0,0-.771-.175,3.34,3.34,0,0,1-.4-.06l-.14-.025a1.889,1.889,0,0,0-.255-.021,2.422,2.422,0,0,1-.29-.021c-.228-.032-.451-.074-.679-.113a11.447,11.447,0,0,0-1.214-.179C511.876,162.533,511.814,162.526,511.754,162.526Z" transform="translate(-511.207 -162.206)" fill="#fff"/></g><g transform="translate(30.285 8.633)"><path d="M522.746,170.9c-.177,0-.324-.214-.327-.393a3.533,3.533,0,0,0-1.242-2.569,6.886,6.886,0,0,0-1.741-1.3.293.293,0,0,1-.115-.078,1.689,1.689,0,0,0-1.191-.373.345.345,0,0,1-.26-.117.326.326,0,0,1-.085-.265c.037-.189.874-4.646,2.194-6.5.035-.055,1.1-1.755,2.33-2h0c-.025,0,.932-.338,1.907.957.011.009.214.306.37.552a5.571,5.571,0,0,1,.421,1.757c-.023.315-.216,2.914-.35,3.4a2.237,2.237,0,0,0-.11.915.341.341,0,0,1,.027.09s.163,1.27.2,1.582a3.142,3.142,0,0,1-.416,1.723,3.355,3.355,0,0,0-.593.695,10.056,10.056,0,0,1-.573,1.24,3.622,3.622,0,0,1-.131.46A.347.347,0,0,1,522.746,170.9Zm-3.006-4.832a7.448,7.448,0,0,1,1.884,1.408,4.39,4.39,0,0,1,1.265,1.918c.12-.264.232-.543.283-.678a4.012,4.012,0,0,1,.752-.911,4.019,4.019,0,0,0,.2-1.228c-.028-.235-.161-1.27-.189-1.479a2.736,2.736,0,0,1,.1-1.3c.09-.322.248-2.164.329-3.254a4.872,4.872,0,0,0-.354-1.44c-.122-.179-.315-.46-.315-.46-.637-.844-1.233-.713-1.233-.713-.823.166-1.684,1.309-1.948,1.732-1.039,1.458-1.8,4.8-2.026,5.9A2.261,2.261,0,0,1,519.74,166.071Z" transform="translate(-517.781 -157.271)" fill="#fff"/></g><g transform="translate(27.446 24.994)"><g transform="translate(0.071 0.069)"><path d="M519.854,164.927a1.183,1.183,0,0,0-1.212-.492,3.432,3.432,0,0,0-1.769.791,1,1,0,0,0-.028,1.382s.051.389.773-.06c0,0,.421-.354.016-.54,0,0-.235-.182.067-.269,0,0,.483-.007.347.932,0,0-.338-.131-.191.106a.654.654,0,0,0,.805.253l-.278-.826s-.129-.734.237-.06c0,0,.251.665.278.745s.046.064.046.064.49-.265.446-.715c0,0,0-.163-.2.014,0,0-.393-.048-.432-.66,0,0-.06-.354.219-.373,0,0,.267.062.076.3,0,0-.182.672.789.271C519.838,165.791,520.224,165.5,519.854,164.927Z" transform="translate(-516.577 -164.414)" fill="#fff"/></g><path d="M518.438,167.195a.764.764,0,0,1-.6-.343.2.2,0,0,1-.03-.189.136.136,0,0,1,.124-.06.469.469,0,0,1,.1.014.853.853,0,0,0-.113-.669.257.257,0,0,0-.166-.1c-.069.025-.09.044-.092.055s.034.067.062.087a.313.313,0,0,1,.2.235c.025.2-.191.393-.214.414a1.255,1.255,0,0,1-.6.232.271.271,0,0,1-.287-.2,1.077,1.077,0,0,1,.044-1.46,3.423,3.423,0,0,1,1.815-.814,1.379,1.379,0,0,1,.239-.018,1.238,1.238,0,0,1,1.04.547c.4.619-.032.952-.039.957l-.011.009a1.552,1.552,0,0,1-.529.133h0a.36.36,0,0,1-.3-.127.485.485,0,0,1-.055-.366l.014-.023c.044-.053.06-.1.051-.122s-.057-.055-.081-.064a.167.167,0,0,0-.1.048.37.37,0,0,0-.039.239c.03.458.262.57.34.6.115-.09.2-.1.26-.041a.149.149,0,0,1,.037.1.909.909,0,0,1-.483.78l-.016.009h-.023c-.074,0-.1-.085-.11-.117-.025-.076-.276-.738-.278-.743a1.372,1.372,0,0,0-.12-.2,1.334,1.334,0,0,0,.023.219l.294.881-.064.025A.749.749,0,0,1,518.438,167.195Zm-.5-.449.016.03a.615.615,0,0,0,.481.276.671.671,0,0,0,.175-.025l-.255-.764c-.03-.149-.048-.333.011-.4a.1.1,0,0,1,.071-.037c.064,0,.138.055.283.32.014.039.244.644.281.752a.734.734,0,0,0,.359-.612.405.405,0,0,0-.092.062l-.025.021-.03-.007c-.018,0-.451-.067-.49-.724a.473.473,0,0,1,.067-.343.291.291,0,0,1,.214-.108h.011l.009,0a.233.233,0,0,1,.131.4.3.3,0,0,0,.03.225.224.224,0,0,0,.188.067h0a1.271,1.271,0,0,0,.465-.117c.044-.037.3-.285,0-.759a1.1,1.1,0,0,0-.92-.483,1.054,1.054,0,0,0-.221.021,3.341,3.341,0,0,0-1.734.775.922.922,0,0,0-.023,1.279l.016.016v.023c0,.014.023.094.152.094a1.048,1.048,0,0,0,.515-.212c.039-.03.173-.168.159-.274-.007-.051-.053-.094-.133-.133-.028-.018-.147-.117-.127-.235.014-.076.083-.133.2-.17l.023,0a.4.4,0,0,1,.283.145,1.083,1.083,0,0,1,.136.872l-.011.087-.085-.034A.667.667,0,0,0,517.941,166.746Z" transform="translate(-516.547 -164.384)" fill="#fff"/><g transform="translate(2.275 1.658)"><g transform="translate(0.073 0.069)"><path d="M518.04,166.726a.623.623,0,0,1-.1.046c-.053.014-.044-.053-.06-.09a1.04,1.04,0,0,1-.048-.117,1.865,1.865,0,0,0-.122-.232,1,1,0,0,1-.076-.2c-.021-.083-.007-.175-.032-.26a.859.859,0,0,1-.035-.1.233.233,0,0,1,.014-.136.542.542,0,0,1,.064-.085.476.476,0,0,1,.11-.078c.071-.03.147-.053.223-.081a.7.7,0,0,1,.09-.03c.021,0,.037.009.053.009.087,0,.154-.1.2-.152s.138-.12.228-.076.06.225.032.315a1.158,1.158,0,0,1-.131.308,2.113,2.113,0,0,0-.159.432.544.544,0,0,0,.055.2s.074.136-.041.2C518.314,166.611,518.2,166.667,518.04,166.726Z" transform="translate(-517.567 -165.135)" fill="#fff"/></g><path d="M517.976,166.885c-.09,0-.108-.085-.113-.115l0-.021-.016-.039-.035-.085a.557.557,0,0,0-.067-.133l-.051-.087a.941.941,0,0,1-.083-.212.71.71,0,0,1-.016-.138.37.37,0,0,0-.011-.115l-.011-.032a.255.255,0,0,1-.025-.078.247.247,0,0,1,.021-.177.43.43,0,0,1,.074-.1.335.335,0,0,1,.131-.09.787.787,0,0,1,.145-.058c.028-.009.055-.018.083-.03l.044.06-.025-.064a.239.239,0,0,1,.092-.028c.028,0,.044,0,.055,0h0c.048,0,.09-.051.124-.092l.032-.034a.3.3,0,0,1,.212-.11.19.19,0,0,1,.1.023c.108.053.133.186.069.391a1.183,1.183,0,0,1-.143.333,1.99,1.99,0,0,0-.145.4.537.537,0,0,0,.039.152.216.216,0,0,1-.062.306,2.549,2.549,0,0,1-.285.122l-.03.014a.259.259,0,0,1-.071.035Zm.152-1.4a.14.14,0,0,0-.06.018l-.019,0-.09.035a.939.939,0,0,0-.129.044.6.6,0,0,0-.09.062.469.469,0,0,0-.053.076.134.134,0,0,0,0,.083.218.218,0,0,0,.014.046l.018.048a.515.515,0,0,1,.018.156.66.66,0,0,0,.014.1,1.076,1.076,0,0,0,.069.182c.014.028.03.051.046.078a.748.748,0,0,1,.081.161l.032.076.016.041.007.032v0c.021-.009.039-.023.058-.03a1.9,1.9,0,0,0,.267-.113c.046-.025.018-.083.009-.1a.546.546,0,0,1-.06-.23,1.751,1.751,0,0,1,.163-.467,1.167,1.167,0,0,0,.131-.3c.041-.143.025-.214,0-.228-.048-.023-.083,0-.143.06l-.028.03a.319.319,0,0,1-.225.145A.1.1,0,0,1,518.127,165.482Z" transform="translate(-517.536 -165.105)" fill="#fff"/></g><g transform="translate(0.801 2.289)"><g transform="translate(0.071 0.071)"><path d="M518.336,166.514a.386.386,0,0,0,.115-.007c.032-.016.032-.083.028-.113a.473.473,0,0,0-.035-.124c-.03-.051-.067-.094-.094-.145a1.1,1.1,0,0,1-.055-.143c-.011-.039-.032-.071-.046-.108s-.03-.071-.044-.11-.034-.057-.048-.092a.858.858,0,0,0-.085-.186c-.018-.018-.025-.055-.048-.067a.173.173,0,0,0-.108,0c-.09.014-.179.028-.269.051-.062.021-.129.032-.193.057a.181.181,0,0,1-.074.028c-.03,0-.06-.009-.087-.009a.6.6,0,0,0-.143.016c-.083.018-.2.039-.221.127-.032.14.221.209.32.239.161.048.327.113.483.177.1.039.163.076.191.182.016.078.009.177.09.216A.619.619,0,0,0,518.336,166.514Z" transform="translate(-516.926 -165.41)" fill="#fff"/></g><path d="M518.2,166.642a.4.4,0,0,1-.175-.034.247.247,0,0,1-.124-.214l-.009-.046c-.016-.076-.053-.1-.145-.138-.182-.071-.338-.129-.481-.175l-.023-.007c-.124-.037-.384-.12-.343-.31.025-.131.179-.163.267-.182a.655.655,0,0,1,.15-.018h.021l.046,0a.078.078,0,0,0,.062-.009l.019,0a.834.834,0,0,1,.133-.046.494.494,0,0,0,.069-.018,1.615,1.615,0,0,1,.251-.051l.028,0c.08-.016.108-.016.149.007a.138.138,0,0,1,.062.064l.011.016a.46.46,0,0,1,.071.143l.021.06.023.037.03.064.023.055.021.053.021.046a.3.3,0,0,1,.025.062,1.114,1.114,0,0,0,.053.136l.044.067c.016.025.035.048.048.074a.468.468,0,0,1,.044.149c.011.094-.016.166-.071.191a.208.208,0,0,1-.078.012h-.085A.857.857,0,0,1,518.2,166.642Zm-.874-.982a.528.528,0,0,0-.119.014c-.062.014-.159.034-.168.071s.074.094.251.147l.018.007c.147.046.308.1.49.177a.329.329,0,0,1,.237.237l.009.06c.007.064.016.092.044.106a.53.53,0,0,0,.253.009l.028,0,.035,0,.039,0h0a.12.12,0,0,0,0-.041.4.4,0,0,0-.03-.1.268.268,0,0,0-.039-.06c-.018-.03-.039-.057-.053-.085a.975.975,0,0,1-.06-.152.146.146,0,0,0-.023-.051l-.025-.057-.018-.048-.023-.062-.023-.044c-.007-.014-.016-.028-.023-.044a.582.582,0,0,1-.027-.074.289.289,0,0,0-.048-.1.11.11,0,0,1-.023-.039.105.105,0,0,0-.051,0l-.048.009a1.761,1.761,0,0,0-.225.044l-.078.023a.513.513,0,0,0-.106.032.23.23,0,0,1-.1.035.244.244,0,0,1-.062-.007Z" transform="translate(-516.895 -165.379)" fill="#fff"/></g></g><g transform="translate(22.681 28.035)"><path d="M517,167.8a1.475,1.475,0,0,1-.7-.327c-.048-.032-.09-.062-.122-.083a6.492,6.492,0,0,1-.711-.522,4.352,4.352,0,0,1-.322-.3c-.06-.06-.122-.122-.186-.179-.042-.039-.085-.087-.136-.145a1,1,0,0,0-.239-.225.16.16,0,1,1,.1-.3,1.011,1.011,0,0,1,.379.313,1.277,1.277,0,0,0,.117.124c.067.062.131.124.193.191.1.1.2.193.3.278a6.763,6.763,0,0,0,.672.5c.037.021.085.053.138.09a2.522,2.522,0,0,0,.462.267.156.156,0,0,1,.145-.055.16.16,0,0,1,.131.186l0,.035a.165.165,0,0,1-.11.143A.335.335,0,0,1,517,167.8Z" transform="translate(-514.475 -165.706)" fill="#fff"/></g><g transform="translate(33.666 23.417)"><path d="M519.562,166.393l-.14-.08-.007.011-.159.025c-.014-.074-.014-.074.244-.428.1-.136.228-.315.258-.363a2,2,0,0,0,.281-.775,1.767,1.767,0,0,0,0-.315,1.757,1.757,0,0,1,.074-.672.162.162,0,0,1,.3.127,1.532,1.532,0,0,0-.048.536,3.547,3.547,0,0,1-.007.359,2.268,2.268,0,0,1-.322.895c-.034.064-.129.2-.276.4A3.241,3.241,0,0,0,519.562,166.393Z" transform="translate(-519.251 -163.698)" fill="#fff"/></g><g transform="translate(28.942 17.83)"><path d="M519.61,162.23a.114.114,0,0,1-.039,0,2.108,2.108,0,0,1-.559-.26,2.989,2.989,0,0,0-.333-.179,3.384,3.384,0,0,0-1.323-.193.162.162,0,0,1,0-.324h0a3.6,3.6,0,0,1,1.447.221,2.909,2.909,0,0,1,.373.2,1.816,1.816,0,0,0,.471.225.158.158,0,0,1,.117.2A.153.153,0,0,1,519.61,162.23Z" transform="translate(-517.197 -161.269)" fill="#fff"/></g><g transform="translate(29.59 29.187)"><path d="M517.642,167.185a.163.163,0,0,1-.136-.076.152.152,0,0,1,0-.177l.147-.221a3.594,3.594,0,0,1,1.178-.485.716.716,0,0,1,.147-.018,1.555,1.555,0,0,1,.43.074.16.16,0,0,1,.032.292,5.878,5.878,0,0,1-1.778.609Z" transform="translate(-517.479 -166.207)" fill="#fff"/></g><g transform="translate(29.913 31.3)"><path d="M518.428,168.421a3.354,3.354,0,0,1-.681-.076.161.161,0,0,1-.124-.191.163.163,0,0,1,.193-.122,2.386,2.386,0,0,0,2.477-.844.159.159,0,0,1,.225-.028.169.169,0,0,1,.03.23A2.693,2.693,0,0,1,518.428,168.421Z" transform="translate(-517.619 -167.126)" fill="#fff"/></g><g transform="translate(28.774 22.848)"><path d="M517.124,163.451" transform="translate(-517.124 -163.451)" fill="#fff" stroke="#000" stroke-linecap="round" stroke-linejoin="round" stroke-width="0.239"/></g><g transform="translate(28.774 22.525)"><path d="M519.461,164.866a3.141,3.141,0,0,1-2.316-1.32.157.157,0,0,1,.067-.216.16.16,0,0,1,.212.055,2.569,2.569,0,0,0,2.5,1.1.162.162,0,0,1,.2.117.169.169,0,0,1-.12.2A2.442,2.442,0,0,1,519.461,164.866Z" transform="translate(-517.124 -163.311)" fill="#fff"/></g><g transform="translate(25.48 22.916)"><path d="M515.853,166.529a.159.159,0,0,1-.062-.306,2.085,2.085,0,0,0,1.52-2.535.161.161,0,0,1,.108-.2.158.158,0,0,1,.2.106,2.419,2.419,0,0,1-1.707,2.926A.131.131,0,0,1,515.853,166.529Z" transform="translate(-515.692 -163.481)" fill="#fff"/></g><g transform="translate(32.676 21.316)"><path d="M520.326,163.505c-.113-.012-.168-.1-.26-.159-.117-.062-.168-.085-.265-.129a1.1,1.1,0,0,0-.432-.09c-.143-.012-.412.044-.508-.1-.172-.246.258-.251.377-.246A1.1,1.1,0,0,1,520.326,163.505Z" transform="translate(-518.82 -162.785)" fill="#fff"/></g><g transform="translate(31.868 22.384)"><path d="M519.3,164.93a1.671,1.671,0,0,1-.478-.074l-.051-.014c-.117-.037-.265-.076-.292-.23a1.052,1.052,0,0,1,.042-.432.05.05,0,0,1,.064-.028.048.048,0,0,1,.028.064.994.994,0,0,0-.032.38c.014.085.1.113.221.149l.048.014a1.31,1.31,0,0,0,.844,0,1.22,1.22,0,0,0,.833-1.444.053.053,0,0,1,.039-.062.059.059,0,0,1,.06.041,1.338,1.338,0,0,1-.9,1.559A1.047,1.047,0,0,1,519.3,164.93Z" transform="translate(-518.469 -163.249)" fill="#fff"/></g><g transform="translate(30.219 20.228)"><path d="M522.48,164.44a.149.149,0,0,1-.133-.067l-.775-1.1a1.328,1.328,0,0,0-1-.368,11.557,11.557,0,0,1-2.755-.306.16.16,0,0,1-.032-.223.157.157,0,0,1,.2-.046,13.523,13.523,0,0,0,2.574.255,1.666,1.666,0,0,1,1.256.481l.789,1.12a.16.16,0,0,1-.037.225A.183.183,0,0,1,522.48,164.44Z" transform="translate(-517.752 -162.312)" fill="#fff"/></g><g transform="translate(28.21 20.379)"><path d="M517.07,163.559a.164.164,0,0,1-.159-.138l0-.044a.951.951,0,0,1,.025-.545.671.671,0,0,1,.315-.377.136.136,0,0,1,.1-.071.184.184,0,0,1,.212.087c.03.076.028.156-.041.2l-.039.023c-.145.085-.193.115-.249.255a.7.7,0,0,0-.007.384l0,.046a.156.156,0,0,1-.131.182Z" transform="translate(-516.879 -162.378)" fill="#fff"/></g><g transform="translate(25.235 21.663)"><path d="M517.1,163.6a.158.158,0,0,1-.147-.092.678.678,0,0,0-.688-.242,1.658,1.658,0,0,0-.219.058,2.485,2.485,0,0,1-.265.071.162.162,0,0,1-.071-.315c.083-.018.168-.044.244-.064a2.409,2.409,0,0,1,.264-.069.97.97,0,0,1,1.024.419.163.163,0,0,1-.076.216A.145.145,0,0,1,517.1,163.6Z" transform="translate(-515.585 -162.936)" fill="#fff"/></g><g transform="translate(21.645 19.451)"><g transform="translate(1.955)"><path d="M515.034,163.95a.161.161,0,0,1-.152-.108.164.164,0,0,1,.1-.2c.165-.055.359-.375.448-.577a2.523,2.523,0,0,0,.14-.566,1.115,1.115,0,0,1,.17-.451.162.162,0,1,1,.265.186.748.748,0,0,0-.115.313,2.894,2.894,0,0,1-.168.649c-.064.145-.3.635-.632.752A.453.453,0,0,1,515.034,163.95Z" transform="translate(-514.874 -161.974)" fill="#fff"/></g><g transform="translate(0 3.326)"><path d="M514.5,168.443a.162.162,0,0,1-.156-.122c-.122-.453-.216-.842-.29-1.267a1.477,1.477,0,0,1,.29-1.231,10.124,10.124,0,0,1,.872-1.152,2.762,2.762,0,0,0,.69-1.122.161.161,0,0,1,.188-.126.156.156,0,0,1,.127.189,3.021,3.021,0,0,1-.759,1.267,9.6,9.6,0,0,0-.849,1.125,1.166,1.166,0,0,0-.241.991c.071.414.163.8.283,1.247a.158.158,0,0,1-.115.2Z" transform="translate(-514.024 -163.42)" fill="#fff"/></g><g transform="translate(0.798 0.975)"><path d="M514.545,164.905a.165.165,0,0,1-.159-.129,1.42,1.42,0,0,1,.023-.5,1.66,1.66,0,0,0,.028-.193,2.129,2.129,0,0,1,.207-.83,1.754,1.754,0,0,1,.46-.547,1.474,1.474,0,0,0,.188-.152,1.582,1.582,0,0,0,.143-.117.162.162,0,0,1,.2.255c-.048.037-.09.074-.131.108-.069.057-.136.113-.214.168a1.4,1.4,0,0,0-.366.444,1.692,1.692,0,0,0-.163.7c-.009.069-.021.145-.035.218a1.189,1.189,0,0,0-.025.384.161.161,0,0,1-.124.191Z" transform="translate(-514.371 -162.398)" fill="#fff"/></g><g transform="translate(0.582 6.288)"><path d="M514.562,165.5a1.3,1.3,0,0,0,.007.412.948.948,0,0,1,.057.347.711.711,0,0,1-.239-.3.877.877,0,0,1-.1-.559,1.408,1.408,0,0,1,.161-.426c.051-.083.218-.32.34-.26s0,.246-.041.315A1.122,1.122,0,0,0,514.562,165.5Z" transform="translate(-514.277 -164.708)" fill="#fff"/></g></g><g transform="translate(31.771 11.656)"><path d="M520.95,165.52a.626.626,0,0,1-.235-.044,1.061,1.061,0,0,1-.469-.377l-.09-.133-.094-.131a1.078,1.078,0,0,1-.122-.191.309.309,0,0,0-.1-.124c-.055-.053-.113-.1-.166-.143a3.592,3.592,0,0,1-.28-.241,3.673,3.673,0,0,1-.577-.777,3.426,3.426,0,0,1-.352-.814,1.361,1.361,0,0,1,.062-.807,7.832,7.832,0,0,1,.86-1.716l.06-.1a4.024,4.024,0,0,1,1.1-1.178.735.735,0,0,1,.6-.138c.471.177.315.736.265.922s-.11.373-.17.557a7.532,7.532,0,0,0-.271,1c-.071.421-.076.6.182.688a.842.842,0,0,0,.6-.016.9.9,0,0,0,.207-.115,1.179,1.179,0,0,1,.276-.154.363.363,0,0,1,.409.117c.223.317-.027,1.095-.03,1.1-.027.08-.062.168-.1.26a2.173,2.173,0,0,0-.218.918c0,.053,0,.064.168.083a.515.515,0,0,1,.421.216.862.862,0,0,1,.037.642.851.851,0,0,1-.49.357,2.587,2.587,0,0,1-.384.067,2.814,2.814,0,0,0-.29.044,2.449,2.449,0,0,0-.3.1l-.172.06A1.075,1.075,0,0,1,520.95,165.52Zm.046-6.613a.519.519,0,0,0-.262.1,3.791,3.791,0,0,0-1.01,1.079l-.06.1a7.463,7.463,0,0,0-.83,1.644,1.067,1.067,0,0,0-.06.616,3.614,3.614,0,0,0,.851,1.458,2.842,2.842,0,0,0,.251.219c.062.051.117.1.177.15a.651.651,0,0,1,.186.241.466.466,0,0,0,.078.122l.108.147a.874.874,0,0,0,.08.115.793.793,0,0,0,.322.276.546.546,0,0,0,.366-.025c.055-.018.11-.039.163-.058a2.738,2.738,0,0,1,.345-.11c.106-.023.214-.034.322-.051a2.358,2.358,0,0,0,.338-.055.581.581,0,0,0,.281-.177.554.554,0,0,0-.021-.345c-.018-.039-.083-.048-.184-.062-.145-.016-.416-.051-.448-.368a2.394,2.394,0,0,1,.239-1.069c.034-.087.067-.17.094-.251a1.432,1.432,0,0,0,.067-.81.087.087,0,0,0-.046.011.629.629,0,0,0-.191.1,1.221,1.221,0,0,1-.287.156,1.164,1.164,0,0,1-.8.016c-.552-.172-.46-.692-.4-1.04a7.694,7.694,0,0,1,.283-1.053c.055-.184.115-.361.168-.547.11-.4.03-.495-.069-.529A.153.153,0,0,0,521,158.907Z" transform="translate(-518.427 -158.585)" fill="#fff"/></g><g transform="translate(22.871 26.045)"><path d="M515.538,166.426a1.064,1.064,0,0,1-.975-.506.048.048,0,0,1,.021-.067.049.049,0,0,1,.069.016c.343.621,1.171.428,1.18.428a1.543,1.543,0,0,0,1.076-1.134.173.173,0,0,0-.021-.14.062.062,0,0,0-.039-.023c-.11-.023-.363-.058-.368-.058a.051.051,0,0,1-.039-.057.046.046,0,0,1,.048-.044h0c.011,0,.26.039.363.062a.132.132,0,0,1,.106.053.3.3,0,0,1,.046.223,1.662,1.662,0,0,1-1.152,1.214A1.268,1.268,0,0,1,515.538,166.426Z" transform="translate(-514.558 -164.841)" fill="#fff"/></g><g transform="translate(20.415 16.871)"><path d="M530.1,170.348c-.051-.288-.094-.575-.134-.86a8.317,8.317,0,0,0-.6-2.426,2.523,2.523,0,0,0-.338-.522,2.29,2.29,0,0,1-.271-.407,1.492,1.492,0,0,1-.163-.653c-.007-.106-.018-.219-.044-.4l-.11-.421c-.03-.074-.051-.143-.074-.212a2.636,2.636,0,0,0-.17-.446,3.578,3.578,0,0,0-.752-.977A7.738,7.738,0,0,0,526.237,162c-.147-.1-.29-.2-.43-.292a9.793,9.793,0,0,0-.993-.633h0a.259.259,0,0,0-.161-.039l-.053-.012a6.607,6.607,0,0,0-2.456-.087l-.191.051a18.351,18.351,0,0,0-2.974.918c-.51.244-1.042.557-1.555.86-.244.147-.488.29-.72.419a5.069,5.069,0,0,0-2.022,1.81c-.1.17-.2.32-.292.46a3.242,3.242,0,0,0-.642,1.513c-.021.154-.035.322-.046.49a4.8,4.8,0,0,1-.124.929,4.532,4.532,0,0,0-.085,1.12v.143a2.92,2.92,0,0,0,.244.991c.044.122.09.239.122.352a4.639,4.639,0,0,0,.4.89,1.982,1.982,0,0,1,.264.635,4.613,4.613,0,0,0,.839,2.5l.168.3a5.032,5.032,0,0,0,1.309,1.527,3.071,3.071,0,0,1,.352.3,2.545,2.545,0,0,0,.741.543.718.718,0,0,1,.386.324,2.77,2.77,0,0,0,.221.278,1.552,1.552,0,0,0,1.1.469,2.353,2.353,0,0,0,.787-.055,1.419,1.419,0,0,1,1.095.138,1.678,1.678,0,0,0,.918.29,1.709,1.709,0,0,0,.313-.028,1.017,1.017,0,0,0,.8-.764c.087-.209.152-.334.262-.361a1.366,1.366,0,0,1,.3-.039l.322-.016a1.444,1.444,0,0,0,1.017-.357l.14-.12c.251-.221.4-.338.609-.292.131.028.276.057.483.1a1.343,1.343,0,0,0,.6.041,1.092,1.092,0,0,0,1-1.138,1.4,1.4,0,0,0,.7-.262l.083-.053a1.16,1.16,0,0,0,.4-.4c-.025.025-.048.055-.076.081a1.055,1.055,0,0,1-.842.2,2.3,2.3,0,0,1-.752-.184.344.344,0,0,0-.122.219l-.021.219c-.041.462-.053.6-.474.678a.819.819,0,0,1-.384-.044c-.166-.039-.32-.071-.455-.1a1.285,1.285,0,0,0-1.159.439l-.129.11a.816.816,0,0,1-.632.207l-.329.016a1.559,1.559,0,0,0-.419.06,1.124,1.124,0,0,0-.713.771c-.074.248-.166.308-.322.347a1.051,1.051,0,0,1-.8-.2,1.959,1.959,0,0,0-.531-.216,1.4,1.4,0,0,1-.38.382,1.673,1.673,0,0,1-.833.225,1.541,1.541,0,0,1-.918-.3,1.5,1.5,0,0,1-.474-.619,3.093,3.093,0,0,1-.15-.448,1.481,1.481,0,0,0-.361-.2,1.952,1.952,0,0,1-.541-.409,3.551,3.551,0,0,0-.428-.368,4.257,4.257,0,0,1-1.113-1.311l-.175-.3a4.068,4.068,0,0,1-.752-2.167,2.064,2.064,0,0,0-.34-.957,4.41,4.41,0,0,1-.35-.775c-.037-.124-.085-.258-.138-.393a2.459,2.459,0,0,1-.2-.764V169.5a4.145,4.145,0,0,1,.064-.945,5.63,5.63,0,0,0,.145-1.051c.009-.161.023-.317.041-.458a2.657,2.657,0,0,1,.538-1.24c.1-.15.2-.308.313-.488a4.423,4.423,0,0,1,1.78-1.573c.239-.136.483-.278.736-.43.5-.292,1.016-.6,1.5-.83a18.376,18.376,0,0,1,2.859-.874l.191-.048a5.866,5.866,0,0,1,2.162.092l.11.021a10.257,10.257,0,0,1,.867.561c.145.1.29.2.442.3a7.039,7.039,0,0,1,1.109.943,2.936,2.936,0,0,1,.63.805,2.265,2.265,0,0,1,.131.352,1.4,1.4,0,0,0,.078.216l.085.345c.018.131.027.244.037.338a2.124,2.124,0,0,0,.225.874,2.8,2.8,0,0,0,.343.524,2.135,2.135,0,0,1,.265.4,7.951,7.951,0,0,1,.54,2.245c.039.294.083.589.131.879a3.1,3.1,0,0,1,.007,1.557,6.517,6.517,0,0,0-.223,1.1c.025.051.051.1.076.147a3.522,3.522,0,0,1,.389,1.5,6.923,6.923,0,0,0,.087-.713l.014-.117a8.4,8.4,0,0,1,.274-1.73A3.693,3.693,0,0,0,530.1,170.348Z" transform="translate(-513.49 -160.852)" fill="#fff"/></g><g transform="translate(0 39.003)"><g transform="translate(0 2.601)"><path d="M516.627,179.928a13.382,13.382,0,0,0,3.061-2.047,7.94,7.94,0,0,0,2.047-2.85l.081-.159c1.483,0,2.969.053,4.448.159s2.953.253,4.425.446c1.382.189,2.746.446,4.1.761a32.924,32.924,0,0,1,3.988,1.208c.106.053.225.108.366.17s.281.117.423.17a1.409,1.409,0,0,0,.407.094.589.589,0,0,0,.379-.12,1.252,1.252,0,0,0,.513-.6,1.147,1.147,0,0,0,.023-.681,1.592,1.592,0,0,0-.352-.644,1.84,1.84,0,0,0-.6-.46,26.739,26.739,0,0,0-3.834-1.339,38.231,38.231,0,0,0-4.016-.839c-1.366-.209-2.737-.366-4.11-.46s-2.725-.163-4.055-.2h-1.943a1.465,1.465,0,0,0-1.1-.892c-.4-.09-.653-.028-.75.182a1.817,1.817,0,0,0-.14.734q-1.632.055-3.3.212c-1.111.1-2.206.264-3.28.471a25.949,25.949,0,0,0-3.162.828,18.864,18.864,0,0,0-2.942,1.247,10.877,10.877,0,0,0-1.014.632,4.685,4.685,0,0,0-.865.787,3.642,3.642,0,0,0-.6.982,2.8,2.8,0,0,0-.2,1.2,2.33,2.33,0,0,0,.566,1.481,3.3,3.3,0,0,0,1.244.853,6.229,6.229,0,0,0,1.58.382,10.941,10.941,0,0,0,1.571.062,19.571,19.571,0,0,0,3.505-.511A16.708,16.708,0,0,0,516.627,179.928Zm-5.656-.106a13.5,13.5,0,0,1-1.417.221,7.2,7.2,0,0,1-1.38.03,3.125,3.125,0,0,1-1.129-.29,1.4,1.4,0,0,1-.7-.736,1.218,1.218,0,0,1,.147-1.09,3.03,3.03,0,0,1,.943-.865,6.791,6.791,0,0,1,1.431-.646c.545-.173,1.076-.322,1.6-.446s1-.219,1.433-.288.748-.12.957-.156c1.086-.175,2.178-.315,3.271-.421s2.194-.184,3.3-.237a.879.879,0,0,1-.055.094.789.789,0,0,0-.051.092,7.056,7.056,0,0,1-1.21,1.431,10.973,10.973,0,0,1-1.506,1.152,12.457,12.457,0,0,1-1.684.909,14.567,14.567,0,0,1-1.743.656c-.23.087-.538.182-.931.288S511.427,179.725,510.972,179.822Z" transform="translate(-504.614 -171.606)" fill="#fff"/></g><g transform="translate(10.734 7.848)"><path d="M519.075,175.923a2.146,2.146,0,0,0,.34-.373,1.115,1.115,0,0,0,.2-.43.606.606,0,0,0-.085-.474,1.328,1.328,0,0,0-.955-.729,1.139,1.139,0,0,0-1.122.361,29.634,29.634,0,0,0-3.721,5.111,37.262,37.262,0,0,0-2.689,5.75q-.479,1.19-.853,2.362c-.253.784-.481,1.576-.695,2.369a10.615,10.615,0,0,0-.2,1.175,2.109,2.109,0,0,0,.219,1.134,1.83,1.83,0,0,0,.34.481,1.416,1.416,0,0,0,.448.327.479.479,0,0,0,.437-.016.768.768,0,0,0,.3-.55,37.016,37.016,0,0,1,1.608-5.619,39.883,39.883,0,0,1,2.429-5.295q.79-1.4,1.672-2.732a19.932,19.932,0,0,1,1.973-2.514C518.824,176.153,518.944,176.043,519.075,175.923Z" transform="translate(-509.28 -173.887)" fill="#fff"/></g><g transform="translate(18.59 8.603)"><path d="M550.745,182.69a1.708,1.708,0,0,0-.761.554,11.325,11.325,0,0,1-3.728,3,2.9,2.9,0,0,1-2.732-.012,1.476,1.476,0,0,1-.58-.616,2.243,2.243,0,0,1-.209-.828,3.375,3.375,0,0,0,1.511.29,4.545,4.545,0,0,0,1.589-.34,4.5,4.5,0,0,0,1.364-.895,3.09,3.09,0,0,0,.839-1.366,2.167,2.167,0,0,0,.014-1.221,2.023,2.023,0,0,0-.628-.957,2.62,2.62,0,0,0-1.157-.55,4.191,4.191,0,0,0-1.562-.028,4.065,4.065,0,0,0-1.773.718,5.247,5.247,0,0,0-1.286,1.355,5.416,5.416,0,0,0-.658,1.461,11.276,11.276,0,0,1-3.714,2.99,2.892,2.892,0,0,1-2.73-.012,1.456,1.456,0,0,1-.577-.616,2.156,2.156,0,0,1-.209-.828,3.357,3.357,0,0,0,1.509.29,4.456,4.456,0,0,0,2.956-1.235,3.084,3.084,0,0,0,.837-1.366,2.147,2.147,0,0,0,.014-1.221,2.024,2.024,0,0,0-.628-.957,2.608,2.608,0,0,0-1.157-.55,4.192,4.192,0,0,0-1.562-.028,4.1,4.1,0,0,0-1.773.718,5.258,5.258,0,0,0-1.288,1.355,5.623,5.623,0,0,0-.655,1.461,13.439,13.439,0,0,1-1.665,1.81,3.562,3.562,0,0,1-1.576.931.994.994,0,0,1-1.118-.368,1.191,1.191,0,0,1,.067-1.207,6.092,6.092,0,0,1,.524-.828q.342-.459.736-.906c.262-.3.527-.58.786-.851a6.783,6.783,0,0,1,.736-.669.832.832,0,0,0,.248-.471,1.035,1.035,0,0,0-.025-.577.709.709,0,0,0-.327-.4.733.733,0,0,0-.633.028c-.333.156-.665.308-1,.444s-.642.265-.932.37a6.376,6.376,0,0,1-.8.232,1.414,1.414,0,0,1-.6.028,1.094,1.094,0,0,0,.011-.8.9.9,0,0,0-.471-.5,1.062,1.062,0,0,0-.748-.016,1.783,1.783,0,0,0-.816.635,1.413,1.413,0,0,0-.327.982,1.7,1.7,0,0,0,.3.879,2.655,2.655,0,0,1-.184.593,3.288,3.288,0,0,1-.393.644,12.8,12.8,0,0,1-.879,1.09,11.064,11.064,0,0,1-.945.929,3.948,3.948,0,0,1-.881.593.761.761,0,0,1-.706.037c-.163-.085-.2-.267-.134-.552a5.592,5.592,0,0,1,.368-.982c.175-.375.368-.78.577-1.208a10.191,10.191,0,0,0,.524-1.276,2.523,2.523,0,0,0,.131-1.063,1.162,1.162,0,0,0-.391-.775,1.383,1.383,0,0,0-.922-.379,3.312,3.312,0,0,0-1.088.172,5.327,5.327,0,0,0-1.116.513,7.881,7.881,0,0,0-.973.669q.866-1.473,1.548-2.707c.2-.35.391-.695.591-1.037s.382-.656.538-.943.3-.536.421-.736a3.614,3.614,0,0,0,.237-.432c.156-.315.15-.554-.025-.711a1.33,1.33,0,0,0-.895-.232,2.326,2.326,0,0,0-1.037.2,1.6,1.6,0,0,0-.7.773c-.069.156-.2.432-.391.826s-.414.858-.669,1.38-.529,1.1-.828,1.718-.593,1.233-.892,1.826-.577,1.164-.842,1.693-.488.984-.681,1.35c0,.018-.009.03-.027.03-.313.577-.568,1.09-.759,1.534a2.421,2.421,0,0,0-.265.984,2.687,2.687,0,0,0,.329,1.09,1.588,1.588,0,0,0,.564.58.754.754,0,0,0,.619.074.735.735,0,0,0,.46-.4c.1-.209.216-.478.343-.8s.274-.688.455-1.079a11.861,11.861,0,0,1,.683-1.244,11.109,11.109,0,0,1,.987-1.341,4.459,4.459,0,0,1,.72-.711,6.421,6.421,0,0,1,.7-.46,1.629,1.629,0,0,1,.524-.2c.14-.016.228.007.265.078.035.106-.021.271-.159.5s-.308.5-.5.814-.384.672-.577,1.065a5.025,5.025,0,0,0-.419,1.249,2.011,2.011,0,0,0,.025,1.088,1.863,1.863,0,0,0,.51.812,2.068,2.068,0,0,0,.867.474,2.758,2.758,0,0,0,1.118.067,3.574,3.574,0,0,0,1.286-.474,8.518,8.518,0,0,0,1.327-.957,12.327,12.327,0,0,0,1.2-1.221,10,10,0,0,0,.961-1.288c.014-.021.023-.041.037-.064s.032-.023.041-.039a4,4,0,0,0,.38-.736c.1-.246.179-.471.248-.683a2.256,2.256,0,0,0,.78-.078c.235-.067.419-.131.561-.184-.106.09-.283.253-.536.485a5.357,5.357,0,0,0-.738.867,4.889,4.889,0,0,0-.577,1.143,2.622,2.622,0,0,0-.094,1.341,1.964,1.964,0,0,0,.646,1.15,2.733,2.733,0,0,0,1.21.609,4.163,4.163,0,0,0,2.979-.5,9.455,9.455,0,0,0,1.976-1.615,4.21,4.21,0,0,0,.361.984,2.931,2.931,0,0,0,1.154,1.207,3.737,3.737,0,0,0,2.323.552,6.509,6.509,0,0,0,2.443-.708,9.787,9.787,0,0,0,2.256-1.592c.156-.14.3-.288.444-.432a4.226,4.226,0,0,0,.359.973,2.927,2.927,0,0,0,1.152,1.207,3.747,3.747,0,0,0,2.328.552,6.5,6.5,0,0,0,2.438-.708,9.75,9.75,0,0,0,2.259-1.592,9.272,9.272,0,0,0,1.746-2.137,1.885,1.885,0,0,0,.347-.943.679.679,0,0,0-.2-.554A.611.611,0,0,0,550.745,182.69Zm-6.656-.879a1.915,1.915,0,0,1,1.3-.564.783.783,0,0,1,.736.357.72.72,0,0,1-.03.773,1.791,1.791,0,0,1-.616.628,2.689,2.689,0,0,1-.81.343,2.357,2.357,0,0,1-.856.053,1.727,1.727,0,0,1-.711-.235A4.227,4.227,0,0,1,544.088,181.812Zm-8.979,0a1.919,1.919,0,0,1,1.3-.564.777.777,0,0,1,.734.357.729.729,0,0,1-.025.773,1.873,1.873,0,0,1-.616.628,2.679,2.679,0,0,1-.817.343,2.33,2.33,0,0,1-.853.053,1.741,1.741,0,0,1-.708-.235A4.263,4.263,0,0,1,535.109,181.812Z" transform="translate(-512.696 -174.215)" fill="#fff"/></g><g transform="translate(60.291)"><path d="M560.812,182.488a13.88,13.88,0,0,0,1.84-2.666,9.067,9.067,0,0,0,.971-2.951,5.6,5.6,0,0,0-.432-3.061,4.451,4.451,0,0,0-1.47-1.916,6.843,6.843,0,0,0-2.219-1.051,10.874,10.874,0,0,0-2.666-.363,22.333,22.333,0,0,0-2.808.115q-1.394.145-2.666.4t-2.217.458q-2,.449-4.018,1.063a40.049,40.049,0,0,0-3.977,1.447,33.458,33.458,0,0,0-3.783,1.877,24.725,24.725,0,0,0-3.425,2.364,11.352,11.352,0,0,0-1.617,1.716,7.768,7.768,0,0,0-1.233,2.247,4.371,4.371,0,0,0-.186,2.309,2.961,2.961,0,0,0,1.513,1.918,5.789,5.789,0,0,0,2.351.828,10.251,10.251,0,0,0,2.728-.028,16.716,16.716,0,0,0,2.889-.669,20.671,20.671,0,0,0,2.785-1.129,22.434,22.434,0,0,0,2.468-1.417,15.487,15.487,0,0,0,1.927-1.5,6.758,6.758,0,0,0,.515-.58,2.042,2.042,0,0,0,.361-.669,1.84,1.84,0,0,0,.1-.72,1.418,1.418,0,0,0-.292-.734.886.886,0,0,0-.6-.435.833.833,0,0,0-.552.184,3.317,3.317,0,0,0-.511.5c-.168.2-.311.366-.435.488a13.218,13.218,0,0,1-2.479,1.852,19.231,19.231,0,0,1-3.151,1.5,16.437,16.437,0,0,1-3.349.867,8.351,8.351,0,0,1-3.07-.067,1.567,1.567,0,0,1-1.392-1.916,4.032,4.032,0,0,1,1.023-2.243,11.218,11.218,0,0,1,2.1-1.879,20.367,20.367,0,0,1,2.507-1.495c.865-.437,1.612-.807,2.247-1.1a42.68,42.68,0,0,1,6.18-2.311,37.5,37.5,0,0,1,6.474-1.26c.5-.053,1.136-.11,1.888-.17a14.41,14.41,0,0,1,2.272,0,8.432,8.432,0,0,1,2.139.446,2.945,2.945,0,0,1,1.523,1.143,3.509,3.509,0,0,1,.695,1.9,4.753,4.753,0,0,1-.354,1.969,8.422,8.422,0,0,1-1.1,1.93,15.52,15.52,0,0,1-1.536,1.771c-.547.554-1.1,1.058-1.651,1.513s-1.028.821-1.431,1.1c-.6.416-1.23.83-1.9,1.23a22.337,22.337,0,0,1-2.088,1.1,17.853,17.853,0,0,1-2.217.851,12.343,12.343,0,0,1-2.275.488q.341-.445.711-.84t.759-.764a2.349,2.349,0,0,1,.488-.354c.2-.11.4-.23.6-.352s.4-.248.577-.382a1.456,1.456,0,0,0,.407-.409.909.909,0,0,0,.142-.745,1.211,1.211,0,0,0-.377-.644,1.5,1.5,0,0,0-.7-.354.977.977,0,0,0-.75.117,10.367,10.367,0,0,0-2.489,2.049,16.915,16.915,0,0,0-1.923,2.624c-.278-.09-.559-.177-.839-.276a1.88,1.88,0,0,0-.734-.12,1.046,1.046,0,0,0-.851.435,1,1,0,0,0-.078.787,1.935,1.935,0,0,0,.469.817,1.824,1.824,0,0,0,.775.511.131.131,0,0,1,.055.014.224.224,0,0,0,.078.011c-.1.212-.221.442-.34.683s-2.215,4.947-2.3,5.2a4.243,4.243,0,0,0-.184.75,1.857,1.857,0,0,0,.03.706,2.653,2.653,0,0,0,.377.934.882.882,0,0,0,.527.4.606.606,0,0,0,.538-.2,1.828,1.828,0,0,0,.421-.853c.12-.474.265-.952.432-1.431s2.353-5.4,2.6-5.858a11.6,11.6,0,0,0,3.56-.354,19.51,19.51,0,0,0,3.491-1.263,24.437,24.437,0,0,0,3.215-1.822,27.723,27.723,0,0,0,2.758-2.1A20.9,20.9,0,0,0,560.812,182.488Z" transform="translate(-530.827 -170.475)" fill="#fff"/></g><g transform="translate(87.022 8.603)"><path d="M564.022,180.147a1.812,1.812,0,0,0-.35-.761,1.127,1.127,0,0,0-.752-.446,2.049,2.049,0,0,0-.681.064,3.258,3.258,0,0,0-.736.29,3.714,3.714,0,0,0-.681.471,2.911,2.911,0,0,0-.524.591c-.055.085-.154.237-.3.444s-.315.448-.5.713-.393.545-.619.851-.446.6-.656.881l-.007.009c-.221.285-.462.559-.715.835a1.176,1.176,0,0,1,.276-.662.324.324,0,0,0,.143-.274.4.4,0,0,0-.143-.264.853.853,0,0,0-.352-.17.912.912,0,0,0-.488.025,2.092,2.092,0,0,0-1.339,1.732,2.939,2.939,0,0,0,.094,1.173,3.977,3.977,0,0,1-1.145.524,1.134,1.134,0,0,1-.975-.145.842.842,0,0,1-.313-.909,5.99,5.99,0,0,1,.6-1.587c.073-.161.182-.377.331-.66s.315-.6.5-.954.386-.747.614-1.168.453-.849.683-1.286a6.912,6.912,0,0,1,.918-.29,8.929,8.929,0,0,1,1.01-.2,3.145,3.145,0,0,1,.906,0,.987.987,0,0,1,.628.3.621.621,0,0,0,.646.23,1.393,1.393,0,0,0,.7-.377,2.164,2.164,0,0,0,.495-.708,1.091,1.091,0,0,0,.083-.775,1.157,1.157,0,0,0-.421-.524,2.07,2.07,0,0,0-.853-.343,4.421,4.421,0,0,0-1.274-.028,6.375,6.375,0,0,0-1.654.448l1.074-2.047c.163-.315.15-.554-.023-.711a1.33,1.33,0,0,0-.895-.232,2.316,2.316,0,0,0-1.035.2,1.57,1.57,0,0,0-.695.773l-1.339,2.783a6.8,6.8,0,0,1-1.656.262c-.439,0-.718-.094-.839-.29a.332.332,0,0,0-.448-.143.984.984,0,0,0-.432.4,1.183,1.183,0,0,0-.145.683.845.845,0,0,0,.421.658,1.992,1.992,0,0,0,.973.354,5.931,5.931,0,0,0,1.18.014c-.384.789-.759,1.55-1.118,2.284q-.293.6-.536,1.079a11.264,11.264,0,0,1-3.7,2.976,2.892,2.892,0,0,1-2.73-.012,1.46,1.46,0,0,1-.58-.616,2.286,2.286,0,0,1-.209-.828,3.373,3.373,0,0,0,1.511.29,4.454,4.454,0,0,0,2.955-1.235,3.107,3.107,0,0,0,.839-1.366,2.143,2.143,0,0,0,.009-1.221,1.969,1.969,0,0,0-.625-.957,2.609,2.609,0,0,0-1.157-.55,4.189,4.189,0,0,0-1.562-.028,4.065,4.065,0,0,0-1.773.718,5.2,5.2,0,0,0-1.283,1.355,5.429,5.429,0,0,0-.738,1.7,5.5,5.5,0,0,0-.145,1.787,4.349,4.349,0,0,0,.474,1.638,2.909,2.909,0,0,0,1.157,1.207,3.726,3.726,0,0,0,2.323.552,6.534,6.534,0,0,0,2.443-.708,9.661,9.661,0,0,0,1.957-1.332,1.955,1.955,0,0,0,.1.345,2.026,2.026,0,0,0,.812,1,2.692,2.692,0,0,0,1.523.384,5.1,5.1,0,0,0,1.838-.343,7.5,7.5,0,0,0,1.583-.846,3.963,3.963,0,0,0,1.543.821,4.124,4.124,0,0,0,2.243.055,3.855,3.855,0,0,0,1.746-.975,3.371,3.371,0,0,0,.911-1.693,3.406,3.406,0,0,0-.281-2.139,5.009,5.009,0,0,0-.4-.722,1.621,1.621,0,0,1-.278-.672.644.644,0,0,1,.081-.382,1.045,1.045,0,0,1,.29-.34,1,1,0,0,1,.446-.2,1.137,1.137,0,0,1,.577.053.29.29,0,0,0,.435-.159A1.172,1.172,0,0,0,564.022,180.147Zm-18.232,1.665a1.923,1.923,0,0,1,1.3-.564.781.781,0,0,1,.736.357.734.734,0,0,1-.025.773,1.812,1.812,0,0,1-.616.628,2.694,2.694,0,0,1-.814.343,2.342,2.342,0,0,1-.853.053,1.739,1.739,0,0,1-.711-.235A4.254,4.254,0,0,1,545.79,181.812Zm14.807,3.742a1.459,1.459,0,0,1-.72.485,1.377,1.377,0,0,1-.973-.067,3.059,3.059,0,0,1-.57-.281,10.3,10.3,0,0,0,.865-1.145.89.89,0,0,0,.2-.225l.895-1.288.469.84a1.426,1.426,0,0,1,.173.892A1.58,1.58,0,0,1,560.6,185.554Z" transform="translate(-542.45 -174.215)" fill="#fff"/></g><g transform="translate(10.068 34.547)"><g transform="translate(7.773)"><g transform="translate(0 0.078)"><path d="M515.281,185.934a1.469,1.469,0,0,1,0,2.114,1.663,1.663,0,0,1-1.166.4h-.978V190.3h-.766v-4.768h1.744A1.663,1.663,0,0,1,515.281,185.934Zm-2.144.278v1.566h.959a.866.866,0,0,0,.628-.214.765.765,0,0,0,.216-.568.781.781,0,0,0-.216-.57.875.875,0,0,0-.628-.214Z" transform="translate(-512.371 -185.529)" fill="#fff"/></g><g transform="translate(4.207 0.078)"><path d="M517.192,190.3l-1.355-1.845h-.874V190.3H514.2v-4.768h1.739a1.661,1.661,0,0,1,1.168.4,1.355,1.355,0,0,1,.448,1.053,1.433,1.433,0,0,1-.239.823,1.415,1.415,0,0,1-.678.524l1.433,1.962Zm-2.229-2.518h.961a.851.851,0,0,0,.621-.219.753.753,0,0,0,.225-.563.769.769,0,0,0-.225-.57.869.869,0,0,0-.621-.214h-.961Z" transform="translate(-514.2 -185.529)" fill="#fff"/></g><g transform="translate(8.756 0.078)"><path d="M519.315,186.217h-2.371v1.219h1.783v.667h-1.783v1.509H519.4v.685h-3.222v-4.768h3.137Z" transform="translate(-516.178 -185.529)" fill="#fff"/></g><g transform="translate(12.862)"><path d="M522.487,185.495v4.846h-.761v-2.988l-1.364,1.787H520.1l-1.368-1.787v2.988h-.766v-4.846h.271l2,2.668,2-2.668Z" transform="translate(-517.963 -185.495)" fill="#fff"/></g><g transform="translate(18.579 0.078)"><path d="M521.217,190.3h-.768v-4.768h.768Z" transform="translate(-520.449 -185.529)" fill="#fff"/></g><g transform="translate(20.493 0.078)"><path d="M525.2,188.37a1.984,1.984,0,0,1-.545,1.47,2.128,2.128,0,0,1-2.824,0,1.994,1.994,0,0,1-.545-1.47v-2.841h.766v2.891a1.246,1.246,0,0,0,.336.931,1.2,1.2,0,0,0,.863.324,1.164,1.164,0,0,0,.849-.324,1.235,1.235,0,0,0,.331-.931v-2.891h.771Z" transform="translate(-521.281 -185.529)" fill="#fff"/></g><g transform="translate(25.548)"><path d="M528.005,185.495v4.846h-.766v-2.988l-1.364,1.787h-.258l-1.373-1.787v2.988h-.766v-4.846h.269l2,2.668,2-2.668Z" transform="translate(-523.479 -185.495)" fill="#fff"/></g><g transform="translate(33.288 0.078)"><path d="M530.223,186.187a2.449,2.449,0,0,1,0,3.443,2.628,2.628,0,0,1-1.881.667h-1.5v-4.768h1.5A2.665,2.665,0,0,1,530.223,186.187Zm-2.613.039v3.386h.72a1.824,1.824,0,0,0,1.325-.478,1.639,1.639,0,0,0,.488-1.228,1.6,1.6,0,0,0-.483-1.221,1.859,1.859,0,0,0-1.329-.458Z" transform="translate(-526.844 -185.529)" fill="#fff"/></g><g transform="translate(37.991)"><path d="M533.16,186.208a2.46,2.46,0,0,1,0,3.5,2.565,2.565,0,0,1-3.544,0,2.471,2.471,0,0,1,0-3.5,2.559,2.559,0,0,1,3.544,0Zm-2.99.483a1.879,1.879,0,0,0,0,2.525,1.741,1.741,0,0,0,2.449,0,1.873,1.873,0,0,0,0-2.518,1.747,1.747,0,0,0-2.447-.007Z" transform="translate(-528.889 -185.495)" fill="#fff"/></g><g transform="translate(43.617)"><path d="M535.822,186.493l-.559.455a1.748,1.748,0,0,0-2.659-.258,1.914,1.914,0,0,0,.018,2.537,1.666,1.666,0,0,0,1.263.506,1.611,1.611,0,0,0,1.424-.725V188.5h-1.465v-.674h2.226v1.341a2.413,2.413,0,0,1-.906.913,2.573,2.573,0,0,1-1.313.343,2.48,2.48,0,0,1-1.789-.706,2.477,2.477,0,0,1,0-3.505,2.458,2.458,0,0,1,1.789-.713A2.3,2.3,0,0,1,535.822,186.493Z" transform="translate(-531.335 -185.495)" fill="#fff"/></g><g transform="translate(50.464 0.078)"><path d="M538.291,186.217h-1.612v4.08h-.764v-4.08h-1.6v-.688h3.979Z" transform="translate(-534.312 -185.529)" fill="#fff"/></g><g transform="translate(55.152 0.078)"><path d="M539.347,190.3l-1.355-1.845h-.876V190.3h-.766v-4.768h1.741a1.673,1.673,0,0,1,1.168.4,1.347,1.347,0,0,1,.448,1.053,1.432,1.432,0,0,1-.239.823,1.414,1.414,0,0,1-.678.524l1.428,1.962Zm-2.231-2.518h.964a.848.848,0,0,0,.616-.219.735.735,0,0,0,.223-.563.75.75,0,0,0-.223-.57.865.865,0,0,0-.616-.214h-.964Z" transform="translate(-536.35 -185.529)" fill="#fff"/></g><g transform="translate(59.703 0.078)"><path d="M541.462,186.217h-2.367v1.219h1.785v.667h-1.785v1.509h2.454v.685h-3.22v-4.768h3.133Z" transform="translate(-538.329 -185.529)" fill="#fff"/></g><g transform="translate(63.37)"><path d="M543.219,189.545h-2.141l-.34.8h-.814l2.1-4.846h.262l2.1,4.846h-.826Zm-1.067-2.636-.8,1.98h1.585Z" transform="translate(-539.923 -185.495)" fill="#fff"/></g><g transform="translate(67.558 0.078)"><path d="M545.723,186.217h-1.61v4.08h-.766v-4.08h-1.6v-.688h3.979Z" transform="translate(-541.744 -185.529)" fill="#fff"/></g><g transform="translate(71.912)"><path d="M546.316,185.732a1.7,1.7,0,0,1,.633.619l-.536.407a1.154,1.154,0,0,0-1-.575.856.856,0,0,0-.513.147.49.49,0,0,0-.209.428.462.462,0,0,0,.152.375,2.272,2.272,0,0,0,.513.3l.538.251a2.644,2.644,0,0,1,.853.575,1.1,1.1,0,0,1,.283.78,1.25,1.25,0,0,1-.453,1,1.733,1.733,0,0,1-1.143.377,2.049,2.049,0,0,1-1.056-.276,1.945,1.945,0,0,1-.738-.761l.538-.407a1.51,1.51,0,0,0,1.249.759.916.916,0,0,0,.6-.182.587.587,0,0,0,.225-.483.505.505,0,0,0-.163-.4,2.308,2.308,0,0,0-.536-.317l-.524-.244a2.654,2.654,0,0,1-.821-.547,1.085,1.085,0,0,1-.292-.773,1.162,1.162,0,0,1,.432-.936,1.629,1.629,0,0,1,1.07-.359A1.736,1.736,0,0,1,546.316,185.732Z" transform="translate(-543.637 -185.495)" fill="#fff"/></g></g><g transform="translate(85.085 2.298)"><rect width="4.636" height="0.454" fill="#fff"/></g><g transform="translate(0 2.298)"><rect width="4.636" height="0.454" fill="#fff"/></g></g></g></g></g></svg>