<svg xmlns="http://www.w3.org/2000/svg" width="285.644" height="68.826" viewBox="0 0 285.644 68.826"><path d="M127.457,272.237V251.922h-6.931V245.6h20.52v6.319h-6.523v20.316Z" transform="translate(-41.136 -223.085)" fill="#b2b4b3"/><path d="M149.5,248.388v20.18h-6.46v-2.241a6.826,6.826,0,0,1-2.757,2.071,7,7,0,0,1-1.632.509,6.86,6.86,0,0,1-1.732.2,6.774,6.774,0,0,1-5.038-1.768,6.992,6.992,0,0,1-1.689-5.087V248.388h6.611v11.288a4.636,4.636,0,0,0,.611,2.871,2.387,2.387,0,0,0,2.173.946,2.807,2.807,0,0,0,2.506-1.15,4.763,4.763,0,0,0,.8-3.171V248.388Z" transform="translate(-30.285 -219.959)" fill="#b2b4b3"/><path d="M140.422,274.491V248.6h6.252v2.621a7.262,7.262,0,0,1,2.424-2.368,6.393,6.393,0,0,1,1.494-.577,7.266,7.266,0,0,1,1.738-.2,7.033,7.033,0,0,1,5.813,2.856,12.2,12.2,0,0,1,2.364,7.606c0,3.109-.609,6.065-2.107,8.018a7.352,7.352,0,0,1-6,2.865,6.947,6.947,0,0,1-3.319-.777,6.577,6.577,0,0,1-2.441-2.3v8.145Zm13.92-15.586a7.485,7.485,0,0,0-1.023-4.283,3.289,3.289,0,0,0-2.9-1.473,3.236,3.236,0,0,0-2.861,1.454,7.679,7.679,0,0,0-.987,4.3,6.68,6.68,0,0,0,1.042,4.015,3.411,3.411,0,0,0,2.918,1.415,3.2,3.2,0,0,0,2.786-1.454,6.807,6.807,0,0,0,1.023-3.977Z" transform="translate(-18.808 -220.311)" fill="#b2b4b3" fill-rule="evenodd"/><path d="M164.523,258.906a7.487,7.487,0,0,0-1.021-4.283,3.3,3.3,0,0,0-2.9-1.473,3.239,3.239,0,0,0-2.861,1.454,7.681,7.681,0,0,0-.985,4.3,6.681,6.681,0,0,0,1.04,4.015,3.411,3.411,0,0,0,2.918,1.415,3.2,3.2,0,0,0,2.789-1.454,6.807,6.807,0,0,0,1.021-3.977ZM150.6,274.491V248.6h6.254v2.621a7.242,7.242,0,0,1,2.424-2.368,6.377,6.377,0,0,1,1.492-.577,7.266,7.266,0,0,1,1.738-.2,7.037,7.037,0,0,1,5.815,2.856,12.182,12.182,0,0,1,2.362,7.606c0,3.109-.609,6.065-2.107,8.018a7.352,7.352,0,0,1-6,2.865,6.947,6.947,0,0,1-3.319-.777,6.593,6.593,0,0,1-2.441-2.3v8.145Z" transform="translate(-7.383 -220.311)" fill="#b2b4b3" fill-rule="evenodd"/><path d="M167.23,256.671l7.485-.019a4.3,4.3,0,0,0-1.017-3.014,3.47,3.47,0,0,0-2.716-1.108,3.31,3.31,0,0,0-2.57,1.053,5.336,5.336,0,0,0-1.182,3.088Zm7.154,5.859h6.32a8.82,8.82,0,0,1-3.493,5.119,10.944,10.944,0,0,1-6.432,1.812,9.78,9.78,0,0,1-7.375-2.829,10.659,10.659,0,0,1-2.736-7.744A11.091,11.091,0,0,1,163.384,251a9.646,9.646,0,0,1,7.394-2.92,9.754,9.754,0,0,1,7.5,2.956q2.754,2.96,2.755,8.171l-.019.739-.017.427H167.415a5.048,5.048,0,0,0,.906,3.234,3.286,3.286,0,0,0,2.7,1.127,3.868,3.868,0,0,0,2.126-.535,3.163,3.163,0,0,0,1.239-1.664Z" transform="translate(3.912 -220.309)" fill="#b2b4b3" fill-rule="evenodd"/><path d="M170.97,268.741V248.449h6.248v3.126a7.277,7.277,0,0,1,2.685-2.888,4.508,4.508,0,0,1,1.834-.509,17.484,17.484,0,0,1,2.311,0l-.1,6.048h-1.734a5.2,5.2,0,0,0-2.377.509,4.08,4.08,0,0,0-1.666,1.494,5.519,5.519,0,0,0-.713,1.868,33.107,33.107,0,0,0-.17,3.771l.034,6.829-6.35.045Z" transform="translate(15.473 -220.246)" fill="#b2b4b3"/><path d="M183.575,268.618l-6.036-20.378h6.805l2.906,14,2.456-14h6.88l2.531,14,2.925-14h6.786l-6.018,20.378h-6.88l-2.718-13.441-2.887,13.441Z" transform="translate(22.844 -220.124)" fill="#b2b4b3"/><path d="M204.527,259.247c-.577.187-1.53.458-2.905.815-.238.068-.556.189-.815.238-.238.068-.675.214-.883.289a2.671,2.671,0,0,0-1.4.783,1.955,1.955,0,0,0-.484,1.39,2.435,2.435,0,0,0,.668,1.745,2.46,2.46,0,0,0,1.761.649,4.1,4.1,0,0,0,2.812-.915,3.943,3.943,0,0,0,1.225-2.786l.017-2.207Zm6.25,9.512H204.7l-.017-1.8a8.8,8.8,0,0,1-3.041,1.8,9.33,9.33,0,0,1-3.574.393,6.45,6.45,0,0,1-4.62-1.615,5.7,5.7,0,0,1-1.687-4.323,6.033,6.033,0,0,1,1.318-4.062,7.691,7.691,0,0,1,4.1-2.182c1.014-.233,2.241-.441,3.737-.645,2.4-.327,3.6-.781,3.608-1.668l.028-.505a1.7,1.7,0,0,0-.715-1.394,3.586,3.586,0,0,0-2.173-.679,3.481,3.481,0,0,0-2.107.611,3.158,3.158,0,0,0-1.15,1.9h-6.084a7.3,7.3,0,0,1,2.682-5.2c1.56-1.125,3.969-1.63,6.863-1.63a14.54,14.54,0,0,1,4.654.611,6.65,6.65,0,0,1,2.99,2.039,5.874,5.874,0,0,1,1.019,2.343,23.939,23.939,0,0,1,.17,4.179l.068,7.678c0,.927.017,4.145.017,4.145Z" transform="translate(38.802 -220.659)" fill="#b2b4b3" fill-rule="evenodd"/><path d="M201.894,268.741V248.449h6.248v3.126a7.273,7.273,0,0,1,2.683-2.888,4.509,4.509,0,0,1,1.836-.509,17.452,17.452,0,0,1,2.309,0l-.1,6.048h-1.732a5.216,5.216,0,0,0-2.379.509,4.075,4.075,0,0,0-1.664,1.494,5.432,5.432,0,0,0-.713,1.868,33.109,33.109,0,0,0-.17,3.771l.034,6.829-6.35.045Z" transform="translate(50.176 -220.246)" fill="#b2b4b3"/><path d="M214.678,256.607l7.485-.019a4.3,4.3,0,0,0-1.017-3.014,3.473,3.473,0,0,0-2.716-1.108,3.31,3.31,0,0,0-2.57,1.053,5.322,5.322,0,0,0-1.182,3.088Zm7.152,5.859h6.322a8.83,8.83,0,0,1-3.493,5.119,10.944,10.944,0,0,1-6.432,1.812,9.777,9.777,0,0,1-7.375-2.829,10.659,10.659,0,0,1-2.736-7.744,11.082,11.082,0,0,1,2.716-7.893,9.643,9.643,0,0,1,7.394-2.92,9.754,9.754,0,0,1,7.5,2.956q2.754,2.961,2.755,8.171l-.019.738-.019.427H214.863a5.061,5.061,0,0,0,.9,3.234,3.29,3.29,0,0,0,2.7,1.127,3.873,3.873,0,0,0,2.126-.535,3.158,3.158,0,0,0,1.237-1.664Z" transform="translate(57.159 -220.381)" fill="#b2b4b3" fill-rule="evenodd"/><path d="M123.163,250.65l-1.318,4.913a4.65,4.65,0,0,1,.38,1.853,4.716,4.716,0,0,1-.028.522q.471.194.921.424l8.357-14.476a4.7,4.7,0,0,1-1.131-6.428,34.325,34.325,0,0,1,8.139,4.648,4.707,4.707,0,0,1-5.876,2.387L124.231,259c.257.166.507.342.749.524a4.673,4.673,0,0,1,2.311-.972l3.483-3.483a4.705,4.705,0,1,1,.879.934l-2.644,2.644a4.7,4.7,0,0,1,2.634,1.734l10.492-6.057a4.7,4.7,0,0,1,2.549-6.063,34.4,34.4,0,0,1,4.684,8.056,4.7,4.7,0,0,1-6.6-.876l-10.5,6.061a4.7,4.7,0,0,1,.045,3.3l3.809-1.021a4.5,4.5,0,0,1-.021-.45,4.695,4.695,0,1,1,.316,1.7l-5.064,1.356a4.707,4.707,0,0,1-1.558,1.121q.1.618.136,1.254h16.676a4.7,4.7,0,0,1,4.654-4.056q.185,0,.363.013a34.846,34.846,0,0,1,0,9.367c-.119.011-.24.015-.363.015a4.7,4.7,0,0,1-4.654-4.058H129.942c-.013.314-.038.624-.074.93a4.725,4.725,0,0,1,2.1,1.778l4.457,1.195a4.7,4.7,0,1,1-.323,1.711c0-.155.008-.31.023-.463l-3.529-.946a4.722,4.722,0,0,1-.382,3.156l10.441,6.027a4.7,4.7,0,0,1,6.74-1.01,34.353,34.353,0,0,1-4.658,8.056,4.7,4.7,0,0,1-2.931-4.355,4.747,4.747,0,0,1,.261-1.549l-10.586-6.11a4.7,4.7,0,0,1-2.623,1.452l2.746,2.746a4.706,4.706,0,1,1-.866.949l-3.727-3.727a4.653,4.653,0,0,1-1.638-.7,12.354,12.354,0,0,1-1.023.755l8.253,14.293a4.7,4.7,0,0,1,5.91,2.453,34.382,34.382,0,0,1-8.118,4.65,4.7,4.7,0,0,1,1.076-6.5l-8.226-14.246q-.5.261-1.025.477l0,.208a4.669,4.669,0,0,1-.433,1.972l1.288,4.8a4.793,4.793,0,0,1,.785-.066,4.7,4.7,0,1,1-2.01.452l-1.025-3.822a4.7,4.7,0,0,1-2.661,1.314v12.534a4.7,4.7,0,0,1,4.056,4.654c0,.129,0,.259-.015.386a34.806,34.806,0,0,1-9.363,0c-.011-.127-.017-.257-.017-.386a4.7,4.7,0,0,1,4.058-4.654V285.927a4.685,4.685,0,0,1-2.791-1.447l-1.05,3.92a4.7,4.7,0,1,1-1.933-.416,4.786,4.786,0,0,1,.7.053l1.348-5.027a4.673,4.673,0,0,1-.333-1.736l0-.146c-.371-.148-.736-.314-1.091-.5l-8.228,14.253a4.7,4.7,0,0,1,1.042,6.4,34.4,34.4,0,0,1-8.113-4.686,4.7,4.7,0,0,1,5.953-2.347l8.238-14.268c-.312-.2-.615-.422-.908-.652a4.645,4.645,0,0,1-2.046.641l-3.483,3.483a4.715,4.715,0,1,1-.9-.91l2.74-2.74a4.707,4.707,0,0,1-2.485-1.727l-10.8,6.233a4.7,4.7,0,0,1-2.466,6.12,34.409,34.409,0,0,1-4.658-8.094,4.7,4.7,0,0,1,6.473.868l10.834-6.254a4.715,4.715,0,0,1-.134-2.918l-3.75,1.006a4.914,4.914,0,0,1,.04.616,4.694,4.694,0,1,1-.38-1.853l4.832-1.294a4.759,4.759,0,0,1,1.515-1.333c-.049-.371-.083-.749-.1-1.133H88.435a4.7,4.7,0,0,1-4.654,4.058c-.119,0-.233,0-.348-.013a34.86,34.86,0,0,1,0-9.37c.115-.008.229-.013.348-.013a4.7,4.7,0,0,1,4.654,4.056h16.536a12.875,12.875,0,0,1,.185-1.524,4.693,4.693,0,0,1-.722-.533l-5.715-1.532a4.694,4.694,0,1,1,.335-1.237l4.2,1.125a4.7,4.7,0,0,1-.378-1.848,4.775,4.775,0,0,1,.149-1.178l-11.046-6.377a4.7,4.7,0,0,1-6.32.739,34.411,34.411,0,0,1,4.679-8.09,4.7,4.7,0,0,1,2.337,6.273l10.845,6.261a4.714,4.714,0,0,1,2.417-2.033l-2.693-2.691a4.689,4.689,0,1,1,.915-.9l3.3,3.3.117,0a4.683,4.683,0,0,1,2.629.8q.271-.191.548-.369l-8.364-14.486a4.7,4.7,0,0,1-5.915-2.281A34.364,34.364,0,0,1,104.6,237.5a4.7,4.7,0,0,1-1.093,6.335l8.359,14.482q.481-.242.985-.441c-.015-.151-.023-.306-.023-.463a4.684,4.684,0,0,1,.282-1.607l-1.379-5.148a4.581,4.581,0,0,1-.62.042,4.7,4.7,0,1,1,1.857-.382l1.061,3.96a4.674,4.674,0,0,1,2.857-1.519V240.348a4.7,4.7,0,0,1-4.058-4.654c0-.129.006-.259.017-.386a34.81,34.81,0,0,1,9.363,0c.011.127.015.257.015.386a4.7,4.7,0,0,1-4.056,4.654v12.413a4.678,4.678,0,0,1,2.729,1.382l1.034-3.856a4.7,4.7,0,1,1,1.933.416,4.8,4.8,0,0,1-.7-.053Zm-11.946,9.6a4.7,4.7,0,0,1-4.792,7.521,11.2,11.2,0,0,0-.136,1.74,11,11,0,0,0,.064,1.188,4.8,4.8,0,0,1,.978-.1,4.7,4.7,0,0,1,3.463,7.873,11.212,11.212,0,0,0,2.279,1.309,4.7,4.7,0,0,1,8.89-.057,11.2,11.2,0,0,0,2.411-1.456,4.7,4.7,0,0,1,3.64-7.67,4.593,4.593,0,0,1,.543.032,10.82,10.82,0,0,0,.055-1.118,11.25,11.25,0,0,0-.119-1.636,4.7,4.7,0,0,1-4.442-7.366,11.122,11.122,0,0,0-2.2-1.258,4.7,4.7,0,0,1-8.678-.055,11.1,11.1,0,0,0-1.961,1.055Zm1.613,9.157a4.7,4.7,0,1,1,4.7,4.7,4.7,4.7,0,0,1-4.7-4.7Z" transform="translate(-83.117 -234.992)" fill="#b2b4b3"/></svg>