<svg xmlns="http://www.w3.org/2000/svg" width="246.732" height="124.955" viewBox="0 0 246.732 124.955"><path d="M96.809,340.982h1.863v15.789H96.809v1.447h5.1v-1.447h-1.827v-7.189h9.1v-1.411h-9.1v-7.189h10.092v1.827h1.411v-3.239H96.809Z" transform="translate(-96.809 -252.013)" fill="#b2b4b3"/><path d="M115.579,356.807h-8.3V340.982h1.828v-1.412h-5.138v1.412h1.863v15.825h-1.863v1.412h13.058v-3.275h-1.447Z" transform="translate(-87.773 -252.013)" fill="#b2b4b3"/><path d="M122.933,340.778l-.088-.041h-.007a8.66,8.66,0,0,0-9.27.039,7.837,7.837,0,0,0-2.461,3.158,13.025,13.025,0,0,0-.982,4.983,12.725,12.725,0,0,0,.984,4.983,7.837,7.837,0,0,0,2.466,3.16,8.655,8.655,0,0,0,9.263.032h.043l.052-.038a7.666,7.666,0,0,0,2.382-3.151,12.7,12.7,0,0,0,0-9.969A7.923,7.923,0,0,0,122.933,340.778Zm1.957,8.139a11.35,11.35,0,0,1-1.02,4.789,6.468,6.468,0,0,1-11.279,0,11.779,11.779,0,0,1,0-9.58,6.5,6.5,0,0,1,11.279,0A11.5,11.5,0,0,1,124.89,348.917Z" transform="translate(-80.003 -252.213)" fill="#b2b4b3"/><path d="M127.371,350.879a5.4,5.4,0,0,0,2.1-.717,4.943,4.943,0,0,0,1.749-1.866,6.883,6.883,0,0,0,0-6.049,4.693,4.693,0,0,0-1.751-1.859,6.038,6.038,0,0,0-3.287-.817H117.5v1.411h1.864v15.823H117.5v1.414h5.1v-1.414H120.78v-5.825h4.97l3.907,7.239h2.626v-1.414h-1.794Zm3.142-5.6a5.241,5.241,0,0,1-.552,2.35,3.9,3.9,0,0,1-3.778,1.941h-5.4v-8.585h5.4a3.892,3.892,0,0,1,3.775,1.939A5.232,5.232,0,0,1,130.513,345.276Z" transform="translate(-70.69 -252.012)" fill="#b2b4b3"/><path d="M124.987,340.982h1.827v15.789h-1.827v1.447h14.778v-3.311h-1.447v1.864H128.262v-7.189H137.4v-1.411h-9.138v-7.189h10.056v1.827h1.447v-3.239H124.987Z" transform="translate(-61.246 -252.013)" fill="#b2b4b3"/><path d="M144.4,349.25a15.384,15.384,0,0,0-4.651-1.013l-.036-.036-.066-.007a13.578,13.578,0,0,1-4.241-.916,2.734,2.734,0,0,1-1.685-2.733,2.948,2.948,0,0,1,.679-2.036c.855-1.095,2.59-1.649,5.158-1.649a7.05,7.05,0,0,1,3.343.69,3.2,3.2,0,0,1,1.522,3v.33h1.448v-.33a4.875,4.875,0,0,0-.857-2.9c-1-1.482-2.837-2.233-5.456-2.233a11.514,11.514,0,0,0-3.784.547,4.863,4.863,0,0,0-2.45,1.633,4.437,4.437,0,0,0-1.011,2.952,4.594,4.594,0,0,0,.6,2.425,4.4,4.4,0,0,0,1.868,1.613,15.746,15.746,0,0,0,4.594,1.05l.075.007h.052a14.159,14.159,0,0,1,4.271.912,2.84,2.84,0,0,1,1.654,2.773,2.759,2.759,0,0,1-.713,2c-.86,1.1-2.644,1.683-5.155,1.683s-4.3-.581-5.164-1.69a2.84,2.84,0,0,1-.672-1.993v-.364h-1.409v.364a4.288,4.288,0,0,0,1,2.907,5.122,5.122,0,0,0,2.459,1.678,12.636,12.636,0,0,0,3.782.511c3.033,0,5.155-.737,6.3-2.183a4.521,4.521,0,0,0-1.461-6.988Z" transform="translate(-52.001 -252.213)" fill="#b2b4b3"/><path d="M155.033,340.888a10.14,10.14,0,0,0-5.366-1.316h-6.492v1.411h1.862v15.789h-1.862v1.448h6.492a10.126,10.126,0,0,0,5.363-1.319,7.673,7.673,0,0,0,2.825-3.079,10.336,10.336,0,0,0,1.172-4.927,10.226,10.226,0,0,0-1.167-4.958A7.566,7.566,0,0,0,155.033,340.888Zm2.583,8.008a9.445,9.445,0,0,1-1.228,4.669c-1.292,2.129-3.551,3.208-6.721,3.208h-3.183V340.983h3.183c3.176,0,5.436,1.09,6.721,3.244A9.166,9.166,0,0,1,157.616,348.9Z" transform="translate(-38.291 -252.012)" fill="#b2b4b3"/><path d="M150.474,340.982H152.3v15.789h-1.827v1.447h14.778v-3.311H163.8v1.864H153.749v-7.189h9.138v-1.411h-9.138v-7.189H163.8v1.827h1.447v-3.239H150.474Z" transform="translate(-29.079 -252.013)" fill="#b2b4b3"/><path d="M169.574,356.807h-8.3V340.982H163.1v-1.412h-5.138v1.412h1.863v15.825h-1.863v1.412h13.058v-3.275h-1.447Z" transform="translate(-19.627 -252.013)" fill="#b2b4b3"/><path d="M179.652,340.388a6.047,6.047,0,0,0-3.289-.817h-8.68v1.411h1.864v15.789h-1.864v1.448h5.1v-1.448h-1.864v-5.791h5.44a6.019,6.019,0,0,0,3.285-.853,4.438,4.438,0,0,0,1.753-1.864,6.551,6.551,0,0,0,.7-2.988,6.894,6.894,0,0,0-.7-3.029A4.7,4.7,0,0,0,179.652,340.388Zm1.041,4.888a5.355,5.355,0,0,1-.552,2.348,3.922,3.922,0,0,1-3.778,1.909h-5.44v-8.551h5.44a3.921,3.921,0,0,1,3.773,1.9A5.532,5.532,0,0,1,180.692,345.276Z" transform="translate(-7.36 -252.012)" fill="#b2b4b3"/><path d="M184.709,350.879a5.4,5.4,0,0,0,2.1-.717,4.943,4.943,0,0,0,1.749-1.866,6.863,6.863,0,0,0,0-6.049,4.688,4.688,0,0,0-1.749-1.859,6.047,6.047,0,0,0-3.289-.817h-8.677v1.411h1.862v15.823h-1.862v1.414h5.1v-1.414h-1.828v-5.825h4.97l3.907,7.239h2.626v-1.414h-1.794Zm3.142-5.6a5.211,5.211,0,0,1-.552,2.35,3.9,3.9,0,0,1-3.778,1.941h-5.4v-8.585h5.4a3.892,3.892,0,0,1,3.775,1.939A5.2,5.2,0,0,1,187.851,345.276Z" transform="translate(1.678 -252.012)" fill="#b2b4b3"/><path d="M191.866,339.571H188.72v1.411h1.387l-5.881,15.823h-2.063v1.414h5.1v-1.414h-1.529l1.9-5.074H194.9l1.9,5.074h-1.529v1.414h5.1v-1.414h-2.063Zm2.5,10.713h-6.2l3.1-8.311Z" transform="translate(10.914 -252.012)" fill="#b2b4b3"/><path d="M202.859,340.888a10.129,10.129,0,0,0-5.366-1.316H191v1.411h1.864v15.789H191v1.448h6.492a10.129,10.129,0,0,0,5.366-1.319,7.689,7.689,0,0,0,2.825-3.079,10.361,10.361,0,0,0,1.169-4.927,10.225,10.225,0,0,0-1.167-4.958A7.535,7.535,0,0,0,202.859,340.888Zm2.583,8.008a9.461,9.461,0,0,1-1.226,4.669c-1.292,2.129-3.554,3.208-6.723,3.208h-3.181V340.983h3.181c3.176,0,5.438,1.09,6.723,3.244A9.159,9.159,0,0,1,205.442,348.9Z" transform="translate(22.069 -252.012)" fill="#b2b4b3"/><path d="M213.909,343.934a7.913,7.913,0,0,0-2.387-3.156l-.086-.041h-.007a8.664,8.664,0,0,0-9.272.039,7.832,7.832,0,0,0-2.459,3.158,13.026,13.026,0,0,0-.984,4.983,12.765,12.765,0,0,0,.984,4.983,7.857,7.857,0,0,0,2.466,3.16,8.659,8.659,0,0,0,9.266.032h.043l.05-.038a7.652,7.652,0,0,0,2.384-3.151,12.7,12.7,0,0,0,0-9.969Zm-.43,4.983a11.376,11.376,0,0,1-1.018,4.789,6.468,6.468,0,0,1-11.279,0,11.755,11.755,0,0,1,0-9.58,6.5,6.5,0,0,1,11.277,0A11.5,11.5,0,0,1,213.48,348.917Z" transform="translate(31.805 -252.213)" fill="#b2b4b3"/><g transform="translate(38.516 116.941)"><path d="M113.836,352.619H115.2v3.221h3.7v-3.221h1.362v7.748h-1.362V357.1h-3.7v3.264h-1.362Z" transform="translate(-113.836 -352.485)" fill="#b2b4b3"/><path d="M117.524,356.589v-.023a4.052,4.052,0,0,1,8.1-.02v.02a4.052,4.052,0,0,1-8.1.023Zm6.673,0v-.023a2.654,2.654,0,0,0-2.633-2.755,2.619,2.619,0,0,0-2.613,2.735v.02a2.656,2.656,0,0,0,2.635,2.757A2.617,2.617,0,0,0,124.2,356.589Z" transform="translate(-109.181 -352.56)" fill="#b2b4b3"/><path d="M121.9,357.08v-4.461h1.362v4.4c0,1.439.742,2.215,1.959,2.215s1.948-.731,1.948-2.158v-4.461h1.362v4.4c0,2.312-1.305,3.474-3.332,3.474A3.055,3.055,0,0,1,121.9,357.08Z" transform="translate(-103.656 -352.485)" fill="#b2b4b3"/><path d="M125.551,359.3l.819-.975a3.57,3.57,0,0,0,2.448,1.009c.841,0,1.371-.389,1.371-.975v-.023c0-.552-.31-.853-1.749-1.183-1.649-.4-2.579-.887-2.579-2.314v-.023a2.371,2.371,0,0,1,2.647-2.246,4.3,4.3,0,0,1,2.812.975l-.731,1.029a3.528,3.528,0,0,0-2.1-.8c-.8,0-1.262.409-1.262.918v.023c0,.6.355.864,1.837,1.217,1.638.4,2.491.986,2.491,2.271v.02c0,1.45-1.14,2.314-2.767,2.314A4.772,4.772,0,0,1,125.551,359.3Z" transform="translate(-99.051 -352.547)" fill="#b2b4b3"/><path d="M129.034,352.619h5.746v1.217H130.4v2.015h3.884v1.217H130.4v2.081h4.438v1.217h-5.8Z" transform="translate(-94.655 -352.485)" fill="#b2b4b3"/><path d="M133.872,356.589v-.023a4.052,4.052,0,0,1,8.1-.02v.02a4.052,4.052,0,0,1-8.1.023Zm6.675,0v-.023a2.656,2.656,0,0,0-2.635-2.755,2.619,2.619,0,0,0-2.613,2.735v.02a2.656,2.656,0,0,0,2.635,2.757A2.619,2.619,0,0,0,140.547,356.589Z" transform="translate(-88.549 -352.56)" fill="#b2b4b3"/><path d="M138.3,352.619h5.766v1.24h-4.4v2.113h3.907v1.242h-3.907v3.153H138.3Z" transform="translate(-82.955 -352.485)" fill="#b2b4b3"/><path d="M143.225,352.619h5.766v1.24h-4.4v2.113h3.907v1.242h-3.907v3.153h-1.362Z" transform="translate(-76.745 -352.485)" fill="#b2b4b3"/><path d="M146.556,352.619h1.362v6.508h4.074v1.24h-5.436Z" transform="translate(-72.541 -352.485)" fill="#b2b4b3"/><path d="M149.359,356.589v-.023a4.052,4.052,0,0,1,8.1-.02v.02a4.052,4.052,0,0,1-8.1.023Zm6.675,0v-.023a2.656,2.656,0,0,0-2.635-2.755,2.619,2.619,0,0,0-2.613,2.735v.02a2.656,2.656,0,0,0,2.635,2.757A2.619,2.619,0,0,0,156.034,356.589Z" transform="translate(-69.003 -352.56)" fill="#b2b4b3"/><path d="M153.791,352.619h3.454a3.114,3.114,0,0,1,2.235.776,2.336,2.336,0,0,1,.642,1.669v.023a2.324,2.324,0,0,1-1.848,2.346l2.092,2.934h-1.606l-1.9-2.7h-1.7v2.7h-1.362Zm3.355,3.841c.973,0,1.592-.509,1.592-1.3v-.02c0-.83-.6-1.285-1.6-1.285h-1.982v2.6Z" transform="translate(-63.409 -352.485)" fill="#b2b4b3"/><path d="M160.565,352.6h1.262l3.409,7.8H163.8l-.785-1.871h-3.665l-.8,1.871h-1.4Zm1.95,4.725-1.339-3.1-1.33,3.1Z" transform="translate(-59.162 -352.516)" fill="#b2b4b3"/><path d="M161.437,352.619H162.8v6.508h4.072v1.24h-5.434Z" transform="translate(-53.759 -352.485)" fill="#b2b4b3"/><path d="M166.177,352.619h2.889a3.862,3.862,0,0,1,4.117,3.852v.02a3.88,3.88,0,0,1-4.117,3.875h-2.889Zm2.889,6.508a2.525,2.525,0,0,0,2.69-2.613v-.023a2.542,2.542,0,0,0-2.69-2.633h-1.527v5.268Z" transform="translate(-47.777 -352.485)" fill="#b2b4b3"/><path d="M170.124,352.619h5.746v1.217h-4.384v2.015h3.886v1.217h-3.886v2.081h4.438v1.217h-5.8Z" transform="translate(-42.796 -352.485)" fill="#b2b4b3"/><path d="M173.294,359.3l.819-.975a3.57,3.57,0,0,0,2.448,1.009c.841,0,1.371-.389,1.371-.975v-.023c0-.552-.31-.853-1.749-1.183-1.649-.4-2.579-.887-2.579-2.314v-.023a2.371,2.371,0,0,1,2.647-2.246,4.288,4.288,0,0,1,2.81.975l-.728,1.029a3.528,3.528,0,0,0-2.1-.8c-.8,0-1.262.409-1.262.918v.023c0,.6.355.864,1.837,1.217,1.638.4,2.491.986,2.491,2.271v.02c0,1.45-1.14,2.314-2.766,2.314A4.772,4.772,0,0,1,173.294,359.3Z" transform="translate(-38.795 -352.547)" fill="#b2b4b3"/><path d="M176.811,352.619h1.362v7.748h-1.362Z" transform="translate(-34.356 -352.485)" fill="#b2b4b3"/><path d="M178.3,356.589v-.023a3.949,3.949,0,0,1,4-4.006,4.186,4.186,0,0,1,2.977,1.052l-.864,1.029a3.033,3.033,0,0,0-2.169-.83,2.62,2.62,0,0,0-2.511,2.735v.02a2.587,2.587,0,0,0,2.633,2.769,3.156,3.156,0,0,0,1.871-.588V357.3H182.25v-1.183h3.3v3.253a4.933,4.933,0,0,1-3.23,1.208A3.847,3.847,0,0,1,178.3,356.589Z" transform="translate(-32.479 -352.56)" fill="#b2b4b3"/><path d="M182.408,352.619h1.26l4.151,5.357v-5.357h1.339v7.748h-1.14l-4.271-5.513v5.513h-1.339Z" transform="translate(-27.292 -352.485)" fill="#b2b4b3"/></g><g transform="translate(87.864)"><g transform="translate(45.482 7.497)"><path d="M158.937,309.016a14.463,14.463,0,0,1,1.525-2.047,6.14,6.14,0,0,0-.027,2.814,8.068,8.068,0,0,1,.864-3.561,1.338,1.338,0,0,1,.744-.319,12.533,12.533,0,0,0-.753,4.02l.077.016a32.43,32.43,0,0,1,1.362-3.893,1.589,1.589,0,0,1,.475.6,25.762,25.762,0,0,1-1.133,3.52l.045.023a9.981,9.981,0,0,0,1.4-2.574,6.76,6.76,0,0,1,.161,2.312,5.716,5.716,0,0,0-.416,1.176,3.786,3.786,0,0,1,.389.649,14.457,14.457,0,0,1,3.427-2.954,12.169,12.169,0,0,1,5-1.473,1.424,1.424,0,0,1,.163-.014c-.091-.057-.138-.084-.138-.084a6.128,6.128,0,0,0-5.843-.029,6.284,6.284,0,0,0-1.536,1.194,16.509,16.509,0,0,0,.041-1.93c-.118-1.776-1.262-2.4-2.334-2.264-1.832.228-4.144,2.47-4.974,3.8a19.188,19.188,0,0,0-1.7,3.3,10.55,10.55,0,0,1,2.466-1.131Q158.555,309.591,158.937,309.016Z" transform="translate(-155.757 -304.178)" fill="#b2b4b3"/><path d="M166.37,313.04a16.082,16.082,0,0,0-1.93.038,6.282,6.282,0,0,0,1.194-1.536,6.128,6.128,0,0,0-.029-5.843s-.027-.047-.084-.138a1.42,1.42,0,0,1-.014.163,12.168,12.168,0,0,1-1.473,5,14.456,14.456,0,0,1-2.954,3.427,3.887,3.887,0,0,1,.651.389,5.875,5.875,0,0,0,1.174-.414,6.758,6.758,0,0,1,2.312.158,10.015,10.015,0,0,0-2.574,1.4l.025.047a25.436,25.436,0,0,1,3.518-1.133,1.585,1.585,0,0,1,.6.473,32.412,32.412,0,0,1-3.893,1.362l.016.077a12.535,12.535,0,0,0,4.02-.753,1.339,1.339,0,0,1-.319.744,8.068,8.068,0,0,1-3.561.864,6.141,6.141,0,0,0,2.814-.027,14.465,14.465,0,0,1-2.047,1.525c-.38.256-.769.493-1.158.715a10.54,10.54,0,0,1-1.129,2.466,19.017,19.017,0,0,0,3.3-1.7c1.335-.83,3.576-3.142,3.8-4.974C168.768,314.3,168.145,313.158,166.37,313.04Z" transform="translate(-149.038 -302.432)" fill="#b2b4b3"/><path d="M159.459,312.847a.376.376,0,0,1,.532.532c-.07.041-.138.075-.208.113a5.367,5.367,0,0,1,.71.278c2.3-1.436,4.664-3.463,4.934-5.072-.907,1.918-3.122,3.377-5.264,4.581.136-.2.276-.414.43-.654,1.8-.853,4.646-3.588,4.983-5.235l.007-.023c.437-.181.989-.339.989-.339a4.718,4.718,0,0,0-.95.2c.059-.222.17-.645.251-1.047,0,0-.278.8-.423,1.079-1.649.335-4.379,3.19-5.237,4.979-.238.158-.45.3-.651.434,1.2-2.144,2.662-4.357,4.581-5.264-1.613.267-3.637,2.633-5.074,4.931a5.391,5.391,0,0,1,.278.713C159.385,312.987,159.421,312.919,159.459,312.847Zm5.913-5.384h0a12.153,12.153,0,0,1-3.979,3.979A12.162,12.162,0,0,1,165.372,307.463Z" transform="translate(-151.578 -301.646)" fill="#b2b4b3"/><path d="M163.677,309.923a5.716,5.716,0,0,0-.416,1.176,3.786,3.786,0,0,1,.389.649,14.457,14.457,0,0,1,3.427-2.954,12.169,12.169,0,0,1,5-1.473,1.424,1.424,0,0,1,.163-.014c-.091-.057-.138-.084-.138-.084a6.128,6.128,0,0,0-5.843-.029,6.284,6.284,0,0,0-1.536,1.194,16.509,16.509,0,0,0,.041-1.93c-.118-1.776-1.262-2.4-2.334-2.264-1.832.228-4.144,2.47-4.974,3.8a19.188,19.188,0,0,0-1.7,3.3,10.55,10.55,0,0,1,2.466-1.131q.333-.584.715-1.158a14.463,14.463,0,0,1,1.525-2.047,6.14,6.14,0,0,0-.027,2.814,8.068,8.068,0,0,1,.864-3.561,1.338,1.338,0,0,1,.744-.319,12.533,12.533,0,0,0-.753,4.02l.077.016a32.43,32.43,0,0,1,1.362-3.893,1.589,1.589,0,0,1,.475.6,25.762,25.762,0,0,1-1.133,3.52l.045.023a9.981,9.981,0,0,0,1.4-2.574A6.76,6.76,0,0,1,163.677,309.923Z" transform="translate(-155.757 -304.178)" fill="#b2b4b3"/><path d="M166.37,313.04a16.082,16.082,0,0,0-1.93.038,6.282,6.282,0,0,0,1.194-1.536,6.128,6.128,0,0,0-.029-5.843s-.027-.047-.084-.138a1.42,1.42,0,0,1-.014.163,12.168,12.168,0,0,1-1.473,5,14.456,14.456,0,0,1-2.954,3.427,3.887,3.887,0,0,1,.651.389,5.875,5.875,0,0,0,1.174-.414,6.758,6.758,0,0,1,2.312.158,10.015,10.015,0,0,0-2.574,1.4l.025.047a25.436,25.436,0,0,1,3.518-1.133,1.585,1.585,0,0,1,.6.473,32.412,32.412,0,0,1-3.893,1.362l.016.077a12.535,12.535,0,0,0,4.02-.753,1.339,1.339,0,0,1-.319.744,8.068,8.068,0,0,1-3.561.864,6.141,6.141,0,0,0,2.814-.027,14.465,14.465,0,0,1-2.047,1.525q-.573.383-1.158.715a10.633,10.633,0,0,1-1.129,2.466,19.017,19.017,0,0,0,3.3-1.7c1.335-.83,3.576-3.142,3.8-4.974C168.768,314.3,168.145,313.158,166.37,313.04Z" transform="translate(-149.038 -302.432)" fill="#b2b4b3"/><g transform="translate(7.49 4.539)"><path d="M165.621,307.232c.059-.222.17-.645.251-1.047,0,0-.278.8-.423,1.079-1.649.335-4.379,3.19-5.237,4.979-.238.158-.45.3-.651.434,1.2-2.144,2.662-4.357,4.581-5.264-1.613.267-3.637,2.633-5.074,4.931a5.391,5.391,0,0,1,.278.713c.038-.07.075-.138.113-.21a.376.376,0,0,1,.532.532c-.07.041-.138.075-.208.115a5.067,5.067,0,0,1,.71.276c2.3-1.436,4.664-3.463,4.934-5.072-.907,1.918-3.122,3.377-5.264,4.581.136-.2.276-.414.43-.654,1.8-.853,4.646-3.588,4.983-5.235l.007-.023c.437-.181.989-.339.989-.339A4.718,4.718,0,0,0,165.621,307.232Zm-4.223,4.21a12.162,12.162,0,0,1,3.974-3.979h0A12.153,12.153,0,0,1,161.4,311.442Z" transform="translate(-159.068 -306.185)" fill="#b2b4b3"/></g></g><g transform="translate(7.529 7.486)"><path d="M153.666,309.011a14.461,14.461,0,0,0-1.525-2.047,6.142,6.142,0,0,1,.027,2.814,8.068,8.068,0,0,0-.864-3.561,1.37,1.37,0,0,0-.744-.321,12.622,12.622,0,0,1,.753,4.022l-.077.016a32.854,32.854,0,0,0-1.362-3.893,1.59,1.59,0,0,0-.475.6,25.764,25.764,0,0,0,1.133,3.518l-.045.025a10.017,10.017,0,0,1-1.4-2.574,6.761,6.761,0,0,0-.161,2.312,5.745,5.745,0,0,1,.416,1.174,3.893,3.893,0,0,0-.389.651,14.4,14.4,0,0,0-3.427-2.954,12.134,12.134,0,0,0-5-1.473,1.473,1.473,0,0,0-.163-.014c.09-.059.138-.084.138-.084a6.128,6.128,0,0,1,5.843-.029,6.229,6.229,0,0,1,1.536,1.194,16.536,16.536,0,0,1-.041-1.93c.118-1.776,1.26-2.4,2.334-2.264,1.832.229,4.142,2.47,4.974,3.8a19.273,19.273,0,0,1,1.7,3.3,10.54,10.54,0,0,0-2.466-1.129C154.157,309.78,153.922,309.391,153.666,309.011Z" transform="translate(-137.233 -304.173)" fill="#b2b4b3"/><path d="M141.261,313.033a16.534,16.534,0,0,1,1.93.041A6.227,6.227,0,0,1,142,311.538a6.128,6.128,0,0,1,.029-5.843s.025-.048.084-.138a1.463,1.463,0,0,0,.014.163,12.1,12.1,0,0,0,1.473,5,14.4,14.4,0,0,0,2.954,3.427,3.89,3.89,0,0,0-.652.389,5.743,5.743,0,0,1-1.174-.416,6.761,6.761,0,0,0-2.312.161,10.016,10.016,0,0,1,2.574,1.4l-.025.045a25.764,25.764,0,0,0-3.518-1.133,1.589,1.589,0,0,0-.6.475,32.868,32.868,0,0,0,3.893,1.362l-.016.077a12.623,12.623,0,0,1-4.022-.753,1.37,1.37,0,0,0,.321.744,8.068,8.068,0,0,0,3.561.864,6.142,6.142,0,0,1-2.814-.027,14.456,14.456,0,0,0,2.047,1.525c.38.256.769.491,1.158.715a10.542,10.542,0,0,0,1.129,2.466,19.269,19.269,0,0,1-3.3-1.7c-1.332-.832-3.574-3.142-3.8-4.974C138.863,314.293,139.485,313.151,141.261,313.033Z" transform="translate(-138.979 -302.427)" fill="#b2b4b3"/><path d="M148.247,313.052a5.272,5.272,0,0,1,.278-.712c-1.436-2.3-3.461-4.664-5.074-4.934,1.918.907,3.377,3.122,4.581,5.266-.2-.138-.414-.276-.652-.434-.857-1.789-3.588-4.644-5.237-4.981-.145-.276-.423-1.077-.423-1.077.079.4.19.823.251,1.047a4.927,4.927,0,0,0-.95-.206s.552.161.989.342l0,.023c.339,1.647,3.19,4.382,4.986,5.232.154.242.294.452.43.656-2.142-1.206-4.357-2.663-5.264-4.583.269,1.611,2.635,3.635,4.934,5.074a5.366,5.366,0,0,1,.71-.278c-.072-.038-.138-.072-.21-.113a.911.911,0,0,0,.011-.523.924.924,0,0,0,.52-.009C148.172,312.914,148.209,312.982,148.247,313.052Zm-2.052-1.617a12.13,12.13,0,0,1-3.979-3.979l0,0A12.154,12.154,0,0,1,146.2,311.435Z" transform="translate(-136.401 -301.641)" fill="#b2b4b3"/><path d="M148.927,309.918a5.745,5.745,0,0,1,.416,1.174,3.893,3.893,0,0,0-.389.651,14.4,14.4,0,0,0-3.427-2.954,12.1,12.1,0,0,0-5-1.473,1.473,1.473,0,0,0-.163-.014c.09-.059.138-.084.138-.084a6.128,6.128,0,0,1,5.843-.029,6.229,6.229,0,0,1,1.536,1.194,16.536,16.536,0,0,1-.041-1.93c.118-1.776,1.26-2.4,2.334-2.264,1.832.229,4.142,2.47,4.974,3.8a19.273,19.273,0,0,1,1.7,3.3,10.54,10.54,0,0,0-2.466-1.129c-.224-.389-.459-.778-.715-1.158a14.461,14.461,0,0,0-1.525-2.047,6.142,6.142,0,0,1,.027,2.814,8.068,8.068,0,0,0-.864-3.561,1.37,1.37,0,0,0-.744-.321,12.622,12.622,0,0,1,.753,4.022l-.077.016a32.854,32.854,0,0,0-1.362-3.893,1.59,1.59,0,0,0-.475.6,25.764,25.764,0,0,0,1.133,3.518l-.045.025a10.017,10.017,0,0,1-1.4-2.574A6.761,6.761,0,0,0,148.927,309.918Z" transform="translate(-137.233 -304.173)" fill="#b2b4b3"/><path d="M141.261,313.033a16.534,16.534,0,0,1,1.93.041A6.227,6.227,0,0,1,142,311.538a6.128,6.128,0,0,1,.029-5.843s.025-.048.084-.138a1.463,1.463,0,0,0,.014.163,12.1,12.1,0,0,0,1.473,5,14.4,14.4,0,0,0,2.954,3.427,3.89,3.89,0,0,0-.652.389,5.743,5.743,0,0,1-1.174-.416,6.761,6.761,0,0,0-2.312.161,10.016,10.016,0,0,1,2.574,1.4l-.025.045a25.764,25.764,0,0,0-3.518-1.133,1.589,1.589,0,0,0-.6.475,32.868,32.868,0,0,0,3.893,1.362l-.016.077a12.623,12.623,0,0,1-4.022-.753,1.37,1.37,0,0,0,.321.744,8.068,8.068,0,0,0,3.561.864,6.142,6.142,0,0,1-2.814-.027,14.456,14.456,0,0,0,2.047,1.525c.38.256.769.491,1.158.715a10.542,10.542,0,0,0,1.129,2.466,19.269,19.269,0,0,1-3.3-1.7c-1.332-.832-3.574-3.142-3.8-4.974C138.863,314.293,139.485,313.151,141.261,313.033Z" transform="translate(-138.979 -302.427)" fill="#b2b4b3"/><g transform="translate(4.621 4.539)"><path d="M141.022,307.021s.552.161.989.342l0,.023c.339,1.647,3.19,4.382,4.986,5.232.154.242.294.452.43.656-2.142-1.206-4.357-2.663-5.264-4.583.269,1.611,2.635,3.635,4.934,5.074a5.366,5.366,0,0,1,.71-.278c-.07-.038-.138-.072-.21-.113a.911.911,0,0,0,.011-.523.924.924,0,0,0,.52-.009c.041.072.077.14.115.21a5.272,5.272,0,0,1,.278-.712c-1.436-2.3-3.461-4.664-5.074-4.934,1.918.907,3.377,3.122,4.581,5.266-.2-.138-.414-.276-.652-.434-.857-1.789-3.588-4.644-5.237-4.981-.145-.276-.423-1.077-.423-1.077.081.4.19.823.251,1.047A4.927,4.927,0,0,0,141.022,307.021Zm1.194.434,0,0a12.154,12.154,0,0,1,3.974,3.977A12.13,12.13,0,0,1,142.216,307.456Z" transform="translate(-141.022 -306.18)" fill="#b2b4b3"/></g></g><g transform="translate(7.529 45.454)"><path d="M153.666,329.014a14.458,14.458,0,0,1-1.525,2.047,6.142,6.142,0,0,0,.027-2.814,8.068,8.068,0,0,1-.864,3.561,1.37,1.37,0,0,1-.744.321,12.622,12.622,0,0,0,.753-4.022l-.077-.016a32.856,32.856,0,0,1-1.362,3.893,1.59,1.59,0,0,1-.475-.6,25.767,25.767,0,0,1,1.133-3.518l-.045-.025a10.016,10.016,0,0,0-1.4,2.574,6.761,6.761,0,0,1-.161-2.312,5.744,5.744,0,0,0,.416-1.174,3.892,3.892,0,0,1-.389-.652,14.456,14.456,0,0,1-3.427,2.954,12.136,12.136,0,0,1-5,1.473,1.478,1.478,0,0,1-.163.014c.09.059.138.084.138.084a6.128,6.128,0,0,0,5.843.029,6.229,6.229,0,0,0,1.536-1.194,16.536,16.536,0,0,0-.041,1.93c.118,1.776,1.26,2.4,2.334,2.264,1.832-.229,4.142-2.47,4.974-3.8a19.276,19.276,0,0,0,1.7-3.3,10.541,10.541,0,0,1-2.466,1.129C154.157,328.245,153.922,328.634,153.666,329.014Z" transform="translate(-137.233 -314.239)" fill="#b2b4b3"/><path d="M141.261,329.966a16.526,16.526,0,0,0,1.93-.041A6.229,6.229,0,0,0,142,331.461a6.128,6.128,0,0,0,.029,5.843s.025.047.084.138a1.462,1.462,0,0,1,.014-.163,12.1,12.1,0,0,1,1.473-5,14.4,14.4,0,0,1,2.954-3.427,3.894,3.894,0,0,1-.652-.389,5.743,5.743,0,0,0-1.174.416,6.762,6.762,0,0,1-2.312-.161,10.016,10.016,0,0,0,2.574-1.4l-.025-.045a25.759,25.759,0,0,1-3.518,1.133,1.59,1.59,0,0,1-.6-.475,32.868,32.868,0,0,1,3.893-1.362l-.016-.077a12.622,12.622,0,0,0-4.022.753,1.364,1.364,0,0,1,.321-.744,8.068,8.068,0,0,1,3.561-.864,6.142,6.142,0,0,0-2.814.027,14.46,14.46,0,0,1,2.047-1.525c.38-.256.769-.491,1.158-.715a10.542,10.542,0,0,1,1.129-2.466,19.269,19.269,0,0,0-3.3,1.7c-1.332.832-3.574,3.142-3.8,4.974C138.863,328.706,139.485,329.848,141.261,329.966Z" transform="translate(-138.979 -320.958)" fill="#b2b4b3"/><path d="M148.132,325.192a.924.924,0,0,0-.52-.009.911.911,0,0,0-.011-.523c.072-.041.138-.075.21-.113a5.37,5.37,0,0,1-.71-.278c-2.3,1.439-4.664,3.463-4.934,5.074.907-1.92,3.122-3.377,5.264-4.583-.136.2-.276.414-.43.656-1.8.851-4.646,3.585-4.986,5.232l0,.023c-.437.181-.989.342-.989.342a4.925,4.925,0,0,0,.95-.206c-.061.222-.172.647-.251,1.047,0,0,.278-.8.423-1.077,1.649-.337,4.379-3.192,5.237-4.981.238-.158.45-.3.652-.434-1.2,2.144-2.662,4.359-4.581,5.266,1.613-.269,3.637-2.635,5.074-4.934a5.272,5.272,0,0,1-.278-.712C148.209,325.052,148.172,325.119,148.132,325.192Zm-5.911,5.384,0,0A12.131,12.131,0,0,1,146.2,326.6,12.154,12.154,0,0,1,142.221,330.576Z" transform="translate(-136.401 -316.779)" fill="#b2b4b3"/><path d="M148.927,328.107a5.744,5.744,0,0,0,.416-1.174,3.892,3.892,0,0,1-.389-.652,14.456,14.456,0,0,1-3.427,2.954,12.136,12.136,0,0,1-5,1.473,1.478,1.478,0,0,1-.163.014c.09.059.138.084.138.084a6.128,6.128,0,0,0,5.843.029,6.229,6.229,0,0,0,1.536-1.194,16.536,16.536,0,0,0-.041,1.93c.118,1.776,1.26,2.4,2.334,2.264,1.832-.229,4.142-2.47,4.974-3.8a19.276,19.276,0,0,0,1.7-3.3,10.541,10.541,0,0,1-2.466,1.129c-.224.389-.459.778-.715,1.158a14.458,14.458,0,0,1-1.525,2.047,6.142,6.142,0,0,0,.027-2.814,8.068,8.068,0,0,1-.864,3.561,1.37,1.37,0,0,1-.744.321,12.622,12.622,0,0,0,.753-4.022l-.077-.016a32.856,32.856,0,0,1-1.362,3.893,1.59,1.59,0,0,1-.475-.6,25.767,25.767,0,0,1,1.133-3.518l-.045-.025a10.016,10.016,0,0,0-1.4,2.574A6.761,6.761,0,0,1,148.927,328.107Z" transform="translate(-137.233 -314.239)" fill="#b2b4b3"/><path d="M141.261,329.966a16.526,16.526,0,0,0,1.93-.041A6.229,6.229,0,0,0,142,331.461a6.128,6.128,0,0,0,.029,5.843s.025.047.084.138a1.462,1.462,0,0,1,.014-.163,12.1,12.1,0,0,1,1.473-5,14.4,14.4,0,0,1,2.954-3.427,3.894,3.894,0,0,1-.652-.389,5.743,5.743,0,0,0-1.174.416,6.762,6.762,0,0,1-2.312-.161,10.016,10.016,0,0,0,2.574-1.4l-.025-.045a25.759,25.759,0,0,1-3.518,1.133,1.59,1.59,0,0,1-.6-.475,32.868,32.868,0,0,1,3.893-1.362l-.016-.077a12.622,12.622,0,0,0-4.022.753,1.364,1.364,0,0,1,.321-.744,8.068,8.068,0,0,1,3.561-.864,6.142,6.142,0,0,0-2.814.027,14.46,14.46,0,0,1,2.047-1.525c.38-.256.769-.491,1.158-.715a10.542,10.542,0,0,1,1.129-2.466,19.269,19.269,0,0,0-3.3,1.7c-1.332.832-3.574,3.142-3.8,4.974C138.863,328.706,139.485,329.848,141.261,329.966Z" transform="translate(-138.979 -320.958)" fill="#b2b4b3"/><g transform="translate(4.621 7.49)"><path d="M141.972,330.806c-.061.222-.17.647-.251,1.047,0,0,.278-.8.423-1.077,1.649-.337,4.379-3.192,5.237-4.981.238-.158.45-.3.652-.434-1.2,2.144-2.662,4.359-4.581,5.266,1.613-.269,3.637-2.635,5.074-4.934a5.272,5.272,0,0,1-.278-.712c-.038.07-.075.138-.115.21a.924.924,0,0,0-.52-.009.911.911,0,0,0-.011-.523c.072-.041.14-.075.21-.113a5.37,5.37,0,0,1-.71-.278c-2.3,1.439-4.664,3.463-4.934,5.074.907-1.92,3.122-3.377,5.264-4.583-.136.2-.276.414-.43.656-1.8.851-4.646,3.585-4.986,5.232l0,.023c-.437.181-.989.342-.989.342A4.925,4.925,0,0,0,141.972,330.806ZM146.2,326.6a12.154,12.154,0,0,1-3.974,3.977l0,0A12.131,12.131,0,0,1,146.2,326.6Z" transform="translate(-141.022 -324.269)" fill="#b2b4b3"/></g></g><g transform="translate(45.486 45.459)"><path d="M158.939,329.018a14.469,14.469,0,0,0,1.525,2.047,6.14,6.14,0,0,1-.027-2.814,8.08,8.08,0,0,0,.864,3.561,1.34,1.34,0,0,0,.744.319,12.535,12.535,0,0,1-.753-4.02l.077-.016a32.429,32.429,0,0,0,1.362,3.893,1.589,1.589,0,0,0,.475-.6,25.763,25.763,0,0,0-1.133-3.52l.045-.023a9.98,9.98,0,0,1,1.4,2.574,6.766,6.766,0,0,0,.161-2.312,5.711,5.711,0,0,1-.416-1.176,3.72,3.72,0,0,0,.389-.652,14.4,14.4,0,0,0,3.427,2.957,12.168,12.168,0,0,0,5,1.473,1.43,1.43,0,0,0,.163.014c-.09.057-.138.084-.138.084a6.128,6.128,0,0,1-5.843.029,6.283,6.283,0,0,1-1.536-1.194,16.524,16.524,0,0,1,.041,1.93c-.118,1.776-1.26,2.4-2.334,2.262-1.832-.226-4.144-2.468-4.974-3.8a19.191,19.191,0,0,1-1.7-3.3,10.552,10.552,0,0,0,2.466,1.131Q158.557,328.443,158.939,329.018Z" transform="translate(-155.759 -314.242)" fill="#b2b4b3"/><path d="M166.372,329.965a16.106,16.106,0,0,1-1.93-.038,6.282,6.282,0,0,1,1.194,1.536,6.128,6.128,0,0,1-.029,5.843l-.084.138a1.484,1.484,0,0,0-.014-.165,12.16,12.16,0,0,0-1.473-5,14.455,14.455,0,0,0-2.954-3.427,3.763,3.763,0,0,0,.652-.391,6.029,6.029,0,0,1,1.174.416,6.762,6.762,0,0,0,2.312-.158,10.018,10.018,0,0,1-2.574-1.4l.025-.047a25.431,25.431,0,0,0,3.518,1.133,1.585,1.585,0,0,0,.6-.473,32.435,32.435,0,0,0-3.893-1.362l.016-.079a12.658,12.658,0,0,1,4.02.753,1.34,1.34,0,0,0-.319-.742,8.068,8.068,0,0,0-3.561-.864,6.142,6.142,0,0,1,2.814.027,14.464,14.464,0,0,0-2.047-1.525c-.38-.256-.769-.493-1.158-.715a10.542,10.542,0,0,0-1.129-2.466,19.014,19.014,0,0,1,3.3,1.7c1.335.83,3.576,3.142,3.8,4.974C168.77,328.705,168.147,329.848,166.372,329.965Z" transform="translate(-149.04 -320.96)" fill="#b2b4b3"/><path d="M159.348,324.984a5.392,5.392,0,0,1-.278.713c1.436,2.3,3.461,4.664,5.074,4.931-1.918-.907-3.377-3.119-4.581-5.264.2.138.414.276.652.434.857,1.789,3.588,4.644,5.237,4.979.145.276.423,1.079.423,1.079-.081-.4-.19-.826-.251-1.047a4.73,4.73,0,0,0,.95.2s-.552-.158-.989-.339l-.007-.023c-.337-1.647-3.187-4.382-4.983-5.234-.154-.24-.294-.45-.43-.654,2.142,1.2,4.357,2.662,5.264,4.581-.269-1.611-2.635-3.635-4.934-5.072a5.053,5.053,0,0,1-.71.276c.07.041.138.075.208.115a.926.926,0,0,0-.009.52.946.946,0,0,0-.52.009C159.423,325.122,159.387,325.054,159.348,324.984ZM161.4,326.6a12.153,12.153,0,0,1,3.979,3.979h0A12.161,12.161,0,0,1,161.4,326.6Z" transform="translate(-151.58 -316.781)" fill="#b2b4b3"/><path d="M163.679,328.111a5.711,5.711,0,0,1-.416-1.176,3.72,3.72,0,0,0,.389-.652,14.4,14.4,0,0,0,3.427,2.957,12.168,12.168,0,0,0,5,1.473,1.43,1.43,0,0,0,.163.014c-.09.057-.138.084-.138.084a6.128,6.128,0,0,1-5.843.029,6.283,6.283,0,0,1-1.536-1.194,16.524,16.524,0,0,1,.041,1.93c-.118,1.776-1.262,2.4-2.334,2.262-1.832-.226-4.144-2.468-4.974-3.8a19.191,19.191,0,0,1-1.7-3.3,10.552,10.552,0,0,0,2.466,1.131q.333.584.715,1.158a14.469,14.469,0,0,0,1.525,2.047,6.14,6.14,0,0,1-.027-2.814,8.08,8.08,0,0,0,.864,3.561,1.34,1.34,0,0,0,.744.319,12.535,12.535,0,0,1-.753-4.02l.077-.016a32.429,32.429,0,0,0,1.362,3.893,1.589,1.589,0,0,0,.475-.6,25.763,25.763,0,0,0-1.133-3.52l.045-.023a9.98,9.98,0,0,1,1.4,2.574A6.766,6.766,0,0,0,163.679,328.111Z" transform="translate(-155.759 -314.242)" fill="#b2b4b3"/><path d="M166.372,329.965a16.106,16.106,0,0,1-1.93-.038,6.282,6.282,0,0,1,1.194,1.536,6.128,6.128,0,0,1-.029,5.843l-.084.138a1.484,1.484,0,0,0-.014-.165,12.16,12.16,0,0,0-1.473-5,14.455,14.455,0,0,0-2.954-3.427,3.763,3.763,0,0,0,.652-.391,6.029,6.029,0,0,1,1.174.416,6.762,6.762,0,0,0,2.312-.158,10.018,10.018,0,0,1-2.574-1.4l.025-.047a25.431,25.431,0,0,0,3.518,1.133,1.585,1.585,0,0,0,.6-.473,32.435,32.435,0,0,0-3.893-1.362l.016-.079a12.658,12.658,0,0,1,4.02.753,1.34,1.34,0,0,0-.319-.742,8.068,8.068,0,0,0-3.561-.864,6.142,6.142,0,0,1,2.814.027,14.464,14.464,0,0,0-2.047-1.525c-.38-.256-.769-.493-1.158-.715a10.542,10.542,0,0,0-1.129-2.466,19.014,19.014,0,0,1,3.3,1.7c1.335.83,3.576,3.142,3.8,4.974C168.77,328.705,168.147,329.848,166.372,329.965Z" transform="translate(-149.04 -320.96)" fill="#b2b4b3"/><g transform="translate(7.49 7.49)"><path d="M166.573,331.012s-.552-.158-.989-.339l-.007-.023c-.337-1.647-3.187-4.382-4.983-5.234-.154-.24-.294-.45-.43-.654,2.142,1.2,4.357,2.662,5.264,4.581-.269-1.611-2.635-3.635-4.934-5.072a5.053,5.053,0,0,1-.71.276c.07.041.138.075.208.115a.926.926,0,0,0-.009.52.955.955,0,0,0-.523.009l-.113-.208a5.392,5.392,0,0,1-.278.713c1.436,2.3,3.461,4.664,5.074,4.931-1.918-.907-3.377-3.119-4.581-5.264.2.138.414.276.652.434.857,1.789,3.588,4.644,5.237,4.979.145.276.423,1.079.423,1.079-.081-.4-.192-.826-.251-1.047A4.73,4.73,0,0,0,166.573,331.012Zm-1.194-.434h0A12.161,12.161,0,0,1,161.4,326.6,12.153,12.153,0,0,1,165.379,330.578Z" transform="translate(-159.07 -324.271)" fill="#b2b4b3"/></g></g><g transform="translate(31.902 15.58)"><path d="M154.407,318.515c2.581.568,7.282-2.773,7.734-5.379C161.248,315.556,155.735,318.214,154.407,318.515Z" transform="translate(-143.881 -300.955)" fill="#b2b4b3"/><path d="M162.141,323.627c-.452-2.608-5.153-5.949-7.734-5.382C155.735,318.549,161.248,321.207,162.141,323.627Z" transform="translate(-143.881 -294.587)" fill="#b2b4b3"/><path d="M168.964,348.577a5.125,5.125,0,0,0,2.249-5.488c.536,1.45,2.382,3.873,4.854,2,2.165-1.731,1.133-5.587-.633-8.028a19.649,19.649,0,0,0,4.054,1.362c1.529.355,4.748.308,6.2-.828.855-.665,1.224-1.912.05-3.251a16.1,16.1,0,0,0-1.391-1.335,6.35,6.35,0,0,0,1.93-.242,6.132,6.132,0,0,0,4.112-4.153s.014-.052.038-.156c0,0-.07.063-.127.1a12.108,12.108,0,0,1-4.578,2.5,14.9,14.9,0,0,1-4.642.33l-.385-.007c-.068,0-.14,0-.206,0a4.727,4.727,0,0,0,2.031,1.287,6.751,6.751,0,0,1,1.52,1.749,11.561,11.561,0,0,0-3.142-.884,21.956,21.956,0,0,1,3.606,1.789,1.609,1.609,0,0,1,.088.76,26.508,26.508,0,0,1-4.2-2.115s2.5,2.33,3.812,2.7a1.354,1.354,0,0,1-.751.3,8.053,8.053,0,0,1-3.128-1.907s1.063,1.617,2.009,1.973a14.624,14.624,0,0,1-2.527-.371,32.677,32.677,0,0,1-8.424-3.321c-4.092-2.825-8.453-3.757-10.9-3.4l-.265-.016a26.954,26.954,0,0,1,12.991,7.257,11.031,11.031,0,0,1,1.787,2.588,7.094,7.094,0,0,0-3.3-2.355c2.814,1.536,4.033,5.115,4.033,5.115a3.1,3.1,0,0,1-.113.76,6.553,6.553,0,0,0-3.176-3.735,7.43,7.43,0,0,1,2.841,4.406,1.56,1.56,0,0,1-.118.2,1.427,1.427,0,0,1-.276.233s-.889-2.556-2.5-3.3a7.983,7.983,0,0,1,2.043,3.579c-1.321.459-2.9-1.351-3.432-2.294a6.354,6.354,0,0,1-.294-.6,5.394,5.394,0,0,1-1.69,5.366,4.15,4.15,0,0,0,.706-2.977,5.088,5.088,0,0,1-2.31,3.631,5.556,5.556,0,0,1-.615,0,4.83,4.83,0,0,0,1.916-2.907c-1.488,2.572-2.794,2.805-2.794,2.805a4.107,4.107,0,0,1-.43-.106,4.619,4.619,0,0,0,2.077-2.853,5.123,5.123,0,0,1-2.665,2.54.43.43,0,0,1-.154-.292c-.045-.452,1.769-2.626,2.029-3.922a7.349,7.349,0,0,0,.136-2.249c-.667-6.332-5.981-8.652-9.933-8.987a4.395,4.395,0,0,0,0-6.716c3.954-.335,9.268-2.656,9.935-8.987a7.35,7.35,0,0,0-.136-2.249c-.26-1.3-2.074-3.47-2.029-3.922a.43.43,0,0,1,.154-.292,5.122,5.122,0,0,1,2.665,2.54,4.627,4.627,0,0,0-2.077-2.855c.136-.041.274-.072.43-.1,0,0,1.305.233,2.794,2.8a4.83,4.83,0,0,0-1.916-2.907,5.562,5.562,0,0,1,.615,0,5.088,5.088,0,0,1,2.31,3.631,4.149,4.149,0,0,0-.706-2.977,5.394,5.394,0,0,1,1.69,5.366,6.357,6.357,0,0,1,.294-.6c.534-.943,2.111-2.753,3.432-2.294a7.983,7.983,0,0,1-2.043,3.579c1.606-.744,2.5-3.3,2.5-3.3a1.424,1.424,0,0,1,.276.233,1.557,1.557,0,0,1,.118.2,7.431,7.431,0,0,1-2.841,4.406,6.553,6.553,0,0,0,3.176-3.735,3.1,3.1,0,0,1,.113.76s-1.219,3.581-4.033,5.115a7.1,7.1,0,0,0,3.3-2.353,11.067,11.067,0,0,1-1.787,2.586A26.954,26.954,0,0,1,160.227,327l.265-.016c2.445.353,6.807-.579,10.9-3.4a32.678,32.678,0,0,1,8.424-3.321,14.622,14.622,0,0,1,2.527-.371c-.946.355-2.009,1.973-2.009,1.973a8.054,8.054,0,0,1,3.128-1.907,1.355,1.355,0,0,1,.751.3c-1.307.371-3.812,2.7-3.812,2.7a26.508,26.508,0,0,1,4.2-2.115,1.609,1.609,0,0,1-.088.76,21.961,21.961,0,0,1-3.606,1.789,11.565,11.565,0,0,0,3.142-.885,6.75,6.75,0,0,1-1.52,1.749,4.727,4.727,0,0,0-2.031,1.287c.066,0,.138,0,.206,0l.385-.007a14.9,14.9,0,0,1,4.642.33,12.139,12.139,0,0,1,4.578,2.493c.057.043.127.106.127.106-.025-.1-.038-.156-.038-.156a6.132,6.132,0,0,0-4.112-4.153,6.274,6.274,0,0,0-1.93-.24,16.506,16.506,0,0,0,1.391-1.337c1.174-1.339.805-2.586-.05-3.251-1.457-1.136-4.676-1.183-6.2-.828a19.644,19.644,0,0,0-4.054,1.362c1.767-2.441,2.8-6.3.633-8.028-2.472-1.868-4.318.554-4.854,2a4.794,4.794,0,0,0-5.535-6.019,3.487,3.487,0,0,0-2.258,1.393,1.794,1.794,0,0,0-.084,1.669c.774,2.011,1.749,2.64,1.878,4.336.154,5.773-5.291,8.546-9.175,9.279a4.4,4.4,0,1,0,0,7.938c3.884.735,9.329,3.506,9.175,9.279-.129,1.7-1.1,2.325-1.878,4.336a1.794,1.794,0,0,0,.084,1.669,3.487,3.487,0,0,0,2.258,1.393A5.1,5.1,0,0,0,168.964,348.577Z" transform="translate(-149.754 -307.751)" fill="#b2b4b3"/><path d="M180.47,319.7s-.762.371-1.061.464c-1.4-.927-5.352-.842-7.225-.181-.278-.057-.527-.109-.767-.154,2.366-.665,4.965-1.2,6.963-.484-1.773-1.269-6.707-.414-9.483.6-.509-.149-.975-.271-1.407-.364,1.853-.939,3.685-1.76,5.266-1.534a3.19,3.19,0,0,0-.706-.138c-1.371-.118-4.085.955-6.605,1.991-.534-.265-1.07-.507-1.595-.706a19.9,19.9,0,0,1,5.139-2.1s-.48.059-.6.09a45.72,45.72,0,0,0-5.409,1.712,6.688,6.688,0,0,0-1.3-.242c3.219-1.568,6.531-3.979,9.116-4.386,0,0-.138-.072-.9.072-2.608.7-10.331,4.965-13.539,5.42a3.065,3.065,0,0,1-.726.036,5.308,5.308,0,0,0,2.258.118,11.664,11.664,0,0,0,3.2-.975c.281.07.6.172.955.3-.69.247-1.337.482-1.911.685a4.359,4.359,0,0,0-2.029,0c.018,0,.068.02.093.025a10.029,10.029,0,0,1,1.013.3,9.47,9.47,0,0,1-1.106.328,4.421,4.421,0,0,0,2.029,0c.057.02.133.045.183.066.529.19,1.1.4,1.728.618a9.443,9.443,0,0,1-.955.3,13.934,13.934,0,0,0-2.174-.769,6.028,6.028,0,0,0-3.282-.088,5.108,5.108,0,0,1,1.71.251c3.6.993,10.184,4.574,12.555,5.2a3.153,3.153,0,0,0,.9.072c-2.586-.4-5.9-2.814-9.116-4.384a6.521,6.521,0,0,0,1.3-.242,46.122,46.122,0,0,0,5.409,1.712c.292.059.6.093.6.093a19.9,19.9,0,0,1-5.139-2.1c.525-.2,1.061-.443,1.595-.706,2.52,1.036,5.234,2.108,6.605,1.991a3.122,3.122,0,0,0,.706-.14c-1.581.226-3.413-.6-5.266-1.531q.648-.143,1.407-.366c2.778,1.016,7.711,1.869,9.483.6-2,.717-4.6.181-6.963-.482.24-.047.489-.1.767-.158,1.873.667,5.823.749,7.225-.176l.02-.011c.437.181.941.459.941.459a4.979,4.979,0,0,0-.817-.529C179.753,320.15,180.131,319.928,180.47,319.7Zm-17.5,1.208c-.366-.17-.724-.3-1.088-.439-.133-.05-.265-.115-.4-.161a1.257,1.257,0,0,0-.138-.054,17.166,17.166,0,0,0,1.624-.654c.509.2,1.05.418,1.62.654C164.023,320.489,163.482,320.709,162.973,320.908Zm4.23-.127q-.519-.265-1.041-.527c.348-.176.694-.351,1.041-.529a3.9,3.9,0,0,0,.925.529A3.907,3.907,0,0,0,167.2,320.781Zm4.024-.152c-.437-.124-.862-.251-1.274-.375.412-.124.837-.253,1.274-.376a.948.948,0,0,0,.36.376A.92.92,0,0,0,171.227,320.629Zm2.364-.375a12.134,12.134,0,0,1,5.624,0l0,0A12.143,12.143,0,0,1,173.591,320.254Z" transform="translate(-142.34 -299.543)" fill="#b2b4b3"/></g><g transform="translate(0 15.58)"><path d="M153.294,318.335c-2.579-.568-7.282,2.773-7.734,5.379C146.454,321.293,151.966,318.635,153.294,318.335Z" transform="translate(-123.145 -294.475)" fill="#b2b4b3"/><path d="M145.56,313.224c.452,2.608,5.155,5.949,7.734,5.382C151.966,318.3,146.454,315.644,145.56,313.224Z" transform="translate(-123.145 -300.844)" fill="#b2b4b3"/><path d="M157.116,308.345a5.124,5.124,0,0,0-2.249,5.488c-.536-1.45-2.382-3.873-4.852-2-2.167,1.73-1.133,5.587.631,8.028a19.643,19.643,0,0,0-4.054-1.362c-1.529-.355-4.748-.308-6.2.828-.855.665-1.224,1.911-.05,3.251a16.508,16.508,0,0,0,1.391,1.337,6.274,6.274,0,0,0-1.93.24,6.137,6.137,0,0,0-4.112,4.153s-.014.052-.036.156a1.562,1.562,0,0,1,.124-.1,12.11,12.11,0,0,1,4.578-2.5,14.9,14.9,0,0,1,4.642-.33l.385.007c.068,0,.14,0,.206,0a4.731,4.731,0,0,0-2.029-1.287,6.716,6.716,0,0,1-1.522-1.749,11.565,11.565,0,0,0,3.142.885,21.96,21.96,0,0,1-3.606-1.789,1.577,1.577,0,0,1-.086-.76,26.514,26.514,0,0,1,4.194,2.115s-2.5-2.33-3.812-2.7a1.363,1.363,0,0,1,.751-.3,8.054,8.054,0,0,1,3.128,1.907s-1.063-1.617-2.009-1.973a14.623,14.623,0,0,1,2.527.371,32.679,32.679,0,0,1,8.424,3.321c4.092,2.825,8.453,3.757,10.9,3.4l.265.016a26.954,26.954,0,0,1-12.991-7.257,10.99,10.99,0,0,1-1.785-2.586,7.087,7.087,0,0,0,3.3,2.353c-2.814-1.534-4.033-5.115-4.033-5.115a3.1,3.1,0,0,1,.113-.76,6.553,6.553,0,0,0,3.176,3.735,7.431,7.431,0,0,1-2.841-4.406,1.559,1.559,0,0,1,.118-.2,1.423,1.423,0,0,1,.276-.233s.889,2.556,2.5,3.3a7.982,7.982,0,0,1-2.043-3.579c1.321-.459,2.9,1.351,3.432,2.294a6.349,6.349,0,0,1,.294.6,5.394,5.394,0,0,1,1.69-5.366,4.164,4.164,0,0,0-.706,2.977,5.088,5.088,0,0,1,2.312-3.631,5.516,5.516,0,0,1,.613,0,4.83,4.83,0,0,0-1.916,2.907c1.488-2.572,2.794-2.8,2.794-2.8a4.079,4.079,0,0,1,.43.106,4.628,4.628,0,0,0-2.077,2.852,5.122,5.122,0,0,1,2.665-2.54.433.433,0,0,1,.156.292c.043.455-1.771,2.626-2.031,3.922a7.348,7.348,0,0,0-.136,2.249c.67,6.331,5.981,8.652,9.933,8.987a4.395,4.395,0,0,0,0,6.716c-3.954.335-9.266,2.656-9.935,8.987a7.348,7.348,0,0,0,.136,2.249c.26,1.3,2.074,3.47,2.031,3.922a.433.433,0,0,1-.156.292,5.123,5.123,0,0,1-2.665-2.54,4.636,4.636,0,0,0,2.077,2.855c-.136.041-.274.072-.43.1,0,0-1.305-.233-2.794-2.805a4.83,4.83,0,0,0,1.916,2.907,5.509,5.509,0,0,1-.613,0,5.088,5.088,0,0,1-2.312-3.631,4.163,4.163,0,0,0,.706,2.977,5.4,5.4,0,0,1-1.69-5.366,6.346,6.346,0,0,1-.294.6c-.534.943-2.111,2.753-3.432,2.294a7.983,7.983,0,0,1,2.043-3.579c-1.606.744-2.5,3.3-2.5,3.3a1.426,1.426,0,0,1-.276-.233,1.562,1.562,0,0,1-.118-.2,7.43,7.43,0,0,1,2.841-4.406,6.553,6.553,0,0,0-3.176,3.735,3.1,3.1,0,0,1-.113-.76s1.219-3.579,4.033-5.115a7.083,7.083,0,0,0-3.3,2.355,10.955,10.955,0,0,1,1.785-2.588,26.954,26.954,0,0,1,12.991-7.257l-.265.016c-2.445-.353-6.807.579-10.9,3.4a32.678,32.678,0,0,1-8.424,3.321,14.625,14.625,0,0,1-2.527.371c.946-.355,2.009-1.973,2.009-1.973a8.053,8.053,0,0,1-3.128,1.907,1.362,1.362,0,0,1-.751-.3c1.307-.371,3.812-2.7,3.812-2.7a26.514,26.514,0,0,1-4.194,2.115,1.578,1.578,0,0,1,.086-.76,21.956,21.956,0,0,1,3.606-1.789,11.561,11.561,0,0,0-3.142.884,6.717,6.717,0,0,1,1.522-1.749,4.731,4.731,0,0,0,2.029-1.287c-.066,0-.138,0-.206,0l-.385.007a14.9,14.9,0,0,1-4.642-.33,12.139,12.139,0,0,1-4.578-2.493c-.057-.043-.124-.106-.124-.106.023.1.036.156.036.156a6.137,6.137,0,0,0,4.112,4.153,6.35,6.35,0,0,0,1.93.242,16.1,16.1,0,0,0-1.391,1.335c-1.174,1.339-.805,2.586.05,3.251,1.457,1.135,4.676,1.183,6.2.828a19.649,19.649,0,0,0,4.054-1.362c-1.764,2.441-2.8,6.3-.631,8.03,2.47,1.866,4.316-.557,4.852-2.007a4.794,4.794,0,0,0,5.535,6.019,3.487,3.487,0,0,0,2.258-1.393,1.8,1.8,0,0,0,.086-1.669c-.774-2.011-1.749-2.638-1.88-4.336-.154-5.773,5.291-8.546,9.175-9.279a4.4,4.4,0,1,0,0-7.938c-3.884-.733-9.329-3.506-9.175-9.279.131-1.7,1.106-2.325,1.88-4.336a1.8,1.8,0,0,0-.086-1.669,3.487,3.487,0,0,0-2.258-1.393A5.1,5.1,0,0,0,157.116,308.345Z" transform="translate(-135.651 -307.751)" fill="#b2b4b3"/><path d="M136.776,320.8s.762-.371,1.061-.464c1.4.927,5.352.841,7.225.181.278.057.527.109.767.154-2.366.665-4.963,1.2-6.963.484,1.773,1.269,6.707.414,9.483-.6.511.149.975.271,1.407.364-1.853.939-3.685,1.76-5.266,1.534a3.191,3.191,0,0,0,.706.138c1.371.118,4.085-.955,6.605-1.991.534.265,1.07.507,1.595.706a19.9,19.9,0,0,1-5.139,2.1s.48-.059.606-.091a45.827,45.827,0,0,0,5.406-1.712,6.687,6.687,0,0,0,1.3.242c-3.219,1.568-6.528,3.979-9.116,4.386,0,0,.138.072.9-.072,2.608-.7,10.333-4.965,13.539-5.42a3.061,3.061,0,0,1,.726-.036,5.382,5.382,0,0,0-2.258-.118,11.666,11.666,0,0,0-3.2.975c-.28-.07-.6-.172-.955-.3.69-.247,1.337-.482,1.911-.685a4.359,4.359,0,0,0,2.029,0c-.018,0-.068-.02-.093-.025a10.064,10.064,0,0,1-1.013-.3,9.589,9.589,0,0,1,1.106-.328,4.423,4.423,0,0,0-2.029,0c-.057-.02-.133-.045-.183-.066-.529-.19-1.1-.4-1.728-.618a9.476,9.476,0,0,1,.955-.3,13.871,13.871,0,0,0,2.176.769,6.019,6.019,0,0,0,3.28.088,5.108,5.108,0,0,1-1.71-.251c-3.6-.993-10.184-4.574-12.555-5.2a3.155,3.155,0,0,0-.9-.072c2.588.4,5.9,2.814,9.116,4.384a6.525,6.525,0,0,0-1.3.242,46.283,46.283,0,0,0-5.406-1.712c-.294-.059-.606-.093-.606-.093a19.906,19.906,0,0,1,5.139,2.1c-.525.2-1.061.443-1.595.706-2.52-1.036-5.234-2.108-6.605-1.991a3.121,3.121,0,0,0-.706.14c1.581-.226,3.413.6,5.266,1.531-.432.095-.9.217-1.407.366-2.778-1.016-7.711-1.868-9.483-.6,2-.717,4.6-.181,6.963.482-.24.048-.489.1-.767.158-1.873-.667-5.823-.749-7.225.176l-.02.011c-.437-.181-.941-.457-.941-.457a5.142,5.142,0,0,0,.817.527C137.493,320.348,137.115,320.57,136.776,320.8Zm17.5-1.208c.366.17.724.3,1.088.439.133.05.265.115.4.161a1.232,1.232,0,0,0,.138.054,17.158,17.158,0,0,0-1.624.654c-.509-.2-1.05-.416-1.617-.654C153.224,320.009,153.764,319.789,154.273,319.59Zm-4.228.127q.516.265,1.038.527-.523.265-1.038.529a3.969,3.969,0,0,0-.927-.529A3.979,3.979,0,0,0,150.045,319.717Zm-4.024.152c.434.124.86.253,1.271.376-.412.124-.837.253-1.271.375a.94.94,0,0,0-.362-.375A.913.913,0,0,0,146.021,319.868Zm-2.366.376a12.126,12.126,0,0,1-5.621,0l0,0A12.143,12.143,0,0,1,143.655,320.244Z" transform="translate(-134.231 -299.535)" fill="#b2b4b3"/></g><g transform="translate(15.578)"><path d="M153.3,318.507c.568-2.579-2.773-7.282-5.382-7.734C150.342,311.669,153,317.181,153.3,318.507Z" transform="translate(-135.742 -288.358)" fill="#b2b4b3"/><path d="M158.412,310.773c-2.606.452-5.947,5.155-5.379,7.734C153.333,317.181,155.991,311.669,158.412,310.773Z" transform="translate(-129.373 -288.358)" fill="#b2b4b3"/><path d="M183.365,322.331a5.121,5.121,0,0,0-5.488-2.249c1.448-.538,3.87-2.382,2-4.854-1.73-2.165-5.59-1.133-8.028.631a19.71,19.71,0,0,0,1.362-4.051c.355-1.531.305-4.75-.828-6.207-.665-.853-1.914-1.222-3.253-.05a16.1,16.1,0,0,0-1.335,1.393,6.224,6.224,0,0,0-.242-1.932,6.124,6.124,0,0,0-4.153-4.11s-.05-.014-.156-.038a1.387,1.387,0,0,1,.106.124,12.158,12.158,0,0,1,2.5,4.578,14.835,14.835,0,0,1,.328,4.644l-.007.382c0,.068,0,.142,0,.208a4.747,4.747,0,0,0,1.287-2.031,6.792,6.792,0,0,1,1.746-1.522,11.594,11.594,0,0,0-.884,3.144,21.916,21.916,0,0,1,1.792-3.606,1.57,1.57,0,0,1,.758-.088,26.314,26.314,0,0,1-2.115,4.194s2.332-2.5,2.7-3.809a1.329,1.329,0,0,1,.3.751,8.1,8.1,0,0,1-1.907,3.128s1.615-1.063,1.97-2.009a14.355,14.355,0,0,1-.371,2.524,32.615,32.615,0,0,1-3.321,8.424c-2.825,4.094-3.755,8.453-3.4,10.9l-.018.267a26.952,26.952,0,0,1,7.259-12.991,11,11,0,0,1,2.586-1.787,7.094,7.094,0,0,0-2.355,3.3c1.536-2.814,5.115-4.035,5.115-4.035a3.1,3.1,0,0,1,.762.115,6.551,6.551,0,0,0-3.737,3.176,7.44,7.44,0,0,1,4.407-2.841,1.352,1.352,0,0,1,.2.118,1.6,1.6,0,0,1,.233.274s-2.558.891-3.3,2.5a8,8,0,0,1,3.579-2.04c.459,1.319-1.35,2.9-2.294,3.432a6.093,6.093,0,0,1-.6.294,5.4,5.4,0,0,1,5.368,1.688,4.159,4.159,0,0,0-2.979-.7,5.082,5.082,0,0,1,3.633,2.31c.009.2.014.4,0,.615a4.819,4.819,0,0,0-2.9-1.918c2.572,1.488,2.8,2.8,2.8,2.8a4.269,4.269,0,0,1-.1.43,4.628,4.628,0,0,0-2.855-2.079,5.123,5.123,0,0,1,2.54,2.667.434.434,0,0,1-.292.154c-.452.045-2.624-1.769-3.922-2.029a7.381,7.381,0,0,0-2.249-.138c-6.332.67-8.652,5.981-8.987,9.935a4.39,4.39,0,0,0-6.714,0c-.335-3.954-2.656-9.265-8.987-9.935a7.381,7.381,0,0,0-2.249.138c-1.3.26-3.47,2.074-3.922,2.029a.434.434,0,0,1-.292-.154,5.123,5.123,0,0,1,2.54-2.667,4.628,4.628,0,0,0-2.855,2.079,4.277,4.277,0,0,1-.1-.43s.231-1.307,2.8-2.8a4.819,4.819,0,0,0-2.9,1.918c-.011-.215-.007-.419,0-.615a5.082,5.082,0,0,1,3.633-2.31,4.159,4.159,0,0,0-2.979.7,5.4,5.4,0,0,1,5.368-1.688,6.093,6.093,0,0,1-.6-.294c-.943-.534-2.753-2.113-2.294-3.432a8,8,0,0,1,3.579,2.04c-.744-1.6-3.3-2.5-3.3-2.5a1.6,1.6,0,0,1,.233-.274,1.352,1.352,0,0,1,.2-.118,7.44,7.44,0,0,1,4.407,2.841,6.553,6.553,0,0,0-3.735-3.176,3.065,3.065,0,0,1,.76-.115s3.579,1.221,5.115,4.035a7.094,7.094,0,0,0-2.355-3.3,11,11,0,0,1,2.586,1.787,26.953,26.953,0,0,1,7.259,12.991l-.018-.267c.353-2.445-.577-6.8-3.4-10.9a32.614,32.614,0,0,1-3.321-8.424,14.351,14.351,0,0,1-.371-2.524c.355.946,1.97,2.009,1.97,2.009a8.1,8.1,0,0,1-1.907-3.128,1.345,1.345,0,0,1,.3-.751c.369,1.305,2.7,3.809,2.7,3.809a26.314,26.314,0,0,1-2.115-4.194,1.57,1.57,0,0,1,.758.088,21.916,21.916,0,0,1,1.792,3.606,11.592,11.592,0,0,0-.884-3.144,6.791,6.791,0,0,1,1.746,1.522,4.727,4.727,0,0,0,1.289,2.031c0-.066,0-.14,0-.208l-.007-.382a14.9,14.9,0,0,1,.328-4.644,12.158,12.158,0,0,1,2.5-4.578,1.389,1.389,0,0,1,.106-.124c-.106.025-.156.038-.156.038a6.124,6.124,0,0,0-4.153,4.11,6.225,6.225,0,0,0-.242,1.932,16.1,16.1,0,0,0-1.335-1.393c-1.339-1.172-2.588-.8-3.253.05-1.133,1.457-1.183,4.676-.828,6.207a19.71,19.71,0,0,0,1.362,4.051c-2.439-1.764-6.3-2.8-8.028-.631-1.866,2.472.557,4.316,2,4.854a4.793,4.793,0,0,0-6.019,5.533,3.49,3.49,0,0,0,1.4,2.258,1.8,1.8,0,0,0,1.669.086c2.011-.774,2.638-1.749,4.336-1.878,5.771-.156,8.544,5.291,9.279,9.175a4.4,4.4,0,1,0,7.938,0c.733-3.886,3.506-9.331,9.277-9.175,1.7.129,2.325,1.1,4.336,1.878a1.8,1.8,0,0,0,1.669-.086,3.49,3.49,0,0,0,1.4-2.258A5.11,5.11,0,0,0,183.365,322.331Z" transform="translate(-142.538 -300.864)" fill="#b2b4b3"/><path d="M154.487,301.989s.371.765.464,1.061c-.93,1.4-.842,5.354-.181,7.225-.057.278-.111.527-.156.767-.665-2.366-1.2-4.963-.484-6.96-1.267,1.773-.414,6.707.6,9.483-.147.509-.269.973-.364,1.407-.939-1.855-1.76-3.687-1.534-5.266a3.21,3.21,0,0,0-.136.706c-.118,1.371.952,4.085,1.988,6.6-.265.534-.5,1.07-.7,1.595a19.842,19.842,0,0,1-2.1-5.139s.059.48.093.606a45.843,45.843,0,0,0,1.712,5.409,6.492,6.492,0,0,0-.242,1.3c-1.57-3.221-3.981-6.531-4.386-9.116,0,0-.072.138.072.9.7,2.608,4.965,10.333,5.418,13.541a3.064,3.064,0,0,1,.038.726,5.383,5.383,0,0,0,.118-2.258,11.626,11.626,0,0,0-.977-3.2c.072-.281.172-.6.3-.955.249.688.484,1.335.688,1.911a4.349,4.349,0,0,0,0,2.027c0-.016.018-.066.023-.091.045-.206.145-.541.3-1.016a10.3,10.3,0,0,1,.33,1.106,4.474,4.474,0,0,0,0-2.027c.018-.057.045-.133.063-.183.19-.529.4-1.106.62-1.728.131.357.228.674.3.955a13.76,13.76,0,0,0-.769,2.174,6.05,6.05,0,0,0-.09,3.282,5.106,5.106,0,0,1,.251-1.71c1-3.6,4.574-10.186,5.2-12.557a3.14,3.14,0,0,0,.072-.9c-.4,2.586-2.812,5.895-4.384,9.116a6.335,6.335,0,0,0-.242-1.3,45.838,45.838,0,0,0,1.712-5.409c.059-.292.1-.606.1-.606a19.922,19.922,0,0,1-2.1,5.139c-.2-.525-.441-1.061-.706-1.595,1.038-2.518,2.108-5.232,1.991-6.6a3.2,3.2,0,0,0-.138-.706c.226,1.579-.6,3.411-1.531,5.266-.1-.434-.219-.9-.366-1.407,1.016-2.778,1.866-7.711.6-9.483.717,2,.181,4.594-.482,6.96-.048-.24-.1-.489-.158-.767.665-1.871.749-5.823-.176-7.225l-.011-.02c.181-.437.457-.939.457-.939a4.664,4.664,0,0,0-.527.817C154.935,302.708,154.713,302.331,154.487,301.989Zm1.208,17.5c-.17.364-.3.722-.439,1.086-.052.134-.118.267-.163.4-.016.043-.041.091-.054.136a16.312,16.312,0,0,0-.654-1.622c.2-.511.418-1.052.654-1.62Q155.392,318.72,155.695,319.488Zm-.129-4.23q-.265.516-.527,1.038c-.176-.348-.351-.694-.527-1.038a4.036,4.036,0,0,0,.527-.925A4.122,4.122,0,0,0,155.566,315.258Zm-.149-4.024c-.124.437-.253.86-.378,1.274-.124-.414-.253-.837-.376-1.274a.926.926,0,0,0,.376-.362A.916.916,0,0,0,155.417,311.234Zm-.378-2.364a12.165,12.165,0,0,1,0-5.624v0A12.093,12.093,0,0,1,155.039,308.87Z" transform="translate(-134.329 -299.444)" fill="#b2b4b3"/></g><g transform="translate(15.578 31.902)"><path d="M153.121,319.621c-.568,2.579,2.773,7.282,5.382,7.734C156.082,326.459,153.424,320.947,153.121,319.621Z" transform="translate(-129.262 -309.093)" fill="#b2b4b3"/><path d="M148.011,327.355c2.606-.452,5.947-5.155,5.379-7.734C153.089,320.947,150.431,326.459,148.011,327.355Z" transform="translate(-135.63 -309.093)" fill="#b2b4b3"/><path d="M143.131,334.177a5.122,5.122,0,0,0,5.488,2.248c-1.448.538-3.87,2.382-2,4.854,1.73,2.165,5.59,1.133,8.03-.631a19.624,19.624,0,0,0-1.364,4.051c-.353,1.531-.305,4.75.828,6.207.665.853,1.914,1.221,3.253.05a16.1,16.1,0,0,0,1.335-1.394,6.225,6.225,0,0,0,.242,1.932,6.124,6.124,0,0,0,4.153,4.11l.156.038a1.389,1.389,0,0,1-.106-.124,12.158,12.158,0,0,1-2.5-4.578,14.9,14.9,0,0,1-.328-4.644l.007-.382c0-.068,0-.143,0-.208a4.748,4.748,0,0,0-1.289,2.031,6.794,6.794,0,0,1-1.746,1.522,11.593,11.593,0,0,0,.884-3.144,21.913,21.913,0,0,1-1.792,3.606,1.568,1.568,0,0,1-.758.088,26.319,26.319,0,0,1,2.115-4.194s-2.332,2.5-2.7,3.809a1.346,1.346,0,0,1-.3-.751,8.1,8.1,0,0,1,1.907-3.129s-1.615,1.063-1.97,2.009a14.353,14.353,0,0,1,.371-2.525,32.614,32.614,0,0,1,3.321-8.424c2.825-4.094,3.755-8.453,3.4-10.9l.018-.267a26.952,26.952,0,0,1-7.259,12.991,10.954,10.954,0,0,1-2.586,1.787,7.094,7.094,0,0,0,2.355-3.3c-1.536,2.814-5.115,4.036-5.115,4.036a3.177,3.177,0,0,1-.76-.113,6.563,6.563,0,0,0,3.735-3.178,7.441,7.441,0,0,1-4.407,2.841,1.355,1.355,0,0,1-.2-.118,1.6,1.6,0,0,1-.233-.274s2.558-.891,3.3-2.5a7.988,7.988,0,0,1-3.579,2.04c-.459-1.319,1.35-2.9,2.294-3.432a6.09,6.09,0,0,1,.6-.294,5.4,5.4,0,0,1-5.368-1.688,4.16,4.16,0,0,0,2.979.7,5.089,5.089,0,0,1-3.633-2.31c-.009-.2-.014-.4,0-.615a4.819,4.819,0,0,0,2.9,1.918c-2.572-1.488-2.8-2.8-2.8-2.8a4.275,4.275,0,0,1,.1-.43,4.627,4.627,0,0,0,2.855,2.079,5.123,5.123,0,0,1-2.54-2.667.435.435,0,0,1,.292-.154c.452-.045,2.624,1.769,3.922,2.029a7.382,7.382,0,0,0,2.249.138c6.332-.67,8.653-5.981,8.987-9.935a4.39,4.39,0,0,0,6.714,0c.335,3.954,2.656,9.265,8.987,9.935a7.4,7.4,0,0,0,2.251-.138c1.3-.26,3.468-2.074,3.92-2.029a.435.435,0,0,1,.292.154,5.123,5.123,0,0,1-2.54,2.667,4.627,4.627,0,0,0,2.855-2.079,4.267,4.267,0,0,1,.1.43s-.231,1.307-2.8,2.8a4.827,4.827,0,0,0,2.907-1.918c.009.215,0,.419,0,.615a5.082,5.082,0,0,1-3.633,2.31,4.16,4.16,0,0,0,2.979-.7,5.4,5.4,0,0,1-5.368,1.688,6.09,6.09,0,0,1,.6.294c.943.534,2.755,2.113,2.294,3.432a8,8,0,0,1-3.579-2.04c.744,1.6,3.3,2.5,3.3,2.5a1.6,1.6,0,0,1-.233.274,1.355,1.355,0,0,1-.2.118,7.441,7.441,0,0,1-4.407-2.841,6.561,6.561,0,0,0,3.737,3.178,3.213,3.213,0,0,1-.762.113s-3.579-1.222-5.115-4.036a7.094,7.094,0,0,0,2.355,3.3,11,11,0,0,1-2.586-1.787A26.952,26.952,0,0,1,164.7,325.44l.018.267c-.353,2.445.577,6.8,3.4,10.9a32.7,32.7,0,0,1,3.318,8.424,14.357,14.357,0,0,1,.371,2.525c-.355-.946-1.97-2.009-1.97-2.009a8.1,8.1,0,0,1,1.907,3.129,1.329,1.329,0,0,1-.3.751c-.369-1.305-2.7-3.809-2.7-3.809a26.319,26.319,0,0,1,2.115,4.194,1.568,1.568,0,0,1-.758-.088,21.957,21.957,0,0,1-1.789-3.606,11.562,11.562,0,0,0,.882,3.144,6.8,6.8,0,0,1-1.746-1.522,4.747,4.747,0,0,0-1.287-2.031c0,.066,0,.14,0,.208l0,.382a14.835,14.835,0,0,1-.328,4.644,12.158,12.158,0,0,1-2.5,4.578,1.387,1.387,0,0,1-.106.124c.106-.025.156-.038.156-.038a6.124,6.124,0,0,0,4.153-4.11,6.224,6.224,0,0,0,.242-1.932,16.1,16.1,0,0,0,1.335,1.394c1.339,1.172,2.588.8,3.253-.05,1.133-1.457,1.183-4.676.828-6.207a19.758,19.758,0,0,0-1.362-4.051c2.439,1.764,6.3,2.8,8.028.631,1.866-2.472-.556-4.316-2-4.854a4.793,4.793,0,0,0,6.019-5.533,3.49,3.49,0,0,0-1.4-2.258,1.8,1.8,0,0,0-1.669-.086c-2.009.774-2.638,1.749-4.336,1.877-5.771.156-8.544-5.291-9.277-9.175a4.4,4.4,0,1,0-7.938,0c-.735,3.886-3.508,9.331-9.279,9.175-1.7-.129-2.325-1.1-4.336-1.877a1.8,1.8,0,0,0-1.669.086,3.49,3.49,0,0,0-1.4,2.258A5.11,5.11,0,0,0,143.131,334.177Z" transform="translate(-142.538 -314.967)" fill="#b2b4b3"/><path d="M155.583,345.685s-.371-.765-.464-1.061c.93-1.4.842-5.354.181-7.225.057-.278.111-.527.156-.767.665,2.366,1.2,4.963.484,6.96,1.267-1.773.414-6.7-.6-9.483.147-.509.269-.973.364-1.407.939,1.855,1.76,3.687,1.534,5.266a3.208,3.208,0,0,0,.136-.706c.118-1.371-.952-4.085-1.988-6.6a17.319,17.319,0,0,0,.7-1.595,19.84,19.84,0,0,1,2.1,5.139s-.059-.48-.093-.606a45.844,45.844,0,0,0-1.712-5.409,6.494,6.494,0,0,0,.242-1.3c1.57,3.221,3.981,6.531,4.386,9.116,0,0,.072-.138-.072-.9-.7-2.608-4.965-10.333-5.418-13.541a3.065,3.065,0,0,1-.038-.726,5.382,5.382,0,0,0-.118,2.258,11.622,11.622,0,0,0,.977,3.2c-.072.281-.172.6-.3.955-.249-.688-.484-1.335-.688-1.911a4.349,4.349,0,0,0,0-2.027c0,.016-.018.066-.023.091-.043.206-.145.541-.3,1.016a9.6,9.6,0,0,1-.328-1.106,4.442,4.442,0,0,0,0,2.027c-.018.057-.045.134-.063.183-.19.529-.4,1.106-.62,1.728-.131-.357-.228-.674-.3-.955a13.758,13.758,0,0,0,.769-2.174,6.05,6.05,0,0,0,.09-3.282,5.105,5.105,0,0,1-.251,1.71c-.993,3.6-4.574,10.186-5.2,12.557a3.141,3.141,0,0,0-.072.9c.4-2.586,2.812-5.9,4.384-9.116a6.335,6.335,0,0,0,.242,1.3,46.282,46.282,0,0,0-1.712,5.409c-.059.292-.1.606-.1.606a19.922,19.922,0,0,1,2.1-5.139c.2.525.441,1.061.706,1.595-1.036,2.518-2.108,5.232-1.991,6.6a3.2,3.2,0,0,0,.138.706c-.226-1.579.6-3.411,1.531-5.266.1.434.219.9.366,1.407-1.016,2.778-1.866,7.711-.6,9.483-.717-2-.181-4.594.482-6.96.047.24.1.489.161.767-.667,1.871-.751,5.823.176,7.225l.009.02c-.179.437-.457.939-.457.939a4.662,4.662,0,0,0,.527-.817C155.135,344.966,155.357,345.344,155.583,345.685Zm-1.208-17.5c.17-.364.3-.722.441-1.086.05-.133.115-.267.161-.4.016-.043.041-.091.054-.136a16.322,16.322,0,0,0,.654,1.622c-.2.511-.419,1.052-.654,1.62Q154.678,328.954,154.375,328.186Zm.129,4.23q.265-.516.527-1.038c.176.348.351.694.527,1.038a4.038,4.038,0,0,0-.527.925A4.123,4.123,0,0,0,154.5,332.416Zm.149,4.024c.124-.437.253-.86.378-1.271.124.412.253.835.375,1.271a.927.927,0,0,0-.375.362A.917.917,0,0,0,154.653,336.44Zm.378,2.364a12.2,12.2,0,0,1,0,5.624l0,0A12.123,12.123,0,0,1,155.031,338.8Z" transform="translate(-134.321 -307.554)" fill="#b2b4b3"/></g></g></svg>