<svg xmlns="http://www.w3.org/2000/svg" width="282.605" height="71.272" viewBox="0 0 282.605 71.272"><g transform="translate(0)"><rect width="27.894" height="30.87" rx="2.323" transform="translate(17.457 19.75)" fill="#b1b3b3"/><path d="M469.6,252.163a4.364,4.364,0,1,1-4.368-4.361,4.364,4.364,0,0,1,4.368,4.361" transform="translate(-427.761 -223.261)" fill="#fff"/><path d="M477.882,237.132H454.245a4.724,4.724,0,0,1-1.1,0,6.669,6.669,0,0,0-6.67,6.672V272a6.669,6.669,0,0,0,13.338,0v-9.924s-.294-4.513,2.266-7.135c2.638-2.7,7.588-2.266,7.588-2.266h8.218a7.772,7.772,0,1,0,0-15.543" transform="translate(-446.473 -237.132)" fill="#b1b3b3"/><path d="M464.572,291.6h23.637c.184,0,.366-.012.554-.025.182.014.363.025.547.025a6.669,6.669,0,0,0,6.67-6.672v-28.2a6.669,6.669,0,0,0-13.338,0v9.924s.292,4.513-2.265,7.135c-2.638,2.7-7.588,2.265-7.588,2.265h-8.218a7.772,7.772,0,0,0,0,15.543" transform="translate(-433.044 -220.323)" fill="#b1b3b3"/><path d="M488.369,263.7a3.861,3.861,0,0,1-.032.566,1.341,1.341,0,0,1-.11.382.548.548,0,0,1-.182.235.463.463,0,0,1-.262.078h-9.6a1.191,1.191,0,0,1-.731-.26,1.087,1.087,0,0,1-.343-.915v-20.1a.482.482,0,0,1,.064-.239.453.453,0,0,1,.239-.156,2.461,2.461,0,0,1,.451-.1,4.327,4.327,0,0,1,.692-.044,4.23,4.23,0,0,1,.695.044,2.777,2.777,0,0,1,.448.1.464.464,0,0,1,.23.156.423.423,0,0,1,.069.239v18.777h7.785a.446.446,0,0,1,.262.078.625.625,0,0,1,.182.214,1.188,1.188,0,0,1,.11.377,4.1,4.1,0,0,1,.032.57" transform="translate(-406.648 -229.322)" fill="#b1b3b3"/><path d="M500.95,263.937a2.131,2.131,0,0,1,.143.589.43.43,0,0,1-.126.345.754.754,0,0,1-.446.149,7.112,7.112,0,0,1-.83.039c-.35,0-.623-.014-.83-.028a1.7,1.7,0,0,1-.472-.083.471.471,0,0,1-.232-.163,1.346,1.346,0,0,1-.143-.246l-1.868-5.29h-9.027l-1.778,5.219a.994.994,0,0,1-.131.267.682.682,0,0,1-.246.182,1.435,1.435,0,0,1-.455.1,6.057,6.057,0,0,1-.761.039,6.737,6.737,0,0,1-.8-.039.825.825,0,0,1-.437-.163.409.409,0,0,1-.117-.343,2.224,2.224,0,0,1,.143-.6l7.282-20.173a.853.853,0,0,1,.179-.3.755.755,0,0,1,.317-.182,2.182,2.182,0,0,1,.538-.092c.214-.018.495-.025.833-.025.356,0,.651.007.885.025a2.377,2.377,0,0,1,.57.092.729.729,0,0,1,.336.193.834.834,0,0,1,.186.306ZM491.6,246.125h-.016l-3.744,10.826h7.556Z" transform="translate(-399.775 -229.322)" fill="#b1b3b3"/><path d="M506.353,258.675a6.509,6.509,0,0,1-.26,1.884,5.677,5.677,0,0,1-.734,1.557,5.261,5.261,0,0,1-1.129,1.208,7,7,0,0,1-1.493.876,8.7,8.7,0,0,1-1.778.524,12.048,12.048,0,0,1-2.176.177h-5.676a1.169,1.169,0,0,1-.727-.26,1.073,1.073,0,0,1-.343-.915V244.357a1.059,1.059,0,0,1,.343-.908,1.177,1.177,0,0,1,.727-.267h4.933a11.377,11.377,0,0,1,3.19.377,5.583,5.583,0,0,1,2.077,1.07,4.438,4.438,0,0,1,1.247,1.727,6.081,6.081,0,0,1,.423,2.318,5.82,5.82,0,0,1-.186,1.479,5.046,5.046,0,0,1-.545,1.3,4.291,4.291,0,0,1-.906,1.065,4.726,4.726,0,0,1-1.251.773,5.3,5.3,0,0,1,1.661.609,5.074,5.074,0,0,1,1.35,1.136,5.161,5.161,0,0,1,.915,1.61,5.927,5.927,0,0,1,.338,2.031M502,248.96a4.489,4.489,0,0,0-.214-1.428,2.707,2.707,0,0,0-.688-1.083,3.215,3.215,0,0,0-1.224-.683,7.152,7.152,0,0,0-1.99-.232h-2.983v7.036h3.282a4.6,4.6,0,0,0,1.81-.3,3.162,3.162,0,0,0,1.136-.787,3.116,3.116,0,0,0,.662-1.155A4.688,4.688,0,0,0,502,248.96m1.311,9.885a4.389,4.389,0,0,0-.311-1.714,3.157,3.157,0,0,0-.9-1.24,3.983,3.983,0,0,0-1.493-.766,8.138,8.138,0,0,0-2.252-.26h-3.45v7.652h4.186a5.68,5.68,0,0,0,1.725-.235,3.828,3.828,0,0,0,1.3-.695,3.21,3.21,0,0,0,.883-1.155,3.707,3.707,0,0,0,.317-1.589" transform="translate(-387.239 -229.267)" fill="#b1b3b3"/><path d="M519.054,253.974a16.982,16.982,0,0,1-.623,4.752,9.964,9.964,0,0,1-1.856,3.595,8.077,8.077,0,0,1-3.1,2.286,11.1,11.1,0,0,1-4.347.791,11.225,11.225,0,0,1-4.241-.727,7.458,7.458,0,0,1-2.949-2.123,8.96,8.96,0,0,1-1.736-3.459,17.731,17.731,0,0,1-.573-4.752,16.378,16.378,0,0,1,.623-4.66,9.727,9.727,0,0,1,1.861-3.57,8.27,8.27,0,0,1,3.1-2.266,10.946,10.946,0,0,1,4.349-.8,11.08,11.08,0,0,1,4.177.72,7.686,7.686,0,0,1,2.962,2.109,8.965,8.965,0,0,1,1.76,3.42,17.092,17.092,0,0,1,.584,4.681m-3.057.2a17.126,17.126,0,0,0-.324-3.434,7.962,7.962,0,0,0-1.093-2.753,5.258,5.258,0,0,0-2.038-1.824,6.86,6.86,0,0,0-3.151-.649,6.449,6.449,0,0,0-3.146.7,5.942,5.942,0,0,0-2.072,1.874,7.885,7.885,0,0,0-1.145,2.746,15.522,15.522,0,0,0-.336,3.3,18.023,18.023,0,0,0,.317,3.524,7.7,7.7,0,0,0,1.069,2.778,5.2,5.2,0,0,0,2.019,1.817,6.988,6.988,0,0,0,3.174.644,6.534,6.534,0,0,0,3.188-.708,5.666,5.666,0,0,0,2.077-1.9,8.019,8.019,0,0,0,1.122-2.778,15.722,15.722,0,0,0,.338-3.335" transform="translate(-377.365 -229.446)" fill="#b1b3b3"/><path d="M524.542,264.466a.515.515,0,0,1-.046.232.377.377,0,0,1-.221.168,1.752,1.752,0,0,1-.467.1A6.83,6.83,0,0,1,523,265a5.4,5.4,0,0,1-.715-.039,1.5,1.5,0,0,1-.446-.1.65.65,0,0,1-.26-.214,1.2,1.2,0,0,1-.159-.331l-2-5.122c-.235-.577-.481-1.115-.734-1.6a4.921,4.921,0,0,0-.895-1.258,3.838,3.838,0,0,0-1.228-.826,4.382,4.382,0,0,0-1.693-.285H512.95v9.244a.367.367,0,0,1-.078.232.5.5,0,0,1-.234.163,2.81,2.81,0,0,1-.437.1,6.226,6.226,0,0,1-1.394,0,3.1,3.1,0,0,1-.446-.1.439.439,0,0,1-.235-.163.423.423,0,0,1-.064-.232V244.357a1.072,1.072,0,0,1,.343-.908,1.19,1.19,0,0,1,.731-.267h4.618c.545,0,1,.021,1.362.046s.695.057.984.09a8.287,8.287,0,0,1,2.222.688,5.28,5.28,0,0,1,1.619,1.2,4.844,4.844,0,0,1,.984,1.649,6.307,6.307,0,0,1,.324,2.056,6.1,6.1,0,0,1-.292,1.96,4.784,4.784,0,0,1-.849,1.527,5.621,5.621,0,0,1-1.325,1.148,8.325,8.325,0,0,1-1.727.819,4.1,4.1,0,0,1,.973.6,5.179,5.179,0,0,1,.812.869,7.918,7.918,0,0,1,.715,1.157c.225.435.446.927.672,1.472l1.95,4.784c.154.4.253.688.3.851a1.549,1.549,0,0,1,.067.377M520.2,249.213a3.881,3.881,0,0,0-.575-2.162,3.241,3.241,0,0,0-1.911-1.265,6.046,6.046,0,0,0-.948-.17c-.354-.032-.814-.044-1.382-.044H512.95v7.314h2.815a6.329,6.329,0,0,0,1.973-.278,3.85,3.85,0,0,0,1.382-.773,2.943,2.943,0,0,0,.814-1.161,4.067,4.067,0,0,0,.265-1.46" transform="translate(-363.809 -229.267)" fill="#b1b3b3"/><path d="M535.732,263.937a2.055,2.055,0,0,1,.143.589.416.416,0,0,1-.126.345.733.733,0,0,1-.442.149,7.167,7.167,0,0,1-.83.039c-.352,0-.623-.014-.833-.028a1.735,1.735,0,0,1-.474-.083.481.481,0,0,1-.232-.163,1.469,1.469,0,0,1-.143-.246l-1.863-5.29h-9.025l-1.783,5.219a.934.934,0,0,1-.133.267.7.7,0,0,1-.241.182,1.5,1.5,0,0,1-.455.1,6.244,6.244,0,0,1-.766.039,6.567,6.567,0,0,1-.791-.039.843.843,0,0,1-.439-.163.41.41,0,0,1-.12-.343,2.143,2.143,0,0,1,.143-.6l7.286-20.173a.845.845,0,0,1,.175-.3.8.8,0,0,1,.317-.182,2.243,2.243,0,0,1,.536-.092c.221-.018.5-.025.835-.025.359,0,.655.007.892.025a2.441,2.441,0,0,1,.568.092.746.746,0,0,1,.333.193.827.827,0,0,1,.182.306Zm-9.347-17.811h-.019l-3.74,10.826h7.549Z" transform="translate(-354.557 -229.322)" fill="#b1b3b3"/><path d="M540.755,244.429a3.294,3.294,0,0,1-.037.552,1.09,1.09,0,0,1-.106.375.529.529,0,0,1-.186.216.457.457,0,0,1-.246.064h-6.1v18.83a.391.391,0,0,1-.069.232.423.423,0,0,1-.232.163,3.257,3.257,0,0,1-.446.1,6.144,6.144,0,0,1-1.385,0,2.98,2.98,0,0,1-.455-.1.424.424,0,0,1-.232-.163.391.391,0,0,1-.069-.232v-18.83h-6.111a.455.455,0,0,1-.239-.064.479.479,0,0,1-.175-.216,1.332,1.332,0,0,1-.11-.375,3.25,3.25,0,0,1-.044-.552,3.424,3.424,0,0,1,.044-.566,1.586,1.586,0,0,1,.11-.4.449.449,0,0,1,.175-.214.441.441,0,0,1,.239-.071h15.1a.442.442,0,0,1,.246.071.494.494,0,0,1,.186.214,1.277,1.277,0,0,1,.106.4,3.469,3.469,0,0,1,.037.566" transform="translate(-345.028 -229.267)" fill="#b1b3b3"/><path d="M551.392,253.974a16.735,16.735,0,0,1-.619,4.752,9.918,9.918,0,0,1-1.849,3.595,8.058,8.058,0,0,1-3.1,2.286,12.519,12.519,0,0,1-8.584.064,7.45,7.45,0,0,1-2.951-2.123,9.057,9.057,0,0,1-1.739-3.459,17.731,17.731,0,0,1-.571-4.752,16.461,16.461,0,0,1,.619-4.66,9.732,9.732,0,0,1,1.865-3.57,8.243,8.243,0,0,1,3.1-2.266,10.949,10.949,0,0,1,4.347-.8,11.109,11.109,0,0,1,4.184.72,7.669,7.669,0,0,1,2.958,2.109,9.005,9.005,0,0,1,1.766,3.42,17.388,17.388,0,0,1,.57,4.681m-3.05.2a16.793,16.793,0,0,0-.324-3.434,8.008,8.008,0,0,0-1.09-2.753,5.274,5.274,0,0,0-2.038-1.824,6.877,6.877,0,0,0-3.149-.649,6.471,6.471,0,0,0-3.153.7,5.981,5.981,0,0,0-2.072,1.874,7.83,7.83,0,0,0-1.136,2.746,15.37,15.37,0,0,0-.343,3.3,18.023,18.023,0,0,0,.317,3.524,7.875,7.875,0,0,0,1.072,2.778,5.166,5.166,0,0,0,2.017,1.817,7,7,0,0,0,3.179.644,6.516,6.516,0,0,0,3.183-.708,5.672,5.672,0,0,0,2.079-1.9,8.066,8.066,0,0,0,1.125-2.778,16.018,16.018,0,0,0,.334-3.335" transform="translate(-335.314 -229.446)" fill="#b1b3b3"/><path d="M556.888,264.466a.515.515,0,0,1-.046.232.385.385,0,0,1-.221.168,1.749,1.749,0,0,1-.467.1,6.742,6.742,0,0,1-.8.039,5.356,5.356,0,0,1-.713-.039,1.467,1.467,0,0,1-.444-.1.633.633,0,0,1-.264-.214,1.259,1.259,0,0,1-.156-.331l-2-5.122c-.23-.577-.478-1.115-.731-1.6a4.918,4.918,0,0,0-.895-1.258,3.818,3.818,0,0,0-1.224-.826,4.43,4.43,0,0,0-1.7-.285H545.3v9.244a.356.356,0,0,1-.078.232.49.49,0,0,1-.235.163,2.562,2.562,0,0,1-.437.1,6.206,6.206,0,0,1-1.391,0,3.145,3.145,0,0,1-.448-.1.44.44,0,0,1-.235-.163.423.423,0,0,1-.064-.232V244.357a1.066,1.066,0,0,1,.345-.908,1.193,1.193,0,0,1,.729-.267H548.1c.547,0,1,.021,1.369.046s.692.057.98.09a8.324,8.324,0,0,1,2.226.688,5.335,5.335,0,0,1,1.619,1.2,4.87,4.87,0,0,1,.98,1.649,6.191,6.191,0,0,1,.329,2.056,5.973,5.973,0,0,1-.3,1.96,4.607,4.607,0,0,1-.846,1.527,5.587,5.587,0,0,1-1.327,1.148,8.324,8.324,0,0,1-1.727.819,4.072,4.072,0,0,1,.975.6,5.076,5.076,0,0,1,.81.869,7.362,7.362,0,0,1,.715,1.157c.223.435.448.927.674,1.472l1.948,4.784c.152.4.253.688.3.851a1.42,1.42,0,0,1,.064.377m-4.345-15.254a3.937,3.937,0,0,0-.568-2.162,3.26,3.26,0,0,0-1.916-1.265,5.95,5.95,0,0,0-.948-.17c-.354-.032-.817-.044-1.385-.044H545.3v7.314h2.818a6.349,6.349,0,0,0,1.973-.278,3.84,3.84,0,0,0,1.385-.773,2.986,2.986,0,0,0,.812-1.161,4.016,4.016,0,0,0,.26-1.46" transform="translate(-321.759 -229.267)" fill="#b1b3b3"/><path d="M553.409,264.521a.423.423,0,0,1-.064.232.439.439,0,0,1-.235.163,2.366,2.366,0,0,1-.446.1,4.234,4.234,0,0,1-.7.046,4.175,4.175,0,0,1-.683-.046,2.247,2.247,0,0,1-.455-.1.4.4,0,0,1-.232-.163.351.351,0,0,1-.074-.232V243.678a.4.4,0,0,1,.078-.239.508.508,0,0,1,.253-.156,2.67,2.67,0,0,1,.455-.1,3.9,3.9,0,0,1,.658-.044,4.274,4.274,0,0,1,.7.044,2.537,2.537,0,0,1,.446.1.376.376,0,0,1,.3.4Z" transform="translate(-311.212 -229.322)" fill="#b1b3b3"/><path d="M573.167,253.974a16.907,16.907,0,0,1-.619,4.752,10,10,0,0,1-1.854,3.595,8.076,8.076,0,0,1-3.1,2.286,12.518,12.518,0,0,1-8.583.064,7.506,7.506,0,0,1-2.953-2.123,9.09,9.09,0,0,1-1.736-3.459,17.936,17.936,0,0,1-.566-4.752,16.38,16.38,0,0,1,.616-4.66,9.73,9.73,0,0,1,1.863-3.57,8.236,8.236,0,0,1,3.1-2.266,10.939,10.939,0,0,1,4.345-.8,11.088,11.088,0,0,1,4.181.72,7.667,7.667,0,0,1,2.962,2.109,8.966,8.966,0,0,1,1.762,3.42,17.191,17.191,0,0,1,.577,4.681m-3.054.2a16.788,16.788,0,0,0-.327-3.434,7.957,7.957,0,0,0-1.088-2.753,5.294,5.294,0,0,0-2.033-1.824,6.887,6.887,0,0,0-3.156-.649,6.468,6.468,0,0,0-3.151.7,6.036,6.036,0,0,0-2.07,1.874,8.013,8.013,0,0,0-1.141,2.746,15.379,15.379,0,0,0-.34,3.3,18.593,18.593,0,0,0,.315,3.524,7.879,7.879,0,0,0,1.074,2.778,5.147,5.147,0,0,0,2.022,1.817,6.981,6.981,0,0,0,3.174.644,6.535,6.535,0,0,0,3.188-.708,5.719,5.719,0,0,0,2.077-1.9,8.107,8.107,0,0,0,1.122-2.778,16.035,16.035,0,0,0,.333-3.335" transform="translate(-307.007 -229.446)" fill="#b1b3b3"/><path d="M576.8,258.992a6.308,6.308,0,0,1-.561,2.712,5.865,5.865,0,0,1-1.559,2.026,6.813,6.813,0,0,1-2.353,1.251,9.734,9.734,0,0,1-2.914.416,10.507,10.507,0,0,1-2.022-.182,10.886,10.886,0,0,1-1.661-.455,8.185,8.185,0,0,1-1.224-.557,3.407,3.407,0,0,1-.688-.481,1.176,1.176,0,0,1-.283-.513,2.9,2.9,0,0,1-.1-.83,4.386,4.386,0,0,1,.035-.612,1.384,1.384,0,0,1,.1-.4.481.481,0,0,1,.168-.214.456.456,0,0,1,.237-.051,1.319,1.319,0,0,1,.662.285,11.124,11.124,0,0,0,1.1.616,10.392,10.392,0,0,0,1.621.63,7.488,7.488,0,0,0,2.19.292,5.719,5.719,0,0,0,1.718-.248,4.093,4.093,0,0,0,1.348-.72,3.1,3.1,0,0,0,.86-1.129,3.7,3.7,0,0,0,.3-1.525,2.868,2.868,0,0,0-.419-1.578,4.224,4.224,0,0,0-1.111-1.155,9.542,9.542,0,0,0-1.564-.9c-.589-.271-1.189-.557-1.806-.837s-1.212-.6-1.8-.948a7.875,7.875,0,0,1-1.562-1.226,5.581,5.581,0,0,1-1.116-1.656,5.474,5.474,0,0,1-.425-2.27,5.771,5.771,0,0,1,.49-2.429,5.083,5.083,0,0,1,1.38-1.785,6.223,6.223,0,0,1,2.1-1.1,9.007,9.007,0,0,1,2.627-.375,8.634,8.634,0,0,1,1.451.129,10.639,10.639,0,0,1,1.375.331,7.639,7.639,0,0,1,1.15.474,3.237,3.237,0,0,1,.665.416,1.664,1.664,0,0,1,.209.253,1.1,1.1,0,0,1,.083.239,3.039,3.039,0,0,1,.053.345c.009.129.011.3.011.52,0,.193,0,.375-.021.531a1.962,1.962,0,0,1-.078.4.491.491,0,0,1-.14.235.318.318,0,0,1-.207.078,1.344,1.344,0,0,1-.582-.235c-.262-.163-.586-.338-.964-.531a8,8,0,0,0-1.352-.534,5.928,5.928,0,0,0-1.757-.246,4.642,4.642,0,0,0-1.575.246,3.194,3.194,0,0,0-1.109.644,2.481,2.481,0,0,0-.651.959,3.117,3.117,0,0,0-.221,1.175,2.829,2.829,0,0,0,.419,1.557,4.216,4.216,0,0,0,1.115,1.157,9.783,9.783,0,0,0,1.592.927c.589.278,1.194.559,1.81.844s1.221.6,1.81.941a7.548,7.548,0,0,1,1.587,1.208,5.571,5.571,0,0,1,1.125,1.649,5.391,5.391,0,0,1,.428,2.24" transform="translate(-294.412 -229.446)" fill="#b1b3b3"/><path d="M489.606,263.277a11.741,11.741,0,0,1-.432,3.31,7.017,7.017,0,0,1-1.29,2.518,5.667,5.667,0,0,1-2.164,1.592,7.646,7.646,0,0,1-3.031.552,7.842,7.842,0,0,1-2.951-.506,5.254,5.254,0,0,1-2.061-1.481,6.318,6.318,0,0,1-1.214-2.415,12.525,12.525,0,0,1-.4-3.31,11.309,11.309,0,0,1,.435-3.252,6.775,6.775,0,0,1,1.3-2.486,5.61,5.61,0,0,1,2.162-1.576,7.568,7.568,0,0,1,3.031-.559,7.819,7.819,0,0,1,2.916.5,5.249,5.249,0,0,1,2.063,1.474,6.214,6.214,0,0,1,1.23,2.383,11.975,11.975,0,0,1,.4,3.257m-2.127.143a12.087,12.087,0,0,0-.228-2.394,5.5,5.5,0,0,0-.764-1.916,3.673,3.673,0,0,0-1.417-1.272,4.779,4.779,0,0,0-2.2-.46,4.5,4.5,0,0,0-2.2.495,4.218,4.218,0,0,0-1.447,1.311,5.608,5.608,0,0,0-.793,1.914,10.647,10.647,0,0,0-.239,2.3,12.781,12.781,0,0,0,.221,2.461,5.652,5.652,0,0,0,.75,1.939,3.6,3.6,0,0,0,1.412,1.26,4.836,4.836,0,0,0,2.213.453,4.537,4.537,0,0,0,2.219-.492,4,4,0,0,0,1.451-1.332,5.663,5.663,0,0,0,.782-1.934,11.149,11.149,0,0,0,.235-2.33" transform="translate(-408.002 -213.04)" fill="#b1b3b3"/><path d="M495.642,256.623a3.169,3.169,0,0,1-.023.391.877.877,0,0,1-.081.265.452.452,0,0,1-.136.143.275.275,0,0,1-.159.046h-5.55v5.147h5.246a.269.269,0,0,1,.154.046.3.3,0,0,1,.136.136.614.614,0,0,1,.085.246,2.812,2.812,0,0,1,.023.409,2.667,2.667,0,0,1-.023.384.67.67,0,0,1-.085.246.366.366,0,0,1-.136.156.243.243,0,0,1-.154.051h-5.246V270.6a.315.315,0,0,1-.046.163.287.287,0,0,1-.163.11,1.6,1.6,0,0,1-.3.071,4.661,4.661,0,0,1-.971,0,1.527,1.527,0,0,1-.317-.071.31.31,0,0,1-.166-.11.366.366,0,0,1-.046-.163V256.576a.759.759,0,0,1,.239-.635.812.812,0,0,1,.511-.182h6.813a.341.341,0,0,1,.159.046.415.415,0,0,1,.136.154.845.845,0,0,1,.081.274,3.217,3.217,0,0,1,.023.389" transform="translate(-392.901 -212.916)" fill="#b1b3b3"/><path d="M507.341,256.623a2.856,2.856,0,0,1-.018.391.887.887,0,0,1-.076.265.373.373,0,0,1-.129.143.3.3,0,0,1-.168.046h-4.262V270.6a.331.331,0,0,1-.046.17.3.3,0,0,1-.166.1,1.485,1.485,0,0,1-.31.071,3.6,3.6,0,0,1-.488.025,3.506,3.506,0,0,1-.476-.025,1.466,1.466,0,0,1-.315-.071.265.265,0,0,1-.166-.1.312.312,0,0,1-.048-.17V257.467h-4.26a.285.285,0,0,1-.168-.046.336.336,0,0,1-.126-.143,1.16,1.16,0,0,1-.074-.265,2.176,2.176,0,0,1-.028-.391,2.2,2.2,0,0,1,.028-.389,1.1,1.1,0,0,1,.074-.274.322.322,0,0,1,.126-.154.347.347,0,0,1,.168-.046H506.95a.368.368,0,0,1,.168.046.352.352,0,0,1,.129.154.858.858,0,0,1,.076.274,2.879,2.879,0,0,1,.018.389" transform="translate(-382.065 -212.916)" fill="#b1b3b3"/><path d="M517.669,272.8a1.63,1.63,0,0,1,.1.416.3.3,0,0,1-.087.239.5.5,0,0,1-.308.1,4.4,4.4,0,0,1-.58.028c-.244,0-.439-.007-.582-.021a1.342,1.342,0,0,1-.324-.057.357.357,0,0,1-.166-.11,1.2,1.2,0,0,1-.1-.175l-1.3-3.687h-6.3l-1.242,3.641a.951.951,0,0,1-.09.182.436.436,0,0,1-.175.124.854.854,0,0,1-.317.076,3.689,3.689,0,0,1-.534.028,4.394,4.394,0,0,1-.552-.032.538.538,0,0,1-.3-.11.293.293,0,0,1-.083-.241,1.4,1.4,0,0,1,.1-.414l5.076-14.067a.627.627,0,0,1,.124-.207.47.47,0,0,1,.225-.129,1.357,1.357,0,0,1,.37-.067c.156-.011.345-.018.582-.018s.458.007.619.018a1.5,1.5,0,0,1,.4.067.458.458,0,0,1,.234.136.529.529,0,0,1,.129.214Zm-6.514-12.415h-.016l-2.61,7.549h5.265Zm1.4-6.192a1.279,1.279,0,0,1,.248-.235,1.071,1.071,0,0,1,.278-.131,2.432,2.432,0,0,1,.363-.064c.14-.011.308-.011.5-.011a2.073,2.073,0,0,1,.547.051.59.59,0,0,1,.283.136.2.2,0,0,1,.051.189.618.618,0,0,1-.131.221l-2.659,2.479a1.4,1.4,0,0,1-.221.182,1.1,1.1,0,0,1-.223.1,1.206,1.206,0,0,1-.3.06,3.48,3.48,0,0,1-.412.018,3.125,3.125,0,0,1-.421-.025.411.411,0,0,1-.209-.1.172.172,0,0,1-.037-.163.7.7,0,0,1,.129-.221Z" transform="translate(-370.738 -215.527)" fill="#b1b3b3"/><path d="M523.653,270.067a2.891,2.891,0,0,1-.025.389.935.935,0,0,1-.078.274.38.38,0,0,1-.129.161.3.3,0,0,1-.175.053h-6.7a.821.821,0,0,1-.51-.182.75.75,0,0,1-.239-.637V256.106a.242.242,0,0,1,.048-.163.287.287,0,0,1,.166-.117,1.918,1.918,0,0,1,.311-.071,4.548,4.548,0,0,1,.481-.025,4.345,4.345,0,0,1,.481.025,1.916,1.916,0,0,1,.31.071.307.307,0,0,1,.17.117.268.268,0,0,1,.046.163V269.2h5.432a.258.258,0,0,1,.175.057.345.345,0,0,1,.129.149.787.787,0,0,1,.078.26,3.211,3.211,0,0,1,.025.4" transform="translate(-356.347 -212.956)" fill="#b1b3b3"/><path d="M540.993,270.6a.273.273,0,0,1-.048.163.262.262,0,0,1-.172.11,1.434,1.434,0,0,1-.306.071,3.584,3.584,0,0,1-.959,0,1.372,1.372,0,0,1-.315-.071.272.272,0,0,1-.212-.274V257.409h-.025l-5.336,13.246a.412.412,0,0,1-.1.145.557.557,0,0,1-.189.1,1.571,1.571,0,0,1-.292.057,3.361,3.361,0,0,1-.4.021,3.486,3.486,0,0,1-.421-.028,1.246,1.246,0,0,1-.3-.064.457.457,0,0,1-.177-.1.306.306,0,0,1-.092-.131l-5.1-13.246h-.014V270.6a.272.272,0,0,1-.044.163.281.281,0,0,1-.172.11,1.588,1.588,0,0,1-.313.071,3.479,3.479,0,0,1-.5.032,3.42,3.42,0,0,1-.478-.032,1.367,1.367,0,0,1-.306-.071.236.236,0,0,1-.156-.11.308.308,0,0,1-.044-.163V256.668a.842.842,0,0,1,.262-.7.927.927,0,0,1,.58-.207h1.24a2.511,2.511,0,0,1,.662.071,1.306,1.306,0,0,1,.5.221,1.39,1.39,0,0,1,.357.384,2.725,2.725,0,0,1,.246.55l4.335,10.971h.055l4.5-10.932a3.512,3.512,0,0,1,.292-.6,1.385,1.385,0,0,1,.336-.4,1.248,1.248,0,0,1,.412-.209,1.794,1.794,0,0,1,.522-.064h1.295a1.085,1.085,0,0,1,.338.053.7.7,0,0,1,.278.161.957.957,0,0,1,.182.278,1.127,1.127,0,0,1,.071.416Z" transform="translate(-345.003 -212.916)" fill="#b1b3b3"/><path d="M539.794,270.638a.29.29,0,0,1-.046.163.272.272,0,0,1-.163.11,1.485,1.485,0,0,1-.31.071,3.652,3.652,0,0,1-.968,0,1.575,1.575,0,0,1-.315-.071.271.271,0,0,1-.163-.11.29.29,0,0,1-.046-.163V256.106a.27.27,0,0,1,.051-.163.337.337,0,0,1,.177-.117,2.237,2.237,0,0,1,.317-.071,4.268,4.268,0,0,1,.46-.025,4.586,4.586,0,0,1,.488.025,2.112,2.112,0,0,1,.31.071.325.325,0,0,1,.163.117.284.284,0,0,1,.046.163Z" transform="translate(-327.771 -212.956)" fill="#b1b3b3"/><path d="M555.36,268.866c0,.131-.007.235-.009.331a1.436,1.436,0,0,1-.044.242.568.568,0,0,1-.078.189.813.813,0,0,1-.161.2,3.4,3.4,0,0,1-.492.357,5.982,5.982,0,0,1-.929.469,7.446,7.446,0,0,1-1.276.382,7.016,7.016,0,0,1-1.573.163,6.876,6.876,0,0,1-2.668-.495,5.352,5.352,0,0,1-2.017-1.447,6.714,6.714,0,0,1-1.29-2.376,11.845,11.845,0,0,1,.037-6.6,7.181,7.181,0,0,1,1.364-2.5,5.819,5.819,0,0,1,2.1-1.564,6.7,6.7,0,0,1,2.712-.538,6.3,6.3,0,0,1,1.272.124,7.7,7.7,0,0,1,1.148.31,5.29,5.29,0,0,1,.938.43,3.013,3.013,0,0,1,.568.407.981.981,0,0,1,.2.242.575.575,0,0,1,.078.193,1.357,1.357,0,0,1,.046.26,2.746,2.746,0,0,1,.021.363,2.194,2.194,0,0,1-.028.4.778.778,0,0,1-.071.274.37.37,0,0,1-.11.168.252.252,0,0,1-.156.053.9.9,0,0,1-.46-.228,6.261,6.261,0,0,0-.759-.506,6,6,0,0,0-1.129-.5,4.783,4.783,0,0,0-1.589-.235,4.1,4.1,0,0,0-1.845.409,3.89,3.89,0,0,0-1.421,1.187,5.93,5.93,0,0,0-.909,1.916,9.251,9.251,0,0,0-.324,2.576,9.483,9.483,0,0,0,.311,2.544,5.243,5.243,0,0,0,.9,1.852,3.754,3.754,0,0,0,1.428,1.122,4.647,4.647,0,0,0,1.921.382,5.215,5.215,0,0,0,1.578-.221,6.309,6.309,0,0,0,1.155-.5c.317-.182.577-.35.786-.492a.926.926,0,0,1,.479-.228.247.247,0,0,1,.14.039.21.21,0,0,1,.1.129,1.666,1.666,0,0,1,.053.281c.009.115.016.264.016.439" transform="translate(-319.206 -213.022)" fill="#b1b3b3"/><path d="M567.732,263.277a11.912,11.912,0,0,1-.432,3.31A6.949,6.949,0,0,1,566,269.105a5.606,5.606,0,0,1-2.162,1.592,7.645,7.645,0,0,1-3.031.552,7.88,7.88,0,0,1-2.953-.506,5.3,5.3,0,0,1-2.061-1.481,6.41,6.41,0,0,1-1.21-2.415,12.53,12.53,0,0,1-.4-3.31,11.313,11.313,0,0,1,.435-3.252,6.733,6.733,0,0,1,1.295-2.486,5.651,5.651,0,0,1,2.169-1.576,7.518,7.518,0,0,1,3.029-.559,7.81,7.81,0,0,1,2.912.5,5.224,5.224,0,0,1,2.065,1.474,6.15,6.15,0,0,1,1.228,2.383,11.966,11.966,0,0,1,.407,3.257m-2.13.143a12.088,12.088,0,0,0-.228-2.394,5.545,5.545,0,0,0-.759-1.916,3.67,3.67,0,0,0-1.421-1.272,4.782,4.782,0,0,0-2.2-.46,4.483,4.483,0,0,0-2.2.495,4.123,4.123,0,0,0-1.449,1.311,5.478,5.478,0,0,0-.791,1.914,10.509,10.509,0,0,0-.241,2.3,12.783,12.783,0,0,0,.223,2.461,5.43,5.43,0,0,0,.752,1.939,3.534,3.534,0,0,0,1.4,1.26,4.91,4.91,0,0,0,2.222.453,4.563,4.563,0,0,0,2.219-.492,3.958,3.958,0,0,0,1.449-1.332,5.567,5.567,0,0,0,.78-1.934,10.985,10.985,0,0,0,.237-2.33" transform="translate(-306.438 -213.04)" fill="#b1b3b3"/><path d="M574.611,266.782a4.426,4.426,0,0,1-.393,1.9,4.116,4.116,0,0,1-1.09,1.41,4.8,4.8,0,0,1-1.635.869,7.406,7.406,0,0,1-3.448.161,7.019,7.019,0,0,1-1.155-.317,5.131,5.131,0,0,1-.853-.377,2.651,2.651,0,0,1-.481-.343.818.818,0,0,1-.2-.357,2.169,2.169,0,0,1-.064-.58,3.094,3.094,0,0,1,.023-.428,1,1,0,0,1,.071-.278.243.243,0,0,1,.12-.143.285.285,0,0,1,.159-.039.928.928,0,0,1,.465.2,7.059,7.059,0,0,0,.766.428,7.566,7.566,0,0,0,1.129.442,5.121,5.121,0,0,0,1.527.209,4,4,0,0,0,1.2-.182,2.864,2.864,0,0,0,.934-.5,2.066,2.066,0,0,0,.6-.784A2.544,2.544,0,0,0,572.5,267a1.993,1.993,0,0,0-.294-1.1,2.989,2.989,0,0,0-.773-.8,6.5,6.5,0,0,0-1.095-.635l-1.256-.584a13.911,13.911,0,0,1-1.256-.662,5.529,5.529,0,0,1-1.083-.851,3.96,3.96,0,0,1-.78-1.155,3.813,3.813,0,0,1-.3-1.585,3.963,3.963,0,0,1,.347-1.693,3.5,3.5,0,0,1,.962-1.247,4.329,4.329,0,0,1,1.46-.766,6.176,6.176,0,0,1,1.833-.26,5.815,5.815,0,0,1,1.012.085,6.022,6.022,0,0,1,.959.239,5.118,5.118,0,0,1,.8.324,1.927,1.927,0,0,1,.465.292.791.791,0,0,1,.145.175.592.592,0,0,1,.06.163,1.539,1.539,0,0,1,.032.239c.009.092.011.214.011.363s0,.267-.016.377a1.067,1.067,0,0,1-.055.274.3.3,0,0,1-.1.161.238.238,0,0,1-.145.057.955.955,0,0,1-.407-.168c-.182-.11-.4-.232-.672-.37a6.188,6.188,0,0,0-.941-.375,4.194,4.194,0,0,0-1.224-.17,3.3,3.3,0,0,0-1.1.17,2.35,2.35,0,0,0-.777.453,1.833,1.833,0,0,0-.451.669,2.156,2.156,0,0,0-.152.817,1.984,1.984,0,0,0,.292,1.093,3.033,3.033,0,0,0,.78.8,6.935,6.935,0,0,0,1.1.642c.416.2.837.389,1.263.591s.853.414,1.265.656a5.19,5.19,0,0,1,1.109.844,3.935,3.935,0,0,1,.784,1.148,3.794,3.794,0,0,1,.3,1.564" transform="translate(-292.006 -213.04)" fill="#b1b3b3"/></g></svg>