<svg xmlns="http://www.w3.org/2000/svg" width="174.646" height="144.051" viewBox="0 0 174.646 144.051"><g transform="translate(0)"><g transform="translate(45.581 129.432)"><path d="M249.652,206.339v-4.648c0-2.291,1.274-3.533,3.259-3.533,2.052,0,3.261,1.226,3.356,3.468h-1.612c-.1-1.322-.678-1.921-1.757-1.921-.954,0-1.582.63-1.582,1.985v4.648c0,1.339.628,1.969,1.612,1.969,1.1,0,1.679-.614,1.792-1.9h1.615c-.113,2.226-1.325,3.452-3.406,3.452C250.942,209.856,249.652,208.614,249.652,206.339Z" transform="translate(-249.652 -195.253)" fill="#b1b3b3"/><path d="M253.277,206.079v-4.131c0-2.355,1.29-3.79,3.455-3.79s3.452,1.435,3.452,3.79v4.131c0,2.357-1.29,3.793-3.452,3.793S253.277,208.437,253.277,206.079Zm5.228,0v-4.131c0-1.419-.614-2.194-1.773-2.194-1.18,0-1.776.775-1.776,2.194v4.131c0,1.421.6,2.2,1.776,2.2C257.891,208.276,258.5,207.5,258.5,206.079Z" transform="translate(-244.939 -195.253)" fill="#b1b3b3"/><path d="M263.99,198.249v11.3h-1.628l-2.516-5.534c-.34-.839-.807-2.017-1.083-2.744l-.046.032c.113,1.129.193,2.824.193,3.889v4.356h-1.615v-11.3h1.628l2.6,5.762c.34.757.759,1.805,1.033,2.484l.051-.032c-.131-1.113-.228-2.808-.228-3.809v-4.4Z" transform="translate(-239.716 -195.135)" fill="#b1b3b3"/><path d="M261.053,206.564h1.663a1.535,1.535,0,0,0,1.644,1.727,1.453,1.453,0,0,0,1.615-1.55c0-2.243-4.729-2.371-4.729-5.729a2.84,2.84,0,0,1,3.1-2.854,2.97,2.97,0,0,1,3.149,3.163H265.83c-.035-1.081-.6-1.6-1.47-1.6a1.285,1.285,0,0,0-1.451,1.325c0,2.21,4.745,2.21,4.745,5.711a3.3,3.3,0,0,1-6.6-.193Z" transform="translate(-234.831 -195.253)" fill="#b1b3b3"/><path d="M264.713,206.06v-7.811h1.679v7.811c0,1.4.628,2.065,1.663,2.065,1.017,0,1.645-.662,1.645-2.065v-7.811h1.679v7.811c0,2.339-1.306,3.645-3.324,3.645C266.019,209.705,264.713,208.4,264.713,206.06Z" transform="translate(-230.073 -195.135)" fill="#b1b3b3"/><path d="M274.062,207.994v1.55h-5.373v-11.3h1.631v9.745Z" transform="translate(-224.904 -195.135)" fill="#b1b3b3"/><path d="M277.108,199.8h-2.358v9.745H273.09V199.8h-2.339v-1.55h6.357Z" transform="translate(-222.223 -195.135)" fill="#b1b3b3"/><path d="M274.151,206.079v-4.131c0-2.355,1.29-3.79,3.455-3.79s3.452,1.435,3.452,3.79v4.131c0,2.357-1.293,3.793-3.452,3.793S274.151,208.437,274.151,206.079Zm5.228,0v-4.131c0-1.419-.612-2.194-1.773-2.194-1.18,0-1.776.775-1.776,2.194v4.131c0,1.421.6,2.2,1.776,2.2C278.767,208.276,279.379,207.5,279.379,206.079Z" transform="translate(-217.803 -195.253)" fill="#b1b3b3"/><path d="M280.816,205.446H279.8v4.1h-1.631v-11.3h2.921c2.162,0,3.39,1.29,3.39,3.533a3.325,3.325,0,0,1-2.035,3.438l2.454,4.324h-1.808ZM279.8,203.9h1.258c1.145,0,1.743-.741,1.743-2.079s-.6-2.017-1.727-2.017H279.8Z" transform="translate(-212.58 -195.135)" fill="#b1b3b3"/><path d="M283.338,196.895h1.483l-1.76,2.017h-1.226Zm.225,3.114v11.3h-1.631v-11.3Z" transform="translate(-207.813 -196.895)" fill="#b1b3b3"/><path d="M288.507,207.27h-2.985L285,209.544h-1.709l2.838-11.3h1.76l2.84,11.3h-1.7Zm-.34-1.518-.708-3.034c-.163-.741-.34-1.824-.421-2.42h-.048c-.081.6-.242,1.679-.419,2.42l-.695,3.034Z" transform="translate(-205.916 -195.135)" fill="#b1b3b3"/></g><g transform="translate(0 97.621)"><path d="M240.667,183.064v3.666h-2.884v19.442H246.6v-6.755h4.119v10.421H229.834v-3.666h2.882V186.73h-2.882v-3.666Z" transform="translate(-229.834 -183.064)" fill="#b1b3b3"/><path d="M242.789,206.172l5.766-19.442h-2.512v-3.666h12.314l6.675,23.108h2.18v3.666h-10.09v-3.666H259.8l-1.4-5.106h-9.515l-1.4,5.106H250.2v3.666h-9.637v-3.666Zm10.09-19.442-2.923,10.587h7.413l-2.882-10.587Z" transform="translate(-215.884 -183.064)" fill="#b1b3b3"/><path d="M261.716,187.471h-.536v18.7h2.638v3.666H253.767v-3.666h2.882V186.73h-2.882v-3.666h11.325l5.152,16.806,4.982-16.806h11.493v3.666h-2.884v19.442h2.884v3.666H276.132v-3.666h2.68v-18.7h-.536l-5.932,18.618h-4.779Z" transform="translate(-198.721 -183.064)" fill="#b1b3b3"/><path d="M284.15,183.064c4.572,0,7.208,1.318,7.208,6.675,0,3.252-1.028,5.023-2.965,5.849,3.172.7,4.407,2.677,4.407,6.631,0,6.3-3.3,7.62-9.269,7.62H270.1v-3.666h2.884V186.73H270.1v-3.666Zm-6.136,11.123h4.821c2.3,0,3.294-1.155,3.294-4,0-2.677-.948-3.461-3.294-3.461h-4.821Zm0,3.583v8.4h5.313c2.636,0,4.158-.616,4.158-4.365,0-3.3-.9-4.037-4.283-4.037Z" transform="translate(-177.483 -183.064)" fill="#b1b3b3"/><path d="M294.215,183.064c7.705,0,11.659,2.1,11.659,13.018,0,10.3-3.542,13.756-11.491,13.756H282.106v-3.666h2.884V186.73h-2.884v-3.666Zm-4.2,23.108h4.241c4.572,0,6.18-2.512,6.18-10.173,0-8.032-1.771-9.269-6.385-9.269h-4.036Z" transform="translate(-161.881 -183.064)" fill="#b1b3b3"/><path d="M296.405,206.172l5.766-19.442H299.66v-3.666h12.314l6.675,23.108h2.18v3.666h-10.09v-3.666h2.68l-1.4-5.106H302.5l-1.4,5.106h2.719v3.666h-9.637v-3.666ZM306.5,186.73l-2.926,10.587h7.413L308.1,186.73Z" transform="translate(-146.183 -183.064)" fill="#b1b3b3"/></g><g transform="translate(52.357)"><g transform="translate(45.979 3.887)"><path d="M274.884,198.8l-2.3-3.967a28.036,28.036,0,0,0,0-48.56l2.3-3.965a32.619,32.619,0,0,1,0,56.493Z" transform="translate(-272.589 -142.31)" fill="#b1b3b3"/></g><path d="M302.133,153.573H264l3,5.1h35.13l2.548-2.548Z" transform="translate(-237.772 -123.782)" fill="#b1b3b3"/><path d="M277.615,154.614l-5.909-1.608h5.909v-.7a6.8,6.8,0,0,0-13.6,0v5.909l13.6,3.128v-6.725Z" transform="translate(-237.759 -134.275)" fill="#b1b3b3"/><path d="M268.551,200.53l-.352-.207,1.939-3.232.313.186Zm-2.077-1.32-.331-.235,2.178-3.07.3.209Zm-1.967-1.474-.317-.26,2.41-2.893.281.23Zm-1.849-1.617-.294-.283,2.62-2.7.262.251Zm-1.723-1.757-.267-.294,2.808-2.512.251.278Zm-1.58-1.879-.244-.317,2.995-2.284.223.294Zm-1.431-1.987-.228-.345,3.167-2.04.2.3Zm-1.279-2.1-.2-.363,3.314-1.789.173.313Zm-1.115-2.192-.166-.366L258.8,184.3l.15.336Zm-.941-2.261-.143-.386L258,182.291l.122.336Zm-.768-2.339-.108-.386,3.629-1.005.1.357Zm-.584-2.385-.081-.4,3.7-.708.071.354Zm-.4-2.429-.048-.407,3.742-.416.044.359Zm-.214-2.445-.016-.416,3.765-.122.014.354ZM252.6,171.9l0-.193.007-.223,3.765.15-.007.2,0,.159Zm3.905-2.072-3.747-.384.044-.407,3.742.432Zm.3-2.146-3.7-.674.076-.4,3.7.72Zm.469-2.121-3.646-.95.1-.389,3.636.982Zm.628-2.072-3.56-1.233.136-.382,3.547,1.265Zm.789-2.029-3.457-1.5.166-.377,3.436,1.543Zm.938-1.955-3.328-1.764.193-.359,3.307,1.8Zm1.088-1.879-3.183-2.015.223-.347,3.153,2.061Zm1.231-1.789-3.018-2.252.241-.322,3,2.279Zm1.364-1.693-2.841-2.473.274-.31,2.8,2.514Zm1.486-1.582-2.647-2.68.288-.281,2.624,2.7Zm1.6-1.465-2.438-2.873.317-.265,2.4,2.907Zm1.709-1.339-2.213-3.047.336-.239,2.167,3.08Zm1.8-1.2-1.966-3.213.345-.207,1.934,3.232Zm1.888-1.063-1.716-3.351.361-.182,1.679,3.37Zm1.971-.915-1.467-3.468.382-.159,1.412,3.491Zm23.488.72-.327-.156,1.615-3.4.373.179Zm-21.464-1.479-1.194-3.572.391-.126,1.145,3.588Zm19.476.593-.338-.133,1.357-3.512.382.15Zm-17.395-1.2-.913-3.652.4-.1.86,3.669Zm15.352.469-.35-.108,1.086-3.606.386.12Zm-13.237-.909-.616-3.715.4-.064.587,3.719Zm11.143.338-.352-.078.8-3.682.4.09Zm-8.986-.616-.338-3.749.414-.034.278,3.756Zm6.852.209-.359-.051.522-3.731.4.06Zm-4.687-.32-.046-3.765.407,0v3.765Zm2.535.078-.361-.025.23-3.758.407.028Z" transform="translate(-252.598 -140.62)" fill="#b1b3b3"/><path d="M261.176,153.635l15.579,26.453L257.17,213.341h5.916l16.625-28.231,16.625,28.231h5.916L267.082,153.62Z" transform="translate(-246.654 -123.72)" fill="#b1b3b3"/></g></g></svg>