<svg xmlns="http://www.w3.org/2000/svg" width="27.031" height="25.061" viewBox="0 0 27.031 25.061"><path d="M27.031,10.759V24.608a.467.467,0,0,1-.453.453H.453A.467.467,0,0,1,0,24.608V10.759a.425.425,0,0,1,.213-.373L3.675,8.1V.453A.467.467,0,0,1,4.128,0H22.957a.467.467,0,0,1,.453.453V8.1l3.462,2.29A.54.54,0,0,1,27.031,10.759Zm-.905,13.023V11.5l-10.28,5.46ZM23.383,10.306h1.731L23.383,9.161ZM1.944,24.155h23.17L13.5,16.485Zm21.439-12.2,1.411-.746H23.383Zm-.905.453V.905H4.554V12.437l7.484,3.968,1.225-.826a.441.441,0,0,1,.506,0l1.225.826ZM.905,23.782l10.28-6.818L.905,11.5ZM3.649,11.958v-.746H2.237Zm0-1.651V9.161l-1.7,1.145Z" fill="#fcfcfc"/><path d="M43.643,17.521v.32a1.568,1.568,0,0,1-2.9.826,2,2,0,0,1-1.278.479A1.944,1.944,0,1,1,41.406,17.2v.639a.666.666,0,1,0,1.332,0v-.32a3.116,3.116,0,0,0-6.232,0v.133a3.12,3.12,0,0,0,3.116,3.116H43.19a.453.453,0,0,1,0,.905H39.621A4.035,4.035,0,0,1,35.6,17.655v-.133a4.021,4.021,0,1,1,8.043,0ZM40.5,17.228a1.039,1.039,0,0,0-2.077,0,1.04,1.04,0,0,0,1.039,1.039A1.023,1.023,0,0,0,40.5,17.228Z" transform="translate(-26.119 -9.905)" fill="#fcfcfc"/></svg>