<svg xmlns="http://www.w3.org/2000/svg" width="27.031" height="27.486" viewBox="0 0 16.581 27.486"><g transform="translate(0)"><path d="M16.58,2.325V25.161a2.339,2.339,0,0,1-2.325,2.325H2.325A2.339,2.339,0,0,1,0,25.161V2.325A2.339,2.339,0,0,1,2.325,0h11.93A2.339,2.339,0,0,1,16.58,2.325Zm-.941,22.836v-1.91H.941v1.91a1.371,1.371,0,0,0,1.384,1.384h11.93A1.388,1.388,0,0,0,15.639,25.161Zm0-2.823V5.149H.941V22.338Zm0-18.131V2.325A1.371,1.371,0,0,0,14.255.941H2.325A1.371,1.371,0,0,0,.941,2.325v1.91h14.7Z" fill="#fcfcfc"/><path d="M25.529,7.6a.471.471,0,0,1,0,.941H21.571a.471.471,0,0,1,0-.941h3.958Z" transform="translate(-15.259 -5.496)" fill="#fcfcfc"/><path d="M26.284,84.8a1.388,1.388,0,0,1,1.384,1.384,1.406,1.406,0,0,1-1.384,1.384,1.384,1.384,0,0,1,0-2.768Zm.471,1.412a.471.471,0,1,0-.471.471A.467.467,0,0,0,26.755,86.212Z" transform="translate(-18.008 -61.327)" fill="#fcfcfc"/></g></svg>